<?xml version="1.0" encoding="UTF-8"?>
<svg version="1.0" viewBox="0 0 1300 700" xmlns="http://www.w3.org/2000/svg" xmlns:xlink="http://www.w3.org/1999/xlink">
 <defs>
  <clipPath id="cPh">
   <path transform="translate(-.1 -.1)" d="M34 337a8 8 0 0 0-8 8v256a8 8 0 0 0 8 8h176a8 8 0 0 0 8-8V345a8 8 0 0 0-8-8z" stroke-width="2"/>
  </clipPath>
  <clipPath id="cPd">
   <path id="p408" transform="translate(-.1 -.1)" d="M34 191a8 8 0 0 0-8 8v256a8 8 0 0 0 8 8h176a8 8 0 0 0 8-8V199a8 8 0 0 0-8-8z" stroke-width="2"/>
  </clipPath>
  <clipPath id="cPc">
   <use transform="translate(-.1 -135.1)" xlink:href="#p408"/>
  </clipPath>
  <clipPath id="cPs">
   <use transform="matrix(2 0 0 2 22 477)" xlink:href="#card"/>
  </clipPath>
  <clipPath id="cPstr">
   <path transform="translate(-.1 -.1)" d="M134 611a8 8 0 0 0-8 8v256a8 8 0 0 0 8 8h176a8 8 0 0 0 8-8V619a8 8 0 0 0-8-8z" stroke-width="2"/>
  </clipPath>
  <clipPath id="cPstb">
   <use transform="matrix(2 0 0 2 22 607)" xlink:href="#card"/>
  </clipPath>
 </defs>
 <g id="back">
  <rect id="bk" x="201" y="561" width="98" height="138" rx="5" ry="5" fill="#88d" stroke="#333" stroke-width="2"/>
 </g>
 <g id="joker_black">
  <use transform="translate(0 560)" xlink:href="#card"/>
  <path id="starb" d="M10 628h30.5l9.5-29 9.5 29H90l-24.7 18 9.5 29L50 657l-24.8 18 9.5-29z" fill="#333"/>
  <use transform="matrix(.5 0 0 .5 -11 256.5)" clip-path="url(#cPstb)" xlink:href="#starb"/>
 </g>
 <g id="joker_red">
  <use transform="translate(100 560)" xlink:href="#card"/>
  <path id="starr" d="M110 628h30.5l9.5-29 9.5 29H190l-24.7 18 9.5 29-24.8-18-24.8 18 9.5-29z" fill="#f11"/>
  <use transform="matrix(.5 0 0 .5 39 256.5)" clip-path="url(#cPstr)" xlink:href="#starr"/>
 </g>
 <g id="club_king">
  <use transform="translate(1200)" xlink:href="#card"/>
  <use transform="translate(1200)" xlink:href="#cS"/>
  <use transform="translate(1200)" xlink:href="#c"/>
  <path id="iK" d="M1239 95c-.5 0-.5-.3-.5-.5v-31c0-.3.3-.5.5-.5h5.2c.4 0 .6.3.6.5v13h.2l10.4-13.2c.2-.2.4-.3.7-.3h5.9c.6 0 .7.4.4.7l-10 13c-.1.1-.2.2-.1.3l10.6 17.3c.3.5-.1.7-.4.7h-5.9a.7.7 0 0 1-.6-.4l-8-13.1c0-.1-.2-.2-.3-.1l-2.8 3.7-.1.3v9c0 .5-.2.6-.6.6z" fill="#fff"/>
  <use id="iKS" transform="matrix(.5 0 0 .5 586.6 -27.3)" xlink:href="#iK"/>
 </g>
 <g id="club_queen">
  <use transform="translate(1100)" xlink:href="#card"/>
  <use transform="translate(1100)" xlink:href="#cS"/>
  <use transform="translate(1100)" xlink:href="#c"/>
  <path id="iQ" d="M1150 62.6c7 0 12 4.5 12 11.8V85c0 5.2-3.2 9.7-8.4 10.8-.2 0-.2.1-.2.3v4.8c0 .4-.3.6-.6.6h-5.5c-.3 0-.6-.3-.5-.6v-4.8l-.2-.2A11 11 0 0 1 1138 85V74.4c0-7.2 5-11.8 12-11.8zm5.4 11.5c0-3.1-2.2-5.8-5.4-5.8s-5.3 2.7-5.3 5.8v10.7c-.2 3.1 2 5.8 5.3 5.8 2.4 0 5.4-1.6 5.4-5.8z" fill="#fff"/>
  <use id="iQS" transform="matrix(.5 0 0 .5 536.6 -27.3)" xlink:href="#iQ"/>
 </g>
 <g id="club_jack">
  <use transform="translate(1e3)" xlink:href="#card"/>
  <use transform="translate(1e3)" xlink:href="#cS"/>
  <use transform="translate(1e3)" xlink:href="#c"/>
  <path id="iJ" d="M1048.5 95c-7.4 0-11.5-4.7-11.5-10.3v-2.9c0-.1.2-.5.6-.5h5.3c.3 0 .6.3.6.5v2.9c0 3.2 2.1 4.8 5 4.8 2.5 0 5.1-1.4 5.1-4.8V63.5c0-.1.2-.5.6-.5h5.3c.2 0 .5.3.5.5v21.2c0 6.7-5.3 10.3-11.5 10.3z" fill="#fff"/>
  <use id="iJs" transform="matrix(.5 0 0 .5 486.6 -27.3)" xlink:href="#iJ"/>
 </g>
 <g id="club_10">
  <use transform="translate(900)" xlink:href="#card"/>
  <use transform="translate(900)" xlink:href="#cS"/>
  <use transform="translate(900)" xlink:href="#c"/>
  <path id="i10" d="M955.4 62.6c-6 0-8.7 5-8.7 9.2v14.4c0 6.8 5 9.3 8.7 9.2 5.5 0 8.9-4.2 8.9-9.2V71.8c0-4.5-3.2-9.3-9-9.2zm-17.6.5c-.3 0-.5.3-.5.6v30.7c0 .3.3.5.5.5h5.2c.4 0 .6-.3.6-.6V63.7c0-.3-.3-.6-.6-.6zm17.6 5c1.4 0 2.5 1.2 2.5 3.3v15.2c0 2-1 3.3-2.5 3.3-2.1 0-2.4-2.8-2.4-3.3V71.4c0-2.6 1.5-3.3 2.4-3.3z" fill="#fff"/>
  <use id="i10S" transform="matrix(.5 0 0 .5 436.6 -27.3)" xlink:href="#i10"/>
 </g>
 <g id="club_9">
  <use transform="translate(800)" xlink:href="#card"/>
  <use transform="translate(800)" xlink:href="#cS"/>
  <use transform="translate(800)" xlink:href="#c"/>
  <path id="i9" d="M860.5 73.3V87c0 4-3 8.3-10.2 8.3-7.4 0-10-4.7-10-8.2v-1.3c0-.3.3-.5.5-.5h5.3c.4 0 .6.3.6.5v.5c0 2 1.4 3.5 3.6 3.5 2 0 3.8-1 3.8-3.7V82l-.1-.2h-.2a7 7 0 0 1-4.9 1.6c-5 0-9.4-3.3-9.4-10 0-6.2 4-10.6 10.5-10.6 6.6 0 10.6 5 10.5 10.5zM850 78c3.8 0 4.1-3.7 4.1-4.9 0-1.3-.3-4.8-4.1-4.8-3.2 0-4.1 3-4.1 4.9 0 2 1 4.8 4.1 4.8z" fill="#fff"/>
  <use id="i9S" transform="matrix(.5 0 0 .5 386.6 -27.3)" xlink:href="#i9"/>
 </g>
 <g id="club_8">
  <use transform="translate(700)" xlink:href="#card"/>
  <use transform="translate(700)" xlink:href="#cS"/>
  <use transform="translate(700)" xlink:href="#c"/>
  <path id="i8" d="M760.5 85.7c0 5.9-4.4 9.6-10.5 9.6-5.9 0-10.5-3.6-10.5-9.7 0-1.9.4-5.3 3.3-7.2v-.3a7.6 7.6 0 0 1-2.9-6.2c0-6 4.9-9.1 10.1-9.1 6.8 0 10.1 4.6 10.1 9.1 0 3.7-2 5.3-3 6.2v.3c3 1.8 3.4 5.3 3.4 7.3zm-14.3-13.6c0 1.6.8 4 3.8 4 2.4 0 3.9-1.6 3.9-4.1 0-1.5-1-3.8-3.9-3.8-3.2 0-3.8 2.9-3.8 3.9zm7.9 13c0-1.7-.6-4.8-4.1-4.8-2.7 0-4 2.3-4 4.9 0 .7.2 4.7 4.1 4.6 1.7 0 4-1 4-4.7z" fill="#fff"/>
  <use id="i8S" transform="matrix(.5 0 0 .5 336.6 -27.3)" xlink:href="#i8"/>
 </g>
 <g id="club_7">
  <use transform="translate(600)" xlink:href="#card"/>
  <use transform="translate(600)" xlink:href="#cS"/>
  <use transform="translate(600)" xlink:href="#c"/>
  <path id="i7" d="M644.5 95c-.5 0-.6-.2-.5-.6l10-25.6c0-.2 0-.3-.2-.3h-8.6c-.1 0-.2.1-.2.3v2c0 .5-.2.6-.5.6h-4.2c-.5 0-.5-.3-.5-.5v-7.4c0-.3.3-.5.5-.5h20c.3 0 .6.3.6.5v4.7l-.2.6-9.9 25.8c-.1.3-.2.4-.6.4z" fill="#fff"/>
  <use id="i7S" transform="matrix(.5 0 0 .5 286.6 -27.3)" xlink:href="#i7"/>
 </g>
 <g id="club_6">
  <use transform="translate(500)" xlink:href="#card"/>
  <use transform="translate(500)" xlink:href="#cS"/>
  <use transform="translate(500)" xlink:href="#c"/>
  <path id="i6" d="M560.5 84.7c0 9.5-7.9 10.5-10.5 10.6-6.2 0-10.5-4.2-10.5-10.6V71c0-4.5 3.6-8.2 10.2-8.2 6.4 0 10 3.5 10 8.1v1.3c0 .5-.3.5-.5.5h-5.3c-.4 0-.6-.2-.6-.5v-.4c0-2-1.4-3.5-3.6-3.5-2 0-3.7 1.2-3.7 3.6v4.4h.2a8 8 0 0 1 5-1.6c4.2 0 9.3 2.6 9.3 10zm-6.4.1c0-3.6-2.2-4.8-4.1-4.8-3.4 0-4 2.8-4 4.9 0 1.2.3 4.8 4 4.8 3.6 0 4.1-3.6 4.1-4.9z" fill="#fff"/>
  <use id="i6S" transform="matrix(.5 0 0 .5 236.6 -27.3)" xlink:href="#i6"/>
 </g>
 <g id="club_5">
  <use transform="translate(400)" xlink:href="#card"/>
  <use transform="translate(400)" xlink:href="#cS"/>
  <use transform="translate(400)" xlink:href="#c"/>
  <path id="i5" d="M460.6 84.7c0 5.2-3.3 10.6-10.7 10.6-5.7 0-9.2-3.6-10.5-8.8-.1-.4.2-.6.6-.6h5.5c.3 0 .5.2.6.5 0 .1.7 3.3 3.8 3.3 3 0 4.1-3 4.1-5 0-1.7-.5-4.8-3.9-4.8-1.4 0-3.3.7-3.9 2.1-.1.3-.3.5-.6.5H440c-.5 0-.5-.3-.5-.6V63.5c0-.3.3-.5.5-.5h19c.3 0 .5.3.5.5V68c0 .4-.3.5-.5.5h-13c-.1 0-.2 0-.2.2v6.8c0 .2 0 .2.2.1 1.4-.9 3-1.3 4.8-1.3 8.1.1 9.9 5.5 9.8 10.4z" fill="#fff"/>
  <use id="i5S" transform="matrix(.5 0 0 .5 186.6 -27.3)" xlink:href="#i5"/>
 </g>
 <g id="club_4">
  <use transform="translate(300)" xlink:href="#card"/>
  <use transform="translate(300)" xlink:href="#cS"/>
  <use transform="translate(300)" xlink:href="#c"/>
  <path id="i4" d="M360 80.9c.3 0 .5.2.5.5v4.7c0 .5-.3.5-.6.5h-2l-.1.3v7.5c0 .2 0 .4-.2.5l-.4.1H352l-.5-.1v-8c0-.2-.1-.3-.3-.3h-14c-.6 0-.6-.2-.6-.5v-3.7l.1-.7 8.3-18.8c0-.3.3-.4.6-.4h5.7c.2 0 .6.1.4.6L344 80.7l.1.2h7c.1 0 .2 0 .2-.2V75c0-.5.3-.6.6-.6h5.3c.4 0 .6.3.6.5v5.8c0 .1 0 .2.2.2z" fill="#fff"/>
  <use id="i4S" transform="matrix(.5 0 0 .5 136.6 -27.3)" xlink:href="#i4"/>
 </g>
 <g id="club_3">
  <use transform="translate(200)" xlink:href="#card"/>
  <use transform="translate(200)" xlink:href="#cS"/>
  <use transform="translate(200)" xlink:href="#c"/>
  <path id="i3" d="M260.6 84.4c0 4-2 10.7-10.6 10.7a10 10 0 0 1-10.5-10.2c0-.4.2-.6.5-.6h5.4c.3 0 .5.2.5.6.3 2.6 1.1 4.7 4.1 4.7 3.7 0 4.1-3.6 4.1-5.4 0-1.7-.4-5.7-4.2-5.7-1.1 0-2 1-2.4 1.2-.3.3-.6 0-.7-.2l-2.7-3.7c-.2-.3-.1-.6.1-.8l7.2-6.3v-.3h-10.8c-.5 0-.5-.2-.5-.6v-4.4c0-.3.3-.5.5-.5h19c.4 0 .6.3.6.5v5c0 .3-.1.5-.4.7l-6 5.5.2.2c4 1.5 6.6 4.8 6.6 9.6z" fill="#fff"/>
  <use id="i3S" transform="matrix(.5 0 0 .5 86.6 -27.3)" xlink:href="#i3"/>
 </g>
 <g id="club_2">
  <use transform="translate(100)" xlink:href="#card"/>
  <use transform="translate(100)" xlink:href="#cS"/>
  <use transform="translate(100)" xlink:href="#c"/>
  <path id="i2" d="M147.9 89.2c-.2.2 0 .2.1.2h12.3c.3 0 .6.5.6.6v4.5c0 .5-.3.5-.6.5h-20.5c-.5 0-.5-.3-.5-.5v-4.2c0-.3.1-.5.3-.7 3.4-3.5 6.8-7.2 10-10.9 2.8-3 4.2-5.3 4.2-6.8 0-2-1.5-3.6-4.2-3.6-2.9 0-4 1.9-4 3.7v1.1c0 .3-.3.6-.6.6h-5.3c-.5 0-.6-.3-.6-.6V71c.3-4.2 3.7-8.3 10.6-8.3 5.5 0 10.6 3.3 10.6 9.1 0 4.9-5.6 10.7-11.8 16.7z" fill="#fff"/>
  <use id="i2S" transform="matrix(.5 0 0 .5 36.6 -27.3)" xlink:href="#i2"/>
 </g>
 <g id="club_1">
  <rect id="card" x="1" y="1" width="98" height="138" rx="5" ry="5" fill="#fff" stroke="#333" stroke-width="2"/>
  <path id="c" d="M50 40a18.5 18.5 0 0 0-18.5 18.8v4.5c-10.4 0-19 8.4-19 18.7s8.6 18.8 19 18.8H37l5 19.2h16l5-19.3h5.5c10.4 0 19-8.4 19-18.7s-8.6-18.8-19-18.8v-4.5C68.5 48.5 60.4 40 50 40z" fill="#555"/>
  <use id="cS" transform="matrix(.5 0 0 .5 -11 -26)" clip-path="url(#cPc)" xlink:href="#c"/>
  <path id="iA" d="M57.9 94.3c-.3 0-.5-.2-.6-.5l-1.7-5.5-.2-.2H44.6l-.2.2-1.7 5.5c0 .3-.3.5-.6.5h-5.8c-.6 0-.7-.3-.5-.7l10-30.9c0-.3.3-.5.6-.5h7.2c.3 0 .5.2.6.5l10 31c0 .1 0 .6-.4.6h-5.9zM46 82.8c0 .2 0 .3.2.3h7.5c.2 0 .3-.1.2-.3l-3.8-12.6c0-.1-.1-.2-.2-.1l-.1.1z" fill="#fff"/>
  <use id="iAS" transform="matrix(.5 0 0 .5 -13.4 -27.3)" xlink:href="#iA"/>
 </g>
 <g id="diamond_king">
  <use transform="translate(1200 140)" xlink:href="#card"/>
  <use transform="translate(1200)" xlink:href="#d"/>
  <use transform="translate(1200)" xlink:href="#dS"/>
  <use transform="translate(0 140)" xlink:href="#iK"/>
  <use transform="translate(0 140)" xlink:href="#iKS"/>
 </g>
 <g id="diamond_queen">
  <use transform="translate(1100 140)" xlink:href="#card"/>
  <use transform="translate(1100)" xlink:href="#d"/>
  <use transform="translate(1100)" xlink:href="#dS"/>
  <use transform="translate(0 140)" xlink:href="#iQ"/>
  <use transform="translate(0 140)" xlink:href="#iQS"/>
 </g>
 <g id="diamond_jack">
  <use transform="translate(1e3 140)" xlink:href="#card"/>
  <use transform="translate(1e3)" xlink:href="#d"/>
  <use transform="translate(1e3)" xlink:href="#dS"/>
  <use transform="translate(0 140)" xlink:href="#iJ"/>
  <use transform="translate(0 140)" xlink:href="#iJs"/>
 </g>
 <g id="diamond_10">
  <use transform="translate(900 140)" xlink:href="#card"/>
  <use transform="translate(900)" xlink:href="#d"/>
  <use transform="translate(900)" xlink:href="#dS"/>
  <use transform="translate(0 140)" xlink:href="#i10"/>
  <use transform="translate(0 140)" xlink:href="#i10S"/>
 </g>
 <g id="diamond_9">
  <use transform="translate(800 140)" xlink:href="#card"/>
  <use transform="translate(800)" xlink:href="#d"/>
  <use transform="translate(800)" xlink:href="#dS"/>
  <use transform="translate(0 140)" xlink:href="#i9"/>
  <use transform="translate(0 140)" xlink:href="#i9S"/>
 </g>
 <g id="diamond_8">
  <use transform="translate(700 140)" xlink:href="#card"/>
  <use transform="translate(700)" xlink:href="#d"/>
  <use transform="translate(700)" xlink:href="#dS"/>
  <use transform="translate(0 140)" xlink:href="#i8"/>
  <use transform="translate(0 140)" xlink:href="#i8S"/>
 </g>
 <g id="diamond_7">
  <use transform="translate(600 140)" xlink:href="#card"/>
  <use transform="translate(600)" xlink:href="#d"/>
  <use transform="translate(600)" xlink:href="#dS"/>
  <use transform="translate(0 140)" xlink:href="#i7"/>
  <use transform="translate(0 140)" xlink:href="#i7S"/>
 </g>
 <g id="diamond_6">
  <use transform="translate(500 140)" xlink:href="#card"/>
  <use transform="translate(500)" xlink:href="#d"/>
  <use transform="translate(500)" xlink:href="#dS"/>
  <use transform="translate(0 140)" xlink:href="#i6"/>
  <use transform="translate(0 140)" xlink:href="#i6S"/>
 </g>
 <g id="diamond_5">
  <use transform="translate(400 140)" xlink:href="#card"/>
  <use transform="translate(400)" xlink:href="#d"/>
  <use transform="translate(400)" xlink:href="#dS"/>
  <use transform="translate(0 140)" xlink:href="#i5"/>
  <use transform="translate(0 140)" xlink:href="#i5S"/>
 </g>
 <g id="diamond_4">
  <use transform="translate(300 140)" xlink:href="#card"/>
  <use transform="translate(300)" xlink:href="#d"/>
  <use transform="translate(300)" xlink:href="#dS"/>
  <use transform="translate(0 140)" xlink:href="#i4"/>
  <use transform="translate(0 140)" xlink:href="#i4S"/>
 </g>
 <g id="diamond_3">
  <use transform="translate(200 140)" xlink:href="#card"/>
  <use transform="translate(200)" xlink:href="#d"/>
  <use transform="translate(200)" xlink:href="#dS"/>
  <use transform="translate(0 140)" xlink:href="#i3"/>
  <use transform="translate(0 140)" xlink:href="#i3S"/>
 </g>
 <g id="diamond_2">
  <use transform="translate(100 140)" xlink:href="#card"/>
  <use transform="translate(100)" xlink:href="#d"/>
  <use transform="translate(100)" xlink:href="#dS"/>
  <use transform="translate(0 140)" xlink:href="#i2"/>
  <use transform="translate(0 140)" xlink:href="#i2S"/>
 </g>
 <g id="diamond_1">
  <use transform="translate(0 140)" xlink:href="#card"/>
  <path id="d" d="m50 178 38 42-38 42-38-42z" fill="#f55"/>
  <use id="dS" transform="matrix(.5 0 0 .5 -11 46.5)" clip-path="url(#cPd)" xlink:href="#d"/>
  <use transform="translate(0 140)" xlink:href="#iA"/>
  <use transform="translate(0 140)" xlink:href="#iAS"/>
 </g>
 <g id="heart_king">
  <use transform="translate(1200 280)" xlink:href="#card"/>
  <use transform="translate(1200)" xlink:href="#h"/>
  <use transform="translate(1200)" xlink:href="#hS"/>
  <use transform="translate(0 280)" xlink:href="#iK"/>
  <use transform="translate(0 280)" xlink:href="#iKS"/>
 </g>
 <g id="heart_queen">
  <use transform="translate(1100 280)" xlink:href="#card"/>
  <use transform="translate(1100)" xlink:href="#h"/>
  <use transform="translate(1100)" xlink:href="#hS"/>
  <use transform="translate(0 280)" xlink:href="#iQ"/>
  <use transform="translate(0 280)" xlink:href="#iQS"/>
 </g>
 <g id="heart_jack">
  <use transform="translate(1e3 280)" xlink:href="#card"/>
  <use transform="translate(1e3)" xlink:href="#h"/>
  <use transform="translate(1e3)" xlink:href="#hS"/>
  <use transform="translate(0 280)" xlink:href="#iJ"/>
  <use transform="translate(0 280)" xlink:href="#iJs"/>
 </g>
 <g id="heart_10">
  <use transform="translate(900 280)" xlink:href="#card"/>
  <use transform="translate(900)" xlink:href="#h"/>
  <use transform="translate(900)" xlink:href="#hS"/>
  <use transform="translate(0 280)" xlink:href="#i10"/>
  <use transform="translate(0 280)" xlink:href="#i10S"/>
 </g>
 <g id="heart_9">
  <use transform="translate(800 280)" xlink:href="#card"/>
  <use transform="translate(800)" xlink:href="#h"/>
  <use transform="translate(800)" xlink:href="#hS"/>
  <use transform="translate(0 280)" xlink:href="#i9"/>
  <use transform="translate(0 280)" xlink:href="#i9S"/>
 </g>
 <g id="heart_8">
  <use transform="translate(700 280)" xlink:href="#card"/>
  <use transform="translate(700)" xlink:href="#h"/>
  <use transform="translate(700)" xlink:href="#hS"/>
  <use transform="translate(0 280)" xlink:href="#i8"/>
  <use transform="translate(0 280)" xlink:href="#i8S"/>
 </g>
 <g id="heart_7">
  <use transform="translate(600 280)" xlink:href="#card"/>
  <use transform="translate(600)" xlink:href="#h"/>
  <use transform="translate(600)" xlink:href="#hS"/>
  <use transform="translate(0 280)" xlink:href="#i7"/>
  <use transform="translate(0 280)" xlink:href="#i7S"/>
 </g>
 <g id="heart_6">
  <use transform="translate(500 280)" xlink:href="#card"/>
  <use transform="translate(500)" xlink:href="#h"/>
  <use transform="translate(500)" xlink:href="#hS"/>
  <use transform="translate(0 280)" xlink:href="#i6"/>
  <use transform="translate(0 280)" xlink:href="#i6S"/>
 </g>
 <g id="heart_5">
  <use transform="translate(400 280)" xlink:href="#card"/>
  <use transform="translate(400)" xlink:href="#h"/>
  <use transform="translate(400)" xlink:href="#hS"/>
  <use transform="translate(0 280)" xlink:href="#i5"/>
  <use transform="translate(0 280)" xlink:href="#i5S"/>
 </g>
 <g id="heart_4">
  <use transform="translate(300 280)" xlink:href="#card"/>
  <use transform="translate(300)" xlink:href="#h"/>
  <use transform="translate(300)" xlink:href="#hS"/>
  <use transform="translate(0 280)" xlink:href="#i4"/>
  <use transform="translate(0 280)" xlink:href="#i4S"/>
 </g>
 <g id="heart_3">
  <use transform="translate(200 280)" xlink:href="#card"/>
  <use transform="translate(200)" xlink:href="#h"/>
  <use transform="translate(200)" xlink:href="#hS"/>
  <use transform="translate(0 280)" xlink:href="#i3"/>
  <use transform="translate(0 280)" xlink:href="#i3S"/>
 </g>
 <g id="heart_2">
  <use transform="translate(100 280)" xlink:href="#card"/>
  <use transform="translate(100)" xlink:href="#h"/>
  <use transform="translate(100)" xlink:href="#hS"/>
  <use transform="translate(0 280)" xlink:href="#i2"/>
  <use transform="translate(0 280)" xlink:href="#i2S"/>
 </g>
 <g id="heart_1">
  <use transform="translate(0 280)" xlink:href="#card"/>
  <path id="h" d="M32.5 326a20 20 0 0 0-20 20c0 25 37.5 50 37.5 50s37.5-25 37.5-50a20 20 0 0 0-20-20A20 20 0 0 0 50 336.4 20 20 0 0 0 32.5 326z" fill="#f11"/>
  <use id="hS" transform="matrix(.5 0 0 .5 -11 113.5)" clip-path="url(#cPh)" xlink:href="#h"/>
  <use transform="translate(0 280)" xlink:href="#iA"/>
  <use transform="translate(0 280)" xlink:href="#iAS"/>
 </g>
 <g id="spade_king">
  <use transform="translate(1200 420)" xlink:href="#card"/>
  <use transform="translate(1200)" xlink:href="#s"/>
  <use transform="translate(1200)" xlink:href="#sS"/>
  <use transform="translate(0 420)" xlink:href="#iK"/>
  <use transform="translate(0 420)" xlink:href="#iKS"/>
 </g>
 <g id="spade_queen">
  <use transform="translate(1100 420)" xlink:href="#card"/>
  <use transform="translate(1100)" xlink:href="#s"/>
  <use transform="translate(1100)" xlink:href="#sS"/>
  <use transform="translate(0 420)" xlink:href="#iQ"/>
  <use transform="translate(0 420)" xlink:href="#iQS"/>
 </g>
 <g id="spade_jack">
  <use transform="translate(1e3 420)" xlink:href="#card"/>
  <use transform="translate(1e3)" xlink:href="#s"/>
  <use transform="translate(1e3)" xlink:href="#sS"/>
  <use transform="translate(0 420)" xlink:href="#iJ"/>
  <use transform="translate(0 420)" xlink:href="#iJs"/>
 </g>
 <g id="spade_10">
  <use transform="translate(900 420)" xlink:href="#card"/>
  <use transform="translate(900)" xlink:href="#s"/>
  <use transform="translate(900)" xlink:href="#sS"/>
  <use transform="translate(0 420)" xlink:href="#i10"/>
  <use transform="translate(0 420)" xlink:href="#i10S"/>
 </g>
 <g id="spade_9">
  <use transform="translate(800 420)" xlink:href="#card"/>
  <use transform="translate(800)" xlink:href="#s"/>
  <use transform="translate(800)" xlink:href="#sS"/>
  <use transform="translate(0 420)" xlink:href="#i9"/>
  <use transform="translate(0 420)" xlink:href="#i9S"/>
 </g>
 <g id="spade_8">
  <use transform="translate(700 420)" xlink:href="#card"/>
  <use transform="translate(700)" xlink:href="#s"/>
  <use transform="translate(700)" xlink:href="#sS"/>
  <use transform="translate(0 420)" xlink:href="#i8"/>
  <use transform="translate(0 420)" xlink:href="#i8S"/>
 </g>
 <g id="spade_7">
  <use transform="translate(600 420)" xlink:href="#card"/>
  <use transform="translate(600)" xlink:href="#s"/>
  <use transform="translate(600)" xlink:href="#sS"/>
  <use transform="translate(0 420)" xlink:href="#i7"/>
  <use transform="translate(0 420)" xlink:href="#i7S"/>
 </g>
 <g id="spade_6">
  <use transform="translate(500 420)" xlink:href="#card"/>
  <use transform="translate(500)" xlink:href="#s"/>
  <use transform="translate(500)" xlink:href="#sS"/>
  <use transform="translate(0 420)" xlink:href="#i6"/>
  <use transform="translate(0 420)" xlink:href="#i6S"/>
 </g>
 <g id="spade_5">
  <use transform="translate(400 420)" xlink:href="#card"/>
  <use transform="translate(400)" xlink:href="#s"/>
  <use transform="translate(400)" xlink:href="#sS"/>
  <use transform="translate(0 420)" xlink:href="#i5"/>
  <use transform="translate(0 420)" xlink:href="#i5S"/>
 </g>
 <g id="spade_4">
  <use transform="translate(300 420)" xlink:href="#card"/>
  <use transform="translate(300)" xlink:href="#s"/>
  <use transform="translate(300)" xlink:href="#sS"/>
  <use transform="translate(0 420)" xlink:href="#i4"/>
  <use transform="translate(0 420)" xlink:href="#i4S"/>
 </g>
 <g id="spade_3">
  <use transform="translate(200 420)" xlink:href="#card"/>
  <use transform="translate(200)" xlink:href="#s"/>
  <use transform="translate(200)" xlink:href="#sS"/>
  <use transform="translate(0 420)" xlink:href="#i3"/>
  <use transform="translate(0 420)" xlink:href="#i3S"/>
 </g>
 <g id="spade_2">
  <use transform="translate(100 420)" xlink:href="#card"/>
  <use transform="translate(100)" xlink:href="#s"/>
  <use transform="translate(100)" xlink:href="#sS"/>
  <use transform="translate(0 420)" xlink:href="#i2"/>
  <use transform="translate(0 420)" xlink:href="#i2S"/>
 </g>
 <g id="spade_1">
  <use transform="translate(0 420)" xlink:href="#card"/>
  <path id="s" d="m50 464-27.5 24.3c-7 6-10 11.7-10 18.1a20 20 0 0 0 20 20A18.6 18.6 0 0 0 46 521l-16 23h40s-15.8-23.7-16-23a18.6 18.6 0 0 0 13.5 5.5 20 20 0 0 0 20-20c0-6.5-3-12.1-10-18.2z" fill="#333"/>
  <use id="sS" transform="matrix(.5 0 0 .5 -11 181.5)" clip-path="url(#cPs)" xlink:href="#s"/>
  <use transform="translate(0 420)" xlink:href="#iA"/>
  <use transform="translate(0 420)" xlink:href="#iAS"/>
 </g>
</svg>
