<?xml version="1.0" encoding="UTF-8"?>
<svg version="1.0" viewBox="0 0 1300 700" xmlns="http://www.w3.org/2000/svg" xmlns:xlink="http://www.w3.org/1999/xlink">
 <defs>
  <clipPath id="cPh">
   <path transform="translate(-.1 -.1)" d="m34 337a8 8 0 00-8 8v256a8 8 0 008 8h176a8 8 0 008-8v-256a8 8 0 00-8-8z" stroke-width="2"/>
  </clipPath>
  <clipPath id="cPd">
   <path id="p408" transform="translate(-.1 -.1)" d="m34 191a8 8 0 00-8 8v256a8 8 0 008 8h176a8 8 0 008-8v-256a8 8 0 00-8-8z" stroke-width="2"/>
  </clipPath>
  <clipPath id="cPc">
   <use transform="translate(-.1 -135.1)" xlink:href="#p408"/>
  </clipPath>
  <clipPath id="cPs">
   <use transform="matrix(2 0 0 2 22 477)" xlink:href="#card"/>
  </clipPath>
  <clipPath id="cPstr">
   <path transform="translate(-.1 -.1)" d="m134 611a8 8 0 00-8 8v256a8 8 0 008 8h176a8 8 0 008-8v-256a8 8 0 00-8-8z" stroke-width="2"/>
  </clipPath>
  <clipPath id="cPstb">
   <use transform="matrix(2 0 0 2 22 607)" xlink:href="#card"/>
  </clipPath>
 </defs>
 <g id="back">
  <rect id="bk" x="201" y="561" width="98" height="138" rx="5" ry="5" fill="#7070c2" stroke="#f9f9f9" stroke-width="2"/>
 </g>
 <g id="joker_black">
  <use transform="translate(0 560)" xlink:href="#card"/>
  <path id="starb" d="M10 628h30.5l9.5-29 9.5 29H90l-24.7 18 9.5 29L50 657l-24.8 18 9.5-29z" fill="#f9f9f9"/>
  <use id="starbS" transform="matrix(.5 0 0 .5 -11 256.5)" clip-path="url(#cPstb)" xlink:href="#starb"/>
 </g>
 <g id="joker_red">
  <use transform="translate(100 560)" xlink:href="#card"/>
  <path id="starr" d="M110 628h30.5l9.5-29 9.5 29H190l-24.7 18 9.5 29-24.8-18-24.8 18 9.5-29z" fill="#fa4c4c"/>
  <use id="starrS" transform="matrix(.5 0 0 .5 39 256.5)" clip-path="url(#cPstr)" xlink:href="#starr"/>
 </g>
 <g id="club_king">
  <use transform="translate(1200)" xlink:href="#card"/>
  <use transform="translate(1200)" xlink:href="#cS"/>
  <use transform="translate(1200)" xlink:href="#c"/>
  <path id="iK" d="m1239 95-.4-.1-.1-.4v-31l.1-.3.4-.2h5.2q.3 0 .4.2.2.1.2.3v13h.2l10.4-13.2q.3-.3.7-.3h5.9q.3 0 .4.2v.5l-10 13q-.2.2-.1.3l10.6 17.3v.4q0 .3-.4.3h-5.9q-.5 0-.6-.4l-8-13.1-.1-.1h-.2l-2.8 3.7-.1.3v9q0 .3-.2.5l-.4.1z" fill="#333"/>
  <use id="iKS" transform="matrix(.5 0 0 .5 586.6 -27.3)" xlink:href="#iK"/>
 </g>
 <g id="club_queen">
  <use transform="translate(1100)" xlink:href="#card"/>
  <use transform="translate(1100)" xlink:href="#cS"/>
  <use transform="translate(1100)" xlink:href="#c"/>
  <path id="iQ" d="m1150 62.6c2.4 0 4.5.5 6.3 1.5s3.2 2.3 4.2 4.1 1.5 3.9 1.5 6.2v10.6a11 11 0 01-2.2 7 10.8 10.8 0 01-6.2 3.8c-.2 0-.2.1-.2.3v4.8c0 .2 0 .3-.2.4a.5.5 0 01-.4.2h-5.5a.6.6 0 01-.4-.2.5.5 0 01-.1-.4v-4.8l-.2-.2a10.9 10.9 0 01-6.3-3.9 11 11 0 01-2.3-7v-10.6c0-2.3.5-4.4 1.5-6.1 1-1.8 2.4-3.2 4.2-4.2 1.9-1 4-1.5 6.3-1.5zm5.4 11.5a6 6 0 00-1.5-4.2 5 5 0 00-3.9-1.6 5 5 0 00-3.9 1.6 6 6 0 00-1.4 4.2v10.7a6 6 0 001.4 4.2 5.1 5.1 0 003.9 1.6 5 5 0 003.9-1.6c1-1 1.5-2.5 1.5-4.2z" fill="#333"/>
  <use id="iQS" transform="matrix(.5 0 0 .5 536.6 -27.3)" xlink:href="#iQ"/>
 </g>
 <g id="club_jack">
  <use transform="translate(1e3)" xlink:href="#card"/>
  <use transform="translate(1e3)" xlink:href="#cS"/>
  <use transform="translate(1e3)" xlink:href="#c"/>
  <path id="iJ" d="m1048.5 95q-3.5 0-6-1.3-2.6-1.3-4-3.6-1.5-2.3-1.5-5.4v-2.9q0-.2.2-.3.1-.2.4-.2h5.3l.4.2q.2.1.2.3v2.9q0 2.2 1.3 3.5 1.4 1.3 3.7 1.3 2.2 0 3.7-1.3 1.4-1.3 1.4-3.5v-21.2q0-.2.2-.3.1-.2.4-.2h5.3q.2 0 .3.2.2.1.2.3v21.2q0 3-1.4 5.4-1.5 2.3-4.1 3.6t-6 1.3z" fill="#333"/>
  <use id="iJs" transform="matrix(.5 0 0 .5 486.6 -27.3)" xlink:href="#iJ"/>
 </g>
 <g id="club_10">
  <use transform="translate(900)" xlink:href="#card"/>
  <use transform="translate(900)" xlink:href="#cS"/>
  <use transform="translate(900)" xlink:href="#c"/>
  <path id="i10" d="m955.4 62.6c-2.6 0-4.7.9-6.3 2.6a9.1 9.1 0 00-2.4 6.6v14.4c0 2.8.8 5 2.4 6.7a8.4 8.4 0 006.3 2.5c1.8 0 3.3-.4 4.6-1.2a7.6 7.6 0 003.1-3.2c.8-1.4 1.2-3 1.2-4.8v-14.4a10 10 0 00-1.3-4.8 7.6 7.6 0 00-3-3.2 9.2 9.2 0 00-4.7-1.2zm-17.6.5a.6.6 0 00-.4.2.5.5 0 00-.1.4v31l.5.2h5.2c.2 0 .3 0 .4-.2a.6.6 0 00.2-.4v-30.6a.4.4 0 00-.2-.4.4.4 0 00-.4-.2h-5.2zm17.6 5c.8 0 1.4.3 1.8 1 .5.5.7 1.3.7 2.3v15.2c0 1-.2 1.8-.7 2.4-.4.6-1 .9-1.8.9s-1.3-.3-1.7-1-.7-1.3-.7-2.3v-15.2c0-1 .2-1.8.7-2.4a2.1 2.1 0 011.7-.9z" fill="#333"/>
  <use id="i10S" transform="matrix(.5 0 0 .5 436.6 -27.3)" xlink:href="#i10"/>
 </g>
 <g id="club_9">
  <use transform="translate(800)" xlink:href="#card"/>
  <use transform="translate(800)" xlink:href="#cS"/>
  <use transform="translate(800)" xlink:href="#c"/>
  <path id="i9" d="M859.7 68.8q.8 1.9.8 4.5V87q0 2.4-1.3 4.3-1.2 2-3.6 3-2.3 1-5.3 1t-5.2-1q-2.3-1-3.5-3-1.3-1.8-1.3-4.2v-1.3l.1-.3.4-.2h5.3q.3 0 .4.2.2.1.2.3v.5q0 1.5 1 2.5t2.6 1q1.7 0 2.8-1 1-1 1-2.7V82l-.1-.2h-.2q-1.8 1.6-4.9 1.6-2.7 0-4.9-1.2-2.1-1.3-3.4-3.6-1.1-2.2-1.1-5.2 0-2.7 1-4.8 1-2.7 3.6-4.2 2.5-1.6 5.9-1.6 3.5 0 6 1.7 2.6 1.6 3.7 4.4zM850 78q2.4 0 3.4-1.9.7-1.2.7-3 0-1.5-.6-2.8-1-2-3.5-2-2.3 0-3.4 2-.7 1.3-.7 2.9 0 1.7.8 3 1.1 1.8 3.3 1.8z" fill="#333"/>
  <use id="i9S" transform="matrix(.5 0 0 .5 386.6 -27.3)" xlink:href="#i9"/>
 </g>
 <g id="club_8">
  <use transform="translate(700)" xlink:href="#card"/>
  <use transform="translate(700)" xlink:href="#cS"/>
  <use transform="translate(700)" xlink:href="#c"/>
  <path id="i8" d="m759.5 81q1 2 1 4.7t-1.1 4.6q-1.2 2.3-3.6 3.6-2.4 1.4-5.8 1.4-3.1 0-5.6-1.3-2.6-1.3-3.8-3.7-1.1-2.2-1.1-4.7t1-4.6q.8-1.6 2.3-2.6.2-.1 0-.3-1.1-.8-1.9-2.2-1-1.8-1-4 0-3.2 1.8-5.4 1.3-1.8 3.5-2.7 2.2-1 4.8-1 2.8 0 5 1 2 1 3.3 2.7 1.8 2.3 1.8 5.4 0 2.3-1.1 4.2-.8 1.1-1.9 2-.2.1 0 .3 1.5.9 2.4 2.6zm-12.8-10.8q-.5.9-.5 1.9 0 1.3.6 2.3 1 1.7 3.2 1.7t3.3-1.7q.6-1 .6-2.4 0-1-.5-1.9t-1.3-1.4q-1-.5-2.1-.5t-2 .5q-.9.5-1.3 1.5zm6.5 18q.9-1.2.9-3.1 0-1.7-.6-2.8-1-2-3.5-2-2.3 0-3.3 2-.7 1-.7 2.9 0 1.7.8 2.9 1 1.7 3.3 1.7 2.1 0 3.2-1.6z" fill="#333"/>
  <use id="i8S" transform="matrix(.5 0 0 .5 336.6 -27.3)" xlink:href="#i8"/>
 </g>
 <g id="club_7">
  <use transform="translate(600)" xlink:href="#card"/>
  <use transform="translate(600)" xlink:href="#cS"/>
  <use transform="translate(600)" xlink:href="#c"/>
  <path id="i7" d="m644.5 95q-.7 0-.5-.6l10-25.6q0-.3-.2-.3h-8.6q-.2 0-.2.3v2q0 .3-.2.5l-.3.1h-4.2l-.4-.1-.1-.4v-7.4l.1-.3.4-.2h20l.4.2q.2.1.2.3v4.7l-.2.6-9.9 25.8q0 .4-.6.4z" fill="#333"/>
  <use id="i7S" transform="matrix(.5 0 0 .5 286.6 -27.3)" xlink:href="#i7"/>
 </g>
 <g id="club_6">
  <use transform="translate(500)" xlink:href="#card"/>
  <use transform="translate(500)" xlink:href="#cS"/>
  <use transform="translate(500)" xlink:href="#c"/>
  <path id="i6" d="M559.4 79.5q1.1 2 1.1 5.2 0 2.7-.9 4.8-1.1 2.7-3.6 4.2t-6 1.6q-3.4 0-6-1.6-2.5-1.7-3.7-4.5-.8-2-.8-4.5V71q0-2.4 1.3-4.3t3.6-2.9q2.3-1 5.3-1t5.3 1q2.2 1 3.5 2.9 1.2 1.8 1.2 4.2v1.3l-.1.4-.4.1h-5.3l-.4-.1-.2-.4v-.4q0-1.5-1-2.5t-2.6-1q-1.6 0-2.7 1-1 1-1 2.6v4.4h.2q1.9-1.6 5-1.6 2.7 0 4.8 1.2 2.2 1.3 3.4 3.6zm-6 8.2q.7-1.2.7-2.9 0-1.8-.7-3-1.2-1.8-3.4-1.8-2.4 0-3.4 1.9-.6 1.2-.6 3 0 1.7.6 2.8 1 2 3.4 2t3.4-2z" fill="#333"/>
  <use id="i6S" transform="matrix(.5 0 0 .5 236.6 -27.3)" xlink:href="#i6"/>
 </g>
 <g id="club_5">
  <use transform="translate(400)" xlink:href="#card"/>
  <use transform="translate(400)" xlink:href="#cS"/>
  <use transform="translate(400)" xlink:href="#c"/>
  <path id="i5" d="m459.9 80.4q.7 2.2.7 4.3 0 2.3-.8 4.2-1 3-3.7 4.7-2.6 1.7-6.2 1.7-3.4 0-6-1.7-2.7-1.7-3.8-4.5l-.7-2.6q0-.6.6-.6h5.5q.5 0 .6.5l.1.5.2.3q.4 1.2 1.3 1.8 1 .7 2.2.7 1.3 0 2.2-.7 1-.7 1.4-2 .5-.8.5-2.3 0-1.3-.4-2.4-.3-1.2-1.3-1.8t-2.2-.6-2.4.6q-1.1.6-1.5 1.5-.1.5-.6.5h-5.6l-.4-.2-.1-.4v-18.4l.1-.3.4-.2h19q.2 0 .3.2.2.1.2.3v4.5l-.2.4-.3.1h-13q-.2 0-.2.2v6.8q0 .3.2.1 2.1-1.3 4.8-1.3 3.2 0 5.5 1.7 2.5 1.6 3.5 4.4z" fill="#333"/>
  <use id="i5S" transform="matrix(.5 0 0 .5 186.6 -27.3)" xlink:href="#i5"/>
 </g>
 <g id="club_4">
  <use transform="translate(300)" xlink:href="#card"/>
  <use transform="translate(300)" xlink:href="#cS"/>
  <use transform="translate(300)" xlink:href="#c"/>
  <path id="i4" d="M360 80.8q.2 0 .3.2l.2.4v4.7l-.2.4-.4.1h-2l-.1.3v7.5q0 .3-.2.5l-.4.1H352l-.5-.1v-8q0-.3-.3-.3h-14l-.5-.1-.1-.4v-3.7l.1-.7 8.3-18.8q.1-.4.6-.4h5.7q.3 0 .4.2.2.1 0 .4L344 80.7v.2q0 .2.1 0h7q.2 0 .2-.2V75l.1-.4q.2-.2.5-.2h5.3l.4.2q.2.1.2.3v5.8q0 .2.2.2z" fill="#333"/>
  <use id="i4S" transform="matrix(.5 0 0 .5 136.6 -27.3)" xlink:href="#i4"/>
 </g>
 <g id="club_3">
  <use transform="translate(200)" xlink:href="#card"/>
  <use transform="translate(200)" xlink:href="#cS"/>
  <use transform="translate(200)" xlink:href="#c"/>
  <path id="i3" d="m259.6 79.5q1 2.1 1 4.9 0 2.4-.9 4.5-1 3-3.6 4.6t-6.1 1.6-6.1-1.7-3.7-4.7q-.7-1.8-.7-3.8 0-.6.5-.6h5.4q.5 0 .5.6.2 1.5.5 2.2.4 1.2 1.3 1.9 1 .6 2.3.6 2.5 0 3.5-2.2.6-1.4.6-3.2 0-2.1-.7-3.5-1-2.2-3.5-2.2-.5 0-1 .4-.6.2-1.4.8l-.3.1q-.3 0-.4-.3l-2.7-3.7-.1-.4.2-.4 7.2-6.3q.1-.1 0-.2v-.1h-10.8l-.4-.1-.1-.5v-4.4l.1-.3.4-.2h19l.4.2q.2 0 .2.3v5q0 .4-.4.7l-6 5.5v.2h.2q4 .8 5.7 4.8z" fill="#333"/>
  <use id="i3S" transform="matrix(.5 0 0 .5 86.6 -27.3)" xlink:href="#i3"/>
 </g>
 <g id="club_2">
  <use transform="translate(100)" xlink:href="#card"/>
  <use transform="translate(100)" xlink:href="#cS"/>
  <use transform="translate(100)" xlink:href="#c"/>
  <path id="i2" d="m147.9 89.2q-.1.1 0 .2t.1 0h12.3q.3 0 .4.3.2.1.2.3v4.5l-.2.4-.4.1h-20.5l-.4-.1-.1-.4v-4.2q0-.4.3-.7 2.2-2.2 4.5-4.8l3-3.2 2.5-2.9q4.2-4.6 4.2-6.8 0-1.6-1.2-2.6-1.1-1-3-1t-2.9 1q-1.1 1-1.1 2.7v1.1q0 .3-.2.4-.1.2-.4.2h-5.3l-.4-.1q-.2-.2-.2-.5v-2.1q.2-2.5 1.6-4.3 1.4-2 3.7-3 2.4-1 5.3-1 3.2 0 5.6 1.3 2.4 1.2 3.7 3.2t1.3 4.6q0 1.9-1 3.9t-2.8 4.3q-1.4 1.8-3 3.5t-5 5z" fill="#333"/>
  <use id="i2S" transform="matrix(.5 0 0 .5 36.6 -27.3)" xlink:href="#i2"/>
 </g>
 <g id="club_1">
  <rect id="card" x="1" y="1" width="98" height="138" rx="5" ry="5" fill="#333" stroke="#f9f9f9" stroke-width="2"/>
  <path id="c" d="M50 40a18.5 18.5 0 0 0-18.5 18.8v4.5c-10.4 0-19 8.4-19 18.7s8.6 18.8 19 18.8H37l5 19.2h16l5-19.3h5.5c10.4 0 19-8.4 19-18.7s-8.6-18.8-19-18.8v-4.5C68.5 48.5 60.4 40 50 40z" fill="#d9d9d9"/>
  <use id="cS" transform="matrix(.5 0 0 .5 -11 -26)" clip-path="url(#cPc)" xlink:href="#c"/>
  <path id="iA" d="M57.9 94.3c-.3 0-.5-.2-.6-.5l-1.7-5.5-.2-.2H44.6l-.2.2-1.7 5.5c0 .3-.3.5-.6.5h-5.8a.6.6 0 0 1-.5-.2v-.5l10-30.9c0-.3.3-.5.6-.5h7.2c.3 0 .5.2.6.5l10 31a.5.5 0 0 1 0 .1c0 .3-.1.5-.4.5zM46 82.8c0 .2 0 .3.2.3h7.5c.2 0 .3-.1.2-.3l-3.8-12.6c0-.1-.1-.2-.2-.1l-.1.1z" fill="#333"/>
  <use id="iAS" transform="matrix(.5 0 0 .5 -13.4 -27.3)" xlink:href="#iA"/>
 </g>
 <g id="diamond_king">
  <use transform="translate(1200 140)" xlink:href="#card"/>
  <use transform="translate(1200)" xlink:href="#d"/>
  <use transform="translate(1200)" xlink:href="#dS"/>
  <use transform="translate(0 140)" xlink:href="#iK"/>
  <use transform="translate(0 140)" xlink:href="#iKS"/>
 </g>
 <g id="diamond_queen">
  <use transform="translate(1100 140)" xlink:href="#card"/>
  <use transform="translate(1100)" xlink:href="#d"/>
  <use transform="translate(1100)" xlink:href="#dS"/>
  <use transform="translate(0 140)" xlink:href="#iQ"/>
  <use transform="translate(0 140)" xlink:href="#iQS"/>
 </g>
 <g id="diamond_jack">
  <use transform="translate(1e3 140)" xlink:href="#card"/>
  <use transform="translate(1e3)" xlink:href="#d"/>
  <use transform="translate(1e3)" xlink:href="#dS"/>
  <use transform="translate(0 140)" xlink:href="#iJ"/>
  <use transform="translate(0 140)" xlink:href="#iJs"/>
 </g>
 <g id="diamond_10">
  <use transform="translate(900 140)" xlink:href="#card"/>
  <use transform="translate(900)" xlink:href="#d"/>
  <use transform="translate(900)" xlink:href="#dS"/>
  <use transform="translate(0 140)" xlink:href="#i10"/>
  <use transform="translate(0 140)" xlink:href="#i10S"/>
 </g>
 <g id="diamond_9">
  <use transform="translate(800 140)" xlink:href="#card"/>
  <use transform="translate(800)" xlink:href="#d"/>
  <use transform="translate(800)" xlink:href="#dS"/>
  <use transform="translate(0 140)" xlink:href="#i9"/>
  <use transform="translate(0 140)" xlink:href="#i9S"/>
 </g>
 <g id="diamond_8">
  <use transform="translate(700 140)" xlink:href="#card"/>
  <use transform="translate(700)" xlink:href="#d"/>
  <use transform="translate(700)" xlink:href="#dS"/>
  <use transform="translate(0 140)" xlink:href="#i8"/>
  <use transform="translate(0 140)" xlink:href="#i8S"/>
 </g>
 <g id="diamond_7">
  <use transform="translate(600 140)" xlink:href="#card"/>
  <use transform="translate(600)" xlink:href="#d"/>
  <use transform="translate(600)" xlink:href="#dS"/>
  <use transform="translate(0 140)" xlink:href="#i7"/>
  <use transform="translate(0 140)" xlink:href="#i7S"/>
 </g>
 <g id="diamond_6">
  <use transform="translate(500 140)" xlink:href="#card"/>
  <use transform="translate(500)" xlink:href="#d"/>
  <use transform="translate(500)" xlink:href="#dS"/>
  <use transform="translate(0 140)" xlink:href="#i6"/>
  <use transform="translate(0 140)" xlink:href="#i6S"/>
 </g>
 <g id="diamond_5">
  <use transform="translate(400 140)" xlink:href="#card"/>
  <use transform="translate(400)" xlink:href="#d"/>
  <use transform="translate(400)" xlink:href="#dS"/>
  <use transform="translate(0 140)" xlink:href="#i5"/>
  <use transform="translate(0 140)" xlink:href="#i5S"/>
 </g>
 <g id="diamond_4">
  <use transform="translate(300 140)" xlink:href="#card"/>
  <use transform="translate(300)" xlink:href="#d"/>
  <use transform="translate(300)" xlink:href="#dS"/>
  <use transform="translate(0 140)" xlink:href="#i4"/>
  <use transform="translate(0 140)" xlink:href="#i4S"/>
 </g>
 <g id="diamond_3">
  <use transform="translate(200 140)" xlink:href="#card"/>
  <use transform="translate(200)" xlink:href="#d"/>
  <use transform="translate(200)" xlink:href="#dS"/>
  <use transform="translate(0 140)" xlink:href="#i3"/>
  <use transform="translate(0 140)" xlink:href="#i3S"/>
 </g>
 <g id="diamond_2">
  <use transform="translate(100 140)" xlink:href="#card"/>
  <use transform="translate(100)" xlink:href="#d"/>
  <use transform="translate(100)" xlink:href="#dS"/>
  <use transform="translate(0 140)" xlink:href="#i2"/>
  <use transform="translate(0 140)" xlink:href="#i2S"/>
 </g>
 <g id="diamond_1">
  <use transform="translate(0 140)" xlink:href="#card"/>
  <path id="d" d="m50 178 38 42-38 42-38-42z" fill="#fa4c4c"/>
  <use id="dS" transform="matrix(.5 0 0 .5 -11 46.5)" clip-path="url(#cPd)" xlink:href="#d"/>
  <use transform="translate(0 140)" xlink:href="#iA"/>
  <use transform="translate(0 140)" xlink:href="#iAS"/>
 </g>
 <g id="heart_king">
  <use transform="translate(1200 280)" xlink:href="#card"/>
  <use transform="translate(1200)" xlink:href="#h"/>
  <use transform="translate(1200)" xlink:href="#hS"/>
  <use transform="translate(0 280)" xlink:href="#iK"/>
  <use transform="translate(0 280)" xlink:href="#iKS"/>
 </g>
 <g id="heart_queen">
  <use transform="translate(1100 280)" xlink:href="#card"/>
  <use transform="translate(1100)" xlink:href="#h"/>
  <use transform="translate(1100)" xlink:href="#hS"/>
  <use transform="translate(0 280)" xlink:href="#iQ"/>
  <use transform="translate(0 280)" xlink:href="#iQS"/>
 </g>
 <g id="heart_jack">
  <use transform="translate(1e3 280)" xlink:href="#card"/>
  <use transform="translate(1e3)" xlink:href="#h"/>
  <use transform="translate(1e3)" xlink:href="#hS"/>
  <use transform="translate(0 280)" xlink:href="#iJ"/>
  <use transform="translate(0 280)" xlink:href="#iJs"/>
 </g>
 <g id="heart_10">
  <use transform="translate(900 280)" xlink:href="#card"/>
  <use transform="translate(900)" xlink:href="#h"/>
  <use transform="translate(900)" xlink:href="#hS"/>
  <use transform="translate(0 280)" xlink:href="#i10"/>
  <use transform="translate(0 280)" xlink:href="#i10S"/>
 </g>
 <g id="heart_9">
  <use transform="translate(800 280)" xlink:href="#card"/>
  <use transform="translate(800)" xlink:href="#h"/>
  <use transform="translate(800)" xlink:href="#hS"/>
  <use transform="translate(0 280)" xlink:href="#i9"/>
  <use transform="translate(0 280)" xlink:href="#i9S"/>
 </g>
 <g id="heart_8">
  <use transform="translate(700 280)" xlink:href="#card"/>
  <use transform="translate(700)" xlink:href="#h"/>
  <use transform="translate(700)" xlink:href="#hS"/>
  <use transform="translate(0 280)" xlink:href="#i8"/>
  <use transform="translate(0 280)" xlink:href="#i8S"/>
 </g>
 <g id="heart_7">
  <use transform="translate(600 280)" xlink:href="#card"/>
  <use transform="translate(600)" xlink:href="#h"/>
  <use transform="translate(600)" xlink:href="#hS"/>
  <use transform="translate(0 280)" xlink:href="#i7"/>
  <use transform="translate(0 280)" xlink:href="#i7S"/>
 </g>
 <g id="heart_6">
  <use transform="translate(500 280)" xlink:href="#card"/>
  <use transform="translate(500)" xlink:href="#h"/>
  <use transform="translate(500)" xlink:href="#hS"/>
  <use transform="translate(0 280)" xlink:href="#i6"/>
  <use transform="translate(0 280)" xlink:href="#i6S"/>
 </g>
 <g id="heart_5">
  <use transform="translate(400 280)" xlink:href="#card"/>
  <use transform="translate(400)" xlink:href="#h"/>
  <use transform="translate(400)" xlink:href="#hS"/>
  <use transform="translate(0 280)" xlink:href="#i5"/>
  <use transform="translate(0 280)" xlink:href="#i5S"/>
 </g>
 <g id="heart_4">
  <use transform="translate(300 280)" xlink:href="#card"/>
  <use transform="translate(300)" xlink:href="#h"/>
  <use transform="translate(300)" xlink:href="#hS"/>
  <use transform="translate(0 280)" xlink:href="#i4"/>
  <use transform="translate(0 280)" xlink:href="#i4S"/>
 </g>
 <g id="heart_3">
  <use transform="translate(200 280)" xlink:href="#card"/>
  <use transform="translate(200)" xlink:href="#h"/>
  <use transform="translate(200)" xlink:href="#hS"/>
  <use transform="translate(0 280)" xlink:href="#i3"/>
  <use transform="translate(0 280)" xlink:href="#i3S"/>
 </g>
 <g id="heart_2">
  <use transform="translate(100 280)" xlink:href="#card"/>
  <use transform="translate(100)" xlink:href="#h"/>
  <use transform="translate(100)" xlink:href="#hS"/>
  <use transform="translate(0 280)" xlink:href="#i2"/>
  <use transform="translate(0 280)" xlink:href="#i2S"/>
 </g>
 <g id="heart_1">
  <use transform="translate(0 280)" xlink:href="#card"/>
  <path id="h" d="m32.5 326a20 20 0 00-20 20c0 25 37.5 50 37.5 50s37.5-25 37.5-50a20 20 0 00-20-20 20 20 0 00-17.5 10.4 20 20 0 00-17.5-10.4z" fill="#fb7474"/>
  <use id="hS" transform="matrix(.5 0 0 .5 -11 113.5)" clip-path="url(#cPh)" xlink:href="#h"/>
  <use transform="translate(0 280)" xlink:href="#iA"/>
  <use transform="translate(0 280)" xlink:href="#iAS"/>
 </g>
 <g id="spade_king">
  <use transform="translate(1200 420)" xlink:href="#card"/>
  <use transform="translate(1200)" xlink:href="#s"/>
  <use transform="translate(1200)" xlink:href="#sS"/>
  <use transform="translate(0 420)" xlink:href="#iK"/>
  <use transform="translate(0 420)" xlink:href="#iKS"/>
 </g>
 <g id="spade_queen">
  <use transform="translate(1100 420)" xlink:href="#card"/>
  <use transform="translate(1100)" xlink:href="#s"/>
  <use transform="translate(1100)" xlink:href="#sS"/>
  <use transform="translate(0 420)" xlink:href="#iQ"/>
  <use transform="translate(0 420)" xlink:href="#iQS"/>
 </g>
 <g id="spade_jack">
  <use transform="translate(1e3 420)" xlink:href="#card"/>
  <use transform="translate(1e3)" xlink:href="#s"/>
  <use transform="translate(1e3)" xlink:href="#sS"/>
  <use transform="translate(0 420)" xlink:href="#iJ"/>
  <use transform="translate(0 420)" xlink:href="#iJs"/>
 </g>
 <g id="spade_10">
  <use transform="translate(900 420)" xlink:href="#card"/>
  <use transform="translate(900)" xlink:href="#s"/>
  <use transform="translate(900)" xlink:href="#sS"/>
  <use transform="translate(0 420)" xlink:href="#i10"/>
  <use transform="translate(0 420)" xlink:href="#i10S"/>
 </g>
 <g id="spade_9">
  <use transform="translate(800 420)" xlink:href="#card"/>
  <use transform="translate(800)" xlink:href="#s"/>
  <use transform="translate(800)" xlink:href="#sS"/>
  <use transform="translate(0 420)" xlink:href="#i9"/>
  <use transform="translate(0 420)" xlink:href="#i9S"/>
 </g>
 <g id="spade_8">
  <use transform="translate(700 420)" xlink:href="#card"/>
  <use transform="translate(700)" xlink:href="#s"/>
  <use transform="translate(700)" xlink:href="#sS"/>
  <use transform="translate(0 420)" xlink:href="#i8"/>
  <use transform="translate(0 420)" xlink:href="#i8S"/>
 </g>
 <g id="spade_7">
  <use transform="translate(600 420)" xlink:href="#card"/>
  <use transform="translate(600)" xlink:href="#s"/>
  <use transform="translate(600)" xlink:href="#sS"/>
  <use transform="translate(0 420)" xlink:href="#i7"/>
  <use transform="translate(0 420)" xlink:href="#i7S"/>
 </g>
 <g id="spade_6">
  <use transform="translate(500 420)" xlink:href="#card"/>
  <use transform="translate(500)" xlink:href="#s"/>
  <use transform="translate(500)" xlink:href="#sS"/>
  <use transform="translate(0 420)" xlink:href="#i6"/>
  <use transform="translate(0 420)" xlink:href="#i6S"/>
 </g>
 <g id="spade_5">
  <use transform="translate(400 420)" xlink:href="#card"/>
  <use transform="translate(400)" xlink:href="#s"/>
  <use transform="translate(400)" xlink:href="#sS"/>
  <use transform="translate(0 420)" xlink:href="#i5"/>
  <use transform="translate(0 420)" xlink:href="#i5S"/>
 </g>
 <g id="spade_4">
  <use transform="translate(300 420)" xlink:href="#card"/>
  <use transform="translate(300)" xlink:href="#s"/>
  <use transform="translate(300)" xlink:href="#sS"/>
  <use transform="translate(0 420)" xlink:href="#i4"/>
  <use transform="translate(0 420)" xlink:href="#i4S"/>
 </g>
 <g id="spade_3">
  <use transform="translate(200 420)" xlink:href="#card"/>
  <use transform="translate(200)" xlink:href="#s"/>
  <use transform="translate(200)" xlink:href="#sS"/>
  <use transform="translate(0 420)" xlink:href="#i3"/>
  <use transform="translate(0 420)" xlink:href="#i3S"/>
 </g>
 <g id="spade_2">
  <use transform="translate(100 420)" xlink:href="#card"/>
  <use transform="translate(100)" xlink:href="#s"/>
  <use transform="translate(100)" xlink:href="#sS"/>
  <use transform="translate(0 420)" xlink:href="#i2"/>
  <use transform="translate(0 420)" xlink:href="#i2S"/>
 </g>
 <g id="spade_1">
  <use transform="translate(0 420)" xlink:href="#card"/>
  <path id="s" d="m50 464-27.5 24.3c-7 6-10 11.7-10 18.1a20 20 0 0020 20 18.6 18.6 0 0013.5-5.4l-16 23h40s-15.8-23.7-16-23a18.6 18.6 0 0013.5 5.5 20 20 0 0020-20c0-6.5-3-12.1-10-18.2z" fill="#f9f9f9"/>
  <use id="sS" transform="matrix(.5 0 0 .5 -11 181.5)" clip-path="url(#cPs)" xlink:href="#s"/>
  <use transform="translate(0 420)" xlink:href="#iA"/>
  <use transform="translate(0 420)" xlink:href="#iAS"/>
 </g>
</svg>
