<?xml version="1.0" encoding="UTF-8"?>
<svg width="1807" height="945" version="1.1" xmlns="http://www.w3.org/2000/svg" xmlns:xlink="http://www.w3.org/1999/xlink">
 <defs>
  <linearGradient id="G1734" x1="2" x2="109" y1="62" y2="127.7" gradientUnits="userSpaceOnUse">
   <stop stop-color="#ebf0d0" offset="0"/>
   <stop stop-color="#ffffeb" offset="1"/>
  </linearGradient>
  <linearGradient id="G8308">
   <stop stop-color="#830007" offset="0"/>
   <stop stop-color="red" offset="1"/>
  </linearGradient>
  <linearGradient id="G8307">
   <stop stop-color="#008" offset="0"/>
   <stop stop-color="#005aff" offset="1"/>
  </linearGradient>
  <linearGradient id="G4049" x1="24.3" x2="128.4" y1="31.3" y2="135" gradientTransform="matrix(.89 0 0 1.13 277 755)" gradientUnits="userSpaceOnUse" xlink:href="#G8308"/>
  <linearGradient id="G4052" x1="22" x2="146.4" y1="17.1" y2="140.4" gradientTransform="matrix(.86 0 0 1.17 277 755)" gradientUnits="userSpaceOnUse" xlink:href="#G8308"/>
  <linearGradient id="G4055" x1="138.2" x2="36.5" y1="146.6" y2="18.7" gradientTransform="matrix(.854 0 0 1.17 277 755)" gradientUnits="userSpaceOnUse" xlink:href="#G8308"/>
  <linearGradient id="G4096" x1="138.2" x2="36.5" y1="146.6" y2="18.7" gradientTransform="matrix(.854 0 0 1.17 416 755)" gradientUnits="userSpaceOnUse" xlink:href="#G8307"/>
  <linearGradient id="G4098" x1="22" x2="146.4" y1="17.1" y2="140.4" gradientTransform="matrix(.86 0 0 1.17 416 755)" gradientUnits="userSpaceOnUse" xlink:href="#G8307"/>
  <linearGradient id="G4100" x1="24.3" x2="128.4" y1="31.3" y2="135" gradientTransform="matrix(.89 0 0 1.13 416 755)" gradientUnits="userSpaceOnUse" xlink:href="#G8307"/>
  <linearGradient id="G4408">
   <stop stop-color="#ff44ab" offset="0"/>
   <stop stop-color="#f6c" offset="1"/>
  </linearGradient>
  <linearGradient id="G3196">
   <stop stop-color="#008200" offset="0"/>
   <stop stop-color="#00d000" offset="1"/>
  </linearGradient>
  <linearGradient id="G2580">
   <stop stop-color="#fff" offset="0"/>
   <stop stop-color="#fff" stop-opacity="0" offset="1"/>
  </linearGradient>
  <linearGradient id="G3865">
   <stop stop-color="#0083cc" offset="0"/>
   <stop stop-color="#24a4cc" offset="1"/>
  </linearGradient>
  <linearGradient id="G407">
   <stop stop-color="#f0eb00" offset="0"/>
   <stop stop-color="#ee0" offset="1"/>
  </linearGradient>
  <linearGradient id="G417">
   <stop stop-color="#f0a700" offset="0"/>
   <stop stop-color="#ffed00" offset="1"/>
  </linearGradient>
  <linearGradient id="G214">
   <stop stop-color="#c10000" offset="0"/>
   <stop stop-color="#ff433e" offset="1"/>
  </linearGradient>
  <linearGradient id="G64" x1="688.3" x2="361.5" y1="-31.9" y2="346.7" gradientTransform="matrix(-.215 0 0 .167 1822.8 31.3)" gradientUnits="userSpaceOnUse" xlink:href="#G2580"/>
  <linearGradient id="G74" x1="1826.2" x2="1858" y1="66.5" y2="58.1" gradientUnits="userSpaceOnUse" xlink:href="#G407"/>
  <linearGradient id="G77" x1="1825.5" x2="1857.2" y1="60.1" y2="51.8" gradientUnits="userSpaceOnUse" xlink:href="#G417"/>
  <linearGradient id="G97" x1="299" x2="449.3" y1="540.5" y2="415.5" gradientTransform="matrix(-.167 0 0 .167 1796.7 42.9)" gradientUnits="userSpaceOnUse" xlink:href="#G4408"/>
  <linearGradient id="G777" x1="688.3" x2="361.5" y1="-31.9" y2="346.7" gradientTransform="matrix(.215 0 0 .167 1651.4 220.7)" gradientUnits="userSpaceOnUse" xlink:href="#G2580"/>
  <linearGradient id="G787" x1="1723.8" x2="1755.7" y1="255.8" y2="247.4" gradientUnits="userSpaceOnUse" xlink:href="#G407"/>
  <linearGradient id="G790" x1="1723.2" x2="1754.9" y1="249.4" y2="241.2" gradientUnits="userSpaceOnUse" xlink:href="#G417"/>
  <linearGradient id="G810" x1="1727.4" x2="1752.4" y1="322.4" y2="301.5" gradientUnits="userSpaceOnUse" xlink:href="#G3865"/>
  <linearGradient id="G925" x1="688.3" x2="361.5" y1="-31.9" y2="346.7" gradientTransform="matrix(-.215 0 0 .167 1822.7 409)" gradientUnits="userSpaceOnUse" xlink:href="#G2580"/>
  <linearGradient id="G935" x1="1826.1" x2="1858" y1="444.2" y2="435.7" gradientUnits="userSpaceOnUse" xlink:href="#G407"/>
  <linearGradient id="G938" x1="1825.5" x2="1857.2" y1="437.7" y2="429.5" gradientUnits="userSpaceOnUse" xlink:href="#G417"/>
  <linearGradient id="G958" x1="299" x2="449.3" y1="540.5" y2="415.5" gradientTransform="matrix(-.167 0 0 .167 1796.7 420.6)" gradientUnits="userSpaceOnUse" xlink:href="#G3196"/>
  <linearGradient id="G997" x1="688.3" x2="361.5" y1="-31.9" y2="346.7" gradientTransform="matrix(.215 0 0 .167 1651.4 598.4)" gradientUnits="userSpaceOnUse" xlink:href="#G2580"/>
  <linearGradient id="G07" x1="1723.8" x2="1755.7" y1="633.5" y2="625.1" gradientUnits="userSpaceOnUse" xlink:href="#G407"/>
  <linearGradient id="G10" x1="1723.2" x2="1754.9" y1="627.1" y2="618.9" gradientUnits="userSpaceOnUse" xlink:href="#G417"/>
  <linearGradient id="G30" x1="1727.4" x2="1752.4" y1="700" y2="679.2" gradientUnits="userSpaceOnUse" xlink:href="#G214"/>
  <linearGradient id="G7952" x1="-21.8" x2="-101.9" y1="46.3" y2="98.1" gradientTransform="matrix(-1.12 0 0 1.12 1496.5 -28)" gradientUnits="userSpaceOnUse" xlink:href="#G2580"/>
  <linearGradient id="G7944" x1="632" x2="698" y1="146.4" y2="85.4" gradientTransform="matrix(.1344 0 0 .109 1500.6 602.5)" gradientUnits="userSpaceOnUse" xlink:href="#G417"/>
  <linearGradient id="G7942" x1="299" x2="449.2" y1="540.5" y2="415.5" gradientTransform="matrix(-.1624 0 0 .1624 1657.8 44.8)" gradientUnits="userSpaceOnUse" xlink:href="#G4408"/>
  <linearGradient id="G20" x1="1674.3" x2="1584.6" y1="212.8" y2="270.9" gradientUnits="userSpaceOnUse" xlink:href="#G2580"/>
  <linearGradient id="G8" x1="1586.1" x2="1610.5" y1="321.6" y2="301.3" gradientUnits="userSpaceOnUse" xlink:href="#G3865"/>
  <linearGradient id="G2" x1="-21.8" x2="-101.9" y1="46.3" y2="98.1" gradientTransform="matrix(-1.12 0 0 1.12 1496.5 350)" gradientUnits="userSpaceOnUse" xlink:href="#G2580"/>
  <linearGradient id="G42" x1="299" x2="449.3" y1="540.5" y2="415.5" gradientTransform="matrix(-.1624 0 0 .1624 1657.8 422.8)" gradientUnits="userSpaceOnUse" xlink:href="#G3196"/>
  <linearGradient id="G73" x1="1674.3" x2="1584.6" y1="590.8" y2="648.9" gradientUnits="userSpaceOnUse" xlink:href="#G2580"/>
  <linearGradient id="G63" x1="1586.1" x2="1610.5" y1="699.6" y2="679.3" gradientUnits="userSpaceOnUse" xlink:href="#G214"/>
  <linearGradient id="G7499" x1="51.9" x2="74.3" y1="154.6" y2="129.5" gradientTransform="matrix(-1.311 0 0 1.0086 1541.4 -15.6)" gradientUnits="userSpaceOnUse" xlink:href="#G4408"/>
  <linearGradient id="G7477" x1="98.8" x2="112.9" y1="108.8" y2="103.3" gradientTransform="matrix(-1.15 0 0 1.15 1587.5 -11.6)" gradientUnits="userSpaceOnUse" xlink:href="#G3865"/>
  <linearGradient id="G7471" x1="93.5" x2="117.1" y1="62.9" y2="57.7" gradientTransform="matrix(-1.15 0 0 1.15 1582.8 -12.8)" gradientUnits="userSpaceOnUse" xlink:href="#G4408"/>
  <linearGradient id="G7467" x1="652.3" x2="410.9" y1="77.4" y2="344.4" gradientTransform="matrix(-.215 0 0 .167 1547.6 28.4)" gradientUnits="userSpaceOnUse" xlink:href="#G2580"/>
  <linearGradient id="G0" x1="652.3" x2="410.9" y1="77.4" y2="344.4" gradientTransform="matrix(.215 0 0 .167 1370.1 217.4)" gradientUnits="userSpaceOnUse" xlink:href="#G2580"/>
  <linearGradient id="G96" x1="1442.3" x2="1469.5" y1="248.6" y2="242.6" gradientUnits="userSpaceOnUse" xlink:href="#G3865"/>
  <linearGradient id="G92" x1="1443.7" x2="1459.9" y1="302.5" y2="296.3" gradientUnits="userSpaceOnUse" xlink:href="#G3196"/>
  <linearGradient id="G80" x1="1448.6" x2="1473.6" y1="321.3" y2="300.4" gradientUnits="userSpaceOnUse" xlink:href="#G3865"/>
  <linearGradient id="G" x1="299" x2="449.3" y1="540.5" y2="415.5" gradientTransform="matrix(-.167 0 0 .167 1518.9 420)" gradientUnits="userSpaceOnUse" xlink:href="#G3196"/>
  <linearGradient id="G93" x1="137.9" x2="144.2" y1="284.8" y2="281.2" gradientTransform="matrix(-1.15 0 0 1.15 1629.5 164.3)" gradientUnits="userSpaceOnUse" xlink:href="#G3865"/>
  <linearGradient id="G87" x1="93.5" x2="117.1" y1="62.9" y2="57.7" gradientTransform="matrix(-1.15 0 0 1.15 1582.8 365.2)" gradientUnits="userSpaceOnUse" xlink:href="#G3196"/>
  <linearGradient id="G252" x1="652.3" x2="410.9" y1="77.4" y2="344.4" gradientTransform="matrix(.215 0 0 .167 1370.1 595.4)" gradientUnits="userSpaceOnUse" xlink:href="#G2580"/>
  <linearGradient id="G248" x1="1442.3" x2="1469.5" y1="626.6" y2="620.6" gradientUnits="userSpaceOnUse" xlink:href="#G214"/>
  <linearGradient id="G244" x1="1443.7" x2="1459.9" y1="680.5" y2="674.3" gradientUnits="userSpaceOnUse" xlink:href="#G3196"/>
  <linearGradient id="G238" x1="1448.6" x2="1473.6" y1="699.3" y2="678.4" gradientUnits="userSpaceOnUse" xlink:href="#G214"/>
  <linearGradient id="G2396" x1="142.7" x2="95.1" y1="28.2" y2="67.8" gradientTransform="matrix(.8384 0 0 1.5755 127.5 741.1)" gradientUnits="userSpaceOnUse" xlink:href="#G2580"/>
  <linearGradient id="G21" x1="198.5" x2="223.6" y1="889.3" y2="868.4" gradientUnits="userSpaceOnUse" xlink:href="#G214"/>
  <linearGradient id="G12" x1="182.4" x2="230.8" y1="865" y2="865" gradientUnits="userSpaceOnUse" xlink:href="#G3196"/>
  <linearGradient id="G734" x1="114" x2="73.8" y1="781.1" y2="827" gradientUnits="userSpaceOnUse" xlink:href="#G2580"/>
  <linearGradient id="G724" x1="55.9" x2="79.2" y1="821" y2="811.8" gradientUnits="userSpaceOnUse" xlink:href="#G3196"/>
  <linearGradient id="G718" x1="43.4" x2="91.8" y1="865" y2="865" gradientUnits="userSpaceOnUse" xlink:href="#G3865"/>
  <linearGradient id="G714" x1="61.3" x2="67.5" y1="881.6" y2="879.8" gradientUnits="userSpaceOnUse" xlink:href="#G3865"/>
  <linearGradient id="G712" x1="59.5" x2="84.5" y1="889.3" y2="868.4" gradientUnits="userSpaceOnUse" xlink:href="#G3196"/>
  <linearGradient id="G298" x1="198" x2="205.2" y1="870.6" y2="866.5" gradientUnits="userSpaceOnUse" xlink:href="#G214"/>
  <linearGradient id="G25" x1="652.3" x2="410.9" y1="77.4" y2="344.4" gradientTransform="matrix(-.215 0 0 .167 1547.6 406.3)" gradientUnits="userSpaceOnUse" xlink:href="#G2580"/>
  <linearGradient id="G26" x1="632" x2="698" y1="146.4" y2="85.4" gradientUnits="userSpaceOnUse" xlink:href="#G417"/>
  <linearGradient id="G27" x1="653" x2="708" y1="210.4" y2="160.4" gradientTransform="matrix(.1344 0 0 .112 1500.6 224.5)" gradientUnits="userSpaceOnUse" xlink:href="#G407"/>
  <linearGradient id="G28" x1="632" x2="698" y1="146.4" y2="85.4" gradientTransform="matrix(-.1344 0 0 .112 1694.6 35.5)" gradientUnits="userSpaceOnUse" xlink:href="#G417"/>
  <linearGradient id="linearGradient553" x1="632" x2="698" y1="146.4" y2="85.4" gradientTransform="matrix(.1344 0 0 .109 1500.6 224.5)" gradientUnits="userSpaceOnUse" xlink:href="#G417"/>
  <g id="cb" transform="translate(-1 -1)">
   <g>
    <path d="M21 5h103a16 16 0 0 1 16 16v153a16 16 0 0 1-16 16H21a16 16 0 0 1-16-16V21A16 16 0 0 1 21 5z" opacity=".5"/>
    <path d="M17 1h103a16 16 0 0 1 16 16v153a16 16 0 0 1-16 16H17a16 16 0 0 1-16-16V17A16 16 0 0 1 17 1z" fill="#fff"/>
    <path d="M19 3h103a16 16 0 0 1 16 16v153a16 16 0 0 1-16 16H19a16 16 0 0 1-16-16V19A16 16 0 0 1 19 3z" fill="#c7891f"/>
    <path d="M18 2h103a16 16 0 0 1 16 16v153a16 16 0 0 1-16 16H18a16 16 0 0 1-16-16V18A16 16 0 0 1 18 2z" fill="url(#G1734)"/>
   </g>
   <path d="M106.6 14c-.2.7-.1 1.4.2 2s.9 1.1 1.8 1.1c.8 0 1.5-.7 1.5-1.2 0-.3-.2-.6-.5-.8-1 2-2.1.1-1.8-1 .9-3.7 7.7-1 5.5 3.9a5 5 0 0 1-4.5 2.9l-71.3.4v1l71.6-.5c2.2 0 4.2-1.4 5.1-3.4 2.7-6.2-6.2-9.6-7.6-4.4zm14.8 5.4c-2.1.7-3.4 2.9-3.4 5.1-.3 22.9.1 74 .1 74h1l-.2-73.7a5 5 0 0 1 2.9-4.5c2-.9 4.6-.2 5.4 1.9.9 2-1 4.4-2.8 3.5-1-.9-.4-1.2.3-1.7-.2-.3-.5-.5-.8-.5s-.6.2-.7.3c-.3.3-.5.7-.5 1.2 0 .8.5 1.4 1.1 1.8 1.2.8 6-.8 4.3-5-1.3-3.5-4.8-3.1-6.7-2.4zM20.7 89.8l.2 74.5c0 1.9-1.2 3.7-2.9 4.5-2 .9-4.6.2-5.4-1.9-.4-1-.2-3.1 1.5-3.6 1.4-.4 3 .5 1 1.8.2.3.5.5.8.5.6 0 1.2-.6 1.2-1.5 0-1.5-1.8-2.4-3.1-2-.9.2-3.5 1.4-2.5 5.1.8 2.8 4.6 3.9 7.1 2.7 1.9-1 3.4-2.9 3.4-5.9l-.2-74.1zm81.8 77.1-71.5.3c-2.5 0-4.4 1.2-5.3 3-1.6 2.9-.6 6.5 2.5 7.7 2.6 1 6.4-1.6 5-4.7a2 2 0 0 0-1.8-1.1c-.8 0-1.5.7-1.5 1.2 0 .3.2.6.5.8 1-1.9 2.1-.3 1.8 1-.4 1.7-2.5 1.9-3.6 1.5-2.1-.9-2.8-3.4-1.9-5.4a5 5 0 0 1 4.5-2.9l71.3-.4z" stroke="#000" stroke-width=".7"/>
  </g>
 </defs>
 <g id="back">
  <use transform="translate(278 756)" xlink:href="#cb"/>
  <path d="M299 765h94c8 0 15 7 15 15v140c0 8-7 15-15 15h-94a15 15 0 0 1-15-15V780c0-8 7-15 15-15z" fill="url(#G4055)"/>
  <path d="M299.2 764.4a15.3 15.3 0 0 0-15.3 15.3v140.2c0 8.5 6.8 15.3 15.3 15.3h94.4c8.5 0 15.3-6.8 15.3-15.3V779.7c0-8.5-6.8-15.3-15.3-15.3zm0 1.2h94.4a14 14 0 0 1 14 14V920a14 14 0 0 1-14 14h-94.4a14 14 0 0 1-14-14V779.7a14 14 0 0 1 14-14z" fill="url(#G4052)"/>
  <path d="M315.9 776.2c-5.7 0-10.9 7-10.9 15.7 0 7.4 9.9 17.2 9.6 23.1-3 1.7-12.4-13.8-17.2-13.8-5.7 0-10.4 7-10.4 15.7 0 8.6 4.7 15.7 10.4 15.7 5 0 13.5-15.5 17.2-14.1l-6.8 30.2 16.1-.1s-7.1-29.3-7.1-30h.1v.3c3.7-1.4 12.5 14.2 17.4 14.2 5.7 0 10.4-7 10.4-15.7s-4.7-15.7-10.4-15.7c-4.8 0-13.5 15.3-17.4 13.7.5-6 9.9-15.9 9.9-23.3 0-8.7-5.2-15.7-10.9-15.7zm59.6 3.9c-8.9 17.7-15.3 26.9-28.7 36.6a88 88 0 0 1 28.9 35.7 77 77 0 0 1 28.8-36.2c-14.1-7.2-22.3-18.6-29-36.1zm-73.4 73.6c-1.7.1-3.6.5-5.7 1.4-22.8 17.7 7.9 46.3 20.9 70.8l.4.1c14.3-26.8 41.4-56.3 20.6-70.9-16.4-7.5-20.8 17.4-21 18.3-.1-.8-3.5-19.8-15.3-19.7zm73.9.2c-10.6 16.8-43 45.5-22.5 54.3 12.5 4.1 18.4-4.3 20.9-9.8h.5l-8.3 27.8 19.2-.1s-8.3-26.7-8.3-27.7h.2c2 4.5 9.7 13.8 18.2 10.3 24.8-10-11.7-38.3-20-54.8z" fill="url(#G4049)"/>
 </g>
 <g id="back2">
  <use transform="translate(417 756)" xlink:href="#cb"/>
  <path d="M438 765h94c8 0 15 7 15 15v140c0 8-7 15-15 15h-94a15 15 0 0 1-15-15V780c0-8 7-15 15-15z" fill="url(#G4096)"/>
  <path d="M438.2 764.4a15.3 15.3 0 0 0-15.3 15.3v140.2c0 8.5 6.8 15.3 15.3 15.3h94.4c8.5 0 15.3-6.8 15.3-15.3V779.7c0-8.5-6.8-15.3-15.3-15.3zm0 1.2h94.4a14 14 0 0 1 14 14V920a14 14 0 0 1-14 14h-94.4a14 14 0 0 1-14-14V779.7a14 14 0 0 1 14-14z" fill="url(#G4098)"/>
  <path d="M454.9 776.2c-5.7 0-10.9 7-10.9 15.7 0 7.4 9.9 17.1 9.6 23-3 1.7-12.4-13.8-17.2-13.8-5.7 0-10.4 7-10.4 15.7s4.7 15.7 10.4 15.7c5 0 13.5-15.5 17.2-14.1l-6.8 30.3 16.1-.1s-7.1-29.4-7.1-30.1h.1v.3c3.7-1.4 12.5 14.2 17.4 14.2 5.7 0 10.4-7 10.4-15.7s-4.7-15.7-10.4-15.7c-4.8 0-13.5 15.3-17.4 13.7.5-6 9.9-15.8 9.9-23.2 0-8.7-5.2-15.7-10.9-15.7zm59.6 3.9c-8.9 17.7-15.3 26.9-28.7 36.6a88 88 0 0 1 28.9 35.7 77 77 0 0 1 28.8-36.2c-14.1-7.2-22.3-18.6-29-36.1zm-73.4 73.6c-1.7.1-3.6.5-5.7 1.4-22.8 17.7 7.9 46.3 20.9 70.8l.4.1c14.3-26.8 41.4-56.3 20.6-70.9-16.4-7.5-20.8 17.4-21 18.3-.1-.8-3.5-19.8-15.3-19.7zm73.9.2c-10.6 16.8-43 45.5-22.5 54.3 12.5 4.1 18.4-4.3 20.9-9.8h.5l-8.3 27.8 19.2-.1s-8.3-26.7-8.3-27.7h.2c2 4.5 9.7 13.8 18.2 10.3 24.8-10-11.7-38.3-20-54.8z" fill="url(#G4100)"/>
 </g>
 <path id="silk" d="M1739-147.7c2-1.6 3.4-2.6 5.8-5.1 2.8 7.8 4.9 6.2 7.9 3.6 3-3 .5 11.1 6.3-1.8 1.7.2.4 12.2-1.2 18.6-1.5 5.8 2.4 7.5.7 11-5.7-.4-1.8 6-2.8 9.8-1.2 4.5-.7 9-2.3 12.7-9.7 4.4 8.4 7.5 4.2 11-.8 3.3.3 9.1.2 13.6-.2 6 1.5 8.9-5.5 11.2a62.5 62.5 0 0 1-38.8-1.8c-.1-7 .1-14.9.2-21.3-3.2-3.9 7.9-6.5 10.4-10-3.5-4.3-2.3-12.7-9.5-13.3-.8-6.3 1.4-14 4.7-19.8-1.1-7.7-2.3-15.3-3.1-23 7.2 14.8 4.3-3 7.5 4 2.1 2.3 4.1.6 4.6-.6 2.5-5.4 4.1 5.3 5.4-3.7 2.6 7.9 2.9-6.3 4.5 3.1l.7 2z"/>
 <path id="silq" d="M1613.3-154.9c1.2 8.3 6.6-13.8 4.3 1-1.2 7.7-4.7 13.6-.8 15.7a25 25 0 0 1 11.3 14.7c-6.7-1-3.4 4.8-3.7 8.9a26 26 0 0 1-12.6 19.9c8.5 1.6 11.5 8.9 10.7 15.9 6.6 7.4-1.7 7.4.9 12.5-2.2 5.4-28 8.1-44.4 1.4.8-9.4-4.2-22.3 8.3-28.6-6.2-.1-14.1-1.6-20.1-2.9 6.9-2.7 18.9-5.6 16.8-15.3-1.5-11.5 2.3-26.8 15.4-29-1-6.3-2.5-12.6-2.5-19 5.7 14.5 4.5-8.8 7.2 1.2 2.1 7.8 2.9-9 4.6 4.4 2-2.2 3-12.8 4.2-3.7z"/>
 <path id="silj" d="M1462.7-146.3c6.3 3.3 13-3.3 17.5 4.5 3 5.1-6.1 3.8-.9 10.8 3.8 5.1 3.6 7 .7 7.6 1.2 5.7.3 15.2-2.3 20.4 3.2 3.9.8 2.6-3.6 3.4 1.4 2.2 2.8 7.8 5.2 12.5 2.5 4.9.6 14.6 1.1 21.9a60.2 60.2 0 0 1-35.4 2.8c-4.7-1-9.5-1.3-9.2-8.1.3-8.4-1.7-20.5 7.9-23.8 5.2-1.8 6.1-3.7 3-9.5-4.3-7.9-6.4-5.2-11.1-7.3 4.4-4.6 7.9-17.9 11.8-22.4-7.7-.7-8.1-7.6-2.3-10.3 6.8-3.1 8.3 1.3 14.5-2 .9-.5 2.3-.9 3.1-.5z"/>
 <path id="10" d="M1271.9-37.8a12.5 12.5 0 0 0-3.4 5.3c-3.2 8.3-3.1 17.6 1 21.4 3 2.9 5.6 3.3 8.1 1.3 3.8-3 6.9-12.6 5-21.4-.4-1.9-1-3.7-2-4.3-2.5-1.3-4.6-5.5-8.7-2.3zm-12.9-1v28.9l5 1.3-.2-28.4zm19.9 7.4c.7 4.4-1 14.4-3.9 18-2 2.4-3.2.8-3.5.4-2.3-3.1-1.3-12.6 1.5-18.8 2.8-6 5.2-3.4 5.9.4z"/>
 <path id="J" d="M1416.9-37.5v21.6c0 2.5-3.6 7.3-8.3 7.3-2.5 0-4.9-1-7.2-3.1l.8-.6c1.5.5 2.8.8 4 .8 5.1 0 5.9-4.2 5.9-6.8v-20.6z"/>
 <path id="Q" d="M1544.4-38.1c-5.3 3.3-7 11.2-5.7 16 1.1 4.4 8.2 8.6 8.9 8.9-.4 3.2-.2 6.6 3 8.1a4 4 0 0 0 3-.3c-1.3.1-2.1-.3-2.5-1.3-.5-1.2-.2-5.9-.1-6.2a7.6 7.6 0 0 0 4.2-2.7c4.6-5.3 4.5-13.2 1.4-16.8L1550-38c-2-1.3-3.9-1-5.6-.1zm4.8 2.9c.5 0 4.6.4 5.3 5.8.2 1.2.7 6.6-3 11 0-1.6-.2-2.6-.5-2.9a14.5 14.5 0 0 0-5.8-5.2c-.4-.1-1.3.2-2.7.8.3-2 .9-3.9 1.8-5.6 1.9-3.5 4.4-3.9 4.9-3.9zm-2.3 12.4c1.5 1.6 1.2 4.2 1.1 6.3-1.6.2-4.5-.9-5.4-5 .9-2.2 3.6-2 4.3-1.3z"/>
 <path id="K" d="m1681.7-37v13.8l10.2-15.5 4.7 1.3-7.8 11.9 9.4 16.8-4.7-1.3-6.8-12.4-4.9 7.5v6.2l-5-1.3v-28.7z"/>
 <path id="A" d="M21.7-36.9v.1L32.3-8.9l-5.1-1.2-2.8-7.9-9.3.7-2.9 8.4-5.5-1.2 9.6-28.6zm-2 5.8L16.3-21l6.8-.5z"/>
 <path id="2" d="M166.1-30.8c1.5 2.1.9 4.5.3 5.9A36 36 0 0 1 156-13.3h9.2l3.6 4.5h-17.4l-3.6-4.5a65.6 65.6 0 0 0 13.1-13.3c1.6-2.4 1.8-4.4.5-6-.5-.6-1.1-.9-1.8-.9-2.2 0-5.1 2.2-7.7 4.8l-3.3-4.5c.6-.9 3.5-3.5 7.1-5.2 1.7-.7 3-.7 3.9.2 4 3.8 6.1 7 6.5 7.4z"/>
 <path id="3" d="M305.3-30.9c1.6 3.1-.2 5.6-2.7 7.5l4 3.8c2.5 3-1 8.9-5.9 10.6-6.7 2.5-11.2-4.3-13.1-7.2l1.7-1.3c2.2 3 4.7 4.4 7.6 4.2 4.1-.3 6.9-4.3 5.1-8l-1-1.4c-1.7.8-3.5 1.2-5.4 1.3l-2-4.2c3.6-.3 6-1.4 7.3-3.4.8-1.4.9-2.7.2-4s-2-1.9-3.7-1.7-3.4 1.1-5.2 2.8l-2.8-4c2.3-1.7 4.9-3.7 7.8-3.4 5 .6 6.6 5.2 8.1 8.4z"/>
 <path id="4" d="m439.1-38.9-13.9 18.5 3.6 4.1h9.5v6.4l5 1.3v-7.7h3.5l-3.6-4.1v-16.8zm-.6 8-.1 10.4H431z"/>
 <path id="5" d="m580.8-38.6-12.3.1c0 2.7-.3 3.2-.3 10.7l.1 1c1.5 2.4 2.7 4.1 4.1 5.5.6.6 1.7.4 6.8-1.6 1.7-.6 2.6-.5 2.7 1.4.1 1.2-.9 7.3-5.3 7.3-4.3 0-7.4-3.3-9.4-5.4l-.9 1.9c3.6 4.9 7.8 8.4 12.1 8.4 7.3 0 7.9-8.1 7.9-9.5-.1-.9-.2-1.6-.4-2-.9-1.7-3.1-3.7-6-7-.5-.6-4.2.8-7 .8-.1-1 0-3.4.5-7.2h10.7z"/>
 <path id="6" d="m716.9-39 3.9 3.9a17.6 17.6 0 0 0-8.3 8.9c2.5-.5 4-.5 4.5 0a37 37 0 0 1 5.1 5.1c2.5 3.9-1 10.1-4.6 12-1.3.7-2.4.8-3.3.3-3-1.7-5.5-3.8-7.5-6.3-.5-.7-.9-1.8-1-3.2-.3-3.5 1-10.3 5.8-16.2 1.5-1.8 3.3-3.3 5.2-4.4zm-5.1 25.5c2.4 2.1 6.2-1.6 7.2-5 .5-1.9.1-3.1-1.2-3.7-1.4-.6-3.7-.3-6.8.8-.4 1.9-.4 3.5-.4 5a6 6 0 0 0 1.2 2.9z"/>
 <path id="7" d="m859-38.7 3.3 4.6-7.4 25.2-5.2-1.3 7-23.9h-9.3l-3.3-4.6z"/>
 <path id="8" d="M991.6-26.5c1.5-1.1 2.8-2.4 3.7-3.9 1-1.5 1.1-2.8.2-3.7-1.1-1.2-2.4-1.4-3.9-.6-1.2.7-2 1.7-2.4 3-.5 1.9 0 3.5 1.7 4.8zm-1.7 14.1c.4.1.9.3 1.5.3 1.6 0 7-3.2 4.4-8a7.9 7.9 0 0 0-2.2-2.3c-6.9 3.2-6 9.2-3.7 10zm10-19.7c.7 1.1.6 2.4-.1 3.7s-2.2 2.9-4.3 4.6l3.3 3c2.4 2.5 2.4 3.1 2.2 4-.3 3.3-2.2 6.7-5.2 7.9-.9.4-1.7.6-2.6.5a29 29 0 0 1-8.5-5.6c-1.1-1.9-1.1-4 0-6.2s2.7-3.8 5-4.9c-3-2.2-4.7-3.9-5-5-.4-1.3 1-5.9 4.7-7.9 1.2-.7 2.5-1 3.8-.9 2.7 1.7 4.6 4.4 6.7 6.8z"/>
 <path id="9" d="M1124.8-12.4c3.6-1.7 6.4-4.7 8.3-8.9-2.4.5-3.9.5-4.5 0a37 37 0 0 1-5.1-5.1c-3.5-5.4 4.1-14.4 7.8-12.3 3 1.7 5.5 3.8 7.5 6.3.5.7.9 1.8 1 3.2.5 5.1-2.7 15.7-11.1 20.6zm9-21.6c-2.2-2-6.2 1.5-7.2 5.2-.5 1.9-.1 3.1 1.3 3.7 1.5.6 3.7.3 6.8-.9.4-1.9.5-3.5.3-4.9-.4-2.6-1-2.9-1.2-3.1z"/>
 <g id="club_1">
  <use xlink:href="#cb"/>
  <path id="p908" d="M20.1 47.7c-2.6 0-5.1 3.2-5.1 7.2 0 3.5 4.7 8 4.5 10.7-1.4.8-5.8-6.5-8-6.5-2.7 0-4.8 3.3-4.8 7.3s2.1 7.3 4.8 7.3c2.3 0 6.4-7.2 8.1-6.5 0 4.5-4.5 14.1-4.5 14.1h10s-4.5-9.6-4.5-14.1c1.7-.7 5.8 6.7 8 6.7 2.8 0 5-3.3 5-7.3s-2.2-7.3-5-7.3c-2.1 0-6.2 7-8 6.4 0-2.9 4.7-7.3 4.7-10.7 0-4-2.5-7.3-5.2-7.3z" stroke="#000"/>
  <use id="u2586" transform="rotate(180 68.5 93.2)" xlink:href="#p908"/>
  <use transform="matrix(2.1475 0 0 2.1488 25.7 -44.6)" xlink:href="#p908"/>
  <use transform="translate(0 50)" stroke="#000" xlink:href="#A"/>
  <use transform="rotate(180 68 68)" stroke="#000" xlink:href="#A"/>
 </g>
 <g id="club_2">
  <use transform="translate(139)" xlink:href="#cb"/>
  <use id="u1874" transform="translate(139)" xlink:href="#p908"/>
  <use transform="translate(139)" xlink:href="#u2586"/>
  <use id="u1878" transform="matrix(.718 0 0 .725 93 -5.6)" xlink:href="#u1874"/>
  <use transform="rotate(180 207.3 92)" xlink:href="#u1878"/>
  <use transform="translate(0 50)" stroke="#000" xlink:href="#2"/>
  <use transform="rotate(180 207 68)" stroke="#000" xlink:href="#2"/>
 </g>
 <g id="club_3">
  <use transform="translate(278)" xlink:href="#cb"/>
  <use id="u2320" transform="translate(139)" xlink:href="#u1878"/>
  <use transform="translate(0 50.9)" xlink:href="#u2320"/>
  <use id="u2324" transform="rotate(180 346.3 92)" xlink:href="#u2320"/>
  <use id="u2318" transform="translate(139)" xlink:href="#u1874"/>
  <use id="u2326" transform="rotate(180 346.5 93.2)" xlink:href="#u2318"/>
  <use transform="translate(0 50)" stroke="#000" xlink:href="#3"/>
  <use transform="rotate(180 346 68)" stroke="#000" xlink:href="#3"/>
 </g>
 <g id="club_4">
  <use transform="translate(417)" xlink:href="#cb"/>
  <use id="u2789" transform="translate(139)" xlink:href="#u2318"/>
  <use id="u2797" transform="translate(120.7)" xlink:href="#u2324"/>
  <use id="u2791" transform="translate(139)" xlink:href="#u2326"/>
  <use id="u2793" transform="translate(120.7)" xlink:href="#u2320"/>
  <use transform="translate(36.7)" xlink:href="#u2797"/>
  <use transform="translate(36.7)" xlink:href="#u2793"/>
  <use transform="translate(0 50)" stroke="#000" xlink:href="#4"/>
  <use transform="rotate(180 485 68)" stroke="#000" xlink:href="#4"/>
 </g>
 <g id="club_5">
  <use transform="translate(556)" xlink:href="#cb"/>
  <use id="u3298" transform="translate(139)" xlink:href="#u2789"/>
  <use id="u3300" transform="translate(139)" xlink:href="#u2791"/>
  <use id="u3302" transform="translate(139)" xlink:href="#u2793"/>
  <use transform="translate(18.4 50.9)" xlink:href="#u3302"/>
  <use transform="translate(36.7)" xlink:href="#u3302"/>
  <use id="u3308" transform="translate(139)" xlink:href="#u2797"/>
  <use id="u3310" transform="translate(36.7)" xlink:href="#u3308"/>
  <use transform="translate(0 50)" stroke="#000" xlink:href="#5"/>
  <use transform="rotate(180 624 68)" stroke="#000" xlink:href="#5"/>
 </g>
 <g id="club_6">
  <use transform="translate(695)" xlink:href="#cb"/>
  <use id="u3827" transform="translate(139)" xlink:href="#u3298"/>
  <use id="u3831" transform="translate(139)" xlink:href="#u3302"/>
  <use transform="translate(0 50.9)" xlink:href="#u3831"/>
  <use id="u3837" transform="translate(102.3)" xlink:href="#u3310"/>
  <use id="u3829" transform="translate(139)" xlink:href="#u3300"/>
  <use transform="translate(36.7)" xlink:href="#u3831"/>
  <use id="u3839" transform="translate(36.7 -50.9)" xlink:href="#u3837"/>
  <use transform="translate(0 50.9)" xlink:href="#u3839"/>
  <use transform="translate(0 50)" stroke="#000" xlink:href="#6"/>
  <use transform="rotate(180 763 68)" stroke="#000" xlink:href="#6"/>
 </g>
 <g id="club_7">
  <use transform="translate(834)" xlink:href="#cb"/>
  <use id="u6618" transform="translate(139)" xlink:href="#u3827"/>
  <use id="u6624" transform="translate(139)" xlink:href="#u3831"/>
  <use id="u6628" transform="translate(18.4 21.4)" xlink:href="#u6624"/>
  <use transform="translate(0 29.4)" xlink:href="#u6628"/>
  <use id="u6632" transform="translate(120.7 29.4)" xlink:href="#u3839"/>
  <use id="u6634" transform="translate(-18.4 21.4)" xlink:href="#u6632"/>
  <use id="u6626" transform="translate(36.7)" xlink:href="#u6624"/>
  <use transform="translate(36.7)" xlink:href="#u6634"/>
  <use id="u6620" transform="translate(139)" xlink:href="#u3829"/>
  <use transform="translate(0 50)" stroke="#000" xlink:href="#7"/>
  <use transform="rotate(180 902 68)" stroke="#000" xlink:href="#7"/>
 </g>
 <g id="club_8">
  <use transform="translate(973)" xlink:href="#cb"/>
  <use id="u1990" transform="translate(139)" xlink:href="#u6618"/>
  <use id="u1992" transform="translate(139)" xlink:href="#u6624"/>
  <use id="u1996" transform="translate(0 34)" xlink:href="#u1992"/>
  <use id="u2000" transform="translate(120.7 -12.5)" xlink:href="#u6632"/>
  <use id="u2004" transform="translate(0 34)" xlink:href="#u2000"/>
  <use transform="translate(139)" xlink:href="#u6620"/>
  <use transform="translate(36.7)" xlink:href="#u1992"/>
  <use transform="translate(36.7)" xlink:href="#u1996"/>
  <use transform="translate(36.7)" xlink:href="#u2000"/>
  <use transform="translate(36.7)" xlink:href="#u2004"/>
  <use transform="translate(0 50)" stroke="#000" xlink:href="#8"/>
  <use transform="rotate(180 1041 68)" stroke="#000" xlink:href="#8"/>
 </g>
 <g id="club_9">
  <use transform="translate(1112)" xlink:href="#cb"/>
  <use id="u2011" transform="translate(139)" xlink:href="#u1990"/>
  <use id="u3290" transform="translate(278)" xlink:href="#u6620"/>
  <use id="u3292" transform="translate(241.3)" xlink:href="#u6626"/>
  <use transform="translate(36.7)" xlink:href="#u3292"/>
  <use id="u2015" transform="translate(0 34)" xlink:href="#u3292"/>
  <use id="u2021" transform="translate(139)" xlink:href="#u2000"/>
  <use transform="translate(36.7)" xlink:href="#u2021"/>
  <use id="u2025" transform="translate(0 34)" xlink:href="#u2021"/>
  <use id="u2017" transform="translate(18.4 17)" xlink:href="#u2015"/>
  <use transform="translate(36.7)" xlink:href="#u2025"/>
  <use transform="translate(18.4 -17)" xlink:href="#u2017"/>
  <use transform="translate(0 50)" stroke="#000" xlink:href="#9"/>
  <use transform="rotate(180 1180 68)" stroke="#000" xlink:href="#9"/>
 </g>
 <g id="club_10">
  <use transform="translate(1251)" xlink:href="#cb"/>
  <use transform="translate(139)" xlink:href="#u2011"/>
  <use transform="translate(139)" xlink:href="#u3290"/>
  <use id="u2144" transform="translate(139)" xlink:href="#u3292"/>
  <use id="u2147" transform="translate(18.4 17)" xlink:href="#u2144"/>
  <use id="u2151" transform="translate(-18.4 17)" xlink:href="#u2147"/>
  <use transform="translate(36.7)" xlink:href="#u2151"/>
  <use id="u2155" transform="translate(139)" xlink:href="#u2021"/>
  <use transform="translate(36.7)" xlink:href="#u2155"/>
  <use transform="translate(18.4 17)" xlink:href="#u2155"/>
  <use transform="translate(0 34)" xlink:href="#u2155"/>
  <use transform="translate(36.7 34)" xlink:href="#u2155"/>
  <use transform="translate(18.4 -17)" xlink:href="#u2147"/>
  <use transform="translate(0 50)" stroke="#000" xlink:href="#10"/>
  <use transform="rotate(180 1319 68)" stroke="#000" xlink:href="#10"/>
 </g>
 <g id="club_jack">
  <use transform="translate(1390)" xlink:href="#cb"/>
  <use transform="matrix(1.15 0 0 1.15 -218.8 215.6)" xlink:href="#silj"/>
  <path d="m1443.4 82.8c0 13.1 8.7 23.8 19.4 23.8s19.4-10.7 19.4-23.8-8.7-23.8-19.4-23.8-19.4 10.7-19.4 23.8z" fill="#fdc"/>
  <path d="M1466.8 107.2a14.6 14.6 0 0 1 14.6 14.6V139a68.2 68.2 0 0 1-46.7 0v-17.2a14.6 14.6 0 0 1 14.6-14.7z" fill="url(#G7499)"/>
  <path d="M1484.3 71.7c-3-5.2-5.8-15.1-22-15-25.1.7-19.1 26.9-28.1 29.7 5.6 1.8 8.4 3.4 16.7.5-.9-6.6.6-11.4 4.5-14.8 5 2.6 23.9 1.4 28.9-.4z" fill="#fb2"/>
  <path d="m1463.4 83c0 1.4 1.6 2.5 3.5 2.5s3.5-1.1 3.5-2.5-1.6-2.4-3.5-2.4-3.5 1.1-3.5 2.4z" fill="#fff"/>
  <path d="M1466.4 83.1c0 1.1.9 2 2 2s2-.9 2-2-.9-2-2-2-2 .9-2 2z" fill="#23d"/>
  <path d="M1467.9 83.3c0 .9.6 1.6 1.3 1.6s1.2-.7 1.2-1.6-.6-1.7-1.3-1.7-1.2.8-1.2 1.7z"/>
  <path d="m1475 82.7c0 1.3 1.6 2.4 3.5 2.4s3.5-1.1 3.5-2.4-1.6-2.5-3.5-2.5-3.5 1.1-3.5 2.5z" fill="#fff"/>
  <path d="M1478 82.7c0 1.1.9 2 2 2s2-.9 2-2-.9-2-2-2-2 .9-2 2z" fill="#23d"/>
  <path d="M1479.5 82.9c0 .9.6 1.6 1.3 1.6s1.2-.7 1.2-1.6-.6-1.7-1.3-1.7-1.2.8-1.2 1.7z"/>
  <path d="M1476 98.2c-2.1 4.2-8 2.2-13.5 0 6.1.6 10.4 1.1 13.5 0z" fill="#f55"/>
  <path d="m1450.6 125.4-1.4.1-1.6 16.7 4 .6-1-17.4z" fill="#a19"/>
  <path d="M1473.5 84.3c1 1.5 2.2 4 2 5s-1.9 1-2.8 1.6l-.3-.6c.8-.5 2 0 2.2-.9.1-1-.8-3.4-1.7-4.7z"/>
  <path d="M1472 93.1c4.4.5 7 3.8 9.3 6.3 0 0-7.2-4-9.5-4 .2-.5 0-1.2.2-2.3zm-1-.1c-3.9.4-11.3 3.4-11.7 6.2 0 0 9.1-4.8 11.2-4 0-.6.4-1.2.5-2.2z" fill="#fb2"/>
  <path d="M1473.9 109a136 136 0 0 1-16.6 34h-4.3a153.3 153.3 0 0 0 17.4-35.5s2.4.7 3.5 1.6z" fill="#ee0"/>
  <path d="m1476.9 105 .3 11.8-10.7-6.5v1.6l-4.3.4.1-2.2-14 6.2 1.5-13.9 12.3 6.3.3-2 4.3-.4v2.2z" fill="url(#G7477)"/>
  <path d="m1477.1 58.9.6 3a85.7 85.7 0 0 1-30.8 1l.4-2.9a93 93 0 0 0 29.8-1.1z" fill="#ee0"/>
  <path d="m1463.1 60.7c-32.8 4.4-27-15.4-1.8-8.8 24.3-8.5 30.2 11.3 1.8 8.8z" fill="url(#G7471)"/>
  <path d="m1458 51a4.3 1.9 0 1 0 8.6 0 4.3 1.9 0 1 0-8.6 0z" fill="#ee0"/>
  <path d="M1462.3 49.1c2 0 3.6.7 4 1.6 14.8-3.1 20.2 5.2 11 8.7l.4 2.4c3.5 3.2 5 7.2 6.6 10-.9.3-2.5.5-4.1.8a27.8 27.8 0 0 1-1.6 24 61 61 0 0 1 2.7 2.8s-1.7-1-3.4-1.8a18.4 18.4 0 0 1-14.7 9l3.5-.3v.8h.1c1 0 2 .2 3 .4l7.1-2.5.2 6.4a14.5 14.5 0 0 1 4.3 10.4v17.1a57.4 57.4 0 0 1-24 4v.1h-4.3l.1-.3-1.7-.2v.3l-4-.6a51 51 0 0 1-12.8-3.3v-17.1c0-8.1 6.5-14.6 14.6-14.7l.5-4.7 9.3 4.7h3.2l.1-.5h.3c-9.2 0-16.7-7.8-18.8-18.3-3.5.2-6.1-.7-9.7-1.9 6.3-2 5.4-15.3 12.9-23.4h-.1l.3-2.4c-12.6-2.8-6.4-12.5 11.2-9.1-.2-.2-.5-.3-.5-.5 0-1 2-1.9 4.3-1.9z" fill="url(#G7467)"/>
  <use transform="translate(-139)" xlink:href="#u3772"/>
  <use transform="translate(-139)" xlink:href="#u3770"/>
  <use transform="translate(0 50)" stroke="#000" xlink:href="#J"/>
  <use transform="rotate(180 1458 68)" stroke="#000" xlink:href="#J"/>
 </g>
 <g id="club_queen">
  <use transform="translate(1529)" xlink:href="#cb"/>
  <use transform="matrix(1.12 0 0 1.12 -194.7 213.3)" xlink:href="#silq"/>
  <path d="m1584.8 83.6c0 12.8 8.5 23.2 18.9 23.2s19-10.4 19-23.2-8.6-23.1-19-23.1-18.9 10.3-18.9 23.1z" fill="#eca"/>
  <path d="M1607.1 108c7.9 0 14.3 6.4 14.3 14.3v3.6c1.3 2 2.5 4 2.3 5.6-.2 1.1-1.2 2-2.4 2.9v4.6a66.6 66.6 0 0 1-45.5 0v-16.7c0-7.9 6.4-14.2 14.3-14.2z" fill="url(#G7942)"/>
  <path d="M1625.6 73.2s-4.4-15.8-23-16.1c-18.5-.3-23.4 15.5-21.3 33.4 1.9 9.5-13.4 14.3-13.4 14.3a51.6 51.6 0 0 0 26.6.6c-7-5.3-1.2-30.7 2.6-34 4.8 3.9 23.6 3.5 28.5 1.8z" fill="#631"/>
  <path d="m1604.1 83c0 1.9 1.5 3.4 3.4 3.4s3.4-1.5 3.4-3.5-1.5-3.4-3.4-3.4-3.4 1.5-3.4 3.4z" fill="#fff"/>
  <path d="M1607 83c0 1.6.9 3 2 3s1.9-1.4 1.9-3-.9-2.9-2-2.9-1.9 1.3-1.9 3z" fill="#19c"/>
  <path d="M1608.4 83.3c0 1.3.6 2.3 1.2 2.3s1.2-1 1.2-2.3-.5-2.4-1.2-2.4-1.2 1-1.2 2.4z"/>
  <path d="m1611.7 46.3-1.3-9.3-5.1 12.5s-4.6-13.3-4.6-13c0 .5-3 10-3 10l2.3 7.6h10.4z" fill="url(#G28)"/>
  <path d="m1615.6 41-4.8 19.5a21.1 21.1 0 0 1-11.3.1l-3.4-19.3 6 9.6 3-12.9 3.1 12.8z" fill="#ee0"/>
  <path d="m1615.4 82.4c0 2 1.5 3.5 3.4 3.5s3.4-1.6 3.4-3.5-1.5-3.5-3.4-3.5-3.4 1.5-3.4 3.5z" fill="#fff"/>
  <path d="M1618.3 82.5c0 1.6.9 2.9 2 2.9s1.9-1.3 1.9-3-.9-2.9-2-2.9-1.9 1.3-1.9 3z" fill="#19c"/>
  <path d="M1619.7 82.7c0 1.3.6 2.4 1.2 2.4s1.2-1.1 1.2-2.4-.5-2.3-1.2-2.3-1.2 1-1.2 2.3z"/>
  <path d="M1616.6 97.1c-4 5-7.8 3.3-13.1 0 4.8-.3 8-1.7 13.1 0z" fill="#f55"/>
  <path d="m1591.3 125.8-1.4.2-1.6 16.2 4 .3zm18.6 6.1 1 .7c-2.3 3.3-4.3 6.3-6.6 6.8s-5.3-1.8-7.6-2.8l.5-1c2.2 1 4.3 1.6 6.4 1.2s4.1-1.7 6.3-4.9z" fill="#a19"/>
  <path d="M1614.8 85.4c.9 1.4 2 2.8 1.8 3.9s-1.6 1.9-2.5 2.5l-.4-.5a3.3 3.3 0 0 0 1.4-2.2c.2-.9 0-2-.9-3.4z"/>
  <path d="M1609.4 108.7s7 13.2 5.5 22.8c-6.1-11-14.2-21.5-18.7-23.5 1.6-.6 11.6-.3 13.2.7z" fill="#eca"/>
  <path d="M1623.8 131.4c-.3 1.8-2.7 3.2-4.3 4.2l-.3-.3c1.3-1 2-1 2.2-2.6s2.7-3.2 2.4-1.3z" fill="#a19"/>
  <path d="M1600.7 36.6c0-.3 1.5 4.2 2.9 8l1.5-6.6 1.8 7.5 3.5-8.5 1.3 9.2 4-5.1-4.5 17.6a23.8 23.8 0 0 1 14.4 14.5c-1 .4-2.8.6-4.7.8a27.4 27.4 0 0 1 1.7 9.7c0 12.7-8.5 23-18.9 23-4.3 0-8.2-1.8-11.4-4.8a7.3 7.3 0 0 0 2.2 3.5 51.5 51.5 0 0 1-26.6-.6s15.3-4.8 13.4-14.3c-2-16.6 2.3-31.3 17.6-33l-2.8-16.2 2.1 3.3a115 115 0 0 0 2.5-8zm6.4 71.5c7.9 0 14.3 6.3 14.3 14.2v3.6c1.3 2 2.6 4 2.3 5.6-.2 1.1-1.2 2-2.4 2.9v4.6a61.1 61.1 0 0 1-29 3.5c-1.4 0-2.7 0-4-.3-4.5-.6-9-1.6-12.4-3.1v-16.8c0-7.9 6.3-14.2 14.2-14.2z" fill="url(#G7952)"/>
  <use id="u3772" transform="translate(-139)" xlink:href="#u4924"/>
  <use id="u3770" transform="translate(-139)" xlink:href="#u4926"/>
  <use transform="translate(0 50)" stroke="#000" xlink:href="#Q"/>
  <use transform="rotate(180 1597 68)" stroke="#000" xlink:href="#Q"/>
 </g>
 <g id="club_king">
  <use transform="translate(1668)" xlink:href="#cb"/>
  <use transform="matrix(1.15 0 0 1.15 -260.5 216)" xlink:href="#silk"/>
  <path d="M1718.2 85.1c0 13.1 8.7 23.8 19.4 23.8S1757 98.2 1757 85s-8.7-23.8-19.4-23.8-19.4 10.7-19.4 23.8z" fill="#953"/>
  <path d="m1756.6 115.2 2.4-1.7-7.9-6.3-1.7 3.6s6.8 4.7 7.2 4.4z" fill="#ee0"/>
  <path d="m1744.6 107.9a14.6 14.6 0 0 1 14.6 14.6v17.2a68.4 68.4 0 0 1-46.7 0v-17.2a14.6 14.6 0 0 1 14.7-14.6z" fill="url(#G97)"/>
  <path d="M1760.1 74.4s-2-16.5-23.7-16.6c-23 1-23 30.5-23 30.5 5.6 1.8 4 3.7 12.3.9-.9-6.6.6-11.4 4.6-14.8 4.9 2.6 24.8 1.8 29.8 0z"/>
  <g transform="matrix(-.167 0 0 .11258 1796.4 58.3)">
   <path transform="translate(-4 -6)" d="m353 245.9c0 11.8-9.4 21.5-21 21.5s-21-9.7-21-21.5 9.4-21.5 21-21.5 21 9.6 21 21.5z" fill="#fff"/>
   <path transform="matrix(.57143 0 0 .83721 129.3 34.5)" d="m353 245.9c0 11.8-9.4 21.5-21 21.5s-21-9.7-21-21.5 9.4-21.5 21-21.5 21 9.6 21 21.5z" fill="#b77"/>
   <path transform="matrix(.35714 0 0 .67442 196 76)" d="m353 245.9c0 11.8-9.4 21.5-21 21.5s-21-9.7-21-21.5 9.4-21.5 21-21.5 21 9.6 21 21.5z"/>
  </g>
  <g transform="matrix(-.167 0 0 .11258 1808 58)">
   <path transform="translate(-4 -6)" d="m353 245.9c0 11.8-9.4 21.5-21 21.5s-21-9.7-21-21.5 9.4-21.5 21-21.5 21 9.6 21 21.5z" fill="#fff"/>
   <path transform="matrix(.57143 0 0 .83721 129.3 34.5)" d="m353 245.9c0 11.8-9.4 21.5-21 21.5s-21-9.7-21-21.5 9.4-21.5 21-21.5 21 9.6 21 21.5z" fill="#b77"/>
   <path transform="matrix(.35714 0 0 .67442 196 76)" d="m353 245.9c0 11.8-9.4 21.5-21 21.5s-21-9.7-21-21.5 9.4-21.5 21-21.5 21 9.6 21 21.5z"/>
  </g>
  <path d="M1750.9 100.5c-3.4.1-8.4.4-13.5 0 5.4-2 9.1-2.6 13.5 0z" fill="#f55"/>
  <path d="m1728.4 126.1-1.4.2-1.6 16.7 4 .3z" fill="#a19"/>
  <path d="M1749 87c1 1.4 2.2 3.8 2 5s-1.9.8-2.8 1.5l-.3-.6c.8-.5 2 0 2.2-.9.1-1-.8-3.3-1.7-4.7zm-2 14.4c-1.3 2.7.8 2.7 1.7 3.1a10.7 10.7 0 0 0 2.7-3.2c.1 6.1-2 9.5-3.6 11.2-1.5 1.6-10.6 2.9-15.6 0s-15.2-13-9.6-21.3c.8.5 2.2.4 3.2.2-.2 1.8 2.3 7.1 6.8 9 4.5 2 7.7 2.5 9 4.3 2.2 0 3.5-.9 2.5-3.3.5.2 2.3 0 2.9 0zm-1-6.2s8 2.1 8.6 3.6c.5 1.4-1.2 3.1-1.2 3.1s-5.4-4.4-7.6-4.3c.1-.6-.1-1.3.1-2.4z"/>
  <path d="M1745.3 95.3s-8.5 0-9.4 1.3.2 3.4.2 3.4 6.6-3.3 8.7-2.6c0-.6.4-1 .5-2.2z"/>
  <path d="m1758.2 54.4-3-7.6-5.8 8-4.1-10-5.2 9.8s-3.6-10.2-3.6-9.4-3.8 10.6-3.8 10.6l-4.3-9.4-2.8 9.3-5-8.1-1.4 7.2v5.7s31.6 1.5 34.5 0 4.6-6 4.5-6.1z" fill="url(#G77)"/>
  <path d="m1757.4 67.6a87.7 87.7 0 0 1-38.1 0l-2.8-19 5.3 7.6 3.3-8.6 4 8.4 4.2-9.6 3.8 9.4 4.2-9.2 3.8 10 5.6-8.7 4.2 9 6.4-7.9s-3.6 18.2-3.9 18.6z" fill="url(#G74)"/>
  <path d="m1722.4 107.4 3.4 2.7-10.8 8-3-3z" fill="#ee0"/>
  <path d="m1738.6 127 8-9.1h-20z" fill="#f80"/>
  <path d="m1741.2 120.3 3.2 4-4.6 3 5 3.6-3.3 3.3-3.4-5.7-3.4 5.5-3.5-3.8 5.8-2.8-5.5-3.7 3.6-3.2 3 5.7z" fill="#ee0"/>
  <path d="m1745.7 45.5 3 7 2.4-3.9 1.4 3.2 3.2-4.3 2.5 6.5 3.5-4.2s-3.6 18.2-3.9 18.6c2.2 3.5 2.7 6.7 2.7 6.7-1 .4-3 .7-4.8 1a27.9 27.9 0 0 1 1.7 9.7c0 4.8-1.2 9.4-3.2 13.1l.8.6c.5 1.4-1.2 3.2-1.2 3.2l-1.4-1-.7 1a17 17 0 0 1-1.3 7h.3l.8-1.8 7.8 6.3-2.1 1.5a14.3 14.3 0 0 1 2.4 7.5v17.2a62.7 62.7 0 0 1-30 3.5l-3.9-.2a51 51 0 0 1-12.8-3.3v-17.2c0-2 .4-4 1.2-5.7l-1.7-1.6 10.3-7.8 1.2 1a14.5 14.5 0 0 1 3.4-.5 19 19 0 0 1-5.8-10.5 26.6 26.6 0 0 1-2.4-7c-1.4-.2-2.4-1.2-5.3-2 0 0 0-12 5.9-20.8l-2.7-19 3 4.4 1-5.4 2.8 4.5 1.7-4.4 1.8 3.7 1.5-5 2.6 5.5 2.3-5.5 1.5 3.7c.9-2.3 1.8-4.5 1.8-4.9 0-.5 1.4 3.5 2.5 6.4l2.3-5 1.2 3.3z" fill="url(#G64)"/>
  <use id="u4924" transform="translate(973)" xlink:href="#u3827"/>
  <use id="u4926" transform="translate(973)" xlink:href="#u3829"/>
  <use transform="translate(0 50)" stroke="#000" xlink:href="#K"/>
  <use transform="rotate(180 1736 68)" stroke="#000" xlink:href="#K"/>
 </g>
 <g id="diamond_1">
  <use transform="translate(0 189)" xlink:href="#cb"/>
  <path id="p1608" d="m20 236.7c-2.8 6.7-7.5 12.5-13.4 16.8 5.9 4 10 9.3 13.5 16.8 2.6-6.8 7.3-12.7 13.4-16.8-6.6-3.3-10.4-8.7-13.5-16.8z" fill="red" stroke="red" stroke-width="1.3"/>
  <use transform="translate(96.8 57.6)" xlink:href="#p1608"/>
  <use transform="matrix(2.1475 0 0 2.1488 25.7 -261.7)" xlink:href="#p1608"/>
  <use transform="translate(0 239)" fill="red" stroke="red" xlink:href="#A"/>
  <use transform="rotate(180 68 162.6)" fill="red" stroke="red" xlink:href="#A"/>
 </g>
 <g id="diamond_2">
  <use transform="translate(139 189)" xlink:href="#cb"/>
  <use id="u1886" transform="translate(139)" xlink:href="#p1608"/>
  <use id="u1890" transform="matrix(.718 0 0 .725 93 46.5)" xlink:href="#u1886"/>
  <use transform="translate(0 97.8)" xlink:href="#u1890"/>
  <use transform="translate(96.8 57.6)" xlink:href="#u1886"/>
  <use transform="translate(0 239)" fill="red" stroke="red" xlink:href="#2"/>
  <use transform="rotate(180 207 162.6)" fill="red" stroke="red" xlink:href="#2"/>
 </g>
 <g id="diamond_3">
  <use transform="translate(278 189)" xlink:href="#cb"/>
  <use id="u2332" transform="translate(139)" xlink:href="#u1886"/>
  <use id="u2336" transform="translate(139)" xlink:href="#u1890"/>
  <use id="u2338" transform="translate(0 50.9)" xlink:href="#u2336"/>
  <use transform="translate(0 50.9)" xlink:href="#u2338"/>
  <use transform="translate(96.8 57.6)" xlink:href="#u2332"/>
  <use transform="translate(0 239)" fill="red" stroke="red" xlink:href="#3"/>
  <use transform="rotate(180 346 162.6)" fill="red" stroke="red" xlink:href="#3"/>
 </g>
 <g id="diamond_4">
  <use transform="translate(417 189)" xlink:href="#cb"/>
  <use id="u2803" transform="translate(139)" xlink:href="#u2332"/>
  <use id="u2807" transform="translate(120.7)" xlink:href="#u2336"/>
  <use transform="translate(36.7)" xlink:href="#u2807"/>
  <use id="u2811" transform="translate(0 101.8)" xlink:href="#u2807"/>
  <use transform="translate(36.7)" xlink:href="#u2811"/>
  <use transform="translate(96.8 57.6)" xlink:href="#u2803"/>
  <use transform="translate(0 239)" fill="red" stroke="red" xlink:href="#4"/>
  <use transform="rotate(180 485 162.6)" fill="red" stroke="red" xlink:href="#4"/>
 </g>
 <g id="diamond_5">
  <use transform="translate(556 189)" xlink:href="#cb"/>
  <use id="u3316" transform="translate(139)" xlink:href="#u2803"/>
  <use id="u3320" transform="translate(139)" xlink:href="#u2807"/>
  <use transform="translate(36.7)" xlink:href="#u3320"/>
  <use transform="translate(96.8 57.6)" xlink:href="#u3316"/>
  <use id="u3324" transform="translate(18.4 50.9)" xlink:href="#u3320"/>
  <use id="u3326" transform="translate(-18.4 50.9)" xlink:href="#u3324"/>
  <use transform="translate(36.7)" xlink:href="#u3326"/>
  <use transform="translate(0 239)" fill="red" stroke="red" xlink:href="#5"/>
  <use transform="rotate(180 624 162.6)" fill="red" stroke="red" xlink:href="#5"/>
 </g>
 <g id="diamond_6">
  <use transform="translate(695 189)" xlink:href="#cb"/>
  <use id="u3843" transform="translate(139)" xlink:href="#u3316"/>
  <use id="u3847" transform="translate(139)" xlink:href="#u3320"/>
  <use id="u3851" transform="translate(0 50.9)" xlink:href="#u3847"/>
  <use id="u3853" transform="translate(0 50.9)" xlink:href="#u3851"/>
  <use transform="translate(36.7)" xlink:href="#u3847"/>
  <use transform="translate(36.7)" xlink:href="#u3851"/>
  <use transform="translate(36.7)" xlink:href="#u3853"/>
  <use transform="translate(96.8 57.6)" xlink:href="#u3843"/>
  <use transform="translate(0 239)" fill="red" stroke="red" xlink:href="#6"/>
  <use transform="rotate(180 763 162.6)" fill="red" stroke="red" xlink:href="#6"/>
 </g>
 <g id="diamond_7">
  <use transform="translate(834 189)" xlink:href="#cb"/>
  <use id="u6640" transform="translate(139)" xlink:href="#u3843"/>
  <use id="u6644" transform="translate(139)" xlink:href="#u3847"/>
  <use id="u6648" transform="translate(18.4 21.4)" xlink:href="#u6644"/>
  <use id="u6650" transform="translate(0 29.4)" xlink:href="#u6648"/>
  <use id="u6652" transform="translate(0 29.4)" xlink:href="#u6650"/>
  <use id="u6654" transform="translate(-18.4 21.4)" xlink:href="#u6652"/>
  <use id="u6646" transform="translate(36.7)" xlink:href="#u6644"/>
  <use transform="translate(36.7)" xlink:href="#u6654"/>
  <use id="u6642" transform="translate(96.8 57.6)" xlink:href="#u6640"/>
  <use transform="translate(0 239)" fill="red" stroke="red" xlink:href="#7"/>
  <use transform="rotate(180 902 162.6)" fill="red" stroke="red" xlink:href="#7"/>
 </g>
 <g id="diamond_8">
  <use transform="translate(973 189)" xlink:href="#cb"/>
  <use id="u3246" transform="translate(42.2 -57.6)" xlink:href="#u6642"/>
  <use transform="translate(96.8 57.6)" xlink:href="#u3246"/>
  <use id="u3258" transform="translate(102.3)" fill="red" stroke="red" xlink:href="#u6646"/>
  <use id="u3260" transform="translate(36.7)" fill="red" stroke="red" xlink:href="#u3258"/>
  <use id="u3262" transform="translate(-36.7 34)" xlink:href="#u3260"/>
  <use id="u3264" transform="translate(36.7)" xlink:href="#u3262"/>
  <use id="u3266" transform="translate(-36.7 34)" xlink:href="#u3264"/>
  <use id="u3268" transform="translate(36.7)" xlink:href="#u3266"/>
  <use id="u3270" transform="translate(-36.7 34)" xlink:href="#u3268"/>
  <use transform="translate(36.7)" xlink:href="#u3270"/>
  <use transform="translate(0 239)" fill="red" stroke="red" xlink:href="#8"/>
  <use transform="rotate(180 1041 162.6)" fill="red" stroke="red" xlink:href="#8"/>
 </g>
 <g id="diamond_9">
  <use transform="translate(1112 189)" xlink:href="#cb"/>
  <use id="u3250" transform="translate(139)" xlink:href="#u3246"/>
  <use transform="translate(96.8 57.6)" xlink:href="#u3250"/>
  <use id="u3274" transform="translate(102.3 -.3)" fill="red" stroke="red" xlink:href="#u3260"/>
  <use id="u3276" transform="translate(36.7 .3)" fill="red" stroke="red" xlink:href="#u3274"/>
  <use id="u3278" transform="translate(-36.7 33.7)" xlink:href="#u3276"/>
  <use id="u3280" transform="translate(36.7 .2)" xlink:href="#u3278"/>
  <use id="u3282" transform="translate(-36.7 33.8)" xlink:href="#u3280"/>
  <use id="u3284" transform="translate(36.7 .1)" xlink:href="#u3282"/>
  <use id="u3286" transform="translate(-36.7 34)" xlink:href="#u3284"/>
  <use id="u3289" transform="translate(36.7)" xlink:href="#u3286"/>
  <use transform="translate(-18.4 -51)" xlink:href="#u3289"/>
  <use transform="translate(0 239)" fill="red" stroke="red" xlink:href="#9"/>
  <use transform="rotate(180 1180 162.6)" fill="red" stroke="red" xlink:href="#9"/>
 </g>
 <g id="diamond_10">
  <use transform="translate(1251 189)" xlink:href="#cb"/>
  <use id="u3254" transform="translate(139)" xlink:href="#u3250"/>
  <use transform="translate(96.8 57.6)" xlink:href="#u3254"/>
  <use id="u3293" transform="translate(139)" fill="red" stroke="red" xlink:href="#u3274"/>
  <use id="u3295" transform="translate(36.7 .3)" fill="red" stroke="red" xlink:href="#u3293"/>
  <use id="u3297" transform="translate(-18.4 16.6)" xlink:href="#u3295"/>
  <use id="u3299" transform="translate(-18.4 17)" xlink:href="#u3297"/>
  <use id="u3301" transform="translate(36.7 .3)" xlink:href="#u3299"/>
  <use id="u3303" transform="translate(-36.7 33.6)" xlink:href="#u3301"/>
  <use id="u3305" transform="translate(36.7 .3)" xlink:href="#u3303"/>
  <use id="u3309" transform="translate(-18.4 16.6)" xlink:href="#u3305"/>
  <use id="u3312" transform="translate(-18.4 17)" xlink:href="#u3309"/>
  <use transform="translate(36.7 .3)" xlink:href="#u3312"/>
  <use transform="translate(0 239)" fill="red" stroke="red" xlink:href="#10"/>
  <use transform="rotate(180 1319 162.6)" fill="red" stroke="red" xlink:href="#10"/>
 </g>
 <g id="diamond_jack">
  <use transform="translate(1390 189)" xlink:href="#cb"/>
  <use transform="matrix(-1.15 0 0 1.15 3136.6 404.6)" xlink:href="#silj"/>
  <path d="m1474.2 271.8c0 13.1-8.7 23.8-19.4 23.8s-19.4-10.7-19.4-23.8 8.7-23.8 19.4-23.8 19.4 10.7 19.4 23.8z" fill="#eca"/>
  <path d="m1450.8 296.1a14.6 14.6 0 0 0-14.6 14.7v17.1c10.8 5.4 34 5.7 46.7 0v-17.1a14.6 14.6 0 0 0-14.7-14.7z" fill="url(#G80)"/>
  <path d="M1433.3 260.7c3-5.2 5.8-15.1 22-15 25.1.7 19.1 26.9 28.1 29.7-5.6 1.8-8.4 3.4-16.7.5.9-6.6-.6-11.4-4.5-14.8-5 2.6-23.9 1.4-28.9-.4z" fill="#631"/>
  <path d="m1454.3 272c0 1.4-1.6 2.5-3.5 2.5s-3.5-1.1-3.5-2.5 1.6-2.4 3.5-2.4 3.5 1.1 3.5 2.4z" fill="#fff"/>
  <path d="M1451.3 272.1c0 1.1-.9 2-2 2s-2-.9-2-2 .9-2 2-2 2 .9 2 2z" fill="#19c"/>
  <path d="M1449.8 272.3c0 .9-.6 1.6-1.3 1.6s-1.2-.7-1.2-1.6c0-1 .6-1.7 1.3-1.7s1.2.8 1.2 1.7z"/>
  <path d="m1442.7 271.6c0 1.4-1.6 2.5-3.5 2.5s-3.5-1.1-3.5-2.5 1.6-2.4 3.5-2.4 3.5 1.1 3.5 2.4z" fill="#fff"/>
  <path d="M1439.7 271.7c0 1.1-.9 2-2 2s-2-.9-2-2 .9-2 2-2 2 .9 2 2z" fill="#19c"/>
  <path d="M1438.2 271.9c0 .9-.6 1.6-1.3 1.6s-1.2-.7-1.2-1.6c0-1 .6-1.6 1.3-1.6s1.2.7 1.2 1.6z"/>
  <path d="M1441.5 287.2c2.1 4.2 8 2.2 13.5 0-6.1.6-10.4 1.1-13.5 0z" fill="#f55"/>
  <path d="m1467 314.4 1.4.1 1.6 16.7-4 .6 1-17.4z" fill="#15a"/>
  <path d="M1444.1 273.3c-1 1.5-2.2 4-2 5s1.9 1 2.8 1.6l.3-.6c-.8-.5-2 0-2.2-.9a10 10 0 0 1 1.7-4.7z"/>
  <path d="M1445.6 282.1c-4.4.5-7 3.8-9.3 6.3 0 0 7.2-4 9.5-4-.2-.5 0-1.2-.2-2.3zm1-.1c3.9.4 11.3 3.4 11.7 6.2 0 0-9.1-4.8-11.2-4 0-.6-.4-1.2-.5-2.2z" fill="#631"/>
  <path d="M1443.6 298a136 136 0 0 0 16.6 34h4.3a153.3 153.3 0 0 1-17.4-35.5s-2.4.7-3.5 1.6z" fill="#ee0"/>
  <path d="m1440.7 294-.3 11.8 10.7-6.5v1.6l4.3.4-.1-2.2 14 6.2-1.5-13.9-12.3 6.3-.3-2-4.3-.4v2.2z" fill="url(#G92)"/>
  <path d="m1440.4 247.9-.6 3a86 86 0 0 0 30.8 1l-.4-2.8c-9.8 1-22.4.9-29.8-1.2z" fill="#ee0"/>
  <path d="m1454.5 249.7c32.8 4.4 27-15.4 1.8-8.8-24.3-8.5-30.2 11.3-1.8 8.8z" fill="url(#G96)"/>
  <path d="m1459.6 240a4.3 1.9 0 1 1-8.6 0 4.3 1.9 0 1 1 8.6 0z" fill="#ee0"/>
  <path d="M1455.3 238.2c-2 0-3.6.6-4 1.5-14.8-3.1-20.2 5.2-11 8.7l-.4 2.4c-3.5 3.2-5 7.2-6.6 10l4.1.8a27.8 27.8 0 0 0 1.6 24 61.2 61.2 0 0 0-2.7 2.8s1.7-1 3.4-1.8c3.5 5.3 8.8 8.8 14.7 9l-3.5-.3v.8h-.1c-1 0-2 .2-3 .4l-7.1-2.5-.2 6.4a14.5 14.5 0 0 0-4.3 10.4v17.1a57.4 57.4 0 0 0 24 4v.1h4.3l-.1-.3 1.7-.2v.3l4-.6a51 51 0 0 0 12.8-3.3v-17.1c0-8.1-6.5-14.6-14.6-14.7l-.5-4.7-9.3 4.7h-3.2l-.1-.5h-.3c9.2 0 16.7-7.8 18.8-18.3 3.5.2 6.1-.7 9.7-1.9-6.3-2-5.4-15.3-12.9-23.4h.1l-.3-2.4c12.6-2.8 6.4-12.5-11.2-9.1.2-.2.5-.3.5-.5 0-1-2-1.9-4.3-1.9z" fill="url(#G0)"/>
  <use id="u5316" transform="translate(-139)" xlink:href="#u3786"/>
  <use transform="translate(96.8 57.6)" xlink:href="#u5316"/>
  <use transform="translate(0 239)" fill="red" stroke="red" xlink:href="#J"/>
  <use transform="rotate(180 1458 162.6)" fill="red" stroke="red" xlink:href="#J"/>
 </g>
 <g id="diamond_queen">
  <use transform="translate(1529 189)" xlink:href="#cb"/>
  <use transform="matrix(-1.12 0 0 1.12 3390 402.3)" xlink:href="#silq"/>
  <path d="m1610.5 272.6c0 12.8-8.5 23.2-18.9 23.2s-19-10.4-19-23.2 8.6-23.1 19-23.1 18.9 10.3 18.9 23.1z" fill="#953"/>
  <path d="M1588.2 297a14.2 14.2 0 0 0-14.3 14.3v3.6c-1.3 2-2.6 4-2.3 5.6.2 1.1 1.2 2 2.4 2.9v4.6c10.5 5.2 33 5.5 45.5 0v-16.7c0-7.9-6.4-14.2-14.3-14.2z" fill="url(#G8)"/>
  <path d="M1569.7 262.2s4.4-15.8 23-16.1c18.5-.3 23.4 15.5 21.3 33.4-1.9 9.5 13.4 14.3 13.4 14.3a51.5 51.5 0 0 1-26.6.6c7-5.3 1.2-30.6-2.6-34-4.8 3.9-23.6 3.5-28.5 1.8z"/>
  <path d="m1591.2 272c0 2-1.5 3.5-3.4 3.5s-3.4-1.6-3.4-3.5 1.5-3.5 3.4-3.5 3.4 1.6 3.4 3.5z" fill="#fff"/>
  <path d="M1588.3 272c0 1.7-.9 3-2 3s-1.9-1.3-1.9-3c0-1.5.9-2.9 2-2.9s1.9 1.3 1.9 3z" fill="#b77"/>
  <path d="M1586.8 272.3c0 1.3-.6 2.4-1.2 2.4s-1.2-1-1.2-2.4.5-2.3 1.2-2.3 1.2 1 1.2 2.3z"/>
  <path d="m1583.7 235.3 1.3-9.3 5.1 12.5s4.6-13.3 4.6-13l3.1 10-2.4 7.6H1585z" fill="url(#linearGradient553)"/>
  <path d="m1579.8 230 4.8 19.5a21.1 21.1 0 0 0 11.3.1l3.4-19.3-6 9.6-3-12.9-3.1 12.8z" fill="url(#G27)"/>
  <path d="m1579.9 271.4c0 2-1.5 3.5-3.4 3.5s-3.4-1.6-3.4-3.5 1.5-3.5 3.4-3.5 3.4 1.6 3.4 3.5z" fill="#fff"/>
  <path d="M1577 271.5c0 1.6-.9 3-2 3s-1.9-1.4-1.9-3 .9-3 2-3 1.9 1.4 1.9 3z" fill="#b77"/>
  <path d="M1575.5 271.7c0 1.3-.6 2.4-1.2 2.4s-1.2-1-1.2-2.4.5-2.3 1.2-2.3 1.2 1 1.2 2.3z"/>
  <path d="M1578.6 286.1c4 5 7.8 3.3 13.1 0-4.8-.3-8-1.7-13.1 0z" fill="#f55"/>
  <path d="M1604 314.9h1.4l1.6 16.3-4 .3zm-18.6 6-1 .7c2.3 3.3 4.3 6.3 6.6 6.8s5.3-1.8 7.6-2.8l-.5-1c-2.2 1-4.3 1.6-6.4 1.2s-4.1-1.7-6.3-4.9z" fill="#15a"/>
  <path d="M1580.5 274.4c-.9 1.5-2 2.8-1.8 3.9s1.6 1.9 2.5 2.5l.4-.5a3.3 3.3 0 0 1-1.4-2.2c-.2-.9 0-2 .9-3.4z"/>
  <path d="M1585.9 297.7s-7 13.2-5.5 22.8c6.1-11 14.2-21.5 18.7-23.5-1.6-.6-11.6-.3-13.2.7z" fill="#953"/>
  <path d="M1571.5 320.4c.3 1.8 2.7 3.2 4.3 4.2l.3-.3c-1.3-1-2-1-2.2-2.6s-2.7-3.2-2.4-1.3z" fill="#15a"/>
  <path d="M1594.6 225.6c0-.3-1.5 4.2-2.9 8l-1.5-6.6-1.8 7.5-3.5-8.5-1.3 9.2-4-5.1 4.5 17.6a23.8 23.8 0 0 0-14.4 14.5c1 .4 2.8.6 4.7.8a27.4 27.4 0 0 0-1.7 9.7c0 12.7 8.5 23 18.9 23 4.3 0 8.2-1.8 11.4-4.8a7.3 7.3 0 0 1-2.2 3.5 51.5 51.5 0 0 0 26.6-.6s-15.3-4.8-13.4-14.3c2-16.6-2.3-31.3-17.6-33l2.8-16.2-2.1 3.3a158.7 158.7 0 0 1-2.5-8zm-6.4 71.5a14.2 14.2 0 0 0-14.3 14.2v3.6c-1.3 2-2.6 4-2.3 5.6.2 1.1 1.2 2 2.4 2.9v4.7a61.2 61.2 0 0 0 29 3.4c1.4 0 2.7 0 4-.3 4.5-.6 9-1.6 12.4-3.1v-16.8c0-7.9-6.3-14.2-14.2-14.2z" fill="url(#G20)"/>
  <use id="u3786" transform="translate(-139)" xlink:href="#u4928"/>
  <use transform="translate(96.8 57.6)" xlink:href="#u3786"/>
  <use transform="translate(0 239)" fill="red" stroke="red" xlink:href="#Q"/>
  <use transform="rotate(180 1597 162.6)" fill="red" stroke="red" xlink:href="#Q"/>
 </g>
 <g id="diamond_king">
  <use transform="translate(1668 189)" xlink:href="#cb"/>
  <use transform="matrix(-1.15 0 0 1.15 3734.4 405)" xlink:href="#silk"/>
  <path d="M1729.6 297.2A14.6 14.6 0 0 0 1715 312v17c10.7 5.4 34 5.7 46.7 0v-17a14.6 14.6 0 0 0-14.7-14.7z" fill="url(#G810)"/>
  <path d="m1755.9 274.4c0 13.2-8.7 23.8-19.4 23.8s-19.4-10.6-19.4-23.8 8.7-23.7 19.4-23.7 19.4 10.6 19.4 23.7z" fill="#fdc"/>
  <path d="m1717.5 304.5-2.4-1.6 7.9-6.4 1.7 3.7s-6.8 4.6-7.2 4.3z" fill="#ee0"/>
  <path d="m1728.5 234.8-3 7.1-2.4-3.9-1.4 3.1-3.2-4.3-2.5 6.6-3.5-4.3s3.6 18.2 3.9 18.6c-2.2 3.6-2.7 6.8-2.7 6.8 1 .3 3 .6 4.8.9a28 28 0 0 0-1.7 9.7 27.6 27.6 0 0 0 3.2 13.2l-.8.5c-.5 1.5 1.2 3.2 1.2 3.2l1.4-1 .7 1c0 3 .6 5.3 1.3 7h-.3l-.8-1.8-7.8 6.4 2.1 1.5a14.3 14.3 0 0 0-2.4 7.5v17.1a62.8 62.8 0 0 0 30 3.6l3.9-.3c4.7-.7 9.2-1.7 12.9-3.3v-17.1c0-2-.5-4-1.2-5.8l1.6-1.6-10.3-7.7-1.2 1a14.8 14.8 0 0 0-3.4-.5c2.8-3 5.4-6.6 5.8-10.5a26.6 26.6 0 0 0 2.4-7c1.4-.3 2.4-1.2 5.3-2.1 0 0 0-11.8-5.9-20.8l2.7-18.9-3 4.3-1-5.3-2.8 4.5-1.7-4.5-1.8 3.7-1.5-5-2.6 5.5-2.3-5.4-1.5 3.7c-.9-2.4-1.8-4.6-1.8-5 0-.5-1.4 3.5-2.4 6.5l-2.3-5-1.3 3.3z" fill="url(#G777)"/>
  <path d="M1714 263.7s2-16.5 23.7-16.5c23 1 23 30.4 23 30.4-5.6 1.8-4 3.8-12.3 1 .9-6.7-.6-11.4-4.6-14.8-4.9 2.5-24.8 1.7-29.8 0z" fill="#fc2"/>
  <path d="m1735.9 274.7c0 1.3-1.6 2.4-3.5 2.4s-3.5-1.1-3.5-2.4 1.6-2.4 3.5-2.4 3.5 1 3.5 2.4z" fill="#fff"/>
  <path d="M1732.9 274.7c0 1.2-.9 2-2 2s-2-.8-2-2 .9-2 2-2 2 1 2 2z" fill="#19c"/>
  <path d="M1731.4 274.9c0 .9-.6 1.6-1.3 1.6s-1.2-.7-1.2-1.6c0-.9.6-1.6 1.3-1.6s1.2.7 1.2 1.6z"/>
  <path d="m1724.3 274.3c0 1.3-1.6 2.4-3.5 2.4s-3.5-1.1-3.5-2.4 1.6-2.5 3.5-2.5 3.5 1.1 3.5 2.5z" fill="#fff"/>
  <path d="M1721.3 274.3c0 1.1-.9 2-2 2s-2-.9-2-2 .9-2 2-2 2 .9 2 2z" fill="#19c"/>
  <path d="M1719.8 274.5c0 .9-.6 1.6-1.3 1.6s-1.2-.7-1.2-1.6c0-.9.6-1.6 1.3-1.6s1.2.7 1.2 1.6z"/>
  <path d="M1723.2 289.8c3.4.2 8.4.4 13.5 0-5.4-2-9.1-2.6-13.5 0z" fill="#f55"/>
  <path d="m1745.8 315.5 1.4.1 1.6 16.7-4 .3z" fill="#15a"/>
  <path d="M1725.1 276.3c-1 1.4-2.2 3.9-2 5s1.9.9 2.8 1.5l.3-.5c-.8-.6-2 0-2.2-1-.1-.9.8-3.3 1.7-4.7z"/>
  <path d="M1727.1 290.8c1.3 2.6-.8 2.6-1.7 3a10.7 10.7 0 0 1-2.7-3.1c-.1 6 2 9.4 3.6 11.1 1.5 1.7 10.6 3 15.6 0s15.2-13 9.6-21.3c-.8.5-2.2.4-3.2.2.2 1.9-2.3 7.2-6.8 9.1s-7.7 2.5-9 4.2c-2.2.1-3.5-.8-2.5-3.2-.5.2-2.3 0-2.9 0zm1-6.2s-8.1 2-8.6 3.5 1.2 3.2 1.2 3.2 5.4-4.5 7.6-4.4c-.1-.6.1-1.3-.1-2.3z" fill="#fc2"/>
  <path d="M1728.8 284.6s8.5.1 9.4 1.4-.2 3.3-.2 3.3-6.6-3.3-8.7-2.5c0-.6-.4-1.1-.5-2.2z" fill="#fc2"/>
  <path d="m1715.9 243.7 3-7.6 5.8 8 4.1-10 5.2 9.8s3.6-10.1 3.6-9.4 3.8 10.6 3.8 10.6l4.3-9.4 2.8 9.3 5-8 1.4 7.1v5.8s-31.6 1.4-34.5 0-4.6-6-4.5-6.2z" fill="url(#G790)"/>
  <path d="m1716.7 257a87.7 87.7 0 0 0 38.1 0l2.8-19-5.3 7.5-3.3-8.5-4 8.3-4.2-9.5-3.8 9.4-4.2-9.3-3.8 10.1-5.6-8.7-4.2 9-6.4-8s3.6 18.3 3.9 18.7z" fill="url(#G787)"/>
  <path d="m1751.8 296.7-3.4 2.8 10.8 7.9 3-2.9z" fill="#ee0"/>
  <path d="m1735.5 316.4-8-9.2h20z" fill="#f80"/>
  <path d="m1732.9 309.6-3.2 4 4.6 3.1-5 3.5 3.3 3.3 3.4-5.7 3.4 5.6 3.5-3.8-5.8-2.9 5.5-3.7-3.6-3.2-3 5.8z" fill="#ee0"/>
  <use id="u4928" transform="translate(973)" xlink:href="#u3843"/>
  <use transform="translate(96.8 57.6)" xlink:href="#u4928"/>
  <use transform="translate(0 239)" fill="red" stroke="red" xlink:href="#K"/>
  <use transform="rotate(180 1736 162.6)" fill="red" stroke="red" xlink:href="#K"/>
 </g>
 <g id="heart_1">
  <use transform="translate(0 378)" xlink:href="#cb"/>
  <g id="g1605" transform="matrix(.28639 0 0 .38877 -30 367.5)" fill="red">
   <path d="M199.1 149.4c-17 .4-23.3 23.2-23.5 24-5-21.1-25-27.2-34.9-21.7-37.6 20.6 13.7 55 34.8 84.3 23.3-32 69.9-69 34.3-84.3a24.6 24 0 0 0-10.7-2.4z" stroke="red" stroke-width="1.6"/>
  </g>
  <use transform="rotate(180 68.5 471.4)" xlink:href="#g1605"/>
  <use transform="matrix(2.1415 0 0 2.16 25.9 -484)" xlink:href="#g1605"/>
  <use transform="translate(0 428)" fill="red" stroke="red" xlink:href="#A"/>
  <use transform="rotate(180 68 257)" fill="red" stroke="red" xlink:href="#A"/>
 </g>
 <g id="heart_2">
  <use transform="translate(139 378)" xlink:href="#cb"/>
  <use id="u1898" transform="translate(139)" xlink:href="#g1605"/>
  <use transform="rotate(180 207.5 471.4)" xlink:href="#u1898"/>
  <use id="u1904" transform="matrix(.717 0 0 .729 93.3 97.6)" xlink:href="#u1898"/>
  <use transform="rotate(180 207.3 468.6)" xlink:href="#u1904"/>
  <use transform="translate(0 428)" fill="red" stroke="red" xlink:href="#2"/>
  <use transform="rotate(180 207 257)" fill="red" stroke="red" xlink:href="#2"/>
 </g>
 <g id="heart_3">
  <use transform="translate(278 378)" xlink:href="#cb"/>
  <use id="u2346" transform="translate(139)" xlink:href="#u1898"/>
  <use id="u2354" transform="rotate(180 346.5 471.4)" xlink:href="#u2346"/>
  <use id="u2348" transform="translate(139)" xlink:href="#u1904"/>
  <use id="u2350" transform="translate(0 50.4)" xlink:href="#u2348"/>
  <use id="u2352" transform="rotate(180 346.3 495.8)" xlink:href="#u2350"/>
  <use transform="translate(0 428)" fill="red" stroke="red" xlink:href="#3"/>
  <use transform="rotate(180 346 257)" fill="red" stroke="red" xlink:href="#3"/>
 </g>
 <g id="heart_4">
  <use transform="translate(417 378)" xlink:href="#cb"/>
  <use id="u2819" transform="translate(139)" xlink:href="#u2346"/>
  <use id="u2821" transform="translate(139)" xlink:href="#u2354"/>
  <use id="u2823" transform="translate(120.7)" xlink:href="#u2348"/>
  <use transform="translate(36.7)" xlink:href="#u2823"/>
  <use id="u2827" transform="translate(120.7)" xlink:href="#u2352"/>
  <use transform="translate(36.7)" xlink:href="#u2827"/>
  <use transform="translate(0 428)" fill="red" stroke="red" xlink:href="#4"/>
  <use transform="rotate(180 485 257)" fill="red" stroke="red" xlink:href="#4"/>
 </g>
 <g id="heart_5">
  <use transform="translate(556 378)" xlink:href="#cb"/>
  <use id="u3334" transform="translate(139)" xlink:href="#u2819"/>
  <use id="u3338" transform="translate(139)" xlink:href="#u2821"/>
  <use id="u3340" transform="translate(139)" xlink:href="#u2823"/>
  <use transform="translate(36.7)" xlink:href="#u3340"/>
  <use transform="translate(18.4 50.4)" xlink:href="#u3340"/>
  <use id="u3346" transform="translate(139)" xlink:href="#u2827"/>
  <use id="u3348" transform="translate(36.7)" xlink:href="#u3346"/>
  <use transform="translate(0 428)" fill="red" stroke="red" xlink:href="#5"/>
  <use transform="rotate(180 624 257)" fill="red" stroke="red" xlink:href="#5"/>
 </g>
 <g id="heart_6">
  <use transform="translate(695 378)" xlink:href="#cb"/>
  <use id="u3863" transform="translate(139)" xlink:href="#u3334"/>
  <use id="u3867" transform="translate(139)" xlink:href="#u3340"/>
  <use id="u3873" transform="translate(102.3)" xlink:href="#u3348"/>
  <use id="u3865" transform="translate(139)" xlink:href="#u3338"/>
  <use id="u3869" transform="translate(36.7)" xlink:href="#u3867"/>
  <use id="u3875" transform="translate(36.7 -50.4)" xlink:href="#u3873"/>
  <use transform="translate(0 50.4)" xlink:href="#u3875"/>
  <use transform="translate(-36.7 50.4)" xlink:href="#u3869"/>
  <use transform="translate(0 428)" fill="red" stroke="red" xlink:href="#6"/>
  <use transform="rotate(180 763 257)" fill="red" stroke="red" xlink:href="#6"/>
 </g>
 <g id="heart_7">
  <use transform="translate(834 378)" xlink:href="#cb"/>
  <use id="u6660" transform="translate(139)" xlink:href="#u3863"/>
  <use id="u6664" transform="translate(139)" xlink:href="#u3867"/>
  <use id="u6668" transform="translate(18.4 19.7)" xlink:href="#u6664"/>
  <use transform="translate(0 30.7)" xlink:href="#u6668"/>
  <use id="u6672" transform="translate(157.3 -19.7)" xlink:href="#u3873"/>
  <use id="u6674" transform="translate(-18.4 19.7)" xlink:href="#u6672"/>
  <use id="u6662" transform="translate(139)" xlink:href="#u3865"/>
  <use id="u6666" transform="translate(36.7)" xlink:href="#u6664"/>
  <use transform="translate(18.4 19.7)" xlink:href="#u6672"/>
  <use transform="translate(0 428)" fill="red" stroke="red" xlink:href="#7"/>
  <use transform="rotate(180 902 257)" fill="red" stroke="red" xlink:href="#7"/>
 </g>
 <g id="heart_8">
  <use transform="translate(973 378)" xlink:href="#cb"/>
  <use id="u8253" transform="translate(139)" xlink:href="#u6660"/>
  <use id="u8255" transform="translate(139)" xlink:href="#u6662"/>
  <use id="u8267" transform="translate(102.3)" xlink:href="#u6666"/>
  <use id="u8269" transform="translate(36.7)" xlink:href="#u8267"/>
  <use id="u8271" transform="translate(-36.7 33.7)" xlink:href="#u8269"/>
  <use id="u8273" transform="translate(36.7)" xlink:href="#u8271"/>
  <use id="u8295" transform="translate(139 -33.7)" xlink:href="#u6674"/>
  <use id="u8297" transform="translate(36.7)" xlink:href="#u8295"/>
  <use id="u8299" transform="translate(-36.7 33.7)" xlink:href="#u8297"/>
  <use id="u8301" transform="translate(36.7)" xlink:href="#u8299"/>
  <use transform="translate(0 428)" fill="red" stroke="red" xlink:href="#8"/>
  <use transform="rotate(180 1041 257)" fill="red" stroke="red" xlink:href="#8"/>
 </g>
 <g id="heart_9">
  <use transform="translate(1112 378)" xlink:href="#cb"/>
  <use id="u8257" transform="translate(139)" xlink:href="#u8253"/>
  <use id="u8263" transform="translate(139)" xlink:href="#u8255"/>
  <use id="u8275" transform="translate(102.3 -33.7)" xlink:href="#u8273"/>
  <use id="u8277" transform="translate(36.7)" xlink:href="#u8275"/>
  <use id="u8279" transform="translate(-36.7 33.7)" xlink:href="#u8277"/>
  <use id="u8281" transform="translate(18.4 18.3)" xlink:href="#u8279"/>
  <use id="u8303" transform="translate(102.3 -33.7)" xlink:href="#u8301"/>
  <use id="u8305" transform="translate(36.7)" xlink:href="#u8303"/>
  <use id="u8307" transform="translate(-36.7 33.7)" xlink:href="#u8305"/>
  <use id="u8309" transform="translate(36.7)" xlink:href="#u8307"/>
  <use id="u8283" transform="translate(18.4 -18.3)" xlink:href="#u8281"/>
  <use transform="translate(0 428)" fill="red" stroke="red" xlink:href="#9"/>
  <use transform="rotate(180 1180 257)" fill="red" stroke="red" xlink:href="#9"/>
 </g>
 <g id="heart_10">
  <use transform="translate(1251 378)" xlink:href="#cb"/>
  <use transform="translate(139)" xlink:href="#u8257"/>
  <use transform="translate(139)" xlink:href="#u8263"/>
  <use id="u8285" transform="translate(102.3 -33.6)" xlink:href="#u8283"/>
  <use id="u8287" transform="translate(36.7)" xlink:href="#u8285"/>
  <use id="u8289" transform="translate(-18.4 16.8)" xlink:href="#u8287"/>
  <use id="u8291" transform="translate(-18.4 16.8)" xlink:href="#u8289"/>
  <use transform="translate(36.7)" xlink:href="#u8291"/>
  <use id="u8311" transform="translate(102.3 -33.6)" xlink:href="#u8309"/>
  <use id="u8313" transform="translate(36.7)" xlink:href="#u8311"/>
  <use id="u8315" transform="translate(-36.7 33.6)" xlink:href="#u8313"/>
  <use id="u8317" transform="translate(18.4 -16.8)" xlink:href="#u8315"/>
  <use transform="translate(18.4 16.8)" xlink:href="#u8317"/>
  <use transform="translate(0 428)" fill="red" stroke="red" xlink:href="#10"/>
  <use transform="rotate(180 1319 257)" fill="red" stroke="red" xlink:href="#10"/>
 </g>
 <g id="heart_jack">
  <use transform="matrix(1.15 0 0 1.15 -218.8 594.6)" xlink:href="#silj"/>
  <use transform="translate(1390 378)" xlink:href="#cb"/>
  <use transform="matrix(1.15 0 0 1.15 -218.8 593.5)" xlink:href="#silj"/>
  <path d="m1443.4 460.7c0 13.2 8.7 23.8 19.4 23.8s19.4-10.6 19.4-23.8-8.7-23.7-19.4-23.7-19.4 10.6-19.4 23.7z" fill="#c97"/>
  <path d="m1466.8 485a14.6 14.6 0 0 1 14.6 14.7v17.2a68.2 68.2 0 0 1-46.7 0v-17.2a14.6 14.6 0 0 1 14.6-14.6z" fill="url(#G)"/>
  <path d="M1484.3 449.7c-3-5.2-5.8-15.2-22-15-25.1.7-19.1 26.8-28.1 29.6 5.6 1.8 8.4 3.4 16.7.5-.9-6.5.6-11.3 4.5-14.7 5 2.6 23.9 1.3 28.9-.4z" fill="#521"/>
  <g transform="matrix(-.167 0 0 .11258 1521.5 434)">
   <path transform="translate(-4 -6)" d="m353 245.9c0 11.8-9.4 21.5-21 21.5s-21-9.7-21-21.5 9.4-21.5 21-21.5 21 9.6 21 21.5z" fill="#fff"/>
   <path transform="matrix(.57143 0 0 .83721 129.3 34.5)" d="m353 245.9c0 11.8-9.4 21.5-21 21.5s-21-9.7-21-21.5 9.4-21.5 21-21.5 21 9.6 21 21.5z" fill="#1c1"/>
   <path transform="matrix(.35714 0 0 .67442 196 76)" d="m353 245.9c0 11.8-9.4 21.5-21 21.5s-21-9.7-21-21.5 9.4-21.5 21-21.5 21 9.6 21 21.5z"/>
  </g>
  <g transform="matrix(-.167 0 0 .11258 1533.1 433.6)">
   <path transform="translate(-4 -6)" d="m353 245.9c0 11.8-9.4 21.5-21 21.5s-21-9.7-21-21.5 9.4-21.5 21-21.5 21 9.6 21 21.5z" fill="#fff"/>
   <path transform="matrix(.57143 0 0 .83721 129.3 34.5)" d="m353 245.9c0 11.8-9.4 21.5-21 21.5s-21-9.7-21-21.5 9.4-21.5 21-21.5 21 9.6 21 21.5z" fill="#1c1"/>
   <path transform="matrix(.35714 0 0 .67442 196 76)" d="m353 245.9c0 11.8-9.4 21.5-21 21.5s-21-9.7-21-21.5 9.4-21.5 21-21.5 21 9.6 21 21.5z"/>
  </g>
  <path d="M1476 476.1c-2.1 4.2-8 2.3-13.5 0 6.1.7 10.4 1.1 13.5 0z" fill="#f55"/>
  <path d="m1450.6 503.3-1.4.2-1.6 16.7 4 .5-1-17.4z" fill="#060"/>
  <path d="M1473.5 462.3c1 1.4 2.2 3.9 2 5s-1.9.9-2.8 1.5l-.3-.5c.8-.6 2 0 2.2-1 .1-.9-.8-3.3-1.7-4.7z"/>
  <path d="M1472 471c4.4.5 7 3.9 9.3 6.3 0 0-7.2-4-9.5-3.9.2-.6 0-1.3.2-2.3zm-1-.1c-3.9.4-11.3 3.4-11.7 6.3 0 0 9.1-4.9 11.2-4.1 0-.6.4-1.1.5-2.2z" fill="#521"/>
  <path d="M1473.9 487a136 136 0 0 1-16.6 34l-4.3-.1a153.3 153.3 0 0 0 17.4-35.5s2.4.7 3.5 1.6z" fill="#ee0"/>
  <path d="m1476.9 483 .3 11.7-10.7-6.5v1.7l-4.3.3.1-2.2-14 6.2 1.5-13.8 12.3 6.2.3-2 4.3-.4v2.3z" fill="url(#G93)"/>
  <path d="m1477.1 436.8.6 3a86 86 0 0 1-30.8 1l.4-2.8c9.8 1 22.4 1 29.8-1.2z" fill="#ee0"/>
  <path d="m1463.1 438.6c-32.8 4.4-27-15.4-1.8-8.7 24.3-8.6 30.2 11.3 1.8 8.7z" fill="url(#G87)"/>
  <path d="m1458 429a4.3 1.9 0 1 0 8.6 0 4.3 1.9 0 1 0-8.6 0z" fill="#ee0"/>
  <path d="M1462.3 427c2 0 3.6.8 4 1.7 14.8-3.2 20.2 5.1 11 8.6l.4 2.4c3.5 3.2 5 7.2 6.6 10-.9.3-2.5.5-4.1.8a27.8 27.8 0 0 1-1.6 24 61.2 61.2 0 0 1 2.7 2.8s-1.7-.9-3.4-1.8a18.4 18.4 0 0 1-14.7 9l3.5-.3v.9h.1c1 0 2 0 3.1.3l7-2.4.2 6.3a14.5 14.5 0 0 1 4.3 10.4v17.2a57.4 57.4 0 0 1-24 4h-4.3l.1-.3-1.6-.2v.3l-4-.5c-4.8-.7-9.3-1.7-12.9-3.3v-17.2c0-8.1 6.5-14.6 14.6-14.6l.5-4.7 9.3 4.7h3.2l.1-.6h.3c-9.2 0-16.7-7.8-18.8-18.2-3.5.2-6.1-.8-9.7-2 6.3-2 5.4-15.3 12.9-23.4h-.1l.3-2.4c-12.6-2.7-6.4-12.5 11.2-9-.1-.3-.5-.4-.5-.5 0-1 2-2 4.3-2z" fill="url(#G25)"/>
  <use transform="translate(-139)" xlink:href="#u3798"/>
  <use transform="translate(-139)" xlink:href="#u3800"/>
  <use transform="translate(0 428)" fill="red" stroke="red" xlink:href="#J"/>
  <use transform="rotate(180 1458 257)" fill="red" stroke="red" xlink:href="#J"/>
 </g>
 <g id="heart_queen">
  <use transform="translate(1529 378)" xlink:href="#cb"/>
  <use transform="matrix(1.12 0 0 1.12 -194.7 591.3)" xlink:href="#silq"/>
  <path d="m1584.8 461.6c0 12.8 8.5 23.2 18.9 23.2s19-10.4 19-23.2-8.6-23.1-19-23.1-18.9 10.3-18.9 23.1z" fill="#e97"/>
  <path d="M1607.1 486c7.9 0 14.3 6.4 14.3 14.3v3.6c1.3 2 2.5 4 2.3 5.6-.2 1.1-1.2 2-2.4 2.9v4.6a66.6 66.6 0 0 1-45.5 0v-16.7c0-7.9 6.4-14.2 14.3-14.2z" fill="url(#G42)"/>
  <path d="M1625.6 451.2s-4.4-15.8-23-16.1c-18.5-.3-23.4 15.5-21.3 33.4 1.9 9.5-13.4 14.3-13.4 14.3a51.5 51.5 0 0 0 26.6.6c-7-5.3-1.2-30.6 2.6-34 4.8 3.9 23.6 3.5 28.5 1.8z"/>
  <g transform="matrix(-.1624 0 0 .1624 1660.7 422)">
   <path transform="translate(-4 -6)" d="m353 245.9c0 11.8-9.4 21.5-21 21.5s-21-9.7-21-21.5 9.4-21.5 21-21.5 21 9.6 21 21.5z" fill="#fff"/>
   <path transform="matrix(.57143 0 0 .83721 129.3 34.5)" d="m353 245.9c0 11.8-9.4 21.5-21 21.5s-21-9.7-21-21.5 9.4-21.5 21-21.5 21 9.6 21 21.5z" fill="#0c0"/>
   <path transform="matrix(.35714 0 0 .67442 196 76)" d="m353 245.9c0 11.8-9.4 21.5-21 21.5s-21-9.7-21-21.5 9.4-21.5 21-21.5 21 9.6 21 21.5z"/>
  </g>
  <g transform="matrix(-.1344 0 0 .109 1694.6 413.5)">
   <path d="m618 99.4 10-85 38 115s34-123 34-119 23 91 23 91l-18 70h-77z" fill="url(#G26)"/>
   <path d="m589 51.4 36 179c27 10.6 60 9.3 84 1l25-178-44 89-23-119-23 118z" fill="#ee0"/>
  </g>
  <g transform="matrix(-.1624 0 0 .1624 1672 421.5)">
   <path transform="translate(-4 -6)" d="m353 245.9c0 11.8-9.4 21.5-21 21.5s-21-9.7-21-21.5 9.4-21.5 21-21.5 21 9.6 21 21.5z" fill="#fff"/>
   <path transform="matrix(.57143 0 0 .83721 129.3 34.5)" d="m353 245.9c0 11.8-9.4 21.5-21 21.5s-21-9.7-21-21.5 9.4-21.5 21-21.5 21 9.6 21 21.5z" fill="#0c0"/>
   <path transform="matrix(.35714 0 0 .67442 196 76)" d="m353 245.9c0 11.8-9.4 21.5-21 21.5s-21-9.7-21-21.5 9.4-21.5 21-21.5 21 9.6 21 21.5z"/>
  </g>
  <path d="M1616.6 475.1c-4 5-7.8 3.3-13.1 0 4.8-.3 8-1.7 13.1 0z" fill="#f55"/>
  <path d="M1591.3 503.9h-1.4l-1.6 16.3 4 .3zm18.6 6 1 .7c-2.3 3.3-4.3 6.3-6.6 6.8s-5.3-1.8-7.6-2.8l.5-1c2.2 1 4.3 1.6 6.4 1.2s4.1-1.7 6.3-4.9z" fill="#060"/>
  <path d="M1614.8 463.4c.9 1.5 2 2.8 1.8 3.9s-1.6 1.9-2.5 2.5l-.4-.5a3.3 3.3 0 0 0 1.4-2.2c.2-.9 0-2-.9-3.4z"/>
  <path d="M1609.4 486.7s7 13.2 5.5 22.8c-6.1-11-14.2-21.5-18.7-23.5 1.6-.6 11.6-.3 13.2.7z" fill="#e97"/>
  <path d="M1623.8 509.4c-.3 1.8-2.7 3.2-4.3 4.2l-.3-.3c1.3-1 2-1 2.2-2.6s2.7-3.2 2.4-1.3z" fill="#060"/>
  <path d="M1600.7 414.6c0-.3 1.5 4.2 2.9 8l1.5-6.6 1.8 7.5 3.5-8.5 1.3 9.2 4-5.1-4.5 17.6a23.8 23.8 0 0 1 14.4 14.5c-1 .4-2.8.6-4.7.8a27.4 27.4 0 0 1 1.7 9.7c0 12.7-8.5 23-18.9 23-4.3 0-8.2-1.8-11.4-4.8a7.3 7.3 0 0 0 2.2 3.5 51.5 51.5 0 0 1-26.6-.6s15.3-4.8 13.4-14.3c-2-16.6 2.3-31.3 17.6-33l-2.8-16.2 2.1 3.3a115 115 0 0 0 2.5-8zm6.4 71.5c7.9 0 14.3 6.3 14.3 14.2v3.6c1.3 2 2.6 4 2.3 5.6-.2 1.1-1.2 2-2.4 2.9v4.7a61.2 61.2 0 0 1-29 3.4c-1.4 0-2.7 0-4-.3-4.5-.6-9-1.6-12.4-3.1v-16.8c0-7.9 6.3-14.2 14.2-14.2z" fill="url(#G2)"/>
  <use id="u3798" transform="translate(-139)" xlink:href="#u4930"/>
  <use id="u3800" transform="translate(-139)" xlink:href="#u4932"/>
  <use transform="translate(0 428)" fill="red" stroke="red" xlink:href="#Q"/>
  <use transform="rotate(180 1597 257)" fill="red" stroke="red" xlink:href="#Q"/>
 </g>
 <g id="heart_king">
  <use transform="translate(1668 378)" xlink:href="#cb"/>
  <use transform="matrix(1.15 0 0 1.15 -260.5 593.9)" xlink:href="#silk"/>
  <path d="m1718.2 462.8c0 13.1 8.7 23.7 19.4 23.7s19.4-10.6 19.4-23.7-8.7-23.8-19.4-23.8-19.4 10.7-19.4 23.8z" fill="#eca"/>
  <path d="m1756.6 492.8 2.4-1.6-7.9-6.4-1.7 3.7s6.8 4.6 7.2 4.3z" fill="#ee0"/>
  <path d="m1744.6 485.6a14.6 14.6 0 0 1 14.6 14.6v17.2a68.3 68.3 0 0 1-46.7 0v-17.2a14.6 14.6 0 0 1 14.7-14.6z" fill="url(#G958)"/>
  <path d="M1760.1 452s-2-16.5-23.7-16.5c-23 1-23 30.5-23 30.5 5.6 1.8 4 3.7 12.3.8-.9-6.5.6-11.3 4.6-14.7 4.9 2.6 24.8 1.7 29.8 0z" fill="#811"/>
  <path d="m1738.2 463c0 1.3 1.6 2.4 3.5 2.4s3.5-1 3.5-2.4-1.6-2.4-3.5-2.4-3.5 1-3.5 2.4z" fill="#fff"/>
  <path d="M1741.2 463c0 1.2.9 2 2 2s2-.8 2-2-.9-2-2-2-2 1-2 2z" fill="#23d"/>
  <path d="m1742.7 463.2c0 1 0.6 1.7 1.3 1.7s1.2-0.8 1.2-1.7-0.6-1.6-1.3-1.6-1.2 0.7-1.2 1.6z"/>
  <path d="m1749.8 462.6c0 1.3 1.6 2.4 3.5 2.4s3.5-1 3.5-2.4-1.6-2.4-3.5-2.4-3.5 1-3.5 2.4z" fill="#fff"/>
  <path d="M1752.8 462.7c0 1 .9 2 2 2s2-1 2-2-.9-2-2-2-2 .8-2 2z" fill="#23d"/>
  <path d="m1754.3 462.8c0 1 0.6 1.7 1.3 1.7s1.2-0.8 1.2-1.7-0.6-1.6-1.3-1.6-1.2 0.7-1.2 1.6z"/>
  <path d="M1750.9 478.2c-3.4.1-8.4.4-13.5 0 5.4-2 9.1-2.6 13.5 0z" fill="#f55"/>
  <path d="m1728.4 503.8-1.4.2-1.6 16.6 4 .3z" fill="#060"/>
  <path d="M1749 464.6c1 1.5 2.2 4 2 5s-1.9 1-2.8 1.5l-.3-.5c.8-.6 2 0 2.2-1 .1-.8-.8-3.3-1.7-4.7z"/>
  <path d="M1747 479c-1.3 2.8.8 2.8 1.7 3.2a10.7 10.7 0 0 0 2.7-3.2c.1 6.1-2 9.4-3.6 11.1-1.5 1.7-10.6 3-15.6 0s-15.2-13-9.6-21.3c.8.6 2.2.5 3.2.3-.2 1.8 2.3 7 6.8 9s7.7 2.5 9 4.3c2.2 0 3.5-1 2.5-3.3.5.2 2.3 0 2.9 0zm-1-6s8.1 2 8.6 3.5c.5 1.4-1.2 3.1-1.2 3.1s-5.4-4.4-7.6-4.4c.1-.5-.1-1.2.1-2.3z" fill="#811"/>
  <path d="M1745.3 473s-8.5 0-9.4 1.3.2 3.4.2 3.4 6.6-3.3 8.7-2.6c0-.6.4-1.1.5-2.2z" fill="#811"/>
  <path d="m1758.2 432-3-7.5-5.8 8-4.1-10-5.2 9.8s-3.6-10.2-3.6-9.4-3.8 10.6-3.8 10.6l-4.3-9.5-2.8 9.4-5-8.1-1.4 7.2v5.7s31.6 1.5 34.5 0 4.6-6 4.5-6.2z" fill="url(#G938)"/>
  <path d="m1757.4 445.3a87.7 87.7 0 0 1-38.1 0l-2.8-19 5.3 7.5 3.3-8.5 4 8.3 4.2-9.5 3.8 9.4 4.2-9.2 3.8 10 5.6-8.7 4.2 9 6.4-7.9s-3.6 18.2-3.9 18.6z" fill="url(#G935)"/>
  <path d="m1722.4 485 3.4 2.8-10.8 8-3-3z" fill="#ee0"/>
  <path d="m1738.6 504.7 8-9.1h-20z" fill="#f80"/>
  <path d="m1741.2 498 3.2 3.9-4.6 3.2 5 3.5-3.3 3.2-3.4-5.6-3.4 5.5-3.5-3.8 5.8-2.9-5.5-3.6 3.6-3.2 3 5.7z" fill="#ee0"/>
  <path d="m1745.7 423.1 3 7.1 2.4-3.9 1.4 3.2 3.2-4.3 2.5 6.5 3.5-4.3s-3.6 18.2-3.9 18.6a19.3 19.3 0 0 1 2.7 6.8c-1 .4-3 .6-4.8 1a27.9 27.9 0 0 1 1.7 9.7c0 4.8-1.2 9.3-3.2 13l.8.7c.5 1.4-1.2 3.1-1.2 3.1l-1.4-1-.7 1c0 3-.6 5.3-1.3 7l.3.1.8-1.8 7.8 6.3-2.1 1.5a14.3 14.3 0 0 1 2.4 7.5v17.2a62.7 62.7 0 0 1-30 3.5l-3.9-.2a51 51 0 0 1-12.8-3.3v-17.2c0-2 .4-4 1.2-5.7l-1.7-1.6 10.3-7.8 1.2 1a13.7 13.7 0 0 1 3.4-.5c-2.8-3-5.4-6.6-5.8-10.5a26.6 26.6 0 0 1-2.4-7c-1.4-.2-2.4-1.2-5.3-2.1 0 0 0-11.8 5.9-20.7l-2.7-19 3 4.4 1-5.4 2.8 4.5 1.7-4.5 1.8 3.8 1.5-5 2.6 5.5 2.3-5.5 1.5 3.7c.9-2.4 1.8-4.5 1.8-5 0-.4 1.4 3.6 2.5 6.5l2.3-5 1.2 3.3z" fill="url(#G925)"/>
  <use id="u4930" transform="translate(1112)" xlink:href="#u3334"/>
  <use id="u4932" transform="translate(973)" xlink:href="#u3865"/>
  <use transform="translate(0 428)" fill="red" stroke="red" xlink:href="#K"/>
  <use transform="rotate(180 1736 257)" fill="red" stroke="red" xlink:href="#K"/>
 </g>
 <g id="spade_1">
  <use transform="translate(0 567)" xlink:href="#cb"/>
  <path id="path395" d="M20.3 614.7c-5 7.8-20.2 21.4-10.5 25.2 5.7 2.2 8.6-2 9.8-4.5h.2l-3.9 13 9-.1s-3.9-12.5-3.9-13h.1c1 2.2 4.5 6.5 8.5 4.9 11.5-4.7-5.4-17.9-9.3-25.5z" stroke="#000"/>
  <use transform="rotate(180 68.5 660.2)" xlink:href="#path395"/>
  <use transform="matrix(2.16 0 0 2.16 25.5 -702.3)" xlink:href="#path395"/>
  <use transform="translate(0 617)" stroke="#000" xlink:href="#A"/>
  <use transform="rotate(180 68 351.6)" stroke="#000" xlink:href="#A"/>
 </g>
 <g id="spade_2">
  <use transform="translate(139 567)" xlink:href="#cb"/>
  <use id="u1912" transform="translate(139)" xlink:href="#path395"/>
  <use transform="rotate(180 207.5 660.2)" xlink:href="#u1912"/>
  <use id="u1916" transform="matrix(.718 0 0 .725 93.2 150.4)" xlink:href="#u1912"/>
  <use transform="rotate(180 207.3 657.3)" xlink:href="#u1916"/>
  <use transform="translate(0 617)" stroke="#000" xlink:href="#2"/>
  <use transform="rotate(180 207 351.6)" stroke="#000" xlink:href="#2"/>
 </g>
 <g id="spade_3">
  <use transform="translate(278 567)" xlink:href="#cb"/>
  <use id="u2362" transform="translate(139)" xlink:href="#u1912"/>
  <use id="u2364" transform="rotate(180 346.5 660.2)" xlink:href="#u2362"/>
  <use id="u2366" transform="translate(139)" xlink:href="#u1916"/>
  <use id="u2368" transform="translate(0 51)" xlink:href="#u2366"/>
  <use id="u2370" transform="rotate(180 346.3 684.8)" xlink:href="#u2368"/>
  <use transform="translate(0 617)" stroke="#000" xlink:href="#3"/>
  <use transform="rotate(180 346 351.6)" stroke="#000" xlink:href="#3"/>
 </g>
 <g id="spade_4">
  <use transform="translate(417 567)" xlink:href="#cb"/>
  <use id="u2835" transform="translate(139)" xlink:href="#u2362"/>
  <use id="u2837" transform="translate(139)" xlink:href="#u2364"/>
  <use id="u2839" transform="translate(120.7)" xlink:href="#u2366"/>
  <use transform="translate(36.7)" xlink:href="#u2839"/>
  <use id="u2843" transform="translate(120.7)" xlink:href="#u2370"/>
  <use transform="translate(36.7)" xlink:href="#u2843"/>
  <use transform="translate(0 617)" stroke="#000" xlink:href="#4"/>
  <use transform="rotate(180 485 351.6)" stroke="#000" xlink:href="#4"/>
 </g>
 <g id="spade_5">
  <use transform="translate(556 567)" xlink:href="#cb"/>
  <use id="u3354" transform="translate(139)" xlink:href="#u2835"/>
  <use id="u3356" transform="translate(139)" xlink:href="#u2837"/>
  <use id="u3358" transform="translate(139)" xlink:href="#u2839"/>
  <use transform="translate(36.7)" xlink:href="#u3358"/>
  <use transform="translate(18.4 51)" xlink:href="#u3358"/>
  <use id="u3364" transform="translate(139)" xlink:href="#u2843"/>
  <use id="u3366" transform="translate(36.7)" xlink:href="#u3364"/>
  <use transform="translate(0 617)" stroke="#000" xlink:href="#5"/>
  <use transform="rotate(180 624 351.6)" stroke="#000" xlink:href="#5"/>
 </g>
 <g id="spade_6">
  <use transform="translate(695 567)" xlink:href="#cb"/>
  <use id="u3881" transform="translate(139)" xlink:href="#u3354"/>
  <use id="u3885" transform="translate(139)" xlink:href="#u3358"/>
  <use transform="translate(0 51)" xlink:href="#u3885"/>
  <use id="u3891" transform="translate(102.3)" xlink:href="#u3366"/>
  <use id="u3883" transform="translate(139)" xlink:href="#u3356"/>
  <use transform="translate(36.7)" xlink:href="#u3885"/>
  <use id="u3893" transform="translate(36.7)" xlink:href="#u3891"/>
  <use transform="translate(0 -51)" xlink:href="#u3893"/>
  <use transform="translate(0 617)" stroke="#000" xlink:href="#6"/>
  <use transform="rotate(180 763 351.6)" stroke="#000" xlink:href="#6"/>
 </g>
 <g id="spade_7">
  <use transform="translate(834 567)" xlink:href="#cb"/>
  <use id="u6680" transform="translate(139)" xlink:href="#u3881"/>
  <use id="u6684" transform="translate(139)" xlink:href="#u3885"/>
  <use id="u6692" transform="translate(139)" xlink:href="#u3891"/>
  <use id="u6688" transform="translate(18.2 21.5)" xlink:href="#u6684"/>
  <use transform="translate(0 29.5)" xlink:href="#u6688"/>
  <use id="u6694" transform="translate(18.5 -21.5)" xlink:href="#u6692"/>
  <use id="u6682" transform="translate(139)" xlink:href="#u3883"/>
  <use transform="translate(36.7)" xlink:href="#u6684"/>
  <use id="u6696" transform="translate(18.2 21.5)" xlink:href="#u6694"/>
  <use transform="translate(0 617)" stroke="#000" xlink:href="#7"/>
  <use transform="rotate(180 902 351.6)" stroke="#000" xlink:href="#7"/>
 </g>
 <g id="spade_8">
  <use transform="translate(973 567)" xlink:href="#cb"/>
  <use id="u2436" transform="translate(139)" xlink:href="#u6680"/>
  <use id="u2440" transform="translate(139)" xlink:href="#u6682"/>
  <use id="u2448" transform="translate(139)" xlink:href="#u6684"/>
  <use id="u2476" transform="translate(102.3 -34.2)" xlink:href="#u6696"/>
  <use id="u2450" transform="translate(36.7)" xlink:href="#u2448"/>
  <use id="u2478" transform="translate(36.7)" xlink:href="#u2476"/>
  <use id="u2452" transform="translate(-36.7 34.2)" xlink:href="#u2450"/>
  <use id="u2454" transform="translate(36.7)" xlink:href="#u2452"/>
  <use id="u2480" transform="translate(-36.7 34.2)" xlink:href="#u2478"/>
  <use id="u2482" transform="translate(36.7)" xlink:href="#u2480"/>
  <use transform="translate(0 617)" stroke="#000" xlink:href="#8"/>
  <use transform="rotate(180 1041 351.6)" stroke="#000" xlink:href="#8"/>
 </g>
 <g id="spade_9">
  <use transform="translate(1112 567)" xlink:href="#cb"/>
  <use id="u2438" transform="translate(139)" xlink:href="#u2436"/>
  <use id="u2442" transform="translate(139)" xlink:href="#u2440"/>
  <use id="u2456" transform="translate(102.3 -34.2)" xlink:href="#u2454"/>
  <use id="u2458" transform="translate(36.7)" xlink:href="#u2456"/>
  <use id="u2460" transform="translate(-36.7 34.2)" xlink:href="#u2458"/>
  <use id="u2462" transform="translate(36.7)" xlink:href="#u2460"/>
  <use id="u2464" transform="translate(-18.5 16.9)" xlink:href="#u2462"/>
  <use id="u2484" transform="translate(102.3 -34.2)" xlink:href="#u2482"/>
  <use id="u2486" transform="translate(36.7)" xlink:href="#u2484"/>
  <use id="u2488" transform="translate(-36.7 34.2)" xlink:href="#u2486"/>
  <use id="u2490" transform="translate(36.7)" xlink:href="#u2488"/>
  <use transform="translate(0 617)" stroke="#000" xlink:href="#9"/>
  <use transform="rotate(180 1180 351.6)" stroke="#000" xlink:href="#9"/>
 </g>
 <g id="spade_10">
  <use transform="translate(1251 567)" xlink:href="#cb"/>
  <use transform="translate(139)" xlink:href="#u2438"/>
  <use transform="translate(139)" xlink:href="#u2442"/>
  <use id="u2466" transform="translate(120.8 -51)" xlink:href="#u2464"/>
  <use id="u2468" transform="translate(36.7)" xlink:href="#u2466"/>
  <use id="u2470" transform="translate(-18.5 17)" xlink:href="#u2468"/>
  <use id="u2472" transform="translate(-18.2 17)" xlink:href="#u2470"/>
  <use transform="translate(36.7)" xlink:href="#u2472"/>
  <use id="u2492" transform="translate(102.3 -34.2)" xlink:href="#u2490"/>
  <use id="u2494" transform="translate(36.7)" xlink:href="#u2492"/>
  <use id="u2496" transform="translate(-18.2 17)" xlink:href="#u2494"/>
  <use id="u2498" transform="translate(-18.5 17)" xlink:href="#u2496"/>
  <use transform="translate(36.7)" xlink:href="#u2498"/>
  <use transform="translate(0 617)" stroke="#000" xlink:href="#10"/>
  <use transform="rotate(180 1319 351.6)" stroke="#000" xlink:href="#10"/>
 </g>
 <g id="spade_jack">
  <use transform="translate(1390 567)" xlink:href="#cb"/>
  <use transform="matrix(-1.15 0 0 1.15 3136.6 782.6)" xlink:href="#silj"/>
  <path d="m1474.2 649.8c0 13.1-8.7 23.8-19.4 23.8s-19.4-10.7-19.4-23.8 8.7-23.8 19.4-23.8 19.4 10.7 19.4 23.8z" fill="#953"/>
  <path d="M1450.8 674.1a14.6 14.6 0 0 0-14.6 14.7V706c10.8 5.3 34 5.6 46.7 0v-17.2a14.6 14.6 0 0 0-14.7-14.6z" fill="url(#G238)"/>
  <path d="M1433.3 638.7c3-5.2 5.8-15.1 22-15 25.1.7 19.1 26.9 28.1 29.7-5.6 1.8-8.4 3.4-16.7.5.9-6.6-.6-11.4-4.5-14.7-5 2.5-23.9 1.3-28.9-.5z"/>
  <path d="m1454.2 650c0 1.4-1.6 2.5-3.5 2.5s-3.5-1.1-3.5-2.5 1.6-2.4 3.5-2.4 3.5 1.1 3.5 2.4z" fill="#fff"/>
  <path d="M1451.2 650.1c0 1.1-.9 2-2 2s-2-.9-2-2 .9-2 2-2 2 .9 2 2z" fill="#b77"/>
  <path d="M1449.7 650.3c0 .9-.6 1.6-1.3 1.6s-1.2-.7-1.2-1.6c0-1 .6-1.7 1.3-1.7s1.2.8 1.2 1.7z"/>
  <path d="m1442.6 649.6c0 1.4-1.6 2.5-3.5 2.5s-3.5-1.1-3.5-2.5 1.6-2.4 3.5-2.4 3.5 1.1 3.5 2.4z" fill="#fff"/>
  <path d="M1439.6 649.7c0 1.1-.9 2-2 2s-2-.9-2-2 .9-2 2-2 2 .9 2 2z" fill="#b77"/>
  <path d="M1438.1 649.9c0 .9-.6 1.6-1.3 1.6s-1.2-.7-1.2-1.6c0-1 .6-1.6 1.3-1.6s1.2.7 1.2 1.6z"/>
  <path d="M1441.5 665.2c2.1 4.2 8 2.2 13.5 0-6.1.6-10.4 1.1-13.5 0z" fill="#f55"/>
  <path d="m1467 692.4 1.4.1 1.6 16.7-4 .6 1-17.4z" fill="#700"/>
  <path d="M1444.1 651.3c-1 1.5-2.2 4-2 5s1.9 1 2.8 1.6l.3-.6c-.8-.5-2 0-2.2-.9-.1-1 .8-3.3 1.7-4.7zm1.5 8.8c-4.4.5-7 3.8-9.3 6.3 0 0 7.2-4 9.4-4-.1-.5.1-1.2-.1-2.3zm1-.1c3.9.4 11.3 3.4 11.7 6.2 0 0-9.1-4.8-11.2-4 0-.6-.4-1.2-.5-2.2z"/>
  <path d="M1443.6 676a136 136 0 0 0 16.6 34h4.3a153.3 153.3 0 0 1-17.4-35.5s-2.4.7-3.5 1.6z" fill="#ee0"/>
  <path d="m1440.7 672-.3 11.8 10.7-6.5v1.6l4.3.4-.1-2.2 14 6.2-1.5-13.9-12.3 6.3-.3-2-4.3-.4v2.2z" fill="url(#G244)"/>
  <path d="m1440.4 625.9-.6 3a86 86 0 0 0 30.8 1l-.4-2.9c-9.8 1-22.4 1-29.8-1.1z" fill="#ee0"/>
  <path d="m1454.5 627.7c32.8 4.4 27-15.4 1.8-8.8-24.3-8.5-30.2 11.3-1.8 8.8z" fill="url(#G248)"/>
  <path d="m1459.6 618a4.3 1.9 0 1 1-8.6 0 4.3 1.9 0 1 1 8.6 0z" fill="#ee0"/>
  <path d="M1455.3 616.1c-2 0-3.6.7-4 1.6-14.8-3.1-20.2 5.2-11 8.7l-.4 2.4c-3.5 3.2-5 7.2-6.6 10 .9.3 2.5.5 4.1.8a27.8 27.8 0 0 0 1.6 24 61.2 61.2 0 0 0-2.7 2.8s1.7-1 3.4-1.8c3.5 5.3 8.8 8.8 14.7 9l-3.5-.3v.8h-.1c-1 0-2 .2-3 .4l-7.1-2.5-.2 6.4a14.5 14.5 0 0 0-4.3 10.4V706a57.4 57.4 0 0 0 24 4h4.3l-.1-.3 1.7-.2v.3l4-.5c4.7-.7 9.2-1.8 12.8-3.3v-17.2c0-8.1-6.5-14.6-14.6-14.7l-.5-4.7-9.3 4.7h-3.2l-.1-.5h-.3c9.2 0 16.7-7.8 18.8-18.2 3.5.1 6.1-.8 9.7-2-6.3-2-5.4-15.3-12.9-23.4h.1l-.3-2.4c12.6-2.8 6.4-12.5-11.2-9.1l.5-.4c0-1.1-2-2-4.3-2z" fill="url(#G252)"/>
  <use transform="translate(-139)" xlink:href="#u3780"/>
  <use transform="translate(-139)" xlink:href="#u3778"/>
  <use transform="translate(0 617)" stroke="#000" xlink:href="#J"/>
  <use transform="rotate(180 1458 351.6)" stroke="#000" xlink:href="#J"/>
 </g>
 <g id="spade_queen">
  <use transform="translate(1529 567)" xlink:href="#cb"/>
  <use transform="matrix(-1.12 0 0 1.12 3390 780.3)" xlink:href="#silq"/>
  <path d="m1610.5 650.6c0 12.8-8.5 23.2-18.9 23.2s-19-10.4-19-23.2 8.6-23.1 19-23.1 18.9 10.3 18.9 23.1z" fill="#fdc"/>
  <path d="M1588.2 675a14.2 14.2 0 0 0-14.3 14.3v3.6c-1.3 2-2.6 4-2.3 5.6.2 1.1 1.2 2 2.4 2.9v4.6c10.5 5.2 33 5.5 45.5 0v-16.7c0-7.9-6.4-14.2-14.3-14.2z" fill="url(#G63)"/>
  <path d="M1569.7 640.2s4.4-15.8 23-16.1c18.5-.3 23.4 15.5 21.3 33.4-1.9 9.5 13.4 14.3 13.4 14.3a51.5 51.5 0 0 1-26.6.6c7-5.3 1.2-30.6-2.6-34-4.8 3.9-23.6 3.5-28.5 1.8z" fill="#fb2"/>
  <path d="m1591.2 650c0 1.9-1.5 3.4-3.4 3.4s-3.4-1.5-3.4-3.5 1.5-3.4 3.4-3.4 3.4 1.5 3.4 3.4z" fill="#fff"/>
  <path d="M1588.3 650c0 1.6-.9 3-2 3s-1.9-1.4-1.9-3 .9-2.9 2-2.9 1.9 1.3 1.9 3z" fill="#23d"/>
  <path d="M1586.8 650.3c0 1.3-.6 2.3-1.2 2.3s-1.2-1-1.2-2.3.5-2.4 1.2-2.4 1.2 1 1.2 2.4z"/>
  <path d="m1583.6 613.3 1.3-9.3 5.1 12.5s4.6-13.3 4.6-13c0 .5 3 10 3 10l-2.3 7.6h-10.4z" fill="url(#G7944)"/>
  <path d="m1579.7 608 4.8 19.5a21.1 21.1 0 0 0 11.3.1l3.4-19.3-6 9.6-3-12.9-3.1 12.8z" fill="#ee0"/>
  <path d="m1579.9 649.4c0 2-1.5 3.5-3.4 3.5s-3.4-1.6-3.4-3.5 1.5-3.5 3.4-3.5 3.4 1.6 3.4 3.5z" fill="#fff"/>
  <path d="M1577 649.5c0 1.6-.9 2.9-2 2.9s-1.9-1.3-1.9-3 .9-2.8 2-2.8 1.9 1.3 1.9 2.9z" fill="#23d"/>
  <path d="M1575.5 649.7c0 1.3-.6 2.4-1.2 2.4s-1.2-1-1.2-2.4.5-2.3 1.2-2.3 1.2 1 1.2 2.3z"/>
  <path d="M1578.6 664.1c4 5 7.8 3.3 13.1 0-4.8-.3-8-1.7-13.1 0z" fill="#f55"/>
  <path d="M1604 692.9h1.4l1.6 16.3-4 .3zm-18.6 6-1 .7c2.3 3.3 4.3 6.3 6.6 6.8s5.3-1.8 7.6-2.8l-.5-1c-2.2 1-4.3 1.6-6.4 1.2s-4.1-1.7-6.3-4.9z" fill="#700"/>
  <path d="M1580.5 652.4c-.9 1.4-2 2.8-1.8 3.9s1.6 1.9 2.5 2.5l.4-.5a3.3 3.3 0 0 1-1.4-2.2c-.2-.9 0-2 .9-3.4z"/>
  <path d="M1585.9 675.7s-7 13.2-5.5 22.8c6.1-11 14.2-21.5 18.7-23.5-1.6-.6-11.6-.3-13.2.7z" fill="#fdc"/>
  <path d="M1571.5 698.4c.3 1.8 2.7 3.2 4.3 4.2l.3-.3c-1.3-1-2-1-2.2-2.6s-2.7-3.2-2.4-1.3z" fill="#700"/>
  <path d="M1594.6 603.6c0-.3-1.5 4.2-2.9 8l-1.5-6.6-1.8 7.5-3.5-8.5-1.3 9.2-4-5.2 4.5 17.7a23.8 23.8 0 0 0-14.4 14.5c1 .4 2.8.6 4.7.8a27.4 27.4 0 0 0-1.7 9.6c0 12.8 8.5 23.2 18.9 23.2 4.3 0 8.2-1.9 11.4-4.9a7.3 7.3 0 0 1-2.2 3.5 51.5 51.5 0 0 0 26.6-.6s-15.3-4.8-13.4-14.3c2-16.6-2.3-31.3-17.6-33l2.8-16.2-2.1 3.3a115 115 0 0 1-2.5-8zm-6.4 71.5a14.2 14.2 0 0 0-14.3 14.2v3.6c-1.3 2-2.6 4-2.3 5.6.2 1.1 1.2 2 2.4 2.9v4.6a61.2 61.2 0 0 0 29 3.5c1.4-.1 2.7-.1 4-.3 4.5-.6 9-1.6 12.4-3.2v-16.7c0-7.9-6.3-14.2-14.2-14.2z" fill="url(#G73)"/>
  <use id="u3780" transform="translate(-139)" xlink:href="#u4936"/>
  <use id="u3778" transform="translate(-139)" xlink:href="#u4934"/>
  <use transform="translate(0 617)" stroke="#000" xlink:href="#Q"/>
  <use transform="rotate(180 1597 351.6)" stroke="#000" xlink:href="#Q"/>
 </g>
 <g id="spade_king">
  <use transform="translate(1668 567)" xlink:href="#cb"/>
  <use transform="matrix(-1.15 0 0 1.15 3734.4 782.9)" xlink:href="#silk"/>
  <path d="M1755.9 652.1c0 13.1-8.7 23.8-19.4 23.8S1717 665.2 1717 652s8.7-23.8 19.4-23.8 19.4 10.7 19.4 23.8z" fill="#e97"/>
  <path d="m1717.5 682.2-2.4-1.6 7.9-6.4 1.7 3.7s-6.8 4.6-7.2 4.3z" fill="#ee0"/>
  <path d="M1729.6 675a14.6 14.6 0 0 0-14.6 14.5v17.2a68 68 0 0 0 46.7 0v-17.2A14.6 14.6 0 0 0 1747 675z" fill="url(#G30)"/>
  <path d="M1714 641.4s2-16.5 23.7-16.5c23 .9 23 30.4 23 30.4-5.6 1.8-4 3.8-12.3.9.9-6.6-.6-11.4-4.6-14.7-4.9 2.5-24.8 1.7-29.8 0z" fill="#521"/>
  <path d="m1735.9 652.4c0 1.3-1.6 2.4-3.5 2.4s-3.5-1.1-3.5-2.4c0-1.4 1.6-2.5 3.5-2.5s3.5 1.1 3.5 2.5z" fill="#fff"/>
  <path d="M1732.9 652.4c0 1.1-.9 2-2 2s-2-.9-2-2 .9-2 2-2 2 .9 2 2z" fill="#1c1"/>
  <path d="M1731.4 652.6c0 .9-.6 1.6-1.3 1.6s-1.2-.7-1.2-1.6c0-1 .6-1.7 1.3-1.7s1.2.8 1.2 1.7z"/>
  <path d="m1724.3 652c0 1.3-1.6 2.4-3.5 2.4s-3.5-1.1-3.5-2.4 1.6-2.5 3.5-2.5 3.5 1.1 3.5 2.5z" fill="#fff"/>
  <path d="M1721.3 652c0 1.1-.9 2-2 2s-2-.9-2-2 .9-2 2-2 2 1 2 2z" fill="#1c1"/>
  <path d="M1719.8 652.2c0 .9-.6 1.6-1.3 1.6s-1.2-.7-1.2-1.6.6-1.7 1.3-1.7 1.2.8 1.2 1.7z"/>
  <path d="M1723.2 667.5c3.4.2 8.4.4 13.5 0-5.4-2-9.1-2.6-13.5 0z" fill="#f55"/>
  <path d="m1745.8 693.2 1.4.1 1.6 16.7-4 .3z" fill="#700"/>
  <path d="M1725.1 654c-1 1.4-2.2 3.9-2 5s1.9.9 2.8 1.5l.3-.6c-.8-.5-2 0-2.2-.9-.1-.9.8-3.3 1.7-4.7zm2 14.4c1.3 2.7-.8 2.7-1.7 3.2a10.7 10.7 0 0 1-2.7-3.2c-.1 6 2 9.4 3.6 11 1.5 1.8 10.6 3 15.6 0s15.2-13 9.6-21.2c-.8.5-2.2.4-3.2.2.2 1.8-2.3 7.1-6.8 9.1s-7.7 2.4-9 4.2c-2.2 0-3.5-.9-2.5-3.3-.5.2-2.3 0-2.9 0zm1-6.1s-8 2-8.6 3.5c-.5 1.5 1.2 3.2 1.2 3.2s5.4-4.5 7.6-4.4c-.1-.6.1-1.3-.1-2.3z" fill="#521"/>
  <path d="M1728.8 662.3s8.5.1 9.4 1.4-.2 3.3-.2 3.3-6.6-3.3-8.7-2.5c0-.6-.4-1.1-.5-2.2z" fill="#521"/>
  <path d="m1715.9 621.4 3-7.6 5.8 8 4.1-10 5.2 9.8s3.6-10.2 3.6-9.4 3.8 10.6 3.8 10.6l4.3-9.4 2.8 9.3 5-8 1.4 7.1v5.8s-31.6 1.4-34.5 0-4.6-6-4.5-6.2z" fill="url(#G10)"/>
  <path d="m1716.7 634.7a87.7 87.7 0 0 0 38.1 0l2.8-19-5.3 7.5-3.3-8.6-4 8.4-4.2-9.6-3.8 9.5-4.2-9.3-3.8 10.1-5.6-8.7-4.2 9-6.4-8s3.6 18.3 3.9 18.7z" fill="url(#G07)"/>
  <path d="m1751.8 674.4-3.4 2.8 10.8 7.9 3-3z" fill="#ee0"/>
  <path d="m1735.5 694-8-9h20z" fill="#f80"/>
  <path d="m1732.9 687.3-3.2 4 4.6 3.1-5 3.5 3.3 3.3 3.4-5.7 3.4 5.6 3.5-3.8-5.8-2.9 5.5-3.7-3.6-3.2-3 5.8z" fill="#ee0"/>
  <path d="m1728.5 612.5-3 7-2.4-3.8-1.4 3.1-3.2-4.3-2.5 6.6-3.5-4.3s3.6 18.2 3.9 18.6c-2.2 3.6-2.7 6.8-2.7 6.8 1 .3 3 .6 4.8.9a28 28 0 0 0-1.7 9.7c0 4.9 1.2 9.4 3.2 13.1l-.8.6c-.5 1.5 1.2 3.2 1.2 3.2l1.4-1 .7 1c0 3 .6 5.2 1.3 7h-.3l-.8-1.8-7.8 6.4 2.1 1.5a14.3 14.3 0 0 0-2.4 7.5v17.1a62.8 62.8 0 0 0 30 3.6l3.9-.3c4.7-.7 9.2-1.7 12.9-3.3v-17.1c0-2-.5-4-1.2-5.8l1.6-1.6-10.3-7.8-1.2 1a14.8 14.8 0 0 0-3.4-.4c2.8-3 5.4-6.7 5.8-10.5a26.6 26.6 0 0 0 2.4-7c1.4-.3 2.4-1.2 5.3-2.2 0 0 0-11.8-5.9-20.7l2.7-19-3 4.4-1-5.4-2.8 4.5-1.7-4.4-1.8 3.7-1.5-5-2.6 5.5-2.3-5.4-1.5 3.7c-.9-2.4-1.8-4.6-1.8-5 0-.5-1.4 3.5-2.4 6.5l-2.3-5-1.3 3.2z" fill="url(#G997)"/>
  <use id="u4936" transform="translate(1112)" xlink:href="#u3356"/>
  <use id="u4934" transform="translate(1112)" xlink:href="#u3354"/>
  <use transform="translate(0 617)" stroke="#000" xlink:href="#K"/>
  <use transform="rotate(180 1736 351.6)" stroke="#000" xlink:href="#K"/>
 </g>
 <text x="1000" y="-70" font-size="36"><tspan x="997" y="-69" font-family="Yatra One">VDR</tspan></text>
 <path id="tJ" d="M-16.4 767.9v8.1c0 1.4-.5 3.8-3.4 3.8-.7 0-1.5-.2-2.3-.4l-.5.3a6 6 0 0 0 4.2 1.7c2.7 0 4.8-2.7 4.8-4.1v-8.7zm-1.8 15.7c-3.1 0-5.8 4.5-4.7 7.7.2.5.5 1 .9 1.4 1 1.1 3.5 2.9 5.1 2.9.6 0 1.1-.1 1.6-.3 2.6-1.1 4.2-4.7 3.2-7.3-.2-.6-.5-1-.9-1.4-1-1-2.2-1.8-3.6-2.6-.5-.3-1.1-.4-1.6-.4zm1.1 1.7c.5 0 1.1.1 1.6.5.4.3.7.6 1 1.1 1.7 3-1.5 8.6-4.8 6.6-.5-.3-.9-.7-1.1-1.2-1.4-2.6.8-6.9 3.3-7zm-5.3 12.5v11l2.3.5v-2.4l2.3-2.9 3.2 4.8 2.2.5-4.4-6.5 3.6-4.6-2.2-.5-4.7 6v-5.3zm.3 14.4v10.6l2.2.4h7.1l-1.4-1.5h-5.6v-3.4h5.6l-1.4-1.5h-4.3v-3.2h6.3l-1.2-1.4zm-.2 14.1v10.3l2.2.4v-4.3c1.3.3 2.4.2 3.4-.1.4.3.6.6.7.8.7 1.5-.3 3.2 1.2 4.4.5.4 1.2.6 2.1.4l-.6-.3c-1.1-.5-.5-2.3-.5-3.4-.1-1.5-.9-1.6-2.2-2.1.8-.5 1.3-1.1 1.7-1.8.3-.7.4-1.3.1-1.6l-2.9-2.8c-.2-.2-2.5-.7-5.2.1zm6.1 1.5c.2.2.3.4.3.8a3 3 0 0 1-2.3 3 6 6 0 0 1-2 .3v-4.3c2.5-.5 3.9.1 4 .2z" stroke-width=".7"/>
 <path id="siljok" d="M-61 799.6c-3.2.3-13.3 10.1-16.8 15-6.5.3-2.1 12 2 7 3.4-4.1 7.8-5.6 5.2 1.2-2.8 10.4-5.4 27.2 3 32.2-3.3-.2-19.6-1.1-11.5 2.6 4.4 2.7 18.4 1.5 8.9 6.7-3.8 2.7-14.4 12.3-4.6 8.3-.4 5.7-.1 12.3-.2 18.4a55 55 0 0 0 33.9 3c3.5-.8 10.3-1.5 10.7-6.4.5-6.4 1-14.5-1.6-19.8 11.3 1.5.6-3.6-4.5-6.1-7.7-2.7 5.4-6.8 7.2-11 5.3-5.6-12.6 4-9.6-.7 4.6-8.6 1-18 .7-26.9-.2-5.2-4.1-11.9 2.2-9.4-.3 7.7 10.5 2.9 5.2-1.1-2.7-2.1-7.2-10.9-13.5-8.7-5.3 1.8-4.8 6.9-7.9-.3-1.3-3.1-5.3-4.5-8.7-4zm-.1 8.9c5.9 7.6-8.7-2.2 0 0z"/>
 <g id="joker_black">
  <use transform="translate(0 756)" xlink:href="#cb"/>
  <use transform="translate(37)" stroke="#000" xlink:href="#tJ"/>
  <use transform="rotate(180 49.5 849)" stroke="#000" xlink:href="#tJ"/>
  <use transform="matrix(1.15 0 0 1.15 131 -127.1)" xlink:href="#siljok"/>
  <path d="M61.7 864.1A14.6 14.6 0 0 0 47 878.7V896a69 69 0 0 0 46.8 0v-17.2A14.6 14.6 0 0 0 79 864.1z" fill="url(#G712)"/>
  <path d="m65.4 864-7.3 11.4 5.2 8.6-6.6 10.4 2.6 4.9c3 .4 5.7.6 8.5.6L71 895l-6-11 5.5-9.7z" fill="url(#G714)"/>
  <path d="m65.4 864-3.7 12 2.1 8.2-4.5 10.5 2 4.9 4.3.3 2-4.6-3.4-11.1 2.3-8.7z" fill="#ee0"/>
  <path d="m57.2 858.2-14.9-.3 15.4 4.7L44 874.3l21.7-10L82 880.5s-9.3-15.2-8.4-14.3c.9 1 20.7 2.3 20.7 2.3l-12-6.4 11.4-10c-.6.6-21.8 6.7-21.8 6.7l-14.7-.7z" fill="url(#G718)"/>
  <path d="m87.4 838.3c0 13-8.7 23.7-19.4 23.7s-19.4-10.6-19.4-23.7 8.7-23.8 19.4-23.8 19.4 10.6 19.4 23.8z" fill="#eca"/>
  <path d="m67.4 838.5c0 1.3-1.6 2.4-3.5 2.4s-3.5-1-3.5-2.4 1.5-2.4 3.5-2.4 3.5 1 3.5 2.4z" fill="#fff"/>
  <path d="M64.4 838.5a2 2 0 0 1-4 0c0-1.2.9-2 2-2s2 1 2 2z" fill="#1c1"/>
  <path d="M62.9 838.7c0 1-.6 1.6-1.3 1.6s-1.2-.7-1.2-1.6c0-.9.6-1.6 1.2-1.6s1.3.7 1.3 1.6z"/>
  <path d="m55.8 838.1c0 1.3-1.6 2.4-3.5 2.4s-3.5-1-3.5-2.4 1.6-2.4 3.5-2.4 3.5 1 3.5 2.4z" fill="#fff"/>
  <path d="M52.8 838.1a2 2 0 0 1-4 0c0-1.2.9-2 2-2s2 1 2 2z" fill="#1c1"/>
  <path d="M51.3 838.3c0 1-.6 1.7-1.3 1.7s-1.2-.8-1.2-1.7.5-1.6 1.2-1.6 1.3.7 1.3 1.6z"/>
  <path d="M54.5 850.7c1.4 7 8.5 5 13.6-.7l-13.6.7z" fill="#f55"/>
  <path d="m78 882.5 1.5.2 1.6 16.7-4 .2z" fill="#060"/>
  <path d="M57.1 840.4c-.9 1.5-5 2.5-4.7 3.6s4 2 5 2.6l.4-.5c-.8-.6-4-1.1-4.2-2-.2-1 3.6-2.2 4.5-3.6z"/>
  <path d="M61.6 794.7c-3.3.4-6.5 3-8.3 7.8 13.8-9.6 11.2 10 11.2 10-.2 0-.6 0-.6-.2-.5-1.5-13.3-18.1-21.8 1.5 11.5-8.8 11.6-.4 10 5.8a134 134 0 0 1-1.8 8.4c12-2.6 23.5-1.2 35.4.9 0 0 0-4.8-.2-6.1.9-7.4-8.2-21.5 7.5-14.3-17-23-19.3 4.9-19.5 4h-.1c-.5-12.7-6.3-18.4-11.8-17.8z" fill="url(#G724)"/>
  <path d="M54.8 803.6a2 2 0 0 1-2.1 2 2 2 0 0 1-2.1-2c0-1.1.9-2 2-2a2 2 0 0 1 2.2 2z" fill="#ee0"/>
  <path d="M55.7 851.2c1.4 5.4 6.4 2.5 10.5-.6-5.6.2-6.3.4-10.5.6z" fill="#fff"/>
  <path d="M43.7 814.2a2 2 0 0 1-2.1 2 2 2 0 0 1-2.1-2c0-1.1 1-2 2-2a2 2 0 0 1 2.2 2zm51.8-4.4a2 2 0 0 1-2.1 2 2 2 0 0 1-2.1-2c0-1.2.9-2 2-2a2 2 0 0 1 2.2 2z" fill="#ee0"/>
  <path d="M81.3 843.3c6.7 1.4 6-10.2-.3-6h.6c4.4-2.5 5.5 6.2-1.2 6z"/>
  <path d="M81.8 842c3.9.9 3.5-5.8-.1-3.4h.2c2.5-1.4 3.3 3.6-.6 3.5z"/>
  <path d="m50.2 828.5.8-2.9c11.9-1.2 24.3-1 34.5 1a8 8 0 0 1 .3 2.4 125.1 125.1 0 0 0-35.6-.5z" fill="#ee0"/>
  <path d="M61.6 794.7c-3.1.3-6.1 2.8-8 7.2-.3-.1-.6-.3-1-.3a2 2 0 0 0-2 2c0 .4.2.7.4 1-2.8.6-5.7 2.8-8.2 8-.4-.2-.7-.4-1.2-.4a2 2 0 0 0-2.1 2 2.1 2.1 0 0 0 2.1 2 2 2 0 0 0 2-2c0-.4-.2-.8-.4-1.1 10.3-7.3 10.4.6 9 6.5a120.2 120.2 0 0 1-1.9 8.4v.6a28 28 0 0 0-1.7 9.7c0 8.3 3.6 15.7 9 19.9h-.4l-14.8-.3 15.3 4.6L44 874.3l5-2.3a14.3 14.3 0 0 0-1.8 6.8v17a36 36 0 0 0 12.2 3.3v.2l2 .1c1.8.3 3.4.4 4.3.4h2.2c3.1.2 6.2 0 9.3-.3v.1l4-.3v-.2c4.7-.6 9.1-1.6 12.7-3.2v-17.1c0-4.2-1.8-8-4.6-10.6l5.2.4-12-6.3 11.4-10.1c-.3.3-7.2 2.4-13.5 4.3a26 26 0 0 0 7.1-18.2 28 28 0 0 0-1.7-9.7v-.4l-.1-5.4c.8-7.2-7.8-20.8 6.5-14.6a2 2 0 0 0-.8 1.6c0 1 .9 2 2 2s2.2-1 2.2-2a2 2 0 0 0-2.2-2c-.3 0-.5.1-.8.3-16.4-21.9-18.8 5.3-19 4.4h-.1c-.5-12.7-6.3-18.4-11.8-17.8zm-.8 5.3c5.2 1.5 3.7 12.5 3.7 12.5-.2 0-.6 0-.6-.2-.3-.8-4.5-6.4-9.6-7.6.2-.3.4-.7.4-1.1a2 2 0 0 0-.7-1.5c3-2 5.3-2.5 6.8-2z" fill="url(#G734)"/>
 </g>
 <g id="joker_red">
  <use transform="translate(139 756)" xlink:href="#cb"/>
  <use transform="translate(176)" fill="red" stroke="red" xlink:href="#tJ"/>
  <use transform="rotate(180 119 849)" fill="red" stroke="red" xlink:href="#tJ"/>
  <use transform="matrix(1.15 0 0 1.15 270 -127.1)" xlink:href="#siljok"/>
  <path d="M200.7 864.1a14.6 14.6 0 0 0-14.6 14.6V896a68.7 68.7 0 0 0 46.7 0v-17.2a14.6 14.6 0 0 0-14.7-14.6z" fill="url(#G21)"/>
  <path d="m204.4 864-7.3 11.4 5.2 8.6-6.6 10.4 2.6 4.9c3 .4 5.7.6 8.5.6l3.2-4.8-6-11.1 5.5-9.7z" fill="#080"/>
  <path d="m204.4 864-3.7 11.9 2.1 8.2-4.5 10.5 2 4.9 4.3.3 2-4.6-3.4-11.1 2.3-8.7z" fill="#ee0"/>
  <path d="m196.2 858.2-14.9-.3 15.4 4.7-13.7 11.7 21.7-10 16.4 16.3s-9.4-15.2-8.5-14.3 20.8 2.3 20.8 2.3l-12-6.3 11.4-10.1c-.6.6-21.8 6.7-21.8 6.7l-14.8-.7z" fill="url(#G12)"/>
  <path d="m226.4 838.3c0 13-8.7 23.7-19.4 23.7s-19.4-10.6-19.4-23.7 8.7-23.8 19.4-23.8 19.4 10.6 19.4 23.8z" fill="#e97"/>
  <path d="m206.4 838.5c0 1.3-1.6 2.4-3.5 2.4s-3.5-1-3.5-2.4 1.5-2.4 3.5-2.4 3.5 1 3.5 2.4z" fill="#fff"/>
  <path d="M203.4 838.5a2 2 0 0 1-4 0c0-1.2.9-2 2-2s2 1 2 2z" fill="#23d"/>
  <path d="M201.9 838.7c0 1-.6 1.6-1.3 1.6s-1.2-.7-1.2-1.6c0-.9.5-1.6 1.2-1.6s1.3.7 1.3 1.6z"/>
  <path d="m194.8 838.1c0 1.3-1.6 2.4-3.5 2.4-2 0-3.5-1-3.5-2.4s1.5-2.4 3.5-2.4c1.9 0 3.5 1 3.5 2.4z" fill="#fff"/>
  <path d="M191.8 838.1a2 2 0 0 1-4 0c0-1.2.9-2 2-2s2 1 2 2z" fill="#23d"/>
  <path d="M190.3 838.3c0 1-.6 1.7-1.3 1.7-.7 0-1.2-.8-1.2-1.7s.5-1.6 1.2-1.6 1.3.7 1.3 1.6z"/>
  <path d="M193.5 850.7c1.4 7 8.5 5 13.6-.7l-13.6.7z" fill="#f55"/>
  <path d="m217 882.5 1.5.2 1.6 16.7-4 .2z" fill="#700"/>
  <path d="M196.2 840.4c-1 1.5-5 2.5-4.8 3.6s4 2 5 2.6l.4-.5c-.8-.6-4-1.1-4.2-2-.2-1 3.6-2.2 4.5-3.6z"/>
  <path d="M200.6 794.7c-3.3.4-6.5 3-8.3 7.8 13.7-9.6 11.2 10 11.2 10-.2 0-.6 0-.6-.2-.5-1.5-13.3-18.1-21.8 1.5 11.5-8.8 11.5-.4 10 5.8a134 134 0 0 1-1.8 8.4c12-2.6 23.5-1.2 35.4.9 0 0 0-4.8-.2-6.1.9-7.4-8.2-21.5 7.4-14.3-16.8-23-19.2 4.9-19.4 4h-.1c-.5-12.7-6.3-18.4-11.8-17.8z" fill="url(#G298)"/>
  <path d="M193.8 803.6a2 2 0 0 1-2.1 2c-1.2 0-2.1-1-2.1-2s.9-2 2-2 2.2.9 2.2 2z" fill="#ee0"/>
  <path d="M194.7 851.2c1.5 5.4 6.4 2.5 10.5-.6-5.5.2-6.3.4-10.5.6z" fill="#fff"/>
  <path d="M182.7 814.2a2 2 0 0 1-2.1 2c-1.2 0-2.1-.9-2.1-2s1-2 2.1-2 2.1.9 2.1 2zm51.8-4.4a2 2 0 0 1-2.1 2c-1.2 0-2.1-1-2.1-2s.9-2 2-2 2.2.9 2.2 2z" fill="#ee0"/>
  <path d="M220.3 843.3c6.7 1.4 6-10.2-.3-6h.6c4.4-2.5 5.6 6.2-1.2 6z"/>
  <path d="M220.8 842c3.9.9 3.5-5.8-.1-3.4h.2c2.5-1.4 3.2 3.6-.6 3.5z"/>
  <path d="m189.2 828.5.8-2.9c11.9-1.2 24.3-1 34.5 1a8 8 0 0 1 .3 2.4 125.1 125.1 0 0 0-35.6-.5z" fill="#ee0"/>
  <path d="M200.6 794.7c-3.1.3-6.2 2.8-8 7.2-.3-.1-.6-.3-1-.3a2 2 0 0 0-2 2c0 .4.2.7.4 1-2.8.6-5.7 2.8-8.3 8-.3-.2-.7-.4-1.1-.4a2 2 0 0 0-2.1 2 2.1 2.1 0 0 0 2 2 2 2 0 0 0 2.2-2c0-.4-.3-.8-.5-1.1 10.3-7.3 10.4.6 9 6.5-.7 3.8-1.9 8.4-1.9 8.4v.6a28 28 0 0 0-1.7 9.7c0 8.3 3.6 15.7 9 19.9h-.4l-14.9-.3 15.4 4.7-13.7 11.7 4.9-2.3a14.3 14.3 0 0 0-1.9 6.8v17c3.2 1.7 7.5 2.7 12.2 3.3l.1.2 1.9.1c1.8.3 3.4.4 4.4.4h2.2c3.1.2 6.2 0 9.3-.3v.1l4-.2v-.3c4.6-.6 9-1.6 12.7-3.2v-17.1a14.6 14.6 0 0 0-4.6-10.6l5.2.4-12-6.3 11.4-10.1c-.4.3-7.3 2.4-13.5 4.3a26 26 0 0 0 7.1-18.2 28 28 0 0 0-1.7-9.7v-.4c0-.9 0-4.2-.2-5.4.9-7.2-7.7-20.8 6.6-14.6a2 2 0 0 0-.8 1.6c0 1 .9 2 2 2s2.2-1 2.2-2a2 2 0 0 0-2.2-2c-.3 0-.5.1-.8.3-16.4-21.9-18.8 5.3-19 4.4h-.1c-.5-12.7-6.3-18.4-11.8-17.8zm-.8 5.3c5.1 1.5 3.7 12.5 3.7 12.5-.2 0-.6 0-.6-.2-.3-.9-4.5-6.4-9.6-7.6.2-.3.4-.7.4-1.1a2 2 0 0 0-.7-1.5c3-1.9 5.3-2.5 6.8-2z" fill="url(#G2396)"/>
 </g>
</svg>
