<?xml version="1.0" encoding="UTF-8"?>
<svg width="1313" height="705" version="1.1" xmlns="http://www.w3.org/2000/svg" xmlns:xlink="http://www.w3.org/1999/xlink">
 <g id="back">
  <use transform="translate(202 564)" xlink:href="#card"/>
  <rect x="207" y="569" width="91" height="131" rx=".5" ry=".5" fill="#e24"/>
  <g fill="#fff">
   <rect x="211" y="573" width="83" height="123" rx=".5" ry=".5"/>
   <g transform="matrix(.873 0 0 .916 32 53.3)">
    <rect x="209.6" y="571.7" width="85.9" height="125.5" rx=".6" ry=".6" fill="#e24"/>
   </g>
   <rect x="219" y="581" width="67" height="107" rx=".5" ry=".5"/>
  </g>
  <rect x="223" y="585" width="59" height="99" rx=".5" fill="#e24"/>
 </g>
 <circle id="cjok" cx="-86.5" cy="577.5" r="8"/>
 <path id="sjok" d="M-86.56 572.05c-.5 3.32-2.2 5.02-5.45 5.44 3.32.5 5.02 2.2 5.52 5.52.5-3.32 2.19-5.02 5.44-5.45-3.25-.56-4.95-2.26-5.51-5.51z" style="fill:#fff;stroke-linejoin:round;stroke-width:1.5;stroke:#fff"/>
 <path id="A" d="M12.45-44.9c-.48 0-.82.27-1.03.8l-5.9 15.03c-.5 1.1.64 2.1 1.52 1.5.2-.14.36-.32.45-.54l1.2-3.14h7.53l1.19 3.14c.22.61.75.72 1 .72.41 0 .71-.17.9-.5.22-.34.25-.72.1-1.14L13.47-44.1c-.19-.52-.53-.78-1.04-.78zm.04 3.76 3 8H9.43z" style="stroke-width:.3"/>
 <path id="2" d="M109.33-27.4c-.64 0-1.13-.46-1.13-1.14 0-.33.1-.6.3-.8l6.37-7.45c.71-.83 1.41-1.88 1.41-2.8 0-2.25-1.31-3.2-2.8-3.2-1.7 0-3 1.41-3 3.2 0 .52-.42 1.12-1.14 1.12-.66 0-1.15-.54-1.15-1.12 0-3.05 2.3-5.31 5.31-5.31 3.13 0 5 2.17 5 5.31 0 1.61-1.41 3.4-2 4.08l-5.13 5.82h6.28c.67 0 1.16.56 1.16 1.15 0 .6-.49 1.14-1.17 1.14z" style="stroke-width:.25"/>
 <path id="3" d="M214.62-27.4c-3.31 0-5.41-2.44-5.41-5.37 0-.82.56-1.17.98-1.17.47 0 .96.39.96 1.17 0 1.8 1.38 3.38 3.34 3.38 1.89 0 3.1-1.16 3.1-3.11 0-1.83-1.21-3.34-2.89-3.34-.64 0-1.07-.5-1.07-1.16 0-.69.5-1.14 1.08-1.14 1.14 0 2.39-1.03 2.39-2.44 0-1.28-.93-2.33-2.39-2.33-1.59 0-2.91 1.07-2.91 2.48 0 .68-.37 1.21-.97 1.21-.51 0-.96-.39-.96-1.14 0-2.82 2.32-4.54 4.79-4.54s4.41 1.89 4.41 4.32c0 1.94-1.6 3.03-2.51 3.49 2.69.97 3.15 3.19 3.15 4.61 0 2.93-2.3 5.08-5.09 5.08z" style="stroke-width:.4"/>
 <path id="4" d="M317.9-44.9c-.44-.03-.73.17-.95.49l-7.72 11.32c-.17.22-.24.48-.23.76.02.21.22 1.04 1.16 1.04h6.58v2.84c0 .63.5 1.15 1.1 1.15.73 0 1.14-.6 1.14-1.15v-2.84h1.36c.7 0 1.15-.49 1.16-1.04 0-.96-.83-1.04-1.16-1.04h-1.36v-10.36c0-.61-.4-1.17-1.07-1.17zm-1.16 4.23v7.3h-4.8z" style="stroke-width:.25"/>
 <path id="5" d="M416.44-27.4c-3.42 0-5.74-2.58-5.74-5.71 0-.68.51-1.14 1.13-1.14.66 0 1.18.48 1.18 1.13 0 1.93 1.42 3.44 3.43 3.44 2.07 0 3.46-1.57 3.46-3.43 0-1.94-1.48-3.43-3.46-3.43h-3.77c-.75 0-1.13-.53-1.13-1.14v-6.05c0-.67.46-1.17 1.13-1.17h7.54c.64 0 1.16.55 1.16 1.16 0 .55-.43 1.13-1.16 1.13h-6.4v3.78h2.63c3.27 0 5.76 2.49 5.76 5.71 0 3.03-2.24 5.72-5.76 5.72z" style="stroke-width:.2"/>
 <path id="6" d="M519.19-44.92c-.42 0-.76.23-1.03.65l-5.1 8.5c-.39.59-.89 1.63-.86 3.05 0 3.13 2.17 5.3 5.34 5.33 2.85.03 5.29-2.02 5.29-5.33.08-3.34-2.69-5.62-5.7-5.35l3.08-5.1c.39-.62.08-1.22-.22-1.48-.22-.19-.51-.28-.8-.27zm-1.7 8.88c1.48-.03 3.14 1.07 3.14 3.32 0 1.86-1.17 3.3-3.14 3.3-1.9.04-3.17-1.42-3.13-3.3 0-2.34 1.67-3.35 3.13-3.32z" style="stroke-width:.3"/>
 <path id="7" d="M614.95-27.4c-.3 0-.56-.12-.79-.34-.46-.57-.42-.97-.13-1.53l7-13.43h-6.84c-.75 0-1.15-.55-1.15-1.15 0-.81.66-1.16 1.15-1.15h8.57c.84 0 1.44.93 1.04 1.71l-7.75 15.25c-.22.44-.6.64-1.06.64z" style="stroke-width:.3"/>
 <path id="8" d="M719.46-44.95c-2.62 0-4.58 1.92-4.59 4.46-.01 1.33.61 2.58 1.7 3.34-.99.59-2.47 1.98-2.47 4.42 0 3.02 2.2 5.38 5.36 5.38 3.1 0 5.3-2.37 5.34-5.36.02-1.89-1.02-3.58-2.5-4.44 1.09-.76 1.7-2.01 1.72-3.34.04-2.51-2.04-4.55-4.58-4.46zm0 2.08c1.33 0 2.32 1.06 2.28 2.32-.04 1.41-1.06 2.44-2.28 2.44-1.33.03-2.35-1.14-2.3-2.44.05-1.55 1.23-2.34 2.3-2.31zm0 7.01c1.78 0 3.04 1.48 3.02 3.13-.03 1.88-1.4 3.35-3.03 3.33-1.63.02-3.05-1.34-3.04-3.33.01-2.05 1.64-3.13 3.04-3.12z" style="stroke-width:.25"/>
 <path id="9" d="M820.42-44.92c-2.52 0-5.27 1.76-5.27 5.33 0 3.58 2.79 5.57 5.67 5.33l-3.08 5.1c-.5.73.01 1.76 1.02 1.76.41 0 .76-.21 1.03-.63l5.29-8.8c.46-.85.69-1.8.67-2.77 0-3.61-2.81-5.32-5.33-5.32zm.04 2.04c1.46 0 3.12 1.04 3.12 3.29 0 1.91-1.22 3.32-3.12 3.32-1.9.03-3.18-1.5-3.14-3.32 0-2.26 1.64-3.29 3.14-3.29z" style="stroke-width:.3"/>
 <path id="10" d="M924.29-44.88c-4.47 0-4.96 6.16-4.96 8.78 0 3.01.58 8.72 4.96 8.72 4.55 0 4.95-6.5 4.95-8.75 0-1.62-.26-8.85-4.95-8.75zm-7.9.15-2.36 1.24c-.49.18-.68.67-.68 1.08 0 .71.49 1.12 1.06 1.12.49-.02.88-.28 1.3-.52v13.32c0 .65.5 1.14 1.04 1.14.55 0 1.07-.47 1.07-1.14v-15.17c0-.35-.1-.62-.28-.83-.27-.35-.73-.43-1.15-.24zm7.89 2.18c2.18 0 2.81 3.6 2.81 6.45 0 1.66-.22 6.42-2.81 6.42-2.56 0-2.81-4.59-2.81-6.42 0-1.73.24-6.44 2.81-6.45z" style="stroke-width:.2"/>
 <path id="J" d="M1022.3-27.35c-3.32 0-5.37-2.28-5.37-5.33 0-.67.52-1.15 1.17-1.15s1.17.47 1.17 1.15c0 1.89 1.21 3.23 3.05 3.23 2.01 0 3.07-1.54 3.07-3.23V-43.7c0-.73.55-1.15 1.15-1.15.66 0 1.19.46 1.19 1.15v11.04c0 3.3-2.44 5.31-5.51 5.31z" style="stroke-width:.3"/>
 <path id="Q" d="M1123.45-44.85c-4.54.03-7.75 3.58-7.75 8.69 0 4.92 2.99 8.71 7.75 8.71a7.3 7.3 0 0 0 4.52-1.46l.8.9c.22.23.44.34.7.34.72 0 1.4-1.02.69-1.87l-.74-.83c1-1.34 1.78-3.22 1.78-5.79 0-5.64-3.8-8.72-7.75-8.69zm0 2.04c3.43.01 5.8 2.9 5.8 6.65 0 1.38-.33 2.92-1.23 4.23l-1.93-2.17a.955.955 0 0 0-.7-.35c-.26 0-.48.12-.7.35-.41.43-.41 1.11 0 1.54l1.89 2.1c-.92.64-2.01.98-3.13.97-3.33.03-5.8-2.85-5.8-6.67 0-3.85 2.51-6.66 5.8-6.65z" style="stroke-width:.6"/>
 <path id="K" d="M1219.7-27.4c-.56 0-1.16-.41-1.16-1.17v-15.16c0-.76.6-1.17 1.16-1.17.66 0 1.16.5 1.16 1.17v6.72l7.41-7.42c.78-.78 1.56-.41 1.77-.13.31.4.28 1.08-.24 1.63l-5.71 5.74 5.82 7.93c.49.69.17 1.87-.81 1.87-.42 0-.74-.17-.96-.5l-5.66-7.69-1.62 1.62v5.4c0 .68-.52 1.16-1.16 1.16z" style="stroke-width:.3"/>
 <use xlink:href="#Z2"/>
 <g id="club_1">
  <path id="card" d="M.5.5h100v140H.5z" fill="#fff" stroke="#333" stroke-linejoin="round"/>
  <use transform="matrix(2.57 0 0 2.58 -339 10.8)" xlink:href="#d"/>
  <use id="a" transform="matrix(.61121 0 0 .6072 -80.15 19.32)" xlink:href="#d"/>
  <use id="c" transform="rotate(180 50.5 70.5)" xlink:href="#a"/>
  <use transform="translate(0 50)" style="fill:#333;stroke:#333" xlink:href="#A"/>
  <use transform="rotate(180 50.5 45.5)" style="fill:#333;stroke:#333" xlink:href="#A"/>
 </g>
 <g id="club_2">
  <use transform="translate(101)" xlink:href="#card"/>
  <path id="d" d="M151.5 11.5a6.39 6.39 0 0 0-6.3 6.3c0 1.4.5 2.6 1.2 3.7a4.8 4.8 0 0 0-4.3 4.6 4.8 4.8 0 0 0 5 4.7 5 5 0 0 0 4-2.2c-.1 3-.8 6-3.2 6.4v.2h7.2V35c-2.4-.4-3-3.4-3.3-6.4a5 5 0 0 0 4.2 2.2 4.8 4.8 0 0 0 4.9-4.7c0-2.4-1.9-4.4-4.3-4.7a6.2 6.2 0 0 0 1.2-3.6 6.3 6.3 0 0 0-6.3-6.3z" fill="#333" stroke="#333" stroke-linejoin="round"/>
  <use transform="translate(101)" xlink:href="#a"/>
  <use transform="translate(101)" xlink:href="#c"/>
  <use id="f" transform="rotate(180 151.5 70.5)" xlink:href="#d"/>
  <use transform="translate(0 50)" style="fill:#333;stroke:#333" xlink:href="#2"/>
  <use transform="rotate(180 151.5 45.5)" style="fill:#333;stroke:#333" xlink:href="#2"/>
 </g>
 <g id="club_3">
  <use transform="translate(202)" xlink:href="#card"/>
  <use transform="translate(202)" xlink:href="#a"/>
  <use transform="translate(202)" xlink:href="#c"/>
  <use id="h" transform="translate(101)" xlink:href="#d"/>
  <use id="i" transform="translate(101)" xlink:href="#f"/>
  <use id="m" transform="translate(101 47.1)" xlink:href="#d"/>
  <use transform="translate(0 50)" style="fill:#333;stroke:#333" xlink:href="#3"/>
  <use transform="rotate(180 252.5 45.5)" style="fill:#333;stroke:#333" xlink:href="#3"/>
 </g>
 <g id="club_4">
  <use transform="translate(303)" xlink:href="#card"/>
  <use transform="translate(303)" xlink:href="#a"/>
  <use transform="translate(303)" xlink:href="#c"/>
  <use id="j" transform="translate(85.7)" xlink:href="#h"/>
  <use id="k" transform="translate(85.7)" xlink:href="#i"/>
  <use id="n" transform="translate(30.7)" xlink:href="#j"/>
  <use id="o" transform="translate(30.7)" xlink:href="#k"/>
  <use transform="translate(0 50)" style="fill:#333;stroke:#333" xlink:href="#4"/>
  <use transform="rotate(180 353.5 45.5)" style="fill:#333;stroke:#333" xlink:href="#4"/>
 </g>
 <g id="club_5">
  <use transform="translate(404)" xlink:href="#card"/>
  <use transform="translate(404)" xlink:href="#a"/>
  <use transform="translate(404)" xlink:href="#c"/>
  <use id="u" transform="translate(202)" xlink:href="#m"/>
  <use id="q" transform="translate(101)" xlink:href="#j"/>
  <use id="r" transform="translate(101)" xlink:href="#k"/>
  <use id="s" transform="translate(101)" xlink:href="#n"/>
  <use id="t" transform="translate(101)" xlink:href="#o"/>
  <use transform="translate(0 50)" style="fill:#333;stroke:#333" xlink:href="#5"/>
  <use transform="rotate(180 454.5 45.5)" style="fill:#333;stroke:#333" xlink:href="#5"/>
 </g>
 <g id="club_6">
  <use transform="translate(505)" xlink:href="#card"/>
  <use transform="translate(505)" xlink:href="#a"/>
  <use transform="translate(505)" xlink:href="#c"/>
  <use id="x" transform="translate(101)" xlink:href="#q"/>
  <use id="y" transform="translate(101)" xlink:href="#r"/>
  <use id="z" transform="translate(101)" xlink:href="#s"/>
  <use transform="translate(101)" xlink:href="#t"/>
  <use id="v" transform="translate(85.7 .7)" xlink:href="#u"/>
  <use transform="matrix(1 0 0 -1 30.7 141.3)" xlink:href="#v"/>
  <use transform="translate(0 50)" style="fill:#333;stroke:#333" xlink:href="#6"/>
  <use transform="rotate(180 555.5 45.5)" style="fill:#333;stroke:#333" xlink:href="#6"/>
 </g>
 <g id="club_jack">
  <use transform="translate(1010)" xlink:href="#card"/>
  <path d="m1043.5 97.6 7.3 4.4 11.4-14 15.5 19.3V54.7l-7.2-18.5-13 14.8-14-17z" fill="#333"/>
  <path id="p186" d="M1047.6 38v10c1.4-1.3 2.6-1.1 3.8-.3V38zm3.8 18h-3.8v12.8l3.8 6.2z" fill="#e24"/>
  <path id="p188" d="m1074.5 36.5-6 3.2 1 13.5 11 20 7.1-8.1z" fill="#fff" stroke="#fff"/>
  <path id="p190" d="m1074 18.3s-12-8-29.3 0l-6.1-10.1h41.4z" fill="#e24" stroke="#333" stroke-linejoin="round"/>
  <g id="g196" fill="none" stroke="#333" stroke-linecap="round" stroke-linejoin="round">
   <path transform="translate(-274.5 -281.4)" d="m1350 289.8-3.4 5.7-4.2-1m-.1 0 .8-4.7m-5.1 0v4h-5.2m.1 0-1-4m-4.2 0 .7 4-5 1.5-4-5.5"/>
   <path d="m1085.1 78.7c-6.7-3.4-17.9-20.4-18.4-34.8" stroke-width="7"/>
  </g>
  <path id="p198" d="M1064.3 44a48 48 0 0 0 .2 2.4l4.7-.5-.1-2.1zm.8 6.5 1 3.8 4.6-1.3-.9-3.6zm2.3 7.6a42 42 0 0 0 1.6 3.7l4.3-2-1.4-3.3zm3.4 7.3 2 3.4 4-2.5a55.4 55.4 0 0 1-1.8-3.2zm4.3 6.7c.7 1.1 1.6 2.1 2.4 3.1l3.7-3-2.3-3z" fill="#fff"/>
  <g id="g208" fill="none">
   <path d="m1045.2 32.6 15.3 19.5" stroke="#333" stroke-width="4.8"/>
   <path d="m1060.5 52.1 10.3-17" stroke="#333" stroke-linecap="square" stroke-width="4.8"/>
   <g stroke="#db5" stroke-linecap="round" stroke-linejoin="round" stroke-width="1.9">
    <path d="m1045.2 32.6 15.3 19.5 10.8-17.4"/>
   </g>
  </g>
  <g id="g244" stroke="#333">
   <g>
    <path transform="translate(-274.5 -281.4)" d="M1344.5 310.6s2.1 5 6.8 4.2c.5-.1-1 .8-.6.8 3.2.2-7.6 1.1-7.6-4" fill="#db5" stroke-linecap="round" stroke-linejoin="round"/>
    <path transform="translate(-274.5 -281.4)" d="M1346.6 309.8s2.1 5 6.8 4.2c.5 0-1 .8-.6.8 3.2.3-7.6 1.1-7.6-4" fill="#db5" stroke-linecap="round" stroke-linejoin="round"/>
    <path transform="translate(-274.5 -281.4)" d="m1348.3 299.7s1.1 33.7-20.6 13" fill="#fff"/>
   </g>
   <g fill="#db5">
    <path transform="translate(-274.5 -281.4)" d="m1328.5 311.3a4 4 0 1 1-8 0 4 4 0 0 1 8 0z"/>
    <path transform="translate(-274.5 -281.4)" d="m1326.8 311.3a2.4 2.4 0 1 1-4.8 0 2.4 2.4 0 0 1 4.8 0z"/>
    <g stroke-linecap="round" stroke-linejoin="round">
     <path transform="translate(-274.5 -281.4)" d="m1331.8 296.2s-5.7 18.3-10 17.7"/>
     <path transform="translate(-274.5 -281.4)" d="m1329.7 296.5s-5.7 18-10 17.4m7-16.5s-5.7 18.3-10 17.7"/>
     <path transform="translate(-274.5 -281.4)" d="m1324.6 297.8s-5.7 17.9-10 17.3"/>
     <path transform="translate(-274.5 -281.4)" d="M1313.2 313c.3-3.8-5 1.6 0 1.7s8.8-16 8.8-16"/>
    </g>
   </g>
   <g stroke-linecap="round">
    <path transform="translate(-274.5 -281.4)" d="M1319.5 299.7c-.4-.2-4.4 13-6.4 13.4" fill="#fff" stroke-linejoin="round"/>
    <g fill="#333">
     <path transform="translate(-274.5 -281.4)" d="m1345.3 304a1 1 0 1 1-2 0 1 1 0 0 1 2 0zm-8.9 0a1 1 0 1 1-2 0 1 1 0 0 1 2 0z"/>
    </g>
   </g>
  </g>
  <g id="g252" stroke-linecap="round">
   <path d="m1082.3 69h7.6v15.2h-7.6z" fill="#fff"/>
   <path d="M1077.7 107V51.6s2.2-.2 3.8-3.3c1.6-3 4.2 35.8-3.8 58.8z" fill="#fff" stroke="#333" stroke-linejoin="round"/>
   <path d="M1079.3 26.5s4.3-11.3-3.4-9.7c-2.8.7 3.2 8.3 3.4 9.7z" fill="#db5" stroke="#333" stroke-linejoin="round"/>
  </g>
  <path id="p254" d="M1051.9 55h-4.8c0-.3 0-.6.3-.5.7-.2 1.4-.4 1.8-1l.2-1.2c-.2.5-.8.8-1.3 1a2 2 0 0 1-1.3-.2c-.7-.5-1-1.6-.4-2.3.4-.4 1-.7 1.5-.5.2 0 .6.4.4.1-.3-.5-.4-1.1-.1-1.6.3-.6 1-.8 1.6-.8s1.2.6 1.3 1.2c.2.4-.2.8-.3 1.1.4-.2.8-.4 1.3-.2.4.1.8.5.9 1 .5 2.6-2.4 2.7-3.2 1.3 0 .7.3 1.3.9 1.7l1.2.5z" fill="#db5" stroke="#db5" stroke-width=".1"/>
  <path id="aa" d="M1022.4 26.5a5.2 5.2 0 0 0-5.2 5.3c0 1.1.4 2.2 1 3a4 4 0 0 0-3.5 4 4 4 0 0 0 4 4 4 4 0 0 0 3.4-1.9c-.1 2.6-.7 5.1-2.7 5.4v.2h6v-.2c-2-.3-2.6-2.8-2.7-5.4a4 4 0 0 0 3.4 1.9 4 4 0 0 0 4-4 4 4 0 0 0-3.5-4 5.3 5.3 0 0 0 1-3c0-3-2.3-5.3-5.2-5.3z" fill="#333" stroke="#333" stroke-linejoin="round"/>
  <use id="ad" transform="rotate(180 1060.5 70.5)" xlink:href="#aa"/>
  <g transform="rotate(180 1060.5 70.5)">
   <use xlink:href="#p186"/>
   <use xlink:href="#p188"/>
   <use xlink:href="#p190"/>
   <use xlink:href="#g196"/>
   <use xlink:href="#p198"/>
   <use xlink:href="#g208"/>
   <use xlink:href="#g244"/>
   <use xlink:href="#g252"/>
   <use xlink:href="#p254"/>
  </g>
  <use transform="translate(0 50)" style="fill:#333;stroke:#333" xlink:href="#J"/>
  <use transform="rotate(180 1060.5 45.5)" style="fill:#333;stroke:#333" xlink:href="#J"/>
 </g>
 <g id="club_queen">
  <use transform="translate(1111)" xlink:href="#card"/>
  <g id="ac">
   <path d="M1177.6 45s-9 8.2-9.5 16c-.7 12.7-13 17.6-13 17.6l5.4-35z" fill="#e24"/>
   <path d="m1141.3 41.4 9.2-30.9 16.2 19s-14.3 12-19.9 12z" fill="#333" stroke="#333" stroke-linecap="round" stroke-linejoin="round"/>
   <path d="m1149.7 7.5s-2.9 19-7.3 22-5.7 11-1.1 12c0 0 17.5-22.6 8.4-34z" fill="#e24" stroke="#e24" stroke-linejoin="round"/>
   <g stroke="#333">
    <g fill="#fff">
     <g stroke-linecap="round" stroke-linejoin="round">
      <path transform="translate(-292.4 -281.4)" d="M1443.2 289.4s0 8.3-.6 9.8c-2.8 7.5 6.9 29.6 21.5 6.4"/>
      <path transform="translate(-292.4 -281.4)" d="m1447.3 288.2c2.7 5.3 6.8 11.9 9.6 11.2"/>
      <path transform="translate(-292.4 -281.4)" d="m1450.1 289c2.7 5 6.4 10.8 9 10.2"/>
     </g>
    </g>
    <path transform="translate(-292.4 -281.4)" d="m1448.2 303.2a1 1 0 1 1-2 0 1 1 0 0 1 2 0zm7.2 0a1 1 0 1 1-2 0 1 1 0 0 1 2 0z" fill="#333" stroke-linecap="round"/>
    <g fill="#fff" stroke-linecap="round" stroke-linejoin="round">
     <path transform="translate(-292.4 -281.4)" d="M1447.2 288.9s.6 6.3-4.6 7.9c-.5.2 1.5.2 1 .5-3.1 1.9 8.3-2.7 5.6-8.1"/>
     <path transform="translate(-292.4 -281.4)" d="M1444.8 290s.3 4.3-2.8 6.4c-.4.3-.2.9-.6 1.2-1 .6-.4.5.7-.1 2.1-1.1 6.5-5 4.9-8.1"/>
     <path transform="translate(-292.4 -281.4)" d="M1443.2 288.6s.2 3-1.6 5.3c-.6.8-1.6 2.6.1 1.4 2.1-1.4 4.6-4 3.3-6.4"/>
    </g>
    <path transform="translate(-292.4 -281.4)" d="m1467.1 308-12.4-18h17.3s-4.5 9.9 5.1 13c0 0-11.2-5.3-10 5z" fill="#db5" stroke-linejoin="round"/>
   </g>
   <g fill="#333" stroke="#333" stroke-linecap="round" stroke-linejoin="round">
    <path d="m1169.3 15.6-2.3-3.4h.3c.4.4 1 .8 1.6.7.5 0 1-.2 1.3-.4h-.4c-.5 0-1-.2-1.3-.7-.2-.3-.3-.8-.2-1.2.2-.6 1-1.2 1.7-1 .3.2.7.4.8.8l.1.5a2 2 0 0 1 .5-.7c.5-.4 1.2-.4 1.6 0 .3.2.6.5.6.9s0 .8-.3 1c-.2.4-.6.5-1 .4-.2 0 .2.2.3.3l.5.7c0 .4 0 .8-.4 1-.3.4-1 .6-1.4.4-1.2-.6-1.2-1.6-.9-2.2-1 .8-1.3 1.1-.8 2.5zm3.7 5.4-2.3-3.4.4-.1c.3.5.9.9 1.5.8.4 0 .8-.2 1.2-.4.1 0 .3 0 0 0a2 2 0 0 1-1.3-.4 1.7 1.7 0 0 1-.5-1c0-.7.5-1.4 1.2-1.5.4 0 .8.1 1 .4.3.2.4.6.4 1l.5-.8c.4-.4 1-.4 1.5 0 .3.1.6.4.7.8s0 .8-.2 1.1a1.1 1.1 0 0 1-1 .4c-.4 0 .2.3.3.4.3.2.4.6.4 1-.1.5-.6 1-1.2 1-.5.1-1.2 0-1.4-.6a2.6 2.6 0 0 1 0-1.6c-1 .8-1.4 1.2-1 2.6z" stroke-width=".2"/>
    <path transform="translate(-292.4 -281.4)" d="M1448.3 320.8s-18.1 39-12.7 45.4c0 0 7.9-3.4 10.5-2.3 1.7.7 1.6-6.6 3.1-17.3 2-9.6 6.5-26.6 6.5-26.6 4.1-4-7.4.8-7.4.8z"/>
   </g>
   <path d="m1147.7 41h31.4" stroke="#db5" stroke-width="12"/>
   <path d="M1147.5 41h4.1v-6l-4.6-.6zm8.1 0h4v-6h-4zm8 0h4v-6h-4zm8 0h4v-6h-4zm-20 6h4v-6h-4zm8 0h4v-6h-4zm8 0h4v-6h-4zm8 0h3.5v-6h-3.5z" fill="#333"/>
   <g stroke="#333" stroke-linecap="round">
    <path d="m1160 7.3 25.7 35.1" stroke-linejoin="round" stroke-width="3"/>
    <g fill="#fff">
     <path transform="translate(-292.4 -281.4)" d="M1433.4 350.6c-.1-2.4 2.1-4.4 5-4.5s5.3 1.6 5.4 4-2.1 4.4-5 4.6c-2.9.1-5.3-1.7-5.4-4z"/>
     <path transform="translate(-292.4 -281.4)" d="M1440 351c1 1.4 2.8 1.9 4 1s0-8-3.8-5.1c-1.1.8-1.2 2.7-.2 4.1z" stroke-linejoin="round"/>
     <path transform="translate(-292.4 -281.4)" d="m1442.4 346.3-5.6-1.6s-2.2 2.9 4.8 4.4"/>
     <g stroke-linejoin="round">
      <path transform="translate(-292.4 -281.4)" d="M1433.8 347.3s2.5-3.2 4.2-.5l-3 2.2"/>
      <path transform="translate(-292.4 -281.4)" d="M1434.8 348.6s2.5-3.2 4.2-.5l-3 2.2"/>
      <path transform="translate(-292.4 -281.4)" d="M1435.8 350s2.5-3.2 4.2-.5l-3 2.2"/>
      <path transform="translate(-292.4 -281.4)" d="M1437 351.5s2.5-3.2 4.2-.5l-3 2.2"/>
     </g>
    </g>
    <g stroke-linejoin="round">
     <path transform="translate(-292.4 -281.4)" d="m1436.2 341.7 1.3 3.7-3.8-.9-3.6 1.4.8-3.8-1.3-3.7 3.8.9 3.6-1.4z"/>
     <path transform="translate(-292.4 -281.4)" d="m1433.4 338.3c5 0 1.3 2.4 1.3 2.4s2.4-3.7 2.4 1.3-2.4 1.3-2.4 1.3 3.7 2.4-1.3 2.4-1.3-2.4-1.3-2.4-2.4 3.7-2.4-1.3 2.4-1.3 2.4-1.3-3.7-2.4 1.3-2.4z" fill="#db5"/>
    </g>
   </g>
   <path d="m1145 4.1v4.1h56v-4z" fill="#fff"/>
  </g>
  <use transform="rotate(180 1161.5 70.5)" xlink:href="#ac"/>
  <path d="m1153.6 66.4h14.4v8.2h-14.4z" fill="#333"/>
  <use id="ak" transform="translate(101)" xlink:href="#aa"/>
  <use id="al" transform="translate(101)" xlink:href="#ad"/>
  <use transform="translate(0 50)" style="fill:#333;stroke:#333" xlink:href="#Q"/>
  <use transform="rotate(180 1161.5 45.5)" style="fill:#333;stroke:#333" xlink:href="#Q"/>
 </g>
 <g id="club_king">
  <use transform="translate(1212)" xlink:href="#card"/>
  <path d="M1263.8 37.4c-25.4-3-12.8 38-12.4 38l-1.4 20c-.6 2-5.1 8.7 11.7 8.7s10-15.3 10-15.3 5-43.5 3.1-43.5 5.7-5.8-11-7.9z" fill="#e24"/>
  <path id="af" d="M1257.9 36.7c-5-.1-10.8 3-13.5 7-5.1 7.4-3 19.4 1.8 27.2 1.1 1.8 3 3.8 5.2 4.6l1.6-23.7s-5.5-13 8.5-14.3a8.8 8.8 0 0 0-3.6-.8z" fill="#333"/>
  <use transform="rotate(180 1262.5 70.5)" xlink:href="#af"/>
  <g id="ag">
   <g fill="none">
    <path d="m1277.2 43s-11.1 18.8-2.9 39" stroke="#333" stroke-linecap="round" stroke-linejoin="round" stroke-width="5.8"/>
    <g stroke-width="1.9">
     <path d="m1276 40.5s-12.9 21.3-4.7 41.6" stroke="#fff" stroke-linecap="round" stroke-linejoin="round"/>
     <path d="m1280.1 43s-11.1 18.8-2.9 39" stroke="#e24"/>
    </g>
    <path d="m1280.2 43.2s-11.1 18.8-2.9 39.1" stroke="#e24" stroke-linecap="round" stroke-linejoin="round" stroke-width="1.9"/>
   </g>
   <path d="m1273.5 42 5.9 3.4.5-1-6-3.5zm-1.7 6.3 5.5 2 .3-.9-5.4-2zm-1.8 5.8 5.6 1.5.3-1-5.6-1.4zm-1 6 5.6.9.2-1-5.8-.8zm-.5 5.7v.6h5.8v-.9l-5.8-.2zm.3 5.8v.9l5.8-.7v-1zm1 6 .3 1 5.6-1.5-.2-1z" fill="#e24"/>
  </g>
  <use transform="rotate(180 1262.5 70.5)" xlink:href="#ag"/>
  <g id="ah" stroke="#333">
   <path d="m1260.9 59a8.1 8.1 0 1 1-16.2 0 8.1 8.1 0 0 1 16.2 0z" fill="#db5"/>
   <path d="m1260 56.2a2.7 2.7 0 1 1-5.4 0 2.7 2.7 0 0 1 5.4 0zm-8.9 0a2.7 2.7 0 1 1-5.4 0 2.7 2.7 0 0 1 5.4 0z" fill="#333"/>
   <path d="M1254.9 48.4c0 1.4-.9 2.6-2 2.6s-2-1.2-2-2.6.8-2.6 2-2.6 2 1.1 2 2.6z" fill="#db5"/>
  </g>
  <g id="ai">
   <g fill="#fff" stroke="#333">
    <path d="M1243.5 17.8c-1 4-2.2 5.6-3.5 5.9-1 .2 4.2 0 2.7-.2-1-.2.1 1.2 0 1.5-.7 2.7.1 6 1 10.1s.6 2.2-2.1 3.2 2.3 1.7 5.7-3c3.4-4.5-.7 5.2-4.6 5.7s9.2-1.3 8.7-3.7 3 5.5 5.2 2.6c0 0-4.9-2.6-2.3-3 0 0 5.7 4.2 7 3.5 0 0-4-3.6-1.8-2.9 0 0 2.6 1.2 3-.7" stroke-linecap="round" stroke-linejoin="round"/>
    <path d="M1268.1 17.4c1.8 6.1 2.6 14.5 2.9 18s2 5 4.2 5.1c2.2.2 2-6.8.6-6-1.4.6-2.6-1.7-2.2 2.6"/>
    <path d="M1266.2 17.2c1.8 6.1 2.6 14.5 2.9 18s2 5 4.2 5.1c2.2.2 2-6.7.6-6s-2.6-1.2-2.2 3.1"/>
    <path d="M1264.1 16.7c1.8 6.1 2.6 14.5 2.9 18.1s2 4.8 4.2 5 2-6.7.6-6-2.6-1.7-2.2 2.6"/>
    <path d="M1261.9 16.3c1.8 6 2.6 14.4 2.9 18s2 4.9 4.2 5c2.2.2 2-6.7.6-6-1.4.6-2.6-1.7-2.2 2.7"/>
    <path d="M1259.4 16c1.8 6 2.6 14.5 2.9 18s2 4.9 4.2 5c2.2.3 2-6.7.6-6s-2.6-1.7-2.2 2.7" stroke-linecap="round"/>
   </g>
   <path d="M1269.1 18.5c-.4-1.1-23-7.6-26.3 0" fill="none" stroke="#e24" stroke-linecap="round" stroke-width="2"/>
   <g stroke="#333" stroke-linecap="round">
    <path d="m1238.9 7.5 3.7 9s5.3-6.7 25.1 0l5.5-9z" fill="#db5" stroke-linejoin="round"/>
    <g>
     <path d="M1248.3 23.9a1 1 0 1 1-2 0 1 1 0 0 1 2 0zm8.2-.2a1 1 0 1 1-2 0 1 1 0 0 1 2 0z" fill="#333"/>
     <g fill="#fff">
      <path d="m1252.3 27.6s3.4 2.9 4.3 2.3m-6.7-2.3s-2.2 2-3.5 2.3"/>
     </g>
    </g>
   </g>
   <path d="M1251.3 9.5a1 1 0 0 0 .2.7c-.4 0-.8.4-.8.8s.4.8 1 .8c.28-.03.53-.174.7-.4 0 .5-.1 1-.6 1.1h1.5-.1c-.5 0-.6-.6-.6-1.1.19.25.49.4.8.4.5 0 .9-.4.9-.8 0-.5-.4-.8-.8-.8.15-.2.224-.45.2-.7 0-1.28-2.4-1.5-2.4 0zm6.7.1v.7c-.4 0-.9.3-1 .7 0 .6.4 1 1 1.1.283.05.575-.021.8-.2 0 .5-.3 1-.8 1h-.1l1.6.4v-.1c-.5-.2-.6-.7-.5-1.3.1.3.4.5.8.5.5.1 1-.2 1.1-.7.1-.4-.2-.8-.7-1 .197-.15.34-.36.4-.6 0-1.714-2.35-2-2.6-.5zm-14 .8c0 .2.2.4.4.6-.5.2-.7.6-.6 1 .1.6.7.8 1.2.7.4-.1.7-.4.8-.6 0 .5.1 1.1-.4 1.3v.1l1.6-.5c-.6.1-.9-.4-1-1 .2.2.5.3.9.2.6-.2.9-.7.8-1.2-.1-.4-.6-.7-1.1-.6v-.7c-.43-1.68-3.08-.745-2.6.7zm20-.4c-.067.303-.032.62.1.9-.6-.1-1.2.2-1.3.7-.2.6.2 1.2.9 1.4.4 0 .8 0 1.1-.3-.2.7-.5 1.3-1.1 1.2h-.1l2 .6h-.2c-.5-.3-.5-1-.4-1.7.1.3.5.6.9.7.6.2 1.3-.1 1.4-.7.2-.5-.2-1-.7-1.3l.5-.7c.46-1.82-2.51-2.56-3.1-.8z" fill="#333" stroke="#333" stroke-linejoin="round" stroke-width=".3"/>
  </g>
  <g id="aj" stroke="#333" stroke-linecap="round">
   <path d="m1281.6 18.2-2.4 2.3v42.7l4.8.5V20.6z" fill="#db5" stroke-linejoin="round"/>
   <g fill="#fff">
    <path d="M1284.8 66.5c1.4 1.8.7 4.7-1.5 6.3s-5.1 1.6-6.5-.2c-1.4-1.9-.7-4.2 1.5-5.9s5.1-2 6.5-.2z"/>
    <g>
     <path d="M1280.7 71.5c-.2 1.8-1.4 3-2.8 2.8-1.4 0-4-6.9.6-6.5 1.4.3 2.4 2.1 2.2 3.7z"/>
     <path d="m1276.2 63.2h10.8v2.6h-10.8z" stroke-linejoin="round"/>
     <path d="M1284 65.3s-3.7-1.4-3.8 1.7l3.6.3" stroke-linejoin="round"/>
     <path d="M1283.9 67s-3.7-1.4-3.8 1.6l3.6.3"/>
     <g stroke-linejoin="round">
      <path d="M1283.7 68.6s-3.7-1.4-3.8 1.7l3.6.3"/>
      <path d="M1283.5 70.5s-3.7-1.5-3.8 1.6l3.6.3m-6-4.4 4.5-3.5s3 2-2.8 5.6"/>
     </g>
    </g>
   </g>
   <path d="m1283.8 74.7a2.25 2.25 0 1 1-4.5 0 2.25 2.25 0 0 1 4.5 0z" fill="#db5"/>
  </g>
  <g transform="rotate(180 1262.5 70.5)">
   <use xlink:href="#ah"/>
   <use xlink:href="#ai"/>
   <use xlink:href="#aj"/>
  </g>
  <use transform="translate(101)" xlink:href="#ak"/>
  <use transform="translate(101)" xlink:href="#al"/>
  <use transform="translate(0 50)" style="fill:#333;stroke:#333" xlink:href="#K"/>
  <use transform="rotate(180 1262.5 45.5)" style="fill:#333;stroke:#333" xlink:href="#K"/>
 </g>
 <g id="club_7">
  <use transform="translate(606)" xlink:href="#card"/>
  <use transform="translate(606)" xlink:href="#a"/>
  <use transform="translate(606)" xlink:href="#c"/>
  <use transform="translate(101)" xlink:href="#x"/>
  <use transform="translate(101)" xlink:href="#y"/>
  <use transform="translate(101)" xlink:href="#z"/>
  <use transform="translate(101)" xlink:href="#v"/>
  <use transform="rotate(180 411.7 70.5)" xlink:href="#d"/>
  <use transform="matrix(1 0 0 -1 131.7 141.3)" xlink:href="#v"/>
  <use transform="translate(0 50)" style="fill:#333;stroke:#333" xlink:href="#7"/>
  <use transform="rotate(180 656.5 45.5)" style="fill:#333;stroke:#333" xlink:href="#7"/>
  <use transform="translate(116.3 23.4)" xlink:href="#x"/>
 </g>
 <g id="club_8">
  <use transform="translate(707)" xlink:href="#card"/>
  <use transform="translate(707)" xlink:href="#a"/>
  <use transform="translate(707)" xlink:href="#c"/>
  <use transform="rotate(180 462.2 70.5)" xlink:href="#d"/>
  <use transform="translate(434.7)" xlink:href="#j"/>
  <use id="u2250" transform="translate(287.7 .7)" xlink:href="#u"/>
  <use transform="matrix(1 0 0 -1 30.7 141.3)" xlink:href="#u2250"/>
  <use transform="translate(489.7)" xlink:href="#h"/>
  <use transform="translate(489.7)" xlink:href="#i"/>
  <use id="ccc" transform="translate(606 23.15)" xlink:href="#d"/>
  <use transform="rotate(180 454.5 58.92)" xlink:href="#d"/>
  <use transform="translate(0 50)" style="fill:#333;stroke:#333" xlink:href="#8"/>
  <use transform="rotate(180 757.5 45.5)" style="fill:#333;stroke:#333" xlink:href="#8"/>
 </g>
 <g id="club_9">
  <use transform="translate(808)" xlink:href="#card"/>
  <use transform="translate(808)" xlink:href="#a"/>
  <use transform="translate(808)" xlink:href="#c"/>
  <use transform="translate(404)" xlink:href="#u"/>
  <use transform="translate(404)" xlink:href="#q"/>
  <use transform="translate(404)" xlink:href="#r"/>
  <use transform="translate(404)" xlink:href="#s"/>
  <use transform="translate(404)" xlink:href="#t"/>
  <use id="u2284" transform="translate(590.65 27.43)" xlink:href="#h"/>
  <use transform="translate(30.7)" xlink:href="#u2284"/>
  <use id="u2312" transform="translate(590.65 -27.43)" xlink:href="#i"/>
  <use transform="translate(30.7)" xlink:href="#u2312"/>
  <use transform="translate(0 50)" style="fill:#333;stroke:#333" xlink:href="#9"/>
  <use transform="rotate(180 858.5 45.5)" style="fill:#333;stroke:#333" xlink:href="#9"/>
 </g>
 <g id="club_10">
  <use transform="translate(909)" xlink:href="#card"/>
  <use transform="translate(909)" xlink:href="#a"/>
  <use transform="translate(909)" xlink:href="#c"/>
  <use transform="translate(504.98)" xlink:href="#q"/>
  <use transform="translate(504.98)" xlink:href="#r"/>
  <use transform="translate(504.98)" xlink:href="#s"/>
  <use transform="translate(504.98)" xlink:href="#t"/>
  <use id="u2330" transform="translate(691.62 31.43)" xlink:href="#h"/>
  <use transform="translate(30.7)" xlink:href="#u2330"/>
  <use id="u2334" transform="translate(691.62 -31.43)" xlink:href="#i"/>
  <use transform="translate(30.7)" xlink:href="#u2334"/>
  <use transform="translate(808 15.65)" xlink:href="#d"/>
  <use transform="rotate(180 555.5 62.67)" xlink:href="#d"/>
  <use transform="translate(0 50)" style="fill:#333;stroke:#333" xlink:href="#10"/>
  <use transform="rotate(180 959.5 45.5)" style="fill:#333;stroke:#333" xlink:href="#10"/>
 </g>
 <g id="spade_1">
  <use transform="translate(0 423)" xlink:href="#card"/>
  <use transform="matrix(2.36 0 0 2.41 -307 -586.36)" xlink:href="#cG"/>
  <use id="cD" transform="matrix(.59 0 0 .62 -77.13 178.68)" xlink:href="#cG"/>
  <use id="cF" transform="rotate(180 50.5 493.5)" xlink:href="#cD"/>
  <use transform="translate(0 473)" style="fill:#333;stroke:#333" xlink:href="#A"/>
  <use transform="rotate(180 50.5 257)" style="fill:#333;stroke:#333" xlink:href="#A"/>
 </g>
 <g id="spade_2">
  <use transform="translate(101 423)" xlink:href="#card"/>
  <use transform="translate(101)" xlink:href="#cD"/>
  <use transform="translate(101)" xlink:href="#cF"/>
  <path id="cG" d="M151.5 435c-.2 0-.2 2.3-.4 3.5-.8 4.7-10 4.1-10 11 0 3.1 2.7 5.7 6 5.7a6.2 6.2 0 0 0 4.2-1.6c0 2.7-3.1 4.8-5.2 5v.2h10.8v-.2c-2-.2-5.1-2.3-5.1-5a6.2 6.2 0 0 0 4 1.6c3.4 0 6.1-2.6 6.1-5.7 0-6.9-9.1-6.3-10-11-.2-1.2-.2-3.5-.4-3.5z" fill="#333" stroke="#333" stroke-linejoin="round" stroke-width="1.2"/>
  <use id="cI" transform="rotate(180 151.5 493.5)" xlink:href="#cG"/>
  <use transform="translate(0 473)" style="fill:#333;stroke:#333" xlink:href="#2"/>
  <use transform="rotate(180 151.5 257)" style="fill:#333;stroke:#333" xlink:href="#2"/>
 </g>
 <g id="spade_3">
  <use transform="translate(202 423)" xlink:href="#card"/>
  <use transform="translate(202)" xlink:href="#cD"/>
  <use transform="translate(202)" xlink:href="#cF"/>
  <use id="cR" transform="translate(101)" xlink:href="#cG"/>
  <use id="cS" transform="translate(101)" xlink:href="#cI"/>
  <use id="cP" transform="translate(101 44.6)" xlink:href="#cG"/>
  <use transform="translate(0 473)" style="fill:#333;stroke:#333" xlink:href="#3"/>
  <use transform="rotate(180 252.5 257)" style="fill:#333;stroke:#333" xlink:href="#3"/>
 </g>
 <g id="spade_4">
  <use transform="translate(303 423)" xlink:href="#card"/>
  <use transform="translate(303)" xlink:href="#cD"/>
  <use transform="translate(303)" xlink:href="#cF"/>
  <use id="cL" transform="translate(186.7)" xlink:href="#cG"/>
  <use id="cM" transform="translate(186.7)" xlink:href="#cI"/>
  <use id="cN" transform="translate(217.3)" xlink:href="#cG"/>
  <use id="cO" transform="translate(217.3)" xlink:href="#cI"/>
  <use transform="translate(0 473)" style="fill:#333;stroke:#333" xlink:href="#4"/>
  <use transform="rotate(180 353.5 257)" style="fill:#333;stroke:#333" xlink:href="#4"/>
 </g>
 <g id="spade_5">
  <use transform="translate(404 423)" xlink:href="#card"/>
  <use transform="translate(404)" xlink:href="#cD"/>
  <use transform="translate(404)" xlink:href="#cF"/>
  <use id="dk" transform="translate(101)" xlink:href="#cL"/>
  <use id="dl" transform="translate(101)" xlink:href="#cM"/>
  <use id="dm" transform="translate(101)" xlink:href="#cN"/>
  <use id="dn" transform="translate(101)" xlink:href="#cO"/>
  <use id="do" transform="translate(202)" xlink:href="#cP"/>
  <use transform="translate(0 473)" style="fill:#333;stroke:#333" xlink:href="#5"/>
  <use transform="rotate(180 454.5 257)" style="fill:#333;stroke:#333" xlink:href="#5"/>
 </g>
 <g id="spade_6">
  <use transform="translate(505 423)" xlink:href="#card"/>
  <use transform="translate(505)" xlink:href="#cD"/>
  <use transform="translate(505)" xlink:href="#cF"/>
  <use id="cT" transform="translate(287.7)" xlink:href="#cR"/>
  <use id="cU" transform="translate(287.7)" xlink:href="#cS"/>
  <use id="cV" transform="translate(287.7)" xlink:href="#cP"/>
  <use id="cX" transform="translate(30.7)" xlink:href="#cT"/>
  <use id="cY" transform="translate(30.7)" xlink:href="#cU"/>
  <use id="cZ" transform="matrix(1 0 0 -1 30.7 987)" xlink:href="#cV"/>
  <use transform="translate(0 473)" style="fill:#333;stroke:#333" xlink:href="#6"/>
  <use transform="rotate(180 555.5 257)" style="fill:#333;stroke:#333" xlink:href="#6"/>
 </g>
 <g id="spade_jack">
  <use transform="translate(1010 423)" xlink:href="#card"/>
  <g id="dC">
   <path d="M1051.2 474.4c-7.8 0-14.2-4.3-14.2-9.5s6.4-10.3 14.2-10.3 14.2 5.1 14.2 10.3c-.1 5.2-6.5 9.5-14.2 9.5z" fill="#333" stroke="#333"/>
   <g stroke="#333">
    <g>
     <path transform="translate(-274.5 304.6)" d="M1347.3 156.2c-.2 0-.3.2-.5.6a49.8 49.8 0 0 0-2.5 15.4c0 13.7 4.5 24.7 10.2 24.7 5.4 0 5-5.3 4.2-9.8-1.7-11.4-9.2-31.2-11.4-30.9zm-1.9 2.2-26.6-4.5 4.5-5 20.7 5z" fill="#333"/>
     <g stroke-linecap="round">
      <path d="m1068.6 463.6-22-4 20.8 32.8z" fill="#e24"/>
      <path d="m1045.2 457.4 22.3 35" stroke-width="4" style="fill:#db5"/>
      <path transform="translate(-274.5 304.6)" d="M1327.2 149.5c9.2 2.2 14.4 6 16.9 4.2 4.9-3.5 3.6-9.5 3.6-9.5 2-2.1 2 1.5-1-4.6-.6-1.5 1.5-7.8 1.5-7.8" fill="#fff" stroke-linejoin="round"/>
     </g>
    </g>
    <g fill="#db5">
     <path transform="translate(-274.5 304.6)" d="m1333.3 131c-1.1 11.8-3.6 19.3-10.2 20.4"/>
     <path transform="translate(-274.5 304.6)" d="m1331 131.3c-1.3 9.8-2.6 18.1-10 20"/>
     <path transform="translate(-274.5 304.6)" d="M1328.2 132.1c.1 7.2-3 19.1-10.6 20.2"/>
     <path transform="translate(-274.5 304.6)" d="M1325.8 132.4c-.2 7.2-2.4 17.8-10.5 19.9" stroke-linecap="round"/>
     <path transform="translate(-274.5 304.6)" d="M1313.9 150.2c-.1-1.9-1.5-2-2-1-1 2 .1 3.7 1.9 3 6.3-2.8 8.5-12 9.6-18.3" stroke-linecap="round" stroke-linejoin="round"/>
    </g>
    <g stroke-linecap="round">
     <path transform="translate(-274.5 304.6)" d="M1320.5 134.8c-.6 4.4-2.9 12-6.8 15.4" fill="none"/>
     <g>
      <path transform="translate(-274.5 304.6)" d="m1343.7 137.7a1 1 0 1 1-2 0 1 1 0 0 1 2 0z" fill="#333"/>
      <path transform="translate(-274.5 304.6)" d="M1345.8 144.6s-1-.3-2.5 1.1" fill="none"/>
     </g>
    </g>
   </g>
   <path transform="translate(20)" d="M1025.2 456.7c-.5.02-.81.55-.6 1l4.7 7.4c.4-.27.84-.47 1.3-.6l-4.8-7.5a.689.689 0 0 0-.6-.3zm10.2 15.3c-.35.34-.75.61-1.2.8l12.7 20 1.2-.8z" fill="#db5"/>
   <g fill="none" stroke-linecap="round">
    <path d="m1070.6 460.8s-7 14-2.4 32.4" stroke="#333" stroke-width="4"/>
    <path d="m1070.6 460.8s-7 14-2.4 32.4" stroke="#db5" stroke-width="1.5"/>
    <path d="m1073 461.4s-7 14-2.4 32.5" stroke="#333" stroke-width="4"/>
    <path d="m1073 461.4s-7 14-2.4 32.5" stroke="#db5" stroke-width="1.5"/>
   </g>
   <g stroke="#333">
    <g fill="#db5">
     <path transform="translate(-274.5 304.6)" d="m1358.5 139.6c0 3.1-1.4 5.4-3.2 5.4s-3.2-2.3-3.2-5.4 1.5-5.6 3.2-5.6 3.2 2.5 3.2 5.6zm0 11.1c0 3.1-1.4 5.6-3.2 5.6s-3.2-2.5-3.2-5.6 1.5-5.6 3.2-5.6 3.2 2.5 3.2 5.6zm0 11.2c0 3-1.4 5.6-3.2 5.6s-3.2-2.5-3.2-5.6 1.5-5.6 3.2-5.6 3.2 2.5 3.2 5.6z"/>
    </g>
    <g fill="#fff" stroke-linecap="round">
     <path transform="rotate(-3 7039.6 5536.7)" d="M1358.5 169.5c1 2 0 4.7-2.5 6s-5.3.6-6.4-1.4c-1-2 0-4.7 2.5-6 2.5-1.2 5.3-.6 6.4 1.4z"/>
     <path transform="rotate(-3 7039.6 5536.7)" d="M1353.2 173c-.2 1.7-1.4 2.9-2.8 2.8-1.4-.2-3.9-6.7.7-6.2 1.3.2 2.3 1.8 2.1 3.4z"/>
     <path transform="rotate(-3 7039.6 5536.7)" d="m1348.9 170.3 3.8-4.1s3.2 1.4-1.9 6" stroke-linejoin="round"/>
     <g stroke-linejoin="round" stroke-width=".9">
      <path d="m1083.2 470.7s-3.6 1.1-2.1 3.7l3.1-1.7z"/>
      <path d="M1084.1 472.4s-3.8.9-2.2 3.4l3-1.7z"/>
      <path d="m1084.9 473.8s-3.8 1-2.2 3.5l3-1.8z"/>
      <path d="m1085.6 475.4s-3.5 1.4-2.2 3.4l2.5-1.6z"/>
     </g>
    </g>
    <path d="m1073.8 436.3s-11-4.7-28.3 3.4l-6.2-10.2h38.6z" fill="#e24" stroke-linejoin="round"/>
    <g fill="none" stroke-linecap="round" stroke-linejoin="round">
     <path transform="translate(-274.5 304.6)" d="m1349.6 125.3-2.2 3.9m-.1 0-4.3-.7-.7-3.2m-3.3.2-1.4 3-6 .6m-.1 0-2-3.8m-3.6.2 1 4.3-5.1 1.8-5.7-6.7"/>
    </g>
    <path transform="translate(20)" d="M1032.5 465.3c-3.1 0-3.7 1.8-3.5 2.4.3 1 1.8 1.8 1.8 1.8-1.4.8-3.5-1.6-3.5-1.6l1.8 2.6v.1l1.9 2.7s-1.5-2.8-.2-3.7.3 1.6 1 2.2 4.1.8 4.7-5.8a13.2 13.2 0 0 0-4-.7z" fill="#db5"/>
    <path d="M1052.5 465.3c-3.1 0-3.7 1.8-3.5 2.4.3 1 1.8 1.8 1.8 1.8-1.4.8-3.5-1.6-3.5-1.6l1.8 2.6v.1l1.9 2.7s-1.5-2.8-.2-3.7.3 1.6 1 2.2 4.1.8 4.7-5.8a13.2 13.2 0 0 0-4-.7z" fill="#db5" stroke-linejoin="round" stroke-width="2"/>
   </g>
   <g>
    <path d="M1052.5 465.3c-3.1 0-3.7 1.8-3.5 2.4.3 1 1.9 1.67 1.9 1.67-1.4.8-3.6-1.47-3.6-1.47l3.7 5.4s-1.164-2.67.136-3.57c0 0-.036 1.47.664 2.07s4.1.8 4.7-5.8c-1.29-.44-2.64-.67-4-.7z" fill="#db5"/>
   </g>
  </g>
  <use transform="rotate(180 1060.5 493.5)" xlink:href="#dC"/>
  <path d="M1081.5 516.6c-2.6-2.4-8.2-8-8.3-14.3l-.7-17.2c-.2-4.7-28-14.7-33-14.7 2.7 2.2 8.2 7.7 8.2 13.9l.7 17.2c.2 4.8 28 15 33.1 15z" fill="#333"/>
  <path d="M1046.3 473.8s3 3.8 3.4 11.2l.6 16.4c.4.7 3.6 3.6 14.3 8 3.8 1.5 7.4 2.8 10.4 3.7 0 0-3.5-6.6-3.7-11.6l-.7-16.4c-.4-.8-3.5-3.5-14.2-7.7-3.6-1.5-7.2-2.7-10.1-3.6z" fill="#e24"/>
  <path id="dD" d="m1022.4 449.5-.3 2.8c-.7 3.8-7.8 3.2-7.8 8.7 0 2.5 2.1 4.5 4.7 4.5a4.8 4.8 0 0 0 3.2-1.2c0 2.1-2.4 3.9-4 4v.2h8.4v-.2c-1.6-.1-4-1.9-4-4a4.8 4.8 0 0 0 3.2 1.2c2.6 0 4.7-2 4.7-4.5 0-5.5-7.1-5-7.8-8.7z" fill="#333" stroke="#333" stroke-linejoin="round"/>
  <use id="dG" transform="rotate(180 1060.5 493.5)" xlink:href="#dD"/>
  <use transform="translate(0 473)" style="fill:#333;stroke:#333" xlink:href="#J"/>
  <use transform="rotate(180 1060.5 257)" style="fill:#333;stroke:#333" xlink:href="#J"/>
 </g>
 <g id="spade_queen">
  <use transform="translate(1111 423)" xlink:href="#card"/>
  <path d="m1184.7 562.4h-46.5v-4h46.5z" fill="#fff" stroke="#fff" stroke-width=".9"/>
  <g id="dF">
   <g stroke="#333">
    <g stroke-linecap="round">
     <g fill="#fff">
      <path transform="translate(-293 304)" d="M1479.1 173.6c-.5 1.7-2.1 2.7-3.4 2.3-1.4-.4-2.6-7.6 1.9-6.1 1.4.4 2.1 2 1.5 3.8z"/>
      <path transform="translate(-293 304)" d="M1485.2 171c.7 2.3-1 4.8-3.8 5.6s-5.4-.5-6.2-2.7c-1.4-3.8 1-5 3.8-5.6s5.5.4 6.2 2.7z"/>
      <g stroke-linejoin="round">
       <path transform="translate(-293 304)" d="m1475.4 170 4.8-3.4s3 2-3.1 5.7"/>
       <path transform="translate(-293 304)" d="M1483.5 168s-3.4-2.3-4.1.7l3.5 1.1"/>
       <path transform="translate(-293 304)" d="M1483.6 169.3s-3.4-2.2-4.1.8l3.5 1.1"/>
       <path transform="translate(-293 304)" d="M1482.8 171.3s-3.4-2.2-4.1.8l3.5 1"/>
       <path transform="translate(-293 304)" d="M1482.2 173s-3.4-2.1-4.1.9l3.5 1"/>
      </g>
     </g>
     <path d="m1174 501.2 8-8.6 2.5-9.6-13.4-28.3-10.8-11.4-18.2 38.4z" fill="#e24" stroke-linejoin="round" stroke-width="1.2"/>
     <path d="m1169 464.1 13.8 24.7" fill="none"/>
    </g>
    <g>
     <path d="m1181.7 455.3-20-.5 13.4 15.8z" fill="#e24"/>
     <path d="m1169.8 459.2 13.9 26.6" fill="none"/>
     <path d="m1184.2 454c0 7.4-5 13.3-11 13.3s-11.1-6-11.1-13.2 5-13.3 11-13.3 11.1 6 11.1 13.3z" fill="#333" stroke-width="4"/>
    </g>
   </g>
   <g fill="#fff" stroke="#333">
    <path d="M1180.6 428.6v9.3c-.3 7.8-3.5 28.4-21.5 6.4"/>
    <path d="m1174.4 426.5c-2.1 5.5-5.4 12.6-8.3 12" stroke-linecap="round"/>
    <path d="m1171.7 427.6c-2.1 5.3-5.2 11.4-7.9 11" stroke-linecap="round"/>
   </g>
   <path d="m1177.1 441.9a1 1 0 1 1-2 0 1 1 0 0 1 2 0zm-7.2 0a1 1 0 1 1-2 0 1 1 0 0 1 2 0z" fill="#333" stroke="#333"/>
   <g fill="#fff" stroke="#333">
    <path d="M1174.6 427.2s.1 6.3 5.5 7.3c.5 0-1.5.4-1 .6 3.3 1.6-8.5-1.8-6.4-7.4"/>
    <path d="M1177.1 428s.1 4.3 3.5 6c.5.3.3 1 .7 1.2 1 .5.5.4-.7 0-2.2-1-6.6-3.4-5.4-6.7" stroke-linecap="round" stroke-linejoin="round"/>
    <path d="M1178.5 426.5s.1 3 2.2 5c.7.8 1.9 2.5 0 1.5-2.2-1.2-5-3.4-3.9-6.1"/>
   </g>
   <path d="m1168.4 428.5-20.36 38.04" fill="none" stroke="#333" stroke-linecap="round" stroke-width="3"/>
   <path d="m1155.8 447.9 12.4-18.4h-17.3s4.5 10.2-5.1 13.4c.1 0 11.2-5.3 10 5z" fill="#db5" stroke="#333" stroke-linejoin="round"/>
   <path d="m1138 424.7h46.4v4.3h-46z" fill="#fff"/>
   <path d="m1170.8 473.7 10.5 18.8.2-.2.3-1.3-10-17.9z" fill="#db5"/>
   <g stroke="#333">
    <path d="m1174.6 481.8-20.3-26.7h30.6z" fill="#db5"/>
    <g fill="none" stroke-linecap="round">
     <path d="m1175.5 480.6 10.1-27.2" stroke-linejoin="round" stroke-width="5"/>
     <path d="m1175.5 480.6-20.1-25.6" stroke-width="5"/>
    </g>
   </g>
   <path d="m1178 462-3.8 9.4-7.6-9.3z" fill="#e24"/>
   <g stroke="#333">
    <path d="m1161.7 460.2h21.3"/>
    <path d="M1153.2 436.7c.4 5.4 3 5.2 3.6 4.8.6-.6.8-1.9.8-1.9 1 .7-.2 3-.2 3l1.5-2.2 1.4-2.2s-1.6 2-2.7 1.4c.085.11 1.2-.8 1.4-1.5s-.7-3.2-5.8-1.4z" fill="#333" stroke-linejoin="round" stroke-width=".2"/>
    <path d="M1156.7 431.3c.4 5.3 3 5.2 3.6 4.7s.8-1.8.8-1.8c1 .7-.2 3-.2 3l1.5-2.2 1.4-2.2s-1.6 2-2.7 1.4c0 0 1.2-.8 1.4-1.6.2-.6-.7-3.1-5.8-1.3z" fill="#333" stroke-linejoin="round" stroke-width=".2"/>
   </g>
   <g stroke-linecap="round" stroke-linejoin="round">
    <path d="m1189.3 465.6-.8-5-3.4-4 5.1-.7 3.8-3.4.8 5 3.4 4-5 .7z" fill="#e24" stroke="#e24" stroke-width="2"/>
    <path d="M1189.9 454.5c6.2-2.4 2.7 2.3 2.7 2.3s1.1-5.7 3.5.5c2.4 6.1-2.3 2.7-2.3 2.7s5.7 1.1-.5 3.5c-6.1 2.4-2.7-2.3-2.7-2.3s-1.1 5.7-3.5-.5c-2.3-6.1 2.3-2.7 2.3-2.7s-5.5-1 .5-3.5z" fill="#db5" stroke="#333"/>
    <path d="m1155.3 464.9-7.7 16.1 1.3.8 7.4-15.6zm4 5.2-6.6 14 1.3.7 6.4-13.4zm4 5-5.6 11.9 1.3.7 5.4-11.2z" fill="#333" stroke="#333" stroke-width=".5"/>
   </g>
  </g>
  <use transform="rotate(180 1161.5 493.5)" xlink:href="#dF"/>
  <use id="dJ" transform="translate(101)" xlink:href="#dD"/>
  <use id="dK" transform="translate(101)" xlink:href="#dG"/>
  <use transform="translate(0 473)" style="fill:#333;stroke:#333" xlink:href="#Q"/>
  <use transform="rotate(180 1161.5 257)" style="fill:#333;stroke:#333" xlink:href="#Q"/>
 </g>
 <g id="spade_king">
  <use transform="translate(1212 423)" xlink:href="#card"/>
  <path d="M1242 465.8c-2 2-3.8 7.9 6.8 16.3-3.6 0-8.9-.8-9 5.3-.2 9.8 6.6 21.4 5.5 31 2 1.5 4 3.1 6.3 4.3 10.3 5.7 27 7 33 .5l-1.7-3.5c2-2 3.5-7.8-6.7-16 3.7 0 9 .7 9-5.4.3-9.7-6.6-21.3-5.5-31-2-1.4-3.8-3.5-6.3-4.3-5.3-1.7-23.7-2.7-31.4 2.8z" fill="#333" stroke="#333" stroke-width=".9"/>
  <use transform="rotate(180 1262.5 493.5)" xlink:href="#dI"/>
  <g id="dI">
   <g fill="#fff" stroke="#333" stroke-width=".9">
    <path d="m1283.5 487.6v-41.4l-2.3-2.4-2.3 2.3v41z" stroke-linejoin="round"/>
    <path d="M1284.5 490c1.3 1.7.5 4.7-1.6 6.3s-4.9 1.5-6.2-.3-.7-4.4 1.4-6c2.1-1.7 5-1.8 6.4 0z"/>
    <path d="M1280.4 495c-.2 1.7-1.4 3-2.7 2.8-1.3-.1-3.8-6.7.6-6.4 1.3.2 2.2 2 2.1 3.7z"/>
   </g>
   <path d="m1277.5 486h7.8v3.2h-7.8z" fill="#db5" stroke="#333" stroke-linejoin="round" stroke-width=".7"/>
   <g fill="#fff" stroke="#333" stroke-linecap="round" stroke-width=".9">
    <path d="M1283.5 489.1s-3.5-1.4-3.6 1.6l3.4.3"/>
    <path d="M1283.4 490.7s-3.5-1.4-3.6 1.6l3.4.3"/>
    <path d="M1283.3 492.3s-3.5-1.4-3.6 1.6l3.4.2"/>
    <path d="M1283.1 494s-3.5-1.3-3.6 1.6l3.4.3m-5.9-4.3 4.3-3.3s2.8 1.9-2.7 5.4" stroke-linejoin="round"/>
   </g>
   <g stroke-linejoin="round" stroke-width=".9">
    <path d="m1251.4 511.2 4.5 1 4.5-1.6-1 4.6 1.6 4.5-4.6-1-4.4 1.6 1-4.6z" fill="#e24" stroke="#e24"/>
    <path d="m1256.2 511c6.1 0 1.6 2.8 1.6 2.8s2.9-4.5 2.9 1.6-3 1.6-3 1.6 4.6 2.8-1.5 2.8-1.6-2.8-1.6-2.8-2.8 4.5-2.8-1.6 2.8-1.6 2.8-1.6-4.5-2.8 1.6-2.9z" fill="#db5" stroke="#333"/>
    <path d="m1253.9 499.8 4.6-1 3.4-3.3 1 4.6 3.3 3.3-4.6 1-3.4 3.4-1-4.7z" fill="#e24" stroke="#e24"/>
    <path d="M1258.2 497.6c5.6-2.6 2.6 2 2.6 2s.7-5.4 3.2.1c2.6 5.6-2 2.6-2 2.6s5.4.7 0 3.2c-5.7 2.7-2.7-1.9-2.7-1.9s-.7 5.3-3.2-.2c-2.6-5.5 2-2.6 2-2.6s-5.5-.7.1-3.2z" fill="#db5" stroke="#333"/>
   </g>
   <path d="m1254.3 461.6s-9 3-8.7 3.1c6.9 18.9 5.9 31.7 3.5 39.6a33 33 0 0 1-2.7 6.5v12.5a5 5 0 0 0 3.2-1.2s5.5-5.2 8.4-15.1c3-10 3.7-25-3.7-45.4z" fill="#333"/>
   <path d="M1247.6 464.1c7 19.2 6 32.4 3.6 40.8-.94 3.31-2.39 6.45-4.3 9.3v7.3c.68-.04 1.32-.32 1.8-.8 0 0 5-4.7 7.8-14.3 2.8-9.5 3.6-24-3.7-44.2z" fill="#db5"/>
   <path d="m1254.7 469.6-4.5 1.2.2.8 1.8-.5 1 3.6.9-.2-1-3.6 1.8-.5zm1.4 5.4-4.5 1 .2 1 4.5-1.1zm-1 4-1 .2.3 1.8-1.8.3.1 1 1.8-.4.3 1.9 1-.2-.3-1.8 1.8-.3-.1-.9-1.9.3zm2.8 7.3-4.7.3v1l4.7-.4zm-2.7 2v3.7h-1.8v1h4.6v-1h-1.8v-3.6zm-2.1 9v.9l1.7.2-.6 3.7 1 .2.5-3.7 2 .2v-1zm-.9 5.3-.1.7v.1l4.4 1 .2-.8zm.9 3.9-.7 1.7-1.7-.6-.3.8 1.7.7-.7 1.7.9.4.6-1.8 1.8.7.4-1-1.8-.6.7-1.7zm-4.6 5.8-.4.7 4 2.5.5-1zm.7 2.5-2.2 2.8-.6.7 2 2 .7-.7-1.4-1.3 2.3-3z" fill="#333"/>
   <g stroke="#333" stroke-width=".9">
    <path d="M1268.9 442.8c1 3.8 2.3 6 3.5 6.2 1 .2-4 .1-2.6-.2 1-.2 0 1.1 0 1.4.8 2.6 0 5.8-.9 9.7-.8 4-.6 2.2 2 3.1 2.7 1-2.2 1.9-5.4-2.6s.6 4.7 4.3 5.2-8.8-1.2-8.3-3.5-2.8 5.3-5 2.5c0 0 4.7-2.5 2.2-3 0 0-5.5 4-6.7 3.4 0 0 3.8-3.4 1.8-2.7 0 0-1.9.4-2.3-1.4" fill="#fff" stroke-linejoin="round"/>
    <g fill="#fff">
     <path d="M1245.5 443.4c-1 6-3.8 13.6-5 16.7-1.2 3.3-.3 5 1.6 6.1 1.8 1.2 4.6-5 3-5"/>
     <path d="M1247.6 442.7c-1 6.1-3.7 13.6-5 16.8-1.1 3.2-.2 5 1.7 6.1 1.8 1.1 4.6-5 3-5"/>
     <path d="M1249.6 442.8c-1 6.1-3.7 13.6-5 16.8-1.1 3.2-.2 5 1.7 6 1.8 1.2 4.6-5 3-5"/>
     <path d="M1251.9 442.4c-1 6.1-3.7 13.7-5 16.8-1.1 3.2-.2 5 1.7 6.1s4.6-5 3-5"/>
     <path d="M1253.7 441.8c-1 6.1-3.7 14.6-5 17.8-1.1 3.2-.2 5 1.7 6 1.8 1.2 4.6-5 3-5"/>
     <path d="M1255.8 441.8c-1 6.1-3.7 14.6-5 17.8-1.1 3.2-.2 5 1.7 6 1.8 1.2 4.6-5 3-5s-1.6-2.4-3 1.5" style="stroke-linecap:round"/>
    </g>
    <g stroke-linecap="round">
     <path d="m1260.6 449.9a1 1 0 1 1-1.9 0 1 1 0 0 1 1.9 0zm6.9 0a1 1 0 1 1-1.9 0 1 1 0 0 1 1.9 0z" fill="#333"/>
     <path d="m1241.1 431.4 4.7 9.6s19.4-5.6 24.7 0l5-9.6z" fill="#db5" stroke-linejoin="round"/>
    </g>
   </g>
   <path d="m1245.1 443.2s21.5-5.4 25.2 0" fill="none" stroke="#e24" stroke-linecap="round" stroke-width="2"/>
   <g stroke="#333" stroke-linecap="round">
    <path d="m1245.5 441.6s21.5-5.4 25.2 0" fill="none" stroke-width="2"/>
    <g fill="#fff" stroke-width=".9">
     <path d="m1264.8 454s3.2 2.7 4 2.2m-6.3-2.3s-2.1 2-3.3 2.3"/>
    </g>
   </g>
   <path d="M1255.1 432.7c-2.6 2.7-1.3 4-.9 4 .6.1 1.4-.4 1.4-.4 0 .9-1.7 1.3-1.7 1.3l1.8-.2 1.9-.3s-1.8 0-2-.8c0 0 1 .3 1.4 0 .5-.1 1.4-1.8-1.9-3.6zm6.6 0c-2.9 2.1-1.8 3.5-1.4 3.6.5.2 1.4-.2 1.4-.2 0 .8-1.8 1-1.8 1h3.5s-1.7-.1-1.7-1c0 0 .8.4 1.3.3s1.6-1.5-1.3-3.7zm6.8.1c-3.5 1.7-2.7 3.4-2.3 3.7.5.2 1.5 0 1.5 0-.3.9-2 .7-2 .7l1.7.4 2 .4s-1.8-.6-1.7-1.5c0 0 .8.6 1.4.6.5 0 1.9-1.3-.6-4.3zm-20 .1c-3 3.4-1.4 4.9-.9 5 .7 0 1.6-.7 1.6-.7.1 1-1.9 1.7-1.9 1.7l2.1-.4h.1l2.1-.4s-2 .1-2.3-.9c-.1 0 1 .3 1.7 0 .5-.3 1.5-2.3-2.5-4.3z" fill="#333" stroke="#333" stroke-linejoin="round" stroke-width=".2"/>
  </g>
  <use transform="translate(101)" xlink:href="#dJ"/>
  <use transform="translate(101)" xlink:href="#dK"/>
  <use transform="translate(0 473)" style="fill:#333;stroke:#333" xlink:href="#K"/>
  <use transform="rotate(180 1262.5 257)" style="fill:#333;stroke:#333" xlink:href="#K"/>
 </g>
 <g id="spade_7">
  <use transform="translate(606 423)" xlink:href="#card"/>
  <use transform="translate(606)" xlink:href="#cD"/>
  <use transform="translate(606)" xlink:href="#cF"/>
  <use id="dc" transform="translate(101)" xlink:href="#cT"/>
  <use id="dd" transform="translate(101)" xlink:href="#cU"/>
  <use id="da" transform="translate(101)" xlink:href="#cV"/>
  <use id="de" transform="translate(101)" xlink:href="#cX"/>
  <use id="df" transform="translate(101)" xlink:href="#cY"/>
  <use id="dg" transform="translate(101)" xlink:href="#cZ"/>
  <use id="dh" transform="translate(15.3 -22.3)" xlink:href="#da"/>
  <use transform="translate(0 473)" style="fill:#333;stroke:#333" xlink:href="#7"/>
  <use transform="rotate(180 656.5 257)" style="fill:#333;stroke:#333" xlink:href="#7"/>
 </g>
 <g id="spade_8">
  <use transform="translate(707 423)" xlink:href="#card"/>
  <use transform="translate(707)" xlink:href="#cD"/>
  <use transform="translate(707)" xlink:href="#cF"/>
  <use transform="translate(101)" xlink:href="#dc"/>
  <use transform="translate(101)" xlink:href="#dd"/>
  <use transform="translate(101)" xlink:href="#da"/>
  <use transform="translate(101)" xlink:href="#de"/>
  <use transform="translate(101)" xlink:href="#df"/>
  <use transform="translate(101)" xlink:href="#dg"/>
  <use id="di" transform="translate(101)" xlink:href="#dh"/>
  <use transform="rotate(180 757.5 493.5)" xlink:href="#di"/>
  <use transform="translate(0 473)" style="fill:#333;stroke:#333" xlink:href="#8"/>
  <use transform="rotate(180 757.5 257)" style="fill:#333;stroke:#333" xlink:href="#8"/>
 </g>
 <g id="spade_9">
  <use transform="translate(808 423)" xlink:href="#card"/>
  <use transform="translate(808)" xlink:href="#cD"/>
  <use transform="translate(808)" xlink:href="#cF"/>
  <use id="dp" transform="translate(404)" xlink:href="#dk"/>
  <use id="dr" transform="translate(404)" xlink:href="#dl"/>
  <use id="dq" transform="translate(404)" xlink:href="#dm"/>
  <use id="ds" transform="translate(404)" xlink:href="#dn"/>
  <use transform="translate(404 -.9)" xlink:href="#do"/>
  <use id="du" transform="translate(0 27.6)" xlink:href="#dp"/>
  <use id="dv" transform="translate(0 27.6)" xlink:href="#dq"/>
  <use id="dw" transform="translate(0 -27.6)" xlink:href="#dr"/>
  <use id="dx" transform="translate(0 -27.6)" xlink:href="#ds"/>
  <use transform="translate(0 473)" style="fill:#333;stroke:#333" xlink:href="#9"/>
  <use transform="rotate(180 858.5 257)" style="fill:#333;stroke:#333" xlink:href="#9"/>
 </g>
 <g id="spade_10">
  <use transform="translate(909 423)" xlink:href="#card"/>
  <use transform="translate(909)" xlink:href="#cD"/>
  <use transform="translate(909)" xlink:href="#cF"/>
  <use transform="translate(101)" xlink:href="#dp"/>
  <use transform="translate(101)" xlink:href="#dr"/>
  <use transform="translate(101)" xlink:href="#dq"/>
  <use transform="translate(101)" xlink:href="#ds"/>
  <use id="dy" transform="translate(101 4)" xlink:href="#du"/>
  <use transform="translate(101 4)" xlink:href="#dv"/>
  <use id="dz" transform="translate(101 -4)" xlink:href="#dw"/>
  <use transform="translate(101 -4)" xlink:href="#dx"/>
  <use transform="translate(15.3 -15.7)" xlink:href="#dy"/>
  <use transform="translate(15.3 15.7)" xlink:href="#dz"/>
  <use transform="translate(0 473)" style="fill:#333;stroke:#333" xlink:href="#10"/>
  <use transform="rotate(180 959.5 257)" style="fill:#333;stroke:#333" xlink:href="#10"/>
 </g>
 <g id="heart_2">
  <use transform="translate(101 282)" xlink:href="#card"/>
  <use transform="translate(101)" xlink:href="#by"/>
  <use transform="translate(101)" xlink:href="#bw"/>
  <path id="bz" d="M146.8 295.3c-3.6 0-6 1.8-6 5.7 0 7.2 8.8 6.9 10.2 12.3.2 1 .3 4.3.5 4.3s.3-3.3.5-4.3c1.4-5.5 10.3-5.1 10.3-12.3 0-3.9-2.6-5.7-6.2-5.7a6.2 6.2 0 0 0-4.6 2.2 6.2 6.2 0 0 0-4.6-2.2z" fill="#e24" stroke="#e24" stroke-linejoin="round" stroke-width="1.2"/>
  <use id="bB" transform="rotate(180 151.5 352.5)" xlink:href="#bz"/>
  <use transform="translate(0 332)" style="fill:#e24;stroke:#e24" xlink:href="#2"/>
  <use transform="rotate(180 151.5 186.5)" style="fill:#e24;stroke:#e24" xlink:href="#2"/>
 </g>
 <g id="heart_3">
  <use transform="translate(202 282)" xlink:href="#card"/>
  <use transform="translate(202)" xlink:href="#by"/>
  <use transform="translate(202)" xlink:href="#bw"/>
  <use transform="translate(101)" xlink:href="#bz"/>
  <use transform="translate(101)" xlink:href="#bB"/>
  <use id="bI" transform="translate(101 46.8)" xlink:href="#bz"/>
  <use transform="translate(0 332)" style="fill:#e24;stroke:#e24" xlink:href="#3"/>
  <use transform="rotate(180 252.5 186.5)" style="fill:#e24;stroke:#e24" xlink:href="#3"/>
 </g>
 <g id="heart_4">
  <use transform="translate(303 282)" xlink:href="#card"/>
  <use transform="translate(303)" xlink:href="#by"/>
  <use transform="translate(303)" xlink:href="#bw"/>
  <use id="bD" transform="translate(186.7)" xlink:href="#bz"/>
  <use id="bE" transform="translate(186.7)" xlink:href="#bB"/>
  <use id="bG" transform="translate(30.7)" xlink:href="#bD"/>
  <use id="bH" transform="translate(30.7)" xlink:href="#bE"/>
  <use transform="translate(0 332)" style="fill:#e24;stroke:#e24" xlink:href="#4"/>
  <use transform="rotate(180 353.5 186.5)" style="fill:#e24;stroke:#e24" xlink:href="#4"/>
 </g>
 <g id="heart_5">
  <use transform="translate(404 282)" xlink:href="#card"/>
  <use transform="translate(404)" xlink:href="#by"/>
  <use transform="translate(404)" xlink:href="#bw"/>
  <use id="cb" transform="translate(101)" xlink:href="#bD"/>
  <use id="cc" transform="translate(101)" xlink:href="#bE"/>
  <use id="cd" transform="translate(101)" xlink:href="#bG"/>
  <use id="ce" transform="translate(101)" xlink:href="#bH"/>
  <use id="cf" transform="translate(202)" xlink:href="#bI"/>
  <use transform="translate(0 332)" style="fill:#e24;stroke:#e24" xlink:href="#5"/>
  <use transform="rotate(180 454.5 186.5)" style="fill:#e24;stroke:#e24" xlink:href="#5"/>
 </g>
 <g id="heart_6">
  <use transform="translate(505 282)" xlink:href="#card"/>
  <use transform="translate(505)" xlink:href="#by"/>
  <use transform="translate(505)" xlink:href="#bw"/>
  <use id="bK" transform="translate(202)" xlink:href="#bD"/>
  <use id="bN" transform="translate(202)" xlink:href="#bE"/>
  <use id="bO" transform="translate(202)" xlink:href="#bG"/>
  <use id="bL" transform="translate(202)" xlink:href="#bH"/>
  <use id="bP" transform="translate(0 48.3)" xlink:href="#bK"/>
  <use id="bQ" transform="translate(0 -48.3)" xlink:href="#bL"/>
  <use transform="translate(0 332)" style="fill:#e24;stroke:#e24" xlink:href="#6"/>
  <use transform="rotate(180 555.5 186.5)" style="fill:#e24;stroke:#e24" xlink:href="#6"/>
 </g>
 <g id="heart_jack">
  <use transform="translate(1010 282)" xlink:href="#card"/>
  <path d="m1073.3 310s-30.3 22.4-35.2 50.6l9.6 34.3s30.4-22.4 35.2-50.5z" fill="#333" stroke="#333"/>
  <g id="ct">
   <g fill="#db5" stroke="#333">
    <path d="M1078 293c-7.3 8-1 15.8-.2 15.5.3-6.2 4.2-5 9.9-5l3-2-3-2c-5.7-.3-9.7 1.1-9.7-6.4z" stroke-linejoin="round"/>
    <path d="m1082.3 292.3 1.8-3.8 1.8 3.8-.7 2V365h-2.2v-70.6z" stroke-linejoin="round"/>
    <path d="M1057.9 338.1c-1 0-2 .7-2 2-.1 1.5.6 2.7 1.5 3.8 1.2 1.4 2.2 3.3 4 3.9 1.6.5 2.7-1.7 2.2-3-.6-1.4-1.8-2.3-2.7-3.4-1-1.1-1.4-3-3-3.2zm24.6 8.6c-1.8 1.1-3.8 1-5.4 2.5-1 1-.4 3.6 1 3.7a3.3 3.3 0 0 0 3-.8c.4-1.8 1.1-3.6 1.4-5.4zm-16 .1c-1 0-1.4 1.2-1.5 2a2.4 2.4 0 0 0 1.4 2.6c2.1 1 4.3 2 6.6 1.7 1.5-.2 2-2.5 1-3.7-1-1.4-2.9-1-4.3-1.6a8.2 8.2 0 0 0-3.1-1z" stroke-width=".8"/>
   </g>
   <g stroke="#333">
    <g>
     <path transform="translate(-274.5 -161.6)" d="m1343.7 476-22 4.7.3 29.4z" fill="#e24"/>
     <path d="m1070.6 312.2-23.2 36.3" fill="none" stroke-linecap="round" stroke-width="4"/>
     <path transform="translate(-274.5 -161.6)" d="m1316.1 476c4.9 13.7 33.1 2.6 28.4-10.3" fill="#e24"/>
     <path transform="translate(-274.5 -161.6)" d="m1318 475.3c4 11 28.4 1.5 24.7-9" fill="#db5"/>
     <path transform="translate(-274.5 -161.6)" d="M1319.7 474.7c3.2 8.8 23.9.6 21-7.6" fill="#e24"/>
     <path transform="translate(-274.5 -161.6)" d="M1337.3 470.4c-9.5 2.3-12.2 7.4-15.2 6.2-5.5-2.2-6.2-9.7-6.2-9.7-2-2.2-1.7-.7 1.3-7 .7-1.6-2-4.6-2-4.6" fill="#fff"/>
    </g>
    <g fill="#db5" stroke-linecap="round" stroke-linejoin="round">
     <path transform="translate(-274.5 -161.6)" d="m1330.5 455.4c1.5 10.3 1.4 16.2 8.7 16.9"/>
     <path transform="translate(-274.5 -161.6)" d="m1333.5 455.9c1.1 5.8-1.2 14.3 7.3 16.5"/>
     <path transform="translate(-274.5 -161.6)" d="M1336.6 455.8c-.6 7.4-.3 16.4 7.7 17.5"/>
     <path transform="translate(-274.5 -161.6)" d="M1338.9 456.4c.2 7.4-.7 14.9 7.7 17"/>
     <path transform="translate(-274.5 -161.6)" d="M1347.9 471.9c.1-2 1.6-1.7 2.1-.6 1 2-.1 3.3-2 2.6-6.3-2.5-5.5-9.2-6.4-16.1"/>
    </g>
    <path transform="translate(-274.5 -161.6)" d="M1344.2 458.8c.6 4.6 1 9.2 3.7 13" fill="none" stroke-linecap="round" stroke-linejoin="round"/>
    <path transform="translate(-274.5 -161.6)" d="m1322.9 459.9a1 1 0 1 1-2 0 1 1 0 0 1 2 0z" fill="#333" stroke-linecap="round"/>
   </g>
   <g fill="none" stroke-linecap="round">
    <path transform="translate(-274.5 -161.6)" d="M1318 467.3s1.1-.3 2.6 1.2" stroke="#333"/>
    <path d="m1070.6 312.2-23.2 36.3" stroke="#fff" stroke-width="1.5"/>
    <path d="m1043.1 314.7s8.4 15.5 3.6 34.7" stroke="#333" stroke-width="4"/>
    <path d="m1043.1 314.7s8.4 15.5 3.6 34.7" stroke="#fff" stroke-width="1.5"/>
   </g>
   <g fill="#fff" stroke="#333" stroke-linecap="round">
    <path d="M1078.9 337c1 1.7 4.7 2.4 6.9 1.2.5-.2-.2 2.5.2 2.2 1.2-1.3 1.4-5.9 1-7.4-.5-2.4-3.4-2.4-5.6-1.2s-3.6 3.5-2.5 5.2z" stroke-width=".8"/>
    <g>
     <path transform="matrix(-1 0 0 1 2397.8 -167.3)" d="M1315.6 505c0 1-1 2.3-.6 2.8.5.5 2.6.3 3.3.3 1.5 0 4.5-6-.3-5.7-1.4.1-2.5.9-2.4 2.7z"/>
     <path transform="matrix(-1 0 0 1 2397.8 -167.3)" d="m1320.1 503-3.7-5s-3.4 1.2 1.6 6.3" stroke-linejoin="round"/>
     <path transform="matrix(-1 0 0 1 2397.8 -167.3)" d="M1312.1 498.5s3.8-1.3 3.8 2l-3.8.1"/>
     <path transform="matrix(-1 0 0 1 2397.8 -167.3)" d="M1312.5 500.2s3.8-1.3 3.8 1.9l-3.8.2"/>
     <path transform="matrix(-1 0 0 1 2397.8 -167.3)" d="M1312.7 502s3.8-1.4 3.8 1.8l-3.8.2"/>
     <path transform="matrix(-1 0 0 1 2397.8 -167.3)" d="M1312.7 503.8s3.8-1.3 3.8 1.9l-3.8.2"/>
    </g>
   </g>
   <path d="m1040.9 295.6s11.4-4.9 29.4 3.5l6.4-10.6h-40.1z" fill="#e24"/>
   <g fill="none" stroke-linecap="round" stroke-linejoin="round">
    <g stroke="#fff">
     <path transform="translate(-274.5 -161.6)" d="m1313.7 450.3 2.6 4.6 4.6-.5 1.2-3.8m3-.2 1.4 3.5 6.3.8 2-4.1m3.8 0-1.1 4.6 5.4 1.9 5.9-6.8"/>
    </g>
    <path transform="translate(-274.5 -161.6)" d="m1315.4 457.2s11.4-5 29.4 3.5l6.4-10.6h-40.1z" stroke="#333"/>
   </g>
   <path d="M1053.1 323c-.2 0-.4 0-.6.2-.9.6-1.5 1.6-.5 2.8.6.6 2.1 1 2.4 1.8l.1 1.2.1-1.2c.3-.9 1.8-1.2 2.4-1.8 1-1.2.4-2.2-.5-2.8s-2 .3-2 .3-.7-.5-1.4-.5z" fill="#333" stroke="#333" stroke-width=".5"/>
  </g>
  <use transform="rotate(180 1060.5 352.5)" xlink:href="#ct"/>
  <path id="cu" d="M1025.9 309.5c2.7 0 4.6 2 4.6 4.9 0 5.4-6.7 5.1-7.7 9.3l-.3 3.2c-.1 0-.2-2.5-.4-3.2-1-4.2-7.7-3.9-7.7-9.3 0-3 2-4.9 4.6-4.9 1.3 0 2.6.6 3.5 1.6a4.6 4.6 0 0 1 3.4-1.6z" fill="#e24" stroke="#e24" stroke-linejoin="round"/>
  <use id="cx" transform="rotate(180 1060.5 352.5)" xlink:href="#cu"/>
  <use transform="translate(0 332)" style="fill:#e24;stroke:#e24" xlink:href="#J"/>
  <use transform="rotate(180 1060.5 186.5)" style="fill:#e24;stroke:#e24" xlink:href="#J"/>
 </g>
 <g id="heart_queen">
  <use transform="translate(1111 282)" xlink:href="#card"/>
  <path d="M1154 341h10v-.6h-10zm0 1.3h10v-.6h-10zm0 1.9h12v-.7h-12zm0 1.2h12v-.6h-12zm0 2h12V346h-12zm0 1.2h12v-.7h-12zm0 1.2h12v-.6h-12zm2 1.9h12v-.6h-12zm0 1.3h12v-.6h-12zm0 1.9h12v-1.3h-12zm0 1.2h12v-.6h-12zm0 1.3h12v-.7h-12zm0 1.8h12v-.6h-12zm0 1.3h12v-.6h-12zm0 1.9h14v-1.3h-14zm0 1.2h14v-.6h-14zm0 1.3h14v-.6h-14z" fill="#333"/>
  <g id="cw">
   <g stroke="#333">
    <g fill="#fff">
     <path d="m1171.8 316.9c0 7.8-6 14-13.6 14s-13.6-6.2-13.6-14 6-14.1 13.6-14.1 13.6 6.3 13.6 14z" stroke-width="5"/>
     <path transform="translate(-292.4 -161.6)" d="M1442.8 450v8.7c.2 8 3.1 29.4 18.9 6.6"/>
     <path transform="translate(-292.4 -161.6)" d="m1446.2 447.6c3.1 6 7.6 13.5 10.4 12.6" stroke-linecap="round"/>
     <path transform="translate(-292.4 -161.6)" d="m1449 448.4c3 5.7 7.2 12.3 9.7 11.4m-6.7-11c3.1 5.8 7.4 12.7 10 12"/>
    </g>
    <path transform="translate(-292.4 -161.6)" d="M1447.6 464.3c0 .7-.5 1.2-1 1.2s-1-.5-1-1.2.5-1.2 1-1.2 1 .5 1 1.2zm7.2 0c0 .7-.5 1.2-1 1.2s-1-.5-1-1.2.5-1.2 1-1.2 1 .5 1 1.2z" fill="#333" stroke-linecap="round"/>
    <g fill="#fff">
     <path transform="translate(-292.4 -161.6)" d="M1446 448.4s1 7.2-4.1 9.2c-.5.2 1.5.2 1.1.6-2.9 2.3 8.1-3.4 5-9.5" stroke-linecap="round" stroke-linejoin="round"/>
     <path transform="translate(-292.4 -161.6)" d="M1443.8 449.7s.6 5-2.4 7.5c-.4.4-.1 1.1-.5 1.4-.9.7-.4.6.6 0 2-1.5 5.9-5 4.1-8.6" stroke-linecap="round"/>
     <path transform="translate(-292.4 -161.6)" d="M1442 448.2s.5 3.6-1.2 6.2c-.6 1-1.5 3.1.2 1.6 2-1.7 4.3-4.6 2.8-7.5"/>
    </g>
   </g>
   <path d="m1174.3 306.9-12.4-18.4h17.3s-4.5 10.2 5.1 13.4c0 0-11.2-5.3-10 5z" fill="#db5" stroke="#333" stroke-linecap="round" stroke-linejoin="round"/>
   <g fill="#db5" stroke="#e24">
    <path transform="translate(-292.4 -161.6)" d="m1467.7 473.3-38.7 9.7c4.7 19 43.1 8.2 38.7-9.6z" stroke-linejoin="round"/>
    <path d="m1139.2 320.8c3.8 15.5 37.2 6.2 33.6-8.3" fill="none" stroke-width="1.5"/>
    <path transform="translate(-292.4 -161.6)" d="m1434 481.7c3 12.2 31.4 4.3 28.6-7" fill="none"/>
   </g>
   <g stroke-linecap="round">
    <path d="m1159.6 287.2 22.3 35.4" fill="none" stroke="#333" stroke-width="3"/>
    <path d="M1171.6 290.1a1.2 1.2 0 0 0-.5-.4c-.9-.4-2-.3-2.4 1-.3.8.3 2.2-.3 2.9-.3.3-1 .6-.9.7l1-.5c.9-.2 1.9.8 2.7 1 1.4.2 2-.8 2-1.8s-1.3-1.5-1.3-1.5 0-.8-.3-1.4zm3.5 5.6a1.2 1.2 0 0 0-.5-.4c-.9-.5-2-.4-2.4 1-.3.8.3 2.1-.3 2.8l-.9.7 1-.5c.9-.2 1.9.9 2.7 1 1.4.2 2-.8 2-1.8s-1.3-1.4-1.3-1.4 0-.8-.3-1.4z" fill="#e24" stroke="#e24" stroke-linejoin="round" stroke-width=".3"/>
   </g>
   <path d="M1181.9 322.6c-10.8 4-15.1 23.2-10 35.8 3.4 4.5-.8-11.6.5-13.8 2.5-4.6 10.4 6 9.6 10.4-2 10.8-11 29-12.9 29.2-1 0 1-18-2.6-29.9-3.1-10.5-19.7-18.7-19-25.2 1.5-14 29.9-14 29.9-14z" fill="#333" stroke="#333"/>
   <path d="M1167.1 319.3c-1 0-2 .8-1.6 2.1.2.8 1.4 1.7 1.2 2.6 0 .4-.4 1-.4 1l.6-1c.6-.6 2-.2 2.8-.5 1.4-.6 1.3-1.7.8-2.6s-1.9-.5-1.9-.5-.4-.8-1-1a1.2 1.2 0 0 0-.5-.1zm-3.3 6.2c-1 .1-2 .8-1.6 2.2.2.8 1.3 1.7 1.2 2.6 0 .3-.4 1-.4 1s.3-.7.6-1c.6-.6 2-.2 2.8-.5 1.3-.6 1.3-1.7.8-2.6s-1.9-.5-1.9-.5-.3-.8-1-1a1.2 1.2 0 0 0-.5-.2z" fill="#e24" stroke="#e24" stroke-width=".4"/>
   <path d="m1147 284.2h46.9v3.8h-47z" fill="#fff"/>
   <g stroke="#333" stroke-linecap="round">
    <path d="M1173.2 360.4c-2.3 2.5 1 4.4 1 4.4s-3.5 2.2-1 4.7 4.8-1.2 4.8-1.2 2.1 2.6 4.2.3c2.1-2.2-.7-4.1-.7-4.1s2.3-2.3 0-4.3-3.9.8-3.9.8-2.5-2.6-4.4-.6z" fill="#db5" stroke-linejoin="round"/>
    <path transform="rotate(180 1161.5 352.5)" d="m1148.9 340.2-3.5 3.8-3.9-3.5 3.6-3.8z" fill="#e24" stroke-linejoin="round"/>
    <g fill="#fff">
     <path transform="rotate(213 1159.7 347.6)" d="M1139.6 359.6c-.1-2.3 2.1-4.4 5-4.5s5.3 1.7 5.4 4-2.1 4.5-5 4.6-5.3-1.7-5.4-4z"/>
     <path transform="rotate(213 1159.7 347.6)" d="M1146.3 360c1 1.4 2.8 2 4 1s0-8-3.8-5c-1.2.8-1.3 2.6-.2 4z"/>
     <path transform="rotate(213 1159.7 347.6)" d="m1148.7 355.4-5.6-1.7s-2.2 3 4.8 4.4"/>
     <g stroke-linejoin="round">
      <path transform="rotate(213 1159.7 347.6)" d="M1140.1 356.3s2.5-3.2 4.2-.5l-3 2.2"/>
      <path transform="rotate(213 1159.7 347.6)" d="M1141.1 357.7s2.5-3.2 4.2-.5l-3 2.2"/>
      <path transform="rotate(213 1159.7 347.6)" d="M1142.1 359.1s2.5-3.2 4.2-.5l-3 2.2"/>
      <path transform="rotate(213 1159.7 347.6)" d="M1143.2 360.6s2.5-3.2 4.2-.5l-3 2.2"/>
     </g>
    </g>
   </g>
  </g>
  <use transform="rotate(180 1161.5 352.5)" xlink:href="#cw"/>
  <use id="cA" transform="translate(101)" xlink:href="#cu"/>
  <use id="cB" transform="translate(101)" xlink:href="#cx"/>
  <use transform="translate(0 332)" style="fill:#e24;stroke:#e24" xlink:href="#Q"/>
  <use transform="rotate(180 1161.5 186.5)" style="fill:#e24;stroke:#e24" xlink:href="#Q"/>
 </g>
 <g id="heart_king">
  <use transform="translate(1212 282)" xlink:href="#card"/>
  <path d="m1251.6 344.2-5.6 42.2 34-.4-6.5-25.2 5.6-42.3-34 .5z" fill="#e24"/>
  <use transform="rotate(180 1262.5 352.5)" xlink:href="#cz"/>
  <g id="cz">
   <g fill="#333">
    <path d="M1275.4 314s4-8.3 8.5-8.4c5.2 0 4 22.7.2 25-8.7 5-7.6 10.6-7.6 26.7" stroke="#333"/>
    <path d="M1259.2 332.6a1.7 1.7 0 0 0-.8.2c-1.3.8-2 2.2-.6 3.8.7.9 2.8 1.3 3.2 2.5l.1 1.6c.1 0 0-1 .2-1.6.4-1.2 2.5-1.6 3.2-2.5 1.4-1.6.6-3-.6-3.8s-2.8.5-2.8.5-1-.8-1.9-.7z" stroke="#333" stroke-width=".5"/>
    <path d="M1259.6 310.1c-4.2.9-12-4.8-12 3.7l-3.7 1.8 4.6 7.8c4.4.2 5.7 4 5.7 4 5.4-9.6 30.2-2.3 28.2-13.8z"/>
   </g>
   <g stroke="#333">
    <g>
     <g fill="#fff" stroke-linecap="round">
      <path transform="translate(-310.3 -161.6)" d="M1582 464.9h4.8v-5.3l-6.5.1a35 35 0 0 0 1.7 5.2zm7.5-6c1.9-1.4 4.8-.7 6.6 1.6 1.7 2.3 1.6 5.3-.3 6.7s-4.8.8-6.6-1.5c-1.7-2.3-1.6-5.3.3-6.7z"/>
      <path transform="translate(-310.3 -161.6)" d="M1594.8 463.1c1.8.2 3 1.5 2.9 3s-7.3 4.1-6.8-.7c.1-1.4 2.1-2.5 3.9-2.3zm-6.4-3.4s-1.5 3.8 1.7 4l.3-3.8"/>
      <g stroke-linejoin="round">
       <path transform="translate(-310.3 -161.6)" d="M1590.1 459.8s-1.5 3.8 1.7 4l.3-3.8"/>
       <path transform="translate(-310.3 -161.6)" d="M1591.8 460s-1.5 3.8 1.7 4l.3-3.8"/>
       <path transform="translate(-310.3 -161.6)" d="M1593.7 460.2s-1.5 3.8 1.7 4l.3-3.8"/>
      </g>
     </g>
     <path d="M1279.4 305.7c.7 4.4-1.9 1.7-2.7 0-.4-.8-1.2-7.3 0-11.8s4.4-1.1 4 0-1.3.6-1.9 3.4.5 7.5.6 8.4z" fill="#db5" stroke-linecap="round" stroke-linejoin="round"/>
     <g fill="#fff">
      <path transform="translate(-310.3 -161.6)" d="m1591.1 466.8-3.6-4.6s2-3 5.8 3m-37.6-6.8c-1 4.1-2.5 4.8-3.8 5.1 4.4.2 1.5-1 3.9 1.3-.8 2.8.3 4.3 1.2 8.5s-.7 2.4-3.5 3.4 2.4 2.1 5.9-2.7.8 5-3.2 5.4 8-1.3 7.5-3.8 3 6.7 5.3 3.7l-2.3-4.2s5.9 4.4 7.2 3.7c0 0-4.1-3.7-1.9-3 0 0 2 .5 2.5-1.5" stroke-linecap="round" stroke-linejoin="round"/>
      <path transform="translate(-310.3 -161.6)" d="M1579.4 456.7c1 6.6 4.5 12.7 5.8 16.1 1.3 3.5.3 5.4-1.7 6.6s-5-5.4-3.3-5.4"/>
      <path transform="translate(-310.3 -161.6)" d="M1577.6 456c1 6.6 4 12.7 5.3 16.1 1.3 3.5.3 5.4-1.7 6.6s-5-5.4-3.3-5.4"/>
      <path transform="translate(-310.3 -161.6)" d="M1575.4 455.6c1 6.6 4 13.3 5.3 16.7 1.3 3.5.3 5.4-1.7 6.6s-5-5.4-3.3-5.4"/>
      <path transform="translate(-310.3 -161.6)" d="M1572.9 455.1c1 6.6 4 13.3 5.3 16.7 1.3 3.5.3 5.4-1.7 6.6s-5-5.4-3.3-5.4"/>
      <path transform="translate(-310.3 -161.6)" d="M1571 454.2c1 6.6 4 14.7 5.3 18.1 1.3 3.5.3 5.4-1.7 6.6s-5-5.4-3.3-5.4"/>
      <path transform="translate(-310.3 -161.6)" d="M1568.8 454.2c1 6.6 4 14.7 5.3 18.1 1.3 3.5.3 5.4-1.7 6.6s-5-5.4-3.3-5.4 1.7-2.7 3.3 1.5" stroke-linecap="round"/>
     </g>
    </g>
    <g stroke-linecap="round">
     <path d="M1257.5 303a1 1 0 1 1-2 0 1 1 0 0 1 2 0zm-6 .5a1 1 0 1 1-2 0 1 1 0 0 1 2 0z" fill="#333"/>
     <path d="m1280.4 320.9s-19.5 20.5 2.4 63.9" fill="none" stroke-width="8.9"/>
    </g>
   </g>
   <path d="m1280.4 320.9s-19.5 20.5 2.4 63.9" fill="none" stroke="#fff" stroke-linecap="round" stroke-width="5.3"/>
   <path d="m1276.1 324.2.8.5 2.4-3.6-.6-.5zm-3.5 8.3.8.2 1.5-4.1-.8-.3zm-1.7 8.8h.8l.6-4.3-.8-.2zm-.2 8.9h.9l-.1-4.5h-1zm.4 4.4.7 4.4.9-.1-.7-4.4zm1.7 8.8 1.2 4.3.8-.3-1.2-4.2zm2.6 8.5 1.6 4.2.8-.3-1.6-4.2zm3.4 8.3 1.9 4 .7-.4-1.8-4zM1277 328l.8.4 1.9-3.7-.8-.5zm-2.7 8.8.9.2 1-4.3-.8-.2zm-.9 9h.9l.3-4.4-1-.1zm.1 4.4.4 4.4h1l-.5-4.4zm1.1 8.8 1 4.4.9-.2-1-4.3zm2.2 8.7 1.4 4.3.9-.4-1.4-4.2zm3 8.4 1.8 4.1.8-.4-1.8-4z" fill="#333"/>
   <path d="m1242 288.5 2.9 9.2s13-6.3 24.9 0l4.2-9.2z" fill="#db5" stroke="#333" stroke-linejoin="round"/>
   <path d="M1255.8 289.9c-.5 0-1 .4-1 .4s-.411-.5-.9-.4c-.48.1-1.76.86-.6 2.1.342.36 1.4.6 1.6 1.2v.7l.1-.7c.2-.7 1.24-.86 1.6-1.3.87-1.067-.276-2-.8-2zm4.3 0c-.39-.006-1.7.75-.8 2 .34.45 1.4.6 1.6 1.3v.7l.1-.7c.2-.6 1.32-.78 1.7-1.2.941-1.035-.1-2.15-.7-2-.5 0-1 .3-1 .3s-.4-.4-.9-.4zm-10.8.6c-.5 0-1 .5-1 .5s-.5-.3-1-.1c-.16.06-1.63 1.04-.3 2.1.46.36 1.5.3 1.8.9.2.2.3.7.3.7s-.1-.5 0-.8c0-.6.97-1.013 1.2-1.5.67-1.41-.58-1.9-1-1.8zm17.2 0c-.32-.038-1.6.56-.9 1.8.29.51 1.2.9 1.3 1.5 0 .3-.1.8 0 .8 0 0 0-.5.2-.8.3-.5 1.29-.5 1.8-.9 1.23-.94-.056-1.91-.3-2-.5-.1-1 .1-1 .1s-.5-.5-1-.5z" fill="#e24" stroke="#e24" stroke-linejoin="round" stroke-width=".4"/>
   <g stroke="#333">
    <path d="m1247.4 296.8c-1.6 2.3-1.3 4.1-2 6.4" fill="none"/>
    <path d="m1255 307.2s2.9 2.6 3.7 2m-6.7-1.7s-1.6 1.8-2.9 2" fill="#fff" stroke-linecap="round" stroke-width=".9"/>
   </g>
  </g>
  <use transform="translate(101)" xlink:href="#cA"/>
  <use transform="translate(101)" xlink:href="#cB"/>
  <use transform="translate(0 332)" style="fill:#e24;stroke:#e24" xlink:href="#K"/>
  <use transform="rotate(180 1262.5 186.5)" style="fill:#e24;stroke:#e24" xlink:href="#K"/>
 </g>
 <g id="heart_7">
  <use transform="translate(606 282)" xlink:href="#card"/>
  <use transform="translate(606)" xlink:href="#by"/>
  <use transform="translate(606)" xlink:href="#bw"/>
  <use id="bR" transform="translate(101)" xlink:href="#bK"/>
  <use id="bT" transform="translate(101)" xlink:href="#bN"/>
  <use id="bU" transform="translate(101)" xlink:href="#bO"/>
  <use id="bV" transform="translate(101)" xlink:href="#bL"/>
  <use id="bW" transform="translate(101)" xlink:href="#bP"/>
  <use id="bX" transform="translate(101)" xlink:href="#bQ"/>
  <use id="bY" transform="translate(15.3 24.1)" xlink:href="#bR"/>
  <use transform="translate(0 332)" style="fill:#e24;stroke:#e24" xlink:href="#7"/>
  <use transform="rotate(180 656.5 186.5)" style="fill:#e24;stroke:#e24" xlink:href="#7"/>
 </g>
 <g id="heart_8">
  <use transform="translate(707 282)" xlink:href="#card"/>
  <use transform="translate(707)" xlink:href="#by"/>
  <use transform="translate(707)" stroke="#000" xlink:href="#bw"/>
  <use transform="translate(101)" xlink:href="#bR"/>
  <use id="bZ" transform="translate(101)" xlink:href="#bT"/>
  <use transform="translate(101)" xlink:href="#bU"/>
  <use transform="translate(101)" xlink:href="#bV"/>
  <use transform="translate(101)" xlink:href="#bW"/>
  <use transform="translate(101)" xlink:href="#bX"/>
  <use transform="translate(101)" xlink:href="#bY"/>
  <use transform="translate(15.3 -25.1)" xlink:href="#bZ"/>
  <use transform="translate(0 332)" style="fill:#e24;stroke:#e24" xlink:href="#8"/>
  <use transform="rotate(180 757.5 186.5)" style="fill:#e24;stroke:#e24" xlink:href="#8"/>
 </g>
 <g id="heart_9">
  <use transform="translate(808 282)" xlink:href="#card"/>
  <use transform="translate(808)" xlink:href="#by"/>
  <use transform="translate(808)" xlink:href="#bw"/>
  <use id="cg" transform="translate(404)" xlink:href="#cb"/>
  <use id="ci" transform="translate(404)" xlink:href="#cc"/>
  <use id="ch" transform="translate(404)" xlink:href="#cd"/>
  <use id="cj" transform="translate(404)" xlink:href="#ce"/>
  <use id="cl" transform="translate(404 3.5)" xlink:href="#cf"/>
  <use id="cm" transform="translate(0 30.7)" xlink:href="#cg"/>
  <use id="cn" transform="translate(0 30.7)" xlink:href="#ch"/>
  <use id="co" transform="translate(0 -30.7)" xlink:href="#ci"/>
  <use id="cp" transform="translate(0 -30.7)" xlink:href="#cj"/>
  <use transform="translate(0 332)" style="fill:#e24;stroke:#e24" xlink:href="#9"/>
  <use transform="rotate(180 858.5 186.5)" style="fill:#e24;stroke:#e24" xlink:href="#9"/>
 </g>
 <g id="heart_10">
  <use transform="translate(909 282)" xlink:href="#card"/>
  <use transform="translate(909)" xlink:href="#by"/>
  <use transform="translate(909)" xlink:href="#bw"/>
  <use transform="translate(101)" xlink:href="#cg"/>
  <use transform="translate(101)" xlink:href="#ci"/>
  <use transform="translate(101)" xlink:href="#ch"/>
  <use transform="translate(101)" xlink:href="#cj"/>
  <use transform="translate(101 -35)" xlink:href="#cl"/>
  <use transform="translate(101)" xlink:href="#cm"/>
  <use transform="translate(101)" xlink:href="#cn"/>
  <use id="cq" transform="translate(101)" xlink:href="#co"/>
  <use transform="translate(101)" xlink:href="#cp"/>
  <use transform="translate(15.3 15.3)" xlink:href="#cq"/>
  <use transform="translate(0 332)" style="fill:#e24;stroke:#e24" xlink:href="#10"/>
  <use transform="rotate(180 959.5 186.5)" style="fill:#e24;stroke:#e24" xlink:href="#10"/>
 </g>
 <g id="diamond_1">
  <use transform="translate(0 141)" xlink:href="#card"/>
  <use transform="matrix(2.73 0 0 2.74 -363.1 -240.15)" xlink:href="#aq"/>
  <use id="an" transform="matrix(.645 0 0 .64 -84.96 69.12)" xlink:href="#aq"/>
  <use id="ap" transform="rotate(180 50.5 211.5)" xlink:href="#an"/>
  <use transform="translate(0 191)" style="fill:#e24;stroke:#e24" xlink:href="#A"/>
  <use transform="rotate(180 50.5 116)" style="fill:#e24;stroke:#e24" xlink:href="#A"/>
 </g>
 <g id="diamond_2">
  <use transform="translate(101 141)" xlink:href="#card"/>
  <path id="aq" d="m142.7 164 8.8-11 8.8 11-8.8 13z" fill="#e24" stroke="#e24" stroke-linejoin="round"/>
  <use transform="translate(101)" xlink:href="#an"/>
  <use transform="translate(101)" xlink:href="#ap"/>
  <use id="as" transform="rotate(180 151.5 211.5)" xlink:href="#aq"/>
  <use transform="translate(0 191)" style="fill:#e24;stroke:#e24" xlink:href="#2"/>
  <use transform="rotate(180 151.5 116)" style="fill:#e24;stroke:#e24" xlink:href="#2"/>
 </g>
 <g id="diamond_3">
  <use transform="translate(202 141)" xlink:href="#card"/>
  <use transform="translate(202)" xlink:href="#an"/>
  <use transform="translate(202)" xlink:href="#ap"/>
  <use id="aB" transform="translate(101)" xlink:href="#aq"/>
  <use id="aC" transform="translate(101)" xlink:href="#as"/>
  <use id="az" transform="translate(101 46.5)" xlink:href="#aq"/>
  <use transform="translate(0 191)" style="fill:#e24;stroke:#e24" xlink:href="#3"/>
  <use transform="rotate(180 252.5 116)" style="fill:#e24;stroke:#e24" xlink:href="#3"/>
 </g>
 <g id="diamond_4">
  <use transform="translate(303 141)" xlink:href="#card"/>
  <use transform="translate(303)" xlink:href="#an"/>
  <use transform="translate(303)" xlink:href="#ap"/>
  <use id="au" transform="translate(186.7)" xlink:href="#aq"/>
  <use id="av" transform="translate(186.7)" xlink:href="#as"/>
  <use id="ax" transform="translate(30.7)" xlink:href="#au"/>
  <use id="ay" transform="translate(30.7)" xlink:href="#av"/>
  <use transform="translate(0 191)" style="fill:#e24;stroke:#e24" xlink:href="#4"/>
  <use transform="rotate(180 353.5 116)" style="fill:#e24;stroke:#e24" xlink:href="#4"/>
 </g>
 <g id="diamond_5">
  <use transform="translate(404 141)" xlink:href="#card"/>
  <use transform="translate(404)" xlink:href="#an"/>
  <use transform="translate(404)" xlink:href="#ap"/>
  <use id="aU" transform="translate(101)" xlink:href="#au"/>
  <use id="aV" transform="translate(101)" xlink:href="#av"/>
  <use id="aW" transform="translate(101)" xlink:href="#ax"/>
  <use id="aX" transform="translate(101)" xlink:href="#ay"/>
  <use id="aY" transform="translate(202)" xlink:href="#az"/>
  <use transform="translate(0 191)" style="fill:#e24;stroke:#e24" xlink:href="#5"/>
  <use transform="rotate(180 454.5 116)" style="fill:#e24;stroke:#e24" xlink:href="#5"/>
 </g>
 <g id="diamond_6">
  <use transform="translate(505 141)" xlink:href="#card"/>
  <use transform="translate(505)" xlink:href="#an"/>
  <use transform="translate(505)" xlink:href="#ap"/>
  <use id="aD" transform="translate(287.7)" xlink:href="#aB"/>
  <use id="aE" transform="translate(287.7)" xlink:href="#aC"/>
  <use id="aF" transform="translate(287.7)" xlink:href="#az"/>
  <use id="aH" transform="translate(30.7)" xlink:href="#aD"/>
  <use id="aI" transform="translate(30.7)" xlink:href="#aE"/>
  <use id="aJ" transform="matrix(1 0 0 -1 30.7 423)" xlink:href="#aF"/>
  <use transform="translate(0 191)" style="fill:#e24;stroke:#e24" xlink:href="#6"/>
  <use transform="rotate(180 555.5 116)" style="fill:#e24;stroke:#e24" xlink:href="#6"/>
 </g>
 <g id="diamond_queen">
  <use transform="translate(1111 141)" xlink:href="#card"/>
  <g id="bp">
   <g fill="#fff" stroke="#333" stroke-linecap="round">
    <path d="M1177.4 213.4c.6 2.3-1.2 4.8-4 5.5s-5.5-.5-6-2.8 1.1-4.8 3.9-5.5 5.5.5 6.1 2.8z"/>
    <path d="M1170.8 214.5c-1.3-1.2-3.1-1.3-4.1-.2s1.6 7.2 4.8 3.6c1-1.1.7-2.3-.7-3.4z"/>
    <path d="m1169.4 219 5.8 1s1.6-3.4-5.6-3.4" stroke-linejoin="round"/>
    <path d="m1177.7 216.8s-1.8 3.6-4 1.3l2.5-2.7" stroke-linejoin="round"/>
    <path d="m1176.4 215.6s-1.8 3.7-4 1.4l2.5-2.8"/>
    <path d="m1175.1 214.5s-1.8 3.6-4 1.3l2.5-2.7" stroke-linejoin="round"/>
    <path d="m1173.8 213.2s-1.8 3.7-4 1.4l2.5-2.8" stroke-linejoin="round"/>
   </g>
   <path d="M1136.8 184c1.7 4.9 4.5 3.7 20.4 15.8.9 1 2.1 3.4 2.1 3.4l5.3-18.6z" fill="#e24"/>
   <path d="m1170.8 167.3s-20 32.6-4.8 55.8l20.3-33.9z" fill="#333" stroke="#333" stroke-linecap="round" stroke-linejoin="round"/>
   <g stroke="#333">
    <path transform="translate(-292.4 -465.3)" d="m1464.4 636.5c0 6.4-7.8 11.7-17.5 11.7s-17.5-5.3-17.5-11.7 7.8-11.7 17.5-11.7 17.5 5.2 17.5 11.7z" fill="#333"/>
    <g fill="#db5">
     <path transform="translate(-292.4 -465.3)" d="m1463.2 628.6-34.1 20.7c10.1 16.7 43.6-5 34.1-20.7z" stroke-linejoin="round"/>
     <path d="m1138.9 182.8c8.3 13.6 37.3-5.2 29.6-18" fill="none" stroke-width="1.5"/>
     <path transform="translate(-292.4 -465.3)" d="m1433.4 646.7c6.5 10.7 31.3-5.2 25.2-15.3" fill="none"/>
    </g>
    <g fill="#fff">
     <path transform="translate(-292.4 -465.3)" d="M1438.8 611.9v9c.3 7.8 3.5 28.4 21.5 6.4"/>
     <path transform="translate(-292.4 -465.3)" d="m1445 609.5c2.1 5.5 5.4 12.6 8.3 12" stroke-linecap="round" stroke-linejoin="round"/>
     <path transform="translate(-292.4 -465.3)" d="m1447.7 610.5c2.1 5.3 5.2 11.4 7.9 11" stroke-linecap="round" stroke-linejoin="round"/>
     <path transform="translate(-292.4 -465.3)" d="m1450.5 611.2c2.1 5.4 5.3 12 8.1 11.6"/>
     <path transform="translate(-292.4 -465.3)" d="m1452.6 610.9c2.1 5.5 5.4 12.3 8.2 11.9"/>
     <path transform="translate(-292.4 -465.3)" d="M1462.3 620.7c-.3-4.1 5.3 1.6 0 1.7-3.3 0-6-6.2-7.6-11.1"/>
     <path transform="translate(-292.4 -465.3)" d="m1457.2 611.6c1.3 4 3.4 9 5.2 9"/>
    </g>
    <path transform="translate(-292.4 -465.3)" d="m1444.3 624.8a1 1 0 1 1-2 0 1 1 0 0 1 2 0zm7.2 0a1 1 0 1 1-2 0 1 1 0 0 1 2 0z" fill="#333" stroke-linecap="round"/>
    <g fill="#fff" stroke-linecap="round" stroke-linejoin="round">
     <path transform="translate(-292.4 -465.3)" d="M1444.8 610.2s-.1 6.3-5.5 7.3c-.5 0 1.5.4 1 .6-3.3 1.6 8.5-1.8 6.4-7.4"/>
     <path transform="translate(-292.4 -465.3)" d="M1442.3 611s-.1 4.3-3.5 6c-.5.3-.3 1-.7 1.2-1 .5-.5.4.7 0 2.2-1 6.6-3.4 5.4-6.7"/>
     <path transform="translate(-292.4 -465.3)" d="M1440.9 609.4s-.1 3-2.2 5c-.7.8-1.9 2.5 0 1.5 2.2-1.2 5-3.4 3.9-6.1"/>
    </g>
   </g>
   <g stroke-linecap="round">
    <path d="m1157.6 145.8 23 35" fill="none" stroke="#e24" stroke-width="3"/>
    <g stroke-linejoin="round">
     <path d="m1172.6 165.1-12.4-17.8h17.3s-4.5 9.6 5.1 12.8c0 0-11.2-5.4-10 5z" fill="#db5" stroke="#333"/>
     <path d="m1175.4 195.6.3 2.8-1.6-2.3-1.1 2.5-.2-2.7-2.2 1.6 1.2-2.5-2.8.3 2.3-1.6-2.6-1.1 2.8-.2-1.6-2.3 2.5 1.3-.3-2.8 1.5 2.3 1.2-2.6.2 2.8 2.2-1.6-1.2 2.5 2.8-.3-2.3 1.5 2.5 1.2-2.7.2 1.6 2.2zm-5.8 13.7-1.6-2.3-1.1 2.6-.2-2.8-2.2 1.6 1.2-2.5-2.8.3 2.3-1.5-2.6-1.2 2.8-.2-1.6-2.2 2.5 1.2-.3-2.8 1.5 2.3 1.2-2.5.2 2.7 2.2-1.6-1.2 2.5 2.8-.3-2.3 1.6 2.5 1-2.7.3 1.6 2.2-2.5-1.2z" fill="none" stroke="#db5"/>
    </g>
    <path d="m1140 142.8h57v3.6h-57z" fill="#fff" stroke="#fff"/>
    <g stroke-linejoin="round">
     <path d="M1168.3 149.6h3.6l-1 3.3h-3.9zm3.1 4.6h3.6l-1.1 3.3-3.8.1z" fill="#e24" stroke="#e24" stroke-width=".6"/>
     <path d="M1184.7 228.2c-5.8 4.4-3.6-1.6-3.6-1.6s.5 6.4-3.8.6 1.6-3.6 1.6-3.6-6.4.5-.6-3.8c5.8-4.4 3.6 1.6 3.6 1.6s-.5-6.4 3.8-.6c4.4 5.8-1.6 3.6-1.6 3.6s6.5-.5.6 3.8z" fill="#db5" stroke="#333"/>
    </g>
   </g>
   <path d="M1179.7 224.3a1.92 1.92 0 1 1 3.8-.5 1.91 1.91 0 0 1-3.8.4z" fill="#e24"/>
   <g fill="#333">
    <path transform="translate(-292.4 -465.3)" d="M1480.5 690.4a1.309 1.309 0 1 1 2.6-.3 1.309 1.309 0 0 1-2.6.3zm-8.9 6.5a1.309 1.309 0 1 1 2.6-.3 1.309 1.309 0 0 1-2.6.3zm-6.6-8.6a1.304 1.304 0 1 1 2.6-.2 1.304 1.304 0 0 1-2.6.2zm8.6-6.5a1.309 1.309 0 1 1 2.6-.3 1.309 1.309 0 0 1-2.6.3z"/>
   </g>
  </g>
  <use transform="rotate(180 1161.5 211.5)" xlink:href="#bp"/>
  <path d="m1164.6 227.3-6.2-31.6" stroke="#e24"/>
  <use id="bt" transform="translate(101)" xlink:href="#bn"/>
  <use id="bu" transform="translate(101)" xlink:href="#bq"/>
  <use transform="translate(0 191)" style="fill:#e24;stroke:#e24" xlink:href="#Q"/>
  <use transform="rotate(180 1161.5 116)" style="fill:#e24;stroke:#e24" xlink:href="#Q"/>
 </g>
 <g id="diamond_king">
  <use transform="translate(1212 141)" xlink:href="#card"/>
  <path d="m1280.3 174.6c11.4 5.2 13 26 3.7 46.5s-26.3 32.6-37.8 27.4-13.7-26.1-4.2-46.5c9.8-21.2 26.9-32.7 38.3-27.4z" fill="#333" stroke="#333" stroke-linecap="round" stroke-width=".8"/>
  <path d="m1277.5 179.6c9.7 4.5 11.1 22.2 3.1 39.6s-22.4 27.8-32.1 23.3c-9.7-4.4-11.1-22.2-3.1-39.5s22.4-27.9 32.1-23.4z" fill="none" stroke="#db5"/>
  <path d="M1272.2 180.6c-1.6 0-3.3.4-5 1-3.5 13.2 4.6 21.7 15.8 24 2.3-11.4 0-21.2-6.4-24.1a10 10 0 0 0-4.4-1zm-29.6 37c-2 11.1.2 20.5 6.5 23.5 2.6 1.1 5.5 1.1 8.6 0a2.8 2.8 0 0 1 0-.8c2.7-13.6-6-23.8-15.1-22.8z" fill="#e24"/>
  <path d="m1276.6 181.5c8.8 4 9.7 20.6 2.1 37-7.6 16.5-20.8 26.6-29.6 22.6s-9.7-20.7-2.1-37.2 20.8-26.5 29.6-22.4z" fill="none" stroke="#db5"/>
  <g id="bs">
   <path d="m1264.6 182.3s-2.8 21 18.5 26.2" fill="none" stroke="#db5" stroke-linecap="round" stroke-width="5.5"/>
   <path d="m1264.6 182.3s-2.8 21 18.5 26.2" fill="none" stroke="#e24" stroke-dasharray="3, 6" stroke-dashoffset="6.6" stroke-linecap="round" stroke-width="3"/>
   <g stroke="#333">
    <path d="M1286.1 161s-4.8-.7-5.2 6c0 1.3-9.4-7.3-.6-17.5.6 4 .2 6.3 5.8 6.4" fill="#fff" stroke-linejoin="round"/>
    <path d="m1285 149.7h3.5v49.5h-3.5z" fill="#db5" stroke-linejoin="round"/>
    <g fill="#fff">
     <path transform="translate(-308.6 -465.3)" d="M1557.9 621.2c-1.3 1.6-2.1 2.6-1.1 5.3s-8.9 4.1-4.8 7.1 5.3-.8 5.4 1.4.8 3.1-2 5.4-3.1-1-4.3-.4c-.9.5 3.5 5.1 10.6 4.4s8-1.3 8.6-2.7" stroke-linecap="round"/>
     <path d="m1261.9 176.3a2.8 2.8 0 1 1-5 2.5 2.8 2.8 0 0 1 5-2.5z" stroke-width=".9"/>
     <g stroke-linecap="round" stroke-linejoin="round">
      <path transform="translate(-308.6 -465.3)" d="M1580.8 618c1 6.6 4 14.7 5.3 18.1 1.3 3.5.3 5.4-1.7 6.6s-5-5.4-3.3-5.4"/>
      <path transform="translate(-308.6 -465.3)" d="M1578.6 617.3c1 6.6 4 14.7 5.3 18.1 1.3 3.5.3 5.4-1.7 6.6s-5-5.4-3.3-5.4"/>
      <path transform="translate(-308.6 -465.3)" d="M1576.3 617.5c1 6.6 4 14.7 5.3 18.1 1.3 3.5.3 5.4-1.7 6.6s-5-5.4-3.3-5.4"/>
      <path transform="translate(-308.6 -465.3)" d="M1573.8 617c1 6.6 4 14.7 5.3 18.1s.3 5.6-1.7 6.8-5-5.6-3.3-5.6"/>
      <path transform="translate(-308.6 -465.3)" d="M1571.9 617.5c1 6.6 4 14.7 5.3 18.1 1.3 3.5.3 5.4-1.7 6.6s-5-5.4-3.3-5.4"/>
      <path transform="translate(-308.6 -465.3)" d="M1569.7 617.5c1 6.6 4 14.7 5.3 18.1 1.3 3.5.3 5.4-1.7 6.6s-5-5.4-3.3-5.4 1.7-2.7 3.3 1.5"/>
     </g>
    </g>
    <path d="m1242.5 147.5s2.6 4.2 3.6 6.9c2.6 7 16.9-6 26.4 2.3l5.2-9.2z" fill="#db5" stroke-linejoin="round"/>
    <path d="m1253.7 162a1 1 0 1 1-2 0 1 1 0 0 1 2 0z" fill="#333" stroke-linecap="round"/>
   </g>
   <g fill="#fff" stroke="#333">
    <path d="m1250.2 168.9s3.5 3 4.4 2.4" stroke-linecap="round"/>
    <g stroke-linecap="round" stroke-linejoin="round">
     <path transform="translate(-309.3 -465.3)" d="M1597.2 656.5c-1 0-2.4-.7-3.8-1.6-2.5-1.5-3.5-3-2.3-5 .8-1.3 5.2-.5 6.7-1v-1.3c2.8 1.4 3.5 8.5-.6 8.9z"/>
     <path transform="translate(-309.3 -465.3)" d="M1590 652.4s.6 3.4 1.8 4.3c.5.4 2 .2 2 .2s3.4-1.2-1.6-6.3"/>
     <path transform="translate(-309.3 -465.3)" d="M1597.7 656.5s-3.9 1.2-3.8-2l3.7-.1"/>
     <path transform="translate(-309.3 -465.3)" d="m1597.6 654.7s-3.9 1.3-3.8-2h3.7"/>
     <path transform="translate(-309.3 -465.3)" d="M1597.5 653s-3.9 1.3-3.8-2l3.7-.1"/>
     <path transform="translate(-309.3 -465.3)" d="M1597.4 651.1s-3.9 1.3-3.8-1.9l3.8-.2"/>
     <path transform="translate(-309.3 -465.3)" d="M1594.8 649.9c0-1.7-1.3-3.1-2.8-3-1 0-2.4 4-2.3 5.5 0 1 .6 1.4 2.4 1.3.3 0 .2-4.2.4-4 .9 1.6 2.4 1.7 2.3.2z"/>
    </g>
    <path d="m1257.6 180.6a2.8 2.8 0 1 1-5 2.5 2.8 2.8 0 0 1 5-2.5zm-4 4.7a2.8 2.8 0 1 1-5 2.5 2.8 2.8 0 0 1 5-2.5z" stroke-width=".9"/>
   </g>
   <path d="m1264.2 148.4-1.6 2 1.5 2.4 1.8-2.3zm-7.5.4-1.7 2.1 1.9 2.4 1.6-2.5zm15.3.1-2.1 2 1.4 3 2.2-2.4zm-23.3.5-1.5 2.6 2.2 2.4 1.5-3z" fill="#e24" stroke="#e24" stroke-linejoin="round" stroke-width=".3"/>
  </g>
  <use transform="rotate(180 1262.5 211.5)" xlink:href="#bs"/>
  <use transform="translate(101)" xlink:href="#bt"/>
  <use transform="translate(101)" xlink:href="#bu"/>
  <use transform="translate(0 191)" style="fill:#e24;stroke:#e24" xlink:href="#K"/>
  <use transform="rotate(180 1262.5 116)" style="fill:#e24;stroke:#e24" xlink:href="#K"/>
 </g>
 <g id="diamond_7">
  <use transform="translate(606 141)" xlink:href="#card"/>
  <use transform="translate(606)" xlink:href="#an"/>
  <use transform="translate(606)" xlink:href="#ap"/>
  <use id="aM" transform="translate(101)" xlink:href="#aD"/>
  <use id="aN" transform="translate(101)" xlink:href="#aE"/>
  <use id="aK" transform="translate(101)" xlink:href="#aF"/>
  <use id="aO" transform="translate(101)" xlink:href="#aH"/>
  <use id="aP" transform="translate(101)" xlink:href="#aI"/>
  <use id="aQ" transform="translate(101)" xlink:href="#aJ"/>
  <use id="aR" transform="translate(15.3 -23.3)" xlink:href="#aK"/>
  <use transform="translate(0 191)" style="fill:#e24;stroke:#e24" xlink:href="#7"/>
  <use transform="rotate(180 656.5 116)" style="fill:#e24;stroke:#e24" xlink:href="#7"/>
 </g>
 <g id="diamond_8">
  <use transform="translate(707 141)" xlink:href="#card"/>
  <use transform="translate(707)" xlink:href="#an"/>
  <use transform="translate(707)" xlink:href="#ap"/>
  <use transform="translate(101)" xlink:href="#aM"/>
  <use id="aS" transform="translate(101)" xlink:href="#aN"/>
  <use transform="translate(101)" xlink:href="#aK"/>
  <use transform="translate(101)" xlink:href="#aO"/>
  <use transform="translate(101)" xlink:href="#aP"/>
  <use transform="translate(101)" xlink:href="#aQ"/>
  <use transform="translate(101)" xlink:href="#aR"/>
  <use transform="translate(15.3 -23.3)" xlink:href="#aS"/>
  <use transform="translate(0 191)" style="fill:#e24;stroke:#e24" xlink:href="#8"/>
  <use transform="rotate(180 757.5 116)" style="fill:#e24;stroke:#e24" xlink:href="#8"/>
 </g>
 <g id="diamond_9">
  <use transform="translate(808 141)" xlink:href="#card"/>
  <use transform="translate(808)" xlink:href="#an"/>
  <use transform="translate(808)" xlink:href="#ap"/>
  <use id="aZ" transform="translate(404)" xlink:href="#aU"/>
  <use id="bb" transform="translate(404)" xlink:href="#aV"/>
  <use id="ba" transform="translate(404)" xlink:href="#aW"/>
  <use id="bc" transform="translate(404)" xlink:href="#aX"/>
  <use id="be" transform="translate(404)" xlink:href="#aY"/>
  <use id="bf" transform="translate(0 31)" xlink:href="#aZ"/>
  <use id="bg" transform="translate(0 31)" xlink:href="#ba"/>
  <use id="bh" transform="translate(0 -31)" xlink:href="#bb"/>
  <use id="bi" transform="translate(0 -31)" xlink:href="#bc"/>
  <use transform="translate(0 191)" style="fill:#e24;stroke:#e24" xlink:href="#9"/>
  <use transform="rotate(180 858.5 116)" style="fill:#e24;stroke:#e24" xlink:href="#9"/>
 </g>
 <g id="diamond_10">
  <use transform="translate(909 141)" xlink:href="#card"/>
  <use transform="translate(909)" xlink:href="#an"/>
  <use transform="translate(909)" xlink:href="#ap"/>
  <use transform="translate(101)" xlink:href="#aZ"/>
  <use id="bj" transform="translate(101)" xlink:href="#bb"/>
  <use transform="translate(101)" xlink:href="#ba"/>
  <use transform="translate(101)" xlink:href="#bc"/>
  <use transform="translate(101 -31)" xlink:href="#be"/>
  <use transform="translate(101)" xlink:href="#bf"/>
  <use transform="translate(101)" xlink:href="#bg"/>
  <use transform="translate(101)" xlink:href="#bh"/>
  <use transform="translate(101)" xlink:href="#bi"/>
  <use transform="translate(15.3 -15.5)" xlink:href="#bj"/>
  <use transform="translate(0 191)" style="fill:#e24;stroke:#e24" xlink:href="#10"/>
  <use transform="rotate(180 959.5 116)" style="fill:#e24;stroke:#e24" xlink:href="#10"/>
 </g>
 <g id="diamond_jack">
  <use transform="translate(1010 141)" xlink:href="#card"/>
  <g stroke-linecap="round">
   <path d="m1047 183.7 3.1-6.4h33.9l-8.3 15.7-4.2 15.6-9.3 13.8-8.3-12.2zm20 29-8.3-12.2-9.2 13.7-4.8 15.7-8.7 15.7h34.8l3.1-6.4z" fill="#e24" stroke="#333"/>
   <g fill="none">
    <g>
     <path d="m1083.7 183.3c-12.8 8.4-22.2 37.5-7.9 57" stroke="#333" stroke-width="7"/>
     <path d="m1083.8 183.3c-12.8 8.4-22.3 37.5-8 57" stroke="#e24" stroke-width="5"/>
     <path d="m1083.8 183.3c-12.8 8.4-22.3 37.5-8 57" stroke="#333" stroke-width="3"/>
    </g>
    <g>
     <path d="m1037.3 239.6c12.8-8.4 22.2-37.5 7.9-57" stroke="#333" stroke-width="7"/>
     <path d="m1037.2 239.6c12.8-8.4 22.3-37.5 8-57" stroke="#e24" stroke-width="5"/>
     <path d="m1037.2 239.6c12.8-8.4 22.3-37.5 8-57" stroke="#333" stroke-width="3"/>
    </g>
   </g>
  </g>
  <g id="bm">
   <g fill="#db5" stroke="#333" stroke-linecap="round" stroke-linejoin="round">
    <path transform="translate(-274.5 -465.3)" d="m1357.9 617.5h3.6v9.9h-3.6z"/>
    <path transform="translate(-274.5 -465.3)" d="M1362.7 617.5c0 .7-.6 1.2-1.2 1.2h-3.4c-.7 0-1.2-.5-1.2-1.2s.6-1.2 1.2-1.2h3.4c.7 0 1.2.6 1.2 1.2z"/>
   </g>
   <g stroke="#333">
    <g stroke-linecap="round" stroke-linejoin="round">
     <g fill="#fff">
      <path transform="translate(-274.5 -465.3)" d="M1359.3 649.4c0 1.8-1.2 3.2-2.6 3.2s-4.8-6.4 0-6.4c1.5.1 2.6 1.5 2.6 3.2z"/>
      <path transform="translate(-274.5 -465.3)" d="m1354.7 647.7v-6.2s3.6-1.3 3 6.2"/>
      <path transform="translate(-274.5 -465.3)" d="M1358.1 628.6s-.5 57.3.5 55.8 3 3.8 3 3.8l-.1-60.4"/>
     </g>
     <path transform="translate(-274.5 -465.3)" d="M1361.5 624.5c-4.5 5.5-10 .7-10 .7 4 6 10 2.8 10 2.8z" fill="#db5"/>
     <g fill="#fff">
      <path transform="translate(-274.5 -465.3)" d="M1360.3 642.6c-1.1 0-2.5.4-2.4 2.4h3.6v-2.2s-.4-.2-1.2-.2z"/>
      <path transform="translate(-274.5 -465.3)" d="M1360.3 644.4c-1.1 0-2.5.4-2.4 2.4h3.6v-2.2s-.4-.2-1.2-.2z"/>
      <path transform="translate(-274.5 -465.3)" d="M1360.3 646.2c-1.1 0-2.5.4-2.4 2.4h3.6v-2.2s-.4-.2-1.2-.2z"/>
      <path transform="translate(-274.5 -465.3)" d="M1360.3 648.2c-1.1 0-2.5.4-2.4 2.4h3.6v-2.2s-.4-.2-1.2-.2z"/>
     </g>
    </g>
    <g>
     <path transform="translate(-274.5 -465.3)" d="m1314.6 637.7c1 17.5 34 14.7 33-1.8" fill="#db5"/>
     <path d="M1042.2 172.3c.8 14.3 29.4 11.9 28.7-1.6" fill="#db5" stroke-width="1.5"/>
     <g>
      <path transform="translate(-274.5 -465.3)" d="M1318.8 637.4c.6 11.3 25 9.2 24.4-1.3" fill="#fff"/>
      <path transform="translate(-274.5 -465.3)" d="M1321 633s-2.2 5.2-7 4.4c-.6 0 1 .8.5.8-3.3.3 8 1.2 8-4.1" fill="#db5"/>
      <path transform="translate(-274.5 -465.3)" d="M1319.1 632.3s-2.2 5.1-7 4.4c-.6-.2 1 .7.5.7-3.3.3 8 1.2 8-4.1" fill="#db5" stroke-linecap="round" stroke-linejoin="round"/>
      <path transform="translate(-274.5 -465.3)" d="m1317.2 621.6s-1.2 35 21.4 13.5" fill="#fff"/>
     </g>
     <path d="m1074.8 173-31.4 49.9" fill="none" stroke-linecap="round" stroke-width="3"/>
    </g>
    <g>
     <g fill="#db5">
      <path transform="translate(-274.5 -465.3)" d="m1346.2 633a4.2 4.2 0 1 1-8.4 0 4.2 4.2 0 0 1 8.4 0z"/>
      <path transform="translate(-274.5 -465.3)" d="m1344.5 633a2.5 2.5 0 1 1-5 0 2.5 2.5 0 0 1 5 0z"/>
      <path transform="translate(-274.5 -465.3)" d="m1334.3 618.1s5.9 19 10.4 18.4"/>
      <g stroke-linecap="round" stroke-linejoin="round">
       <path transform="translate(-274.5 -465.3)" d="m1336.5 618.1s5.9 19 10.4 18.4"/>
       <path transform="translate(-274.5 -465.3)" d="M1339.6 619.2c-.5 0 4.8 18.7 9.8 18.1"/>
       <path transform="translate(-274.5 -465.3)" d="M1341.7 619.2c-.2 0 4.3 18.4 9.8 18"/>
       <path transform="translate(-274.5 -465.3)" d="M1353.7 635.5c-.3-4 5.3 1.6 0 1.7s-9.2-16.6-9.2-16.6"/>
      </g>
     </g>
     <g stroke-linecap="round">
      <path transform="translate(-274.5 -465.3)" d="M1347.1 621.6c.1 0 4.7 14 6.7 14" fill="none" stroke-linejoin="round"/>
      <g fill="#333">
       <path transform="translate(-274.5 -465.3)" d="m1322.2 626.2a1 1 0 1 1-2 0 1 1 0 0 1 2 0zm9.3 0a1 1 0 1 1-2 0 1 1 0 0 1 2 0z"/>
      </g>
     </g>
    </g>
   </g>
   <g stroke-linecap="round">
    <g fill="#db5" stroke="#333">
     <path transform="translate(-274.5 -465.3)" d="M1317.7 638.5c-2.4 0-5 .3-5.7 1.3-1.5 2.2-1.2 10.7-1.2 10.7 1.3 0 2-.6 2.5-1.3-.2 1.1.1 2.2 1.7 2.4 1.6.1 1.9-1 1.8-2.1.4.9 1.2 1.5 2.4 1 1.6-.8.8-2.3 0-3.3 1 .8 2.3 1.6 3 .1.8-1.4-.5-2.3-1.6-2.8 1.2.3 2.9.3 2.9-1.5 0-1.5-1.3-1.7-2.5-1.6.9-.4 1.5-1.2 1.3-2.7 0 0-2.2-.2-4.6-.2z" stroke-linejoin="round"/>
    </g>
   </g>
   <path d="m1042.5 158s12.5-8.3 30.4 0l6.4-10.5h-43z" fill="#e24"/>
   <g fill="none" stroke-linecap="round">
    <g>
     <g stroke="#fff">
      <path transform="translate(-274.5 -465.3)" d="m1315.4 613.2 3.6 5.6 4.4-.8m-.1 0-.8-4.8m5.4 0v4h5.3l1.1-4.4m4.3.4-.7 4 5.3 1.6m-.1 0 4-5.6"/>
     </g>
     <path transform="translate(-274.5 -465.3)" d="m1317 623.3s12.5-8.3 30.4 0l6.4-10.5h-43z" stroke="#333" stroke-linejoin="round"/>
    </g>
    <path d="m1055.5 189.7 2.5-3.1 2.5 3-2.5 3.8z" stroke="#333" stroke-linejoin="round" stroke-width=".9"/>
    <path d="m1074.8 173-31.6 50" stroke="#db5"/>
   </g>
  </g>
  <use transform="rotate(180 1060.5 211.5)" xlink:href="#bm"/>
  <path id="bn" d="m1014.9 176.5 7.5-9.2 7.5 9.2-7.5 10.8z" fill="#e24" stroke="#e24" stroke-linejoin="round"/>
  <use id="bq" transform="rotate(180 1060.5 211.5)" xlink:href="#bn"/>
  <use transform="translate(0 191)" style="fill:#e24;stroke:#e24" xlink:href="#J"/>
  <use transform="rotate(180 1060.5 116)" style="fill:#e24;stroke:#e24" xlink:href="#J"/>
 </g>
 <path id="p10338" d="M-64.22 568.65c-.49-.01-.93.37-.91.88v11.77c0 1.16-.72 2.5-2.44 2.5-1.77 0-2.45-1.38-2.42-2.46.01-.5-.44-.87-.93-.87-.48 0-.93.37-.93.87.01 2.46 1.78 4.05 4.27 4.05 2.76 0 4.3-1.87 4.3-4.04v-11.78c.02-.51-.45-.89-.94-.88zm14.18 1.44c-.47-.01-.9.34-.87.83v10.55c0 .65.5.83.87.83.62 0 .88-.45.87-.82v-2.59l.89-.74 3.4 3.96c.3.38.86.37 1.2.1.53-.42.3-.94.12-1.13l-3.44-4.01 3.27-2.76c.34-.28.38-.8.05-1.1a.813.813 0 0 0-1.16-.05l-4.33 3.65v-5.9c.01-.47-.41-.84-.87-.82zm21.17 2.89c-1.11-.01-2.21.43-2.99 1.25v-.31c0-.73-.56-.84-.9-.84-.92 0-.89.77-.89.84v7.53c0 .43.18.84.89.84.92 0 .91-.73.9-.84v-4.92c0-1.32 1.14-1.81 1.95-1.98.68-.12 1.38-.11 2.06.04.47.11.89-.08.97-.5.09-.3-.05-.56-.4-.78-.49-.26-1.05-.37-1.6-.33zM-57 573c-3.24 0-4.94 2.36-4.92 4.68.03 2.75 2.05 4.68 4.92 4.68 2.79 0 4.9-1.82 4.9-4.68 0-3.09-2.52-4.72-4.9-4.68zm18.12 0c-2.72 0-4.8 1.81-4.8 4.68 0 3.76 3.76 5.39 6.78 4.38.33-.09 1.87-.58 1.8-1.36-.04-.41-.44-.63-.87-.62-.53.02-.62.35-1.52.64-1.99.66-4.22-.46-4.55-2.45h6.78c.44.02.83-.29.82-.74 0-3.18-2.3-4.59-4.43-4.54zm0 1.45c2 .02 2.67 1.53 2.8 2.48h-5.93c.35-1.87 1.88-2.49 3.13-2.48zm-18.12.07c2.14 0 3.16 1.63 3.16 3.16 0 1.99-1.49 3.17-3.16 3.15-2.12-.02-3.19-1.62-3.17-3.15.02-1.68 1.16-3.16 3.17-3.16z" style="stroke-width:.3"/>
 <g id="joker_black">
  <use transform="translate(0 564)" xlink:href="#card"/>
  <g fill="#333">
   <path d="m50.5 627c-1.3 6.2-1.3 6.2-7.5 7.5 6.2 1.3 6.2 1.3 7.5 7.5 1.3-6.2 1.3-6.2 7.5-7.5-6.2-1.3-6.2-1.3-7.5-7.5z" stroke="#333" stroke-linejoin="round"/>
   <path d="M50.5 623A11.5 11.5 0 0 0 39 634.5 11.5 11.5 0 0 0 50.5 646 11.5 11.5 0 0 0 62 634.5 11.5 11.5 0 0 0 50.5 623zm0 2a9.5 9.5 0 0 1 9.5 9.5 9.5 9.5 0 0 1-9.5 9.5 9.5 9.5 0 0 1-9.5-9.5 9.5 9.5 0 0 1 9.5-9.5z"/>
   <path d="m55.8 629.2c-5.3 3.4-5.3 3.4-10.6 0 3.4 5.3 3.4 5.3 0 10.6 5.3-3.4 5.3-3.4 10.6 0-3.4-5.3-3.4-5.3 0-10.6z" stroke="#333" stroke-linejoin="round"/>
  </g>
  <use id="dP" transform="matrix(.818 0 0 .82 -73.5 590.9)" stroke-width="1.2" xlink:href="#d"/>
  <use id="dO" transform="matrix(0 -.85 .85 0 -353.7 762.7)" stroke-width="1.2" xlink:href="#cG"/>
  <use transform="rotate(180 50.5 634.5)" xlink:href="#dO"/>
  <use transform="rotate(180 50.5 634.5)" xlink:href="#dP"/>
  <use id="dQ" transform="matrix(.55 -.55 .55 .55 -219.62 532.2)" stroke-width="1.3" xlink:href="#bz"/>
  <use transform="rotate(180 50.5 634.5)" xlink:href="#dQ"/>
  <use id="dR" transform="matrix(-.6 -.6 .6 -.6 24 844)" stroke-width="1.2" xlink:href="#aq"/>
  <use transform="rotate(180 50.5 634.5)" xlink:href="#dR"/>
  <use transform="translate(100)" style="fill:#333" xlink:href="#cjok"/>
  <use transform="translate(100)" xlink:href="#sjok"/>
  <use transform="translate(100)" style="fill:#333;stroke:#333" xlink:href="#p10338"/>
  <use transform="matrix(-1 0 0 1 1 0)" style="fill:#333" xlink:href="#cjok"/>
  <use transform="matrix(-1 0 0 1 1 0)" xlink:href="#sjok"/>
  <use transform="rotate(180 .5 634.5)" style="fill:#333" xlink:href="#cjok"/>
  <use transform="rotate(180 .5 634.5)" xlink:href="#sjok"/>
  <use transform="rotate(180 .5 634.5)" style="fill:#333;stroke:#333" xlink:href="#p10338"/>
  <use transform="matrix(1 0 0 -1 100 1269)" style="fill:#333" xlink:href="#cjok"/>
  <use transform="matrix(1 0 0 -1 100 1269)" xlink:href="#sjok"/>
 </g>
 <g id="joker_red">
  <use transform="translate(101 564)" xlink:href="#card"/>
  <g fill="#e24">
   <path d="m151.5 623a11.5 11.5 0 0 0-11.5 11.5 11.5 11.5 0 0 0 11.5 11.5 11.5 11.5 0 0 0 11.5-11.5 11.5 11.5 0 0 0-11.5-11.5zm0 2a9.5 9.5 0 0 1 9.5 9.5 9.5 9.5 0 0 1-9.5 9.5 9.5 9.5 0 0 1-9.5-9.5 9.5 9.5 0 0 1 9.5-9.5z"/>
   <g stroke="#e24" stroke-linecap="round" stroke-linejoin="round">
    <path d="m151.5 627c-1.3 6.2-1.3 6.2-7.5 7.5 6.2 1.3 6.2 1.3 7.5 7.5 1.3-6.2 1.3-6.2 7.5-7.5-6.2-1.3-6.2-1.3-7.5-7.5z"/>
    <path d="m156.8 629.2c-5.3 3.4-5.3 3.4-10.6 0 3.4 5.3 3.4 5.3 0 10.6 5.3-3.4 5.3-3.4 10.6 0-3.4-5.3-3.4-5.3 0-10.6z"/>
   </g>
  </g>
  <use transform="rotate(45 -575.495 372.297) scale(.81839 .8203)" stroke-width="1.2" xlink:href="#d"/>
  <use transform="matrix(.6 -.6 .6 .6 -225 439.3)" stroke-width="1.2" xlink:href="#cG"/>
  <use transform="rotate(225 101 613.6)" xlink:href="#dO"/>
  <use transform="rotate(225 101 613.6)" xlink:href="#dP"/>
  <use transform="matrix(.784 0 0 .784 32.8 371.2)" stroke-width="1.3" xlink:href="#bz"/>
  <use transform="rotate(225 100.9 613.2)" xlink:href="#dQ"/>
  <use transform="matrix(0 -.85 .86 0 -15.4 764)" stroke-width="1.2" xlink:href="#aq"/>
  <use transform="rotate(225 100.5 614.2)" xlink:href="#dR"/>
  <use transform="translate(201)" style="fill:#e24" xlink:href="#cjok"/>
  <use transform="translate(201)" xlink:href="#sjok"/>
  <use transform="translate(201)" style="fill:#e24;stroke:#e24" xlink:href="#p10338"/>
  <use transform="matrix(-1 0 0 1 102 0)" style="fill:#e24" xlink:href="#cjok"/>
  <use transform="matrix(-1 0 0 1 102 0)" xlink:href="#sjok"/>
  <use transform="rotate(180 51 634.5)" style="fill:#e24" xlink:href="#cjok"/>
  <use transform="rotate(180 51 634.5)" xlink:href="#sjok"/>
  <use transform="rotate(180 51 634.5)" style="fill:#e24;stroke:#e24" xlink:href="#p10338"/>
  <use transform="matrix(1 0 0 -1 201 1269)" style="fill:#e24" xlink:href="#cjok"/>
  <use transform="matrix(1 0 0 -1 201 1269)" xlink:href="#sjok"/>
 </g>
 <g id="heart_1">
  <use transform="translate(0 282)" xlink:href="#card"/>
  <use id="bw" transform="matrix(.6 0 0 .6 -78.3 131.17)" xlink:href="#bz"/>
  <use id="by" transform="rotate(180 50.5 352.5)" xlink:href="#bw"/>
  <use transform="translate(0 332)" style="fill:#e24;stroke:#e24" xlink:href="#A"/>
  <use transform="rotate(180 50.5 186.5)" style="fill:#e24;stroke:#e24" xlink:href="#A"/>
  <use transform="matrix(2.22 0 0 2.22 -285.94 -323.4)" xlink:href="#bz"/>
 </g>
</svg>
