<?xml version="1.0" encoding="UTF-8"?>
<svg width="1885" height="975" version="1.0" xmlns="http://www.w3.org/2000/svg" xmlns:xlink="http://www.w3.org/1999/xlink">
 <defs>
  <path id="A" d="M35.2-61h-14l-2.1 6.2h-9l12.8-34.5h10.6l12.8 34.5h-9L35.2-61m-11.7-6.4h9.4l-4.7-13.8z"/>
  <path id="2" d="M168.5-61.2h14.9v6.5h-24.7v-6.5L171.1-72q1.7-1.5 2.5-3t.8-2.9q0-2.4-1.6-3.8t-4.3-1.5q-2 0-4.5.9-2.4.9-5.2 2.6v-7.5q3-1 5.9-1.4 2.9-.6 5.6-.6 6.1 0 9.5 2.7t3.4 7.5q0 2.7-1.5 5.2-1.4 2.4-6 6.4z"/>
  <path id="3" d="M321-73.3q3.3.8 5 3 1.8 2.1 1.8 5.5 0 5-3.8 7.5-3.8 2.6-11 2.6-2.6 0-5.2-.4t-5.1-1.3V-63q2.4 1.2 4.8 1.8 2.4.6 4.7.6 3.4 0 5.2-1.1 1.8-1.2 1.8-3.4 0-2.3-1.9-3.5-1.8-1.2-5.4-1.2h-3.5v-5.5h3.6q3.3 0 4.9-1 1.5-1 1.5-3.1 0-2-1.5-3t-4.3-1q-2.1 0-4.2.4-2.2.5-4.3 1.4v-6.3q2.6-.7 5-1t5-.4q6.5 0 9.7 2.2 3.2 2 3.2 6.4 0 2.9-1.5 4.8-1.6 1.8-4.6 2.6z"/>
  <path id="4" d="m462-82-9.7 14.5h9.8zm-1.4-7.3h9.9v21.8h4.9v6.5h-5v6.3h-8.3V-61h-15.3v-7.7z"/>
  <path id="5" d="M594-89.3h21.8v6.5H601v5.2l2-.4q1-.2 2.1-.2 6.2 0 9.7 3.1 3.4 3.1 3.4 8.7 0 5.5-3.7 8.6-3.8 3-10.4 3-3 0-5.8-.5-2.8-.6-5.6-1.7v-6.9q2.8 1.6 5.3 2.4 2.5.8 4.7.8 3.1 0 5-1.5 1.8-1.6 1.8-4.2 0-2.7-1.8-4.3-1.9-1.5-5-1.5-2 0-4 .5-2.2.5-4.6 1.5z"/>
  <path id="6" d="M750.5-71.8q-2.3 0-3.4 1.4-1.2 1.5-1.2 4.4t1.2 4.4q1.1 1.5 3.4 1.5 2.2 0 3.4-1.5Q755-63 755-66t-1.1-4.3q-1.2-1.5-3.4-1.5zm10.6-16v6.1q-2.1-1-4-1.4-1.9-.5-3.7-.5-3.8 0-6 2-2.1 2.2-2.5 6.4 1.5-1 3.2-1.6 1.8-.6 3.8-.6 5.1 0 8.2 3 3.2 3 3.2 7.9 0 5.3-3.5 8.6-3.5 3.2-9.4 3.2-6.5 0-10.1-4.4-3.6-4.4-3.6-12.5 0-8.2 4.2-13 4.2-4.7 11.4-4.7 2.3 0 4.5.4 2.2.3 4.3 1z"/>
  <path id="7" d="m882.8-89.2h26v5l-13.5 29.7h-8.6l12.7-28.1h-16.6z"/>
  <path id="8" d="m1039.8-70.3q-2.4 0-3.7 1.3t-1.3 3.8 1.3 3.8q1.3 1.3 3.7 1.3t3.7-1.3 1.3-3.8-1.3-3.8q-1.3-1.3-3.7-1.3zm-6.2-2.8q-3-1-4.6-2.8-1.5-2-1.5-4.8 0-4.2 3.1-6.4t9.2-2.2q6 0 9.2 2.2t3.2 6.4q0 2.9-1.6 4.8-1.5 1.9-4.6 2.8 3.4 1 5.2 3 1.7 2.1 1.7 5.3 0 5-3.3 7.5-3.3 2.6-9.8 2.6t-9.8-2.5q-3.3-2.6-3.3-7.5 0-3.3 1.7-5.4 1.8-2 5.2-3zm2-6.7q0 2 1 3 1.2 1.1 3.2 1.1t3.1-1 1.1-3-1-3.1q-1.2-1-3.2-1t-3.1 1q-1.1 1-1.1 3z"/>
  <path id="9" d="M1175-56.1v-6.16q2.06.96 3.93 1.45 1.88.47 3.72.47 3.83 0 5.98-2.12 2.15-2.14 2.53-6.35-1.53 1.12-3.25 1.67-1.71.56-3.71.56-5.14 0-8.28-2.97-3.14-3-3.14-7.87 0-5.38 3.5-8.62t9.38-3.24q6.53 0 10.1 4.4t3.58 12.44q0 8.28-4.19 13.01-4.17 4.72-11.45 4.72-2.35 0-4.5-.36-2.14-.34-4.2-1.03zm10.61-16.07q2.26 0 3.4-1.44 1.15-1.48 1.15-4.41 0-2.9-1.14-4.38t-3.4-1.47-3.4 1.47q-1.14 1.48-1.14 4.38 0 2.93 1.14 4.4 1.15 1.45 3.4 1.45z"/>
  <path id="10" d="M1349.2-89.3a9.8 9.8 0 0 0-8.6 4.5c-2 3-3 7.3-3 12.8s1 9.8 3 12.8 5 4.5 8.6 4.5a10 10 0 0 0 8.7-4.5c2-3 3-7.3 3-12.8s-1-9.8-3-12.8a9.8 9.8 0 0 0-8.7-4.5zm-26 .6-6.6 1.6v5.8l6.7-1.6v21.6h-6.5v6h19.9v-6h-6.5v-27.4h-7zm26 5.3c1.6 0 2.7.8 3.4 2.5s1 4.7 1 8.8c0 4.3-.3 7.2-1 9-.7 1.7-1.8 2.6-3.4 2.6-1.5 0-2.7-.9-3.3-2.6-.7-1.8-1-4.7-1-9 0-4.1.3-7 1-8.8.7-1.7 1.8-2.5 3.3-2.5z"/>
  <path id="J" d="M1469.1-89.3h8.3v28.8q0 6-3.3 8.9-3.2 3-9.8 3h-1.6V-55h1.2q2.6 0 3.9-1.4 1.3-1.5 1.3-4.2z"/>
  <path id="K" d="m1752.8-89.3h8.9v12.6l12.8-12.6h10.3l-16.6 16.4 18.4 18.2h-11.2l-13.7-13.6v13.5h-9z"/>
  <path id="Q" d="M1622.7-54.8h-.6q-8.3 0-12.8-4.5-4.6-4.6-4.6-12.7t4.5-12.7q4.6-4.6 12.6-4.6 8.1 0 12.6 4.6 4.5 4.5 4.5 12.7 0 5.6-2.4 9.7-2.4 4-6.9 6l6.7 7.6h-8.1zm-.9-28.3q-4 0-6 3-2.2 2.9-2.2 8.1 0 5.3 2 8.2 2.2 2.8 6.2 2.8t6.1-2.9q2.2-2.9 2.2-8 0-5.4-2.2-8.3-2.1-2.9-6-2.9z"/>
  <path id="tJ" d="M-101.53 790.72v28.78c0 1.85-.45 3.25-1.33 4.2-.87.97-2.16 1.44-3.87 1.44H-108v6.2h1.65c4.38 0 7.64-.97 9.79-2.93 2.17-1.97 3.25-4.94 3.25-8.91v-28.78h-8.22zm44.53 9.96v20.64h4.75v-6.2l5.8 6.2h5.75l-7.83-8.04 7.25-6.82h-5.51l-5.46 5.46v-11.24H-57zm51.7 2c-1.1 0-2.05.22-2.85.67a6.14 6.14 0 0 0-2.1 2.12v-2.44H-15v14.86h4.75v-6.84c0-1.46.32-2.58.97-3.36a3.5 3.5 0 0 1 2.83-1.18c.42 0 .84.05 1.24.15.42.08.83.22 1.25.42l-.02-4.3-.8-.08-.52-.02zm-67.52 7c-2.56 0-4.57.69-6.02 2.07-1.44 1.39-2.16 3.3-2.16 5.74 0 2.44.72 4.35 2.16 5.73 1.45 1.38 3.46 2.07 6.02 2.07 2.56 0 4.55-.69 5.99-2.07 1.44-1.39 2.16-3.3 2.16-5.74s-.72-4.35-2.16-5.73c-1.44-1.38-3.43-2.07-6-2.07zm0 3.4c1.04 0 1.83.38 2.37 1.14.55.75.83 1.83.83 3.26 0 1.43-.28 2.52-.83 3.28a2.76 2.76 0 0 1-2.37 1.13 2.8 2.8 0 0 1-2.41-1.13c-.55-.77-.82-1.86-.82-3.28s.27-2.5.82-3.26a2.8 2.8 0 0 1 2.4-1.14zm44.06 1.6c-2.57 0-4.59.7-6.05 2.09s-2.2 3.3-2.2 5.71c0 2.47.75 4.39 2.23 5.76 1.5 1.36 3.59 2.04 6.28 2.04 1.12 0 2.25-.11 3.37-.33a20.4 20.4 0 0 0 3.37-.95v-3.67c-1.11.6-2.19 1.06-3.24 1.36-1.04.3-2.06.44-3.06.44-1.24 0-2.2-.28-2.9-.84s-1.09-1.4-1.2-2.51h11.1v-1.35c0-2.35-.7-4.23-2.1-5.64-1.4-1.4-3.27-2.11-5.6-2.11zm-.03 3.16c.84 0 1.53.28 2.05.84a3 3 0 0 1 .8 2.17h-6.18a3.6 3.6 0 0 1 1.09-2.23 3.2 3.2 0 0 1 2.24-.78z"/>
  <clipPath id="cP3492">
   <rect x="2.67" y="28.38" width="29.38" height="39.9" ry="3.15"/>
  </clipPath>
  <clipPath id="cP3776">
   <rect x="2.67" y="28.34" width="29.38" height="39.9" ry="3.15"/>
  </clipPath>
  <clipPath id="cP4048">
   <rect x="-70.34" y="36" width="28.19" height="38.26" ry="3.02"/>
  </clipPath>
  <clipPath id="cP9177">
   <rect transform="scale(-1 1)" x="-270.23" y="-8.49" width="69.74" height="94.65" ry="7.47"/>
  </clipPath>
  <clipPath id="cP9196">
   <rect x="179.2" y="-11.78" width="71.83" height="97.5" ry="7.7"/>
  </clipPath>
  <clipPath id="cP9215">
   <rect x="178.47" y="-10.65" width="71.1" height="96.5" ry="7.62"/>
  </clipPath>
  <clipPath id="cP1310">
   <rect x="168.7" y="-29.97" width="82.72" height="112.27" ry="8.86"/>
  </clipPath>
  <clipPath id="cP12596">
   <rect x="1451" y="1" width="140" height="190" ry="15"/>
  </clipPath>
  <clipPath id="cP54384">
   <path d="M93 68.4a28.6 28.6 0 0 0-28.3 28.8c0 13.5 11.1 23.2 21.3 28 2 1 1.1 6.4 0 7.9-.9 1.1-5.3 1.7-6 0-4.4-10.8-14.2-21.7-27.4-21.7-15.6 0-28.3 12.9-28.3 28.8S37 169 52.6 169c13.2 0 23-10.9 27.4-21.7.7-1.7 5.3-1.3 6 0 1.3 2.5 1.3 8 0 11.5-5.7 15.9-30.1 46.8-21 46.8h56c9.1 0-15.3-31-21-46.8-1.3-3.6-1.3-9 0-11.5.7-1.3 5.3-1.7 6 0 4.4 10.8 14.2 21.7 27.4 21.7 15.6 0 28.3-12.9 28.3-28.8s-12.7-28.8-28.3-28.8c-13.2 0-23 10.9-27.4 21.7-.7 1.7-5.1 1.1-6 0-1.1-1.5-2-7 0-8 10.2-4.7 21.3-14.4 21.3-27.9A28.6 28.6 0 0 0 93 68.4z"/>
  </clipPath>
 </defs>
 <g id="spade_jack">
  <rect x="1451" y="586" width="140" height="190" ry="15" fill="#f2f1ee"/>
  <g transform="matrix(-2.007 0 0 2.007 1993.4 603.04)" clip-path="url(#cP9177)">
   <g transform="rotate(26.15 264.29 52.94)">
    <path d="M258.03 50.47c-.67 0-1.24.86-1.53 2.1-2.35.36-4.1 1.56-4.1 2.96 0 1.31 1.52 2.4 3.63 2.85v3.68c-1.11.3-1.88.84-1.88 1.47s.76 1.2 1.88 1.5V86.7h4V65.03c1.11-.3 1.88-.87 1.88-1.5s-.77-1.16-1.88-1.47v-3.69c2.11-.44 3.63-1.53 3.63-2.84 0-1.4-1.75-2.6-4.1-2.97-.29-1.23-.86-2.1-1.53-2.1z" fill="#888a85"/>
   </g>
   <path d="M251.26 96h-56.4c-7.68 0 9.9-32.05 28.2-46.84C239.5 64 260.1 95.77 251.25 96z" fill="#e82626"/>
   <g transform="translate(-.24)">
    <path d="m206 94.75c1.08-5.06 1.94-8.04 6.1-12.76-2.21 6.69-2.41 8.36-2.27 12.76zm34.88 0c-1.08-5.06-1.94-8.04-6.1-12.76 2.21 6.69 2.41 8.36 2.27 12.76z" opacity=".4"/>
   </g>
   <g transform="translate(-.12)">
    <path d="m211.34 61.16a120.89 120.89 0 0 0-3.78 4.68c4.07 2.38 8.5 4.4 14.42 4.91l-1.58-6.31-9.06-3.28z" fill="#31609b"/>
   </g>
   <g transform="matrix(-1 0 0 1 445.6 0)">
    <path d="m211.34 61.16a120.89 120.89 0 0 0-3.78 4.68c4.07 2.38 8.5 4.4 14.42 4.91l-1.58-6.31-9.06-3.28z" fill="#31609b"/>
   </g>
   <path d="m204.56 45.94a18.57 18.57 0 1 0 37.14 0 18.57 18.57 0 1 0-37.14 0z" style="fill:#ead4ad"/>
   <path d="m206.36 24.4h33.68a3 3 0 0 1 3 3l-1.58 8.27a3 3 0 0 1-3 3h-30.52a3 3 0 0 1-3-3l-1.58-8.28a3 3 0 0 1 3-3z" fill="#31609b"/>
   <g transform="translate(.58)" fill="#323a3e">
    <path d="M221.03 53.75c.26-1.06-.91-1.45-1.48-1.35-.6.1-1.83.1-3.37 2.85 2.23-1.14 4.75-1.09 4.85-1.5zm3.19 0c-.26-1.06.91-1.45 1.48-1.35.6.1 1.83.1 3.37 2.85-2.23-1.14-4.75-1.09-4.85-1.5z"/>
   </g>
  </g>
  <use transform="translate(0 685)" style="fill:#323a3e" xlink:href="#J"/>
  <g id="spade-9-5-0" transform="translate(1626.8 535.78) scale(1.206)">
   <path d="m-51.83 49.6c-2.6 0-13.78 11.29-13.78 17.8 0 7.03 8.16 2.98 12.1 1.57-1.44 3.42-6.2 9.46-4.32 9.46h12c1.9 0-2.9-6.04-4.34-9.46 3.94 1.4 12.16 5.5 12.16-1.57 0-6.51-11.22-17.8-13.82-17.8z" fill="#323a3e"/>
  </g>
  <rect x="1451" y="586" width="140" height="190" ry="15" fill="none" stroke="#323a3e" stroke-width="2"/>
 </g>
 <g id="club_1">
  <g id="club">
   <rect x="1" y="1" width="140" height="190" ry="15" fill="#f2f1ee"/>
   <g transform="matrix(1.183 0 0 1.2063 176.28 -49.22)">
    <path d="M-51.8 49.6a6 6 0 0 0-6 6c0 2.9 2.3 5 4.5 6 .4.1.2 1.3 0 1.6-.2.2-1.1.3-1.3 0-1-2.3-3-4.6-5.9-4.6a6 6 0 0 0 0 12.1c2.9 0 5-2.3 6-4.5 0-.4 1-.3 1.2 0 .3.5.3 1.6 0 2.4-1.2 3.3-6.5 9.8-4.5 9.8h12c2 0-3.3-6.5-4.5-9.8-.3-.7-.3-1.9 0-2.4.1-.3 1.1-.4 1.3 0 1 2.2 3 4.5 5.8 4.5a6 6 0 0 0 0-12c-2.8 0-4.9 2.2-5.8 4.5-.2.3-1.1.2-1.3 0-.3-.3-.5-1.5 0-1.7 2.2-1 4.5-3 4.5-5.8a6 6 0 0 0-6-6.1z" fill="#323a3e"/>
   </g>
   <rect x="1" y="1" width="140" height="190" ry="15" fill="none"/>
   <rect x="1" y="1" width="140" height="190" ry="15" clip-path="url(#cP54384)" fill="#323a3e"/>
   <rect x="1" y="1" width="140" height="190" ry="15" fill="none" stroke="#323a3e" stroke-width="2"/>
  </g>
  <g transform="matrix(1.48 0 0 1.48 -4.34 -5.12)">
   <path d="M26.7 29.8h-9.41l-1.49 4.24H9.76l8.64-23.32h7.17l8.64 23.32h-6.05L26.7 29.8m-7.9-4.32h6.39L22 16.19z" fill="#323a3e"/>
  </g>
 </g>
 <g id="heart_1">
  <g id="heart">
   <rect x="1" y="391" width="140" height="190" ry="15" fill="#f2f1ee"/>
   <g id="heart-2" transform="matrix(4.7644 0 0 4.7602 -11.75 256.11)" clip-path="url(#cP3776)">
    <path d="M36.39 48.42c0 13.52-12.34 22.9-14.4 22.9-2.02 0-14.4-9.45-14.4-22.95 0-10.84 11.9-4.18 14.4.15 2.5-4.35 14.4-10.93 14.4-.1z" fill="#e82626"/>
   </g>
   <g id="heart-2-3" transform="matrix(1.208 0 0 1.2068 88.44 349.32)">
    <path d="M36.39 48.42c0 13.52-12.34 22.9-14.4 22.9-2.02 0-14.4-9.45-14.4-22.95 0-10.84 11.9-4.18 14.4.15 2.5-4.35 14.4-10.93 14.4-.1z" fill="#e82626"/>
   </g>
   <rect x="1" y="391" width="140" height="190" ry="15" fill="none" stroke="#323a3e" stroke-width="2"/>
  </g>
  <use transform="translate(0 490)" style="fill:#e82626" xlink:href="#A"/>
 </g>
 <g id="club_2">
  <use transform="translate(145)" xlink:href="#club"/>
  <use transform="translate(0 100)" style="fill:#323a3e" xlink:href="#2"/>
 </g>
 <g id="club_3">
  <use transform="translate(290)" xlink:href="#club"/>
  <use transform="translate(0 100)" style="fill:#323a3e" xlink:href="#3"/>
 </g>
 <g id="club_4">
  <use transform="translate(435)" xlink:href="#club"/>
  <use transform="translate(0 100)" style="fill:#323a3e" xlink:href="#4"/>
 </g>
 <g id="club_5">
  <use transform="translate(580)" xlink:href="#club"/>
  <use transform="translate(0 100)" style="fill:#323a3e" xlink:href="#5"/>
 </g>
 <g id="club_6">
  <use transform="translate(725)" xlink:href="#club"/>
  <use transform="translate(0 100)" style="fill:#323a3e" xlink:href="#6"/>
 </g>
 <g id="club_7">
  <use transform="translate(870)" xlink:href="#club"/>
  <use transform="translate(0 100)" style="fill:#323a3e" xlink:href="#7"/>
 </g>
 <g id="club_8">
  <use transform="translate(1015)" xlink:href="#club"/>
  <use transform="translate(0 100)" style="fill:#323a3e" xlink:href="#8"/>
 </g>
 <g id="club_9">
  <use transform="translate(1160)" xlink:href="#club"/>
  <use transform="translate(0 100)" style="fill:#323a3e" xlink:href="#9"/>
 </g>
 <g id="club_10">
  <use transform="translate(1305)" xlink:href="#club"/>
  <use transform="translate(0 100)" style="fill:#323a3e" xlink:href="#10"/>
 </g>
 <g id="spade_1">
  <g id="spade">
   <rect x="1" y="586" width="140" height="190" ry="15" fill="#f2f1ee"/>
   <g id="spade-9-6" transform="translate(350.3 407.21) scale(4.9661)" clip-path="url(#cP4048)">
    <path d="m-51.83 49.6c-2.6 0-13.78 11.29-13.78 17.8 0 7.03 8.16 2.98 12.1 1.57-1.44 3.42-6.2 9.46-4.32 9.46h12c1.9 0-2.9-6.04-4.34-9.46 3.94 1.4 12.16 5.5 12.16-1.57 0-6.51-11.22-17.8-13.82-17.8z" fill="#323a3e"/>
   </g>
   <g id="spade-9" transform="translate(176.75 535.78) scale(1.206)">
    <path d="m-51.83 49.6c-2.6 0-13.78 11.29-13.78 17.8 0 7.03 8.16 2.98 12.1 1.57-1.44 3.42-6.2 9.46-4.32 9.46h12c1.9 0-2.9-6.04-4.34-9.46 3.94 1.4 12.16 5.5 12.16-1.57 0-6.51-11.22-17.8-13.82-17.8z" fill="#323a3e"/>
   </g>
   <rect x="1" y="586" width="140" height="190" ry="15" fill="none" stroke="#323a3e" stroke-width="2"/>
  </g>
  <use transform="translate(0 685)" style="fill:#323a3e" xlink:href="#A"/>
 </g>
 <g id="spade_2">
  <use transform="translate(145)" xlink:href="#spade"/>
  <use transform="translate(0 685)" style="fill:#323a3e" xlink:href="#2"/>
 </g>
 <g id="spade_3">
  <use transform="translate(290)" xlink:href="#spade"/>
  <use transform="translate(0 685)" style="fill:#323a3e" xlink:href="#3"/>
 </g>
 <g id="spade_4">
  <use transform="translate(435)" xlink:href="#spade"/>
  <use transform="translate(0 685)" style="fill:#323a3e" xlink:href="#4"/>
 </g>
 <g id="spade_5">
  <use transform="translate(580)" xlink:href="#spade"/>
  <use transform="translate(0 685)" style="fill:#323a3e" xlink:href="#5"/>
 </g>
 <g id="spade_6">
  <use transform="translate(725)" xlink:href="#spade"/>
  <use transform="translate(0 685)" style="fill:#323a3e" xlink:href="#6"/>
 </g>
 <g id="spade_7">
  <use transform="translate(870)" xlink:href="#spade"/>
  <use transform="translate(0 685)" style="fill:#323a3e" xlink:href="#7"/>
 </g>
 <g id="spade_8">
  <use transform="translate(1015)" xlink:href="#spade"/>
  <use transform="translate(0 685)" style="fill:#323a3e" xlink:href="#8"/>
 </g>
 <g id="spade_9">
  <use transform="translate(1160)" xlink:href="#spade"/>
  <use transform="translate(0 685)" style="fill:#323a3e" xlink:href="#9"/>
 </g>
 <g id="spade_10">
  <use transform="translate(1305)" xlink:href="#spade"/>
  <use transform="translate(0 685)" style="fill:#323a3e" xlink:href="#10"/>
 </g>
 <g id="heart_2">
  <use transform="translate(145)" xlink:href="#heart"/>
  <use transform="translate(0 490)" style="fill:#e82626" xlink:href="#2"/>
 </g>
 <g id="heart_3">
  <use transform="translate(290)" xlink:href="#heart"/>
  <use transform="translate(0 490)" style="fill:#e82626" xlink:href="#3"/>
 </g>
 <g id="heart_4">
  <use transform="translate(435)" xlink:href="#heart"/>
  <use transform="translate(0 490)" style="fill:#e82626" xlink:href="#4"/>
 </g>
 <g id="heart_5">
  <use transform="translate(580)" xlink:href="#heart"/>
  <use transform="translate(0 490)" style="fill:#e82626" xlink:href="#5"/>
 </g>
 <g id="heart_6">
  <use transform="translate(725)" xlink:href="#heart"/>
  <use transform="translate(0 490)" style="fill:#e82626" xlink:href="#6"/>
 </g>
 <g id="heart_7">
  <use transform="translate(870)" xlink:href="#heart"/>
  <use transform="translate(0 490)" style="fill:#e82626" xlink:href="#7"/>
 </g>
 <g id="heart_8">
  <use transform="translate(1015)" xlink:href="#heart"/>
  <use transform="translate(0 490)" style="fill:#e82626" xlink:href="#8"/>
 </g>
 <g id="heart_9">
  <use transform="translate(1160)" xlink:href="#heart"/>
  <use transform="translate(0 490)" style="fill:#e82626" xlink:href="#9"/>
 </g>
 <g id="heart_10">
  <use transform="translate(1305)" xlink:href="#heart"/>
  <use transform="translate(0 490)" style="fill:#e82626" xlink:href="#10"/>
 </g>
 <g id="diamond_1">
  <g id="diam">
   <rect x="1" y="196" width="140" height="190" ry="15" fill="#f2f1ee"/>
   <g id="diamond-6" transform="translate(-11.75 60.8) scale(4.7645)" clip-path="url(#cP3492)">
    <path d="m36.39 56.92c0 1.98-12.4 14.4-14.4 14.4-2.04 0-14.4-12.38-14.4-14.4 0-2.01 12.38-14.4 14.4-14.4 1.98 0 14.4 12.4 14.4 14.4z" fill="#e82626"/>
   </g>
   <g id="diamond-6-6" transform="translate(88.44 154.24) scale(1.208)">
    <path d="m36.39 56.92c0 1.98-12.4 14.4-14.4 14.4-2.04 0-14.4-12.38-14.4-14.4 0-2.01 12.38-14.4 14.4-14.4 1.98 0 14.4 12.4 14.4 14.4z" fill="#e82626"/>
   </g>
   <rect x="1" y="196" width="140" height="190" ry="15" fill="none" stroke="#323a3e" stroke-width="2"/>
  </g>
  <use transform="translate(0 295)" style="fill:#e82626" xlink:href="#A"/>
 </g>
 <g id="diamond_2">
  <use transform="translate(145)" xlink:href="#diam"/>
  <use transform="translate(0 295)" style="fill:#e82626" xlink:href="#2"/>
 </g>
 <g id="diamond_3">
  <use transform="translate(290)" xlink:href="#diam"/>
  <use transform="translate(0 295)" style="fill:#e82626" xlink:href="#3"/>
 </g>
 <g id="diamond_4">
  <use transform="translate(435)" xlink:href="#diam"/>
  <use transform="translate(0 295)" style="fill:#e82626" xlink:href="#4"/>
 </g>
 <g id="diamond_5">
  <use transform="translate(580)" xlink:href="#diam"/>
  <use transform="translate(0 295)" style="fill:#e82626" xlink:href="#5"/>
 </g>
 <g id="diamond_6">
  <use transform="translate(725)" xlink:href="#diam"/>
  <use transform="translate(0 295)" style="fill:#e82626" xlink:href="#6"/>
 </g>
 <g id="diamond_7">
  <use transform="translate(870)" xlink:href="#diam"/>
  <use transform="translate(0 295)" style="fill:#e82626" xlink:href="#7"/>
 </g>
 <g id="diamond_8">
  <use transform="translate(1015)" xlink:href="#diam"/>
  <use transform="translate(0 295)" style="fill:#e82626" xlink:href="#8"/>
 </g>
 <g id="diamond_9">
  <use transform="translate(1160)" xlink:href="#diam"/>
  <use transform="translate(0 295)" style="fill:#e82626" xlink:href="#9"/>
 </g>
 <g id="diamond_10">
  <use transform="translate(1304.9)" xlink:href="#diam"/>
  <use transform="translate(0 295)" style="fill:#e82626" xlink:href="#10"/>
 </g>
 <g id="club_jack">
  <rect x="1451" y="1" width="140" height="190" ry="15" fill="#f2f1ee"/>
  <g clip-path="url(#cP12596)">
   <g transform="matrix(-1.802 .885 .885 1.802 1892.3 -204.9)">
    <path d="M258 50.5c-.6 0-1.2.8-1.5 2-2.4.4-4.1 1.6-4.1 3 0 1.3 1.5 2.4 3.6 2.9V62c-1 .3-1.8.8-1.8 1.4s.7 1.2 1.8 1.5v21.7h4V65c1.1-.3 2-.8 2-1.5s-.9-1.1-2-1.4v-3.7c2.1-.5 3.7-1.6 3.7-2.9 0-1.4-1.8-2.6-4.1-3-.3-1.2-.9-2-1.6-2z" fill="#888a85"/>
   </g>
   <path d="m1489.1 210.7h113.19c15.43 0-19.84-64.32-56.6-94.01-33.02 29.8-74.33 93.6-56.6 94z" fill="#31609b"/>
   <g transform="matrix(-2.007 0 0 2.007 1993.9 18.04)">
    <path id="p4278" d="m206 94.75c1.08-5.06 1.94-8.04 6.1-12.76-2.21 6.69-2.41 8.36-2.27 12.76z" opacity=".4"/>
    <use transform="matrix(-1 0 0 1 446.88 0)" width="744.09" height="1052.36" xlink:href="#p4278"/>
   </g>
   <g transform="matrix(-2.007 0 0 2.007 1993.7 18.04)">
    <path d="m211.34 61.16a120.9 120.9 0 0 0-3.78 4.7c4.1 2.4 8.5 4.4 14.42 4.9l-1.58-6.31-9.06-3.3z" fill="#323a3e"/>
   </g>
   <g transform="translate(1099 18.04) scale(2.007)">
    <path d="m211.34 61.16a120.9 120.9 0 0 0-3.78 4.68c4.07 2.4 8.5 4.4 14.42 4.9l-1.58-6.31-9.06-3.28z" fill="#323a3e"/>
   </g>
   <path d="m1582.8 110.25a37.27 37.28 0 1 1-74.55 0 37.27 37.28 0 1 1 74.55 0z" style="fill:#836744"/>
   <path d="m1579.2 95.66h-67.6a6 6 0 0 1-6.02-6.03l3.17-16.6a6 6 0 0 1 6.02-6.03h61.25a6 6 0 0 1 6.03 6.03l3.17 16.6a6 6 0 0 1-6.02 6.03z" fill="#323a3e"/>
   <g transform="matrix(-2.007 0 0 2.007 1992.3 18.04)">
    <path id="p5789" d="M221.03 53.75c.26-1.06-.91-1.45-1.48-1.35-.6.1-1.83.1-3.37 2.85 2.23-1.14 4.75-1.09 4.85-1.5z" fill="#323a3e"/>
    <use transform="matrix(-1 0 0 1 445.25 0)" width="744.09" height="1052.36" xlink:href="#p5789"/>
   </g>
  </g>
  <use transform="translate(0 100)" style="fill:#323a3e" xlink:href="#J"/>
  <g transform="matrix(1.183 0 0 1.2063 1626.3 -49.22)">
   <path d="M-51.8 49.6a6 6 0 0 0-6 6c0 2.9 2.3 5 4.5 6 .4.1.2 1.3 0 1.6-.2.2-1.1.3-1.3 0-1-2.3-3-4.6-5.9-4.6a6 6 0 0 0 0 12.1c2.9 0 5-2.3 6-4.5 0-.4 1-.3 1.2 0 .3.5.3 1.6 0 2.4-1.2 3.3-6.5 9.8-4.5 9.8h12c2 0-3.3-6.5-4.5-9.8-.3-.7-.3-1.9 0-2.4.1-.3 1.1-.4 1.3 0 1 2.2 3 4.5 5.8 4.5a6 6 0 0 0 0-12c-2.8 0-4.9 2.2-5.8 4.5-.2.3-1.1.2-1.3 0-.3-.3-.5-1.5 0-1.7 2.2-1 4.5-3 4.5-5.8a6 6 0 0 0-6-6.1z" fill="#323a3e"/>
  </g>
  <rect x="1451" y="1" width="140" height="190" ry="15" fill="none" stroke="#323a3e" stroke-width="2"/>
 </g>
 <g id="club_king">
  <rect x="1741" y="1" width="140" height="190" ry="15" fill="#f2f1ee"/>
  <g transform="matrix(1.97 0 0 1.97 1389.6 21.98)" clip-path="url(#cP9215)">
   <g transform="rotate(-18.64 215.21 256.63)">
    <path d="M258.03 50.47c-.67 0-1.24.86-1.53 2.1-2.35.36-4.1 1.56-4.1 2.96 0 1.31 1.52 2.4 3.63 2.85v3.68c-1.11.3-1.88.84-1.88 1.47s.76 1.2 1.88 1.5V86.7h4V65.03c1.11-.3 1.88-.87 1.88-1.5s-.77-1.16-1.88-1.47v-3.68c2.11-.45 3.63-1.54 3.63-2.85 0-1.4-1.75-2.6-4.1-2.97-.29-1.23-.86-2.1-1.53-2.1z" fill="#dcc711"/>
   </g>
   <path transform="matrix(.508 0 0 .508 -705.75 -11.16)" d="M1802.6 145.7c-24.11 30-40.6 65.25-29.3 65.25h111c13-.33-6.3-35.28-30.4-65.14L1830 180z" fill="#323a3e" stroke-width="2"/>
   <path transform="matrix(.508 0 0 .508 -705.75 -11.16)" d="m1816.5 130a211.52 211.52 0 0 0-13.95 15.72l27.43 34.28 23.91-34.16a285.07 285.07 0 0 0-13.74-15.84h-23.65z" fill="#31609b" stroke-width="2"/>
   <g transform="matrix(-1 0 0 1 448.31 0)">
    <path transform="translate(-1595)" d="M1810 58.2c-8.25-.6-11.5 6.78-10.32 10.9 1.1 3.83 10.28 4.61 18.9 21.35l1.79-6.9c-1.71-12.75-7.63-24.44-10.37-25.35z" fill="#fff"/>
    <g fill="#323a3e">
     <path d="M221.68 79.13c-1.08-.17-1.53.9-1.38 1.45.16.55.74 1.18 2.8 3.42-.29-2.58-.93-4.8-1.42-4.87z"/>
     <use transform="translate(-2.06 -7.65)" width="744.09" height="1052.36" xlink:href="#p3645-1"/>
     <use transform="rotate(-11.65 176.89 111.87)" width="744.09" height="1052.36" xlink:href="#p3645-1"/>
     <use transform="rotate(-10.5 135.18 109.44)" width="744.09" height="1052.36" xlink:href="#p3645-1"/>
     <use transform="rotate(-25.28 182.92 101.65)" width="744.09" height="1052.36" xlink:href="#p3645-1"/>
    </g>
   </g>
   <g>
    <path transform="translate(-1595)" d="M1810 58.2c-8.25-.6-11.5 6.78-10.32 10.9 1.18 4.13 11.8 4.72 20.93 25.65 1.77-16.22-7.07-35.37-10.61-36.55z" fill="#fff"/>
    <path id="p3645-1" d="M221.68 79.13c-1.08-.17-1.53.9-1.38 1.45.16.55.74 1.18 2.8 3.42-.29-2.58-.93-4.8-1.42-4.87z" fill="#323a3e"/>
    <g fill="#323a3e">
     <use transform="translate(-2.06 -7.65)" width="744.09" height="1052.36" xlink:href="#p3645-1"/>
     <use transform="rotate(-11.65 176.89 111.87)" width="744.09" height="1052.36" xlink:href="#p3645-1"/>
     <use transform="rotate(-10.5 135.18 109.44)" width="744.09" height="1052.36" xlink:href="#p3645-1"/>
     <use transform="rotate(-25.28 182.92 101.65)" width="744.09" height="1052.36" xlink:href="#p3645-1"/>
    </g>
   </g>
   <path transform="translate(-1313.2 -5.2)" d="m1554.9 51.14a18.57 18.57 0 1 1-37.14 0 18.57 18.57 0 1 1 37.14 0z" style="fill:#b59257"/>
   <g fill="#dcc711">
    <path d="m203.9 20.74 4.83 4 4.82-4 4.82 4 4.83-4 4.82 4 4.83-4 4.82 4 4.83-4-4 13.7h-30.6z"/>
    <path transform="translate(-1595)" d="m1852.2 73.92a8.7 8.7 0 1 1-17.4 0 8.7 8.7 0 1 1 17.4 0z"/>
    <path d="M247.05 53.12v3.72h-3.75v3.03h3.75v5.72h3V53.12z"/>
   </g>
  </g>
  <use transform="translate(0 100)" style="fill:#323a3e" xlink:href="#K"/>
  <g transform="matrix(1.183 0 0 1.2063 1916.3 -49.22)">
   <path d="M-51.8 49.6a6 6 0 0 0-6 6c0 2.9 2.3 5 4.5 6 .4.1.2 1.3 0 1.6-.2.2-1.1.3-1.3 0-1-2.3-3-4.6-5.9-4.6a6 6 0 0 0 0 12.1c2.9 0 5-2.3 6-4.5 0-.4 1-.3 1.2 0 .3.5.3 1.6 0 2.4-1.2 3.3-6.5 9.8-4.5 9.8h12c2 0-3.3-6.5-4.5-9.8-.3-.7-.3-1.9 0-2.4.1-.3 1.1-.4 1.3 0 1 2.2 3 4.5 5.8 4.5a6 6 0 0 0 0-12c-2.8 0-4.9 2.2-5.8 4.5-.2.3-1.1.2-1.3 0-.3-.3-.5-1.5 0-1.7 2.2-1 4.5-3 4.5-5.8a6 6 0 0 0-6-6.1z" fill="#323a3e"/>
  </g>
  <rect x="1741" y="1" width="140" height="190" ry="15" fill="none" stroke="#323a3e" stroke-width="2"/>
 </g>
 <g id="club_queen">
  <rect x="1596" y="1" width="140" height="190" ry="15" fill="#f2f1ee"/>
  <g transform="matrix(1.95 0 0 1.95 1246.7 23.95)" clip-path="url(#cP9196)">
   <path d="m195.3 40.7c1.64 1.64 5.33 1.64 7 0 1.64 1.64 5.33 1.64 7 0h28c1.65 1.64 5.34 1.64 7 0 1.65 1.64 5.34 1.64 7 0l-16 30.1h-23.8z" fill="#323a3e"/>
   <path d="M247.26 96h-48.4c-7.68 0 5.88-32.05 24.2-46.84C239.5 64 256.1 95.8 247.25 96z" fill="#31609b"/>
   <g transform="translate(-.24)">
    <path id="p4288-5" d="m208 94.75c1.08-5.06 1.9-8.29 5.43-13.64-1.84 6.93-1.74 9.24-1.6 13.64z" opacity=".4"/>
    <use transform="matrix(-1 0 0 1 446.88 0)" width="744.09" height="1052.36" xlink:href="#p4288-5"/>
   </g>
   <path transform="translate(-1313.2 -5.2)" d="m1554.9 51.14a18.57 18.57 0 1 1-37.14 0 18.57 18.57 0 1 1 37.14 0z" style="fill:#e8d0a6"/>
   <path d="m214.54 13.12 4.33 6 4.33-6 4.33 6 4.33-6-2 19.4h-13.32z" fill="#dcc711"/>
  </g>
  <use transform="translate(0 100)" style="fill:#323a3e" xlink:href="#Q"/>
  <g transform="matrix(1.183 0 0 1.2063 1771.3 -49.22)">
   <path d="M-51.8 49.6a6 6 0 0 0-6 6c0 2.9 2.3 5 4.5 6 .4.1.2 1.3 0 1.6-.2.2-1.1.3-1.3 0-1-2.3-3-4.6-5.9-4.6a6 6 0 0 0 0 12.1c2.9 0 5-2.3 6-4.5 0-.4 1-.3 1.2 0 .3.5.3 1.6 0 2.4-1.2 3.3-6.5 9.8-4.5 9.8h12c2 0-3.3-6.5-4.5-9.8-.3-.7-.3-1.9 0-2.4.1-.3 1.1-.4 1.3 0 1 2.2 3 4.5 5.8 4.5a6 6 0 0 0 0-12c-2.8 0-4.9 2.2-5.8 4.5-.2.3-1.1.2-1.3 0-.3-.3-.5-1.5 0-1.7 2.2-1 4.5-3 4.5-5.8a6 6 0 0 0-6-6.1z" fill="#323a3e"/>
  </g>
  <rect x="1596" y="1" width="140" height="190" ry="15" fill="none" stroke="#323a3e" stroke-width="2"/>
 </g>
 <g id="diamond_jack">
  <rect x="1451" y="196" width="140" height="190" ry="15" fill="#f2f1ee"/>
  <g transform="matrix(-2.007 0 0 2.007 1993.4 213.04)" clip-path="url(#cP9177)">
   <g transform="rotate(26.15 264.29 52.94)">
    <path d="M258.03 50.47c-.67 0-1.24.86-1.53 2.1-2.35.36-4.1 1.56-4.1 2.96 0 1.31 1.52 2.4 3.63 2.85v3.68c-1.11.3-1.88.84-1.88 1.47s.76 1.2 1.88 1.5V86.7h4V65.03c1.11-.3 1.88-.87 1.88-1.5s-.77-1.16-1.88-1.47v-3.69c2.11-.44 3.63-1.53 3.63-2.84 0-1.4-1.75-2.6-4.1-2.97-.29-1.23-.86-2.1-1.53-2.1z" fill="#888a85"/>
   </g>
   <path d="M251.26 96h-56.4c-7.7 0 9.9-32.1 28.2-46.84C239.5 64 260.1 95.8 251.25 96z" fill="#31609b"/>
   <g transform="translate(-.24)">
    <path d="m206 94.75c1.08-5.06 1.94-8.04 6.1-12.76-2.21 6.69-2.41 8.36-2.27 12.76zm34.88 0c-1.08-5.06-1.94-8.04-6.1-12.76 2.21 6.69 2.41 8.36 2.27 12.76z" opacity=".4"/>
   </g>
   <g transform="translate(-.12)">
    <path d="m211.34 61.16a120.9 120.9 0 0 0-3.78 4.7c4.1 2.4 8.5 4.4 14.42 4.9l-1.6-6.31-9.06-3.3z" fill="#e82626"/>
   </g>
   <g transform="matrix(-1 0 0 1 445.6 0)">
    <path d="m211.34 61.16a120.8 120.9 0 0 0-3.78 4.7c4.07 2.38 8.5 4.4 14.42 4.9l-1.58-6.31-9.06-3.28z" fill="#e82626"/>
   </g>
   <path d="m204.56 45.94a18.57 18.57 0 1 0 37.14 0 18.57 18.57 0 1 0-37.14 0z" fill="#e5c999"/>
   <path d="m206.36 24.4h33.68a3 3 0 0 1 3 3l-1.58 8.27a3 3 0 0 1-3 3h-30.52a3 3 0 0 1-3-3l-1.58-8.28a3 3 0 0 1 3-3z" fill="#e82626"/>
   <g transform="translate(.58)" fill="#323a3e">
    <path d="M221.03 53.75c.26-1.06-.91-1.45-1.48-1.35-.6.1-1.83.1-3.37 2.85 2.23-1.14 4.75-1.09 4.85-1.5zm3.19 0c-.26-1.06.91-1.45 1.48-1.35.6.1 1.83.1 3.37 2.85-2.23-1.14-4.75-1.09-4.85-1.5z"/>
   </g>
  </g>
  <use transform="translate(0 295)" style="fill:#e82626" xlink:href="#J"/>
  <g id="diamond-6-6-6-8" transform="translate(1538.4 154.24) scale(1.208)">
   <path d="m36 57c0 2-12 14-14 14s-14-12-14-14 12-14 14-14 14 12 14 14z" fill="#e82626"/>
  </g>
  <rect x="1451" y="196" width="140" height="190" ry="15" fill="none" stroke="#323a3e" stroke-width="2"/>
 </g>
 <g id="diamond_queen">
  <rect x="1596" y="196" width="140" height="190" ry="15" fill="#f2f1ee"/>
  <g transform="matrix(1.95 0 0 1.95 1246.7 218.95)" clip-path="url(#cP9196)">
   <path d="m195.3 40.7c1.64 1.64 5.33 1.64 7 0 1.64 1.64 5.33 1.64 7 0h28c1.65 1.64 5.34 1.64 7 0 1.65 1.64 5.34 1.64 7 0l-16 30.1h-23.8z" fill="#e82626"/>
   <path d="M247.26 96h-48.4c-7.7 0 5.9-32.1 24.2-46.84C239.5 64 256.1 95.8 247.25 96z" fill="#31609b"/>
   <g transform="translate(-.24)">
    <path d="m208 94.75c1.08-5.06 1.9-8.29 5.43-13.64-1.84 6.93-1.74 9.24-1.6 13.64z" opacity=".4"/>
    <use transform="matrix(-1 0 0 1 446.88 0)" width="744.09" height="1052.36" xlink:href="#p4288-5"/>
   </g>
   <path transform="translate(-1313.2 -5.2)" d="m1554.9 51.14a18.57 18.57 0 1 1-37.14 0 18.57 18.57 0 1 1 37.14 0z" style="fill:#ab9559"/>
   <path d="m214.54 13.12 4.33 6 4.33-6 4.33 6 4.33-6-2 19.4h-13.32z" fill="#dcc711"/>
  </g>
  <use transform="translate(0 295)" style="fill:#e82626" xlink:href="#Q"/>
  <g id="diamond-6-6-6-0" transform="translate(1683.4 154.24) scale(1.208)">
   <path d="m36 57c0 2-12 14-14 14s-14-12-14-14 12-14 14-14 14 12 14 14z" fill="#e82626"/>
  </g>
  <rect x="1596" y="196" width="140" height="190" ry="15" fill="none" stroke="#323a3e" stroke-width="2"/>
 </g>
 <g id="heart_jack">
  <rect x="1451" y="391" width="140" height="190" ry="15" fill="#f2f1ee"/>
  <g transform="matrix(-2.007 0 0 2.007 1993.4 408.04)" clip-path="url(#cP9177)">
   <g transform="rotate(26.15 264.29 52.94)">
    <path d="M258.03 50.47c-.67 0-1.24.86-1.53 2.1-2.35.36-4.1 1.56-4.1 2.96 0 1.31 1.52 2.4 3.63 2.85v3.68c-1.11.3-1.88.84-1.88 1.47s.76 1.2 1.88 1.5V86.7h4V65.03c1.11-.3 1.88-.87 1.88-1.5s-.77-1.16-1.88-1.47v-3.69c2.11-.44 3.63-1.53 3.63-2.84 0-1.4-1.75-2.6-4.1-2.97-.29-1.23-.86-2.1-1.53-2.1z" fill="#888a85"/>
   </g>
   <path d="M251.26 96h-56.4c-7.68 0 9.9-32.05 28.2-46.84C239.5 64 260.1 95.8 251.25 96z" fill="#e82626"/>
   <g transform="translate(-.24)">
    <path d="m206 94.75c1.08-5.06 1.94-8.04 6.1-12.76-2.21 6.69-2.41 8.36-2.27 12.76zm34.88 0c-1.08-5.06-1.94-8.04-6.1-12.76 2.21 6.69 2.41 8.36 2.27 12.76z" opacity=".4"/>
   </g>
   <g transform="translate(-.12)">
    <path d="m211.34 61.16a120.9 120.9 0 0 0-3.78 4.68c4.07 2.38 8.5 4.4 14.42 4.9l-1.58-6.31-9.06-3.28z" fill="#323a3e"/>
   </g>
   <g transform="matrix(-1 0 0 1 445.6 0)">
    <path d="m211.34 61.16a120.9 120.9 0 0 0-3.78 4.68c4.07 2.38 8.5 4.4 14.42 4.9l-1.58-6.31-9.06-3.28z" fill="#323a3e"/>
   </g>
   <path d="m204.56 45.94a18.57 18.57 0 1 0 37.14 0 18.57 18.57 0 1 0-37.14 0z" style="fill:#cdb160"/>
   <g fill="#323a3e">
    <path d="m206.36 38.67h33.68a3 3 0 0 0 3-3l-1.58-8.28a3 3 0 0 0-3-3h-30.52a3 3 0 0 0-3 3l-1.58 8.28a3 3 0 0 0 3 3z"/>
    <g transform="translate(.58)">
     <path d="M221.03 53.75c.26-1.06-.91-1.45-1.48-1.35-.6.1-1.83.1-3.37 2.85 2.23-1.14 4.75-1.09 4.85-1.5zm3.19 0c-.26-1.06.91-1.45 1.48-1.35.6.1 1.83.1 3.37 2.85-2.23-1.14-4.75-1.09-4.85-1.5z"/>
    </g>
   </g>
  </g>
  <use transform="translate(0 490)" style="fill:#e82626" xlink:href="#J"/>
  <g id="heart-2-3-7-0" transform="matrix(1.208 0 0 1.2068 1538.4 349.32)">
   <path d="M36.39 48.42c0 13.52-12.34 22.9-14.4 22.9-2.02 0-14.4-9.45-14.4-22.95 0-10.84 11.9-4.18 14.4.15 2.5-4.35 14.4-10.93 14.4-.1z" fill="#e82626"/>
  </g>
  <rect x="1451" y="391" width="140" height="190" ry="15" fill="none" stroke="#323a3e" stroke-width="2"/>
 </g>
 <g id="heart_queen">
  <rect x="1596" y="391" width="140" height="190" ry="15" fill="#f2f1ee"/>
  <g transform="matrix(1.95 0 0 1.95 1246.7 413.95)" clip-path="url(#cP9196)">
   <path d="m195.3 40.7c1.64 1.64 5.33 1.64 7 0 1.64 1.64 5.33 1.64 7 0h28c1.65 1.64 5.34 1.64 7 0 1.65 1.64 5.34 1.64 7 0l-16 30.1h-23.8z" fill="#e82626"/>
   <path d="M247.26 96h-48.4c-7.68 0 5.9-32.1 24.2-46.84C239.5 64 256.1 95.8 247.25 96z" fill="#e82626"/>
   <g transform="translate(-.24)">
    <path d="m208 94.75c1.08-5.06 1.9-8.29 5.43-13.64-1.84 6.93-1.74 9.24-1.6 13.64z" opacity=".4"/>
    <use transform="matrix(-1 0 0 1 446.88 0)" width="744.09" height="1052.36" xlink:href="#p4288-5"/>
   </g>
   <path transform="translate(-1313.2 -5.2)" d="m1554.9 51.14a18.57 18.57 0 1 1-37.14 0 18.57 18.57 0 1 1 37.14 0z" style="fill:#e9d2aa"/>
   <path d="m214.54 13.12 4.33 6 4.33-6 4.33 6 4.33-6-2 19.4h-13.32z" fill="#dcc711"/>
  </g>
  <use transform="translate(0 490)" style="fill:#e82626" xlink:href="#Q"/>
  <g id="heart-2-3-7-7" transform="matrix(1.208 0 0 1.2068 1683.4 349.32)">
   <path d="M36.39 48.42c0 13.52-12.34 22.9-14.4 22.9-2.02 0-14.4-9.45-14.4-22.95 0-10.84 11.9-4.18 14.4.15 2.5-4.35 14.4-10.93 14.4-.1z" fill="#e82626"/>
  </g>
  <rect x="1596" y="391" width="140" height="190" ry="15" fill="none" stroke="#323a3e" stroke-width="2"/>
 </g>
 <g id="heart_king">
  <rect x="1741" y="391" width="140" height="190" ry="15" fill="#f2f1ee"/>
  <g transform="matrix(1.97 0 0 1.97 1389.6 412)" clip-path="url(#cP9215)">
   <g transform="rotate(-18.64 215.21 256.63)">
    <path d="M258.03 50.47c-.67 0-1.24.86-1.53 2.1-2.35.36-4.1 1.56-4.1 2.96 0 1.31 1.52 2.4 3.63 2.85v3.68c-1.11.3-1.88.84-1.88 1.47s.76 1.2 1.88 1.5V86.7h4V65.03c1.11-.3 1.88-.87 1.88-1.5s-.77-1.16-1.88-1.47v-3.69c2.11-.44 3.63-1.53 3.63-2.84 0-1.4-1.75-2.6-4.1-2.97-.29-1.23-.86-2.1-1.53-2.1z" fill="#dcc711"/>
   </g>
   <path d="M251.26 96h-56.4c-7.68 0 9.9-32 28.2-46.84C239.5 64 260.1 95.8 251.25 96z" fill="#e82626"/>
   <g transform="matrix(-1 0 0 1 448.31 0)">
    <path transform="translate(-1595)" d="M1810 58.2c-8.25-.6-11.5 6.78-10.32 10.9 1.1 3.83 10.28 4.61 18.9 21.35l1.79-6.9c-1.71-12.75-7.63-24.44-10.37-25.35z" fill="#fff"/>
    <g fill="#323a3e">
     <path d="M221.68 79.13c-1.08-.17-1.53.9-1.38 1.45.16.55.74 1.18 2.8 3.42-.29-2.58-.93-4.8-1.42-4.87z"/>
     <use transform="translate(-2.06 -7.65)" width="744.09" height="1052.36" xlink:href="#p3645-1"/>
     <use transform="rotate(-11.65 176.89 111.87)" width="744.09" height="1052.36" xlink:href="#p3645-1"/>
     <use transform="rotate(-10.5 135.18 109.44)" width="744.09" height="1052.36" xlink:href="#p3645-1"/>
     <use transform="rotate(-25.28 182.92 101.65)" width="744.09" height="1052.36" xlink:href="#p3645-1"/>
    </g>
   </g>
   <g>
    <path transform="translate(-1595)" d="M1810 58.2c-8.25-.6-11.5 6.78-10.32 10.9 1.18 4.13 11.8 4.72 20.93 25.65 1.77-16.22-7.07-35.37-10.61-36.55z" fill="#fff"/>
    <g fill="#323a3e">
     <path d="M221.68 79.13c-1.08-.17-1.53.9-1.38 1.45.16.55.74 1.18 2.8 3.42-.29-2.58-.93-4.8-1.42-4.87z"/>
     <use transform="translate(-2.06 -7.65)" width="744.09" height="1052.36" xlink:href="#p3645-1"/>
     <use transform="rotate(-11.65 176.89 111.87)" width="744.09" height="1052.36" xlink:href="#p3645-1"/>
     <use transform="rotate(-10.5 135.18 109.44)" width="744.09" height="1052.36" xlink:href="#p3645-1"/>
     <use transform="rotate(-25.28 182.92 101.65)" width="744.09" height="1052.36" xlink:href="#p3645-1"/>
    </g>
   </g>
   <path transform="translate(-1313.2 -5.2)" d="m1554.9 51.14a18.57 18.57 0 1 1-37.14 0 18.57 18.57 0 1 1 37.14 0z" style="fill:#d3b37e"/>
   <g fill="#dcc711">
    <path d="m203.9 20.74 4.83 4 4.8-4 4.8 4 4.83-4 4.82 4 4.83-4 4.82 4 4.83-4-4 13.7h-30.6z"/>
    <path transform="translate(-1595)" d="m1852.2 73.92a8.7 8.7 0 1 1-17.4 0 8.7 8.7 0 1 1 17.4 0z"/>
    <path d="M247.05 53.12v3.72h-3.75v3.03h3.75v5.72h3V53.12z"/>
   </g>
  </g>
  <use transform="translate(0 490)" style="fill:#e82626" xlink:href="#K"/>
  <g id="heart-2-3-7-6" transform="matrix(1.208 0 0 1.2068 1828.4 349.32)">
   <path d="M36.39 48.42c0 13.52-12.34 22.9-14.4 22.9-2.02 0-14.4-9.45-14.4-22.95 0-10.84 11.9-4.18 14.4.15 2.5-4.35 14.4-10.93 14.4-.1z" fill="#e82626"/>
  </g>
  <rect x="1741" y="391" width="140" height="190" ry="15" fill="none" stroke="#323a3e" stroke-width="2"/>
 </g>
 <g id="spade_queen">
  <rect x="1596" y="586" width="140" height="190" ry="15" fill="#f2f1ee"/>
  <g transform="matrix(1.95 0 0 1.95 1246.7 608.95)" clip-path="url(#cP9196)">
   <path d="m195.3 40.7c1.64 1.64 5.33 1.64 7 0 1.64 1.64 5.33 1.64 7 0h28c1.65 1.64 5.34 1.64 7 0 1.65 1.64 5.34 1.64 7 0l-16 30.1h-23.8z" fill="#31609b"/>
   <path d="M247.26 96h-48.4c-7.68 0 5.88-32.05 24.2-46.84C239.5 64 256.1 95.8 247.25 96z" fill="#e82626"/>
   <g transform="translate(-.24)">
    <path d="m208 94.75c1.08-5.06 1.9-8.29 5.43-13.64-1.84 6.93-1.74 9.24-1.6 13.64z" opacity=".4"/>
    <use transform="matrix(-1 0 0 1 446.88 0)" width="744.09" height="1052.36" xlink:href="#p4288-5"/>
   </g>
   <path transform="translate(-1313.2 -5.2)" d="m1554.9 51.14a18.57 18.57 0 1 1-37.14 0 18.57 18.57 0 1 1 37.14 0z" style="fill:#a07a45"/>
   <path d="m214.54 13.12 4.33 6 4.33-6 4.33 6 4.33-6-2 19.4h-13.32z" fill="#dcc711"/>
  </g>
  <use transform="translate(0 685)" style="fill:#323a3e" xlink:href="#Q"/>
  <g id="spade-9-5-6" transform="translate(1771.8 535.78) scale(1.206)">
   <path d="m-51.83 49.6c-2.6 0-13.78 11.29-13.78 17.8 0 7.03 8.16 2.98 12.1 1.57-1.44 3.42-6.2 9.46-4.32 9.46h12c1.9 0-2.9-6.04-4.34-9.46 3.94 1.4 12.16 5.5 12.16-1.57 0-6.51-11.22-17.8-13.82-17.8z" fill="#323a3e"/>
  </g>
  <rect x="1596" y="586" width="140" height="190" ry="15" fill="none" stroke="#323a3e" stroke-width="2"/>
 </g>
 <g id="spade_king">
  <rect x="1741" y="586" width="140" height="190" ry="15" fill="#f2f1ee"/>
  <g transform="matrix(1.97 0 0 1.97 1389.6 606.98)" clip-path="url(#cP9215)">
   <g transform="rotate(-18.64 215.21 256.63)">
    <path d="M258.03 50.47c-.67 0-1.24.86-1.53 2.1-2.35.36-4.1 1.56-4.1 2.96 0 1.31 1.52 2.4 3.63 2.85v3.68c-1.11.3-1.88.84-1.88 1.47s.76 1.2 1.88 1.5V86.7h4V65.03c1.11-.3 1.88-.87 1.88-1.5s-.77-1.16-1.88-1.47v-3.68c2.11-.45 3.63-1.54 3.63-2.85 0-1.4-1.75-2.6-4.1-2.97-.29-1.23-.86-2.1-1.53-2.1z" fill="#dcc711"/>
   </g>
   <path transform="matrix(.508 0 0 .508 -705.75 -308.27)" d="M1802.6 730.7c-24.11 30-40.6 65.25-29.3 65.25h111c13-.33-6.3-35.28-30.4-65.14L1830 765z" fill="#31609b" stroke-width="2"/>
   <path transform="matrix(.508 0 0 .508 -705.75 -308.27)" d="m1816.5 715a211.52 211.52 0 0 0-13.95 15.72l27.43 34.28 23.91-34.16a285.07 285.07 0 0 0-13.74-15.84h-23.65z" fill="#e82626" stroke-width="2"/>
   <g transform="matrix(-1 0 0 1 448.31 0)">
    <path transform="translate(-1595)" d="M1810 58.2c-8.25-.6-11.5 6.78-10.32 10.9 1.1 3.83 10.28 4.61 18.9 21.35l1.79-6.9c-1.71-12.75-7.63-24.44-10.37-25.35z" fill="#fff"/>
    <g fill="#323a3e">
     <path d="M221.68 79.13c-1.08-.17-1.53.9-1.38 1.45.16.55.74 1.18 2.8 3.42-.29-2.58-.93-4.8-1.42-4.87z"/>
     <use transform="translate(-2.06 -7.65)" width="744.09" height="1052.36" xlink:href="#p3645-1"/>
     <use transform="rotate(-11.65 176.89 111.87)" width="744.09" height="1052.36" xlink:href="#p3645-1"/>
     <use transform="rotate(-10.5 135.18 109.44)" width="744.09" height="1052.36" xlink:href="#p3645-1"/>
     <use transform="rotate(-25.28 182.92 101.65)" width="744.09" height="1052.36" xlink:href="#p3645-1"/>
    </g>
   </g>
   <g>
    <path transform="translate(-1595)" d="M1810 58.2c-8.25-.6-11.5 6.78-10.32 10.9 1.18 4.13 11.8 4.72 20.93 25.65 1.77-16.22-7.07-35.37-10.61-36.55z" fill="#fff"/>
    <g fill="#323a3e">
     <path d="M221.68 79.13c-1.08-.17-1.53.9-1.38 1.45.16.55.74 1.18 2.8 3.42-.29-2.58-.93-4.8-1.42-4.87z"/>
     <use transform="translate(-2.06 -7.65)" width="744.09" height="1052.36" xlink:href="#p3645-1"/>
     <use transform="rotate(-11.65 176.89 111.87)" width="744.09" height="1052.36" xlink:href="#p3645-1"/>
     <use transform="rotate(-10.5 135.18 109.44)" width="744.09" height="1052.36" xlink:href="#p3645-1"/>
     <use transform="rotate(-25.28 182.92 101.65)" width="744.09" height="1052.36" xlink:href="#p3645-1"/>
    </g>
   </g>
   <path transform="translate(-1313.2 -5.2)" d="m1554.9 51.14a18.57 18.57 0 1 1-37.14 0 18.57 18.57 0 1 1 37.14 0z" style="fill:#e2bf8a"/>
   <g fill="#dcc711">
    <path d="m203.9 20.74 4.83 4 4.8-4 4.8 4 4.83-4 4.82 4 4.83-4 4.82 4 4.83-4-4 13.7h-30.6z"/>
    <path transform="translate(-1595)" d="m1852.2 73.92a8.7 8.7 0 1 1-17.4 0 8.7 8.7 0 1 1 17.4 0z"/>
    <path d="M247.05 53.12v3.72h-3.75v3.03h3.75v5.72h3V53.12z"/>
   </g>
  </g>
  <use transform="translate(0 685)" style="fill:#323a3e" xlink:href="#K"/>
  <g id="spade-9-5-04" transform="translate(1916.8 535.78) scale(1.206)">
   <path d="m-51.83 49.6c-2.6 0-13.78 11.29-13.78 17.8 0 7.03 8.16 2.98 12.1 1.57-1.44 3.42-6.2 9.46-4.32 9.46h12c1.9 0-2.9-6.04-4.34-9.46 3.94 1.4 12.16 5.5 12.16-1.57 0-6.51-11.22-17.8-13.82-17.8z" fill="#323a3e"/>
  </g>
  <rect x="1741" y="586" width="140" height="190" ry="15" fill="none" stroke="#323a3e" stroke-width="2"/>
 </g>
 <g id="back" transform="translate(-145)">
  <rect x="436" y="781" width="140" height="190" ry="15" fill="#31609b" stroke="#323a3e" stroke-width="2"/>
  <path d="M574.22 849.12a149.63 149.63 0 0 1-7.88 6.16c-3.36 2.38-6.57 4.4-9.68 6.15s-6.13 3.22-9.03 4.44-5.7 2.21-8.44 3-5.41 1.4-8.03 1.84-5.18.74-7.72.94c-5.08.4-10.04.4-15.06.4s-10.11 0-15.4.35a91.57 91.57 0 0 0-25.94 5.4c-3.18 1.17-6.47 2.57-9.91 4.26s-7.01 3.67-10.75 5.97c-2.74 1.68-5.68 3.75-8.6 5.8V956c0 7.35 5.87 13.22 13.22 13.22h110c7.35 0 13.22-5.87 13.22-13.22V849.11z" fill="#fff" opacity=".5"/>
  <g transform="translate(-2.85 -200)">
   <g transform="matrix(1.0393 0 0 1.189 462.85 1003.5)" stroke-linejoin="round" stroke-width="1.4">
    <g fill="#204a87">
     <path d="M86.07 0c-24.6 0-29.22 35.04-15.38 35.04S110.67 0 86.07 0zM45.22 30.7c7.37.45 15.45-28.12 1.6-26.33-13.84 1.8-8.98 25.88-1.6 26.33zM11.45 48.45c5.24-2.3.67-24.87-8.24-18.71-8.91 6.15 3 21.02 8.23 18.71zm14.76-11.81c6.24-1.27 6.58-26.86-4.54-22.27-11.13 4.6-1.7 23.55 4.54 22.27z"/>
    </g>
    <path d="m58.8 93.9c1.1 8.5-6.2 12.6-13.4 7.2-22.8-17.4 37.7-26 33.7-49.7-3.2-19.7-63.6-13.6-70.5 17.1-4.7 20.8 19.1 49.7 44 49.7 12.2 0 26.3-11 28.9-25 2-10.7-23.7-6.4-22.8 0.66z" fill="#31609b"/>
   </g>
   <path d="m552.3 1003.5c-25.6 0-30.4 41.7-16 41.7s41.6-41.7 16-41.7zm-39.5 5.1a8.7 8.7 0 0 0-1.3 0.1c-14.4 2.1-9.3 30.8-1.7 31.3 7.5 0.5 15.6-31.4 3-31.4zm-25.2 11.3c-0.7 0-1.4 0.3-2.2 0.7-11.6 5.4-1.8 28 4.7 26.5 5.9-1.4 6.7-26.5-1.8-27.2a4.5 4.5 0 0 0-0.7 0zm-18.2 17.7a5 5 0 0 0-3.2 1.3c-9.3 7.3 3.1 25 8.5 22.2 4.8-2.4 1.8-23.2-5.3-23.5zm51 13.5c-16.8 0.3-37.5 8.8-45.7 25.3h0.2a90.8 90.8 0 0 1 17.8-4.6l8.1-0.9c5.3-0.3 10.4-0.3 15.4-0.3s10 0 15-0.4c2.6-0.2 5.2-0.5 7.8-1a73.4 73.4 0 0 0 6.3-1.3 18 18 0 0 0-0.2-3.3c-1.3-8.8-10.9-13.2-22.8-13.5a47 47 0 0 0-1.9 0z" fill="#fff" opacity=".5"/>
  </g>
 </g>
 <g id="diamond_king">
  <rect x="1741" y="196" width="140" height="190" ry="15" fill="#f2f1ee"/>
  <g transform="matrix(1.97 0 0 1.97 1389.6 216.98)" clip-path="url(#cP9215)">
   <g transform="rotate(-18.64 215.21 256.63)">
    <path d="M258.03 50.47c-.67 0-1.24.86-1.53 2.1-2.35.36-4.1 1.56-4.1 2.96 0 1.31 1.52 2.4 3.63 2.85v3.68c-1.11.3-1.88.84-1.88 1.47s.76 1.2 1.88 1.5V86.7h4V65.03c1.11-.3 1.88-.87 1.88-1.5s-.77-1.16-1.88-1.47v-3.69c2.11-.44 3.63-1.53 3.63-2.84 0-1.4-1.75-2.6-4.1-2.97-.29-1.23-.86-2.1-1.53-2.1z" fill="#dcc711"/>
   </g>
   <path transform="matrix(.508 0 0 .508 -705.75 -110.2)" d="M1802.6 340.7c-24.11 30-40.6 65.25-29.3 65.25h111c13-.33-6.3-35.28-30.4-65.14L1830 375z" fill="#e82626" stroke-width="2"/>
   <path transform="matrix(.508 0 0 .508 -705.75 -110.2)" d="m1816.5 325a211.52 211.52 0 0 0-13.95 15.72l27.43 34.28 23.91-34.16a285.07 285.07 0 0 0-13.74-15.84h-23.65z" fill="#31609b" stroke-width="2"/>
   <g transform="matrix(-1 0 0 1 448.31 0)">
    <path transform="translate(-1595)" d="M1810 58.2c-8.25-.6-11.5 6.78-10.32 10.9 1.1 3.83 10.28 4.61 18.9 21.35l1.79-6.9c-1.71-12.75-7.63-24.44-10.37-25.35z" fill="#fff"/>
    <g fill="#323a3e">
     <path d="M221.68 79.13c-1.08-.17-1.53.9-1.38 1.45.16.55.74 1.18 2.8 3.42-.29-2.58-.93-4.8-1.42-4.87z"/>
     <use transform="translate(-2.06 -7.65)" width="744.09" height="1052.36" xlink:href="#p3645-1"/>
     <use transform="rotate(-11.65 176.89 111.87)" width="744.09" height="1052.36" xlink:href="#p3645-1"/>
     <use transform="rotate(-10.5 135.18 109.44)" width="744.09" height="1052.36" xlink:href="#p3645-1"/>
     <use transform="rotate(-25.28 182.92 101.65)" width="744.09" height="1052.36" xlink:href="#p3645-1"/>
    </g>
   </g>
   <g>
    <path transform="translate(-1595)" d="M1810 58.2c-8.25-.6-11.5 6.78-10.32 10.9 1.18 4.13 11.8 4.72 20.93 25.65 1.77-16.22-7.07-35.37-10.61-36.55z" fill="#fff"/>
    <g fill="#323a3e">
     <path d="M221.68 79.13c-1.08-.17-1.53.9-1.38 1.45.16.55.74 1.18 2.8 3.42-.29-2.58-.93-4.8-1.42-4.87z"/>
     <use transform="translate(-2.06 -7.65)" width="744.09" height="1052.36" xlink:href="#p3645-1"/>
     <use transform="rotate(-11.65 176.89 111.87)" width="744.09" height="1052.36" xlink:href="#p3645-1"/>
     <use transform="rotate(-10.5 135.18 109.44)" width="744.09" height="1052.36" xlink:href="#p3645-1"/>
     <use transform="rotate(-25.28 182.92 101.65)" width="744.09" height="1052.36" xlink:href="#p3645-1"/>
    </g>
   </g>
   <path transform="translate(-1313.2 -5.2)" d="m1554.9 51.14a18.57 18.57 0 1 1-37.14 0 18.57 18.57 0 1 1 37.14 0z" style="fill:#8e6848"/>
   <g fill="#dcc711">
    <path d="m203.9 20.74 4.83 4 4.82-4 4.82 4 4.83-4 4.82 4 4.83-4 4.82 4 4.83-4-4 13.7h-30.6l-4-13.7z"/>
    <path transform="translate(-1595)" d="m1852.2 73.92a8.7 8.7 0 1 1-17.4 0 8.7 8.7 0 1 1 17.4 0z"/>
    <path d="M247.05 53.12v3.72h-3.75v3.03h3.75v5.72h3V53.12z"/>
   </g>
  </g>
  <use transform="translate(0 295)" style="fill:#e82626" xlink:href="#K"/>
  <g id="diamond-6-6-6-4" transform="translate(1828.4 154.24) scale(1.208)">
   <path d="m36 57c0 2-12 14-14 14s-14-12-14-14 12-14 14-14 14 12 14 14z" fill="#e82626"/>
  </g>
  <rect x="1741" y="196" width="140" height="190" ry="15" fill="none" stroke="#323a3e" stroke-width="2"/>
 </g>
 <g id="joker_black">
  <rect x="1" y="781" width="140" height="190" ry="15" fill="#f2f1ee"/>
  <g transform="matrix(1.69 0 0 1.69 -284.51 831.71)" clip-path="url(#cP1310)">
   <path d="M251.26 96h-56.4c-7.68 0 9.9-32.05 28.2-46.84C239.5 64 260.1 95.8 251.25 96z" fill="#323a3e"/>
   <path transform="translate(-1313.2 -5.2)" d="m1554.9 51.1a18.6 18.6 0 1 1-37.14 0 18.6 18.6 0 1 1 37.14 0z" fill="#e5c999"/>
   <path d="M213.38 9c-9.1-.41-19.73 5.23-28.8 21 13.19-13.2 25.78-7.9 25.8 2.04h25.66c0-9.9 12.59-15.22 25.78-2.03-12.62-21.9-28.3-24.16-38.63-17.9a20.6 20.6 0 0 0-9.8-3.1z" clip-path="none" fill="#31609b"/>
   <path transform="translate(145 -780)" d="M78 792a23.4 23.4 0 0 0-10.3 14.2c5.35 3.1 8.7 9.4 10.3 15.4 1.6-6 5-12.3 10.3-15.4A23.3 23.3 0 0 0 77.99 792z" fill="#457dc4"/>
   <g>
    <path transform="translate(145 -780)" d="m41 811.13a2.2 2.2 0 1 1-4.4 0 2.2 2.2 0 1 1 4.4 0z" fill="#dcc711" stroke="#ba9a0a"/>
    <path transform="translate(124.97 -1194.8) scale(1.512)" d="M39.25 811.04a.5.5 0 1 1-1 0 .5.5 0 1 1 1 0z" fill="#ce5c00"/>
    <path d="m183.38 31.56-.98.98" stroke="#ce5c00" stroke-width=".5"/>
   </g>
   <g transform="translate(39.38 10)">
    <path transform="translate(145 -780)" d="m41 811.13a2.2 2.2 0 1 1-4.4 0 2.2 2.2 0 1 1 4.4 0z" fill="#dcc711" stroke="#ba9a0a"/>
    <g transform="translate(-.18)">
     <path id="p4764-6" transform="translate(126.97 -1194.8) scale(1.512)" d="M39.25 811.04a.5.5 0 1 1-1 0 .5.5 0 1 1 1 0z" fill="#ce5c00"/>
     <use transform="translate(-3.15)" width="1885" height="975" xlink:href="#p4764-6"/>
     <path d="m182.62 31.38h2.7" stroke="#ce5c00" stroke-width=".5"/>
    </g>
   </g>
  </g>
  <rect x="1" y="781" width="140" height="190" rx="15" ry="15" fill="none" stroke="#323a3e" stroke-width="2"/>
  <use transform="translate(120)" style="fill:#323a3e" xlink:href="#tJ"/>
 </g>
 <g id="joker_red">
  <rect x="146" y="781" width="140" height="190" rx="15" ry="15" fill="#f2f1ee"/>
  <g transform="matrix(1.69 0 0 1.69 -139.51 831.71)" clip-path="url(#cP1310)">
   <path d="M251.26 96h-56.4c-7.68 0 9.9-32.05 28.2-46.84C239.5 64 260.1 95.8 251.25 96z" fill="#e82626"/>
   <path transform="translate(-1313.2 -5.2)" d="m1554.9 51.1a18.6 18.6 0 1 1-37.14 0 18.6 18.6 0 1 1 37.14 0z" style="fill:#c8a466"/>
   <path d="M213.38 9c-9.1-.41-19.73 5.23-28.78 20.9 13.2-13.2 25.78-7.86 25.8 2.04h25.66c0-9.9 12.6-15.22 25.8-2-12.62-21.85-28.3-24.16-38.63-17.85a20.6 20.6 0 0 0-9.8-3.1z" clip-path="none" fill="#31609b"/>
   <path transform="translate(145 -780)" d="M78.2 792a23.4 23.4 0 0 0-10.31 14.2c5.35 3.1 8.7 9.4 10.3 15.4 1.6-6 5-12.3 10.3-15.4A23.3 23.3 0 0 0 78.18 792z" fill="#457dc4"/>
   <g>
    <path transform="translate(145 -780)" d="m41 811.13a2.2 2.2 0 1 1-4.4 0 2.2 2.2 0 1 1 4.4 0z" fill="#dcc711" stroke="#ba9a0a"/>
    <path transform="translate(124.97 -1194.8) scale(1.512)" d="M39.25 811.04a.5.5 0 1 1-1 0 .5.5 0 1 1 1 0z" fill="#ce5c00"/>
    <path d="m183.38 31.56-.98.98" stroke="#ce5c00" stroke-width=".5"/>
   </g>
   <g transform="translate(39.38 10)">
    <path transform="translate(145 -780)" d="m41 811.13a2.2 2.2 0 1 1-4.4 0 2.2 2.2 0 1 1 4.4 0z" fill="#dcc711" stroke="#ba9a0a"/>
    <g transform="translate(-.18)">
     <path transform="translate(126.97 -1194.8) scale(1.512)" d="M39.25 811.04a.5.5 0 1 1-1 0 .5.5 0 1 1 1 0z" fill="#ce5c00"/>
     <use transform="translate(-3.15)" width="1885" height="975" xlink:href="#p4764-6"/>
     <path d="m182.62 31.38h2.7" stroke="#ce5c00" stroke-width=".5"/>
    </g>
   </g>
  </g>
  <rect x="146" y="781" width="140" height="190" rx="15" ry="15" fill="none" stroke="#323a3e" stroke-width="2"/>
  <use transform="translate(265)" style="fill:#e82626" xlink:href="#tJ"/>
 </g>
</svg>
