<?xml version="1.0" encoding="UTF-8"?>
<svg width="1885" height="975" version="1.0" xmlns="http://www.w3.org/2000/svg" xmlns:xlink="http://www.w3.org/1999/xlink">
 <defs>
  <path id="A" d="M35.2-61h-14l-2.1 6.2h-9l12.8-34.5h10.6l12.8 34.5h-9L35.2-61m-11.7-6.4h9.4l-4.7-13.8z"/>
  <path id="2" d="M168.5-61.2h14.9v6.5h-24.7v-6.5L171.1-72c1.57-1.38 3.3-3.46 3.3-5.9 0-3.41-2.53-5.23-5.9-5.3-3.02-.06-6.41 1.5-9.7 3.5v-7.5c3.57-1.19 8.44-2 11.5-2 8.34 0 12.96 3.94 12.9 10.2-.08 7.91-9.09 12.97-14.7 17.8z"/>
  <path id="3" d="M321-73.3c3.78.92 6.8 3.57 6.8 8.5 0 8.55-8.58 10.1-14.8 10.1a30.3 30.3 0 0 1-10.3-1.7V-63a21.24 21.24 0 0 0 9.5 2.4c1.9 0 7-.18 7-4.5 0-4-4.29-4.7-7.3-4.7h-3.5v-5.5h3.6c4.87 0 6.4-1.58 6.4-4.1 0-3.28-3.1-4-5.8-4-2.59 0-5.22.39-8.5 1.8v-6.3c3.4-.92 6.47-1.26 10-1.4 7.96 0 12.9 2.47 12.9 8.6 0 3.66-1.7 6.23-6.1 7.4z"/>
  <path id="4" d="m462-82-9.7 14.5h9.8zm-1.4-7.3h9.9v21.8h4.9v6.5h-5v6.3h-8.3V-61h-15.3v-7.7z"/>
  <path id="5" d="M594-89.3h21.8v6.5H601v5.2c1.36-.32 2.71-.55 4.1-.6 7.87 0 13.1 3.89 13.1 11.8 0 7.6-5.4 11.6-14.1 11.6-3.91 0-7.18-.54-11.4-2.2v-6.9c3.44 1.97 6.85 3.2 10 3.2 4.3 0 6.8-2.2 6.8-5.7 0-3.82-2.72-5.8-6.8-5.8-3 0-6.12.97-8.6 2z"/>
  <path id="6" d="M750.5-71.8c-1.53 0-2.67.47-3.4 1.4-.8 1-1.2 2.47-1.2 4.4 0 2.55.73 5.9 4.6 5.9 3.14 0 4.5-2.15 4.5-5.9 0-3.39-1.17-5.8-4.5-5.8zm10.6-16v6.1a19.4 19.4 0 0 0-7.7-1.9c-4.95 0-7.93 2.41-8.5 8.4a12.16 12.16 0 0 1 7-2.2c6.92 0 11.4 4.5 11.4 10.9 0 6.67-4.46 11.8-12.9 11.8-8.29 0-13.7-5.61-13.7-16.9 0-10.88 5.82-17.7 15.6-17.7 2.79 0 6.22.54 8.8 1.4z"/>
  <path id="7" d="m882.8-89.2h26v5l-13.5 29.7h-8.6l12.7-28.1h-16.6z"/>
  <path id="8" d="M1039.8-70.3c-1.98 0-5 .72-5 5.1s3.02 5.1 5 5.1 5-.72 5-5.1-3.02-5.1-5-5.1zm-6.2-2.8c-3.54-1.18-6.1-3.22-6.1-7.6 0-7.01 6.46-8.6 12.3-8.6 5.03 0 12.4 1.25 12.4 8.6 0 4.69-3.19 6.73-6.2 7.6 5.21 1.53 6.9 4.5 6.9 8.3 0 8.22-6.85 10.1-13.1 10.1-7.03 0-13.1-2.24-13.1-10 0-3.75 1.52-6.82 6.9-8.4zm2-6.7c0 3.42 2.33 4.1 4.2 4.1 1.8 0 4.2-.63 4.2-4 0-1.5-.32-4.1-4.2-4.1-1.8 0-4.2.63-4.2 4z"/>
  <path id="9" d="M1175-56.1v-6.16c3.14 1.46 5.48 1.92 7.65 1.92 6.65 0 8.18-4.82 8.51-8.47a11.45 11.45 0 0 1-6.96 2.23c-6.99 0-11.42-4.39-11.42-10.84 0-7.1 4.9-11.86 12.88-11.86 8.66 0 13.67 6.03 13.68 16.84 0 11.11-5.95 17.73-15.64 17.73-2.72 0-5.69-.38-8.7-1.39zm10.61-16.07c2.88 0 4.55-1.76 4.55-5.85 0-3.53-1.28-5.86-4.54-5.85-3.37.01-4.54 2.46-4.54 5.85 0 2.74.74 5.85 4.54 5.85z"/>
  <path id="10" d="M1349.2-89.3c-10.81.06-11.6 13.24-11.6 17.3 0 5.95 1.34 17.33 11.6 17.3 10.93-.03 11.7-13.01 11.7-17.3 0-3.93-.76-17.36-11.7-17.3zm-26 .6-6.6 1.6v5.8l6.7-1.6v21.6h-6.5v6h19.9v-6h-6.5v-27.4zm26 5.3c3.41 0 4.4 3.55 4.4 11.3 0 6.99-.71 11.6-4.4 11.6-3.52 0-4.3-4.43-4.3-11.6 0-7.38.91-11.3 4.3-11.3z"/>
  <path id="J" d="M1469.1-89.3h8.3v28.8c0 8.85-5.51 11.9-13.1 11.9h-1.6V-55h1.2c4 0 5.2-2.54 5.2-5.6z"/>
  <path id="K" d="m1752.8-89.3h8.9v12.6l12.8-12.6h10.3l-16.6 16.4 18.4 18.2h-11.2l-13.7-13.6v13.5h-9z"/>
  <path id="Q" d="M1622.7-54.8h-.6c-12.24 0-17.4-7.58-17.4-17.2 0-11.22 6.71-17.3 17.1-17.3 10.42 0 17.1 6.03 17.1 17.3 0 4.79-1.4 12.19-9.3 15.7l6.7 7.6h-8.1zm-.9-28.3c-5.97 0-8.2 5.41-8.2 11.1 0 5.83 1.8 11 8.2 11 5.95 0 8.3-5.06 8.3-10.9 0-7.08-2.98-11.2-8.2-11.2z"/>
  <path id="tJ" d="M-101.53 790.72v28.78c0 2.55-.89 5.64-5.2 5.64H-108v6.2h1.65c6.8 0 13.04-2.32 13.04-11.84v-28.78zm44.53 9.96v20.64h4.75v-6.2l5.8 6.2h5.75l-7.83-8.04 7.25-6.82h-5.51l-5.46 5.46v-11.24zm51.7 2a5.38 5.38 0 0 0-4.95 2.79v-2.44H-15v14.86h4.75v-6.84c0-5.9 5.05-4.56 6.29-3.97l-.02-4.3a9.77 9.77 0 0 0-1.32-.1zm-67.52 7c-5.18 0-8.18 2.94-8.18 7.81 0 4.93 3.07 7.8 8.18 7.8 5.26 0 8.15-3.04 8.15-7.81 0-4.79-2.92-7.8-8.16-7.8zm0 3.4c2.15 0 3.2 1.69 3.2 4.4 0 .9-.18 4.4-3.2 4.41-3.03.01-3.23-3.43-3.23-4.41 0-.95.2-4.55 3.22-4.4zm44.06 1.6c-5.3 0-8.25 3.11-8.25 7.8 0 4.87 3.02 7.8 8.51 7.8 2.86 0 5.33-.75 6.74-1.28v-3.67a12.94 12.94 0 0 1-6.3 1.8c-2.07 0-3.85-.78-4.1-3.35h11.1v-1.35c0-4.79-3.09-7.75-7.7-7.75zm-.03 3.16c2.02 0 2.91 1.7 2.85 3.01h-6.18c.18-1.71 1.52-3.09 3.33-3.01z"/>
  <clipPath id="cP3492">
   <rect x="2.67" y="28.38" width="29.38" height="39.9" ry="3.15"/>
  </clipPath>
  <clipPath id="cP3776">
   <rect x="2.67" y="28.34" width="29.38" height="39.9" ry="3.15"/>
  </clipPath>
  <clipPath id="cP4048">
   <rect x="-70.34" y="36" width="28.19" height="38.26" ry="3.02"/>
  </clipPath>
  <clipPath id="cP9177">
   <rect transform="scale(-1 1)" x="-270.23" y="-8.49" width="69.74" height="94.65" ry="7.47"/>
  </clipPath>
  <clipPath id="cP9196">
   <rect x="179.2" y="-11.78" width="71.83" height="97.5" ry="7.7"/>
  </clipPath>
  <clipPath id="cP9215">
   <rect x="178.47" y="-10.65" width="71.1" height="96.5" ry="7.62"/>
  </clipPath>
  <clipPath id="cP1310">
   <rect x="168.7" y="-29.97" width="82.72" height="112.27" ry="8.86"/>
  </clipPath>
  <clipPath id="cP12596">
   <rect x="1451" y="1" width="140" height="190" ry="15"/>
  </clipPath>
  <clipPath id="cP54384">
   <path d="M93 68.4a28.6 28.6 0 0 0-28.3 28.8c0 13.5 11.1 23.2 21.3 28 2 1 1.1 6.4 0 7.9-.9 1.1-5.3 1.7-6 0-4.4-10.8-14.2-21.7-27.4-21.7-15.6 0-28.3 12.9-28.3 28.8S37 169 52.6 169c13.2 0 23-10.9 27.4-21.7.7-1.7 5.3-1.3 6 0 1.3 2.5 1.3 8 0 11.5-5.7 15.9-30.1 46.8-21 46.8h56c9.1 0-15.3-31-21-46.8-1.3-3.6-1.3-9 0-11.5.7-1.3 5.3-1.7 6 0 4.4 10.8 14.2 21.7 27.4 21.7 15.6 0 28.3-12.9 28.3-28.8s-12.7-28.8-28.3-28.8c-13.2 0-23 10.9-27.4 21.7-.7 1.7-5.1 1.1-6 0-1.1-1.5-2-7 0-8 10.2-4.7 21.3-14.4 21.3-27.9A28.6 28.6 0 0 0 93 68.4z"/>
  </clipPath>
 </defs>
 <g id="spade_jack">
  <rect x="1451" y="586" width="140" height="190" ry="15" fill="#f2f1ee"/>
  <g transform="matrix(-2.007 0 0 2.007 1993.4 603.04)" clip-path="url(#cP9177)">
   <g transform="rotate(26.15 264.29 52.94)">
    <path d="M258.03 50.47c-.67 0-1.24.86-1.53 2.1-2.35.36-4.1 1.56-4.1 2.96 0 1.31 1.52 2.4 3.63 2.85v3.68c-1.11.3-1.88.84-1.88 1.47s.76 1.2 1.88 1.5V86.7h4V65.03c1.11-.3 1.88-.87 1.88-1.5s-.77-1.16-1.88-1.47v-3.69c2.11-.44 3.63-1.53 3.63-2.84 0-1.4-1.75-2.6-4.1-2.97-.29-1.23-.86-2.1-1.53-2.1z" fill="#888a85"/>
   </g>
   <path d="M251.26 96h-56.4c-7.68 0 9.9-32.05 28.2-46.84C239.5 64 260.1 95.77 251.25 96z" fill="#e22"/>
   <g transform="translate(-.24)">
    <path d="m206 94.75c1.08-5.06 1.94-8.04 6.1-12.76-2.21 6.69-2.41 8.36-2.27 12.76zm34.88 0c-1.08-5.06-1.94-8.04-6.1-12.76 2.21 6.69 2.41 8.36 2.27 12.76z" opacity=".4"/>
   </g>
   <g transform="translate(-.12)">
    <path d="m211.34 61.16a120.89 120.89 0 0 0-3.78 4.68c4.07 2.38 8.5 4.4 14.42 4.91l-1.58-6.31-9.06-3.28z" fill="#36a"/>
   </g>
   <g transform="matrix(-1 0 0 1 445.6 0)">
    <path d="m211.34 61.16a120.89 120.89 0 0 0-3.78 4.68c4.07 2.38 8.5 4.4 14.42 4.91l-1.58-6.31-9.06-3.28z" fill="#36a"/>
   </g>
   <path d="m204.56 45.94a18.57 18.57 0 1 0 37.14 0 18.57 18.57 0 1 0-37.14 0z" style="fill:#ead4ad"/>
   <path d="m206.36 24.4h33.68a3 3 0 0 1 3 3l-1.58 8.27a3 3 0 0 1-3 3h-30.52a3 3 0 0 1-3-3l-1.58-8.28a3 3 0 0 1 3-3z" fill="#36a"/>
   <g transform="translate(.58)" fill="#333">
    <path d="M221.03 53.75c.26-1.06-.91-1.45-1.48-1.35-.6.1-1.83.1-3.37 2.85 2.23-1.14 4.75-1.09 4.85-1.5zm3.19 0c-.26-1.06.91-1.45 1.48-1.35.6.1 1.83.1 3.37 2.85-2.23-1.14-4.75-1.09-4.85-1.5z"/>
   </g>
  </g>
  <use transform="translate(0 685)" style="fill:#333" xlink:href="#J"/>
  <g id="spade-9-5-0" transform="translate(1626.8 535.78) scale(1.206)">
   <path d="m-51.83 49.6c-2.6 0-13.78 11.29-13.78 17.8 0 7.03 8.16 2.98 12.1 1.57-1.44 3.42-6.2 9.46-4.32 9.46h12c1.9 0-2.9-6.04-4.34-9.46 3.94 1.4 12.16 5.5 12.16-1.57 0-6.51-11.22-17.8-13.82-17.8z" fill="#333"/>
  </g>
  <rect x="1451" y="586" width="140" height="190" ry="15" fill="none" stroke="#333" stroke-width="2"/>
 </g>
 <g id="club_1">
  <g id="club">
   <rect x="1" y="1" width="140" height="190" ry="15" fill="#f2f1ee"/>
   <g transform="matrix(1.183 0 0 1.2063 176.28 -49.22)">
    <path d="M-51.8 49.6a6 6 0 0 0-6 6c0 2.9 2.3 5 4.5 6 .4.1.2 1.3 0 1.6-.2.2-1.1.3-1.3 0-1-2.3-3-4.6-5.9-4.6a6 6 0 0 0 0 12.1c2.9 0 5-2.3 6-4.5 0-.4 1-.3 1.2 0 .3.5.3 1.6 0 2.4-1.2 3.3-6.5 9.8-4.5 9.8h12c2 0-3.3-6.5-4.5-9.8-.3-.7-.3-1.9 0-2.4.1-.3 1.1-.4 1.3 0 1 2.2 3 4.5 5.8 4.5a6 6 0 0 0 0-12c-2.8 0-4.9 2.2-5.8 4.5-.2.3-1.1.2-1.3 0-.3-.3-.5-1.5 0-1.7 2.2-1 4.5-3 4.5-5.8a6 6 0 0 0-6-6.1z" fill="#333"/>
   </g>
   <rect x="1" y="1" width="140" height="190" ry="15" fill="none"/>
   <rect x="1" y="1" width="140" height="190" ry="15" clip-path="url(#cP54384)" fill="#333"/>
   <rect x="1" y="1" width="140" height="190" ry="15" fill="none" stroke="#333" stroke-width="2"/>
  </g>
  <g transform="matrix(1.48 0 0 1.48 -4.34 -5.12)">
   <path d="M26.7 29.8h-9.41l-1.49 4.24H9.76l8.64-23.32h7.17l8.64 23.32h-6.05L26.7 29.8m-7.9-4.32h6.39L22 16.19z" fill="#333"/>
  </g>
 </g>
 <g id="heart_1">
  <g id="heart">
   <rect x="1" y="391" width="140" height="190" ry="15" fill="#f2f1ee"/>
   <g id="heart-2" transform="matrix(4.7644 0 0 4.7602 -11.75 256.11)" clip-path="url(#cP3776)">
    <path d="M36.39 48.42c0 13.52-12.34 22.9-14.4 22.9-2.02 0-14.4-9.45-14.4-22.95 0-10.84 11.9-4.18 14.4.15 2.5-4.35 14.4-10.93 14.4-.1z" fill="#e22"/>
   </g>
   <g id="heart-2-3" transform="matrix(1.208 0 0 1.2068 88.44 349.32)">
    <path d="M36.39 48.42c0 13.52-12.34 22.9-14.4 22.9-2.02 0-14.4-9.45-14.4-22.95 0-10.84 11.9-4.18 14.4.15 2.5-4.35 14.4-10.93 14.4-.1z" fill="#e22"/>
   </g>
   <rect x="1" y="391" width="140" height="190" ry="15" fill="none" stroke="#333" stroke-width="2"/>
  </g>
  <use transform="translate(0 490)" style="fill:#e22" xlink:href="#A"/>
 </g>
 <g id="club_2">
  <use transform="translate(145)" xlink:href="#club"/>
  <use transform="translate(0 100)" style="fill:#333" xlink:href="#2"/>
 </g>
 <g id="club_3">
  <use transform="translate(290)" xlink:href="#club"/>
  <use transform="translate(0 100)" style="fill:#333" xlink:href="#3"/>
 </g>
 <g id="club_4">
  <use transform="translate(435)" xlink:href="#club"/>
  <use transform="translate(0 100)" style="fill:#333" xlink:href="#4"/>
 </g>
 <g id="club_5">
  <use transform="translate(580)" xlink:href="#club"/>
  <use transform="translate(0 100)" style="fill:#333" xlink:href="#5"/>
 </g>
 <g id="club_6">
  <use transform="translate(725)" xlink:href="#club"/>
  <use transform="translate(0 100)" style="fill:#333" xlink:href="#6"/>
 </g>
 <g id="club_7">
  <use transform="translate(870)" xlink:href="#club"/>
  <use transform="translate(0 100)" style="fill:#333" xlink:href="#7"/>
 </g>
 <g id="club_8">
  <use transform="translate(1015)" xlink:href="#club"/>
  <use transform="translate(0 100)" style="fill:#333" xlink:href="#8"/>
 </g>
 <g id="club_9">
  <use transform="translate(1160)" xlink:href="#club"/>
  <use transform="translate(0 100)" style="fill:#333" xlink:href="#9"/>
 </g>
 <g id="club_10">
  <use transform="translate(1305)" xlink:href="#club"/>
  <use transform="translate(0 100)" style="fill:#333" xlink:href="#10"/>
 </g>
 <g id="spade_1">
  <g id="spade">
   <rect x="1" y="586" width="140" height="190" ry="15" fill="#f2f1ee"/>
   <g id="spade-9-6" transform="translate(350.3 407.21) scale(4.9661)" clip-path="url(#cP4048)">
    <path d="m-51.83 49.6c-2.6 0-13.78 11.29-13.78 17.8 0 7.03 8.16 2.98 12.1 1.57-1.44 3.42-6.2 9.46-4.32 9.46h12c1.9 0-2.9-6.04-4.34-9.46 3.94 1.4 12.16 5.5 12.16-1.57 0-6.51-11.22-17.8-13.82-17.8z" fill="#333"/>
   </g>
   <g id="spade-9" transform="translate(176.75 535.78) scale(1.206)">
    <path d="m-51.83 49.6c-2.6 0-13.78 11.29-13.78 17.8 0 7.03 8.16 2.98 12.1 1.57-1.44 3.42-6.2 9.46-4.32 9.46h12c1.9 0-2.9-6.04-4.34-9.46 3.94 1.4 12.16 5.5 12.16-1.57 0-6.51-11.22-17.8-13.82-17.8z" fill="#333"/>
   </g>
   <rect x="1" y="586" width="140" height="190" ry="15" fill="none" stroke="#333" stroke-width="2"/>
  </g>
  <use transform="translate(0 685)" style="fill:#333" xlink:href="#A"/>
 </g>
 <g id="spade_2">
  <use transform="translate(145)" xlink:href="#spade"/>
  <use transform="translate(0 685)" style="fill:#333" xlink:href="#2"/>
 </g>
 <g id="spade_3">
  <use transform="translate(290)" xlink:href="#spade"/>
  <use transform="translate(0 685)" style="fill:#333" xlink:href="#3"/>
 </g>
 <g id="spade_4">
  <use transform="translate(435)" xlink:href="#spade"/>
  <use transform="translate(0 685)" style="fill:#333" xlink:href="#4"/>
 </g>
 <g id="spade_5">
  <use transform="translate(580)" xlink:href="#spade"/>
  <use transform="translate(0 685)" style="fill:#333" xlink:href="#5"/>
 </g>
 <g id="spade_6">
  <use transform="translate(725)" xlink:href="#spade"/>
  <use transform="translate(0 685)" style="fill:#333" xlink:href="#6"/>
 </g>
 <g id="spade_7">
  <use transform="translate(870)" xlink:href="#spade"/>
  <use transform="translate(0 685)" style="fill:#333" xlink:href="#7"/>
 </g>
 <g id="spade_8">
  <use transform="translate(1015)" xlink:href="#spade"/>
  <use transform="translate(0 685)" style="fill:#333" xlink:href="#8"/>
 </g>
 <g id="spade_9">
  <use transform="translate(1160)" xlink:href="#spade"/>
  <use transform="translate(0 685)" style="fill:#333" xlink:href="#9"/>
 </g>
 <g id="spade_10">
  <use transform="translate(1305)" xlink:href="#spade"/>
  <use transform="translate(0 685)" style="fill:#333" xlink:href="#10"/>
 </g>
 <g id="heart_2">
  <use transform="translate(145)" xlink:href="#heart"/>
  <use transform="translate(0 490)" style="fill:#e22" xlink:href="#2"/>
 </g>
 <g id="heart_3">
  <use transform="translate(290)" xlink:href="#heart"/>
  <use transform="translate(0 490)" style="fill:#e22" xlink:href="#3"/>
 </g>
 <g id="heart_4">
  <use transform="translate(435)" xlink:href="#heart"/>
  <use transform="translate(0 490)" style="fill:#e22" xlink:href="#4"/>
 </g>
 <g id="heart_5">
  <use transform="translate(580)" xlink:href="#heart"/>
  <use transform="translate(0 490)" style="fill:#e22" xlink:href="#5"/>
 </g>
 <g id="heart_6">
  <use transform="translate(725)" xlink:href="#heart"/>
  <use transform="translate(0 490)" style="fill:#e22" xlink:href="#6"/>
 </g>
 <g id="heart_7">
  <use transform="translate(870)" xlink:href="#heart"/>
  <use transform="translate(0 490)" style="fill:#e22" xlink:href="#7"/>
 </g>
 <g id="heart_8">
  <use transform="translate(1015)" xlink:href="#heart"/>
  <use transform="translate(0 490)" style="fill:#e22" xlink:href="#8"/>
 </g>
 <g id="heart_9">
  <use transform="translate(1160)" xlink:href="#heart"/>
  <use transform="translate(0 490)" style="fill:#e22" xlink:href="#9"/>
 </g>
 <g id="heart_10">
  <use transform="translate(1305)" xlink:href="#heart"/>
  <use transform="translate(0 490)" style="fill:#e22" xlink:href="#10"/>
 </g>
 <g id="diamond_1">
  <g id="diam">
   <rect x="1" y="196" width="140" height="190" ry="15" fill="#f2f1ee"/>
   <g id="diamond-6" transform="translate(-11.75 60.8) scale(4.7645)" clip-path="url(#cP3492)">
    <path d="m36.39 56.92c0 1.98-12.4 14.4-14.4 14.4-2.04 0-14.4-12.38-14.4-14.4 0-2.01 12.38-14.4 14.4-14.4 1.98 0 14.4 12.4 14.4 14.4z" fill="#e22"/>
   </g>
   <g id="diamond-6-6" transform="translate(88.44 154.24) scale(1.208)">
    <path d="m36.39 56.92c0 1.98-12.4 14.4-14.4 14.4-2.04 0-14.4-12.38-14.4-14.4 0-2.01 12.38-14.4 14.4-14.4 1.98 0 14.4 12.4 14.4 14.4z" fill="#e22"/>
   </g>
   <rect x="1" y="196" width="140" height="190" ry="15" fill="none" stroke="#333" stroke-width="2"/>
  </g>
  <use transform="translate(0 295)" style="fill:#e22" xlink:href="#A"/>
 </g>
 <g id="diamond_2">
  <use transform="translate(145)" xlink:href="#diam"/>
  <use transform="translate(0 295)" style="fill:#e22" xlink:href="#2"/>
 </g>
 <g id="diamond_3">
  <use transform="translate(290)" xlink:href="#diam"/>
  <use transform="translate(0 295)" style="fill:#e22" xlink:href="#3"/>
 </g>
 <g id="diamond_4">
  <use transform="translate(435)" xlink:href="#diam"/>
  <use transform="translate(0 295)" style="fill:#e22" xlink:href="#4"/>
 </g>
 <g id="diamond_5">
  <use transform="translate(580)" xlink:href="#diam"/>
  <use transform="translate(0 295)" style="fill:#e22" xlink:href="#5"/>
 </g>
 <g id="diamond_6">
  <use transform="translate(725)" xlink:href="#diam"/>
  <use transform="translate(0 295)" style="fill:#e22" xlink:href="#6"/>
 </g>
 <g id="diamond_7">
  <use transform="translate(870)" xlink:href="#diam"/>
  <use transform="translate(0 295)" style="fill:#e22" xlink:href="#7"/>
 </g>
 <g id="diamond_8">
  <use transform="translate(1015)" xlink:href="#diam"/>
  <use transform="translate(0 295)" style="fill:#e22" xlink:href="#8"/>
 </g>
 <g id="diamond_9">
  <use transform="translate(1160)" xlink:href="#diam"/>
  <use transform="translate(0 295)" style="fill:#e22" xlink:href="#9"/>
 </g>
 <g id="diamond_10">
  <use transform="translate(1304.9)" xlink:href="#diam"/>
  <use transform="translate(0 295)" style="fill:#e22" xlink:href="#10"/>
 </g>
 <g id="club_jack">
  <rect x="1451" y="1" width="140" height="190" ry="15" fill="#f2f1ee"/>
  <g clip-path="url(#cP12596)">
   <g transform="matrix(-1.802 .885 .885 1.802 1892.3 -204.9)">
    <path d="M258 50.5c-.6 0-1.2.8-1.5 2-2.4.4-4.1 1.6-4.1 3 0 1.3 1.5 2.4 3.6 2.9V62c-1 .3-1.8.8-1.8 1.4s.7 1.2 1.8 1.5v21.7h4V65c1.1-.3 2-.8 2-1.5s-.9-1.1-2-1.4v-3.7c2.1-.5 3.7-1.6 3.7-2.9 0-1.4-1.8-2.6-4.1-3-.3-1.2-.9-2-1.6-2z" fill="#888a85"/>
   </g>
   <path d="m1489.1 210.7h113.19c15.43 0-19.84-64.32-56.6-94.01-33.02 29.8-74.33 93.6-56.6 94z" fill="#36a"/>
   <g transform="matrix(-2.007 0 0 2.007 1993.9 18.04)">
    <path id="p4278" d="m206 94.75c1.08-5.06 1.94-8.04 6.1-12.76-2.21 6.69-2.41 8.36-2.27 12.76z" opacity=".4"/>
    <use transform="matrix(-1 0 0 1 446.88 0)" width="744.09" height="1052.36" xlink:href="#p4278"/>
   </g>
   <g transform="matrix(-2.007 0 0 2.007 1993.7 18.04)">
    <path d="m211.34 61.16a120.9 120.9 0 0 0-3.78 4.7c4.1 2.4 8.5 4.4 14.42 4.9l-1.58-6.31-9.06-3.3z" fill="#333"/>
   </g>
   <g transform="translate(1099 18.04) scale(2.007)">
    <path d="m211.34 61.16a120.9 120.9 0 0 0-3.78 4.68c4.07 2.4 8.5 4.4 14.42 4.9l-1.58-6.31-9.06-3.28z" fill="#333"/>
   </g>
   <path d="m1582.8 110.25a37.27 37.28 0 1 1-74.55 0 37.27 37.28 0 1 1 74.55 0z" style="fill:#836744"/>
   <path d="m1579.2 95.66h-67.6a6 6 0 0 1-6.02-6.03l3.17-16.6a6 6 0 0 1 6.02-6.03h61.25a6 6 0 0 1 6.03 6.03l3.17 16.6a6 6 0 0 1-6.02 6.03z" fill="#333"/>
   <g transform="matrix(-2.007 0 0 2.007 1992.3 18.04)">
    <path id="p5789" d="M221.03 53.75c.26-1.06-.91-1.45-1.48-1.35-.6.1-1.83.1-3.37 2.85 2.23-1.14 4.75-1.09 4.85-1.5z" fill="#333"/>
    <use transform="matrix(-1 0 0 1 445.25 0)" width="744.09" height="1052.36" xlink:href="#p5789"/>
   </g>
  </g>
  <use transform="translate(0 100)" style="fill:#333" xlink:href="#J"/>
  <g transform="matrix(1.183 0 0 1.2063 1626.3 -49.22)">
   <path d="M-51.8 49.6a6 6 0 0 0-6 6c0 2.9 2.3 5 4.5 6 .4.1.2 1.3 0 1.6-.2.2-1.1.3-1.3 0-1-2.3-3-4.6-5.9-4.6a6 6 0 0 0 0 12.1c2.9 0 5-2.3 6-4.5 0-.4 1-.3 1.2 0 .3.5.3 1.6 0 2.4-1.2 3.3-6.5 9.8-4.5 9.8h12c2 0-3.3-6.5-4.5-9.8-.3-.7-.3-1.9 0-2.4.1-.3 1.1-.4 1.3 0 1 2.2 3 4.5 5.8 4.5a6 6 0 0 0 0-12c-2.8 0-4.9 2.2-5.8 4.5-.2.3-1.1.2-1.3 0-.3-.3-.5-1.5 0-1.7 2.2-1 4.5-3 4.5-5.8a6 6 0 0 0-6-6.1z" fill="#333"/>
  </g>
  <rect x="1451" y="1" width="140" height="190" ry="15" fill="none" stroke="#333" stroke-width="2"/>
 </g>
 <g id="club_king">
  <rect x="1741" y="1" width="140" height="190" ry="15" fill="#f2f1ee"/>
  <g transform="matrix(1.97 0 0 1.97 1389.6 21.98)" clip-path="url(#cP9215)">
   <g transform="rotate(-18.64 215.21 256.63)">
    <path d="M258.03 50.47c-.67 0-1.24.86-1.53 2.1-2.35.36-4.1 1.56-4.1 2.96 0 1.31 1.52 2.4 3.63 2.85v3.68c-1.11.3-1.88.84-1.88 1.47s.76 1.2 1.88 1.5V86.7h4V65.03c1.11-.3 1.88-.87 1.88-1.5s-.77-1.16-1.88-1.47v-3.68c2.11-.45 3.63-1.54 3.63-2.85 0-1.4-1.75-2.6-4.1-2.97-.29-1.23-.86-2.1-1.53-2.1z" fill="#dc1"/>
   </g>
   <path transform="matrix(.508 0 0 .508 -705.75 -11.16)" d="M1802.6 145.7c-24.11 30-40.6 65.25-29.3 65.25h111c13-.33-6.3-35.28-30.4-65.14L1830 180z" fill="#333" stroke-width="2"/>
   <path transform="matrix(.508 0 0 .508 -705.75 -11.16)" d="m1816.5 130a211.52 211.52 0 0 0-13.95 15.72l27.43 34.28 23.91-34.16a285.07 285.07 0 0 0-13.74-15.84h-23.65z" fill="#36a" stroke-width="2"/>
   <g transform="matrix(-1 0 0 1 448.31 0)">
    <path transform="translate(-1595)" d="M1810 58.2c-8.25-.6-11.5 6.78-10.32 10.9 1.1 3.83 10.28 4.61 18.9 21.35l1.79-6.9c-1.71-12.75-7.63-24.44-10.37-25.35z" fill="#fff"/>
    <g fill="#333">
     <path d="M221.68 79.13c-1.08-.17-1.53.9-1.38 1.45.16.55.74 1.18 2.8 3.42-.29-2.58-.93-4.8-1.42-4.87z"/>
     <use transform="translate(-2.06 -7.65)" width="744.09" height="1052.36" xlink:href="#p3645-1"/>
     <use transform="rotate(-11.65 176.89 111.87)" width="744.09" height="1052.36" xlink:href="#p3645-1"/>
     <use transform="rotate(-10.5 135.18 109.44)" width="744.09" height="1052.36" xlink:href="#p3645-1"/>
     <use transform="rotate(-25.28 182.92 101.65)" width="744.09" height="1052.36" xlink:href="#p3645-1"/>
    </g>
   </g>
   <g>
    <path transform="translate(-1595)" d="M1810 58.2c-8.25-.6-11.5 6.78-10.32 10.9 1.18 4.13 11.8 4.72 20.93 25.65 1.77-16.22-7.07-35.37-10.61-36.55z" fill="#fff"/>
    <path id="p3645-1" d="M221.68 79.13c-1.08-.17-1.53.9-1.38 1.45.16.55.74 1.18 2.8 3.42-.29-2.58-.93-4.8-1.42-4.87z" fill="#333"/>
    <g fill="#333">
     <use transform="translate(-2.06 -7.65)" width="744.09" height="1052.36" xlink:href="#p3645-1"/>
     <use transform="rotate(-11.65 176.89 111.87)" width="744.09" height="1052.36" xlink:href="#p3645-1"/>
     <use transform="rotate(-10.5 135.18 109.44)" width="744.09" height="1052.36" xlink:href="#p3645-1"/>
     <use transform="rotate(-25.28 182.92 101.65)" width="744.09" height="1052.36" xlink:href="#p3645-1"/>
    </g>
   </g>
   <path transform="translate(-1313.2 -5.2)" d="m1554.9 51.14a18.57 18.57 0 1 1-37.14 0 18.57 18.57 0 1 1 37.14 0z" style="fill:#a73"/>
   <g fill="#dc1">
    <path d="m203.9 20.74 4.83 4 4.82-4 4.82 4 4.83-4 4.82 4 4.83-4 4.82 4 4.83-4-4 13.7h-30.6z"/>
    <path transform="translate(-1595)" d="m1852.2 73.92a8.7 8.7 0 1 1-17.4 0 8.7 8.7 0 1 1 17.4 0z"/>
    <path d="M247.05 53.12v3.72h-3.75v3.03h3.75v5.72h3V53.12z"/>
   </g>
  </g>
  <use transform="translate(0 100)" style="fill:#333" xlink:href="#K"/>
  <g transform="matrix(1.183 0 0 1.2063 1916.3 -49.22)">
   <path d="M-51.8 49.6a6 6 0 0 0-6 6c0 2.9 2.3 5 4.5 6 .4.1.2 1.3 0 1.6-.2.2-1.1.3-1.3 0-1-2.3-3-4.6-5.9-4.6a6 6 0 0 0 0 12.1c2.9 0 5-2.3 6-4.5 0-.4 1-.3 1.2 0 .3.5.3 1.6 0 2.4-1.2 3.3-6.5 9.8-4.5 9.8h12c2 0-3.3-6.5-4.5-9.8-.3-.7-.3-1.9 0-2.4.1-.3 1.1-.4 1.3 0 1 2.2 3 4.5 5.8 4.5a6 6 0 0 0 0-12c-2.8 0-4.9 2.2-5.8 4.5-.2.3-1.1.2-1.3 0-.3-.3-.5-1.5 0-1.7 2.2-1 4.5-3 4.5-5.8a6 6 0 0 0-6-6.1z" fill="#333"/>
  </g>
  <rect x="1741" y="1" width="140" height="190" ry="15" fill="none" stroke="#333" stroke-width="2"/>
 </g>
 <g id="club_queen">
  <rect x="1596" y="1" width="140" height="190" ry="15" fill="#f2f1ee"/>
  <g transform="matrix(1.95 0 0 1.95 1246.7 23.95)" clip-path="url(#cP9196)">
   <path d="m195.3 40.7c1.64 1.64 5.33 1.64 7 0 1.64 1.64 5.33 1.64 7 0h28c1.65 1.64 5.34 1.64 7 0 1.65 1.64 5.34 1.64 7 0l-16 30.1h-23.8z" fill="#333"/>
   <path d="M247.26 96h-48.4c-7.68 0 5.88-32.05 24.2-46.84C239.5 64 256.1 95.8 247.25 96z" fill="#36a"/>
   <g transform="translate(-.24)">
    <path id="p4288-5" d="m208 94.75c1.08-5.06 1.9-8.29 5.43-13.64-1.84 6.93-1.74 9.24-1.6 13.64z" opacity=".4"/>
    <use transform="matrix(-1 0 0 1 446.88 0)" width="744.09" height="1052.36" xlink:href="#p4288-5"/>
   </g>
   <path transform="translate(-1313.2 -5.2)" d="m1554.9 51.14a18.57 18.57 0 1 1-37.14 0 18.57 18.57 0 1 1 37.14 0z" style="fill:#e8d0a6"/>
   <path d="m214.54 13.12 4.33 6 4.33-6 4.33 6 4.33-6-2 19.4h-13.32z" fill="#dc1"/>
  </g>
  <use transform="translate(0 100)" style="fill:#333" xlink:href="#Q"/>
  <g transform="matrix(1.183 0 0 1.2063 1771.3 -49.22)">
   <path d="M-51.8 49.6a6 6 0 0 0-6 6c0 2.9 2.3 5 4.5 6 .4.1.2 1.3 0 1.6-.2.2-1.1.3-1.3 0-1-2.3-3-4.6-5.9-4.6a6 6 0 0 0 0 12.1c2.9 0 5-2.3 6-4.5 0-.4 1-.3 1.2 0 .3.5.3 1.6 0 2.4-1.2 3.3-6.5 9.8-4.5 9.8h12c2 0-3.3-6.5-4.5-9.8-.3-.7-.3-1.9 0-2.4.1-.3 1.1-.4 1.3 0 1 2.2 3 4.5 5.8 4.5a6 6 0 0 0 0-12c-2.8 0-4.9 2.2-5.8 4.5-.2.3-1.1.2-1.3 0-.3-.3-.5-1.5 0-1.7 2.2-1 4.5-3 4.5-5.8a6 6 0 0 0-6-6.1z" fill="#333"/>
  </g>
  <rect x="1596" y="1" width="140" height="190" ry="15" fill="none" stroke="#333" stroke-width="2"/>
 </g>
 <g id="diamond_jack">
  <rect x="1451" y="196" width="140" height="190" ry="15" fill="#f2f1ee"/>
  <g transform="matrix(-2.007 0 0 2.007 1993.4 213.04)" clip-path="url(#cP9177)">
   <g transform="rotate(26.15 264.29 52.94)">
    <path d="M258.03 50.47c-.67 0-1.24.86-1.53 2.1-2.35.36-4.1 1.56-4.1 2.96 0 1.31 1.52 2.4 3.63 2.85v3.68c-1.11.3-1.88.84-1.88 1.47s.76 1.2 1.88 1.5V86.7h4V65.03c1.11-.3 1.88-.87 1.88-1.5s-.77-1.16-1.88-1.47v-3.69c2.11-.44 3.63-1.53 3.63-2.84 0-1.4-1.75-2.6-4.1-2.97-.29-1.23-.86-2.1-1.53-2.1z" fill="#888a85"/>
   </g>
   <path d="M251.26 96h-56.4c-7.7 0 9.9-32.1 28.2-46.84C239.5 64 260.1 95.8 251.25 96z" fill="#36a"/>
   <g transform="translate(-.24)">
    <path d="m206 94.75c1.08-5.06 1.94-8.04 6.1-12.76-2.21 6.69-2.41 8.36-2.27 12.76zm34.88 0c-1.08-5.06-1.94-8.04-6.1-12.76 2.21 6.69 2.41 8.36 2.27 12.76z" opacity=".4"/>
   </g>
   <g transform="translate(-.12)">
    <path d="m211.34 61.16a120.9 120.9 0 0 0-3.78 4.7c4.1 2.4 8.5 4.4 14.42 4.9l-1.6-6.31-9.06-3.3z" fill="#e22"/>
   </g>
   <g transform="matrix(-1 0 0 1 445.6 0)">
    <path d="m211.34 61.16a120.8 120.9 0 0 0-3.78 4.7c4.07 2.38 8.5 4.4 14.42 4.9l-1.58-6.31-9.06-3.28z" fill="#e22"/>
   </g>
   <path d="m204.56 45.94a18.57 18.57 0 1 0 37.14 0 18.57 18.57 0 1 0-37.14 0z" fill="#e5c999"/>
   <path d="m206.36 24.4h33.68a3 3 0 0 1 3 3l-1.58 8.27a3 3 0 0 1-3 3h-30.52a3 3 0 0 1-3-3l-1.58-8.28a3 3 0 0 1 3-3z" fill="#e22"/>
   <g transform="translate(.58)" fill="#333">
    <path d="M221.03 53.75c.26-1.06-.91-1.45-1.48-1.35-.6.1-1.83.1-3.37 2.85 2.23-1.14 4.75-1.09 4.85-1.5zm3.19 0c-.26-1.06.91-1.45 1.48-1.35.6.1 1.83.1 3.37 2.85-2.23-1.14-4.75-1.09-4.85-1.5z"/>
   </g>
  </g>
  <use transform="translate(0 295)" style="fill:#e22" xlink:href="#J"/>
  <g id="diamond-6-6-6-8" transform="translate(1538.4 154.24) scale(1.208)">
   <path d="M36 57c0 2-12 14-14 14S8 59 8 57s12-14 14-14 14 12 14 14z" fill="#e22"/>
  </g>
  <rect x="1451" y="196" width="140" height="190" ry="15" fill="none" stroke="#333" stroke-width="2"/>
 </g>
 <g id="diamond_queen">
  <rect x="1596" y="196" width="140" height="190" ry="15" fill="#f2f1ee"/>
  <g transform="matrix(1.95 0 0 1.95 1246.7 218.95)" clip-path="url(#cP9196)">
   <path d="m195.3 40.7c1.64 1.64 5.33 1.64 7 0 1.64 1.64 5.33 1.64 7 0h28c1.65 1.64 5.34 1.64 7 0 1.65 1.64 5.34 1.64 7 0l-16 30.1h-23.8z" fill="#e22"/>
   <path d="M247.26 96h-48.4c-7.7 0 5.9-32.1 24.2-46.84C239.5 64 256.1 95.8 247.25 96z" fill="#36a"/>
   <g transform="translate(-.24)">
    <path d="m208 94.75c1.08-5.06 1.9-8.29 5.43-13.64-1.84 6.93-1.74 9.24-1.6 13.64z" opacity=".4"/>
    <use transform="matrix(-1 0 0 1 446.88 0)" width="744.09" height="1052.36" xlink:href="#p4288-5"/>
   </g>
   <path transform="translate(-1313.2 -5.2)" d="m1554.9 51.14a18.57 18.57 0 1 1-37.14 0 18.57 18.57 0 1 1 37.14 0z" style="fill:#ab9559"/>
   <path d="m214.54 13.12 4.33 6 4.33-6 4.33 6 4.33-6-2 19.4h-13.32z" fill="#dc1"/>
  </g>
  <use transform="translate(0 295)" style="fill:#e22" xlink:href="#Q"/>
  <g id="diamond-6-6-6-0" transform="translate(1683.4 154.24) scale(1.208)">
   <path d="M36 57c0 2-12 14-14 14S8 59 8 57s12-14 14-14 14 12 14 14z" fill="#e22"/>
  </g>
  <rect x="1596" y="196" width="140" height="190" ry="15" fill="none" stroke="#333" stroke-width="2"/>
 </g>
 <g id="heart_jack">
  <rect x="1451" y="391" width="140" height="190" ry="15" fill="#f2f1ee"/>
  <g transform="matrix(-2.007 0 0 2.007 1993.4 408.04)" clip-path="url(#cP9177)">
   <g transform="rotate(26.15 264.29 52.94)">
    <path d="M258.03 50.47c-.67 0-1.24.86-1.53 2.1-2.35.36-4.1 1.56-4.1 2.96 0 1.31 1.52 2.4 3.63 2.85v3.68c-1.11.3-1.88.84-1.88 1.47s.76 1.2 1.88 1.5V86.7h4V65.03c1.11-.3 1.88-.87 1.88-1.5s-.77-1.16-1.88-1.47v-3.69c2.11-.44 3.63-1.53 3.63-2.84 0-1.4-1.75-2.6-4.1-2.97-.29-1.23-.86-2.1-1.53-2.1z" fill="#888a85"/>
   </g>
   <path d="M251.26 96h-56.4c-7.68 0 9.9-32.05 28.2-46.84C239.5 64 260.1 95.8 251.25 96z" fill="#e22"/>
   <g transform="translate(-.24)">
    <path d="m206 94.75c1.08-5.06 1.94-8.04 6.1-12.76-2.21 6.69-2.41 8.36-2.27 12.76zm34.88 0c-1.08-5.06-1.94-8.04-6.1-12.76 2.21 6.69 2.41 8.36 2.27 12.76z" opacity=".4"/>
   </g>
   <g transform="translate(-.12)">
    <path d="m211.34 61.16a120.9 120.9 0 0 0-3.78 4.68c4.07 2.38 8.5 4.4 14.42 4.9l-1.58-6.31-9.06-3.28z" fill="#333"/>
   </g>
   <g transform="matrix(-1 0 0 1 445.6 0)">
    <path d="m211.34 61.16a120.9 120.9 0 0 0-3.78 4.68c4.07 2.38 8.5 4.4 14.42 4.9l-1.58-6.31-9.06-3.28z" fill="#333"/>
   </g>
   <path d="m204.56 45.94a18.57 18.57 0 1 0 37.14 0 18.57 18.57 0 1 0-37.14 0z" style="fill:#cdb160"/>
   <g fill="#333">
    <path d="m206.36 38.67h33.68a3 3 0 0 0 3-3l-1.58-8.28a3 3 0 0 0-3-3h-30.52a3 3 0 0 0-3 3l-1.58 8.28a3 3 0 0 0 3 3z"/>
    <g transform="translate(.58)">
     <path d="M221.03 53.75c.26-1.06-.91-1.45-1.48-1.35-.6.1-1.83.1-3.37 2.85 2.23-1.14 4.75-1.09 4.85-1.5zm3.19 0c-.26-1.06.91-1.45 1.48-1.35.6.1 1.83.1 3.37 2.85-2.23-1.14-4.75-1.09-4.85-1.5z"/>
    </g>
   </g>
  </g>
  <use transform="translate(0 490)" style="fill:#e22" xlink:href="#J"/>
  <g id="heart-2-3-7-0" transform="matrix(1.208 0 0 1.2068 1538.4 349.32)">
   <path d="M36.39 48.42c0 13.52-12.34 22.9-14.4 22.9-2.02 0-14.4-9.45-14.4-22.95 0-10.84 11.9-4.18 14.4.15 2.5-4.35 14.4-10.93 14.4-.1z" fill="#e22"/>
  </g>
  <rect x="1451" y="391" width="140" height="190" ry="15" fill="none" stroke="#333" stroke-width="2"/>
 </g>
 <g id="heart_queen">
  <rect x="1596" y="391" width="140" height="190" ry="15" fill="#f2f1ee"/>
  <g transform="matrix(1.95 0 0 1.95 1246.7 413.95)" clip-path="url(#cP9196)">
   <path d="m195.3 40.7c1.64 1.64 5.33 1.64 7 0 1.64 1.64 5.33 1.64 7 0h28c1.65 1.64 5.34 1.64 7 0 1.65 1.64 5.34 1.64 7 0l-16 30.1h-23.8z" fill="#e22"/>
   <path d="M247.26 96h-48.4c-7.68 0 5.9-32.1 24.2-46.84C239.5 64 256.1 95.8 247.25 96z" fill="#e22"/>
   <g transform="translate(-.24)">
    <path d="m208 94.75c1.08-5.06 1.9-8.29 5.43-13.64-1.84 6.93-1.74 9.24-1.6 13.64z" opacity=".4"/>
    <use transform="matrix(-1 0 0 1 446.88 0)" width="744.09" height="1052.36" xlink:href="#p4288-5"/>
   </g>
   <path transform="translate(-1313.2 -5.2)" d="m1554.9 51.14a18.57 18.57 0 1 1-37.14 0 18.57 18.57 0 1 1 37.14 0z" style="fill:#e9d2aa"/>
   <path d="m214.54 13.12 4.33 6 4.33-6 4.33 6 4.33-6-2 19.4h-13.32z" fill="#dc1"/>
  </g>
  <use transform="translate(0 490)" style="fill:#e22" xlink:href="#Q"/>
  <g id="heart-2-3-7-7" transform="matrix(1.208 0 0 1.2068 1683.4 349.32)">
   <path d="M36.39 48.42c0 13.52-12.34 22.9-14.4 22.9-2.02 0-14.4-9.45-14.4-22.95 0-10.84 11.9-4.18 14.4.15 2.5-4.35 14.4-10.93 14.4-.1z" fill="#e22"/>
  </g>
  <rect x="1596" y="391" width="140" height="190" ry="15" fill="none" stroke="#333" stroke-width="2"/>
 </g>
 <g id="heart_king">
  <rect x="1741" y="391" width="140" height="190" ry="15" fill="#f2f1ee"/>
  <g transform="matrix(1.97 0 0 1.97 1389.6 412)" clip-path="url(#cP9215)">
   <g transform="rotate(-18.64 215.21 256.63)">
    <path d="M258.03 50.47c-.67 0-1.24.86-1.53 2.1-2.35.36-4.1 1.56-4.1 2.96 0 1.31 1.52 2.4 3.63 2.85v3.68c-1.11.3-1.88.84-1.88 1.47s.76 1.2 1.88 1.5V86.7h4V65.03c1.11-.3 1.88-.87 1.88-1.5s-.77-1.16-1.88-1.47v-3.69c2.11-.44 3.63-1.53 3.63-2.84 0-1.4-1.75-2.6-4.1-2.97-.29-1.23-.86-2.1-1.53-2.1z" fill="#dc1"/>
   </g>
   <path d="M251.26 96h-56.4c-7.68 0 9.9-32 28.2-46.84C239.5 64 260.1 95.8 251.25 96z" fill="#e22"/>
   <g transform="matrix(-1 0 0 1 448.31 0)">
    <path transform="translate(-1595)" d="M1810 58.2c-8.25-.6-11.5 6.78-10.32 10.9 1.1 3.83 10.28 4.61 18.9 21.35l1.79-6.9c-1.71-12.75-7.63-24.44-10.37-25.35z" fill="#fff"/>
    <g fill="#333">
     <path d="M221.68 79.13c-1.08-.17-1.53.9-1.38 1.45.16.55.74 1.18 2.8 3.42-.29-2.58-.93-4.8-1.42-4.87z"/>
     <use transform="translate(-2.06 -7.65)" width="744.09" height="1052.36" xlink:href="#p3645-1"/>
     <use transform="rotate(-11.65 176.89 111.87)" width="744.09" height="1052.36" xlink:href="#p3645-1"/>
     <use transform="rotate(-10.5 135.18 109.44)" width="744.09" height="1052.36" xlink:href="#p3645-1"/>
     <use transform="rotate(-25.28 182.92 101.65)" width="744.09" height="1052.36" xlink:href="#p3645-1"/>
    </g>
   </g>
   <g>
    <path transform="translate(-1595)" d="M1810 58.2c-8.25-.6-11.5 6.78-10.32 10.9 1.18 4.13 11.8 4.72 20.93 25.65 1.77-16.22-7.07-35.37-10.61-36.55z" fill="#fff"/>
    <g fill="#333">
     <path d="M221.68 79.13c-1.08-.17-1.53.9-1.38 1.45.16.55.74 1.18 2.8 3.42-.29-2.58-.93-4.8-1.42-4.87z"/>
     <use transform="translate(-2.06 -7.65)" width="744.09" height="1052.36" xlink:href="#p3645-1"/>
     <use transform="rotate(-11.65 176.89 111.87)" width="744.09" height="1052.36" xlink:href="#p3645-1"/>
     <use transform="rotate(-10.5 135.18 109.44)" width="744.09" height="1052.36" xlink:href="#p3645-1"/>
     <use transform="rotate(-25.28 182.92 101.65)" width="744.09" height="1052.36" xlink:href="#p3645-1"/>
    </g>
   </g>
   <path transform="translate(-1313.2 -5.2)" d="m1554.9 51.14a18.57 18.57 0 1 1-37.14 0 18.57 18.57 0 1 1 37.14 0z" style="fill:#db7"/>
   <g fill="#dc1">
    <path d="m203.9 20.74 4.83 4 4.8-4 4.8 4 4.83-4 4.82 4 4.83-4 4.82 4 4.83-4-4 13.7h-30.6z"/>
    <path transform="translate(-1595)" d="m1852.2 73.92a8.7 8.7 0 1 1-17.4 0 8.7 8.7 0 1 1 17.4 0z"/>
    <path d="M247.05 53.12v3.72h-3.75v3.03h3.75v5.72h3V53.12z"/>
   </g>
  </g>
  <use transform="translate(0 490)" style="fill:#e22" xlink:href="#K"/>
  <g id="heart-2-3-7-6" transform="matrix(1.208 0 0 1.2068 1828.4 349.32)">
   <path d="M36.39 48.42c0 13.52-12.34 22.9-14.4 22.9-2.02 0-14.4-9.45-14.4-22.95 0-10.84 11.9-4.18 14.4.15 2.5-4.35 14.4-10.93 14.4-.1z" fill="#e22"/>
  </g>
  <rect x="1741" y="391" width="140" height="190" ry="15" fill="none" stroke="#333" stroke-width="2"/>
 </g>
 <g id="spade_queen">
  <rect x="1596" y="586" width="140" height="190" ry="15" fill="#f2f1ee"/>
  <g transform="matrix(1.95 0 0 1.95 1246.7 608.95)" clip-path="url(#cP9196)">
   <path d="m195.3 40.7c1.64 1.64 5.33 1.64 7 0 1.64 1.64 5.33 1.64 7 0h28c1.65 1.64 5.34 1.64 7 0 1.65 1.64 5.34 1.64 7 0l-16 30.1h-23.8z" fill="#36a"/>
   <path d="M247.26 96h-48.4c-7.68 0 5.88-32.05 24.2-46.84C239.5 64 256.1 95.8 247.25 96z" fill="#e22"/>
   <g transform="translate(-.24)">
    <path d="m208 94.75c1.08-5.06 1.9-8.29 5.43-13.64-1.84 6.93-1.74 9.24-1.6 13.64z" opacity=".4"/>
    <use transform="matrix(-1 0 0 1 446.88 0)" width="744.09" height="1052.36" xlink:href="#p4288-5"/>
   </g>
   <path transform="translate(-1313.2 -5.2)" d="m1554.9 51.14a18.57 18.57 0 1 1-37.14 0 18.57 18.57 0 1 1 37.14 0z" style="fill:#a07a45"/>
   <path d="m214.54 13.12 4.33 6 4.33-6 4.33 6 4.33-6-2 19.4h-13.32z" fill="#dc1"/>
  </g>
  <use transform="translate(0 685)" style="fill:#333" xlink:href="#Q"/>
  <g id="spade-9-5-6" transform="translate(1771.8 535.78) scale(1.206)">
   <path d="m-51.83 49.6c-2.6 0-13.78 11.29-13.78 17.8 0 7.03 8.16 2.98 12.1 1.57-1.44 3.42-6.2 9.46-4.32 9.46h12c1.9 0-2.9-6.04-4.34-9.46 3.94 1.4 12.16 5.5 12.16-1.57 0-6.51-11.22-17.8-13.82-17.8z" fill="#333"/>
  </g>
  <rect x="1596" y="586" width="140" height="190" ry="15" fill="none" stroke="#333" stroke-width="2"/>
 </g>
 <g id="spade_king">
  <rect x="1741" y="586" width="140" height="190" ry="15" fill="#f2f1ee"/>
  <g transform="matrix(1.97 0 0 1.97 1389.6 606.98)" clip-path="url(#cP9215)">
   <g transform="rotate(-18.64 215.21 256.63)">
    <path d="M258.03 50.47c-.67 0-1.24.86-1.53 2.1-2.35.36-4.1 1.56-4.1 2.96 0 1.31 1.52 2.4 3.63 2.85v3.68c-1.11.3-1.88.84-1.88 1.47s.76 1.2 1.88 1.5V86.7h4V65.03c1.11-.3 1.88-.87 1.88-1.5s-.77-1.16-1.88-1.47v-3.68c2.11-.45 3.63-1.54 3.63-2.85 0-1.4-1.75-2.6-4.1-2.97-.29-1.23-.86-2.1-1.53-2.1z" fill="#dc1"/>
   </g>
   <path transform="matrix(.508 0 0 .508 -705.75 -308.27)" d="M1802.6 730.7c-24.11 30-40.6 65.25-29.3 65.25h111c13-.33-6.3-35.28-30.4-65.14L1830 765z" fill="#36a" stroke-width="2"/>
   <path transform="matrix(.508 0 0 .508 -705.75 -308.27)" d="m1816.5 715a211.52 211.52 0 0 0-13.95 15.72l27.43 34.28 23.91-34.16a285.07 285.07 0 0 0-13.74-15.84h-23.65z" fill="#e22" stroke-width="2"/>
   <g transform="matrix(-1 0 0 1 448.31 0)">
    <path transform="translate(-1595)" d="M1810 58.2c-8.25-.6-11.5 6.78-10.32 10.9 1.1 3.83 10.28 4.61 18.9 21.35l1.79-6.9c-1.71-12.75-7.63-24.44-10.37-25.35z" fill="#fff"/>
    <g fill="#333">
     <path d="M221.68 79.13c-1.08-.17-1.53.9-1.38 1.45.16.55.74 1.18 2.8 3.42-.29-2.58-.93-4.8-1.42-4.87z"/>
     <use transform="translate(-2.06 -7.65)" width="744.09" height="1052.36" xlink:href="#p3645-1"/>
     <use transform="rotate(-11.65 176.89 111.87)" width="744.09" height="1052.36" xlink:href="#p3645-1"/>
     <use transform="rotate(-10.5 135.18 109.44)" width="744.09" height="1052.36" xlink:href="#p3645-1"/>
     <use transform="rotate(-25.28 182.92 101.65)" width="744.09" height="1052.36" xlink:href="#p3645-1"/>
    </g>
   </g>
   <g>
    <path transform="translate(-1595)" d="M1810 58.2c-8.25-.6-11.5 6.78-10.32 10.9 1.18 4.13 11.8 4.72 20.93 25.65 1.77-16.22-7.07-35.37-10.61-36.55z" fill="#fff"/>
    <g fill="#333">
     <path d="M221.68 79.13c-1.08-.17-1.53.9-1.38 1.45.16.55.74 1.18 2.8 3.42-.29-2.58-.93-4.8-1.42-4.87z"/>
     <use transform="translate(-2.06 -7.65)" width="744.09" height="1052.36" xlink:href="#p3645-1"/>
     <use transform="rotate(-11.65 176.89 111.87)" width="744.09" height="1052.36" xlink:href="#p3645-1"/>
     <use transform="rotate(-10.5 135.18 109.44)" width="744.09" height="1052.36" xlink:href="#p3645-1"/>
     <use transform="rotate(-25.28 182.92 101.65)" width="744.09" height="1052.36" xlink:href="#p3645-1"/>
    </g>
   </g>
   <path transform="translate(-1313.2 -5.2)" d="m1554.9 51.14a18.57 18.57 0 1 1-37.14 0 18.57 18.57 0 1 1 37.14 0z" style="fill:#e2bf8a"/>
   <g fill="#dc1">
    <path d="m203.9 20.74 4.83 4 4.8-4 4.8 4 4.83-4 4.82 4 4.83-4 4.82 4 4.83-4-4 13.7h-30.6z"/>
    <path transform="translate(-1595)" d="m1852.2 73.92a8.7 8.7 0 1 1-17.4 0 8.7 8.7 0 1 1 17.4 0z"/>
    <path d="M247.05 53.12v3.72h-3.75v3.03h3.75v5.72h3V53.12z"/>
   </g>
  </g>
  <use transform="translate(0 685)" style="fill:#333" xlink:href="#K"/>
  <g id="spade-9-5-04" transform="translate(1916.8 535.78) scale(1.206)">
   <path d="m-51.83 49.6c-2.6 0-13.78 11.29-13.78 17.8 0 7.03 8.16 2.98 12.1 1.57-1.44 3.42-6.2 9.46-4.32 9.46h12c1.9 0-2.9-6.04-4.34-9.46 3.94 1.4 12.16 5.5 12.16-1.57 0-6.51-11.22-17.8-13.82-17.8z" fill="#333"/>
  </g>
  <rect x="1741" y="586" width="140" height="190" ry="15" fill="none" stroke="#333" stroke-width="2"/>
 </g>
 <g id="back" transform="translate(-145)">
  <rect x="436" y="781" width="140" height="190" ry="15" fill="#36a" stroke="#333" stroke-width="2"/>
  <path d="M574.22 849.12c-9.32 7.8-17.92 13.1-26.59 16.75a76.09 76.09 0 0 1-8.44 3c-15 4.5-30.81 2.61-46.21 3.53a91.43 91.43 0 0 0-25.94 5.4c-11.24 4.14-19.68 9.31-29.26 16.03V956c0 7.35 5.87 13.22 13.22 13.22h110c7.35 0 13.22-5.87 13.22-13.22V849.11z" fill="#fff" style="fill:#9bd"/>
  <g transform="translate(-2.85 -200)">
   <g transform="matrix(1.0393 0 0 1.189 462.85 1003.5)" stroke-linejoin="round" stroke-width="1.4">
    <g fill="#204a87">
     <path d="M86.07 0c-24.6 0-29.22 35.04-15.38 35.04S110.67 0 86.07 0zM45.22 30.7c7.37.45 15.45-28.12 1.6-26.33-13.84 1.8-8.98 25.88-1.6 26.33zM11.45 48.45c5.24-2.3.67-24.87-8.24-18.71-8.91 6.15 3 21.02 8.23 18.71zm14.76-11.81c6.24-1.27 6.58-26.86-4.54-22.27-11.13 4.6-1.7 23.55 4.54 22.27z"/>
    </g>
    <path d="M58.8 93.9c1.1 8.5-6.2 12.6-13.4 7.2-22.8-17.4 37.7-26 33.7-49.7-3.2-19.7-63.6-13.6-70.5 17.1-4.7 20.8 19.1 49.7 44 49.7 12.2 0 26.3-11 28.9-25 2-10.7-23.7-6.4-22.8.66z" fill="#36a"/>
   </g>
   <path d="M552.3 1003.5c-25.6 0-30.4 41.7-16 41.7s41.6-41.7 16-41.7zm-39.5 5.1c-.44 0-.87.03-1.3.1-14.4 2.1-9.3 30.8-1.7 31.3 7.5.5 15.6-31.4 3-31.4zm-25.2 11.3c-.7 0-1.4.3-2.2.7-11.6 5.4-1.8 28 4.7 26.5 5.9-1.4 6.7-26.5-1.8-27.2a4.1 4.1 0 0 0-.7 0zm-18.2 17.7a5 5 0 0 0-3.2 1.3c-9.3 7.3 3.1 25 8.5 22.2 4.8-2.4 1.8-23.2-5.3-23.5zm51 13.5c-16.8.3-37.5 8.8-45.7 25.3h.2c13.22-5.23 27.29-5.8 41.3-5.8 9.79.22 19.57-.38 29.1-2.7.03-1.1-.03-2.21-.2-3.3-1.3-8.8-10.9-13.2-22.8-13.5h-1.9z" fill="#fff" style="fill:#9bd"/>
  </g>
 </g>
 <g id="diamond_king">
  <rect x="1741" y="196" width="140" height="190" ry="15" fill="#f2f1ee"/>
  <g transform="matrix(1.97 0 0 1.97 1389.6 216.98)" clip-path="url(#cP9215)">
   <g transform="rotate(-18.64 215.21 256.63)">
    <path d="M258.03 50.47c-.67 0-1.24.86-1.53 2.1-2.35.36-4.1 1.56-4.1 2.96 0 1.31 1.52 2.4 3.63 2.85v3.68c-1.11.3-1.88.84-1.88 1.47s.76 1.2 1.88 1.5V86.7h4V65.03c1.11-.3 1.88-.87 1.88-1.5s-.77-1.16-1.88-1.47v-3.69c2.11-.44 3.63-1.53 3.63-2.84 0-1.4-1.75-2.6-4.1-2.97-.29-1.23-.86-2.1-1.53-2.1z" fill="#dc1"/>
   </g>
   <path transform="matrix(.508 0 0 .508 -705.75 -110.2)" d="M1802.6 340.7c-24.11 30-40.6 65.25-29.3 65.25h111c13-.33-6.3-35.28-30.4-65.14L1830 375z" fill="#e22" stroke-width="2"/>
   <path transform="matrix(.508 0 0 .508 -705.75 -110.2)" d="m1816.5 325a211.52 211.52 0 0 0-13.95 15.72l27.43 34.28 23.91-34.16a285.07 285.07 0 0 0-13.74-15.84h-23.65z" fill="#36a" stroke-width="2"/>
   <g transform="matrix(-1 0 0 1 448.31 0)">
    <path transform="translate(-1595)" d="M1810 58.2c-8.25-.6-11.5 6.78-10.32 10.9 1.1 3.83 10.28 4.61 18.9 21.35l1.79-6.9c-1.71-12.75-7.63-24.44-10.37-25.35z" fill="#fff"/>
    <g fill="#333">
     <path d="M221.68 79.13c-1.08-.17-1.53.9-1.38 1.45.16.55.74 1.18 2.8 3.42-.29-2.58-.93-4.8-1.42-4.87z"/>
     <use transform="translate(-2.06 -7.65)" width="744.09" height="1052.36" xlink:href="#p3645-1"/>
     <use transform="rotate(-11.65 176.89 111.87)" width="744.09" height="1052.36" xlink:href="#p3645-1"/>
     <use transform="rotate(-10.5 135.18 109.44)" width="744.09" height="1052.36" xlink:href="#p3645-1"/>
     <use transform="rotate(-25.28 182.92 101.65)" width="744.09" height="1052.36" xlink:href="#p3645-1"/>
    </g>
   </g>
   <g>
    <path transform="translate(-1595)" d="M1810 58.2c-8.25-.6-11.5 6.78-10.32 10.9 1.18 4.13 11.8 4.72 20.93 25.65 1.77-16.22-7.07-35.37-10.61-36.55z" fill="#fff"/>
    <g fill="#333">
     <path d="M221.68 79.13c-1.08-.17-1.53.9-1.38 1.45.16.55.74 1.18 2.8 3.42-.29-2.58-.93-4.8-1.42-4.87z"/>
     <use transform="translate(-2.06 -7.65)" width="744.09" height="1052.36" xlink:href="#p3645-1"/>
     <use transform="rotate(-11.65 176.89 111.87)" width="744.09" height="1052.36" xlink:href="#p3645-1"/>
     <use transform="rotate(-10.5 135.18 109.44)" width="744.09" height="1052.36" xlink:href="#p3645-1"/>
     <use transform="rotate(-25.28 182.92 101.65)" width="744.09" height="1052.36" xlink:href="#p3645-1"/>
    </g>
   </g>
   <path transform="translate(-1313.2 -5.2)" d="m1554.9 51.14a18.57 18.57 0 1 1-37.14 0 18.57 18.57 0 1 1 37.14 0z" style="fill:#864"/>
   <g fill="#dc1">
    <path d="m203.9 20.74 4.83 4 4.82-4 4.82 4 4.83-4 4.82 4 4.83-4 4.82 4 4.83-4-4 13.7h-30.6l-4-13.7z"/>
    <path transform="translate(-1595)" d="m1852.2 73.92a8.7 8.7 0 1 1-17.4 0 8.7 8.7 0 1 1 17.4 0z"/>
    <path d="M247.05 53.12v3.72h-3.75v3.03h3.75v5.72h3V53.12z"/>
   </g>
  </g>
  <use transform="translate(0 295)" style="fill:#e22" xlink:href="#K"/>
  <g id="diamond-6-6-6-4" transform="translate(1828.4 154.24) scale(1.208)">
   <path d="M36 57c0 2-12 14-14 14S8 59 8 57s12-14 14-14 14 12 14 14z" fill="#e22"/>
  </g>
  <rect x="1741" y="196" width="140" height="190" ry="15" fill="none" stroke="#333" stroke-width="2"/>
 </g>
 <g id="joker_black">
  <rect x="1" y="781" width="140" height="190" ry="15" fill="#f2f1ee"/>
  <g transform="matrix(1.69 0 0 1.69 -284.51 831.71)" clip-path="url(#cP1310)">
   <path d="M251.26 96h-56.4c-7.68 0 9.9-32.05 28.2-46.84C239.5 64 260.1 95.8 251.25 96z" fill="#333"/>
   <path transform="translate(-1313.2 -5.2)" d="m1554.9 51.1a18.6 18.6 0 1 1-37.14 0 18.6 18.6 0 1 1 37.14 0z" fill="#e5c999"/>
   <path d="M213.38 9c-9.1-.41-19.73 5.23-28.8 21 13.19-13.2 25.78-7.9 25.8 2.04h25.66c0-9.9 12.59-15.22 25.78-2.03-12.62-21.9-28.3-24.16-38.63-17.9a20.6 20.6 0 0 0-9.8-3.1z" clip-path="none" fill="#36a"/>
   <path transform="translate(145 -780)" d="M78 792a23.4 23.4 0 0 0-10.3 14.2c5.35 3.1 8.7 9.4 10.3 15.4 1.6-6 5-12.3 10.3-15.4A23.3 23.3 0 0 0 77.99 792z" fill="#47c"/>
   <g>
    <path transform="translate(145 -780)" d="m41 811.13a2.2 2.2 0 1 1-4.4 0 2.2 2.2 0 1 1 4.4 0z" fill="#dc1" stroke="#ba9a0a"/>
    <path transform="translate(124.97 -1194.8) scale(1.512)" d="M39.25 811.04a.5.5 0 1 1-1 0 .5.5 0 1 1 1 0z" fill="#ce5c00"/>
    <path d="m183.38 31.56-.98.98" stroke="#ce5c00" stroke-width=".5"/>
   </g>
   <g transform="translate(39.38 10)">
    <path transform="translate(145 -780)" d="m41 811.13a2.2 2.2 0 1 1-4.4 0 2.2 2.2 0 1 1 4.4 0z" fill="#dc1" stroke="#ba9a0a"/>
    <g transform="translate(-.18)">
     <path id="p4764-6" transform="translate(126.97 -1194.8) scale(1.512)" d="M39.25 811.04a.5.5 0 1 1-1 0 .5.5 0 1 1 1 0z" fill="#ce5c00"/>
     <use transform="translate(-3.15)" width="1885" height="975" xlink:href="#p4764-6"/>
     <path d="m182.62 31.38h2.7" stroke="#ce5c00" stroke-width=".5"/>
    </g>
   </g>
  </g>
  <rect x="1" y="781" width="140" height="190" rx="15" ry="15" fill="none" stroke="#333" stroke-width="2"/>
  <use transform="translate(120)" style="fill:#333" xlink:href="#tJ"/>
 </g>
 <g id="joker_red">
  <rect x="146" y="781" width="140" height="190" rx="15" ry="15" fill="#f2f1ee"/>
  <g transform="matrix(1.69 0 0 1.69 -139.51 831.71)" clip-path="url(#cP1310)">
   <path d="M251.26 96h-56.4c-7.68 0 9.9-32.05 28.2-46.84C239.5 64 260.1 95.8 251.25 96z" fill="#e22"/>
   <path transform="translate(-1313.2 -5.2)" d="m1554.9 51.1a18.6 18.6 0 1 1-37.14 0 18.6 18.6 0 1 1 37.14 0z" style="fill:#c8a466"/>
   <path d="M213.38 9c-9.1-.41-19.73 5.23-28.78 20.9 13.2-13.2 25.78-7.86 25.8 2.04h25.66c0-9.9 12.6-15.22 25.8-2-12.62-21.85-28.3-24.16-38.63-17.85a20.6 20.6 0 0 0-9.8-3.1z" clip-path="none" fill="#36a"/>
   <path transform="translate(145 -780)" d="M78.2 792a23.4 23.4 0 0 0-10.31 14.2c5.35 3.1 8.7 9.4 10.3 15.4 1.6-6 5-12.3 10.3-15.4A23.3 23.3 0 0 0 78.18 792z" fill="#47c"/>
   <g>
    <path transform="translate(145 -780)" d="m41 811.13a2.2 2.2 0 1 1-4.4 0 2.2 2.2 0 1 1 4.4 0z" fill="#dc1" stroke="#ba9a0a"/>
    <path transform="translate(124.97 -1194.8) scale(1.512)" d="M39.25 811.04a.5.5 0 1 1-1 0 .5.5 0 1 1 1 0z" fill="#ce5c00"/>
    <path d="m183.38 31.56-.98.98" stroke="#ce5c00" stroke-width=".5"/>
   </g>
   <g transform="translate(39.38 10)">
    <path transform="translate(145 -780)" d="m41 811.13a2.2 2.2 0 1 1-4.4 0 2.2 2.2 0 1 1 4.4 0z" fill="#dc1" stroke="#ba9a0a"/>
    <g transform="translate(-.18)">
     <path transform="translate(126.97 -1194.8) scale(1.512)" d="M39.25 811.04a.5.5 0 1 1-1 0 .5.5 0 1 1 1 0z" fill="#ce5c00"/>
     <use transform="translate(-3.15)" width="1885" height="975" xlink:href="#p4764-6"/>
     <path d="m182.62 31.38h2.7" stroke="#ce5c00" stroke-width=".5"/>
    </g>
   </g>
  </g>
  <rect x="146" y="781" width="140" height="190" rx="15" ry="15" fill="none" stroke="#333" stroke-width="2"/>
  <use transform="translate(265)" style="fill:#e22" xlink:href="#tJ"/>
 </g>
</svg>
