<?xml version="1.0" encoding="UTF-8" standalone="no"?>
<!-- Created with Inkscape (http://www.inkscape.org/) -->
<svg
   xmlns:dc="http://purl.org/dc/elements/1.1/"
   xmlns:cc="http://web.resource.org/cc/"
   xmlns:rdf="http://www.w3.org/1999/02/22-rdf-syntax-ns#"
   xmlns:svg="http://www.w3.org/2000/svg"
   xmlns="http://www.w3.org/2000/svg"
   xmlns:xlink="http://www.w3.org/1999/xlink"
   xmlns:sodipodi="http://sodipodi.sourceforge.net/DTD/sodipodi-0.dtd"
   xmlns:inkscape="http://www.inkscape.org/namespaces/inkscape"
   width="32"
   height="32"
   id="svg3527"
   sodipodi:version="0.32"
   inkscape:version="0.45.1"
   version="1.0"
   sodipodi:docbase="/home/andreas/gnome/gnome-games/libgames-support/icons"
   sodipodi:docname="deal.svg"
   inkscape:output_extension="org.inkscape.output.svg.inkscape">
  <defs
     id="defs3529">
    <linearGradient
       id="linearGradient5301">
      <stop
         style="stop-color:white;stop-opacity:1"
         offset="0"
         id="stop5303" />
      <stop
         style="stop-color:white;stop-opacity:0"
         offset="1"
         id="stop5305" />
    </linearGradient>
    <linearGradient
       x1="19.028915"
       y1="3.0671768"
       x2="46.3447"
       y2="39.187454"
       id="linearGradient8927"
       xlink:href="#linearGradient5301"
       gradientUnits="userSpaceOnUse"
       gradientTransform="matrix(0.7922976,0,0,0.7407728,-9.076892,-1.0372928)" />
    <linearGradient
       id="linearGradient4410">
      <stop
         style="stop-color:#eeeeec;stop-opacity:1"
         offset="0"
         id="stop4412" />
      <stop
         style="stop-color:#babdb6;stop-opacity:1"
         offset="1"
         id="stop4414" />
    </linearGradient>
    <linearGradient
       x1="22.803938"
       y1="10.039148"
       x2="34.594166"
       y2="40.876537"
       id="linearGradient8930"
       xlink:href="#linearGradient4410"
       gradientUnits="userSpaceOnUse"
       gradientTransform="matrix(0.6168278,0,0,0.7230555,-5.8238424,-3.9942653)" />
    <linearGradient
       id="linearGradient2296">
      <stop
         style="stop-color:white;stop-opacity:1"
         offset="0"
         id="stop2298" />
      <stop
         style="stop-color:white;stop-opacity:0"
         offset="1"
         id="stop2300" />
    </linearGradient>
    <linearGradient
       x1="48"
       y1="18.534204"
       x2="78"
       y2="18.534204"
       id="linearGradient5449"
       xlink:href="#linearGradient2296"
       gradientUnits="userSpaceOnUse"
       gradientTransform="matrix(0.969324,0.303467,-0.313034,0.999884,-26.51354,-28.87764)" />
  </defs>
  <sodipodi:namedview
     id="base"
     pagecolor="#ffffff"
     bordercolor="#666666"
     borderopacity="1.0"
     gridtolerance="10000"
     guidetolerance="10"
     objecttolerance="10"
     inkscape:pageopacity="0.0"
     inkscape:pageshadow="2"
     inkscape:zoom="11.6375"
     inkscape:cx="12.038668"
     inkscape:cy="15.471505"
     inkscape:document-units="px"
     inkscape:current-layer="layer1"
     width="32px"
     height="32px"
     inkscape:window-width="1227"
     inkscape:window-height="888"
     inkscape:window-x="0"
     inkscape:window-y="0" />
  <metadata
     id="metadata3532">
    <rdf:RDF>
      <cc:Work
         rdf:about="">
        <dc:format>image/svg+xml</dc:format>
        <dc:type
           rdf:resource="http://purl.org/dc/dcmitype/StillImage" />
      </cc:Work>
    </rdf:RDF>
  </metadata>
  <g
     inkscape:label="Layer 1"
     inkscape:groupmode="layer"
     id="layer1">
    <g
       transform="matrix(0.6676717,-0.1652421,0.1767355,0.6242515,-4.5144704,8.6143774)"
       style="stroke-width:1.14714873;stroke-miterlimit:4;stroke-dasharray:none"
       id="g3042">
      <path
         d="M 11.249051,13.68551 C 22.267512,21.50188 31.322859,13.953532 40.328776,22.789518 L 45.504535,4.7780871 L 44.31062,2.2533867 L 19.506897,-5.5996203 L 16.789787,-4.2944189 L 11.249051,13.68551 z "
         style="opacity:0.51648356;fill:url(#linearGradient5449);fill-opacity:1;fill-rule:evenodd;stroke:none;stroke-width:1.14714873;stroke-linecap:butt;stroke-linejoin:miter;stroke-miterlimit:4;stroke-dasharray:none;stroke-opacity:1"
         id="path3055" />
    </g>
    <rect
       width="21.427969"
       height="25.205431"
       rx="2.4010363"
       ry="2.0952318"
       x="5.5558286"
       y="1.5544041"
       transform="matrix(0.9999996,8.8300066e-4,-1.0101078e-3,0.9999995,0,0)"
       style="fill:url(#linearGradient8930);fill-opacity:1;fill-rule:nonzero;stroke:#333331;stroke-width:0.76610261;stroke-linecap:round;stroke-linejoin:miter;stroke-miterlimit:4;stroke-dasharray:none;stroke-dashoffset:0;stroke-opacity:1"
       id="rect7756" />
    <rect
       width="19.76577"
       height="23.623556"
       rx="1.7707676"
       ry="1.4404758"
       x="6.420105"
       y="2.3132131"
       transform="matrix(0.9999996,8.5306907e-4,-1.0433156e-3,0.9999995,0,0)"
       style="fill:none;fill-opacity:1;fill-rule:nonzero;stroke:url(#linearGradient8927);stroke-width:0.76610249;stroke-linecap:round;stroke-linejoin:miter;stroke-miterlimit:4;stroke-dasharray:none;stroke-dashoffset:0;stroke-opacity:1"
       id="rect7758" />
    <path
       d="M 16.613093,11.004484 C 18.825384,8.8586791 21.850012,10.851232 21.82364,12.892287 C 21.799535,14.75817 20.339408,15.647544 16.667788,18.95582 C 12.84538,15.857089 11.497427,15.141147 11.52434,12.927339 C 11.551495,10.635704 14.151604,8.9233418 16.613093,11.004484 z "
       style="fill:#cc0000;fill-opacity:1;fill-rule:evenodd;stroke:none;stroke-width:1;stroke-linecap:butt;stroke-linejoin:miter;stroke-miterlimit:4;stroke-dasharray:none;stroke-opacity:1"
       id="path920" />
    <path
       d="M 12.316242,8.5849955 L 11.133675,8.5849955 L 10.790998,7.4314783 L 9.0776202,7.4314783 L 8.7383031,8.5849955 L 7.5624564,8.5849955 L 9.3161468,3.3995907 L 10.602864,3.3995907 L 12.316242,8.5849955 M 10.542392,6.5347 L 10.02502,4.7917664 C 9.9869412,4.6615911 9.9600614,4.5061019 9.9443892,4.3252991 L 9.9175094,4.3252991 C 9.9063103,4.4771719 9.8783172,4.6278412 9.8335188,4.7773005 L 9.309427,6.5347 L 10.542392,6.5347"
       style="font-size:13.97632694px;font-style:normal;font-weight:normal;fill:#cc0000;fill-opacity:1;stroke:none;stroke-width:1px;stroke-linecap:butt;stroke-linejoin:miter;stroke-opacity:1;font-family:Bitstream Vera Sans"
       id="text9323" />
    <path
       d="M 24.993003,19.696592 L 23.810436,19.696592 L 23.467759,20.850109 L 21.754381,20.850109 L 21.415064,19.696592 L 20.239217,19.696592 L 21.992913,24.881997 L 23.279624,24.881997 L 24.993003,19.696592 M 23.219152,21.746887 L 22.701781,23.489821 C 22.663702,23.619996 22.636828,23.775485 22.62115,23.956295 L 22.59427,23.956295 C 22.583071,23.804415 22.555078,23.653746 22.510286,23.504287 L 21.986194,21.746887 L 23.219152,21.746887"
       style="font-size:13.97632694px;font-style:normal;font-weight:normal;fill:#cc0000;fill-opacity:1;stroke:none;stroke-width:1px;stroke-linecap:butt;stroke-linejoin:miter;stroke-opacity:1;font-family:Bitstream Vera Sans"
       id="path4380" />
    <path
       style="fill:#ffffff;fill-opacity:1;fill-rule:evenodd;stroke:#275897;stroke-width:0.99189425px;stroke-linecap:butt;stroke-linejoin:miter;stroke-opacity:1"
       d="M 8.9445854,22.270574 L 3.9900164,26.247806 L 3.9900164,23.706793 L 1.2649993,23.596316 L 1.2649993,31.219341 L 9.5639065,31.108863 L 9.5639065,28.346896 L 6.8388894,28.236418 L 11.050275,24.259186 L 8.9445854,22.270574 z "
       id="path3471" />
    <path
       style="fill:#ffffff;fill-opacity:1;fill-rule:evenodd;stroke:#275897;stroke-width:0.97069794px;stroke-linecap:butt;stroke-linejoin:miter;stroke-opacity:1"
       d="M 22.283226,23.459572 L 26.143575,28.348319 L 23.677238,28.348319 L 23.570006,31.037128 L 30.969013,31.037128 L 30.861783,22.848478 L 28.180985,22.848478 L 28.073747,25.537287 L 24.213398,21.381848 L 22.283226,23.459572 z "
       id="path3493" />
  </g>
</svg>
