/* XPM */
static char * hand_xpm[] = {
/* width height ncolors chars_per_pixel */
"79 123 46 1",
/* colors */
" 	c white",
".	c #D9D9D9",
"X	c #DDDDDD",
"o	c #D1D1D1",
"O	c #D7D7D7",
"+	c #CDCDCD",
"@	c #C5C5C5",
"#	c #C9C9C9",
"$	c #C1C1C1",
"%	c #747474",
"&	c #585858",
"*	c #828282",
"=	c #6C6C6C",
"-	c #686868",
";	c #7C7C7C",
":	c #A8A8A8",
"?	c #9C9C9C",
">	c #B9B9B9",
",	c #BDBDBD",
"<	c #ACACAC",
"1	c #4A4A4A",
"2	c #545454",
"3	c #525252",
"4	c #404040",
"5	c #3D3D3D",
"6	c #929292",
"7	c #B5B5B5",
"8	c #A0A0A0",
"9	c #787878",
"0	c #949494",
"q	c #707070",
"w	c #646464",
"e	c #4C4C4C",
"r	c #444444",
"t	c #383838",
"y	c #A4A4A4",
"u	c #606060",
"i	c #B0B0B0",
"p	c #888888",
"a	c #8C8C8C",
"s	c #5C5C5C",
"d	c #989898",
"f	c #343434",
"g	c #848484",
"h	c #E1E1E1",
"j	c #E4E4E4",
/* pixels */
"                                                                               ",
" ..XX..oXX..o..XX..oXX..XX..oXX..oX....XX..oXX..oXX..o..XX..oXX..o..XX..oXX..o ",
" X...o.X.XX..O.O+oo+OOX...oo+OO.ooO.oX...oo+OO.ooOO.ooX...oo+OO.ooX...oo+OO.oo ",
" O...o..XX..oXX..o.OO+O...o.OO+ooo+ooO...o.OO+oooO+oooO...o.OO+oooO...o.OO+ooo ",
" ++++o.X.XX..OO.oo+@##++++o+@##+@##+@++++o+@##+@###+@#++++o+@##+@#++++o+@##+@# ",
" #oO.o..XX..oX+oooo+o+#oO.oo+o+o+#+o+#oO.oo+o+o+#o+o+##oO.oo+o+o+##oO.oo+o+o+# ",
" @O+o+X...oo+O#+@#@+oo@O+o+@+oooO#ooO@O+o+@+oooO#oooO#@O+o+@+oooO#@O+o+@+oooO# ",
" ##+O#O...o.OO+o+##@o###+O##@o#oo$#oo##+O##@o#oo$o#oo$##+O##@o#oo$##+O#.X.XX.. ",
" oo+.#++++o+@#ooO#.Oo+oo+.#.Oo+o.o+o.oo+.#.Oo+o.oo+o.ooo+.#.Oo+o.ooo+.#..XX..o ",
" +++o+#oO.oo+o#oo$#+oo+++o+#+oooo+ooo+++o+#+oooo+oooo++++o+#+oooo++++o+X...oo+ ",
" oo+.O@O+o+@+o+o.o#oo+oo+.O#oo+#+++#+oo+.O#oo+#++o+#++oo+.O#oo+#++oo+.OO...o.O ",
" #+#+###+O##@oooo+Oooo.+oo..O..o%&*=-==;:?>+.O.......o,>,<,#$o....#+#+#++++o+@ ",
" o#$o+oo+.#.Oo+#++o#+,@+#o.X..123415133=*67+.o.Oo.O.o>;*890,$#....o#$o+#oO.oo+ ",
" @o@@$+++o+#+o..Oo#$$<$:$o..Xq&&wer5tr42q*y@O....oOO$0q%-u9<i#O...@o@@$@O+o+@+ ",
" +##+#oo+.O#oo.o#@:y:p6?<@O..ea0u-s2t5r4&-y,+o.ooOoO:u;wssw9*i#o.X+##+###+O##@ ",
" +@+##@@#,$$8.O#iy=wuw-dd:+o.1%y2s-&5t45r&9yo+ooooO1etftw&2w9y@+oO+@+##oo+.#.O ",
" @$,@@#.#OO+<@#<d&e11&uu*0,+#7q%wwq24t5t5rwg7+o+oO3s25tttr1uw*<#o++++o++++o+#+ ",
" #$>,@+OooO#+.##34&e4r1w=;>oOo*-w22=4t5f51s*7@o+OO2&2145t543&%:@##oO.oooo+.O#o ",
" o+$@+@o+oOo#+r33r4t4rr229<++.=sw-%-&tt5rr2a,#+ooOs222t4555r3=i,#@O+o+@+oooO#+ ",
" +#,$@#$o@o#$&w&er4ft4r13;d@@o2%y8a%eftf451w:+ooo>s1*s11ttt4ew0$+##+O##@o#oo$$ ",
" +,$##>@oo++Ou-u121fft541&6$@+17?:0=e5tftr1=,#oOo9;s%2ue5t54rsd@ooo+.#.Oo+o.oO ",
" ,,$7,:$@##@os-&22e1tfttr3q:7@r@:9;w45tf55rw:#+Oo3da;e-24t5t42q>#+++o+#+oooo+, ",
" $,,$@>,@#+@$e=2e3rrtfftte-d7,$<a;-srtffft5sy+ooor67y2e35t55r&*7#oo+.O#oo+#++, ",
" +,7,78,,:@771=wu&we4fff5rw;y,+<-2er4fffft1s8$o+o1,g6uur5tt541=$+#+#+#+#@+O+#, ",
" ,,,>>i7?<,i<@a=s=w34tfff42g8d$a:-s&r4ffft520+++O4<a*=2e5ff553q>#o#$o++####+>> ",
" >i::>:apa8da>2=6gg2effff5rw;?$d,-q1rtfftf54a$+#or9<s2r1tfftt4wi#@o@@$##@$#$<i ",
" :7<d0a*;;p6664p%*q&3tfftt12qd76@dw-&4ffff4e;i#o.eq=3544tfft5rq7++##+#$@##$$y> ",
" $7:78%uw-%;9g>*%q=wefff55r&9?<*y71ue5fffftr=,+oo2$d=4rfttt551q>#+@+##@@#,$$8< ",
" <<?d9qu2swq%%ds6*;w4tfft541&*:2+,;w&5tffft4=>@oOs:@a2e55ffft1%>+##@$#,>#7$7:0 ",
" <:y892e22&w=9q4p*2r4tfftf412qds+>g33rtfff51wy++#wy$wsettfff4e=>#@o$#@,,#,,>ya ",
" >?i<a-22e2s2=%d%w&e145fftt4&-de@,=3155ffff5wi$o+:o:0s15tff5t1u>>###,,@,>><<pp ",
" >>4t5f11r3&&s-q%?qw&ttfft5t1-q1+,qw14tffff4&d#o+?#>71&5ffff5rw?7@$,,$,:<0?<pq ",
" 7r4355f5541313u2:wu&rt5fft5rrw4o7>e4r5fffft20>#+>+0=se5tfft54q:i,,>7$7d?9p09- ",
" :&24rrfftt44e2e3ayssreffft54r24o,%554fffff51p,$si:=sr4tffftt3w68,<y<>?aa;%9w2 ",
" ?&2re14fttft43e3qip=ee5ffff5rr57@-r2sfffff54q074y?=s254tfft5rwayd?6yya%;=sw2e ",
" >e34rrrtfttt44re=0?&1erfftt5r4fuiuer2fffff5rq7#3%urer54fftt4e90::8:<0p9*9-qs2 ",
" drwr&1rett5ft4111?>9srtfffftt5fw=2rrq4fffff4qd,2w231et5ffft52qy:dyy?:g%;%%u&3 ",
" 8:=ree&r4fft411r1p$93r44tfftt559:?=sw1fffftr=7qiyr&q2tftff5429yiy:d?y;*g-sw2& ",
" ??1se2w&5f5ft54rru:pu112ftftttt,#p?q21tffff4wy5p0w1w&55ffft4s*yy0dd00q;===213 ",
" <:8a-9*25ttft555r3>,=er145ffftt$.>,%924ffft4&:e7?;pg1tfffft4&9?6:d0a0*qq&2211 ",
" <8?10=d-t5ftttt44t0pp-e34ttfft5dOO@6w15ffft4spw#<a%-54fffff4sp8y06gdgaq=&221e ",
" <>aygpq4144ttft545ua-9etwrtfft5y@#,6%e5tfft5206$i:a=5ttfff51up6:00;g;q==&3e11 ",
" y:66eqw4&234t5t5t5re@8wwe44fftts@@p:q35tfft4eg>@0<pw14tfft52wg:y:dg*9-s2211re ",
" :7yp?eww-3e5tftttf4p+$9s*&1fffte<+,?;35tfft5ru:$?06%r5tfft11%a:?d0*9;s2eee3r4 ",
" 8>88y48-s&&15ftf5t5s$,d?,u3tfff5d$$;92ttffft4r$@@aa=e5tff542%0y809a;=se3&r444 ",
" yyy:gg-*d3ue45fftt5&>o#$?q3tffffpyyyqe5fffft45o+i%?w44ftf442;dd?d;a=sef55tf5t ",
" ::y?dgr=6wu214tftt53%+@>,*95ffffu::yerfffftf5t@>>0?=15ffftrs0yi8ag9wsf4454tft ",
" y7:??a*-yd9=345ttf5ta,++@a;1ffffrd<*=effffff5;@>ypy=1tffft4w68::0a9&f51w42tf5 ",
" 7>8?0y640i;;1454tttt&0$,,y02tfft1;7w&-ffffff19?d9=ww15fff5rua8y8a*151sq=q1tf5 ",
" <i:??dg**iaew14ttftt5%$i+,p3tfff52@;4&ttr11s=%9;2es3r5ttft4-0?0yp9rsu;ad;&55t ",
" <??a8?6*2>7e=qs45ffftq$>+@8e5ftf1q$0w2453239*q99w21e5fttf5rs*08a;5&q9wg@y=55t ",
" y<?a:y0;p**:*ww245tttw#@>i$0454*ps%q214ew-%q=%=9q&2e5tt5t5rwpa865uqgw=*@:wfft ",
" y<y:<<,<ag6+79s-15fft1di$opg&39=ps=23r12qqpq?*gq-wer4tttt5ru*a0?e-9%w%d<$4tt5 ",
" :i88<<<7??q>>:dp&55fttqg:8$@g=%a*q2=2e2up*p*y0<7;-s155fft4rs9*842=d;d0?+ytttt ",
" ?0ay<y:<<,<6#$$,&1ffft43p$o;u*3>0qwe213u*p%pa8:d?s2r55ftft5squ=r&p0;><$O9tfft ",
" g0p:i88<<<7&@,08y155frs9*ay=-27y**u3-r2&q?0d%$a-*s2rtttfftt4r411s7>6<@#o4tttf ",
" 9;9?0a0<7<8ep>#=7%sre@d:w3s=wqi$ia%3&e4-wg0d:?d<g=235tftf553u-q2=i:?:$,75tt55 ",
" 8ddg0pp080809#+7$$p1s7#:<:2ssg>#@7queu42ddy8?:p8=q&15fttft4&-=-216ya<>74ft5t4 ",
" dg09;9a0pdg0uO$+7<7?6d,dy$,ssa>o7>ps=r&qp*6d,y00p2-e55ttf541wwr2s9$,y7%4f5554 ",
" 6dp8dda?8dy:%o.+io+$y7y8,#O:u%?#$:a%q33*@?7$$+>pu&3e4tttt453uw=agq:ydq15555r4 ",
" pp9dg08:y<yy<i.,.OO:?,$7?#++%2*<,+,<%ur77i<,<aau&&2w2r4t5t4r2sd77#O>224t454rr ",
" ?0a6dpd::d7aypi..O#>a,+o7@#+:3;g,>a=qgd<>?ypqwwr%s1=2r455t541-#+#Ood;25tt5r41 ",
" g0ppp98dy:8p0sO.o><,,@>$>7#$,9esp*22@,?70*%q*;qyggsrt5t4tft4r$o>7o$%wrf5t5411 ",
" 9;9a0pdgy::08w..+g$#@#@<O$@+>$1e-126$@**&e288$,$7aq2r5t5tt55=,+o<.?istft555t4 ",
" 8dda?8dyd>yd?2oOO:+$.+@,$+$@o$wer2<8,>aq&3d:<oOO,?dqee4ftt54*ioO.O$*15tt5541r ",
" dg08:y<yy,:8i?+..Oo.+o+$#.+#7@qre-%2,is1=$,#+..O>,%-&rr54tt5:+.o$#,grtt454r13 ",
" 6dpd::d7<>:d:?#XX@O.Oo@#<a+@7a*r2w32idy%,$7O...o7&215ttttt1ei@OoO,,u5t55t4r3& ",
" pp98dy:8:7<i<:oXhXX+#o$,dg&0o.7ws&21%,7y<6,.OXo,@<*3u3e454rsi>++o>;15ttt44ee& ",
" g*g00ada0><88g>Xh..$$:##$<q;.o,uws44,o:+#$+XXOooo>,$*;2r542w>+.o$p2e5ttt541e& ",
" q;;pppp008y0886XX.O,O+$+#,@6=oipa&1;,@i+.#XhX...>$$$:,q141q1qy#O,as5ttttr112u ",
" *q**dgpqpy06ad=Xhh..#@@i#@$#w0%3-*,p$$>#O+XXX.XX#,>.$6210%2rs0o>$?155t54r12&- ",
" %ga0yad60yy?p8wXhX.o+$o#@O$+$16s9O,d@@,.$OhhO..#,OO+79..+=wuwd:7%w15tt54r32uq ",
" ;p*086gap80?*6p.hX+o@@#@o+.o+a&d9$O+X.@+<.hhXoO@.#o@-XhX7$7gs<00w1r4t54rr3uw= ",
" *p9%*aa*aa?ada;#XXo+++oO@#,$+:4q=w,i.+>#6hhO>Xo+XO2XX..XOoX#9i$q144tf5441sw== ",
" ga;*g9p*98a*0aa#X..#,,o.#oi#y$;r0a,:+.+?qXX.OO+OysXX.OOX..X.#d#w1545t54re&uw= ",
" %0*6p**pp?6*?a?,XX..+o@.O,OO,#,dw9i7X..o<XXOO..w.X.OX.XhXXX..<uur554r4r1us-%% ",
" g0;a00*pa88609adXXX##.X+++.o+@:@?w<@..X+.hXo..*X.OXXXXXXXX..O@3&44454412su=q% ",
" ;pp0agp99d?gd?gq.XXXoXXXXo.O$,#@:q&?o..#XhO+X$X.O+XXXXXXXXX.o,w2554rrrr2s==99 ",
" ;pa*;gp9*d0ag0guohXXOo..OO#@@o7+Oo0;@OXoXhOX>XX.o.h..XhXXXXX.d2455r1111sww-q= ",
" ;pp;a%pggd0pdaa%oXXX.+OX..#.o.7O##$=$O.oXhXOXOXX.XXh.XhXXXX++q315rrrre2uwq=qu ",
" q%g=q%p9*90pp;g*OXXh.@o..Oo.$$.O@$@8=@o@Xh.O.OOXXXhhXhXXXX.X+w34t41131euw-w%% ",
" q-ww%%==-;9q%9=q#XXXOO.@.oO+o.o.O#o$q:>@+.#....o..XXXX.XXX.O*345t45411e2&u=-& ",
" w-=--sw-wq==q;9=aXhX#+OOO.O.,#X.@.$+*77<;O7o#oXX.X.XX.X.O.o>-155t44r4r33&2sus ",
" 2-&uww-wq%;9q%=q=.X.oo@O...oooXoOOOo7.@#d.>,+oo.X.X.......+;3555t5444ee2e&u&& ",
" w-=s===9-q;;*;q9w#XX.#ohOXXOX..XXhhX.X+.+Xo#@#..o.XXO.#.#.9-e444rr441e2ws-ssu ",
" uwusq=w=q9;q*%pqqyXhho#OhhhhO+..Xhh.XX.h.d@@oO+,......XXo+%2r44544r1r1e23ssw& ",
" uw-uuu==q;;%;9;=90XhX.O.XhXX.ohhhhhhhhjhXXoO+OO+O..o..XO<?uer1r44r1e1322&2-us ",
" uw-uqq=q=%9q%*9%=&XXX..XXXXhhX.XhhhhhhhhOOOoOX+OXXo..o.$:w11rr1112ee3e32&&s&& ",
" 3su2u3wsw%===;=qss,Xh.O..XXOh.oXhhhhhhhXX.?oOO..O...oO<8s2141r411r3111e3s3sw& ",
" ssw-sw-=u9qq%%-=q=;XXhhhhXh..X...hhhhhhXOO#XO.O.O.o+$8qu2rr1eer111113e22&3su& ",
" &222uusws--sq%-u=us?XXhhXXhOXX..OXhhhhh...#-+oO.O,$$?qs2r441rr1r1r132ersses22 ",
" &w3ssws&wwqq%=u=-&u=$.XhhhXXhhX.XXhhXhX+s+7;:o.,>y8;*9sr11e3111e111ee322s&232 ",
" 2&&ss3ssuqq-wq-suse&*7XhhhhXhhhhhXX.X..a9&?:@80=ag=%2w211123rer1r4r142ee2es&3 ",
" &&es2s2ssu=u&su&222erd.XXXXh.hXhhhXXXO$6%&3pdq;qs23214e11ee11e111e11ee322&2e2 ",
" 32&33e3e&22&&213&see4q#XX.XXXX.hXXX.+7=%u1rwsw22rr4r4411eeee1e1e1r4111112ee12 ",
" e333233e&s&ee&&113eer=?+.XXX.Xhhh.X,g0uwer1-2311e44r4rr2e123ee14rrr1re113e332 ",
" 31e22e11eseee32e21314wq=<.XXXXhXX7<7q2w;&1r32eer1541r1re1rr1111114141e32213ee ",
" e2r2r11rr33e1ere11141=?<9++#OXO>:yqe2es=451ee14rt44144e31r4111e15rre11ee3r3ee ",
" e21er3r1ee1ee1e23ee43s9yOio@>g2wwqs22up&1e1124r45t5r41re1r1rrr11414eeer1e2211 ",
" e1rr22e11r12442r11re12=9.+i?p-wu2&31w;-u1341rr5445rr5r411114r1r45r11e121e3e22 ",
" 114r2e1e33eee23eerr1e3a>y>Op&s22s-2s-w=sr41r11rrt4rr41ee1rr141e3r12444eeeseee ",
" 1err1e3r1111231r1eer1eq>.XO$,*%e3e2ew%u33r4r3r1e4tr5rrr1r11rrrr13eeer4ree1e11 ",
" 31e2rr13esee31e22e11e31e22e11eseee22e11esee22e1111eseee1r3r1e1e311122e11eseee ",
" e2r21e31133eee1rr141e3r1241e3e33e12e1e3e33e2e1e3e3e33e1322e1111esee3e1e3e33e1 ",
" e21e11esee1ee114r11rr13eeee23ee1eee2e23ee1e1e3r123ee1eee2e1e3e3ee1rr141e3r124 ",
" 1rr1e3e33124e1err3r1e3111241e3r124r1e1rr141rr13e4e3r124e1e3r123e114r11rr13eee ",
" 14r123ee1eee1e3r12411esee31rr13eeer1114r11r1e311r141e3r3rr13e11e1err3r1e31112 ",
" err311ese1122413eeee3e33e1rr141e3r121err3r111eser11rr13e1e311e3e31e22e11esee3 ",
" 1e22e11esee3ee3111223ee1114r11rr13ee31e22e1e3e33r3r1e31e11ese23ee2r2e1e3e33ee ",
" 2r2e1e3e33ee12esee311ese1err3r1e3111e2r2e1e23ee122e11esee3e331e3e21e2e23ee1ee ",
" 21e2e23ee1eee3e33eee3e3331e22e11ee1rr141e3r11ese2e1e3e3123ee1141e3r12411eseee ",
" 1e22e11eseeeee1rr141e3r124r2e1e3e114r11rr13eee21e2e23ee111ese11rr13eeee3e33e1 ",
" 2r2e1e3e33ee1114r11rr13eee1e2e23e1err3r1e311121e22e11esee1err3r1ee1rr141e3r12 ",
" 21e2e23ee1e111err3r1e31112e22e11e31e22e11esee31rr141e3r12441e3r12414r11rr13ee ",
" 1rr141e3r121e31e22e11esee3r2e1e3ee2r2e1e3e33eer1241rr13eee1rr13eeeerr3r1e3111 ",
" 14r11rr13ee31e2r2e1e3e33ee141e3r1e21e2e23ee1ee3eeer1e31112r1e311121e22e11esee ",
" ee1rr141e3re2e21e2e23ee1ee11rr13e31e22e11eseee1112e11esee3e11esee32r2e1e3e33e ",
" 3114r11rr13e231e22e11eseee3r1e311e2r2e1e3e33e1see31e3e33ee1e3e33ee21e2e23ee1e ",
" e2r2e1e3e3331e2r2e1e3e33e12e11esee32e11esee33e33eee23ee1eee23ee1ee1e22e11esee ",
" e21e2e23ee1e2r2e1e3e33e2r2e1e3e33eee1e3e33ee3ee1eee11eseeee11eseee2r2e1e3e33e ",
" e1rr141e3r1e21e2e23ee1e21e2e23ee1ee2e23ee1ee1eseee1e3e33e11e3e33e121e2e23ee1e ",
" 114r11rr13ee1rr141e3r131e22e11eseee2e11eseee3e33e1e23ee1eee23ee1ee1rr141e3r12 ",
"                                                                               "};
