/* XPM */
static char * Baize_xpm[] = {
"50 50 39 1",
" 	c None",
".	c #4D7728",
"+	c #3A6217",
"@	c #497324",
"#	c #365E13",
"$	c #3F691A",
"%	c #537D2E",
"&	c #4F792A",
"*	c #436D1E",
"=	c #386015",
"-	c #477122",
";	c #325A0F",
">	c #4A7425",
",	c #4B7526",
"'	c #3E6819",
")	c #446E1F",
"!	c #345C11",
"~	c #406A1B",
"{	c #547E2F",
"]	c #4E7829",
"^	c #487223",
"/	c #416B1C",
"(	c #396116",
"_	c #30580D",
":	c #3C6617",
"<	c #527C2D",
"[	c #3D6718",
"}	c #456F20",
"|	c #31590E",
"1	c #426C1D",
"2	c #467021",
"3	c #375F14",
"4	c #507A2B",
"5	c #2F570C",
"6	c #3B6516",
"7	c #598334",
"8	c #4C7627",
"9	c #578132",
"0	c #568031",
".+@#$%.&&*.+@#$%.&&*.+@#$%.&&*.+@#$%.&&*.+@#$%.&&*",
"=-;$>&.,',=-;$>&.,',=-;$>&.,',=-;$>&.,',=-;$>&.,',",
")!~){]^/>()!~){]^/>()!~){]^/>()!~){]^/>()!~){]^/>(",
"_:)<&@[-#*_:)<&@[-#*_:)<&@[-#*_:)<&@[-#*_:)<&@[-#*",
"/$)]^/,(}|/$)]^/,(}|/$)]^/,(}|/$)]^/,(}|/$)]^/,(}|",
"-1]@'2#/_3-1]@'2#/_3-1]@'2#/_3-1]@'2#/_3-1]@'2#/_3",
"4],~>(~5674],~>(~5674],~>(~5674],~>(~5674],~>(~567",
"8,[>!)_(9}8,[>!)_(9}8,[>!)_(9}8,[>!)_(9}8,[>!)_(9}",
"8$@3};60@88$@3};60@88$@3};60@88$@3};60@88$@3};60@8",
"~8(@!+9,]&~8(@!+9,]&~8(@!+9,]&~8(@!+9,]&~8(@!+9,]&",
".+@#$%.&&*.+@#$%.&&*.+@#$%.&&*.+@#$%.&&*.+@#$%.&&*",
"=-;$>&.,',=-;$>&.,',=-;$>&.,',=-;$>&.,',=-;$>&.,',",
")!~){]^/>()!~){]^/>()!~){]^/>()!~){]^/>()!~){]^/>(",
"_:)<&@[-#*_:)<&@[-#*_:)<&@[-#*_:)<&@[-#*_:)<&@[-#*",
"/$)]^/,(}|/$)]^/,(}|/$)]^/,(}|/$)]^/,(}|/$)]^/,(}|",
"-1]@'2#/_3-1]@'2#/_3-1]@'2#/_3-1]@'2#/_3-1]@'2#/_3",
"4],~>(~5674],~>(~5674],~>(~5674],~>(~5674],~>(~567",
"8,[>!)_(9}8,[>!)_(9}8,[>!)_(9}8,[>!)_(9}8,[>!)_(9}",
"8$@3};60@88$@3};60@88$@3};60@88$@3};60@88$@3};60@8",
"~8(@!+9,]&~8(@!+9,]&~8(@!+9,]&~8(@!+9,]&~8(@!+9,]&",
".+@#$%.&&*.+@#$%.&&*.+@#$%.&&*.+@#$%.&&*.+@#$%.&&*",
"=-;$>&.,',=-;$>&.,',=-;$>&.,',=-;$>&.,',=-;$>&.,',",
")!~){]^/>()!~){]^/>()!~){]^/>()!~){]^/>()!~){]^/>(",
"_:)<&@[-#*_:)<&@[-#*_:)<&@[-#*_:)<&@[-#*_:)<&@[-#*",
"/$)]^/,(}|/$)]^/,(}|/$)]^/,(}|/$)]^/,(}|/$)]^/,(}|",
"-1]@'2#/_3-1]@'2#/_3-1]@'2#/_3-1]@'2#/_3-1]@'2#/_3",
"4],~>(~5674],~>(~5674],~>(~5674],~>(~5674],~>(~567",
"8,[>!)_(9}8,[>!)_(9}8,[>!)_(9}8,[>!)_(9}8,[>!)_(9}",
"8$@3};60@88$@3};60@88$@3};60@88$@3};60@88$@3};60@8",
"~8(@!+9,]&~8(@!+9,]&~8(@!+9,]&~8(@!+9,]&~8(@!+9,]&",
".+@#$%.&&*.+@#$%.&&*.+@#$%.&&*.+@#$%.&&*.+@#$%.&&*",
"=-;$>&.,',=-;$>&.,',=-;$>&.,',=-;$>&.,',=-;$>&.,',",
")!~){]^/>()!~){]^/>()!~){]^/>()!~){]^/>()!~){]^/>(",
"_:)<&@[-#*_:)<&@[-#*_:)<&@[-#*_:)<&@[-#*_:)<&@[-#*",
"/$)]^/,(}|/$)]^/,(}|/$)]^/,(}|/$)]^/,(}|/$)]^/,(}|",
"-1]@'2#/_3-1]@'2#/_3-1]@'2#/_3-1]@'2#/_3-1]@'2#/_3",
"4],~>(~5674],~>(~5674],~>(~5674],~>(~5674],~>(~567",
"8,[>!)_(9}8,[>!)_(9}8,[>!)_(9}8,[>!)_(9}8,[>!)_(9}",
"8$@3};60@88$@3};60@88$@3};60@88$@3};60@88$@3};60@8",
"~8(@!+9,]&~8(@!+9,]&~8(@!+9,]&~8(@!+9,]&~8(@!+9,]&",
".+@#$%.&&*.+@#$%.&&*.+@#$%.&&*.+@#$%.&&*.+@#$%.&&*",
"=-;$>&.,',=-;$>&.,',=-;$>&.,',=-;$>&.,',=-;$>&.,',",
")!~){]^/>()!~){]^/>()!~){]^/>()!~){]^/>()!~){]^/>(",
"_:)<&@[-#*_:)<&@[-#*_:)<&@[-#*_:)<&@[-#*_:)<&@[-#*",
"/$)]^/,(}|/$)]^/,(}|/$)]^/,(}|/$)]^/,(}|/$)]^/,(}|",
"-1]@'2#/_3-1]@'2#/_3-1]@'2#/_3-1]@'2#/_3-1]@'2#/_3",
"4],~>(~5674],~>(~5674],~>(~5674],~>(~5674],~>(~567",
"8,[>!)_(9}8,[>!)_(9}8,[>!)_(9}8,[>!)_(9}8,[>!)_(9}",
"8$@3};60@88$@3};60@88$@3};60@88$@3};60@88$@3};60@8",
"~8(@!+9,]&~8(@!+9,]&~8(@!+9,]&~8(@!+9,]&~8(@!+9,]&"};
