<?xml version="1.0" encoding="utf-8"?>
<!DOCTYPE svg PUBLIC "-//W3C//DTD SVG 1.1//EN" "http://www.w3.org/Graphics/SVG/1.1/DTD/svg11.dtd">
<svg xmlns="http://www.w3.org/2000/svg" xmlns:xlink="http://www.w3.org/1999/xlink" width="256" height="256" viewBox="0 0 256 256" version="1.1">
<defs>
<g id="bart" fill="#FFFFFF">
<rect x="6.75" y="7.5" width="1.5" height="1.5"/>
<circle cx="3.5" cy="3.75" r="0.25"/>
<circle cx="4.75" cy="5.125" r="0.25"/>
<circle cx="6" cy="6.5" r="0.25"/>
<circle cx="1" cy="1" r="0.25"/>
<circle cx="2.25" cy="2.375" r="0.25"/>
<circle cx="11.5" cy="12.75" r="0.25"/>
<circle cx="14" cy="15.5" r="0.25"/>
<circle cx="9" cy="10" r="0.25"/>
<circle cx="10.25" cy="11.375" r="0.25"/>
<circle cx="3.5" cy="12.75" r="0.25"/>
<circle cx="4.75" cy="11.375" r="0.25"/>
<circle cx="6" cy="10" r="0.25"/>
<circle cx="1" cy="15.5" r="0.25"/>
<circle cx="2.25" cy="14.125" r="0.25"/>
<circle cx="11.5" cy="3.75" r="0.25"/>
<circle cx="12.75" cy="2.375" r="0.25"/>
<circle cx="14" cy="1" r="0.25"/>
<circle cx="9" cy="6.5" r="0.25"/>
<circle cx="10.25" cy="5.125" r="0.25"/>
<path d="M2.75,8.5h2.5V8h-2.5C1.843,8,0.5,7.046,0.5,5c0-0.853,0.371-1.149,0.756-1.227C1.338,3.757,1.08,4.476,1.368,4.926S1.961,5.25,2.177,5.43s0.288,0.293,0.237,0.474C2.293,6.341,2.084,6.562,2.072,6.575C1.977,6.673,1.978,6.831,2.075,6.927c0.098,0.097,0.254,0.097,0.352,0C2.45,6.903,3,6.341,3,5.25c0-1.108-0.821-2-1.5-2C1.148,3.25,0,3.376,0,5c0,1.762,0.857,2.809,1.764,3.25C0.857,8.691,0,9.738,0,11.5c0,1.624,1.148,1.75,1.5,1.75c0.679,0,1.5-0.893,1.5-2c0-1.091-0.55-1.653-0.573-1.677C2.33,9.477,2.173,9.477,2.075,9.572C1.978,9.669,1.977,9.826,2.072,9.926c0.012,0.012,0.222,0.232,0.343,0.67c0.05,0.182-0.021,0.295-0.237,0.475s-0.521,0.055-0.81,0.504s-0.03,1.169-0.111,1.152C0.871,12.648,0.5,12.353,0.5,11.5C0.5,9.453,1.843,8.5,2.75,8.5z"/>
<path d="M12.25,8.5h-2.5V8h2.5c0.907,0,2.25-0.954,2.25-3c0-0.853-0.371-1.149-0.756-1.227c-0.082-0.017,0.176,0.703-0.111,1.152c-0.289,0.45-0.594,0.324-0.811,0.504c-0.215,0.18-0.287,0.293-0.236,0.474c0.121,0.438,0.33,0.658,0.342,0.671c0.096,0.099,0.095,0.256-0.003,0.353c-0.099,0.097-0.255,0.097-0.352,0C12.55,6.903,12,6.341,12,5.25c0-1.108,0.82-2,1.5-2C13.852,3.25,15,3.376,15,5c0,1.762-0.857,2.809-1.764,3.25C14.143,8.691,15,9.738,15,11.5c0,1.624-1.148,1.75-1.5,1.75c-0.68,0-1.5-0.893-1.5-2c0-1.091,0.55-1.653,0.573-1.677c0.097-0.097,0.253-0.097,0.352-0.001c0.098,0.097,0.099,0.254,0.003,0.354c-0.012,0.012-0.221,0.232-0.342,0.67c-0.051,0.182,0.021,0.295,0.236,0.475c0.217,0.18,0.521,0.055,0.811,0.504c0.287,0.449,0.029,1.169,0.111,1.152c0.385-0.078,0.756-0.374,0.756-1.227C14.5,9.453,13.157,8.5,12.25,8.5z"/>
<path d="M7.725,13.475v-2.75h-0.45v2.75c0,0.998-0.858,2.475-2.7,2.475c-0.768,0-1.034-0.407-1.104-0.831c-0.015-0.09,0.632,0.194,1.037-0.122c0.405-0.317,0.292-0.653,0.454-0.891c0.162-0.238,0.264-0.316,0.427-0.262c0.394,0.134,0.592,0.363,0.604,0.377c0.089,0.105,0.231,0.104,0.317-0.004c0.087-0.107,0.087-0.279,0-0.387C6.288,13.805,5.782,13.2,4.8,13.2C3.803,13.2,3,14.104,3,14.85c0,0.388,0.113,1.65,1.575,1.65c1.585,0,2.527-0.943,2.925-1.941c0.397,0.998,1.34,1.941,2.925,1.941c1.462,0,1.575-1.263,1.575-1.65c0-0.746-0.803-1.649-1.8-1.649c-0.981,0-1.488,0.604-1.509,0.63c-0.087,0.107-0.087,0.279,0,0.387s0.229,0.109,0.317,0.004c0.012-0.014,0.21-0.243,0.604-0.377c0.163-0.055,0.266,0.023,0.427,0.262c0.162,0.237,0.049,0.573,0.454,0.891c0.404,0.316,1.052,0.032,1.037,0.122c-0.07,0.424-0.337,0.831-1.104,0.831C8.583,15.949,7.725,14.473,7.725,13.475z"/>
<path d="M7.725,3.025v2.75h-0.45v-2.75c0-0.998-0.858-2.475-2.7-2.475c-0.768,0-1.034,0.408-1.104,0.832c-0.015,0.09,0.632-0.194,1.037,0.123S4.8,2.157,4.962,2.395c0.162,0.237,0.264,0.316,0.427,0.261c0.394-0.133,0.592-0.363,0.604-0.376C6.081,2.174,6.223,2.175,6.31,2.283c0.087,0.108,0.087,0.28,0,0.387C6.288,2.695,5.782,3.3,4.8,3.3C3.803,3.3,3,2.397,3,1.65C3,1.263,3.113,0,4.575,0C6.161,0,7.103,0.943,7.5,1.941C7.897,0.943,8.84,0,10.425,0C11.887,0,12,1.263,12,1.65c0,0.747-0.803,1.65-1.8,1.65c-0.981,0-1.488-0.604-1.509-0.63c-0.087-0.107-0.087-0.279,0-0.387c0.087-0.107,0.229-0.108,0.317-0.003c0.012,0.013,0.21,0.243,0.604,0.376c0.163,0.056,0.266-0.023,0.427-0.261c0.162-0.238,0.049-0.574,0.454-0.891c0.404-0.317,1.052-0.033,1.037-0.123c-0.07-0.424-0.337-0.832-1.104-0.832C8.583,0.55,7.725,2.027,7.725,3.025z"/>
</g>
<path id="cf" fill="#FFFFFF" stroke="#000000" stroke-width="1.5" d="M78.25,117.25c0,2.762-2.238,5-5,5h-67.5c-2.761,0-5-2.238-5-5v-111.5c0-2.762,2.239-5,5-5h67.5c2.762,0,5,2.238,5,5V117.25z"/>
<path id="hl" fill="#DF0000" d="M4.75,-8.75c-3.852,0-4.75,3.6-4.75,3.6s-0.898-3.6-4.75-3.6c-2.695,0-4.75,1.516-4.75,4.375c0,5.875,8.5,9.875,9.5,13.125c1-3.25,9.5-7.25,9.5-13.125C9.5,-7.234,7.445,-8.75,4.75,-8.75z"/>
<path id="hs" fill="#DF0000" d="M2.5,-4.625c-2.027,0-2.5,1.903-2.5,1.903s-0.473-1.903-2.5-1.903c-1.418,0-2.5,0.801-2.5,2.313c0,3.105,4.474,5.22,5,6.938c0.526-1.718,5-3.832,5-6.938C5,-3.824,3.919,-4.625,2.5,-4.625z"/>
<g id="it1" fill="none" stroke-width="1.5">
<line x1="3" y1="17.75" x2="6.5" y2="17.75"/>
<line x1="12" y1="17.75" x2="8.5" y2="17.75"/>
<polyline points="4.5,17.75 7.5,4.5 10.5,17.75 "/>
<line x1="5.25" y1="14.5" x2="9.75" y2="14.5"/>
</g>
<g id="ib1" fill="none" stroke-width="1.5">
<line x1="73.75" y1="108.5" x2="69.25" y2="108.5"/>
<line x1="76" y1="105.25" x2="72.5" y2="105.25"/>
<line x1="67" y1="105.25" x2="70.5" y2="105.25"/>
<polyline points="74.5,105.25 71.5,118.5 68.5,105.25 "/>
</g>
<g id="bart_in">
<g fill="#21215E">
<path d="M12,2472c69-130,218-177,330-101c70,47,94,97,94,199c0,129-83,213-186,185c-61-16-69-50-11-50c57,0,85-25,85-82c0-59-38-95-104-95c-101,0-150,98-131,258c9,80,96,242,128,242c11,0,61-43,110-95c120-122,184-153,319-155h106l1-113c4-181,43-271,178-422c64-69,59-85-45-160c-61-42-81-48-181-48c-97,0-115,4-142,38c-72,90-49,198,44,208c56,6,94-40,80-95c-4-19,0-30,12-30c38,0,46,105,14,173c-54,109-207,124-295,29c-32-33-40-63-45-156c-8-129,17-202,88-247c27-17,35-35,28-58c-6-21-3-30,14-30c14,0,25,6,25,16c0,22,53,20,77-3c14-14,27-14,54,0c20,9,69,27,107,38c48,13,101,50,168,113l98,95l46-53c51-59,89-142,89-190c0-56,40-60,45,1c5,72,105,241,129,241c6,0,54-43,109-95c70-69,117-101,167-114c38-9,86-25,105-35c27-13,40-11,60,9c32,32,54,32,65,1c12-34,38-30,38,4c0,16,17,47,40,68c62,58,88,126,88,224c0,111-41,187-120,221c-81,34-130,27-186-22c-43-38-49-56-51-131c-1-56,3-89,17-93c12-4,19,9,19,40c0,56,41,106,75,93c12-4,30-9,38-9c30,0,59-100,43-148c-51-148-260-150-417-1l-43,40l81,100c115,139,157,240,157,386v116h109c128,0,195,35,337,182c46,48,86,85,89,82c144-195,170-326,89-459c-28-48-43-56-94-56c-75,0-97,22-97,98c0,61,19,79,81,79c43,0,38,45-8,58c-20,4-62-1-94-14c-191-80-104-415,107-415c69,0,168,61,207,126l31,52v-554c-6-8-15-6-35,3c-40,21-80-3-80-46c0-14-8-37-16-50c-12-20-20-20-49-3c-40,25-52,17-40-26c16-48,93-76,156-53c35,12,56,17,66,14V1726c-6-40-7-81,0-176v-202c-0-1-1-4-2-5c-22-22-22-129,0-152c1-1,1-3,2-5V974c-3-27-7-55-11-81c-6-37-4-63,6-69c2-1,3-3,5-6v-83c-0-0-1-1-2-1c-7,0-35,8-59,16c-62,24-133,4-154-42s-6-68,27-39c30,26,67-1,75-53c3-29,14-35,65-34l47,1V0h-110c-40,7-52,36-91,151c-12,40-28,85-35,100c-8,21-3,29,16,29c48,0,120,89,120,148c0,77-59,132-126,118c-57-13-57-13-24-64c30-46,19-89-20-89c-16,0-83,40-149,90c-65,50-136,98-155,108c-19,8-38,29-41,45c-8,30-43,43-43,14c0-8-40-14-88-14c-99,1-213-53-258-122c-33-50-60-50-110,0c-77,76-35,161,70,143c57-9,62-6,80,42c22,64,12,80-49,80s-136-45-160-98l-19-41l-33,50c-38,58-94,90-157,90c-41,0-45-3-40-61c4-58,6-59,70-59c117,0,152-66,77-144c-54-53-77-53-115,3C956,584,843,636,745,636c-48,0-85,8-89,19c-8,16-11,16-19,0c-11-26-14-27-176-147C307,396,275,378,249,388c-28,11-25,80,4,92c35,14,19,46-30,59c-69,19-123-35-123-122c0-56,8-77,41-103c24-19,56-33,72-33c35,0,36-6,12-51c-9-19-30-79-45-132L157,0H0v571c6,22,15,21,28,0c20-32,57-14,80,38c27,66,51,85,77,59c24-24,43-22,43,4c0,12-19,37-45,55c-41,29-89,29-163-3c-10-4-16,1-20,31v417c1,5,2,9,3,9c20,0,20,140,1,153c-2,1-3,7-5,17v423c4,23,12,20,28,9c67-48,200-9,200,59c0,16-6,30-16,30c-8,0-16-8-16-16c0-38-59-12-81,35c-19,45-30,53-75,51L0,1949v540C3,2489,7,2482,12,2472z"/>
<path d="M426,44l3-44H218c32,23,191,102,197,95C419,92,424,70,426,44z"/>
<path d="M644,144l-17,47l-24-37c-33-48-81-47-94,6c-36,145,189,383,337,355c94-17,157-90,78-90c-48,0-162-66-191-108c-30-46-33-132-6-181c8-17,40-40,72-50c46-14,65-13,125,13c99,43,142,113,146,226c3,82,9,98,64,156l62,64l65-64c60-59,67-72,60-132c-17-189,205-346,327-229c43,40,52,148,17,192c-33,43-122,98-181,116c-54,14-56,16-30,47c38,40,122,54,194,30c83-27,207-156,232-240c33-114-30-195-88-111c-14,19-30,29-37,22c-12-12-14-113-3-155c6-25-17-17-113-21H644l7,44C658,73,654,118,644,144z"/>
<path d="M1972,68l9,50l45-32c24-17,62-38,86-48c24-8,38-22,33-32c-1-2-5-3-9-5h-159c-2,1-5,2-6,3C1967,11,1967,40,1972,68z"/>
<path d="M468,118c8,0,22-11,35-26c14-17,35-22,65-16c49,9,57-8,19-45c-33-34-64-32-102,6C453,70,442,118,468,118z"/>
<path d="M1946,112c0-29-69-106-94-106c-8,0-27,11-40,25c-38,37-30,56,16,45c28-8,51,0,80,27C1940,134,1946,136,1946,112z"/>
<path d="M276,138c41-43,41-45-17-66L211,55l9,51C236,176,239,178,276,138z"/>
<path d="M2177,113c11-45,3-48-57-32c-36,9-36,25,3,61C2160,176,2163,175,2177,113z"/>
<path d="M1020,296c0-74-33-122-112-155c-70-30-94-29-133,9c-73,74-4,189,138,224C1004,398,1020,387,1020,296z"/>
<path d="M1461,385c168-32,250-156,154-232c-48-37-61-38-118-16c-97,40-152,148-112,224C1400,391,1411,395,1461,385z"/>
<path d="M159,357c-32,35-35,85-8,113c32,32,45,22,45-35c0-30,8-61,16-66c9-4,16-16,16-25C228,319,186,327,159,357z"/>
<path d="M2169,361c20,0,40,63,35,108c-4,43,3,46,37,11c35-34,32-81-6-119c-33-34-80-43-80-16C2155,353,2161,361,2169,361z"/>
<path d="M758,1962c-69-22-134-17-200,16C468,2023,431,2081,431,2173c0,127,80,206,186,184c48-11,62-42,17-37c-73,6-101-4-125-51c-73-145,32-287,220-292C787,1975,792,1973,758,1962z"/>
<path d="M1887,2094c54,111-14,250-117,236c-51-8-65,9-22,25c83,32,186-22,208-110c15-67-8-179-46-216c-38-37-143-85-175-82c-11,1-41,6-68,9c-82,12-75,29,12,30C1787,1987,1852,2021,1887,2094z"/>
<path d="M1131,2335c14,30,35,98,45,152l20,97l20-89c9-48,28-119,38-158c17-59,16-77-8-131c-14-35-32-87-38-116c-11-55-11-55-40,42c-17,53-38,108-46,122C1111,2274,1113,2296,1131,2335z"/>
<path d="M901,2495c123-150,205-273,219-329c12-51-1-54-27-6c-11,21-59,84-110,142c-122,142-159,197-171,261C801,2612,808,2607,901,2495z"/>
<path d="M1566,2592c20,30,27,33,27,11c0-56-69-174-171-289c-56-64-112-134-120-155c-16-30-44-50-44-27c0,33,109,213,187,307C1495,2500,1550,2570,1566,2592z"/>
<path d="M1179,2686l-11-85c-4-48-24-126-41-172c-16-47-30-87-30-89c0-3-6-4-16-4c-8,0-16,6-16,12c0,6-54,77-120,156c-65,80-123,166-128,193c-20,97-28,106-109,143c-56,26-128,84-218,176l-136,139l48,19c125,48,175,63,224,63s54-3,54-50c0-37,14-66,54-103c30-29,64-81,73-116c14-48,35-74,80-100c33-17,75-33,94-33c17,0,33-8,33-17c0-38,67-109,114-119L1179,2686z"/>
<path d="M1638,2828c-16-4-32-32-38-69c-6-34-22-79-36-101c-19-32-171-226-244-313c-6-6-22,8-35,32c-20,43-48,147-64,253c-4,35,3,58,38,93c25,25,46,63,46,79c0,43,28,40,67-9c20-24,45-38,67-35c17,1,41-1,52-8c14-9,22,11,30,69c8,61,17,80,38,80c14,0,49,8,77,17c43,14,48,22,35,47c-9,16-16,50-16,74s-11,58-27,74c-24,27-22,32,35,82c57,51,65,53,141,42c70-11,220-69,220-85c0-3-59-66-131-142C1776,2888,1736,2861,1638,2828z"/>
<path d="M230,2479c72,0,110,40,122,127c11,79,36,72,36-9c0-150-142-229-268-148C36,2503-7,2672,32,2794c14,42,16,37,17-53C53,2566,113,2479,230,2479z"/>
<path d="M2370,2756c16-101-16-215-77-274c-65-64-159-82-215-42c-73,55-102,158-61,231c19,35,20,33,20-35c0-85,32-132,102-147c109-24,196,79,196,236C2336,2832,2354,2849,2370,2756z"/>
<path d="M1127,2733c-32,12-62,54-64,88c0,26,73,61,128,61c32,0,80-50,80-84C1272,2752,1182,2712,1127,2733z"/>
<path d="M154,3124c22-34,20-40-41-110c-35-40-78-103-94-139L0,2836v401C28,3231,133,3154,154,3124z"/>
<path d="M585,2835c-16,0-59,21-93,46c-33,25-123,111-199,189L156,3212l88-46C350,3108,633,2835,585,2835z"/>
<path d="M1991,2963c-33-42-158-127-189-127c-17,0,27,54,118,142c80,79,168,158,194,176c106,71,107,50,4-55C2060,3039,2002,2977,1991,2963z"/>
<path d="M2373,2875c-4,21-41,79-82,129c-39,48-72,95-72,103c0,19,144,131,171,131c3,0,6-2,8-7v-384C2393,2824,2384,2832,2373,2875z"/>
<path d="M1384,2851c-8,0-16,6-16,14c0,9,8,21,16,25c9,4,16-1,16-14C1400,2862,1394,2851,1384,2851z"/>
<path d="M52,2875c0,5,3,8,8,8c4,0,8-3,8-8c0-4-3-8-8-8C55,2867,52,2870,52,2875z"/>
<path d="M967,2880c0,8,11,25,25,37c22,19,25,17,20-8C1007,2877,967,2853,967,2880z"/>
<path d="M2315,2883c0,11,5,16,11,11c4-6,4-16,0-22C2320,2867,2315,2872,2315,2883z"/>
<path d="M1209,2930c-16-17-146-35-146-19c1,42,85,102,144,102c27,0,32-6,24-37C1225,2956,1216,2935,1209,2930z"/>
<path d="M903,2935c0,14,8,32,16,37c20,13,20-8,0-40C906,2911,903,2911,903,2935z"/>
<path d="M833,2958c-6,6-11,29-11,50c0,27,9,37,33,37c25,0,30-6,22-37C864,2963,848,2945,833,2958z"/>
<path d="M1283,2959c-20,19-11,37,20,37c17,0,32-11,32-24C1336,2948,1302,2938,1283,2959z"/>
<path d="M1329,3250c-5-22-9-43-9-60c0-40-6-46-43-46c-61,0-173-58-204-105c-33-50-49-50-83,0c-24,37-24,42,4,84c33,47,66,79,75,128H1329z"/>
<path d="M1567,3061c-3,0-6,6-6,16c0,8,8,16,17,16c8,0,11-8,6-16C1580,3068,1572,3061,1567,3061z"/>
<path d="M755,3119c-38,21-45,34-45,93c0,13,17,24,19,36h92c0-9,8-19,8-31C829,3108,814,3087,755,3119z"/>
<path d="M850,3085l9,55c6,29,38,109,52,109c3,0,48,0,48,0c-9-49-34-95-75-131L850,3085z"/>
<path d="M1485,3200c36-29,35-74-3-74c-25,0-33,16-41,87c-1,12-1,24-1,36h50c-1-1-2-3-3-4C1458,3225,1458,3221,1485,3200z"/>
<path d="M218,3234l-28,15H481c-56-24-151-58-170-58C296,3192,249,3212,218,3234z"/>
<path d="M2010,3210c-41,17-72,29-99,39H2214l-36-17C2078,3186,2068,3186,2010,3210z"/>
<path d="M1580,3244c-2,2-3,3-4,5h95c-3-5-5-11-10-15C1622,3199,1622,3200,1580,3244z"/>
</g>
<g fill="#FFFFFF">
<path d="M2219,1229c77,19,70,53-16,79c-96,29-128,27-176-9l-40-32l40-32C2068,1200,2100,1200,2219,1229z"/>
<path d="M1810,1234c20,0,24-11,14-56c-9-51-4-58,48-90c64-37,68-50,33-79c-12-11-19-25-14-34c14-24,52-16,70,16c28,55,19,187-17,232l-32,42l35,48c45,63,48,202,5,236c-17,12-35,24-41,24c-19,0-15-45,3-56c28-17,17-37-41-71c-52-32-57-38-48-90c9-45,6-56-14-56c-12,0-24-14-24-32C1786,1248,1797,1234,1810,1234z"/>
<path d="M1233,1722c-28,38-48,35-73-11c-17-32-17-56,0-140c32-155,41-160,75-32C1261,1637,1261,1688,1233,1722z"/>
<path d="M1427,1229c109-34,155-32,191,6c30,33,28,33-9,66c-27,22-52,29-83,22c-24-4-65-14-93-19c-25-4-54-19-64-30C1354,1256,1367,1247,1427,1229z"/>
<path d="M1167,807l30-45l29,38c20,25,27,55,22,93c-14,111-33,185-49,185c-8,0-25-51-38-114C1140,860,1140,849,1167,807z"/>
<path d="M1142,1205c1-6,27-13,57-13s56,6,57,13c0,6,1,33,1,61c0,26-1,55-1,61c-1,6-27,13-57,13s-56-6-57-13c0-6-1-35-1-61C1140,1239,1142,1211,1142,1205z"/>
<path d="M959,1224c46,13,80,30,80,43c0,19-25,29-168,56c-25,4-54-4-80-24c-38-30-38-32-9-64C816,1197,846,1195,959,1224z"/>
<path d="M509,957c4,8-3,27-17,40c-32,34-20,66,37,93c38,19,45,30,41,82c-3,43,3,59,19,59c30,0,30,46,0,58c-14,6-20,29-19,67c3,47-4,61-33,77c-62,32-72,48-49,84c29,45,6,63-33,27c-45-42-45-181,1-241l32-42l-32-42c-24-30-33-66-33-126C421,993,475,904,509,957z"/>
<path d="M124,1252c4-4,46-20,93-35c46-14,85-27,88-29c1-1,22,9,43,24c49,32,51,63,1,95c-32,20-49,22-115,6C153,1294,108,1268,124,1252z"/>
<path d="M1369,1426c0,13-10,24-24,24c-13,0-24-11-24-24s10-24,24-24C1358,1401,1369,1412,1369,1426z"/>
<path d="M1078,1426c0,13-10,24-24,24c-13,0-24-11-24-24s10-24,24-24C1068,1401,1078,1412,1078,1426z"/>
<path d="M1078,1104c0,13-10,24-24,24c-13,0-24-11-24-24s10-24,24-24C1068,1079,1078,1090,1078,1104z"/>
<path d="M1369,1104c0,13-10,24-24,24c-13,0-24-11-24-24s10-24,24-24C1358,1079,1369,1090,1369,1104z"/>
<path d="M980,993c0,13-10,24-24,24c-13,0-24-11-24-24s10-24,24-24C969,969,980,980,980,993z"/>
<path d="M866,876c0,13-10,24-24,24c-13,0-24-11-24-24s10-24,24-24C855,851,866,862,866,876z"/>
<path d="M766,758c0,13-10,24-24,24c-13,0-24-11-24-24s10-24,24-24C755,733,766,744,766,758z"/>
<path d="M1425,1539c0-13,10-24,24-24s24,11,24,24s-10,24-24,24S1425,1553,1425,1539z"/>
<path d="M1539,1657c0-13,10-24,24-24c13,0,24,11,24,24c0,13-10,24-24,24C1550,1682,1539,1671,1539,1657z"/>
<path d="M1639,1775c0-13,10-24,24-24c13,0,24,11,24,24s-10,24-24,24C1650,1800,1639,1789,1639,1775z"/>
<path d="M1369,1426c0,13-10,24-24,24c-13,0-24-11-24-24s10-24,24-24C1358,1401,1369,1412,1369,1426z"/>
<path d="M1078,1104c0,13-10,24-24,24c-13,0-24-11-24-24s10-24,24-24C1068,1079,1078,1090,1078,1104z"/>
<path d="M980,993c0,13-10,24-24,24c-13,0-24-11-24-24s10-24,24-24C969,969,980,980,980,993z"/>
<path d="M866,876c0,13-10,24-24,24c-13,0-24-11-24-24s10-24,24-24C855,851,866,862,866,876z"/>
<path d="M766,758c0,13-10,24-24,24c-13,0-24-11-24-24s10-24,24-24C755,733,766,744,766,758z"/>
<path d="M2339,1104c0,13-10,24-24,24s-24-11-24-24s10-24,24-24S2339,1090,2339,1104z"/>
<path d="M2240,993c0,13-10,24-24,24c-13,0-24-11-24-24s10-24,24-24C2230,969,2240,980,2240,993z"/>
<path d="M2127,876c0,13-10,24-24,24s-24-11-24-24s10-24,24-24S2127,862,2127,876z"/>
<path d="M2027,758c0,13-10,24-24,24s-24-11-24-24s10-24,24-24S2027,744,2027,758z"/>
<path d="M1425,1539c0-13,10-24,24-24s24,11,24,24s-10,24-24,24S1425,1553,1425,1539z"/>
<path d="M1539,1657c0-13,10-24,24-24c13,0,24,11,24,24c0,13-10,24-24,24C1550,1682,1539,1671,1539,1657z"/>
<path d="M1639,1775c0-13,10-24,24-24c13,0,24,11,24,24s-10,24-24,24C1650,1800,1639,1789,1639,1775z"/>
<path d="M1425,993c0,13,10,24,24,24s24-11,24-24s-10-24-24-24S1425,980,1425,993z"/>
<path d="M1539,876c0,13,10,24,24,24c13,0,24-11,24-24s-10-24-24-24C1550,851,1539,862,1539,876z"/>
<path d="M1639,758c0,13,10,24,24,24c13,0,24-11,24-24s-10-24-24-24C1650,733,1639,744,1639,758z"/>
<path d="M104,1104c0,13-10,24-24,24c-13,0-24-11-24-24s10-24,24-24C93,1079,104,1090,104,1104z"/>
<path d="M104,1426c0,13-10,24-24,24c-13,0-24-11-24-24s10-24,24-24C93,1401,104,1412,104,1426z"/>
<path d="M160,1539c0-13,10-24,24-24c13,0,24,11,24,24s-10,24-24,24C171,1564,160,1553,160,1539z"/>
<path d="M274,1657c0-13,10-24,24-24c13,0,24,11,24,24c0,13-10,24-24,24C284,1682,274,1671,274,1657z"/>
<path d="M374,1775c0-13,10-24,24-24c13,0,24,11,24,24s-10,24-24,24C384,1800,374,1789,374,1775z"/>
<path d="M160,993c0,13,10,24,24,24c13,0,24-11,24-24s-10-24-24-24C171,969,160,980,160,993z"/>
<path d="M274,876c0,13,10,24,24,24c13,0,24-11,24-24s-10-24-24-24C284,851,274,862,274,876z"/>
<path d="M374,758c0,13,10,24,24,24c13,0,24-11,24-24s-10-24-24-24C384,733,374,744,374,758z"/>
<path d="M980,1539c0-13-10-24-24-24c-13,0-24,11-24,24s10,24,24,24C969,1564,980,1553,980,1539z"/>
<path d="M866,1657c0-13-10-24-24-24c-13,0-24,11-24,24c0,13,10,24,24,24C855,1682,866,1671,866,1657z"/>
<path d="M766,1775c0-13-10-24-24-24c-13,0-24,11-24,24s10,24,24,24C755,1800,766,1789,766,1775z"/>
<path d="M2339,1426c0,13-10,24-24,24s-24-11-24-24s10-24,24-24S2339,1412,2339,1426z"/>
<path d="M2240,1539c0-13-10-24-24-24c-13,0-24,11-24,24s10,24,24,24C2230,1564,2240,1553,2240,1539z"/>
<path d="M2127,1657c0-13-10-24-24-24s-24,11-24,24c0,13,10,24,24,24S2127,1671,2127,1657z"/>
<path d="M2027,1775c0-13-10-24-24-24s-24,11-24,24s10,24,24,24S2027,1789,2027,1775z"/>
<path d="M1927,661c0,13-10,24-24,24s-24-11-24-24s10-24,24-24S1927,647,1927,661z"/>
<path d="M543,653c0,13-10,24-24,24s-24-11-24-24c0-13,10-24,24-24S543,640,543,653z"/>
<path d="M1200,3212c-20,0-37,16-37,37h75C1237,3229,1220,3212,1200,3212z"/>
</g>
</g>
<g id="heart_1">
<use x="0" y="246" xlink:href="#cf"/>
<use x="1" y="245.5" xlink:href="#it1" stroke="#DF0000"/>
<use x="-1" y="246.5" xlink:href="#ib1" stroke="#DF0000"/>
<use transform="translate(8.5,270.5)" xlink:href="#hs"/>
<use transform="translate(70.5,344.5) rotate(180)" xlink:href="#hs"/>
<use transform="translate(39.5,307.5)" xlink:href="#hl"/>
</g>
<g id="back">
<use x="158" y="492" xlink:href="#cf"/>
<g id="cardback">
<path fill="#21215E" d="M232.75,606.497c0,2.626-2.036,4.753-4.548,4.753H166.799c-2.512,0-4.549-2.127-4.549-4.753V500.502c0-2.625,2.037-4.752,4.549-4.752h61.403c2.512,0,4.548,2.127,4.548,4.752V606.497z"/>
<rect x="184.75" y="520.25" fill="#FFFFFF" width="25.5" height="66.5"/>
<rect x="181.5" y="516.75" fill="none" stroke="#FFFFFF" stroke-width="0.75" width="32" height="73.5"/>
<rect x="165.5" y="499.5" fill="none" stroke="#FFFFFF" stroke-width="0.75" width="64" height="108"/>
<use x="166" y="500" xlink:href="#bart"/>
<use x="166" y="518" xlink:href="#bart"/>
<use x="166" y="536.1" xlink:href="#bart"/>
<use x="166" y="554.4" xlink:href="#bart"/>
<use x="166" y="572.5" xlink:href="#bart"/>
<use x="166" y="590.5" xlink:href="#bart"/>
<use x="182" y="500" xlink:href="#bart"/>
<use x="182" y="590.5" xlink:href="#bart"/>
<use x="198" y="500" xlink:href="#bart"/>
<use x="198" y="590.5" xlink:href="#bart"/>
<use x="214" y="500" xlink:href="#bart"/>
<use x="214" y="518" xlink:href="#bart"/>
<use x="214" y="536.1" xlink:href="#bart"/>
<use x="214" y="554.4" xlink:href="#bart"/>
<use x="214" y="572.5" xlink:href="#bart"/>
<use x="214" y="590.5" xlink:href="#bart"/>
<use transform="translate(185.5,521) scale(.01)" xlink:href="#bart_in"/>
<use transform="translate(209.5,586) scale(.01) rotate(180)" xlink:href="#bart_in"/>
</g>
</g>
</defs>
<g transform="scale(2.0) translate(3,3)">
<use transform="translate(-158,-492)" xlink:href="#back"/>
<use transform="translate(-136,-492)" xlink:href="#back"/>
<use transform="translate(44,-246)" xlink:href="#heart_1"/>
</g>
</svg>
