<?xml version="1.0" encoding="utf-8"?>
<!DOCTYPE svg PUBLIC "-//W3C//DTD SVG 1.1//EN" "http://www.w3.org/Graphics/SVG/1.1/DTD/svg11.dtd">
<svg xmlns="http://www.w3.org/2000/svg" xmlns:xlink="http://www.w3.org/1999/xlink" width="256" height="256" viewBox="0 0 256 256" version="1.1">
<defs>
<g id="bar2" stroke="#FFFFFF" stroke-width=".6" fill="none">
<circle cx="0" cy="-48" r=".75"/>
<circle cx="0" cy="-44" r=".75"/>
<circle cx="0" cy="-40" r=".75"/>
<circle cx="0" cy="-36" r=".75"/>
<circle cx="0" cy="-32" r=".75"/>
<circle cx="0" cy="-28" r=".75"/>
<circle cx="0" cy="-24" r=".75"/>
<circle cx="0" cy="-20" r=".75"/>
<circle cx="0" cy="-16" r=".75"/>
<circle cx="0" cy="-12" r=".75"/>
<circle cx="0" cy="-8" r=".75"/>
<circle cx="0" cy="-4" r=".75"/>
<circle cx="0" cy="0" r=".75"/>
<circle cx="0" cy="4" r=".75"/>
<circle cx="0" cy="8" r=".75"/>
<circle cx="0" cy="12" r=".75"/>
<circle cx="0" cy="16" r=".75"/>
<circle cx="0" cy="20" r=".75"/>
<circle cx="0" cy="24" r=".75"/>
<circle cx="0" cy="28" r=".75"/>
<circle cx="0" cy="32" r=".75"/>
<circle cx="0" cy="36" r=".75"/>
<circle cx="0" cy="40" r=".75"/>
<circle cx="0" cy="44" r=".75"/>
<circle cx="0" cy="48" r=".75"/>
</g>
<g id="bart" fill="#FFFFFF">
<rect x="6.75" y="7.5" width="1.5" height="1.5"/>
<circle cx="3.5" cy="3.75" r="0.25"/>
<circle cx="4.75" cy="5.125" r="0.25"/>
<circle cx="6" cy="6.5" r="0.25"/>
<circle cx="1" cy="1" r="0.25"/>
<circle cx="2.25" cy="2.375" r="0.25"/>
<circle cx="11.5" cy="12.75" r="0.25"/>
<circle cx="14" cy="15.5" r="0.25"/>
<circle cx="9" cy="10" r="0.25"/>
<circle cx="10.25" cy="11.375" r="0.25"/>
<circle cx="3.5" cy="12.75" r="0.25"/>
<circle cx="4.75" cy="11.375" r="0.25"/>
<circle cx="6" cy="10" r="0.25"/>
<circle cx="1" cy="15.5" r="0.25"/>
<circle cx="2.25" cy="14.125" r="0.25"/>
<circle cx="11.5" cy="3.75" r="0.25"/>
<circle cx="12.75" cy="2.375" r="0.25"/>
<circle cx="14" cy="1" r="0.25"/>
<circle cx="9" cy="6.5" r="0.25"/>
<circle cx="10.25" cy="5.125" r="0.25"/>
<path d="M2.75,8.5h2.5V8h-2.5C1.843,8,0.5,7.046,0.5,5c0-0.853,0.371-1.149,0.756-1.227C1.338,3.757,1.08,4.476,1.368,4.926S1.961,5.25,2.177,5.43s0.288,0.293,0.237,0.474C2.293,6.341,2.084,6.562,2.072,6.575C1.977,6.673,1.978,6.831,2.075,6.927c0.098,0.097,0.254,0.097,0.352,0C2.45,6.903,3,6.341,3,5.25c0-1.108-0.821-2-1.5-2C1.148,3.25,0,3.376,0,5c0,1.762,0.857,2.809,1.764,3.25C0.857,8.691,0,9.738,0,11.5c0,1.624,1.148,1.75,1.5,1.75c0.679,0,1.5-0.893,1.5-2c0-1.091-0.55-1.653-0.573-1.677C2.33,9.477,2.173,9.477,2.075,9.572C1.978,9.669,1.977,9.826,2.072,9.926c0.012,0.012,0.222,0.232,0.343,0.67c0.05,0.182-0.021,0.295-0.237,0.475s-0.521,0.055-0.81,0.504s-0.03,1.169-0.111,1.152C0.871,12.648,0.5,12.353,0.5,11.5C0.5,9.453,1.843,8.5,2.75,8.5z"/>
<path d="M12.25,8.5h-2.5V8h2.5c0.907,0,2.25-0.954,2.25-3c0-0.853-0.371-1.149-0.756-1.227c-0.082-0.017,0.176,0.703-0.111,1.152c-0.289,0.45-0.594,0.324-0.811,0.504c-0.215,0.18-0.287,0.293-0.236,0.474c0.121,0.438,0.33,0.658,0.342,0.671c0.096,0.099,0.095,0.256-0.003,0.353c-0.099,0.097-0.255,0.097-0.352,0C12.55,6.903,12,6.341,12,5.25c0-1.108,0.82-2,1.5-2C13.852,3.25,15,3.376,15,5c0,1.762-0.857,2.809-1.764,3.25C14.143,8.691,15,9.738,15,11.5c0,1.624-1.148,1.75-1.5,1.75c-0.68,0-1.5-0.893-1.5-2c0-1.091,0.55-1.653,0.573-1.677c0.097-0.097,0.253-0.097,0.352-0.001c0.098,0.097,0.099,0.254,0.003,0.354c-0.012,0.012-0.221,0.232-0.342,0.67c-0.051,0.182,0.021,0.295,0.236,0.475c0.217,0.18,0.521,0.055,0.811,0.504c0.287,0.449,0.029,1.169,0.111,1.152c0.385-0.078,0.756-0.374,0.756-1.227C14.5,9.453,13.157,8.5,12.25,8.5z"/>
<path d="M7.725,13.475v-2.75h-0.45v2.75c0,0.998-0.858,2.475-2.7,2.475c-0.768,0-1.034-0.407-1.104-0.831c-0.015-0.09,0.632,0.194,1.037-0.122c0.405-0.317,0.292-0.653,0.454-0.891c0.162-0.238,0.264-0.316,0.427-0.262c0.394,0.134,0.592,0.363,0.604,0.377c0.089,0.105,0.231,0.104,0.317-0.004c0.087-0.107,0.087-0.279,0-0.387C6.288,13.805,5.782,13.2,4.8,13.2C3.803,13.2,3,14.104,3,14.85c0,0.388,0.113,1.65,1.575,1.65c1.585,0,2.527-0.943,2.925-1.941c0.397,0.998,1.34,1.941,2.925,1.941c1.462,0,1.575-1.263,1.575-1.65c0-0.746-0.803-1.649-1.8-1.649c-0.981,0-1.488,0.604-1.509,0.63c-0.087,0.107-0.087,0.279,0,0.387s0.229,0.109,0.317,0.004c0.012-0.014,0.21-0.243,0.604-0.377c0.163-0.055,0.266,0.023,0.427,0.262c0.162,0.237,0.049,0.573,0.454,0.891c0.404,0.316,1.052,0.032,1.037,0.122c-0.07,0.424-0.337,0.831-1.104,0.831C8.583,15.949,7.725,14.473,7.725,13.475z"/>
<path d="M7.725,3.025v2.75h-0.45v-2.75c0-0.998-0.858-2.475-2.7-2.475c-0.768,0-1.034,0.408-1.104,0.832c-0.015,0.09,0.632-0.194,1.037,0.123S4.8,2.157,4.962,2.395c0.162,0.237,0.264,0.316,0.427,0.261c0.394-0.133,0.592-0.363,0.604-0.376C6.081,2.174,6.223,2.175,6.31,2.283c0.087,0.108,0.087,0.28,0,0.387C6.288,2.695,5.782,3.3,4.8,3.3C3.803,3.3,3,2.397,3,1.65C3,1.263,3.113,0,4.575,0C6.161,0,7.103,0.943,7.5,1.941C7.897,0.943,8.84,0,10.425,0C11.887,0,12,1.263,12,1.65c0,0.747-0.803,1.65-1.8,1.65c-0.981,0-1.488-0.604-1.509-0.63c-0.087-0.107-0.087-0.279,0-0.387c0.087-0.107,0.229-0.108,0.317-0.003c0.012,0.013,0.21,0.243,0.604,0.376c0.163,0.056,0.266-0.023,0.427-0.261c0.162-0.238,0.049-0.574,0.454-0.891c0.404-0.317,1.052-0.033,1.037-0.123c-0.07-0.424-0.337-0.832-1.104-0.832C8.583,0.55,7.725,2.027,7.725,3.025z"/>
</g>
<path id="cf" fill="#FFFFFF" stroke="#000000" stroke-width="1.5" d="M78.25,117.25c0,2.762-2.238,5-5,5h-67.5c-2.761,0-5-2.238-5-5v-111.5c0-2.762,2.239-5,5-5h67.5c2.762,0,5,2.238,5,5V117.25z"/>
<path id="cfo" fill="none" stroke="#000000" stroke-width="1.5" d="M78.25,117.25c0,2.762-2.238,5-5,5h-67.5c-2.761,0-5-2.238-5-5v-111.5c0-2.762,2.239-5,5-5h67.5c2.762,0,5,2.238,5,5V117.25z"/>
<path id="ds" fill="#DF0000" d="M2.205,-2.386C0.882,-3.75,0,-5,0,-5s-0.882,1.25-2.206,2.614C-3.529,-1.023,-5,0,-5,0s1.471,1.022,2.794,2.387C-0.882,3.75,0,5,0,5s0.882-1.25,2.205-2.613C3.529,1.022,5,0,5,0S3.529,-1.023,2.205,-2.386z"/>
<g id="itj" fill="none" stroke-width="1.5">
<path d="M793.75,14.75V15c0,0-0.25,2.75,3,2.75s3-2.75,3-2.75V6"/>
<line x1="802" y1="5.25" x2="797.5" y2="5.25"/>
</g>
<g id="ibj" fill="none" stroke-width="1.5">
<path d="M865.25,108.25V108c0,0,0.25-2.75-3-2.75s-3,2.75-3,2.75v9"/>
<line x1="857" y1="117.75" x2="861.5" y2="117.75"/>
</g>
<g id="bart_in">
<g fill="#21215E">
<path d="M12,2472c69-130,218-177,330-101c70,47,94,97,94,199c0,129-83,213-186,185c-61-16-69-50-11-50c57,0,85-25,85-82c0-59-38-95-104-95c-101,0-150,98-131,258c9,80,96,242,128,242c11,0,61-43,110-95c120-122,184-153,319-155h106l1-113c4-181,43-271,178-422c64-69,59-85-45-160c-61-42-81-48-181-48c-97,0-115,4-142,38c-72,90-49,198,44,208c56,6,94-40,80-95c-4-19,0-30,12-30c38,0,46,105,14,173c-54,109-207,124-295,29c-32-33-40-63-45-156c-8-129,17-202,88-247c27-17,35-35,28-58c-6-21-3-30,14-30c14,0,25,6,25,16c0,22,53,20,77-3c14-14,27-14,54,0c20,9,69,27,107,38c48,13,101,50,168,113l98,95l46-53c51-59,89-142,89-190c0-56,40-60,45,1c5,72,105,241,129,241c6,0,54-43,109-95c70-69,117-101,167-114c38-9,86-25,105-35c27-13,40-11,60,9c32,32,54,32,65,1c12-34,38-30,38,4c0,16,17,47,40,68c62,58,88,126,88,224c0,111-41,187-120,221c-81,34-130,27-186-22c-43-38-49-56-51-131c-1-56,3-89,17-93c12-4,19,9,19,40c0,56,41,106,75,93c12-4,30-9,38-9c30,0,59-100,43-148c-51-148-260-150-417-1l-43,40l81,100c115,139,157,240,157,386v116h109c128,0,195,35,337,182c46,48,86,85,89,82c144-195,170-326,89-459c-28-48-43-56-94-56c-75,0-97,22-97,98c0,61,19,79,81,79c43,0,38,45-8,58c-20,4-62-1-94-14c-191-80-104-415,107-415c69,0,168,61,207,126l31,52v-554c-6-8-15-6-35,3c-40,21-80-3-80-46c0-14-8-37-16-50c-12-20-20-20-49-3c-40,25-52,17-40-26c16-48,93-76,156-53c35,12,56,17,66,14V1726c-6-40-7-81,0-176v-202c-0-1-1-4-2-5c-22-22-22-129,0-152c1-1,1-3,2-5V974c-3-27-7-55-11-81c-6-37-4-63,6-69c2-1,3-3,5-6v-83c-0-0-1-1-2-1c-7,0-35,8-59,16c-62,24-133,4-154-42s-6-68,27-39c30,26,67-1,75-53c3-29,14-35,65-34l47,1V0h-110c-40,7-52,36-91,151c-12,40-28,85-35,100c-8,21-3,29,16,29c48,0,120,89,120,148c0,77-59,132-126,118c-57-13-57-13-24-64c30-46,19-89-20-89c-16,0-83,40-149,90c-65,50-136,98-155,108c-19,8-38,29-41,45c-8,30-43,43-43,14c0-8-40-14-88-14c-99,1-213-53-258-122c-33-50-60-50-110,0c-77,76-35,161,70,143c57-9,62-6,80,42c22,64,12,80-49,80s-136-45-160-98l-19-41l-33,50c-38,58-94,90-157,90c-41,0-45-3-40-61c4-58,6-59,70-59c117,0,152-66,77-144c-54-53-77-53-115,3C956,584,843,636,745,636c-48,0-85,8-89,19c-8,16-11,16-19,0c-11-26-14-27-176-147C307,396,275,378,249,388c-28,11-25,80,4,92c35,14,19,46-30,59c-69,19-123-35-123-122c0-56,8-77,41-103c24-19,56-33,72-33c35,0,36-6,12-51c-9-19-30-79-45-132L157,0H0v571c6,22,15,21,28,0c20-32,57-14,80,38c27,66,51,85,77,59c24-24,43-22,43,4c0,12-19,37-45,55c-41,29-89,29-163-3c-10-4-16,1-20,31v417c1,5,2,9,3,9c20,0,20,140,1,153c-2,1-3,7-5,17v423c4,23,12,20,28,9c67-48,200-9,200,59c0,16-6,30-16,30c-8,0-16-8-16-16c0-38-59-12-81,35c-19,45-30,53-75,51L0,1949v540C3,2489,7,2482,12,2472z"/>
<path d="M426,44l3-44H218c32,23,191,102,197,95C419,92,424,70,426,44z"/>
<path d="M644,144l-17,47l-24-37c-33-48-81-47-94,6c-36,145,189,383,337,355c94-17,157-90,78-90c-48,0-162-66-191-108c-30-46-33-132-6-181c8-17,40-40,72-50c46-14,65-13,125,13c99,43,142,113,146,226c3,82,9,98,64,156l62,64l65-64c60-59,67-72,60-132c-17-189,205-346,327-229c43,40,52,148,17,192c-33,43-122,98-181,116c-54,14-56,16-30,47c38,40,122,54,194,30c83-27,207-156,232-240c33-114-30-195-88-111c-14,19-30,29-37,22c-12-12-14-113-3-155c6-25-17-17-113-21H644l7,44C658,73,654,118,644,144z"/>
<path d="M1972,68l9,50l45-32c24-17,62-38,86-48c24-8,38-22,33-32c-1-2-5-3-9-5h-159c-2,1-5,2-6,3C1967,11,1967,40,1972,68z"/>
<path d="M468,118c8,0,22-11,35-26c14-17,35-22,65-16c49,9,57-8,19-45c-33-34-64-32-102,6C453,70,442,118,468,118z"/>
<path d="M1946,112c0-29-69-106-94-106c-8,0-27,11-40,25c-38,37-30,56,16,45c28-8,51,0,80,27C1940,134,1946,136,1946,112z"/>
<path d="M276,138c41-43,41-45-17-66L211,55l9,51C236,176,239,178,276,138z"/>
<path d="M2177,113c11-45,3-48-57-32c-36,9-36,25,3,61C2160,176,2163,175,2177,113z"/>
<path d="M1020,296c0-74-33-122-112-155c-70-30-94-29-133,9c-73,74-4,189,138,224C1004,398,1020,387,1020,296z"/>
<path d="M1461,385c168-32,250-156,154-232c-48-37-61-38-118-16c-97,40-152,148-112,224C1400,391,1411,395,1461,385z"/>
<path d="M159,357c-32,35-35,85-8,113c32,32,45,22,45-35c0-30,8-61,16-66c9-4,16-16,16-25C228,319,186,327,159,357z"/>
<path d="M2169,361c20,0,40,63,35,108c-4,43,3,46,37,11c35-34,32-81-6-119c-33-34-80-43-80-16C2155,353,2161,361,2169,361z"/>
<path d="M758,1962c-69-22-134-17-200,16C468,2023,431,2081,431,2173c0,127,80,206,186,184c48-11,62-42,17-37c-73,6-101-4-125-51c-73-145,32-287,220-292C787,1975,792,1973,758,1962z"/>
<path d="M1887,2094c54,111-14,250-117,236c-51-8-65,9-22,25c83,32,186-22,208-110c15-67-8-179-46-216c-38-37-143-85-175-82c-11,1-41,6-68,9c-82,12-75,29,12,30C1787,1987,1852,2021,1887,2094z"/>
<path d="M1131,2335c14,30,35,98,45,152l20,97l20-89c9-48,28-119,38-158c17-59,16-77-8-131c-14-35-32-87-38-116c-11-55-11-55-40,42c-17,53-38,108-46,122C1111,2274,1113,2296,1131,2335z"/>
<path d="M901,2495c123-150,205-273,219-329c12-51-1-54-27-6c-11,21-59,84-110,142c-122,142-159,197-171,261C801,2612,808,2607,901,2495z"/>
<path d="M1566,2592c20,30,27,33,27,11c0-56-69-174-171-289c-56-64-112-134-120-155c-16-30-44-50-44-27c0,33,109,213,187,307C1495,2500,1550,2570,1566,2592z"/>
<path d="M1179,2686l-11-85c-4-48-24-126-41-172c-16-47-30-87-30-89c0-3-6-4-16-4c-8,0-16,6-16,12c0,6-54,77-120,156c-65,80-123,166-128,193c-20,97-28,106-109,143c-56,26-128,84-218,176l-136,139l48,19c125,48,175,63,224,63s54-3,54-50c0-37,14-66,54-103c30-29,64-81,73-116c14-48,35-74,80-100c33-17,75-33,94-33c17,0,33-8,33-17c0-38,67-109,114-119L1179,2686z"/>
<path d="M1638,2828c-16-4-32-32-38-69c-6-34-22-79-36-101c-19-32-171-226-244-313c-6-6-22,8-35,32c-20,43-48,147-64,253c-4,35,3,58,38,93c25,25,46,63,46,79c0,43,28,40,67-9c20-24,45-38,67-35c17,1,41-1,52-8c14-9,22,11,30,69c8,61,17,80,38,80c14,0,49,8,77,17c43,14,48,22,35,47c-9,16-16,50-16,74s-11,58-27,74c-24,27-22,32,35,82c57,51,65,53,141,42c70-11,220-69,220-85c0-3-59-66-131-142C1776,2888,1736,2861,1638,2828z"/>
<path d="M230,2479c72,0,110,40,122,127c11,79,36,72,36-9c0-150-142-229-268-148C36,2503-7,2672,32,2794c14,42,16,37,17-53C53,2566,113,2479,230,2479z"/>
<path d="M2370,2756c16-101-16-215-77-274c-65-64-159-82-215-42c-73,55-102,158-61,231c19,35,20,33,20-35c0-85,32-132,102-147c109-24,196,79,196,236C2336,2832,2354,2849,2370,2756z"/>
<path d="M1127,2733c-32,12-62,54-64,88c0,26,73,61,128,61c32,0,80-50,80-84C1272,2752,1182,2712,1127,2733z"/>
<path d="M154,3124c22-34,20-40-41-110c-35-40-78-103-94-139L0,2836v401C28,3231,133,3154,154,3124z"/>
<path d="M585,2835c-16,0-59,21-93,46c-33,25-123,111-199,189L156,3212l88-46C350,3108,633,2835,585,2835z"/>
<path d="M1991,2963c-33-42-158-127-189-127c-17,0,27,54,118,142c80,79,168,158,194,176c106,71,107,50,4-55C2060,3039,2002,2977,1991,2963z"/>
<path d="M2373,2875c-4,21-41,79-82,129c-39,48-72,95-72,103c0,19,144,131,171,131c3,0,6-2,8-7v-384C2393,2824,2384,2832,2373,2875z"/>
<path d="M1384,2851c-8,0-16,6-16,14c0,9,8,21,16,25c9,4,16-1,16-14C1400,2862,1394,2851,1384,2851z"/>
<path d="M52,2875c0,5,3,8,8,8c4,0,8-3,8-8c0-4-3-8-8-8C55,2867,52,2870,52,2875z"/>
<path d="M967,2880c0,8,11,25,25,37c22,19,25,17,20-8C1007,2877,967,2853,967,2880z"/>
<path d="M2315,2883c0,11,5,16,11,11c4-6,4-16,0-22C2320,2867,2315,2872,2315,2883z"/>
<path d="M1209,2930c-16-17-146-35-146-19c1,42,85,102,144,102c27,0,32-6,24-37C1225,2956,1216,2935,1209,2930z"/>
<path d="M903,2935c0,14,8,32,16,37c20,13,20-8,0-40C906,2911,903,2911,903,2935z"/>
<path d="M833,2958c-6,6-11,29-11,50c0,27,9,37,33,37c25,0,30-6,22-37C864,2963,848,2945,833,2958z"/>
<path d="M1283,2959c-20,19-11,37,20,37c17,0,32-11,32-24C1336,2948,1302,2938,1283,2959z"/>
<path d="M1329,3250c-5-22-9-43-9-60c0-40-6-46-43-46c-61,0-173-58-204-105c-33-50-49-50-83,0c-24,37-24,42,4,84c33,47,66,79,75,128H1329z"/>
<path d="M1567,3061c-3,0-6,6-6,16c0,8,8,16,17,16c8,0,11-8,6-16C1580,3068,1572,3061,1567,3061z"/>
<path d="M755,3119c-38,21-45,34-45,93c0,13,17,24,19,36h92c0-9,8-19,8-31C829,3108,814,3087,755,3119z"/>
<path d="M850,3085l9,55c6,29,38,109,52,109c3,0,48,0,48,0c-9-49-34-95-75-131L850,3085z"/>
<path d="M1485,3200c36-29,35-74-3-74c-25,0-33,16-41,87c-1,12-1,24-1,36h50c-1-1-2-3-3-4C1458,3225,1458,3221,1485,3200z"/>
<path d="M218,3234l-28,15H481c-56-24-151-58-170-58C296,3192,249,3212,218,3234z"/>
<path d="M2010,3210c-41,17-72,29-99,39H2214l-36-17C2078,3186,2068,3186,2010,3210z"/>
<path d="M1580,3244c-2,2-3,3-4,5h95c-3-5-5-11-10-15C1622,3199,1622,3200,1580,3244z"/>
</g>
<g fill="#FFFFFF">
<path d="M2219,1229c77,19,70,53-16,79c-96,29-128,27-176-9l-40-32l40-32C2068,1200,2100,1200,2219,1229z"/>
<path d="M1810,1234c20,0,24-11,14-56c-9-51-4-58,48-90c64-37,68-50,33-79c-12-11-19-25-14-34c14-24,52-16,70,16c28,55,19,187-17,232l-32,42l35,48c45,63,48,202,5,236c-17,12-35,24-41,24c-19,0-15-45,3-56c28-17,17-37-41-71c-52-32-57-38-48-90c9-45,6-56-14-56c-12,0-24-14-24-32C1786,1248,1797,1234,1810,1234z"/>
<path d="M1233,1722c-28,38-48,35-73-11c-17-32-17-56,0-140c32-155,41-160,75-32C1261,1637,1261,1688,1233,1722z"/>
<path d="M1427,1229c109-34,155-32,191,6c30,33,28,33-9,66c-27,22-52,29-83,22c-24-4-65-14-93-19c-25-4-54-19-64-30C1354,1256,1367,1247,1427,1229z"/>
<path d="M1167,807l30-45l29,38c20,25,27,55,22,93c-14,111-33,185-49,185c-8,0-25-51-38-114C1140,860,1140,849,1167,807z"/>
<path d="M1142,1205c1-6,27-13,57-13s56,6,57,13c0,6,1,33,1,61c0,26-1,55-1,61c-1,6-27,13-57,13s-56-6-57-13c0-6-1-35-1-61C1140,1239,1142,1211,1142,1205z"/>
<path d="M959,1224c46,13,80,30,80,43c0,19-25,29-168,56c-25,4-54-4-80-24c-38-30-38-32-9-64C816,1197,846,1195,959,1224z"/>
<path d="M509,957c4,8-3,27-17,40c-32,34-20,66,37,93c38,19,45,30,41,82c-3,43,3,59,19,59c30,0,30,46,0,58c-14,6-20,29-19,67c3,47-4,61-33,77c-62,32-72,48-49,84c29,45,6,63-33,27c-45-42-45-181,1-241l32-42l-32-42c-24-30-33-66-33-126C421,993,475,904,509,957z"/>
<path d="M124,1252c4-4,46-20,93-35c46-14,85-27,88-29c1-1,22,9,43,24c49,32,51,63,1,95c-32,20-49,22-115,6C153,1294,108,1268,124,1252z"/>
<path d="M1369,1426c0,13-10,24-24,24c-13,0-24-11-24-24s10-24,24-24C1358,1401,1369,1412,1369,1426z"/>
<path d="M1078,1426c0,13-10,24-24,24c-13,0-24-11-24-24s10-24,24-24C1068,1401,1078,1412,1078,1426z"/>
<path d="M1078,1104c0,13-10,24-24,24c-13,0-24-11-24-24s10-24,24-24C1068,1079,1078,1090,1078,1104z"/>
<path d="M1369,1104c0,13-10,24-24,24c-13,0-24-11-24-24s10-24,24-24C1358,1079,1369,1090,1369,1104z"/>
<path d="M980,993c0,13-10,24-24,24c-13,0-24-11-24-24s10-24,24-24C969,969,980,980,980,993z"/>
<path d="M866,876c0,13-10,24-24,24c-13,0-24-11-24-24s10-24,24-24C855,851,866,862,866,876z"/>
<path d="M766,758c0,13-10,24-24,24c-13,0-24-11-24-24s10-24,24-24C755,733,766,744,766,758z"/>
<path d="M1425,1539c0-13,10-24,24-24s24,11,24,24s-10,24-24,24S1425,1553,1425,1539z"/>
<path d="M1539,1657c0-13,10-24,24-24c13,0,24,11,24,24c0,13-10,24-24,24C1550,1682,1539,1671,1539,1657z"/>
<path d="M1639,1775c0-13,10-24,24-24c13,0,24,11,24,24s-10,24-24,24C1650,1800,1639,1789,1639,1775z"/>
<path d="M1369,1426c0,13-10,24-24,24c-13,0-24-11-24-24s10-24,24-24C1358,1401,1369,1412,1369,1426z"/>
<path d="M1078,1104c0,13-10,24-24,24c-13,0-24-11-24-24s10-24,24-24C1068,1079,1078,1090,1078,1104z"/>
<path d="M980,993c0,13-10,24-24,24c-13,0-24-11-24-24s10-24,24-24C969,969,980,980,980,993z"/>
<path d="M866,876c0,13-10,24-24,24c-13,0-24-11-24-24s10-24,24-24C855,851,866,862,866,876z"/>
<path d="M766,758c0,13-10,24-24,24c-13,0-24-11-24-24s10-24,24-24C755,733,766,744,766,758z"/>
<path d="M2339,1104c0,13-10,24-24,24s-24-11-24-24s10-24,24-24S2339,1090,2339,1104z"/>
<path d="M2240,993c0,13-10,24-24,24c-13,0-24-11-24-24s10-24,24-24C2230,969,2240,980,2240,993z"/>
<path d="M2127,876c0,13-10,24-24,24s-24-11-24-24s10-24,24-24S2127,862,2127,876z"/>
<path d="M2027,758c0,13-10,24-24,24s-24-11-24-24s10-24,24-24S2027,744,2027,758z"/>
<path d="M1425,1539c0-13,10-24,24-24s24,11,24,24s-10,24-24,24S1425,1553,1425,1539z"/>
<path d="M1539,1657c0-13,10-24,24-24c13,0,24,11,24,24c0,13-10,24-24,24C1550,1682,1539,1671,1539,1657z"/>
<path d="M1639,1775c0-13,10-24,24-24c13,0,24,11,24,24s-10,24-24,24C1650,1800,1639,1789,1639,1775z"/>
<path d="M1425,993c0,13,10,24,24,24s24-11,24-24s-10-24-24-24S1425,980,1425,993z"/>
<path d="M1539,876c0,13,10,24,24,24c13,0,24-11,24-24s-10-24-24-24C1550,851,1539,862,1539,876z"/>
<path d="M1639,758c0,13,10,24,24,24c13,0,24-11,24-24s-10-24-24-24C1650,733,1639,744,1639,758z"/>
<path d="M104,1104c0,13-10,24-24,24c-13,0-24-11-24-24s10-24,24-24C93,1079,104,1090,104,1104z"/>
<path d="M104,1426c0,13-10,24-24,24c-13,0-24-11-24-24s10-24,24-24C93,1401,104,1412,104,1426z"/>
<path d="M160,1539c0-13,10-24,24-24c13,0,24,11,24,24s-10,24-24,24C171,1564,160,1553,160,1539z"/>
<path d="M274,1657c0-13,10-24,24-24c13,0,24,11,24,24c0,13-10,24-24,24C284,1682,274,1671,274,1657z"/>
<path d="M374,1775c0-13,10-24,24-24c13,0,24,11,24,24s-10,24-24,24C384,1800,374,1789,374,1775z"/>
<path d="M160,993c0,13,10,24,24,24c13,0,24-11,24-24s-10-24-24-24C171,969,160,980,160,993z"/>
<path d="M274,876c0,13,10,24,24,24c13,0,24-11,24-24s-10-24-24-24C284,851,274,862,274,876z"/>
<path d="M374,758c0,13,10,24,24,24c13,0,24-11,24-24s-10-24-24-24C384,733,374,744,374,758z"/>
<path d="M980,1539c0-13-10-24-24-24c-13,0-24,11-24,24s10,24,24,24C969,1564,980,1553,980,1539z"/>
<path d="M866,1657c0-13-10-24-24-24c-13,0-24,11-24,24c0,13,10,24,24,24C855,1682,866,1671,866,1657z"/>
<path d="M766,1775c0-13-10-24-24-24c-13,0-24,11-24,24s10,24,24,24C755,1800,766,1789,766,1775z"/>
<path d="M2339,1426c0,13-10,24-24,24s-24-11-24-24s10-24,24-24S2339,1412,2339,1426z"/>
<path d="M2240,1539c0-13-10-24-24-24c-13,0-24,11-24,24s10,24,24,24C2230,1564,2240,1553,2240,1539z"/>
<path d="M2127,1657c0-13-10-24-24-24s-24,11-24,24c0,13,10,24,24,24S2127,1671,2127,1657z"/>
<path d="M2027,1775c0-13-10-24-24-24s-24,11-24,24s10,24,24,24S2027,1789,2027,1775z"/>
<path d="M1927,661c0,13-10,24-24,24s-24-11-24-24s10-24,24-24S1927,647,1927,661z"/>
<path d="M543,653c0,13-10,24-24,24s-24-11-24-24c0-13,10-24,24-24S543,640,543,653z"/>
<path d="M1200,3212c-20,0-37,16-37,37h75C1237,3229,1220,3212,1200,3212z"/>
</g>
</g>
<g id="jackdiamonds">
<polygon fill="#FFD90F" points="1666,7193 1193,8122 1587,8330 2251,8529 2929,7549 2695,7333 2362,7429 2032,7418 1856,7216 "/>
<polygon fill="#DF0000" points="1824,8432 2067,8844 2333,8575 "/>
<polygon fill="#DF0000" points="3084,5345 2947,6175 2645,7061 2768,7421 2929,7590 3610,6479 3607,5304 "/>
<polygon fill="#5C5CE5" points="3096,5418 2797,6681 2657,7073 2724,7321 2306,7456 1982,7386 1748,7105 2575,5407 "/>
<polygon fill="#5C5CE5" points="4180,3586 2938,2200 2806,2264 2730,2367 2543,2367 2148,2583 3134,3299 4680,4875 4876,4582 4496,3989 4826,3322 5209,2904 5504,2790 5227,2592 4659,2451 "/>
<polygon fill="#FFD90F" points="3601,5307 3628,6558 4423,5263 "/>
<polygon fill="#FFD90F" points="3405,3591 3666,5205 4759,4989 "/>
<polygon fill="#FFD90F" points="5472,2808 5296,2886 5296,3278 5535,3635 5802,3231 "/>
<polygon fill="#FFD90F" points="3668,2968 4421,2968 4189,3584 "/>
<polygon fill="#DF0000" points="5280,2882 4813,3325 4499,3969 4833,4624 5500,3639 5307,3270 "/>
<polygon fill="#DF0000" points="3624,5122 3432,3596 2644,2984 2345,3835 2028,4510 2495,4549 2863,5067 "/>
<polygon fill="#DF0000" points="2240,2627 1624,3584 1396,4106 1012,4051 686,4196 764,3757 1325,3200 1580,2788 1902,2600 "/>
<polygon fill="#FFD90F" points="2236,2658 1722,3439 1408,4106 2020,4467 2291,4000 2655,2988 "/>
<polygon fill="#DF0000" points="2952,2250 3679,2979 4406,2979 4660,2470 4479,2439 4331,2769 3757,2782 3152,2213 "/>
<polygon fill="#DF0000" points="2891,1171 2411,878 3194,230 4087,99 4624,92 5090,303 4817,682 3959,740 3321,961 "/>
<polygon fill="#5C5CE5" points="118,4915 135,6643 304,7439 581,6112 948,5135 1264,4746 1913,4401 1292,4068 993,4079 281,4469 "/>
<polyline fill="#FFD90F" points="818,8263 513,7913 304,7439 615,6050 903,5260 1123,4887 1586,4537 2009,4441 2260,4780 2253,5057 2075,5092 1873,5237 1844,5450 1594,5319 1168,6242 953,7038 818,7823 "/>
<path d="M3948,100c-35,35-175,33-222,40c-125,19-251,36-378,50c-41,4-81,5-123,8c-67,5-106,55-153,99c-131,121-260,242-398,356c-58,48-118,96-179,141c-27,20-152,84-93,109c55,23,113,30,166,62c79,48,146,117,212,181c32,31,82,69,87,118c6,68,6,125,40,187c36,66,117,138,118,219c0,85-122,42-134-23c-7-43-54-39-95,9c-44,51-26,99-25,161c0,51-69,59-101,87c-26,22-50,53-58,87c-5,23,2,53-13,73c-32,43-114,3-156,47c-39,41-36,53,13,43c46-10,81,18,120,37c34,16,80,13,112,32c17,10,17,14-1,32c-28,30-76,3-109-1c-42-7-87-4-123,21c-40,29-66,78-101,114c-42,45-91,86-145,118c-156,90-340,36-498,138c-77,49-141,117-192,193c-53,79-83,172-146,245c-140,164-321,292-465,455c-82,93-153,194-188,315c-27,93-5,268-76,336c-58,56-145,86-213,131c-76,49-147,109-198,184c-48,70-76,152-88,236c-5,38-35,220-3,244c4,3,15-25,15-26c39-93,37-206,67-304c25-83,59-141,123-201c157-144,346-219,539-304c98-43,200-84,310-78c103,5,200,49,293,92c86,40,172,83,255,131c44,25,83,68,128,81c32,14-78,41-94,46c-58,21-116,48-172,76c-112,56-233,129-328,210c-225,191-339,427-456,693c-124,283-199,590-277,889c-44,169-94,339-131,510c-34,163-51,330-91,493c-0,1-5,30-11,31c-29,2-84-317-90-345c-28-146-52-294-65-442c-0-5-4-100-13-101c-10-0,4,415,11,462c11,85,34,168,56,251c16,62,28,147,68,200c31,43,37,92,54,145c33,107,78,212,130,311c95,179,225,367,409,465c66,35,138,55,213,50c53-3,105-14,156-31c35-12,83-53,121-53c70,0,170,62,236,86c51,18,113,29,158,61c100,72,163,227,226,331c34,56,67,113,100,170c11,19,147,241,151,236c67-53,116-180,163-254c66-103,134-205,201-308c127-195,253-391,380-587c138-212,276-426,415-639c607-935,1216-1869,1822-2805c199-307,399-613,592-924c18-30,136-175,117-218c-52-117-144-225-221-326c-47-63-97-126-134-197c-27-51-39-95-85-136c-105-94-220-173-361-198c-122-22-247-107-372-101c-43,1-266-1-266-74c0-50,225-50,260-56c117-23,123-142,76-234c-13-26,60-92,73-118c13-27,26-53,20-84c-4-21-26-65-13-86c19-40,112,9,139-44c18-41-5-103-16-143c-38-152-92-299-98-458c-2-88-19-175-43-261c-11-41-55-135-37-178c31-74,99-137,147-202c30-42,53-99,91-135c85-79-58-111-118-137c-94-41-228-140-334-135c-43,0-43,0-10,15c135,57,264,138,404,185c78,25-24,97-81,76c-106-39-206-96-308-144c-97-46-172-73-280-56c-158,24-314,58-472,83c-132,20-265,35-398,48c-111,11-238,4-327,83c-115,103-217,220-336,320c-65,54-225,220-322,181c-67-26,87-116,117-139c70-54,138-112,205-171c73-64,145-129,215-197c53-52,108-126,184-147c78-21,167-15,248-22c83-7,166-20,249-32c108-16,216-31,324-47c56-8,127-9,180-30c-28,9-94-5-125-5C4073,94,3961,81,3948,100 M4153,375c-2,4-56,145-13,104C4169,452,4248,289,4284,289c-8,0-129,221-82,221c35,0,177-256,185-245c14,11-109,193-117,220c-8,34-0,54,30,23c48-49,76-115,125-163c29-29,2,38-0,43c-10,16-94,123-79,143c36,36,163-180,179-201c2-2,43-58,50-41c11,29-63,112-77,133c-23,34-59,78-67,120c-7,44,43-12,47-17c39-51,72-106,112-157c2-3,52-66,51-33c0,80-121,151-132,235c-3,24,20,14,30,4c37-44,67-93,99-141c20-30,120-147,62-44c-10,18-133,204-100,211c55,11,129-168,167-202c26-23,10,23,6,31c-27,52-65,101-88,156c-3,7-10,62,13,37c36-36,61-85,90-128c51-76,99-102,39,0c-28,49-46,136-108,146c-92,15-187,12-280,22c-214,21-429,56-640,100c-194,41-381,114-563,193c-82,35-165,71-241,118c-29,18-93,73-130,73c-33,0-103-86-125-107c-68-64-115-102-28-170c63-49,129-94,189-148C2972,660,3040,588,3107,516c35-38,77-102,127-124c59-25,134-23,197-28c118-10,236-22,354-38c98-12,199-37,298-35c66,1-108,167-35,153c35-6,70-74,85-102c3-5,40-110,59-61C4198,285,4179,328,4153,375 M4889,549c-56,80-103,103-38-3c5-8,61-108,79-89C4950,475,4898,537,4889,549 M4796,714c17,16,23,72,29,94c15,54,31,109,43,165c21,96,15,193,30,291c12,80,41,160,60,239c12,48,77,205,27,240c-35,26-65-18-96-33c-21-10-52-19-76-7c-11,6-23,37-41,27c-52-31,54-112,24-112c-26,0-78,56-78,82c0,56,63,66,103,65c56-1-17,97-37,106c-14,6-45,27-61,11c-21-22-23-39-46-3c-51,72,39,62,69,122c17,35,19,65,42,98c27,39,39,85,15,128c-32,65-93,69-161,71c-120,3-247,4-364-25c-95-24-176-77-249-142c-24-22-219-260-213-265c-26,26,86,168,100,187c74,101,165,174,282,222c63,26,193,20,202,105c11,110,14,242-61,332c-37,44-105,36-158,38c-127,4-298,37-421-11c-108-43-190-167-270-245c-58-56-117-113-180-165c-43-34-165-103-107-167c35-38,84,30,120,46c56,24,128,28,182-4c96-62,144-237,22-297c-91-47,87-124,121-168c58-83,94,62,142,84c78,34,153-148,212-184c115-65,132-222,97-338c-11-36-28-71,0-103c37-41,56-108,60-163c1-27-28-102,14-109c15-2,141-59,123-75c-7-0-14,0-21,3c-48,14-82,9-100-15c-23-32-20-68,6-82c82-43,220-41,311-50c50-5,101-7,152-6C4670,703,4779,693,4796,714 M4029,863c-11,58-11,58-13-1c-0-8-5-73,15-73C4046,788,4029,862,4029,863 M3884,816c0,36-30,80-35,119c-6,54-4,110,8,163c18,77,157,257,114,334c-4,7-164-226-179-260c-41-95-39-256,34-337C3846,815,3884,801,3884,816 M3745,845c11,11-29,166-29,192c-0,76,10,153,42,223c44,100,233,314,131,427c-48,52-45-28-59-63c-20-54-60-100-99-141c-97-101-172-171-179-319c-5-97-5-97,11-26c29,123,108,198,194,288c34,35,79,75,92,125c2,9,12,117,35,82c82-130-188-301-240-387c-36-61-41-144-31-213C3618,997,3697,798,3745,845 M3621,910c-16,17-20,17-36,0c-13-16-11-22,14-32C3636,864,3648,883,3621,910 M3955,1183c10,35,18,66,15,67c-1,1-66-141-70-153c-18-62-35-148-1-209c0-1,7-15,12-13c18,9,14,97,15,112C3931,1052,3937,1120,3955,1183 M4119,952c0,9-5,13-13,9c-9-6-21-48-10-55c3,3,7,6,10,10C4113,926,4119,943,4119,952 M3493,934c0,2-9,11-19,20c-5,3-10,6-15,9C3425,957,3493,905,3493,934 M4013,991c10,16,40,51,40,73c0,22-66,36-80,18c-8-14-18-154-5-154C3979,928,4009,984,4013,991 M3434,1016c-46,112-58,226-18,343c31,90,83,196,20,285c-55,78-147,113-194,201c-49,91-26,232-96,306c-6,11-14,19-26,23c-9-22,18-34-21-37c-63-5-130-1-193,5c-109,12-115,86-163,174c-21,40-92,20-126,16c-34-4-75-16-107,3c-13,8-80,81-93,72c-24-36,41-104,69-117c70-34,98,31,167,31c88,0,89-127,123-179c35-55,89-98,151-81c10,2,39,8,28,26c-18,30,84,15,91,13c119-39,101-158,131-256c35-116,166-133,224-230c61-103-24-223-45-325c-14-69-15-143,9-210c9-24,21-48,38-68C3411,1000,3449,980,3434,1016 M3497,1120c-4,92,4,157,40,242c33,80,76,176,48,264c-28,91-111,153-160,232c-20,33-36,70-36,110c0,23,10,51,31,65c24,17,26-9,48-9c11,6,12,17,4,30c-19,57-101-2-115-31c-15-31-16-67-13-101c2-21,27-85,14-104c-38-26-60,176-59,187c4,73,40,123,116,132c69,7,100-18,113-90c2-18-15-107-44-101c5,0,10,1,15,2c13,2,33,19,44,37c88,155-200,277-274,99c-23-54-20-163,6-215c66-124,232-135,261-293c20-109-65-188-100-282c-16-42-8-95-2-138c3-23,32-162,66-162C3503,994,3497,1114,3497,1120 M3310,1025c0,109-27,192,7,302c6,19,108,279,27,270c-8-0-33-84-38-94c-29-59-69-112-97-172c-40-85-52-175-8-261C3228,1015,3310,982,3310,1025 M3119,1161c-10,67,14,135,46,193c5,10,98,153,90,157c-5,2-23-15-25-17c-27-24-27-24-18,33c1,8,9,36,1,44c-9,10-88-154-93-176c-18-77-33-174-13-253C3119,1093,3129,1106,3119,1161 M4060,1150c21,35-48-13-14-13C4051,1142,4056,1146,4060,1150 M2976,1264c-4,52-0,99,16,149c6,18,78,175,65,188c-13,13-96-153-101-169c-21-67-37-154-11-222C2968,1148,2982,1174,2976,1264 M3063,1337c17,98,108,210,101,308c2,6,1,9-3,11c-39-31-60-156-78-203c-29-69-71-171-49-249c0-8,3-16,8-22C3061,1201,3058,1309,3063,1337 M4038,1431c0,52,0,52-10,6c-5-24-14-66-18-91c-7-45-7-45,10-6C4032,1360,4040,1402,4038,1431 M3798,1662c9,40-10,58-37,36c-19-17-26-79-10-96C3763,1589,3788,1622,3798,1662 M2834,1738c12,41,75,91,120,91c23,0,131-84,130-86c17,17-35,85-47,96c-31,31-82,59-127,48c-42-9-78-44-96-82c-5-10-26-95,3-93C2826,1718,2832,1726,2834,1738 M3108,1982c-6,34-54,116-101,93c2,1,120-127,23-76c-38,20-85,8-126,7c-55-2-106,16-157,38c-35,14-30-22,7-57c57-54,167-43,239-58c25-5,48-12,68-29c27-23,44-57,49-3C3114,1919,3113,1958,3108,1982 M2770,1911c-25,16-77,80-107,78c-13-1,58-95,98-93C2792,1896,2793,1897,2770,1911 M4835,1965c7,36-14,49-47,26c-24-17-27-24-14-39C4794,1927,4829,1934,4835,1965 M2949,2178c-9,2-27,2-39,0C2882,2170,2965,2169,2949,2178 M3170,2287c162,105,301,257,433,397c109,115,199,115,354,113c101-1,203-2,304-9c76-5,97-27,137-92c20-32,129-268,194-215c42,33-130,297-152,341c-57,111-123,113-243,119c-134,6-275,26-409,7c-97-13-168-70-237-136c-133-127-261-262-390-395c-44-46-91-91-132-140c-16-19,50-24,59-26C3118,2246,3145,2270,3170,2287 M2972,2320c193,139,361,338,522,513c211,231,418,469,617,712c213,253,383,547,557,829c46,75,175,221,103,312c-25,32-35,70-64,101c-64,78-145-75-188-128c-43-53-92-103-140-153c-225-235-455-465-684-697c-232-236-474-463-734-670c-143-114-291-222-443-324c-24-16-327-206-303-234c32-37,107-69,153-85c59-20,103-68,160-94c77-35,166,45,235-18c36-33,46-91,89-117C2884,2245,2950,2304,2972,2320 M4824,2499c28,14,263,98,257,106c-95,118-231,197-323,322c-177,240-237,534-352,803c-26,61-26,61-65,15c-36-40-78-90-100-140c-20-46,14-119,29-164c43-139,96-275,154-409c50-119,107-234,170-347C4637,2605,4711,2443,4824,2499 M5308,2661c56,28,147,114,138,131c-31,46-130,32-172,67c-36,28-87,34-126,66c-114,94-212,212-303,329c-86,112-153,231-215,358c-31,65-63,130-91,197c-14,32-45,143-92,85c-18-21,5-77,12-99c24-83,51-166,80-248c48-136,108-271,171-401c56-117,131-218,223-310c60-59,124-116,188-172c35-30,72-74,118-43C5260,2633,5290,2651,5308,2661 M2117,2638c30,15,58,35,62,45c11,34-71,123-88,146c-59,80-117,161-173,243c-100,148-195,302-282,459c-74,136-138,277-208,416c-12,24-34,91-71,89c-143-14-260-40-399,12c-65,25-129,68-197,83c-48,10-32-65-30-92c24-354,320-541,543-774c65-68,132-138,186-216c46-68,70-145,125-210C1705,2700,1922,2544,2117,2638 M2286,2743c21,36-182,272-207,309c-96,142-185,288-267,439c-82,149-154,302-225,457c-10,23-55,160-96,154c-35-6-58-28-48-47c64-97,85-230,145-329c69-115,133-235,197-352c63-116,136-229,216-335C2028,3000,2238,2670,2286,2743 M2336,2837c13,58,90,238,47,291c-49,65-181,40-237,96c-43,32,46,235,26,291c-37,74-189,44-233,116c-47,78,44,198,17,280c-30,70-190,35-208,126c-6,32,46,260-30,185c-32-33-77-245-57-276c43-65,205-32,204-123c-0-55-54-221-14-266c49-57,163-47,223-96c78-64-65-199-5-272c37-46,285-57,239-142c-18-37-38-97-36-139C2272,2881,2323,2757,2336,2837 M2475,2867c29,22,82,42,76,85c-6,42-21,84-35,125c-57,171-122,343-196,509c-60,133-122,267-196,394c-37,64-188,408-270,326c-44-44-98-202-62-260c43-71,201-33,203-137c1-69-36-202,6-264s179-37,214-105c42-66-36-179-21-254c18-90,285-67,249-174c-21-78-34-161-50-241C2376,2788,2434,2836,2475,2867 M5570,2967c54,68,126,140,163,221c27,59-70-29-76-36c-66-83-139-177-185-274C5433,2797,5562,2957,5570,2967 M5436,2961c-1,31-13,87,19,108c40,25,95,26,131,57c33,29,18,103,20,142c0,16,34,167-17,148c-53-13,2-224-49-266c-80-64-161-24-148-151c3-35-0-105,24-135C5439,2838,5436,2956,5436,2961 M5362,3020c1,28-5,81,17,104c33,32,95,25,133,52c32,27,15,136,16,172c0,14,9,138,28,138c-50,0-135-197-153-229c-29-51-64-102-69-162c-1-22,12-179,12-179C5366,2931,5361,3000,5362,3020 M5276,2995c-8,77,32,231-67,259c-43,12-137-160-100-201c33-39,150-114,163-107C5276,2950,5278,2971,5276,2995 M2567,3162c-66,225-149,445-243,660c-49,114-102,226-157,338c-33,68-70,188-129,240c-22,19-84,3-84-31c0-28,28-67,41-90c32-59,71-113,104-172c77-136,149-275,218-415c46-93,82-192,121-289c31-78,62-157,92-237c8-23,75-189,82-181C2617,2986,2596,3067,2567,3162 M4367,3003c0,71-58,165-82,232c-16,46-32,93-48,141c-12,37-24,113-53,142c-21,24-140-147-149-161c-22-34-1-35,13-65c22-49-38-112-78-60c-26,37-177-147-200-175c-27-32-37-47,9-53C3842,2995,4367,2983,4367,3003 M2874,3180c79,75,92,220,114,319c38,168,77,337,103,508c28,189,47,381,65,572c9,103,19,206,22,310c1,49,21,138-48,132c-92-7-67-226-72-288c-18-203-43-407-76-609c-32-202-82-401-137-598c-26-93-54-186-87-277c-20-56-86-149-86-207C2671,3044,2855,3163,2874,3180 M2702,3269c150,374,214,793,263,1192c13,108,24,216,34,325c4,44,18,104,6,149c-8,29-47,4-50-17c-7-43-62-41-62-88c0-11-32-88-44-49c-8,21-2,53-13,72c2-5-6-62-6-67c-0-6-11-156-31-137c-38,37-7,112-29,155c8-16-4-84-4-103c-0-39,9-119-13-155c-22-35-40,1-43,87c-0,5-5,36-2,42c-19-43-9-119-11-166c-1-33-14-110,8-139c32-41,31-112,33-173c7-160,9-322,4-482c-0-14-16-187-57-107c-30,56,0,129-6,189c-2,22-12,11-26,23c-12,11-30,93-25,96c-5-4-25-42-35-27c-9,15-14,66-42,43c-36-30-23,87-39,83c-6-5-10-11-13-19c-1-13-7-20-18-21c-12,12-8,42-34,21c-33-27-30,43-28,54c9,64,51,15,41-21c1,6,2,13,3,19c2,18,5,91,36,91c33,0,14,79,23,97c7,13,28-0,38,2c16,4,8,43,11,55c8,29,91,26,53,84c-27,44-103,138-110,139c19,0-3-112-15-129c-22-33-52-74-89-93c-60-33,8,197-36,197c-4,0-46-266-53-45c-1,35-4,50-7,32c-1-7-23-126-37-70c-9,36-21,110-10,146c-5-16-4-39-6-55c-5-44-14-79-23-83c-28-7-6,43-26,45c-12-3-24-4-36-3c-20,6-19,26-44,25c-83-2,4-129,19-161c77-161,153-322,224-486c62-143,119-288,174-434c22-59,44-118,64-178c3-10,18-89,27-93C2646,3125,2699,3260,2702,3269 M5081,3207c15,24,41,167,73,163c35-4,122-114,145-39c14,45-90,132-113,173c-54,95-82,193-108,299c-30,123-62,247-89,372c-18,81-18,230-76,294c-22,27-22,27-15-5c46-224,83-451,123-677c24-138,46-275,34-417c-4-56-20-98-38-150C4984,3132,5048,3147,5081,3207 M5419,3356c78,142,103,199,82,193c-35-12-189-298-166-320C5344,3220,5416,3350,5419,3356 M4975,3298c44,111,15,261-4,375c-14,82-29,164-43,247c-7,43-7,132-34,169c-23,41-149-64-146-85c10-79,25-158,39-236c17-97,34-195,53-293C4849,3425,4919,3163,4975,3298 M3186,3437c102,86,184,152,215,284c37,163,65,329,92,494c17,106,150,811,56,827c-31,6-234,5-288-1c-28-6-28-293-31-327c-14-170-34-340-56-510c-17-135-34-271-61-405c-15-76-33-152-50-228c-12-54-24-109-35-164c-4-21-30-89-15-111C3014,3292,3176,3429,3186,3437 M5392,3487c47,92,8,67-37,153c-24,45-62,81-87,126c-19,33-5,75-2,112c4,71-57,143-93,198c-29,45-59,91-93,133c-3,4-34,40-27,13c45-166,70-336,121-502c19-62,36-130,68-188c20-37,52-73,86-98C5367,3405,5375,3453,5392,3487 M4714,3801c-24,146-48,293-53,328c-1,9-3,46-15,53c-25,15,66-682,108-655C4756,3532,4739,3655,4714,3801 M5463,3622c0,53-87,168-131,195c-21,12-23-19-20-30c11-38,42-66,67-96C5392,3675,5463,3536,5463,3622 M3602,3803c66,76,80,154,93,250c18,138,31,277,42,417c8,115,17,231,27,347c6,69,41,248-77,223c-53-10-54-62-60-109c-18-153-27-308-48-462c-21-161-45-323-74-483c-12-70-27-139-34-210c-3-39-23-106,31-68C3525,3723,3570,3766,3602,3803 M4584,3959c-13,107-24,129-45,78c-13-30,10-159,48-159C4592,3878,4584,3957,4584,3959 M3873,4163c-15,44-14,57,5,99c28,58,45,58,77,1c35-61,55-43,90,12c17,28,24,54,28,86c9,79,13,160,17,240c4,94,8,188,8,282c0,25,14,124-7,144c-10,9-233,22-254,14c-35-15-28-129-31-157c-23-268-26-540-66-807c-22-137-20-138,67-49C3889,4112,3889,4112,3873,4163 M4165,4400c47,95,26,252,28,354c0,18-4,293-29,269c-7-9-43-493-44-614C4119,4351,4137,4347,4165,4400 M1979,4479c0,28-194,79-224,92c-88,38-174,83-254,137c-109,73-201,170-290,266c-225,240-334,588-430,897c-26,86-53,172-75,260c-12,47-14,98-33,143c-45,108-69,227-94,342c-39,183-81,366-123,549c-18,86-37,173-50,261c-5,37-23,139-55,55c-14-39-0-100,4-139c7-76,18-153,32-229c28-154,61-311,102-463c93-346,179-696,296-1036c100-289,227-591,452-806c104-99,244-156,363-234c68-44,135-71,213-93C1831,4476,1979,4449,1979,4479 M2654,4594c-2,18,1-83-1-88C2663,4526,2657,4571,2654,4594 M4307,4540c32,34,76,68,62,118c-13,49-54,96-41,149c4,18,41,147,64,119c40-50,56-116,49-179c-7-66-7-66,36-18c56,60,67,182,36,259c-12,30-46,34-75,37c-37,2-168,25-194-0c-34-43-4-546-9-546C4256,4479,4295,4528,4307,4540 M2112,4612c30,85-79,84-122,76c-55-10-135-45-172,15c-22,37-36,119-89,126c-54,6-152-47-197-12c-52,45,1,166-44,212c-40,40-153,27-207,52c-44,20-36,66-36,110c-0,97,16,160-72,210c-41,23-145,55-148,115c-4,71,45,140,45,212c-9,91-197,89-176,197c17,114,89,184-6,276c-32,30-102,75-105,125c-3,62,46,127,61,186c25,70-191,144-172,251c12,71,60,144,60,216c0,56-88,87-121,118c-105,99,126,256-1,355c-52,40-128,71-103,149c18,57,104,163,46,217c-51,47-35-74-48-108c-20-50-44-99-62-150c-16-46,9-64,44-95c32-28,73-54,98-90c15-22-15-72-23-93c-17-45-61-118-48-167c29-111,172-96,145-224c-11-53-72-185-27-229c45-43,112-81,146-135c44-76-117-202-24-267c22-15,64-50,95-79c81-74,30-157,1-252c-44-139,109-105,154-207c25-76-48-166-30-245c14-54,111-94,153-123c54-36,62-72,63-136c0-50-14-141,33-177c57-44,153-19,208-66c56-42-5-178,77-197c67-15,191,27,243-29c45-49,51-149,137-135c48,7,96,30,146,29C2057,4642,2102,4577,2112,4612 M2595,4799c25,54,77,136,71,199c-5,57-28,114-46,168c-32,93-67,186-102,279c-22,59-30,85-67,14c-43-81-63-170-102-253c-13-29-34-57-44-88c-11-36,9-76,13-112c9-85,64-130,97-206c15-35,32-161,96-149C2520,4654,2560,4719,2595,4799 M2188,4709c16,43,18,41-19,33c-37-6-50-22-40-48C2139,4663,2175,4672,2188,4709 M1963,4723c58,10,62,24,13,50c-259,131-430,372-565,624c-142,266-273,545-367,833c-103,318-185,644-255,972c-32,150-61,302-84,454c-8,57-16,114-21,172c-4,48,4,167-26,208c-15,15-37-40-38-47c-6-30,2-39-34-51c-104-36,37-99,24-148c-18-66-57-130-67-199c-8-60,52-87,95-114c118-76-9-216-19-324c-4-42,81-78,109-102c40-34,29-82,18-128c-12-56-43-126-33-185c10-59,86-104,125-142c39-39,45-67,26-119c-11-33-61-115-38-151c54-85,182-114,155-231c-6-28-72-186-52-203c54-43,137-78,179-134c20-34-29-146-37-182c-8-36-9-56,18-82c52-48,131-63,180-112c27-22,8-129,8-159c-0-31-5-80,18-105c54-54,166-11,224-62c35-30,9-113,23-155c15-45,82-38,119-38c51,0,98,3,137-35c24-24,52-131,100-114C1911,4712,1940,4719,1963,4723 M2173,4802c121,60-31,42-81,46c-71,6-136,37-193,79c-179,134-296,352-399,546c-289,542-469,1125-589,1726c-45,226-85,455-100,686c-6,97,2,197-11,294c-6,42-46-16-55-30c-28-43-38-89-40-140c-9-268,60-538,116-798c47-219,103-433,167-648c110-372,230-741,420-1082c95-172,204-350,347-488C1851,4898,2025,4722,2173,4802 M4602,4924c0,115-75-13-31-57C4589,4850,4602,4874,4602,4924 M2159,4906c2,9-128,64-143,73c-79,49-154,107-222,172c-71,70-90,57-35-24c99-151,238-249,343-241C2130,4889,2155,4898,2159,4906 M2192,4980c10,10,18,32,16,48c-2,39-57,31-84,36c-41,8-71,25-104,50c-69,52-145,107-203,172c-21,24-23,30,4,48c27,18,43,63,1,75c-20,7-39-1-73-36c-104-101,106-230,178-290C1976,5043,2120,4910,2192,4980 M2250,5122c94,85,130,258,166,373c38,120,4,174-50,284c-85,172-168,346-260,514c-26,49-50,92-102,116c-39,18-86,39-123,4c-14-13-101-135-80-146c19-10,59,38,72,47c34,26,66,4,99-13c52-29,95-119,101-180c6-62-31-139-50-196c-41-131-130-302-105-443c12-68,41-51-20-115c-58-59-6-105,42-151C2078,5081,2176,5052,2250,5122 M4328,5360c-6,17-62,131-80,88c-10-27-19-81,5-105C4276,5319,4347,5311,4328,5360 M4186,5387c16,65,28,168-19,223c-31,36-31,7-33-29c-3-63-20-155,2-217C4149,5329,4177,5340,4186,5387 M4072,5374c31,92,12,236,5,332c-5,70-65,105-83,151c20-61,19-83-5-122c-30-50-52-45-83,17c-20,45-8,141,43,167c24,15-126,236-147,254c-16,13-20-196-20-210c-0-126-0-253,1-380c0-48-16-155,8-200C3816,5343,4058,5340,4072,5374 M3722,5394c17,28,4,107,4,138c1,108,2,216,2,324c0,70,54,515-81,515c-15,0-5-448-4-479c2-111,4-223,9-334c1-35-10-131,12-161C3682,5376,3711,5374,3722,5394 M1681,5428c26,26,25,82,50,101c14,11,53-24,56-17c14,29,5,83,5,114c-0,65-2,131-5,196c-1,34,6,101-12,132c-20,34-25-39-25-48c-3-77,8-155,5-232c-3-85-40,37-45,60c-11,47-16,48-35,5c-11-26-44-80-3-97c26-10,101-54,33-74c-14-4-78-7-78,20c0,40-58-19-62-21c-29-14-66,6-46-36c16-35,36-71,59-103C1608,5383,1634,5383,1681,5428 M3589,5945c-0,154,2,308-4,462c-1,35,1,82-22,113c-190,246-341,526-522,780c-32,45-36,40-64-18c-32-73-25-173-17-251c13-133,52-267,79-398c42-205,87-410,127-616c34-178,48-366,93-542c25-93,204-77,285-77C3591,5399,3591,5399,3589,5945 M3181,5648c-60,380-135,758-216,1134c-22,102-60,208-68,313c-4,64-8,136,8,198c19,70,78,87,40,160c-32,61-56,64-107,9c-107-114-192-366-116-516c62-122,94-266,131-398c56-204,107-411,153-618c22-99,42-200,60-300c9-53,15-189,90-201C3206,5421,3210,5455,3181,5648 M3049,5467c-29,293-119,592-190,878c-64,260-124,554-307,761c-122,138-259,174-385,101c-43-24-74-54-88-83c-61-130,1-318,51-441c47-117,101-231,149-348c119-290,259-571,402-850C2713,5429,3049,5436,3049,5467 M2618,5486c0,48-54,110-76,152c-30,58-59,118-87,178c-61,135-122,269-184,404c-88,193-180,387-237,592c-81,285,23,486,253,489c94,0,189-44,261-102c71-57,104-131,135-5c24,103-1,38-52,96c-37,41-104,65-156,83c-153,52-318,64-463-24c-123-76-152-238-148-371c4-133,98-263,155-379c101-207,185-421,291-626c76-146,148-296,228-441C2535,5538,2618,5418,2618,5486 M1560,5635c2,2-1,19-9,37c-1,3-23,46-37,29c-0-0-28-69-31-20c-1,29-17,110,9,134c31,28,54-33,59,41c9,105,54-34,110-32c70,2,42,176,41,216c-0,129-3,259-1,389c0,17-10,150,9,161c10,4,21-141,21-149c0-7,12-132,30-84c7,28,3,266,26,266c12-9,17-22,16-39c0-5,20-128,34-80c10,33-11,128,18,149c34,23,28-102,32-114c17-58,34,55,34,61c0,99-51,163-96,244c-61,109-119,220-177,332c-130,251-251,509-404,747c-22,34,13,108-37,43c-26-33-88,64-98,77c-12,16-72,74-44,97c24,20,47,140,68,78c3-13,18-33,31-45c32-28,102,15,114,52c9,28-87,74-176,83c-155,15-232-27-264-147c-36-130-2-297,13-428c11-93,26-186,46-278c8-41,2-203,65-191c120,21-26,123-42,177c-7,25,31,20,41,37c9,16,2,127,17,127c25,0,52-90,65-109c16-22,31,4,51,4c35,0-15-174-2-197c18-25,72,3,91-24c18-30-191-72-228-77c-33-5,4-88,12-102c26-46,38-65,40-123c1-150,33-167,40-22c3,62,6,67,19,44c29-49,20-145,23-201c3-70-13-194,18-259c5-7,22-10,37-5c46,10,17,121,39,121c31,0,39-86,77-93c23-4,51,12,45-24c-10-63-64-149,24-159c47-3,52-2,45,22c-10,41-13,319-2,329c27,27,33-171,33-182c0-61,9-139-27-193c-27-39-96-22-86-73c16-85-45-37-64-88c-10-24,35-155,53-156c28,0,5,132,26,147c25,25,32-145,32-154c0-18-10-182,27-182c12,0,8,368,11,404c6,99,35-34,37-63c8-141,4-282,8-424c1-41-0-85,18-122C1471,5612,1537,5612,1560,5635 M1861,5831c0,83-4,111-15,107c-18-6-30-151-17-203C1844,5673,1861,5724,1861,5831 M1885,6071c62,82,121-47,144-2c22,41-15,103-67,110c-36,6-47,0-83-40C1840,6095,1820,5979,1885,6071 M1864,6183c22,51,133,6,125,60c-2,18-17,34-37,41c-80,28-150-85-171-144C1749,6053,1852,6154,1864,6183 M1209,6396c0,23-37,92-65,92c-17,0,14-97,28-105C1198,6366,1209,6369,1209,6396 M1803,7102c9,15-32,18-32,0C1770,7081,1797,7090,1803,7102 M1822,7231c36,5,65,81,87,106c42,48,98,83,158,105c66,25,137,36,208,34c54-2,107-13,157,12c42,24,25,36,29,75c6,49,56,38,90,49c31,9,51,56,93,44c11-6,22-13,34-18c23,0,31,29,59,16c-6,3,132-170,134-79c1,44-75,156-128,143c-206-47-418-113-612-201c-103-46-205-96-306-147c-38-19-177-62-161-122C1679,7226,1722,7221,1822,7231 M1908,7443c259,124,521,241,805,304c39,9,44,23,15,47c-25,19-72-56-113-31c-30,20,18,87-20,107c-20,10-53-77-60-88c-47-81-140-94-228-90c-12,0-73,23-76,20c-23-37,2-86-69-86c-43,0-70-50-115-37c-29,8-9,80-34,102c-40,31-45-55-53-82c-14-46-32-96-69-130c-36-32-95-63-143-71c-31-5-128,35-147,6c-25-41,34-94,73-78C1752,7367,1830,7405,1908,7443 M2631,7422c0,52,55-29,72-15c4,12,1,23-6,34c-24,49-123,15-97-24C2610,7396,2631,7400,2631,7422 M2540,7427c0,17-37,45-48,36C2473,7443,2540,7396,2540,7427 M1830,7467c121,88,106,513,349,325c64-53,160-114,245-54c54,38,80,86,106,146c6,14,80,154,34,126c-45-21-71-136-97-177c-26-43-60-66-111-72c-95-13-139,75-212,112c-94,47-166,21-212-73c-47-97-30-225-137-287c-39-23-87-28-132-18c-15,3-115,59-123,48c-26-26,102-90,116-94C1710,7431,1783,7432,1830,7467 M2767,7474c8,23-20,14-26,32c-8,23,6,65-11,83c-13,13-25-53-24-45C2691,7480,2745,7418,2767,7474 M2579,7508c0,73-104,76-43,9C2560,7491,2579,7486,2579,7508 M2657,7551c0,23-9,50-19,60c-15,13-19,9-26-17C2599,7548,2657,7461,2657,7551 M1788,7553c39,35,44,65,13,77c-39,15-72-60-116-57c-50,2-44,82-73,114c-30,32-22,66,23,73c36,6,130,38,161,21c22-11,39-54,13-71c-32-19,5-42,26-27c46,31,57,130,93,176c30,39,72,61,122,65c29,2,61,2,88-11c35-17,69-70,113-63c107,14-142,67-22,114c17,6,36,28,44,50c36,100,83-33,129-44c94-21-102-104-31-127c64-22,96,81,116,122c37,75,76,97,16,171c-51,63-259-35-322-54c-151-47-301-98-446-162c-85-37-245-82-307-157C1339,7657,1685,7457,1788,7553 M2121,7754c14,9,10,15-17,34c-64,44-103-35-14-44C2098,7743,2111,7747,2121,7754 M1561,7874c144,70,293,139,447,187c29,9,444,119,436,143c-26,85-1003-260-1059-357c-10-17,2-56,16-49C1407,7799,1479,7835,1561,7874 M1482,7952c157,75,320,142,486,198c79,27,159,50,241,71c53,13,127,21,175,49c20,11,11,36-33,99c-56,77-118,41-201,18c-91-25-181-53-270-85c-129-45-258-94-385-146c-67-27-213-52-201-143c3-26,23-116,62-116C1392,7899,1448,7937,1482,7952 M2657,7906c0,4-6,19-15,35c-14,27-14,27-23,2c-5-14-7-30-3-36C2621,7897,2657,7895,2657,7906 M1431,8164c226,94,457,173,689,252c10,3,152,61,144,66c-37,22-133-15-170-24c-62-15-881-243-840-345c4-11,15-18,24-14C1286,8102,1355,8131,1431,8164 M1959,8487c10,12-22,11-18,33c12,55,60,106,90,151c5,7,67,87,47,99c-20,12-59-63-66-76c-26-51-67-95-102-146c-13-19-50-59-50-84C1861,8452,1951,8479,1959,8487"/>
<path d="M3977,362c-35,44-15,83,31,38C4061,349,4028,296,3977,362"/>
<path d="M4581,992c-14,15-64,11-84,17c-44,12-87,30-128,53c-14,7-181,131-112,159c9,3,37-72,46-83c37-42,96-66,149-81c75-21,165-14,242-10c25,1,200,33,115-16C4782,1013,4613,961,4581,992"/>
<path d="M4648,1127c-51,19-95,58-140,88c-39,26-93,34-128,64c-37,29-0,61,18,96c13,26,82,71,49,11c-32-62,74-3,101-0c62,7,69-4,96,43c22,38,52-107,53-113c8-54,57-106,47-160C4738,1113,4710,1105,4648,1127 M4594,1217c-6,7-96,70-96,53c0-23,87-80,109-80C4611,1201,4607,1210,4594,1217 M4667,1281c0,5-1,9-5,13c-6-2-11-6-14-13C4639,1263,4667,1265,4667,1281 M4616,1315c31,39-50,72-79,37c-13-15-13-23,0-39C4558,1287,4594,1289,4616,1315"/>
<path d="M2475,2932c-13,15-13,23,0,39c20,24,32,24,58-2c20-20,20-22-1-39C2502,2907,2494,2909,2475,2932"/>
<path d="M2279,3350c0,50,49,30,62-1C2356,3313,2279,3300,2279,3350"/>
<path d="M2105,3705c-16,15-9,57,11,65c26,9,58-28,48-56C2159,3696,2120,3689,2105,3705"/>
<path d="M1878,4121c-7,22,18,47,41,40c7-2,14-17,17-32C1944,4090,1891,4093,1878,4121"/>
<path d="M5432,3224c-4,5,0,19,9,31c19,27,56,7,44-22C5477,3211,5444,3205,5432,3224"/>
<path d="M4201,3026c-42,12-11,85,17,95c39,15,52,10,60-23C4294,3042,4254,3004,4201,3026"/>
<path d="M3884,3048c-24,31-10,79,24,83C4006,3147,3950,2971,3884,3048"/>
<path d="M4033,3048c-3,10-5,32-2,49c4,41,76,43,83,3c2-13,13-57-3-67C4094,3023,4041,3027,4033,3048"/>
<path d="M4140,3221c-32,32-15,83,32,83c40,0,54-82,16-96C4162,3197,4164,3197,4140,3221"/>
<path d="M3886,4440c-35,61-25,130,32,179c18,15,39-43,42-53c19-50,17-88-16-132C3913,4395,3913,4395,3886,4440"/>
<path d="M3904,4727c-26,49-24,69,6,130c27,53,44,63,56,35c14-29,48-82,37-116C3987,4723,3941,4656,3904,4727"/>
<path d="M1874,4761c0,11,6,18,15,15C1944,4758,1874,4717,1874,4761"/>
<path d="M1602,4941c-11,13-10,20,3,33C1667,5023,1662,4871,1602,4941"/>
<path d="M1367,5202c-39,46,57,68,48,18C1410,5185,1388,5177,1367,5202"/>
<path d="M1171,5541c-11,13-10,21,5,34c16,14,24,14,41-2C1254,5534,1197,5506,1171,5541"/>
<path d="M1022,5920c-11,28,23,52,43,28c7-11,11-26,6-34C1060,5895,1030,5899,1022,5920"/>
<path d="M896,6326c-30,36,28,60,52,31C976,6322,922,6293,896,6326"/>
<path d="M794,6727c-66,66,90,56,34,2C813,6715,807,6713,794,6727"/>
<path d="M679,7182c-10,18,14,43,32,32C735,7200,704,7144,679,7182"/>
<path d="M1940,5287c0,26,22,48,35,36c10-11-6-61-23-61C1942,5267,1938,5276,1940,5287"/>
<path d="M3903,5441c-17,40-18,56-3,97c22,69,48,88,71,56c30-40,35-103,13-154C3959,5379,3927,5379,3903,5441"/>
<path d="M1587,5479c-15,40,5,87,35,81C1713,5544,1629,5365,1587,5479"/>
<path d="M1484,5868c-22,28-13,108-15,140c-6,127-8,254-10,381c-1,78-4,157-0,236c0,6,0,46,15,32c47-47,24-219,26-275c1-34,13-533,6-533C1497,5853,1490,5859,1484,5868"/>
<path d="M1627,6257c0,194,5,323,11,315c15-15,9-81,10-101c4-75,7-151,10-227c2-95,19-204,0-299c-5-27-22-14-26,5C1616,6049,1627,6157,1627,6257"/>
<path d="M1555,5955c-18,26-8,101-9,131c-4,102-6,205-8,307c-0,16,8,206,12,202c51-48,31-236,33-296c3-98,6-197,1-295C1584,5989,1580,5912,1555,5955"/>
<path d="M1140,6647c-8,32-11,291,9,284c35-10,24-121,24-145C1174,6771,1159,6576,1140,6647"/>
<path d="M1551,6644c-22,13-32,82-15,105c11,17,16,15,39-11C1594,6714,1609,6608,1551,6644"/>
<path d="M1295,6700c-2,15-15,102,18,102C1366,6802,1317,6561,1295,6700"/>
<path d="M1223,6702c-20,52-19,169,2,163c23-7,41-134,26-171C1238,6665,1238,6665,1223,6702"/>
<path d="M1422,6758c-25,68,149,48,80-3C1470,6730,1432,6732,1422,6758"/>
<path d="M1583,6772c-47,35,45,81,82,36c13-15,10-20-19-32C1606,6760,1595,6760,1583,6772"/>
<path d="M1500,6850c-26,42-121,131-121,180c0,13,74-7,77,33c3,47,9,121,46,36c22-49,30-68,77-42c33,18,9-89,7-96C1560,6809,1542,6785,1500,6850"/>
<path d="M1065,7127c-15,31-17,75-1,84c39,24,84-52,53-90C1095,7096,1082,7097,1065,7127"/>
<path d="M171,5600c-27,82-15,172-17,258c-1,70-31,137-25,207c0-1,2,48,7,43c22-19,30-75,39-102c19-55,39-109,59-164c25-69,66-216,15-284C221,5519,195,5532,171,5600"/>
</g>
<g id="jack_diamond">
<use x="790" y="123" xlink:href="#cf"/>
<use x="1" y="122.5" xlink:href="#itj" stroke="#DF0000"/>
<use x="-1" y="123.5" xlink:href="#ibj" stroke="#DF0000"/>
<use transform="translate(798.5,147.5)" xlink:href="#ds"/>
<use transform="translate(860.5,221.5)" xlink:href="#ds"/>
<use transform="translate(790,123) scale(.01)" xlink:href="#jackdiamonds"/>
<use transform="translate(869,246) scale(.01) rotate(180)" xlink:href="#jackdiamonds"/>
<use x="790" y="123" xlink:href="#cfo"/>
<use transform="translate(829.25,184.25) rotate(33.1)" xlink:href="#bar2"/>
</g>
<g id="back">
<use x="158" y="492" xlink:href="#cf"/>
<g id="cardback">
<path fill="#21215E" d="M232.75,606.497c0,2.626-2.036,4.753-4.548,4.753H166.799c-2.512,0-4.549-2.127-4.549-4.753V500.502c0-2.625,2.037-4.752,4.549-4.752h61.403c2.512,0,4.548,2.127,4.548,4.752V606.497z"/>
<rect x="184.75" y="520.25" fill="#FFFFFF" width="25.5" height="66.5"/>
<rect x="181.5" y="516.75" fill="none" stroke="#FFFFFF" stroke-width="0.75" width="32" height="73.5"/>
<rect x="165.5" y="499.5" fill="none" stroke="#FFFFFF" stroke-width="0.75" width="64" height="108"/>
<use x="166" y="500" xlink:href="#bart"/>
<use x="166" y="518" xlink:href="#bart"/>
<use x="166" y="536.1" xlink:href="#bart"/>
<use x="166" y="554.4" xlink:href="#bart"/>
<use x="166" y="572.5" xlink:href="#bart"/>
<use x="166" y="590.5" xlink:href="#bart"/>
<use x="182" y="500" xlink:href="#bart"/>
<use x="182" y="590.5" xlink:href="#bart"/>
<use x="198" y="500" xlink:href="#bart"/>
<use x="198" y="590.5" xlink:href="#bart"/>
<use x="214" y="500" xlink:href="#bart"/>
<use x="214" y="518" xlink:href="#bart"/>
<use x="214" y="536.1" xlink:href="#bart"/>
<use x="214" y="554.4" xlink:href="#bart"/>
<use x="214" y="572.5" xlink:href="#bart"/>
<use x="214" y="590.5" xlink:href="#bart"/>
<use transform="translate(185.5,521) scale(.01)" xlink:href="#bart_in"/>
<use transform="translate(209.5,586) scale(.01) rotate(180)" xlink:href="#bart_in"/>
</g>
</g>
</defs>
<g transform="translate(39.5,0) scale(1.4)">
<use transform="translate(-126,-492)" xlink:href="#back"/>
<use transform="translate(-158,-462)" xlink:href="#back"/>
<use transform="translate(-742,-63)" xlink:href="#jack_diamond"/>
</g>
</svg>
