/* XPM */
static char * _10diamond_xpm[] = {
"80 108 35 1",
" 	c #FFFFFFFFFFFF",
".	c #FFFFFBEEFFFF",
"X	c #A699A699A699",
"o	c #861782078617",
"O	c #C71BC30BC71B",
"+	c #EFBEEFBEEFBE",
"@	c #BEFBBEFBBEFB",
"#	c #E79DCF3CCF3C",
"$	c #F7DE92489658",
"%	c #E79D20812081",
"&	c #EFBE59655965",
"*	c #EFBE75D671C6",
"=	c #EFBE3CF338E3",
"-	c #FFFFE38DE79D",
";	c #E79DE79DE79D",
":	c #A699A289A699",
">	c #EFBEBAEABEFB",
",	c #E79D04100000",
"<	c #FFFFCB2BCF3C",
"1	c #F7DEAEBAAEBA",
"2	c #F7DE86178617",
"3	c #E79D0C300820",
"4	c #F7DEC71BC71B",
"5	c #F7DEAAAAAEBA",
"6	c #F7DEF3CEF7DE",
"7	c #D75C86178617",
"8	c #DF7D86178617",
"9	c #E79D1C711861",
"0	c #CF3CBAEABEFB",
"q	c #E79D18611861",
"w	c #BEFB82078617",
"e	c #E79D10401040",
"r	c #C71B45144103",
"t	c #C71B41034103",
"y	c #E79DE38DE79D",
"  .XooooooooooooooooooooooooooooooooooooooooooooooooooooooooooooooooooooooooX   ",
" .O+                                                                        +O. ",
" @#$%&     *%=&-                                                             ;@ ",
":>%&,&    &=  ==                                                              +:",
"o   ,&   <,1  1,<                                                              o",
"o   ,&   *,-   ,*                                                              o",
"o   ,&   &,    ,&                                                              o",
"o   ,&   &,    ,&   22                                    22                   o",
"o   ,&   &,    ,&  2332                                  2332                  o",
"o   ,&   1,<  <,$  3,,3                                  3,,3                  o",
"o   ,&   -,*  $,-  ,,,,                                  ,,,,                  o",
"o 4$,%5-  5,$5%1  =,,,,=                                =,,,,=                 o",
"o <1111-   -$$<   ,,,,,,                                ,,,,,,                 o",
"o    6786        9,,,,,,9                              9,,,,,,9                o",
"o    0qq0       3,,,,,,,,3                            3,,,,,,,,3               o",
"o    w,,w      3,,,,,,,,,,3                          3,,,,,,,,,,3              o",
"o    e,,e      3,,,,,,,,,,3                          3,,,,,,,,,,3              o",
"o  ;r,,,,r;     3,,,,,,,,3                            3,,,,,,,,3               o",
"o  t,,,,,,t      9,,,,,,9                              9,,,,,,9                o",
"o  t,,,,,,t       ,,,,,,               22               ,,,,,,                 o",
"o  yr,,,,r;       =,,,,=              2332              =,,,,=                 o",
"o    e,,e          ,,,,               3,,3               ,,,,                  o",
"o    w,,w          3,,3               ,,,,               3,,3                  o",
"o    0qq0          2332              =,,,,=              2332                  o",
"o    6886           22               ,,,,,,               22                   o",
"o                                   9,,,,,,9                                   o",
"o                                  3,,,,,,,,3                                  o",
"o                                 3,,,,,,,,,,3                                 o",
"o                                 3,,,,,,,,,,3                                 o",
"o                                  3,,,,,,,,3                                  o",
"o                   22              9,,,,,,9              22                   o",
"o                  2332              ,,,,,,              2332                  o",
"o                  3,,3              =,,,,=              3,,3                  o",
"o                  ,,,,               ,,,,               ,,,,                  o",
"o                 =,,,,=              3,,3              =,,,,=                 o",
"o                 ,,,,,,              2332              ,,,,,,                 o",
"o                9,,,,,,9              22              9,,,,,,9                o",
"o               3,,,,,,,,3                            3,,,,,,,,3               o",
"o              3,,,,,,,,,,3                          3,,,,,,,,,,3              o",
"o              3,,,,,,,,,,3                          3,,,,,,,,,,3              o",
"o               3,,,,,,,,3                            3,,,,,,,,3               o",
"o                9,,,,,,9                              9,,,,,,9                o",
"o                 ,,,,,,                                ,,,,,,                 o",
"o                 =,,,,=                                =,,,,=                 o",
"o                  ,,,,                                  ,,,,                  o",
"o                  3,,3                                  3,,3                  o",
"o                  2332                                  2332                  o",
"o                   22                                    22                   o",
"o                                                                              o",
"o                                                                              o",
"o                                                                              o",
"o                                                                              o",
"o                                                                              o",
"o                                                                              o",
"o                                                                              o",
"o                                                                              o",
"o                                                                              o",
"o                                                                              o",
"o                                                                              o",
"o                                                                              o",
"o                   22                                    22                   o",
"o                  2332                                  2332                  o",
"o                  3,,3                                  3,,3                  o",
"o                  ,,,,                                  ,,,,                  o",
"o                 =,,,,=                                =,,,,=                 o",
"o                 ,,,,,,                                ,,,,,,                 o",
"o                9,,,,,,9                              9,,,,,,9                o",
"o               3,,,,,,,,3                            3,,,,,,,,3               o",
"o              3,,,,,,,,,,3                          3,,,,,,,,,,3              o",
"o              3,,,,,,,,,,3                          3,,,,,,,,,,3              o",
"o               3,,,,,,,,3                            3,,,,,,,,3               o",
"o                9,,,,,,9              22              9,,,,,,9                o",
"o                 ,,,,,,              2332              ,,,,,,                 o",
"o                 =,,,,=              3,,3              =,,,,=                 o",
"o                  ,,,,               ,,,,               ,,,,                  o",
"o                  3,,3              =,,,,=              3,,3                  o",
"o                  2332              ,,,,,,              2332                  o",
"o                   22              9,,,,,,9              22                   o",
"o                                  3,,,,,,,,3                                  o",
"o                                 3,,,,,,,,,,3                                 o",
"o                                 3,,,,,,,,,,3                                 o",
"o                                  3,,,,,,,,3                                  o",
"o                                   9,,,,,,9                                   o",
"o                   22               ,,,,,,               22           6886    o",
"o                  2332              =,,,,=              2332          0qq0    o",
"o                  3,,3               ,,,,               3,,3          w,,w    o",
"o                  ,,,,               3,,3               ,,,,          e,,e    o",
"o                 =,,,,=              2332              =,,,,=       yr,,,,r;  o",
"o                 ,,,,,,               22               ,,,,,,       t,,,,,,t  o",
"o                9,,,,,,9                              9,,,,,,9      t,,,,,,t  o",
"o               3,,,,,,,,3                            3,,,,,,,,3     ;r,,,,r;  o",
"o              3,,,,,,,,,,3                          3,,,,,,,,,,3      e,,e    o",
"o              3,,,,,,,,,,3                          3,,,,,,,,,,3      w,,w    o",
"o               3,,,,,,,,3                            3,,,,,,,,3       0qq0    o",
"o                9,,,,,,9                              9,,,,,,9        6876    o",
"o                 ,,,,,,                                ,,,,,,   4$$-   -51114 o",
"o                 =,,,,=                                =,,,,=  1%1$,1  -1%,$< o",
"o                  ,,,,                                  ,,,,  -,$  *,-   &,   o",
"o                  3,,3                                  3,,3  $,<  4,5   &,   o",
"o                  2332                                  2332  &,    ,&   &,   o",
"o                   22                                    22   &,    ,&   &,   o",
"o                                                              &,    ,&   &,   o",
"o                                                              *,   -,*   &,   o",
"o                                                              <,1  1,<   &,   o",
":+                                                              ==  =&    &,&%>:",
" @;                                                             -&=%*     &%$#@ ",
" .O+                                                                        +O. ",
"   XooooooooooooooooooooooooooooooooooooooooooooooooooooooooooooooooooooooooX.  "};
