/* XPM */
static char * _10heart_xpm[] = {
"80 108 54 1",
" 	c #FFFFFFFFFFFF",
".	c #FFFFFBEEFFFF",
"X	c #A699A699A699",
"o	c #861782078617",
"O	c #C71BC30BC71B",
"+	c #EFBEEFBEEFBE",
"@	c #BEFBBEFBBEFB",
"#	c #E79DE79DE79D",
"$	c #A699A289A699",
"%	c #EFBED75CD75C",
"&	c #F7DE92489658",
"*	c #E79D20812081",
"=	c #EFBE59655965",
"-	c #EFBE75D671C6",
";	c #EFBE3CF338E3",
":	c #FFFFE38DE79D",
">	c #965865956185",
",	c #E79D04100000",
"<	c #FFFFCB2BCF3C",
"1	c #F7DEAEBAAEBA",
"2	c #F7DEC71BC71B",
"3	c #EFBE45144103",
"4	c #F7DEAAAAAEBA",
"5	c #E79D30C230C2",
"6	c #E79DCF3CCF3C",
"7	c #EFBE51445144",
"8	c #E79D18611861",
"9	c #E79D92489658",
"0	c #F7DEEFBEEFBE",
"q	c #E79D1C711861",
"w	c #E79D08200820",
"e	c #EFBE5D755965",
"r	c #F7DE82078617",
"t	c #E79D0C300820",
"y	c #E79D24922081",
"u	c #EFBE9A699E79",
"i	c #DF7D69A669A6",
"p	c #EFBEEBADEFBE",
"a	c #D75C65956185",
"s	c #EFBE41034103",
"d	c #E79DDB6CDF7D",
"f	c #EFBEE79DE79D",
"g	c #DF7D49244924",
"h	c #E79D28A228A2",
"j	c #EFBECF3CCF3C",
"k	c #F7DEF3CEF7DE",
"l	c #DF7D86178617",
"z	c #E79D14511040",
"x	c #D75C59655965",
"c	c #F7DEF7DEF7DE",
"v	c #EFBE9E799E79",
"b	c #E79D34D330C2",
"n	c #EFBE92489658",
"m	c #EFBED34CD75C",
"  .XooooooooooooooooooooooooooooooooooooooooooooooooooooooooooooooooooooooooX   ",
" .O+                                                                        +O. ",
" @#                                                                          #@ ",
"$%&*=     -*;=:                                                               +$",
">*=,=    =;  ;;                                                                o",
"o  ,=   <,1  1,<                                                               o",
"o  ,=   -,:   ,-                                                               o",
"o  ,=   =,    ,=                                                               o",
"o  ,=   =,    ,=<;,,;2  <;,,;2                    <;,,;<  <;,,;<               o",
"o  ,=   =,    ,3,,,,,,<<,,,,,,<                  <,,,,,,<<,,,,,,<              o",
"o  ,=   4,<  2,5,,,,,,==,,,,,,=                  =,,,,,,==,,,,,,=              o",
"o  ,=   :,-  &,,,,,,,,,,,,,,,,,                  ,,,,,,,,,,,,,,,,              o",
"o<&,*1:  1,&1*1,,,,,,,,,,,,,,,,                  ,,,,,,,,,,,,,,,,              o",
"o<4141:   :&&< =,,,,,,,,,,,,,,;                  ;,,,,,,,,,,,,,,=              o",
"o              :,,,,,,,,,,,,,,&                  &,,,,,,,,,,,,,,:              o",
"o   67,8909qw76 &,,,,,,,,,,,,;                    ;,,,,,,,,,,,,&               o",
"o   e,,,qrq,,,e  =,,,,,,,,,,*:                    :*,,,,,,,,,,=                o",
"o   w,,,,t,,,,w   =,,,,,,,,*:                      :*,,,,,,,,=                 o",
"o   y,,,,,,,,,8    1,,,,,,;:                        :;,,,,,,4                  o",
"o   ut,,,,,,,wi     <*,,,&                            &,,,*<                   o",
"o   pa,,,,,,,sd      :=;:        <;,,;<  <;,,;<        :;=:                    o",
"o    fgw,,,,hj                  <,,,,,,<<,,,,,,<                               o",
"o     klz,tx%                   =,,,,,,==,,,,,,=                               o",
"o      cvbn+                    ,,,,,,,,,,,,,,,,                               o",
"o                               ,,,,,,,,,,,,,,,,                               o",
"o                               =,,,,,,,,,,,,,,;                               o",
"o                               :,,,,,,,,,,,,,,&                               o",
"o                                &,,,,,,,,,,,,;                                o",
"o                                 =,,,,,,,,,,*:                                o",
"o                                  =,,,,,,,,*:                                 o",
"o                                   1,,,,,,;:                                  o",
"o                                    <*,,,&                                    o",
"o                                     :=;:                                     o",
"o                                                                              o",
"o               <;,,;<  <;,,;<                    <;,,;<  <;,,;<               o",
"o              <,,,,,,<<,,,,,,<                  <,,,,,,<<,,,,,,<              o",
"o              =,,,,,,==,,,,,,=                  =,,,,,,==,,,,,,=              o",
"o              ,,,,,,,,,,,,,,,,                  ,,,,,,,,,,,,,,,,              o",
"o              ,,,,,,,,,,,,,,,,                  ,,,,,,,,,,,,,,,,              o",
"o              =,,,,,,,,,,,,,,;                  ;,,,,,,,,,,,,,,=              o",
"o              :,,,,,,,,,,,,,,&                  &,,,,,,,,,,,,,,:              o",
"o               &,,,,,,,,,,,,;                    ;,,,,,,,,,,,,&               o",
"o                =,,,,,,,,,,*:                    :*,,,,,,,,,,=                o",
"o                 =,,,,,,,,*:                      :*,,,,,,,,=                 o",
"o                  1,,,,,,;:                        :;,,,,,,1                  o",
"o                   2*,,,&                            &,,,*<                   o",
"o                    :=;:                              :;=:                    o",
"o                                                                              o",
"o                                                                              o",
"o                                                                              o",
"o                                                                              o",
"o                                                                              o",
"o                                                                              o",
"o                                                                              o",
"o                                                                              o",
"o                                                                              o",
"o                                                                              o",
"o                                                                              o",
"o                                                                              o",
"o                                                                              o",
"o                                                                              o",
"o                    :=;:                              :;=:                    o",
"o                   <*,,,&                            &,,,*<                   o",
"o                  1,,,,,,;:                        :;,,,,,,1                  o",
"o                 =,,,,,,,,*:                      :*,,,,,,,,=                 o",
"o                =,,,,,,,,,,*:                    :*,,,,,,,,,,=                o",
"o               &,,,,,,,,,,,,;                    ;,,,,,,,,,,,,&               o",
"o              :,,,,,,,,,,,,,,&                  &,,,,,,,,,,,,,,:              o",
"o              =,,,,,,,,,,,,,,;                  ;,,,,,,,,,,,,,,=              o",
"o              ,,,,,,,,,,,,,,,,                  ,,,,,,,,,,,,,,,,              o",
"o              ,,,,,,,,,,,,,,,,                  ,,,,,,,,,,,,,,,,              o",
"o              =,,,,,,==,,,,,,=                  =,,,,,,==,,,,,,=              o",
"o              <,,,,,,<<,,,,,,<                  <,,,,,,<<,,,,,,<              o",
"o               <;,,;<  <;,,;<                    <;,,;<  <;,,;<               o",
"o                                                                              o",
"o                                     :=;:                                     o",
"o                                    <*,,,&                                    o",
"o                                   4,,,,,,;:                                  o",
"o                                  =,,,,,,,,*:                                 o",
"o                                 =,,,,,,,,,,*:                                o",
"o                                &,,,,,,,,,,,,;                                o",
"o                               :,,,,,,,,,,,,,,&                               o",
"o                               =,,,,,,,,,,,,,,;                               o",
"o                               ,,,,,,,,,,,,,,,,                               o",
"o                               ,,,,,,,,,,,,,,,,                    pnbvc      o",
"o                               =,,,,,,==,,,,,,=                   %xt,zlk     o",
"o                               <,,,,,,<<,,,,,,<                  mh,,,,wgf    o",
"o                    :=;:        2;,,;<  2;,,;<        :;=:      ds,,,,,,,a+   o",
"o                   2*,,,&                            &,,,*2     iw,,,,,,,tu   o",
"o                  1,,,,,,;:                        :;,,,,,,1    8,,,,,,,,,y   o",
"o                 =,,,,,,,,*:                      :*,,,,,,,,=   w,,,,t,,,,w   o",
"o                =,,,,,,,,,,*:                    :*,,,,,,,,,,=  e,,,qrq,,,e   o",
"o               &,,,,,,,,,,,,;                    ;,,,,,,,,,,,,& 67wq9098,76   o",
"o              :,,,,,,,,,,,,,,&                  &,,,,,,,,,,,,,,:              o",
"o              =,,,,,,,,,,,,,,;                  ;,,,,,,,,,,,,,,= <&&:   :1414<o",
"o              ,,,,,,,,,,,,,,,,                  ,,,,,,,,,,,,,,,,4*1&,1  :1*,&<o",
"o              ,,,,,,,,,,,,,,,,                  ,,,,,,,,,,,,,,,,,&  -,:   =,  o",
"o              =,,,,,,==,,,,,,=                  =,,,,,,==,,,,,,b,<  <,1   =,  o",
"o              <,,,,,,2<,,,,,,2                  <,,,,,,2<,,,,,,3,    ,=   =,  o",
"o               <;,,;<  <;,,;<                    <;,,;<  <;,,;<=,    ,=   =,  o",
"o                                                               =,    ,=   =,  o",
"o                                                               -,   :,-   =,  o",
"o                                                               <,4  4,<   =,  o",
"o                                                                ;;  ;=    =,=*>",
"$+                                                               :=;*-     =*&%$",
" @#                                                                          #@ ",
" .O+                                                                        +O. ",
"   XooooooooooooooooooooooooooooooooooooooooooooooooooooooooooooooooooooooooX.  "};
