/* XPM */
static char * 10spade_xpm[] = {
"80 108 51 1",
" 	c #FFFFFFFFFFFF",
".	c #FFFFFBEEFFFF",
"X	c #A699A699A699",
"o	c #861782078617",
"O	c #C71BC30BC71B",
"+	c #EFBEEFBEEFBE",
"@	c #BEFBBEFBBEFB",
"#	c #E79DE79DE79D",
"$	c #A699A289A699",
"%	c #E79DE38DE79D",
"&	c #8E388E388E38",
"*	c #18611C711861",
"=	c #514455555144",
"-	c #71C671C671C6",
";	c #38E338E338E3",
":	c #C71BC71BC71B",
">	c #000000000000",
",	c #AEBAAAAAAEBA",
"<	c #965892489658",
"1	c #8E388A288E38",
"2	c #965896589658",
"3	c #000004100000",
"4	c #BEFBBAEABEFB",
"5	c #082008200820",
"6	c #D75CD75CD75C",
"7	c #104010401040",
"8	c #CF3CCF3CCF3C",
"9	c #59655D755965",
"0	c #F7DEF3CEF7DE",
"q	c #28A22CB228A2",
"w	c #38E33CF338E3",
"e	c #71C675D671C6",
"r	c #08200C300820",
"t	c #EFBEEBADEFBE",
"y	c #596559655965",
"u	c #30C234D330C2",
"i	c #30C230C230C2",
"p	c #28A228A228A2",
"a	c #208124922081",
"s	c #79E77DF779E7",
"d	c #861786178617",
"f	c #492449244924",
"g	c #DF7DDB6CDF7D",
"h	c #B6DAB6DAB6DA",
"j	c #104014511040",
"k	c #186118611861",
"l	c #F7DEF7DEF7DE",
"z	c #79E779E779E7",
"x	c #49244D344924",
"c	c #DF7DDF7DDF7D",
"v	c #410341034103",
"  .XooooooooooooooooooooooooooooooooooooooooooooooooooooooooooooooooooooooooX   ",
" .O+                                                                        +O. ",
" @#                                                                          #@ ",
"$+%&*=     -*;=%                                                              +$",
"o:*=>=    =;  ;;                                                               o",
"o   >=   :>,  ,>:                                                              o",
"o   >=   ->%   >-                                                              o",
"o   >=   =>    >=                                                              o",
"o   >=   =>    >=                                                              o",
"o   >=   =>    >=   <<                                    <<                   o",
"o   >=   ,>:  :>&  1>>1                                  1>>1                  o",
"o   >=   %>-  &>% <>>>>2                                2>>>><                 o",
"o :&>*,%  ,>&,*, $3>>>>3$                              $3>>>>3$                o",
"o :,,,,%   %&&: 45>>>>>>54                            45>>>>>>54               o",
"o              67>>>>>>>>76                          67>>>>>>>>76              o",
"o     898     0q>>>>>>>>>>q0                        0q>>>>>>>>>>q0             o",
"o    6w>w6    e>>>>>>>>>>>>e                        e>>>>>>>>>>>>e             o",
"o   %;>>>;%   r>>>>>>>>>>>>r                        r>>>>>>>>>>>>r             o",
"o  ty>>>>>yt  *>>>3u>>i>>>>p                        a>>>>i>>u3>>>*             o",
"o  s3>>>>>5s  d5rf:g>>ghu37X                        X73uhg>>g:fr5d             o",
"o  j>>5>3>>j   %t  0kkl  %+                          +%  lkk0  t%              o",
"o  w5fz>ew5x       l**l                <<                l**l                  o",
"o  +%l6k6lc0       4>>4               1>>1               4>>4                  o",
"o     @r@                            2>>>>2                                    o",
"o                                   $3>>>>3$                                   o",
"o                                  45>>>>>>54                                  o",
"o                                 67>>>>>>>>76                                 o",
"o                                0q>>>>>>>>>>q0                                o",
"o                                e>>>>>>>>>>>>e                                o",
"o                                r>>>>>>>>>>>>r                                o",
"o                                *>>>3u>>i>>>>p                                o",
"o                                d5rf:g>>ghu37X                                o",
"o                   <<            #t  0kkl  %+            <<                   o",
"o                  1>>1               l**l               1>>1                  o",
"o                 2>>>>2              4>>4              2>>>>2                 o",
"o                $3>>>>3$                              $3>>>>3$                o",
"o               45>>>>>>54                            45>>>>>>54               o",
"o              67>>>>>>>>76                          67>>>>>>>>76              o",
"o             0q>>>>>>>>>>q0                        0q>>>>>>>>>>q0             o",
"o             e>>>>>>>>>>>>e                        e>>>>>>>>>>>>e             o",
"o             r>>>>>>>>>>>>r                        r>>>>>>>>>>>>r             o",
"o             *>>>3u>>i>>>>p                        p>>>>i>>u3>>>*             o",
"o             d35f:g>>ghu37X                        X73uhg>>g:f53d             o",
"o              #t  0kkl  %+                          +%  lkk0  t#              o",
"o                  l**l                                  l**l                  o",
"o                  4>>4                                  4>>h                  o",
"o                                                                              o",
"o                                                                              o",
"o                                                                              o",
"o                                                                              o",
"o                                                                              o",
"o                                                                              o",
"o                                                                              o",
"o                                                                              o",
"o                                                                              o",
"o                                                                              o",
"o                                                                              o",
"o                                                                              o",
"o                                                                              o",
"o                                                                              o",
"o                                                                              o",
"o                                                                              o",
"o                  4>>h                                  h>>4                  o",
"o                  l**l                                  l**l                  o",
"o              #t  0kkl  %+                          +%  lkk0  t#              o",
"o             d3rf:g>>ghu37X                        X73uhg>>g:f55d             o",
"o             *>>>3u>>i>>>>p                        p>>>>q>>u3>>>*             o",
"o             r>>>>>>>>>>>>r                        r>>>>>>>>>>>>r             o",
"o             e>>>>>>>>>>>>e                        e>>>>>>>>>>>>e             o",
"o             0q>>>>>>>>>>q0                        0q>>>>>>>>>>q0             o",
"o              67>>>>>>>>76                          67>>>>>>>>76              o",
"o               45>>>>>>54                            45>>>>>>54               o",
"o                $3>>>>3$                              $3>>>>3$                o",
"o                 2>>>>2              4>>4              2>>>>2                 o",
"o                  1>>1               l**l               1>>1                  o",
"o                   <<            #t  0kkl  %+            <<                   o",
"o                                d5rf:g>>ghu37X                                o",
"o                                *>>>3u>>i>>>>p                                o",
"o                                r>>>>>>>>>>>>r                                o",
"o                                e>>>>>>>>>>>>e                                o",
"o                                0q>>>>>>>>>>q0                                o",
"o                                 67>>>>>>>>76                                 o",
"o                                  45>>>>>>54                                  o",
"o                                   $3>>>>3$                                   o",
"o                                    2>>>>2                            @r@     o",
"o                  4>>4               1>>1               4>>4       0cl6k6l%+  o",
"o                  l**l                <<                l**l       x5ve>zf5w  o",
"o              #t  0kkl  %+                          +%  0kk0  t#   j>>3>5>>j  o",
"o             d35f:g>>ghu37X                        X73uhg>>g:f53d  z5>>>>>3z  o",
"o             *>>>3u>>i>>>>p                        p>>>>i>>u3>>>*  ty>>>>>yt  o",
"o             r>>>>>>>>>>>>r                        r>>>>>>>>>>>>r   %;>>>;%   o",
"o             e>>>>>>>>>>>>e                        e>>>>>>>>>>>>e    6w>w6    o",
"o             0q>>>>>>>>>>q0                        0q>>>>>>>>>>q0     898     o",
"o              67>>>>>>>>76                          67>>>>>>>>76              o",
"o               45>>>>>>54                            45>>>>>>54 :&&%   %,,,,: o",
"o                $3>>>>3$                              $3>>>>3$ ,*,&>,  %,*>&: o",
"o                 2>>>>2                                2>>>>2 %>&  ->%   =>   o",
"o                  1>>1                                  1>>1  &>:  :>,   =>   o",
"o                   <<                                    <<   =>    >=   =>   o",
"o                                                              =>    >=   =>   o",
"o                                                              =>    >=   =>   o",
"o                                                              ->   %>-   =>   o",
"o                                                              :>,  ,>:   =>   o",
"o                                                               ;;  ;=    =>=*:o",
"$+                                                              %=;*-     =*&%+$",
" @#                                                                          #@ ",
" .O+                                                                        +O. ",
"   XooooooooooooooooooooooooooooooooooooooooooooooooooooooooooooooooooooooooX.  "};
