/* XPM */
static char * _3diamond_xpm[] = {
"80 108 33 1",
" 	c #FFFFFFFFFFFF",
".	c #FFFFFBEEFFFF",
"X	c #A699A699A699",
"o	c #861782078617",
"O	c #C71BC30BC71B",
"+	c #EFBEEFBEEFBE",
"@	c #BEFBBEFBBEFB",
"#	c #E79DE79DE79D",
"$	c #FFFFE38DE79D",
"%	c #EFBE59655965",
"&	c #EFBE3CF338E3",
"*	c #E79D20812081",
"=	c #F7DEC71BC71B",
"-	c #A699A289A699",
";	c #E79D04100000",
":	c #F7DEAEBAAEBA",
">	c #F7DE92489658",
",	c #FFFFCB2BCF3C",
"<	c #EFBE75D671C6",
"1	c #F7DEAAAAAEBA",
"2	c #F7DEF3CEF7DE",
"3	c #D75C86178617",
"4	c #DF7D86178617",
"5	c #CF3CBAEABEFB",
"6	c #E79D18611861",
"7	c #BEFB82078617",
"8	c #E79D10401040",
"9	c #C71B45144103",
"0	c #C71B41034103",
"q	c #E79DE38DE79D",
"w	c #F7DE86178617",
"e	c #E79D0C300820",
"r	c #E79D1C711861",
"  .XooooooooooooooooooooooooooooooooooooooooooooooooooooooooooooooooooooooooX   ",
" .O+                                                                        +O. ",
" @#$%&*&=                                                                    #@ ",
"-+ *& $*;$                                                                    +-",
"o  ;%  :;:                                                                     o",
"o  $$  >;,                                                                     o",
"o   $ :;%                                                                      o",
"o   ,%&*:                                                                      o",
"o      :;>                                                                     o",
"o  :$   ;%                                                                     o",
"o :;<  =;>                                                                     o",
"o $**11*%                                                                      o",
"o   :::,                                                                       o",
"o    2342                                                                      o",
"o    5665                                                                      o",
"o    7;;7                                                                      o",
"o    8;;8                                                                      o",
"o  #9;;;;9#                                                                    o",
"o  0;;;;;;0                                                                    o",
"o  0;;;;;;0                                                                    o",
"o  q9;;;;9#                                                                    o",
"o    8;;8                                                                      o",
"o    7;;7                              ww                                      o",
"o    5665                             weew                                     o",
"o    2442                             e;;e                                     o",
"o                                     ;;;;                                     o",
"o                                    &;;;;&                                    o",
"o                                    ;;;;;;                                    o",
"o                                   r;;;;;;r                                   o",
"o                                  e;;;;;;;;e                                  o",
"o                                 e;;;;;;;;;;e                                 o",
"o                                 e;;;;;;;;;;e                                 o",
"o                                  e;;;;;;;;e                                  o",
"o                                   r;;;;;;r                                   o",
"o                                    ;;;;;;                                    o",
"o                                    &;;;;&                                    o",
"o                                     ;;;;                                     o",
"o                                     e;;e                                     o",
"o                                     weew                                     o",
"o                                      ww                                      o",
"o                                                                              o",
"o                                                                              o",
"o                                                                              o",
"o                                                                              o",
"o                                                                              o",
"o                                      ww                                      o",
"o                                     weew                                     o",
"o                                     e;;e                                     o",
"o                                     ;;;;                                     o",
"o                                    &;;;;&                                    o",
"o                                    ;;;;;;                                    o",
"o                                   r;;;;;;r                                   o",
"o                                  e;;;;;;;;e                                  o",
"o                                 e;;;;;;;;;;e                                 o",
"o                                 e;;;;;;;;;;e                                 o",
"o                                  e;;;;;;;;e                                  o",
"o                                   r;;;;;;r                                   o",
"o                                    ;;;;;;                                    o",
"o                                    &;;;;&                                    o",
"o                                     ;;;;                                     o",
"o                                     e;;e                                     o",
"o                                     weew                                     o",
"o                                      ww                                      o",
"o                                                                              o",
"o                                                                              o",
"o                                                                              o",
"o                                                                              o",
"o                                                                              o",
"o                                      ww                                      o",
"o                                     weew                                     o",
"o                                     e;;e                                     o",
"o                                     ;;;;                                     o",
"o                                    &;;;;&                                    o",
"o                                    ;;;;;;                                    o",
"o                                   r;;;;;;r                                   o",
"o                                  e;;;;;;;;e                                  o",
"o                                 e;;;;;;;;;;e                                 o",
"o                                 e;;;;;;;;;;e                                 o",
"o                                  e;;;;;;;;e                                  o",
"o                                   r;;;;;;r                                   o",
"o                                    ;;;;;;                                    o",
"o                                    &;;;;&                                    o",
"o                                     ;;;;                                     o",
"o                                     e;;e                             2442    o",
"o                                     weew                             5665    o",
"o                                      ww                              7;;7    o",
"o                                                                      8;;8    o",
"o                                                                    q9;;;;9#  o",
"o                                                                    0;;;;;;0  o",
"o                                                                    0;;;;;;0  o",
"o                                                                    #9;;;;9#  o",
"o                                                                      8;;8    o",
"o                                                                      7;;7    o",
"o                                                                      5665    o",
"o                                                                      2432    o",
"o                                                                       ,1::   o",
"o                                                                      %*::**$ o",
"o                                                                     >;,  <;: o",
"o                                                                     %;   $1  o",
"o                                                                     >;:      o",
"o                                                                      1*&%=   o",
"o                                                                      %;: $   o",
"o                                                                     =;>  $$  o",
"o                                                                     :;:  %;  o",
"-+                                                                    $;*$ &* +-",
" @#                                                                    ,&*&%$#@ ",
" .O+                                                                        +O. ",
"   XooooooooooooooooooooooooooooooooooooooooooooooooooooooooooooooooooooooooX.  "};
