/* XPM */
static char * 4diamond_xpm[] = {
"80 108 32 1",
" 	c #FFFFFFFFFFFF",
".	c #FFFFFBEEFFFF",
"X	c #A699A699A699",
"o	c #861782078617",
"O	c #C71BC30BC71B",
"+	c #EFBEEFBEEFBE",
"@	c #BEFBBEFBBEFB",
"#	c #E79DE79DE79D",
"$	c #FFFFE38DE79D",
"%	c #E79D04100000",
"&	c #EFBE59655965",
"*	c #A699A289A699",
"=	c #E79D20812081",
"-	c #EFBE3CF338E3",
";	c #F7DEAEBAAEBA",
":	c #FFFFCB2BCF3C",
">	c #EFBE75D671C6",
",	c #F7DE92489658",
"<	c #F7DEF3CEF7DE",
"1	c #D75C86178617",
"2	c #DF7D86178617",
"3	c #CF3CBAEABEFB",
"4	c #E79D18611861",
"5	c #BEFB82078617",
"6	c #E79D10401040",
"7	c #C71B45144103",
"8	c #C71B41034103",
"9	c #E79DE38DE79D",
"0	c #F7DE86178617",
"q	c #E79D0C300820",
"w	c #E79D1C711861",
"e	c #F7DEAAAAAEBA",
"  .XooooooooooooooooooooooooooooooooooooooooooooooooooooooooooooooooooooooooX   ",
" .O+                                                                        +O. ",
" @#    $%&                                                                   #@ ",
"*+     =%&                                                                    +*",
"o     &-%&                                                                     o",
"o    ;=$%&                                                                     o",
"o   :%: %&                                                                     o",
"o  $=;  %&                                                                     o",
"o  >%&&&%=&,                                                                   o",
"o  ,&&&&%=&,                                                                   o",
"o       %&                                                                     o",
"o       %&                                                                     o",
"o       &,                                                                     o",
"o    <12<                                                                      o",
"o    3443                                                                      o",
"o    5%%5                                                                      o",
"o    6%%6                                                                      o",
"o  #7%%%%7#                                                                    o",
"o  8%%%%%%8                                                                    o",
"o  8%%%%%%8                                                                    o",
"o  97%%%%7#                                                                    o",
"o    6%%6                                                                      o",
"o    5%%5                                                                      o",
"o    3443                                                                      o",
"o    <22<                                                                      o",
"o                                                                              o",
"o                                                                              o",
"o                                                                              o",
"o                                                                              o",
"o                      00                              00                      o",
"o                     0qq0                            0qq0                     o",
"o                     q%%q                            q%%q                     o",
"o                     %%%%                            %%%%                     o",
"o                    -%%%%-                          -%%%%-                    o",
"o                    %%%%%%                          %%%%%%                    o",
"o                   w%%%%%%w                        w%%%%%%w                   o",
"o                  q%%%%%%%%q                      q%%%%%%%%q                  o",
"o                 q%%%%%%%%%%q                    q%%%%%%%%%%q                 o",
"o                 q%%%%%%%%%%q                    q%%%%%%%%%%q                 o",
"o                  q%%%%%%%%q                      q%%%%%%%%q                  o",
"o                   w%%%%%%w                        w%%%%%%w                   o",
"o                    %%%%%%                          %%%%%%                    o",
"o                    -%%%%-                          -%%%%-                    o",
"o                     %%%%                            %%%%                     o",
"o                     q%%q                            q%%q                     o",
"o                     0qq0                            0qq0                     o",
"o                      00                              00                      o",
"o                                                                              o",
"o                                                                              o",
"o                                                                              o",
"o                                                                              o",
"o                                                                              o",
"o                                                                              o",
"o                                                                              o",
"o                                                                              o",
"o                                                                              o",
"o                                                                              o",
"o                                                                              o",
"o                                                                              o",
"o                                                                              o",
"o                                                                              o",
"o                      00                              00                      o",
"o                     0qq0                            0qq0                     o",
"o                     q%%q                            q%%q                     o",
"o                     %%%%                            %%%%                     o",
"o                    -%%%%-                          -%%%%-                    o",
"o                    %%%%%%                          %%%%%%                    o",
"o                   w%%%%%%w                        w%%%%%%w                   o",
"o                  q%%%%%%%%q                      q%%%%%%%%q                  o",
"o                 q%%%%%%%%%%q                    q%%%%%%%%%%q                 o",
"o                 q%%%%%%%%%%q                    q%%%%%%%%%%q                 o",
"o                  q%%%%%%%%q                      q%%%%%%%%q                  o",
"o                   w%%%%%%w                        w%%%%%%w                   o",
"o                    %%%%%%                          %%%%%%                    o",
"o                    -%%%%-                          -%%%%-                    o",
"o                     %%%%                            %%%%                     o",
"o                     q%%q                            q%%q                     o",
"o                     0qq0                            0qq0                     o",
"o                      00                              00                      o",
"o                                                                              o",
"o                                                                              o",
"o                                                                              o",
"o                                                                              o",
"o                                                                      <22<    o",
"o                                                                      3443    o",
"o                                                                      5%%5    o",
"o                                                                      6%%6    o",
"o                                                                    97%%%%7#  o",
"o                                                                    8%%%%%%8  o",
"o                                                                    8%%%%%%8  o",
"o                                                                    #7%%%%7#  o",
"o                                                                      6%%6    o",
"o                                                                      5%%5    o",
"o                                                                      3443    o",
"o                                                                      <21<    o",
"o                                                                     ,&       o",
"o                                                                     &%       o",
"o                                                                     &%       o",
"o                                                                   ,&=%&&&&,  o",
"o                                                                   ,&=%&&&%>  o",
"o                                                                     &%  ;=$  o",
"o                                                                     &% :%:   o",
"o                                                                     &%$=e    o",
"o                                                                     &%-&     o",
"*+                                                                    &%=     +*",
" @#                                                                   &%$    #@ ",
" .O+                                                                        +O. ",
"   XooooooooooooooooooooooooooooooooooooooooooooooooooooooooooooooooooooooooX.  "};
