/* XPM */
static char * _5club_xpm[] = {
"80 108 46 1",
" 	c #FFFFFFFFFFFF",
".	c #FFFFFBEEFFFF",
"X	c #A699A699A699",
"o	c #861782078617",
"O	c #C71BC30BC71B",
"+	c #EFBEEFBEEFBE",
"@	c #BEFBBEFBBEFB",
"#	c #E79DE79DE79D",
"$	c #A699A289A699",
"%	c #8E388E388E38",
"&	c #514455555144",
"*	c #000000000000",
"=	c #18611C711861",
"-	c #C71BC71BC71B",
";	c #AEBAAAAAAEBA",
":	c #71C671C671C6",
">	c #E79DE38DE79D",
",	c #38E33CF338E3",
"<	c #000004100000",
"1	c #F7DEF7DEF7DE",
"2	c #082008200820",
"3	c #F7DEF3CEF7DE",
"4	c #965892489658",
"5	c #208120812081",
"6	c #208124922081",
"7	c #B6DAB2CAB6DA",
"8	c #71C675D671C6",
"9	c #104010401040",
"0	c #104014511040",
"q	c #08200C300820",
"w	c #30C230C230C2",
"e	c #186118611861",
"r	c #28A228A228A2",
"t	c #CF3CCB2BCF3C",
"y	c #49244D344924",
"u	c #38E338E338E3",
"i	c #9E799A699E79",
"p	c #59655D755965",
"a	c #596559655965",
"s	c #410345144103",
"d	c #DF7DDF7DDF7D",
"f	c #514451445144",
"g	c #69A669A669A6",
"h	c #410341034103",
"j	c #618565956185",
"k	c #EFBEEBADEFBE",
"  .XooooooooooooooooooooooooooooooooooooooooooooooooooooooooooooooooooooooooX   ",
" .O+                                                                        +O. ",
" @#                                                                          #@ ",
"$+  %&&&&&                                                                    +$",
"o   &*****                                                                     o",
"o   &&                                                                         o",
"o   &&                                                                         o",
"o   &=**=%                                                                     o",
"o   -;;:=*-                                                                    o",
"o       -*&                                                                    o",
"o   --   *&                                                                    o",
"o   *&  -*-                                                                    o",
"o   =*;%=:                                                                     o",
"o    ;;;>                                                                      o",
"o                                                                              o",
"o    @,<,@                                                                     o",
"o   1,***,1                                                                    o",
"o   +2***23                                                                    o",
"o +;45***6%7#                                                                  o",
"o 89<=9*05*q8                                                                  o",
"o 2**<<******                                                                  o",
"o w**0e*09**r                                                                  o",
"o tyuip*aors-                                                                  o",
"o    >s*sd                                                                     o",
"o   3f2*2p1                                                                    o",
"o                                                                              o",
"o                                                                              o",
"o                                                                              o",
"o                                                                              o",
"o                     ir*ri                           ir*ri                    o",
"o                    i*****i                         i*****i                   o",
"o                    r*****r                         r*****r                   o",
"o                    *******                         *******                   o",
"o                    r*****r                         r*****r                   o",
"o                 gqqh*****y**j                   gqqh*****y**j                o",
"o                g****h***y****j                 g****h***y****j               o",
"o                q****q*********                 q****q*********               o",
"o                q****q*********                 q****q*********               o",
"o                g****g***j****j                 g****g***j****j               o",
"o                 gqqg *** j**j                   gqqg *** j**j                o",
"o                      ***                             ***                     o",
"o                     y***y                           y***y                    o",
"o                    y*****y                         y*****y                   o",
"o                                                                              o",
"o                                                                              o",
"o                                                                              o",
"o                                     ir*ri                                    o",
"o                                    i*****i                                   o",
"o                                    r*****r                                   o",
"o                                    *******                                   o",
"o                                    r*****r                                   o",
"o                                 gqqh*****y**j                                o",
"o                                g****h***y****j                               o",
"o                                q****q*********                               o",
"o                                q****q*********                               o",
"o                                g****g***j****j                               o",
"o                                 gqqg *** j**j                                o",
"o                                      ***                                     o",
"o                                     y***y                                    o",
"o                                    y*****y                                   o",
"o                                                                              o",
"o                                                                              o",
"o                                                                              o",
"o                                                                              o",
"o                                                                              o",
"o                    y*****y                         y*****y                   o",
"o                     y***y                           y***y                    o",
"o                      ***                             ***                     o",
"o                 gqqg *** j**j                   gqqg *** j**j                o",
"o                g****g***j****j                 g****g***j****j               o",
"o                q****q*********                 q****q*********               o",
"o                q****q*********                 q****q*********               o",
"o                g****h***y****j                 g****h***y****j               o",
"o                 gqqh*****y**j                   gqqh*****y**j                o",
"o                    r*****r                         r*****r                   o",
"o                    *******                         *******                   o",
"o                    r*****r                         r*****r                   o",
"o                    i*****i                         i*****i                   o",
"o                     ir*ri                           ir*ri                    o",
"o                                                                              o",
"o                                                                              o",
"o                                                                              o",
"o                                                                              o",
"o                                                                    1p2*2f3   o",
"o                                                                     ds*s>    o",
"o                                                                  -sroa*piuyt o",
"o                                                                  r**90*e0**w o",
"o                                                                  ******<<**2 o",
"o                                                                  8q*50*9e<98 o",
"o                                                                  k7%6***54;+ o",
"o                                                                    32***2+   o",
"o                                                                    1,***,1   o",
"o                                                                     @,<,@    o",
"o                                                                              o",
"o                                                                      >;;;    o",
"o                                                                     :=%;*=   o",
"o                                                                    -*-  &*   o",
"o                                                                    &*   --   o",
"o                                                                    &*-       o",
"o                                                                    -*=:;;-   o",
"o                                                                     %=**=&   o",
"o                                                                         &&   o",
"o                                                                         &&   o",
"o                                                                     *****&   o",
"$+                                                                    &&&&&%  +$",
" @#                                                                          #@ ",
" .O+                                                                        +O. ",
"   XooooooooooooooooooooooooooooooooooooooooooooooooooooooooooooooooooooooooX.  "};
