/* XPM */
static char * _5diamond_xpm[] = {
"80 108 33 1",
" 	c #FFFFFFFFFFFF",
".	c #FFFFFBEEFFFF",
"X	c #A699A699A699",
"o	c #861782078617",
"O	c #C71BC30BC71B",
"+	c #EFBEEFBEEFBE",
"@	c #BEFBBEFBBEFB",
"#	c #E79DE79DE79D",
"$	c #F7DE92489658",
"%	c #EFBE59655965",
"&	c #A699A289A699",
"*	c #E79D04100000",
"=	c #E79D20812081",
"-	c #FFFFCB2BCF3C",
";	c #F7DEAEBAAEBA",
":	c #EFBE75D671C6",
">	c #F7DEC71BC71B",
",	c #F7DEAAAAAEBA",
"<	c #FFFFE38DE79D",
"1	c #F7DEF3CEF7DE",
"2	c #D75C86178617",
"3	c #DF7D86178617",
"4	c #CF3CBAEABEFB",
"5	c #E79D18611861",
"6	c #BEFB82078617",
"7	c #E79D10401040",
"8	c #C71B45144103",
"9	c #C71B41034103",
"0	c #E79DE38DE79D",
"q	c #F7DE86178617",
"w	c #E79D0C300820",
"e	c #EFBE3CF338E3",
"r	c #E79D1C711861",
"  .XooooooooooooooooooooooooooooooooooooooooooooooooooooooooooooooooooooooooX   ",
" .O+                                                                        +O. ",
" @# $%%%%%                                                                   #@ ",
"&+  %*****                                                                    +&",
"o   %%                                                                         o",
"o   %%                                                                         o",
"o   %=**=$                                                                     o",
"o   -;;:=*-                                                                    o",
"o       -*%                                                                    o",
"o   --   *%                                                                    o",
"o   *%  >*-                                                                    o",
"o   =*,$=:                                                                     o",
"o    ;;;<                                                                      o",
"o    1231                                                                      o",
"o    4554                                                                      o",
"o    6**6                                                                      o",
"o    7**7                                                                      o",
"o  #8****8#                                                                    o",
"o  9******9                                                                    o",
"o  9******9                                                                    o",
"o  08****8#                                                                    o",
"o    7**7                                                                      o",
"o    6**6                                                                      o",
"o    4554                                                                      o",
"o    1331                                                                      o",
"o                                                                              o",
"o                                                                              o",
"o                                                                              o",
"o                                                                              o",
"o                      qq                              qq                      o",
"o                     qwwq                            qwwq                     o",
"o                     w**w                            w**w                     o",
"o                     ****                            ****                     o",
"o                    e****e                          e****e                    o",
"o                    ******                          ******                    o",
"o                   r******r                        r******r                   o",
"o                  w********w                      w********w                  o",
"o                 w**********w                    w**********w                 o",
"o                 w**********w                    w**********w                 o",
"o                  w********w                      w********w                  o",
"o                   r******r                        r******r                   o",
"o                    ******                          ******                    o",
"o                    e****e                          e****e                    o",
"o                     ****                            ****                     o",
"o                     w**w                            w**w                     o",
"o                     qwwq             qq             qwwq                     o",
"o                      qq             qwwq             qq                      o",
"o                                     w**w                                     o",
"o                                     ****                                     o",
"o                                    e****e                                    o",
"o                                    ******                                    o",
"o                                   r******r                                   o",
"o                                  w********w                                  o",
"o                                 w**********w                                 o",
"o                                 w**********w                                 o",
"o                                  w********w                                  o",
"o                                   r******r                                   o",
"o                                    ******                                    o",
"o                                    e****e                                    o",
"o                                     ****                                     o",
"o                                     w**w                                     o",
"o                      qq             qwwq             qq                      o",
"o                     qwwq             qq             qwwq                     o",
"o                     w**w                            w**w                     o",
"o                     ****                            ****                     o",
"o                    e****e                          e****e                    o",
"o                    ******                          ******                    o",
"o                   r******r                        r******r                   o",
"o                  w********w                      w********w                  o",
"o                 w**********w                    w**********w                 o",
"o                 w**********w                    w**********w                 o",
"o                  w********w                      w********w                  o",
"o                   r******r                        r******r                   o",
"o                    ******                          ******                    o",
"o                    e****e                          e****e                    o",
"o                     ****                            ****                     o",
"o                     w**w                            w**w                     o",
"o                     qwwq                            qwwq                     o",
"o                      qq                              qq                      o",
"o                                                                              o",
"o                                                                              o",
"o                                                                              o",
"o                                                                              o",
"o                                                                      1331    o",
"o                                                                      4554    o",
"o                                                                      6**6    o",
"o                                                                      7**7    o",
"o                                                                    08****8#  o",
"o                                                                    9******9  o",
"o                                                                    9******9  o",
"o                                                                    #8****8#  o",
"o                                                                      7**7    o",
"o                                                                      6**6    o",
"o                                                                      4554    o",
"o                                                                      1321    o",
"o                                                                      <;,;    o",
"o                                                                     :=$;*=   o",
"o                                                                    -*-  %*   o",
"o                                                                    %*   >-   o",
"o                                                                    %*-       o",
"o                                                                    -*=:;;>   o",
"o                                                                     $=**=%   o",
"o                                                                         %%   o",
"o                                                                         %%   o",
"&+                                                                    *****%  +&",
" @#                                                                   %%%%%$ #@ ",
" .O+                                                                        +O. ",
"   XooooooooooooooooooooooooooooooooooooooooooooooooooooooooooooooooooooooooX.  "};
