/* XPM */
static char * 6club_xpm[] = {
"80 108 46 1",
" 	c #FFFFFFFFFFFF",
".	c #FFFFFBEEFFFF",
"X	c #A699A699A699",
"o	c #861782078617",
"O	c #C71BC30BC71B",
"+	c #EFBEEFBEEFBE",
"@	c #BEFBBEFBBEFB",
"#	c #E79DE79DE79D",
"$	c #C71BC71BC71B",
"%	c #AEBAAAAAAEBA",
"&	c #A699A289A699",
"*	c #18611C711861",
"=	c #514455555144",
"-	c #71C671C671C6",
";	c #E79DE38DE79D",
":	c #000000000000",
">	c #38E338E338E3",
",	c #9E799A699E79",
"<	c #28A228A228A2",
"1	c #38E33CF338E3",
"2	c #000004100000",
"3	c #F7DEF7DEF7DE",
"4	c #082008200820",
"5	c #F7DEF3CEF7DE",
"6	c #69A669A669A6",
"7	c #08200C300820",
"8	c #410341034103",
"9	c #49244D344924",
"0	c #618565956185",
"q	c #965892489658",
"w	c #208120812081",
"e	c #208124922081",
"r	c #8E388E388E38",
"t	c #B6DAB2CAB6DA",
"y	c #71C675D671C6",
"u	c #104010401040",
"i	c #104014511040",
"p	c #30C230C230C2",
"a	c #186118611861",
"s	c #CF3CCB2BCF3C",
"d	c #59655D755965",
"f	c #596559655965",
"g	c #410345144103",
"h	c #DF7DDF7DDF7D",
"j	c #514451445144",
"k	c #EFBEEBADEFBE",
"  .XooooooooooooooooooooooooooooooooooooooooooooooooooooooooooooooooooooooooX   ",
" .O+                                                                        +O. ",
" @#     $%                                                                   #@ ",
"&+    %*==                                                                    +&",
"o    -*;                                                                       o",
"o   $:$                                                                        o",
"o   =:$==$                                                                     o",
"o   *:>=::%                                                                    o",
"o   :=  ;:>                                                                    o",
"o   :=   =:                                                                    o",
"o   *>   =:                                                                    o",
"o   -:;  *=                                                                    o",
"o   ;*=$=*;          ,<:<,                            ,<:<,                    o",
"o     %=%           ,:::::,                          ,:::::,                   o",
"o                   <:::::<                          <:::::<                   o",
"o    @121@          :::::::                          :::::::                   o",
"o   31:::13         <:::::<                          <:::::<                   o",
"o   +4:::45      6778:::::9::0                    6778:::::9::0                o",
"o +%qw:::ert#   6::::8:::9::::0                  6::::8:::9::::0               o",
"o yu2*u:iw:7y   7::::7:::::::::                  7::::7:::::::::               o",
"o 4::22::::::   7::::7:::::::::                  7::::7:::::::::               o",
"o p::ia:iu::<   6::::6:::0::::0                  6::::6:::0::::0               o",
"o s9>,d:fo<g$    6776 ::: 0::0                    6776 ::: 0::0                o",
"o    ;g:gh            :::                              :::                     o",
"o   5j4:4d3          9:::9                            9:::9                    o",
"o                   9:::::9                          9:::::9                   o",
"o                                                                              o",
"o                                                                              o",
"o                                                                              o",
"o                                                                              o",
"o                                                                              o",
"o                                                                              o",
"o                                                                              o",
"o                                                                              o",
"o                                                                              o",
"o                                                                              o",
"o                                                                              o",
"o                                                                              o",
"o                                                                              o",
"o                                                                              o",
"o                                                                              o",
"o                                                                              o",
"o                                                                              o",
"o                                                                              o",
"o                                                                              o",
"o                                                                              o",
"o                    ,<:<,                            ,<:<,                    o",
"o                   ,:::::,                          ,:::::,                   o",
"o                   <:::::<                          <:::::<                   o",
"o                   :::::::                          :::::::                   o",
"o                   <:::::<                          <:::::<                   o",
"o                6778:::::9::0                    6778:::::9::0                o",
"o               6::::8:::9::::0                  6::::8:::9::::0               o",
"o               7::::7:::::::::                  7::::7:::::::::               o",
"o               7::::7:::::::::                  7::::7:::::::::               o",
"o               6::::6:::0::::0                  6::::6:::0::::0               o",
"o                6776 ::: 0::0                    6776 ::: 0::0                o",
"o                     :::                              :::                     o",
"o                    9:::9                            9:::9                    o",
"o                   9:::::9                          9:::::9                   o",
"o                                                                              o",
"o                                                                              o",
"o                                                                              o",
"o                                                                              o",
"o                                                                              o",
"o                                                                              o",
"o                                                                              o",
"o                                                                              o",
"o                                                                              o",
"o                                                                              o",
"o                                                                              o",
"o                                                                              o",
"o                                                                              o",
"o                                                                              o",
"o                                                                              o",
"o                                                                              o",
"o                                                                              o",
"o                                                                              o",
"o                                                                              o",
"o                                                                              o",
"o                                                                              o",
"o                                                                              o",
"o                   9:::::9                          9:::::9                   o",
"o                    9:::9                            9:::9          3d4:4j5   o",
"o                     :::                              :::            hg:g;    o",
"o                6776 ::: 0::0                    6776 ::: 0::0    $g<of:d,>9s o",
"o               6::::6:::0::::0                  6::::6:::0::::0   <::ui:ai::p o",
"o               7::::7:::::::::                  7::::7:::::::::   ::::::22::4 o",
"o               7::::7:::::::::                  7::::7:::::::::   y7:wi:ua2uy o",
"o               6::::8:::9::::0                  6::::8:::9::::0   ktre:::wq%+ o",
"o                6778:::::9::0                    6778:::::9::0      54:::4+   o",
"o                   <:::::<                          <:::::<         31:::13   o",
"o                   :::::::                          :::::::          @121@    o",
"o                   <:::::<                          <:::::<                   o",
"o                   ,:::::,                          ,:::::,           %=%     o",
"o                    ,<:<,                            ,<:<,          ;*=$=*;   o",
"o                                                                    =*  ;:-   o",
"o                                                                    :=   >*   o",
"o                                                                    :=   =:   o",
"o                                                                    >:;  =:   o",
"o                                                                    %::=>:*   o",
"o                                                                     $==$:=   o",
"o                                                                        $:$   o",
"o                                                                       ;*-    o",
"&+                                                                    ==*%    +&",
" @#                                                                   %$     #@ ",
" .O+                                                                        +O. ",
"   XooooooooooooooooooooooooooooooooooooooooooooooooooooooooooooooooooooooooX.  "};
