/* XPM */
static char * 6diamond_xpm[] = {
"80 108 31 1",
" 	c #FFFFFFFFFFFF",
".	c #FFFFFBEEFFFF",
"X	c #A699A699A699",
"o	c #861782078617",
"O	c #C71BC30BC71B",
"+	c #EFBEEFBEEFBE",
"@	c #F7DEC71BC71B",
"#	c #F7DEAEBAAEBA",
"$	c #BEFBBEFBBEFB",
"%	c #E79DE79DE79D",
"&	c #E79D20812081",
"*	c #EFBE59655965",
"=	c #A699A289A699",
"-	c #EFBE75D671C6",
";	c #FFFFE38DE79D",
":	c #FFFFCB2BCF3C",
">	c #E79D04100000",
",	c #EFBE3CF338E3",
"<	c #F7DEF3CEF7DE",
"1	c #D75C86178617",
"2	c #DF7D86178617",
"3	c #F7DE86178617",
"4	c #CF3CBAEABEFB",
"5	c #E79D18611861",
"6	c #E79D0C300820",
"7	c #BEFB82078617",
"8	c #E79D10401040",
"9	c #C71B45144103",
"0	c #C71B41034103",
"q	c #E79D1C711861",
"w	c #E79DE38DE79D",
"  .XooooooooooooooooooooooooooooooooooooooooooooooooooooooooooooooooooooooooX   ",
" .O+   @#                                                                   +O. ",
" $%  #&**                                                                    %$ ",
"=+  -&;                                                                       +=",
"o  :>:                                                                         o",
"o  *>:**:                                                                      o",
"o  &>,*>>#                                                                     o",
"o  >*  ;>,                                                                     o",
"o  >*   *>                                                                     o",
"o  &,   *>                                                                     o",
"o  ->;  &*                                                                     o",
"o  ;&*@*&;                                                                     o",
"o    #*#                                                                       o",
"o    <12<           33                                    33                   o",
"o    4554          3663                                  3663                  o",
"o    7>>7          6>>6                                  6>>6                  o",
"o    8>>8          >>>>                                  >>>>                  o",
"o  %9>>>>9%       ,>>>>,                                ,>>>>,                 o",
"o  0>>>>>>0       >>>>>>                                >>>>>>                 o",
"o  0>>>>>>0      q>>>>>>q                              q>>>>>>q                o",
"o  w9>>>>9%     6>>>>>>>>6                            6>>>>>>>>6               o",
"o    8>>8      6>>>>>>>>>>6                          6>>>>>>>>>>6              o",
"o    7>>7      6>>>>>>>>>>6                          6>>>>>>>>>>6              o",
"o    4554       6>>>>>>>>6                            6>>>>>>>>6               o",
"o    <22<        q>>>>>>q                              q>>>>>>q                o",
"o                 >>>>>>                                >>>>>>                 o",
"o                 ,>>>>,                                ,>>>>,                 o",
"o                  >>>>                                  >>>>                  o",
"o                  6>>6                                  6>>6                  o",
"o                  3663                                  3663                  o",
"o                   33                                    33                   o",
"o                                                                              o",
"o                                                                              o",
"o                                                                              o",
"o                                                                              o",
"o                                                                              o",
"o                                                                              o",
"o                                                                              o",
"o                                                                              o",
"o                                                                              o",
"o                                                                              o",
"o                                                                              o",
"o                                                                              o",
"o                                                                              o",
"o                                                                              o",
"o                   33                                    33                   o",
"o                  3663                                  3663                  o",
"o                  6>>6                                  6>>6                  o",
"o                  >>>>                                  >>>>                  o",
"o                 ,>>>>,                                ,>>>>,                 o",
"o                 >>>>>>                                >>>>>>                 o",
"o                q>>>>>>q                              q>>>>>>q                o",
"o               6>>>>>>>>6                            6>>>>>>>>6               o",
"o              6>>>>>>>>>>6                          6>>>>>>>>>>6              o",
"o              6>>>>>>>>>>6                          6>>>>>>>>>>6              o",
"o               6>>>>>>>>6                            6>>>>>>>>6               o",
"o                q>>>>>>q                              q>>>>>>q                o",
"o                 >>>>>>                                >>>>>>                 o",
"o                 ,>>>>,                                ,>>>>,                 o",
"o                  >>>>                                  >>>>                  o",
"o                  6>>6                                  6>>6                  o",
"o                  3663                                  3663                  o",
"o                   33                                    33                   o",
"o                                                                              o",
"o                                                                              o",
"o                                                                              o",
"o                                                                              o",
"o                                                                              o",
"o                                                                              o",
"o                                                                              o",
"o                                                                              o",
"o                                                                              o",
"o                                                                              o",
"o                                                                              o",
"o                                                                              o",
"o                                                                              o",
"o                                                                              o",
"o                   33                                    33                   o",
"o                  3663                                  3663                  o",
"o                  6>>6                                  6>>6                  o",
"o                  >>>>                                  >>>>                  o",
"o                 ,>>>>,                                ,>>>>,                 o",
"o                 >>>>>>                                >>>>>>                 o",
"o                q>>>>>>q                              q>>>>>>q        <22<    o",
"o               6>>>>>>>>6                            6>>>>>>>>6       4554    o",
"o              6>>>>>>>>>>6                          6>>>>>>>>>>6      7>>7    o",
"o              6>>>>>>>>>>6                          6>>>>>>>>>>6      8>>8    o",
"o               6>>>>>>>>6                            6>>>>>>>>6     w9>>>>9%  o",
"o                q>>>>>>q                              q>>>>>>q      0>>>>>>0  o",
"o                 >>>>>>                                >>>>>>       0>>>>>>0  o",
"o                 ,>>>>,                                ,>>>>,       %9>>>>9%  o",
"o                  >>>>                                  >>>>          8>>8    o",
"o                  6>>6                                  6>>6          7>>7    o",
"o                  3663                                  3663          4554    o",
"o                   33                                    33           <21<    o",
"o                                                                       #*#    o",
"o                                                                     ;&*:*&;  o",
"o                                                                     *&  ;>-  o",
"o                                                                     >*   ,&  o",
"o                                                                     >*   *>  o",
"o                                                                     ,>;  *>  o",
"o                                                                     #>>*,>&  o",
"o                                                                      :**@>*  o",
"o                                                                         :>:  o",
"=+                                                                       ;&-  +=",
" $%                                                                    **&#  %$ ",
" .O+                                                                   #:   +O. ",
"   XooooooooooooooooooooooooooooooooooooooooooooooooooooooooooooooooooooooooX.  "};
