/* XPM */
static char * 6heart_xpm[] = {
"80 108 51 1",
" 	c #FFFFFFFFFFFF",
".	c #FFFFFBEEFFFF",
"X	c #A699A699A699",
"o	c #861782078617",
"O	c #C71BC30BC71B",
"+	c #EFBEEFBEEFBE",
"@	c #BEFBBEFBBEFB",
"#	c #E79DE79DE79D",
"$	c #FFFFCB2BCF3C",
"%	c #F7DEAEBAAEBA",
"&	c #A699A289A699",
"*	c #E79D20812081",
"=	c #EFBE59655965",
"-	c #EFBE75D671C6",
";	c #FFFFE38DE79D",
":	c #E79D04100000",
">	c #EFBE3CF338E3",
",	c #F7DEC71BC71B",
"<	c #E79DCF3CCF3C",
"1	c #EFBE51445144",
"2	c #E79D18611861",
"3	c #E79D92489658",
"4	c #F7DEEFBEEFBE",
"5	c #E79D1C711861",
"6	c #E79D08200820",
"7	c #EFBE5D755965",
"8	c #F7DE82078617",
"9	c #E79D0C300820",
"0	c #E79D24922081",
"q	c #F7DE92489658",
"w	c #EFBE9A699E79",
"e	c #DF7D69A669A6",
"r	c #EFBEEBADEFBE",
"t	c #D75C65956185",
"y	c #EFBE41034103",
"u	c #E79DDB6CDF7D",
"i	c #EFBEE79DE79D",
"p	c #DF7D49244924",
"a	c #E79D28A228A2",
"s	c #EFBECF3CCF3C",
"d	c #F7DEF3CEF7DE",
"f	c #DF7D86178617",
"g	c #E79D14511040",
"h	c #D75C59655965",
"j	c #EFBED75CD75C",
"k	c #F7DEF7DEF7DE",
"l	c #EFBE9E799E79",
"z	c #E79D34D330C2",
"x	c #EFBE92489658",
"c	c #EFBED34CD75C",
"v	c #F7DEAAAAAEBA",
"  .XooooooooooooooooooooooooooooooooooooooooooooooooooooooooooooooooooooooooX   ",
" .O+                                                                        +O. ",
" @#      $%                                                                  #@ ",
"&+     %*==                                                                   +&",
"o     -*;                                                                      o",
"o    $:$                                                                       o",
"o    =:$==$                                                                    o",
"o    *:>=::%                                                                   o",
"o    :=  ;:>                                                                   o",
"o    :=   =:                                                                   o",
"o    *>   =:                                                                   o",
"o    -:;  *=                                                                   o",
"o    ;*=$=*;      $>::>$  $>::>$                $>::>$  $>::>$                 o",
"o      %=%       $::::::,$::::::,              $::::::,$::::::,                o",
"o                =::::::==::::::=              =::::::==::::::=                o",
"o   <1:2343561<  ::::::::::::::::              ::::::::::::::::                o",
"o   7:::585:::7  ::::::::::::::::              ::::::::::::::::                o",
"o   6::::9::::6  =::::::::::::::>              >::::::::::::::=                o",
"o   0:::::::::2  ;::::::::::::::q              q::::::::::::::;                o",
"o   w9:::::::6e   q::::::::::::>                >::::::::::::q                 o",
"o   rt:::::::yu    =::::::::::*;                ;*::::::::::=                  o",
"o    ip6::::as      =::::::::*;                  ;*::::::::=                   o",
"o     dfg:9hj        %::::::>;                    ;>::::::%                    o",
"o      klzx+          $*:::q                        q:::*$                     o",
"o                      ;=>;                          ;>=;                      o",
"o                                                                              o",
"o                                                                              o",
"o                                                                              o",
"o                                                                              o",
"o                                                                              o",
"o                                                                              o",
"o                                                                              o",
"o                                                                              o",
"o                                                                              o",
"o                                                                              o",
"o                                                                              o",
"o                                                                              o",
"o                                                                              o",
"o                                                                              o",
"o                                                                              o",
"o                                                                              o",
"o                                                                              o",
"o                                                                              o",
"o                                                                              o",
"o                                                                              o",
"o                                                                              o",
"o                                                                              o",
"o                                                                              o",
"o                 $>::>$  $>::>$                $>::>$  $>::>$                 o",
"o                $::::::$$::::::$              $::::::$$::::::$                o",
"o                =::::::==::::::=              =::::::==::::::=                o",
"o                ::::::::::::::::              ::::::::::::::::                o",
"o                ::::::::::::::::              ::::::::::::::::                o",
"o                =::::::::::::::>              >::::::::::::::=                o",
"o                ;::::::::::::::q              q::::::::::::::;                o",
"o                 q::::::::::::>                >::::::::::::q                 o",
"o                  =::::::::::*;                ;*::::::::::=                  o",
"o                   =::::::::*;                  ;*::::::::=                   o",
"o                    %::::::>;                    ;>::::::%                    o",
"o                     $*:::q                        q:::*$                     o",
"o                      ;=>;                          ;>=;                      o",
"o                                                                              o",
"o                                                                              o",
"o                                                                              o",
"o                                                                              o",
"o                                                                              o",
"o                                                                              o",
"o                                                                              o",
"o                                                                              o",
"o                                                                              o",
"o                                                                              o",
"o                                                                              o",
"o                                                                              o",
"o                                                                              o",
"o                                                                              o",
"o                                                                              o",
"o                                                                              o",
"o                                                                              o",
"o                                                                              o",
"o                                                                              o",
"o                                                                              o",
"o                                                                              o",
"o                                                                              o",
"o                      ;=>;                          ;>=;                      o",
"o                     $*:::q                        q:::*$          rxzlk      o",
"o                    %::::::>;                    ;>::::::%        jh9:gfd     o",
"o                   =::::::::*;                  ;*::::::::=      ca::::6pi    o",
"o                  =::::::::::*;                ;*::::::::::=    uy:::::::t+   o",
"o                 q::::::::::::>                >::::::::::::q   e6:::::::9w   o",
"o                ;::::::::::::::q              q::::::::::::::;  2:::::::::0   o",
"o                =::::::::::::::>              >::::::::::::::=  6::::9::::6   o",
"o                ::::::::::::::::              ::::::::::::::::  7:::585:::7   o",
"o                ::::::::::::::::              ::::::::::::::::  <1653432:1<   o",
"o                =::::::==::::::=              =::::::==::::::=                o",
"o                ,::::::$,::::::$              ,::::::$,::::::$       %=%      o",
"o                 $>::>$  $>::>$                $>::>,  $>::>,      ;*=$=*;    o",
"o                                                                   =*  ;:-    o",
"o                                                                   :=   >*    o",
"o                                                                   :=   =:    o",
"o                                                                   >:;  =:    o",
"o                                                                   v::=>:*    o",
"o                                                                    $==$:=    o",
"o                                                                       $:,    o",
"o                                                                      ;*-     o",
"&+                                                                   ==*%     +&",
" @#                                                                  %$      #@ ",
" .O+                                                                        +O. ",
"   XooooooooooooooooooooooooooooooooooooooooooooooooooooooooooooooooooooooooX.  "};
