/* XPM */
static char * _6spade_xpm[] = {
"80 108 49 1",
" 	c #FFFFFFFFFFFF",
".	c #FFFFFBEEFFFF",
"X	c #A699A699A699",
"o	c #861782078617",
"O	c #C71BC30BC71B",
"+	c #EFBEEFBEEFBE",
"@	c #BEFBBEFBBEFB",
"#	c #E79DE79DE79D",
"$	c #C71BC71BC71B",
"%	c #AEBAAAAAAEBA",
"&	c #A699A289A699",
"*	c #18611C711861",
"=	c #514455555144",
"-	c #71C671C671C6",
";	c #E79DE38DE79D",
":	c #000000000000",
">	c #38E338E338E3",
",	c #965892489658",
"<	c #8E388A288E38",
"1	c #965896589658",
"2	c #CF3CCF3CCF3C",
"3	c #59655D755965",
"4	c #000004100000",
"5	c #D75CD75CD75C",
"6	c #38E33CF338E3",
"7	c #BEFBBAEABEFB",
"8	c #082008200820",
"9	c #104010401040",
"0	c #EFBEEBADEFBE",
"q	c #596559655965",
"w	c #F7DEF3CEF7DE",
"e	c #28A22CB228A2",
"r	c #79E77DF779E7",
"t	c #71C675D671C6",
"y	c #104014511040",
"u	c #08200C300820",
"i	c #492449244924",
"p	c #79E779E779E7",
"a	c #49244D344924",
"s	c #28A228A228A2",
"d	c #30C230C230C2",
"f	c #30C234D330C2",
"g	c #F7DEF7DEF7DE",
"h	c #186118611861",
"j	c #DF7DDF7DDF7D",
"k	c #B6DAB6DAB6DA",
"l	c #DF7DDB6CDF7D",
"z	c #861786178617",
"x	c #410341034103",
"  .XooooooooooooooooooooooooooooooooooooooooooooooooooooooooooooooooooooooooX   ",
" .O+                                                                        +O. ",
" @#     $%                                                                   #@ ",
"&+    %*==                                                                    +&",
"o    -*;                                                                       o",
"o   $:$                                                                        o",
"o   =:$==$                                                                     o",
"o   *:>=::%                                                                    o",
"o   :=  ;:>                                                                    o",
"o   :=   =:                                                                    o",
"o   *>   =:                                                                    o",
"o   -:;  *=                                                                    o",
"o   ;*=$=*;          ,,                                  ,,                    o",
"o     %=%           <::<                                <::<                   o",
"o                  1::::1                              1::::1                  o",
"o     232         &4::::4&                            &4::::4&                 o",
"o    56:65       78::::::87                          78::::::87                o",
"o   ;>:::>;     59::::::::95                        59::::::::95               o",
"o  0q:::::q0   we::::::::::ew                      we::::::::::ew              o",
"o  r4:::::8r   t::::::::::::t                      t::::::::::::t              o",
"o  y::8:4::y   u::::::::::::u                      u::::::::::::u              o",
"o  68ip:t68a   s::::d::f4:::*                      *:::4f::d::::s              o",
"o  +;g5h5gjw   X94fkl::l$iu8z                      z8ui$l::lkf49X              o",
"o     @u@       +;  ghhw  0#                        #0  whhg  ;+               o",
"o                   g**g                                g**g                   o",
"o                   7::7                                7::7                   o",
"o                                                                              o",
"o                                                                              o",
"o                                                                              o",
"o                                                                              o",
"o                                                                              o",
"o                                                                              o",
"o                                                                              o",
"o                                                                              o",
"o                                                                              o",
"o                                                                              o",
"o                                                                              o",
"o                                                                              o",
"o                                                                              o",
"o                                                                              o",
"o                                                                              o",
"o                                                                              o",
"o                                                                              o",
"o                                                                              o",
"o                                                                              o",
"o                                                                              o",
"o                    ,,                                  ,,                    o",
"o                   <::<                                <::<                   o",
"o                  1::::1                              1::::1                  o",
"o                 &4::::4&                            &4::::4&                 o",
"o                78::::::87                          78::::::87                o",
"o               59::::::::95                        59::::::::95               o",
"o              we::::::::::ew                      we::::::::::ew              o",
"o              t::::::::::::t                      t::::::::::::t              o",
"o              u::::::::::::u                      u::::::::::::u              o",
"o              s::::d::f4:::*                      *:::4f::d::::s              o",
"o              X94fkl::l$iu8z                      z8ui$l::lkf49X              o",
"o               +;  ghhw  0#                        #0  whhg  ;+               o",
"o                   g**g                                g**g                   o",
"o                   7::7                                7::7                   o",
"o                                                                              o",
"o                                                                              o",
"o                                                                              o",
"o                                                                              o",
"o                                                                              o",
"o                                                                              o",
"o                                                                              o",
"o                                                                              o",
"o                                                                              o",
"o                                                                              o",
"o                                                                              o",
"o                                                                              o",
"o                                                                              o",
"o                                                                              o",
"o                                                                              o",
"o                                                                              o",
"o                                                                              o",
"o                                                                              o",
"o                                                                              o",
"o                                                                              o",
"o                                                                              o",
"o                                                                              o",
"o                   k::7                                k::7                   o",
"o                   g**g                                g**g                   o",
"o               +;  whhw  0;                        ;0  whhw  ;+       @u@     o",
"o              X94fkl::l$iu8z                      z8ui$l::lkf49X   wjg5h5g;+  o",
"o              s::::d::f4:::*                      *:::4f::d::::s   a8xt:pi86  o",
"o              u::::::::::::u                      u::::::::::::u   y::4:8::y  o",
"o              t::::::::::::t                      t::::::::::::t   p8:::::4p  o",
"o              we::::::::::ew                      we::::::::::ew   0q:::::q0  o",
"o               59::::::::95                        59::::::::95     ;>:::>;   o",
"o                78::::::87                          78::::::87       56:65    o",
"o                 &4::::4&                            &4::::4&         232     o",
"o                  ,::::,                              ,::::,                  o",
"o                   <::<                                <::<           %=%     o",
"o                    ,,                                  ,,          ;*=$=*;   o",
"o                                                                    =*  ;:-   o",
"o                                                                    :=   >*   o",
"o                                                                    :=   =:   o",
"o                                                                    >:;  =:   o",
"o                                                                    %::=>:*   o",
"o                                                                     $==$:=   o",
"o                                                                        $:$   o",
"o                                                                       ;*-    o",
"&+                                                                    ==*%    +&",
" @#                                                                   %$     #@ ",
" .O+                                                                        +O. ",
"   XooooooooooooooooooooooooooooooooooooooooooooooooooooooooooooooooooooooooX.  "};
