/* XPM */
static char * 7heart_xpm[] = {
"80 108 50 1",
" 	c #FFFFFFFFFFFF",
".	c #FFFFFBEEFFFF",
"X	c #A699A699A699",
"o	c #861782078617",
"O	c #C71BC30BC71B",
"+	c #EFBEEFBEEFBE",
"@	c #BEFBBEFBBEFB",
"#	c #E79DE79DE79D",
"$	c #A699A289A699",
"%	c #EFBE59655965",
"&	c #FFFFCB2BCF3C",
"*	c #E79D04100000",
"=	c #EFBE75D671C6",
"-	c #EFBE3CF338E3",
";	c #F7DEAEBAAEBA",
":	c #FFFFE38DE79D",
">	c #F7DEC71BC71B",
",	c #F7DE92489658",
"<	c #E79D20812081",
"1	c #E79DCF3CCF3C",
"2	c #EFBE51445144",
"3	c #E79D18611861",
"4	c #E79D92489658",
"5	c #F7DEEFBEEFBE",
"6	c #E79D1C711861",
"7	c #E79D08200820",
"8	c #EFBE5D755965",
"9	c #F7DE82078617",
"0	c #E79D0C300820",
"q	c #E79D24922081",
"w	c #EFBE9A699E79",
"e	c #DF7D69A669A6",
"r	c #EFBEEBADEFBE",
"t	c #D75C65956185",
"y	c #EFBE41034103",
"u	c #E79DDB6CDF7D",
"i	c #EFBEE79DE79D",
"p	c #DF7D49244924",
"a	c #E79D28A228A2",
"s	c #EFBECF3CCF3C",
"d	c #F7DEF3CEF7DE",
"f	c #DF7D86178617",
"g	c #E79D14511040",
"h	c #D75C59655965",
"j	c #EFBED75CD75C",
"k	c #F7DEF7DEF7DE",
"l	c #EFBE9E799E79",
"z	c #E79D34D330C2",
"x	c #EFBE92489658",
"c	c #EFBED34CD75C",
"  .XooooooooooooooooooooooooooooooooooooooooooooooooooooooooooooooooooooooooX   ",
" .O+                                                                        +O. ",
" @#                                                                          #@ ",
"$+    %%%%%%%&                                                                +$",
"o     *******&                                                                 o",
"o     *&   =-                                                                  o",
"o     ;   :*:                                                                  o",
"o         -=                                                                   o",
"o        >*:                                                                   o",
"o        -=                                                                    o",
"o       ,*:                                                                    o",
"o       <,                                                                     o",
"o      ,<         &-**-&  &-**-&                &-**-&  &-**-&                 o",
"o     :*,        &******>&******>              &******>&******>                o",
"o                %******%%******%              %******%%******%                o",
"o   12*34546721  ****************              ****************                o",
"o   8***696***8  ****************              ****************                o",
"o   7****0****7  %**************-              -**************%                o",
"o   q*********3  :**************,              ,**************:                o",
"o   w0*******7e   ,************-                -************,                 o",
"o   rt*******yu    %**********<:                :<**********%                  o",
"o    ip7****as      %********<:                  :<********%                   o",
"o     dfg*0hj        ;******-:                    :-******;                    o",
"o      klzx+          &<***,                        ,***<&                     o",
"o                      :%-:                          :-%:                      o",
"o                                                                              o",
"o                                                                              o",
"o                                                                              o",
"o                                                                              o",
"o                                &-**-&  &-**-&                                o",
"o                               &******&&******&                               o",
"o                               %******%%******%                               o",
"o                               ****************                               o",
"o                               ****************                               o",
"o                               -**************%                               o",
"o                               ,**************:                               o",
"o                                -************,                                o",
"o                                :<**********%                                 o",
"o                                 :<********%                                  o",
"o                                  :-******;                                   o",
"o                                    ,***<>                                    o",
"o                                     :-%:                                     o",
"o                                                                              o",
"o                                                                              o",
"o                                                                              o",
"o                                                                              o",
"o                                                                              o",
"o                                                                              o",
"o                 &-**-&  &-**-&                &-**-&  &-**-&                 o",
"o                &******&&******&              &******&&******&                o",
"o                %******%%******%              %******%%******%                o",
"o                ****************              ****************                o",
"o                ****************              ****************                o",
"o                %**************-              -**************%                o",
"o                :**************,              ,**************:                o",
"o                 ,************-                -************,                 o",
"o                  %**********<:                :<**********%                  o",
"o                   %********<:                  :<********%                   o",
"o                    ;******-:                    :-******;                    o",
"o                     &<***,                        ,***<&                     o",
"o                      :%-:                          :-%:                      o",
"o                                                                              o",
"o                                                                              o",
"o                                                                              o",
"o                                                                              o",
"o                                                                              o",
"o                                                                              o",
"o                                                                              o",
"o                                                                              o",
"o                                                                              o",
"o                                                                              o",
"o                                                                              o",
"o                                                                              o",
"o                                                                              o",
"o                                                                              o",
"o                                                                              o",
"o                                                                              o",
"o                                                                              o",
"o                                                                              o",
"o                                                                              o",
"o                                                                              o",
"o                                                                              o",
"o                                                                              o",
"o                      :%-:                          :-%:                      o",
"o                     &<***,                        ,***<&          rxzlk      o",
"o                    ;******-:                    :-******;        jh0*gfd     o",
"o                   %********<:                  :<********%      ca****7pi    o",
"o                  %**********<:                :<**********%    uy*******t+   o",
"o                 ,************-                -************,   e7*******0w   o",
"o                :**************,              ,**************:  3*********q   o",
"o                %**************-              -**************%  7****0****7   o",
"o                ****************              ****************  8***696***8   o",
"o                ****************              ****************  12764543*21   o",
"o                %******%%******%              %******%%******%                o",
"o                >******&>******&              >******&>******&        ,*:     o",
"o                 &-**-&  &-**-&                &-**->  &-**->         <,      o",
"o                                                                     ,<       o",
"o                                                                    :*,       o",
"o                                                                    =-        o",
"o                                                                   :*&        o",
"o                                                                   =-         o",
"o                                                                  :*:   ;     o",
"o                                                                  -=   &*     o",
"o                                                                 &*******     o",
"$+                                                                &%%%%%%%    +$",
" @#                                                                          #@ ",
" .O+                                                                        +O. ",
"   XooooooooooooooooooooooooooooooooooooooooooooooooooooooooooooooooooooooooX.  "};
