/* XPM */
static char * _7spade_xpm[] = {
"80 108 51 1",
" 	c #FFFFFFFFFFFF",
".	c #FFFFFBEEFFFF",
"X	c #A699A699A699",
"o	c #861782078617",
"O	c #C71BC30BC71B",
"+	c #EFBEEFBEEFBE",
"@	c #BEFBBEFBBEFB",
"#	c #E79DE79DE79D",
"$	c #A699A289A699",
"%	c #514455555144",
"&	c #C71BC71BC71B",
"*	c #000000000000",
"=	c #71C671C671C6",
"-	c #38E338E338E3",
";	c #AEBAAAAAAEBA",
":	c #E79DE38DE79D",
">	c #8E388E388E38",
",	c #18611C711861",
"<	c #965892489658",
"1	c #8E388A288E38",
"2	c #965896589658",
"3	c #CF3CCF3CCF3C",
"4	c #59655D755965",
"5	c #000004100000",
"6	c #D75CD75CD75C",
"7	c #38E33CF338E3",
"8	c #BEFBBAEABEFB",
"9	c #082008200820",
"0	c #104010401040",
"q	c #EFBEEBADEFBE",
"w	c #596559655965",
"e	c #F7DEF3CEF7DE",
"r	c #28A22CB228A2",
"t	c #79E77DF779E7",
"y	c #71C675D671C6",
"u	c #104014511040",
"i	c #08200C300820",
"p	c #492449244924",
"a	c #79E779E779E7",
"s	c #49244D344924",
"d	c #28A228A228A2",
"f	c #30C230C230C2",
"g	c #30C234D330C2",
"h	c #F7DEF7DEF7DE",
"j	c #186118611861",
"k	c #DF7DDF7DDF7D",
"l	c #B6DAB6DAB6DA",
"z	c #DF7DDB6CDF7D",
"x	c #861786178617",
"c	c #208124922081",
"v	c #410341034103",
"  .XooooooooooooooooooooooooooooooooooooooooooooooooooooooooooooooooooooooooX   ",
" .O+                                                                        +O. ",
" @#                                                                          #@ ",
"$+  %%%%%%%&                                                                  +$",
"o   *******&                                                                   o",
"o   *&   =-                                                                    o",
"o   ;   :*:                                                                    o",
"o       -=                                                                     o",
"o      &*:                                                                     o",
"o      -=                                                                      o",
"o     >*:                                                                      o",
"o     ,>                                                                       o",
"o    >,              <<                                  <<                    o",
"o   :*>             1**1                                1**1                   o",
"o                  2****2                              2****2                  o",
"o     343         $5****5$                            $5****5$                 o",
"o    67*76       89******98                          89******98                o",
"o   :-***-:     60********06                        60********06               o",
"o  qw*****wq   er**********re                      er**********re              o",
"o  t5*****9t   y************y                      y************y              o",
"o  u**9*5**u   i************i                      i************i              o",
"o  79pa*y79s   d****f**g5***,                      ,***5g**f****d              o",
"o  +:h6j6hke   X05glz**z&pi9x                      x9ip&z**zlg50X              o",
"o     @i@       +:  hjje  q#                        #q  ejjh  :+               o",
"o                   h,,h                                h,,h                   o",
"o                   8**8                                8**8                   o",
"o                                                                              o",
"o                                                                              o",
"o                                      <<                                      o",
"o                                     1**1                                     o",
"o                                    2****2                                    o",
"o                                   $5****5$                                   o",
"o                                  89******98                                  o",
"o                                 60********06                                 o",
"o                                er**********re                                o",
"o                                y************y                                o",
"o                                i************i                                o",
"o                                c****f**g5***,                                o",
"o                                X05glz**z&pi9x                                o",
"o                                 +:  hjje  q#                                 o",
"o                                     h,,h                                     o",
"o                                     8**8                                     o",
"o                                                                              o",
"o                                                                              o",
"o                                                                              o",
"o                                                                              o",
"o                    <<                                  <<                    o",
"o                   1**1                                1**1                   o",
"o                  2****2                              2****2                  o",
"o                 $5****5$                            $5****5$                 o",
"o                89******98                          89******98                o",
"o               60********06                        60********06               o",
"o              er**********re                      er**********re              o",
"o              y************y                      y************y              o",
"o              i************i                      i************i              o",
"o              d****f**g5***,                      ,***5g**f****d              o",
"o              X05glz**z&pi9x                      x9ip&z**zlg50X              o",
"o               +:  hjje  q#                        #q  ejjh  :+               o",
"o                   h,,h                                h,,h                   o",
"o                   8**8                                8**8                   o",
"o                                                                              o",
"o                                                                              o",
"o                                                                              o",
"o                                                                              o",
"o                                                                              o",
"o                                                                              o",
"o                                                                              o",
"o                                                                              o",
"o                                                                              o",
"o                                                                              o",
"o                                                                              o",
"o                                                                              o",
"o                                                                              o",
"o                                                                              o",
"o                                                                              o",
"o                                                                              o",
"o                                                                              o",
"o                                                                              o",
"o                                                                              o",
"o                                                                              o",
"o                                                                              o",
"o                                                                              o",
"o                   l**8                                l**8                   o",
"o                   h,,h                                h,,h                   o",
"o               +:  ejje  q:                        :q  ejje  :+       @i@     o",
"o              X05glz**z&pi9x                      x9ip&z**zlg50X   ekh6j6h:+  o",
"o              d****f**g5***,                      ,***5g**f****d   s9vy*ap97  o",
"o              i************i                      i************i   u**5*9**u  o",
"o              y************y                      y************y   a9*****5a  o",
"o              er**********re                      er**********re   qw*****wq  o",
"o               60********06                        60********06     :-***-:   o",
"o                89******98                          89******98       67*76    o",
"o                 $5****5$                            $5****5$         343     o",
"o                  <****<                              <****<                  o",
"o                   1**1                                1**1             >*:   o",
"o                    <<                                  <<              ,>    o",
"o                                                                       >,     o",
"o                                                                      :*>     o",
"o                                                                      =-      o",
"o                                                                     :*&      o",
"o                                                                     =-       o",
"o                                                                    :*:   ;   o",
"o                                                                    -=   &*   o",
"o                                                                   &*******   o",
"$+                                                                  &%%%%%%%  +$",
" @#                                                                          #@ ",
" .O+                                                                        +O. ",
"   XooooooooooooooooooooooooooooooooooooooooooooooooooooooooooooooooooooooooX.  "};
