/* XPM */
static char * 8club_xpm[] = {
"80 108 46 1",
" 	c #FFFFFFFFFFFF",
".	c #FFFFFBEEFFFF",
"X	c #A699A699A699",
"o	c #861782078617",
"O	c #C71BC30BC71B",
"+	c #EFBEEFBEEFBE",
"@	c #BEFBBEFBBEFB",
"#	c #E79DE79DE79D",
"$	c #8E388E388E38",
"%	c #38E338E338E3",
"&	c #514455555144",
"*	c #18611C711861",
"=	c #A699A289A699",
"-	c #C71BC71BC71B",
";	c #000000000000",
":	c #AEBAAAAAAEBA",
">	c #E79DE38DE79D",
",	c #71C671C671C6",
"<	c #9E799A699E79",
"1	c #28A228A228A2",
"2	c #38E33CF338E3",
"3	c #000004100000",
"4	c #F7DEF7DEF7DE",
"5	c #082008200820",
"6	c #F7DEF3CEF7DE",
"7	c #69A669A669A6",
"8	c #08200C300820",
"9	c #410341034103",
"0	c #49244D344924",
"q	c #618565956185",
"w	c #965892489658",
"e	c #208120812081",
"r	c #208124922081",
"t	c #B6DAB2CAB6DA",
"y	c #71C675D671C6",
"u	c #104010401040",
"i	c #104014511040",
"p	c #30C230C230C2",
"a	c #186118611861",
"s	c #CF3CCB2BCF3C",
"d	c #59655D755965",
"f	c #596559655965",
"g	c #410345144103",
"h	c #DF7DDF7DDF7D",
"j	c #514451445144",
"k	c #EFBEEBADEFBE",
"  .XooooooooooooooooooooooooooooooooooooooooooooooooooooooooooooooooooooooooX   ",
" .O+                                                                        +O. ",
" @#  $%&*$                                                                   #@ ",
"=+  -;- $;$                                                                   +=",
"o   &;   ;&                                                                    o",
"o   &;: >;,                                                                    o",
"o   >*;%&&                                                                     o",
"o   >&&;;%>                                                                    o",
"o  >*, >&;%                                                                    o",
"o  :;:   %;                                                                    o",
"o  -;,   %*                                                                    o",
"o   &;$ $;:                                                                    o",
"o    -,&:>           <1;1<                             <1;1<                   o",
"o                   <;;;;;<                           <;;;;;<                  o",
"o                   1;;;;;1                           1;;;;;1                  o",
"o    @232@          ;;;;;;;                           ;;;;;;;                  o",
"o   42;;;24         1;;;;;1                           1;;;;;1                  o",
"o   +5;;;56      7889;;;;;0;;q                     7889;;;;;0;;q               o",
"o +:we;;;r$t#   7;;;;9;;;0;;;;q                   7;;;;9;;;0;;;;q              o",
"o yu3*u;ie;8y   8;;;;8;;;;;;;;;                   8;;;;8;;;;;;;;;              o",
"o 5;;33;;;;;;   8;;;;8;;;;;;;;;                   8;;;;8;;;;;;;;;              o",
"o p;;ia;iu;;1   7;;;;7;;;q;;;;q                   7;;;;7;;;q;;;;q              o",
"o s0%<d;fo1g-    7887 ;;; q;;q                     7887 ;;; q;;q               o",
"o    >g;gh            ;;;                               ;;;                    o",
"o   6j5;5d4          0;;;0                             0;;;0                   o",
"o                   0;;;;;0                           0;;;;;0                  o",
"o                                                                              o",
"o                                                                              o",
"o                                                                              o",
"o                                     <1;1<                                    o",
"o                                    <;;;;;<                                   o",
"o                                    1;;;;;1                                   o",
"o                                    ;;;;;;;                                   o",
"o                                    1;;;;;1                                   o",
"o                                 7889;;;;;0;;q                                o",
"o                                7;;;;9;;;0;;;;q                               o",
"o                                8;;;;8;;;;;;;;;                               o",
"o                                8;;;;8;;;;;;;;;                               o",
"o                                7;;;;7;;;q;;;;q                               o",
"o                                 7887 ;;; q;;q                                o",
"o                                      ;;;                                     o",
"o                                     0;;;0                                    o",
"o                                    0;;;;;0                                   o",
"o                                                                              o",
"o                                                                              o",
"o                                                                              o",
"o                    <1;1<                             <1;1<                   o",
"o                   <;;;;;<                           <;;;;;<                  o",
"o                   1;;;;;1                           1;;;;;1                  o",
"o                   ;;;;;;;                           ;;;;;;;                  o",
"o                   1;;;;;1                           1;;;;;1                  o",
"o                7889;;;;;0;;q                     7889;;;;;0;;q               o",
"o               7;;;;9;;;0;;;;q                   7;;;;9;;;0;;;;q              o",
"o               8;;;;8;;;;;;;;;                   8;;;;8;;;;;;;;;              o",
"o               8;;;;8;;;;;;;;;                   8;;;;8;;;;;;;;;              o",
"o               7;;;;7;;;q;;;;q                   7;;;;7;;;q;;;;q              o",
"o                7887 ;;; q;;q                     7887 ;;; q;;q               o",
"o                     ;;;                               ;;;                    o",
"o                    0;;;0                             0;;;0                   o",
"o                   0;;;;;0                           0;;;;;0                  o",
"o                                                                              o",
"o                                                                              o",
"o                                                                              o",
"o                                                                              o",
"o                                                                              o",
"o                                    0;;;;;0                                   o",
"o                                     0;;;0                                    o",
"o                                      ;;;                                     o",
"o                                 7887 ;;; q;;q                                o",
"o                                7;;;;7;;;q;;;;q                               o",
"o                                8;;;;8;;;;;;;;;                               o",
"o                                8;;;;8;;;;;;;;;                               o",
"o                                7;;;;9;;;0;;;;q                               o",
"o                                 7889;;;;;0;;q                                o",
"o                                    1;;;;;1                                   o",
"o                                    ;;;;;;;                                   o",
"o                                    1;;;;;1                                   o",
"o                                    <;;;;;<                                   o",
"o                                     <1;1<                                    o",
"o                                                                              o",
"o                                                                              o",
"o                                                                              o",
"o                   0;;;;;0                           0;;;;;0                  o",
"o                    0;;;0                             0;;;0         4d5;5j6   o",
"o                     ;;;                               ;;;           hg;g>    o",
"o                7887 ;;; q;;q                     7887 ;;; q;;q   -g1of;d<%0s o",
"o               7;;;;7;;;q;;;;q                   7;;;;7;;;q;;;;q  1;;ui;ai;;p o",
"o               8;;;;8;;;;;;;;;                   8;;;;8;;;;;;;;;  ;;;;;;33;;5 o",
"o               8;;;;8;;;;;;;;;                   8;;;;8;;;;;;;;;  y8;ei;ua3uy o",
"o               7;;;;9;;;0;;;;q                   7;;;;9;;;0;;;;q  kt$r;;;ew:+ o",
"o                7889;;;;;0;;q                     7889;;;;;0;;q     65;;;5+   o",
"o                   1;;;;;1                           1;;;;;1        42;;;24   o",
"o                   ;;;;;;;                           ;;;;;;;         @232@    o",
"o                   1;;;;;1                           1;;;;;1                  o",
"o                   <;;;;;<                           <;;;;;<                  o",
"o                    <1;1<                             <1;1<          >:&,-    o",
"o                                                                    :;$ $;&   o",
"o                                                                    *%   ,;-  o",
"o                                                                    ;%   :;:  o",
"o                                                                    %;&> ,*>  o",
"o                                                                    >%;;&&>   o",
"o                                                                     &&%;*>   o",
"o                                                                    ,;> :;&   o",
"o                                                                    &;   ;&   o",
"=+                                                                   $;$ -;-  +=",
" @#                                                                   $*&%$  #@ ",
" .O+                                                                        +O. ",
"   XooooooooooooooooooooooooooooooooooooooooooooooooooooooooooooooooooooooooX.  "};
