/* XPM */
static char * 8diamond_xpm[] = {
"80 108 37 1",
" 	c None",
".	c #965896589658",
"X	c #861782078617",
"o	c #AEBAAEBAAEBA",
"O	c #EFBEEFBEEFBE",
"+	c #FFFFFFFFFFFF",
"@	c #E79DE79DE79D",
"#	c #F7DE92489658",
"$	c #EFBE3CF338E3",
"%	c #EFBE59655965",
"&	c #E79D20812081",
"*	c #965892489658",
"=	c #FFFFCB2BCF3C",
"-	c #E79D04100000",
";	c #F7DEAEBAAEBA",
":	c #FFFFE38DE79D",
">	c #EFBE75D671C6",
",	c #F7DEC71BC71B",
"<	c #F7DE8E388E38",
"1	c #F7DEAAAAAEBA",
"2	c #F7DEF3CEF7DE",
"3	c #D75C82078617",
"4	c #DF7D86178617",
"5	c #F7DE82078617",
"6	c #F7DE86178617",
"7	c #CF3CBAEABEFB",
"8	c #E79D18611861",
"9	c #E79D0C300820",
"0	c #BEFB82078617",
"q	c #BEFB7DF779E7",
"w	c #E79D10401040",
"e	c #C71B45144103",
"r	c #C71B41034103",
"t	c #E79D1C711861",
"y	c #E79DE38DE79D",
"u	c #E79D08200820",
"i	c #E79D14511040",
"   .XXXXXXXXXXXXXXXXXXXXXXXXXXXXXXXXXXXXXXXXXXXXXXXXXXXXXXXXXXXXXXXXXXXXXXXX.   ",
"  oO++++++++++++++++++++++++++++++++++++++++++++++++++++++++++++++++++++++++Oo  ",
" o@++#$%&#+++++++++++++++++++++++++++++++++++++++++++++++++++++++++++++++++++@o ",
"*O++=-=+#-#+++++++++++++++++++++++++++++++++++++++++++++++++++++++++++++++++++O*",
"X+++%-+++-%++++++++++++++++++++++++++++++++++++++++++++++++++++++++++++++++++++X",
"X+++%-;+:->++++++++++++++++++++++++++++++++++++++++++++++++++++++++++++++++++++X",
"X+++:&-$%%+++++++++++++++++++++++++++++++++++++++++++++++++++++++++++++++++++++X",
"X+++:%%--$:++++++++++++++++++++++++++++++++++++++++++++++++++++++++++++++++++++X",
"X++:&>+:%-$++++++++++++++++++++++++++++++++++++++++++++++++++++++++++++++++++++X",
"X++;-;+++$-++++++++++++++++++++++++++++++++++++++++++++++++++++++++++++++++++++X",
"X++,->+++$&++++++++++++++++++++++++++++++++++++++++++++++++++++++++++++++++++++X",
"X+++%-<+#-1++++++++++++++++++++++++++++++++++++++++++++++++++++++++++++++++++++X",
"X++++=>%;:+++++++++++++++++++++++++++++++++++++++++++++++++++++++++++++++++++++X",
"X++++2342+++++++++++56++++++++++++++++++++++++++++++++++++56+++++++++++++++++++X",
"X++++7887++++++++++6996++++++++++++++++++++++++++++++++++6996++++++++++++++++++X",
"X++++0--q++++++++++9--9++++++++++++++++++++++++++++++++++9--9++++++++++++++++++X",
"X++++w--w++++++++++----++++++++++++++++++++++++++++++++++----++++++++++++++++++X",
"X++@e----e@+++++++$----$++++++++++++++++++++++++++++++++$----$+++++++++++++++++X",
"X++r------r+++++++------++++++++++++++++++++++++++++++++------+++++++++++++++++X",
"X++r------r++++++t------t++++++++++++++++++++++++++++++t------t++++++++++++++++X",
"X++ye----e@+++++9--------9++++++++++++++++++++++++++++9--------9+++++++++++++++X",
"X++++w--w++++++9----------9++++++++++++++++++++++++++9----------9++++++++++++++X",
"X++++0--0++++++9----------9++++++++++++++++++++++++++9----------9++++++++++++++X",
"X++++7887+++++++9--------9++++++++++++++++++++++++++++9--------9+++++++++++++++X",
"X++++2442++++++++t------t++++++++++++++++++++++++++++++t------t++++++++++++++++X",
"X+++++++++++++++++------++++++++++++++++++++++++++++++++------+++++++++++++++++X",
"X+++++++++++++++++$----$++++++++++++++++++++++++++++++++$----$+++++++++++++++++X",
"X++++++++++++++++++----++++++++++++++++66++++++++++++++++----++++++++++++++++++X",
"X++++++++++++++++++9--9+++++++++++++++6996+++++++++++++++9--9++++++++++++++++++X",
"X++++++++++++++++++6996+++++++++++++++9--9+++++++++++++++6996++++++++++++++++++X",
"X+++++++++++++++++++66++++++++++++++++----++++++++++++++++66+++++++++++++++++++X",
"X++++++++++++++++++++++++++++++++++++$----$++++++++++++++++++++++++++++++++++++X",
"X++++++++++++++++++++++++++++++++++++------++++++++++++++++++++++++++++++++++++X",
"X+++++++++++++++++++++++++++++++++++t------t+++++++++++++++++++++++++++++++++++X",
"X++++++++++++++++++++++++++++++++++9--------9++++++++++++++++++++++++++++++++++X",
"X+++++++++++++++++++++++++++++++++9----------9+++++++++++++++++++++++++++++++++X",
"X+++++++++++++++++++++++++++++++++9----------9+++++++++++++++++++++++++++++++++X",
"X++++++++++++++++++++++++++++++++++9--------9++++++++++++++++++++++++++++++++++X",
"X+++++++++++++++++++++++++++++++++++t------t+++++++++++++++++++++++++++++++++++X",
"X++++++++++++++++++++++++++++++++++++------++++++++++++++++++++++++++++++++++++X",
"X++++++++++++++++++++++++++++++++++++$----$++++++++++++++++++++++++++++++++++++X",
"X+++++++++++++++++++++++++++++++++++++----+++++++++++++++++++++++++++++++++++++X",
"X+++++++++++++++++++++++++++++++++++++9--9+++++++++++++++++++++++++++++++++++++X",
"X+++++++++++++++++++++++++++++++++++++6996+++++++++++++++++++++++++++++++++++++X",
"X++++++++++++++++++++++++++++++++++++++66++++++++++++++++++++++++++++++++++++++X",
"X+++++++++++++++++++56++++++++++++++++++++++++++++++++++++66+++++++++++++++++++X",
"X++++++++++++++++++6996++++++++++++++++++++++++++++++++++6996++++++++++++++++++X",
"X++++++++++++++++++9--9++++++++++++++++++++++++++++++++++9--9++++++++++++++++++X",
"X++++++++++++++++++----++++++++++++++++++++++++++++++++++----++++++++++++++++++X",
"X+++++++++++++++++$----$++++++++++++++++++++++++++++++++$----$+++++++++++++++++X",
"X+++++++++++++++++------++++++++++++++++++++++++++++++++------+++++++++++++++++X",
"X++++++++++++++++t------t++++++++++++++++++++++++++++++t------t++++++++++++++++X",
"X+++++++++++++++9--------9++++++++++++++++++++++++++++9--------9+++++++++++++++X",
"X++++++++++++++9----------9++++++++++++++++++++++++++9----------9++++++++++++++X",
"X++++++++++++++9----------9++++++++++++++++++++++++++9----------9++++++++++++++X",
"X+++++++++++++++9--------9++++++++++++++++++++++++++++9--------9+++++++++++++++X",
"X++++++++++++++++t------t++++++++++++++++++++++++++++++t------t++++++++++++++++X",
"X+++++++++++++++++------++++++++++++++++++++++++++++++++------+++++++++++++++++X",
"X+++++++++++++++++$----$++++++++++++++++++++++++++++++++$----$+++++++++++++++++X",
"X++++++++++++++++++----++++++++++++++++++++++++++++++++++----++++++++++++++++++X",
"X++++++++++++++++++9--9++++++++++++++++++++++++++++++++++9--9++++++++++++++++++X",
"X++++++++++++++++++6u96++++++++++++++++++++++++++++++++++6996++++++++++++++++++X",
"X+++++++++++++++++++65++++++++++++++++++++++++++++++++++++66+++++++++++++++++++X",
"X++++++++++++++++++++++++++++++++++++++66++++++++++++++++++++++++++++++++++++++X",
"X+++++++++++++++++++++++++++++++++++++6996+++++++++++++++++++++++++++++++++++++X",
"X+++++++++++++++++++++++++++++++++++++9--9+++++++++++++++++++++++++++++++++++++X",
"X+++++++++++++++++++++++++++++++++++++----+++++++++++++++++++++++++++++++++++++X",
"X++++++++++++++++++++++++++++++++++++$----$++++++++++++++++++++++++++++++++++++X",
"X++++++++++++++++++++++++++++++++++++------++++++++++++++++++++++++++++++++++++X",
"X+++++++++++++++++++++++++++++++++++t------t+++++++++++++++++++++++++++++++++++X",
"X++++++++++++++++++++++++++++++++++9--------9++++++++++++++++++++++++++++++++++X",
"X+++++++++++++++++++++++++++++++++9----------9+++++++++++++++++++++++++++++++++X",
"X+++++++++++++++++++++++++++++++++9----------9+++++++++++++++++++++++++++++++++X",
"X++++++++++++++++++++++++++++++++++9--------9++++++++++++++++++++++++++++++++++X",
"X+++++++++++++++++++++++++++++++++++t------t+++++++++++++++++++++++++++++++++++X",
"X++++++++++++++++++++++++++++++++++++------++++++++++++++++++++++++++++++++++++X",
"X++++++++++++++++++++++++++++++++++++$----$++++++++++++++++++++++++++++++++++++X",
"X+++++++++++++++++++56++++++++++++++++----++++++++++++++++66+++++++++++++++++++X",
"X++++++++++++++++++6996+++++++++++++++9--9+++++++++++++++6996++++++++++++++++++X",
"X++++++++++++++++++9--9+++++++++++++++6996+++++++++++++++9--9++++++++++++++++++X",
"X++++++++++++++++++----++++++++++++++++66++++++++++++++++----++++++++++++++++++X",
"X+++++++++++++++++$----$++++++++++++++++++++++++++++++++$----$+++++++++++++++++X",
"X+++++++++++++++++------++++++++++++++++++++++++++++++++------+++++++++++++++++X",
"X++++++++++++++++t------t++++++++++++++++++++++++++++++t------t++++++++2442++++X",
"X+++++++++++++++9--------9++++++++++++++++++++++++++++9--------9+++++++7i87++++X",
"X++++++++++++++9----------9++++++++++++++++++++++++++9----------9++++++0--0++++X",
"X++++++++++++++9----------9++++++++++++++++++++++++++9----------9++++++w--w++++X",
"X+++++++++++++++9--------9++++++++++++++++++++++++++++9--------9+++++ye----e@++X",
"X++++++++++++++++t------8++++++++++++++++++++++++++++++8------8++++++r------r++X",
"X+++++++++++++++++------++++++++++++++++++++++++++++++++------+++++++r------r++X",
"X+++++++++++++++++$----$++++++++++++++++++++++++++++++++$----$+++++++@e----e@++X",
"X++++++++++++++++++----++++++++++++++++++++++++++++++++++----++++++++++w--w++++X",
"X++++++++++++++++++9--9++++++++++++++++++++++++++++++++++9--9++++++++++q--0++++X",
"X++++++++++++++++++5u96++++++++++++++++++++++++++++++++++69u5++++++++++7i87++++X",
"X+++++++++++++++++++65++++++++++++++++++++++++++++++++++++65+++++++++++2432++++X",
"X+++++++++++++++++++++++++++++++++++++++++++++++++++++++++++++++++++++:;%>=++++X",
"X++++++++++++++++++++++++++++++++++++++++++++++++++++++++++++++++++++;-#+#-%+++X",
"X++++++++++++++++++++++++++++++++++++++++++++++++++++++++++++++++++++&$+++>-=++X",
"X++++++++++++++++++++++++++++++++++++++++++++++++++++++++++++++++++++-$+++1-1++X",
"X++++++++++++++++++++++++++++++++++++++++++++++++++++++++++++++++++++$-%:+>&:++X",
"X++++++++++++++++++++++++++++++++++++++++++++++++++++++++++++++++++++:$--%%:+++X",
"X+++++++++++++++++++++++++++++++++++++++++++++++++++++++++++++++++++++%%$-&:+++X",
"X++++++++++++++++++++++++++++++++++++++++++++++++++++++++++++++++++++>-:+1-%+++X",
"X++++++++++++++++++++++++++++++++++++++++++++++++++++++++++++++++++++%-+++-%+++X",
"*O+++++++++++++++++++++++++++++++++++++++++++++++++++++++++++++++++++#-#+=-=++O*",
" o@+++++++++++++++++++++++++++++++++++++++++++++++++++++++++++++++++++#&%$#++@o ",
"  oO++++++++++++++++++++++++++++++++++++++++++++++++++++++++++++++++++++++++Oo  ",
"   .XXXXXXXXXXXXXXXXXXXXXXXXXXXXXXXXXXXXXXXXXXXXXXXXXXXXXXXXXXXXXXXXXXXXXXXX.   "};
