/* XPM */
static char * _9club_xpm[] = {
"80 108 46 1",
" 	c #FFFFFFFFFFFF",
".	c #FFFFFBEEFFFF",
"X	c #A699A699A699",
"o	c #861782078617",
"O	c #C71BC30BC71B",
"+	c #EFBEEFBEEFBE",
"@	c #BEFBBEFBBEFB",
"#	c #E79DE79DE79D",
"$	c #A699A289A699",
"%	c #71C671C671C6",
"&	c #38E338E338E3",
"*	c #514455555144",
"=	c #18611C711861",
"-	c #8E388E388E38",
";	c #E79DE38DE79D",
":	c #AEBAAAAAAEBA",
">	c #000000000000",
",	c #C71BC71BC71B",
"<	c #9E799A699E79",
"1	c #28A228A228A2",
"2	c #38E33CF338E3",
"3	c #000004100000",
"4	c #69A669A669A6",
"5	c #08200C300820",
"6	c #410341034103",
"7	c #49244D344924",
"8	c #618565956185",
"9	c #F7DEF7DEF7DE",
"0	c #082008200820",
"q	c #F7DEF3CEF7DE",
"w	c #965892489658",
"e	c #208120812081",
"r	c #208124922081",
"t	c #B6DAB2CAB6DA",
"y	c #71C675D671C6",
"u	c #104010401040",
"i	c #104014511040",
"p	c #30C230C230C2",
"a	c #186118611861",
"s	c #CF3CCB2BCF3C",
"d	c #59655D755965",
"f	c #596559655965",
"g	c #410345144103",
"h	c #DF7DDF7DDF7D",
"j	c #514451445144",
"k	c #EFBEEBADEFBE",
"  .XooooooooooooooooooooooooooooooooooooooooooooooooooooooooooooooooooooooooX   ",
" .O+                                                                        +O. ",
" @#                                                                          #@ ",
"$+   %&*=-                                                                    +$",
"o   *=; :>:                                                                    o",
"o  ;>-   =&                                                                    o",
"o  :>:   *>                                                                    o",
"o  :>%   *>                                                                    o",
"o   =>- ,>&                                                                    o",
"o   ;&>=*>-                                                                    o",
"o       *=          <1>1<                               <1>1<                  o",
"o      :=;         <>>>>><                             <>>>>><                 o",
"o    ;**;          1>>>>>1                             1>>>>>1                 o",
"o   :*,            >>>>>>>                             >>>>>>>                 o",
"o                  1>>>>>1                             1>>>>>1                 o",
"o    @232@      4556>>>>>7>>8                       4556>>>>>7>>8              o",
"o   92>>>29    4>>>>6>>>7>>>>8                     4>>>>6>>>7>>>>8             o",
"o   +0>>>0q    5>>>>5>>>>>>>>>                     5>>>>5>>>>>>>>>             o",
"o +:we>>>r-t#  5>>>>5>>>>>>>>>                     5>>>>5>>>>>>>>>             o",
"o yu3=u>ie>5y  4>>>>4>>>8>>>>8                     4>>>>4>>>8>>>>8             o",
"o 0>>33>>>>>>   4554 >>> 8>>8                       4554 >>> 8>>8              o",
"o p>>ia>iu>>1        >>>                                 >>>                   o",
"o s7&<d>fo1g,       7>>>7                               7>>>7                  o",
"o    ;g>gh         7>>>>>7                             7>>>>>7                 o",
"o   qj0>0d9                                                                    o",
"o                                                                              o",
"o                                                                              o",
"o                                                                              o",
"o                                                                              o",
"o                                                                              o",
"o                                                                              o",
"o                                                                              o",
"o                                                                              o",
"o                                                                              o",
"o                   <1>1<                               <1>1<                  o",
"o                  <>>>>><                             <>>>>><                 o",
"o                  1>>>>>1                             1>>>>>1                 o",
"o                  >>>>>>>                             >>>>>>>                 o",
"o                  1>>>>>1                             1>>>>>1                 o",
"o               4556>>>>>7>>8                       4556>>>>>7>>8              o",
"o              4>>>>6>>>7>>>>8                     4>>>>6>>>7>>>>8             o",
"o              5>>>>5>>>>>>>>>                     5>>>>5>>>>>>>>>             o",
"o              5>>>>5>>>>>>>>>                     5>>>>5>>>>>>>>>             o",
"o              4>>>>4>>>8>>>>8                     4>>>>4>>>8>>>>8             o",
"o               4554 >>> 8>>8                       4554 >>> 8>>8              o",
"o                    >>>                                 >>>                   o",
"o                   7>>>7                               7>>>7                  o",
"o                  7>>>>>7            <1>1<            7>>>>>7                 o",
"o                                    <>>>>><                                   o",
"o                                    1>>>>>1                                   o",
"o                                    >>>>>>>                                   o",
"o                                    1>>>>>1                                   o",
"o                                 4556>>>>>7>>8                                o",
"o                                4>>>>6>>>7>>>>8                               o",
"o                                5>>>>5>>>>>>>>>                               o",
"o                                5>>>>5>>>>>>>>>                               o",
"o                                4>>>>4>>>8>>>>8                               o",
"o                                 4554 >>> 8>>8                                o",
"o                                      >>>                                     o",
"o                                     7>>>7                                    o",
"o                                    7>>>>>7                                   o",
"o                  7>>>>>7                             7>>>>>7                 o",
"o                   7>>>7                               7>>>7                  o",
"o                    >>>                                 >>>                   o",
"o               4554 >>> 8>>8                       4554 >>> 8>>8              o",
"o              4>>>>4>>>8>>>>8                     4>>>>4>>>8>>>>8             o",
"o              5>>>>5>>>>>>>>>                     5>>>>5>>>>>>>>>             o",
"o              5>>>>5>>>>>>>>>                     5>>>>5>>>>>>>>>             o",
"o              4>>>>6>>>7>>>>8                     4>>>>6>>>7>>>>8             o",
"o               4556>>>>>7>>8                       4556>>>>>7>>8              o",
"o                  1>>>>>1                             1>>>>>1                 o",
"o                  >>>>>>>                             >>>>>>>                 o",
"o                  1>>>>>1                             1>>>>>1                 o",
"o                  <>>>>><                             <>>>>><                 o",
"o                   <1>1<                               <1>1<                  o",
"o                                                                              o",
"o                                                                              o",
"o                                                                              o",
"o                                                                              o",
"o                                                                              o",
"o                                                                              o",
"o                                                                              o",
"o                                                                              o",
"o                                                                    9d0>0jq   o",
"o                                                                     hg>g;    o",
"o                  7>>>>>7                             7>>>>>7     ,g1of>d<&7s o",
"o                   7>>>7                               7>>>7      1>>ui>ai>>p o",
"o                    >>>                                 >>>       >>>>>>33>>0 o",
"o               4554 >>> 8>>8                       4554 >>> 8>>8  y5>ei>ua3uy o",
"o              4>>>>4>>>8>>>>8                     4>>>>4>>>8>>>>8 kt-r>>>ew:+ o",
"o              5>>>>5>>>>>>>>>                     5>>>>5>>>>>>>>>   q0>>>0+   o",
"o              5>>>>5>>>>>>>>>                     5>>>>5>>>>>>>>>   92>>>29   o",
"o              4>>>>6>>>7>>>>8                     4>>>>6>>>7>>>>8    @232@    o",
"o               4556>>>>>7>>8                       4556>>>>>7>>8              o",
"o                  1>>>>>1                             1>>>>>1           ,*:   o",
"o                  >>>>>>>                             >>>>>>>         ;**;    o",
"o                  1>>>>>1                             1>>>>>1        ;=:      o",
"o                  <>>>>><                             <>>>>><        =*       o",
"o                   <1>1<                               <1>1<        ->*=>&;   o",
"o                                                                    &>, ->=   o",
"o                                                                    >*   %>:  o",
"o                                                                    >*   :>:  o",
"o                                                                    &=   ->;  o",
"o                                                                    :>: ;=*   o",
"$+                                                                    -=*&%   +$",
" @#                                                                          #@ ",
" .O+                                                                        +O. ",
"   XooooooooooooooooooooooooooooooooooooooooooooooooooooooooooooooooooooooooX.  "};
