/* XPM */
static char * 9diamond_xpm[] = {
"80 108 33 1",
" 	c #FFFFFFFFFFFF",
".	c #FFFFFBEEFFFF",
"X	c #A699A699A699",
"o	c #861782078617",
"O	c #C71BC30BC71B",
"+	c #EFBEEFBEEFBE",
"@	c #BEFBBEFBBEFB",
"#	c #E79DE79DE79D",
"$	c #EFBE75D671C6",
"%	c #EFBE3CF338E3",
"&	c #EFBE59655965",
"*	c #E79D20812081",
"=	c #F7DE92489658",
"-	c #A699A289A699",
";	c #FFFFE38DE79D",
":	c #F7DEAEBAAEBA",
">	c #E79D04100000",
",	c #FFFFCB2BCF3C",
"<	c #F7DE86178617",
"1	c #E79D0C300820",
"2	c #F7DEF3CEF7DE",
"3	c #D75C86178617",
"4	c #DF7D86178617",
"5	c #E79D1C711861",
"6	c #CF3CBAEABEFB",
"7	c #E79D18611861",
"8	c #BEFB82078617",
"9	c #E79D10401040",
"0	c #C71B45144103",
"q	c #C71B41034103",
"w	c #E79DE38DE79D",
"e	c #F7DEC71BC71B",
"r	c #F7DEAAAAAEBA",
"  .XooooooooooooooooooooooooooooooooooooooooooooooooooooooooooooooooooooooooX   ",
" .O+                                                                        +O. ",
" @# $%&*=                                                                    #@ ",
"-+ &*; :>:                                                                    +-",
"o ;>=   *%                                                                     o",
"o :>:   &>                                                                     o",
"o :>$   &>                                                                     o",
"o  *>= ,>%          <<                                    <<                   o",
"o  ;%>*&>=         <11<                                  <11<                  o",
"o      &*          1>>1                                  1>>1                  o",
"o     :*;          >>>>                                  >>>>                  o",
"o   ;&&;          %>>>>%                                %>>>>%                 o",
"o  :&,            >>>>>>                                >>>>>>                 o",
"o    2342        5>>>>>>5                              5>>>>>>5                o",
"o    6776       1>>>>>>>>1                            1>>>>>>>>1               o",
"o    8>>8      1>>>>>>>>>>1                          1>>>>>>>>>>1              o",
"o    9>>9      1>>>>>>>>>>1                          1>>>>>>>>>>1              o",
"o  #0>>>>0#     1>>>>>>>>1                            1>>>>>>>>1               o",
"o  q>>>>>>q      5>>>>>>5                              5>>>>>>5                o",
"o  q>>>>>>q       >>>>>>                                >>>>>>                 o",
"o  w0>>>>0#       %>>>>%                                %>>>>%                 o",
"o    9>>9          >>>>                                  >>>>                  o",
"o    8>>8          1>>1                                  1>>1                  o",
"o    6776          <11<                                  <11<                  o",
"o    2442           <<                                    <<                   o",
"o                                                                              o",
"o                                                                              o",
"o                                                                              o",
"o                                                                              o",
"o                                                                              o",
"o                   <<                                    <<                   o",
"o                  <11<                                  <11<                  o",
"o                  1>>1                                  1>>1                  o",
"o                  >>>>                                  >>>>                  o",
"o                 %>>>>%                                %>>>>%                 o",
"o                 >>>>>>                                >>>>>>                 o",
"o                5>>>>>>5                              5>>>>>>5                o",
"o               1>>>>>>>>1                            1>>>>>>>>1               o",
"o              1>>>>>>>>>>1                          1>>>>>>>>>>1              o",
"o              1>>>>>>>>>>1                          1>>>>>>>>>>1              o",
"o               1>>>>>>>>1                            1>>>>>>>>1               o",
"o                5>>>>>>5                              5>>>>>>5                o",
"o                 >>>>>>                                >>>>>>                 o",
"o                 %>>>>%                                %>>>>%                 o",
"o                  >>>>                                  >>>>                  o",
"o                  1>>1                <<                1>>1                  o",
"o                  <11<               <11<               <11<                  o",
"o                   <<                1>>1                <<                   o",
"o                                     >>>>                                     o",
"o                                    %>>>>%                                    o",
"o                                    >>>>>>                                    o",
"o                                   5>>>>>>5                                   o",
"o                                  1>>>>>>>>1                                  o",
"o                                 1>>>>>>>>>>1                                 o",
"o                                 1>>>>>>>>>>1                                 o",
"o                                  1>>>>>>>>1                                  o",
"o                                   5>>>>>>5                                   o",
"o                                    >>>>>>                                    o",
"o                                    %>>>>%                                    o",
"o                                     >>>>                                     o",
"o                   <<                1>>1                <<                   o",
"o                  <11<               <11<               <11<                  o",
"o                  1>>1                <<                1>>1                  o",
"o                  >>>>                                  >>>>                  o",
"o                 %>>>>%                                %>>>>%                 o",
"o                 >>>>>>                                >>>>>>                 o",
"o                5>>>>>>5                              5>>>>>>5                o",
"o               1>>>>>>>>1                            1>>>>>>>>1               o",
"o              1>>>>>>>>>>1                          1>>>>>>>>>>1              o",
"o              1>>>>>>>>>>1                          1>>>>>>>>>>1              o",
"o               1>>>>>>>>1                            1>>>>>>>>1               o",
"o                5>>>>>>5                              5>>>>>>5                o",
"o                 >>>>>>                                >>>>>>                 o",
"o                 %>>>>%                                %>>>>%                 o",
"o                  >>>>                                  >>>>                  o",
"o                  1>>1                                  1>>1                  o",
"o                  <11<                                  <11<                  o",
"o                   <<                                    <<                   o",
"o                                                                              o",
"o                                                                              o",
"o                                                                              o",
"o                                                                              o",
"o                                                                              o",
"o                   <<                                    <<           2442    o",
"o                  <11<                                  <11<          6776    o",
"o                  1>>1                                  1>>1          8>>8    o",
"o                  >>>>                                  >>>>          9>>9    o",
"o                 %>>>>%                                %>>>>%       w0>>>>0#  o",
"o                 >>>>>>                                >>>>>>       q>>>>>>q  o",
"o                5>>>>>>5                              5>>>>>>5      q>>>>>>q  o",
"o               1>>>>>>>>1                            1>>>>>>>>1     #0>>>>0#  o",
"o              1>>>>>>>>>>1                          1>>>>>>>>>>1      9>>9    o",
"o              1>>>>>>>>>>1                          1>>>>>>>>>>1      8>>8    o",
"o               1>>>>>>>>1                            1>>>>>>>>1       6776    o",
"o                5>>>>>>5                              5>>>>>>5        2432    o",
"o                 >>>>>>                                >>>>>>            ,&:  o",
"o                 %>>>>%                                %>>>>%          ;&&;   o",
"o                  >>>>                                  >>>>          ;*:     o",
"o                  1>>1                                  1>>1          *&      o",
"o                  <11<                                  <11<         =>&*>%;  o",
"o                   <<                                    <<          %>e =>*  o",
"o                                                                     >&   $>: o",
"o                                                                     >&   :>r o",
"o                                                                     %*   =>; o",
"-+                                                                    :>: ;*& +-",
" @#                                                                    =*&%$ #@ ",
" .O+                                                                        +O. ",
"   XooooooooooooooooooooooooooooooooooooooooooooooooooooooooooooooooooooooooX.  "};
