/* XPM */
static char * 9heart_xpm[] = {
"80 108 51 1",
" 	c #FFFFFFFFFFFF",
".	c #FFFFFBEEFFFF",
"X	c #A699A699A699",
"o	c #861782078617",
"O	c #C71BC30BC71B",
"+	c #EFBEEFBEEFBE",
"@	c #BEFBBEFBBEFB",
"#	c #E79DE79DE79D",
"$	c #A699A289A699",
"%	c #EFBE75D671C6",
"&	c #EFBE3CF338E3",
"*	c #EFBE59655965",
"=	c #E79D20812081",
"-	c #F7DE92489658",
";	c #FFFFE38DE79D",
":	c #F7DEAEBAAEBA",
">	c #E79D04100000",
",	c #FFFFCB2BCF3C",
"<	c #F7DEC71BC71B",
"1	c #F7DEAAAAAEBA",
"2	c #E79DCF3CCF3C",
"3	c #EFBE51445144",
"4	c #E79D18611861",
"5	c #E79D92489658",
"6	c #F7DEEFBEEFBE",
"7	c #E79D1C711861",
"8	c #E79D08200820",
"9	c #EFBE5D755965",
"0	c #F7DE82078617",
"q	c #E79D0C300820",
"w	c #E79D24922081",
"e	c #EFBE9A699E79",
"r	c #DF7D69A669A6",
"t	c #EFBEEBADEFBE",
"y	c #D75C65956185",
"u	c #EFBE41034103",
"i	c #E79DDB6CDF7D",
"p	c #EFBEE79DE79D",
"a	c #DF7D49244924",
"s	c #E79D28A228A2",
"d	c #EFBECF3CCF3C",
"f	c #F7DEF3CEF7DE",
"g	c #DF7D86178617",
"h	c #E79D14511040",
"j	c #D75C59655965",
"k	c #EFBED75CD75C",
"l	c #F7DEF7DEF7DE",
"z	c #EFBE9E799E79",
"x	c #E79D34D330C2",
"c	c #EFBE92489658",
"v	c #EFBED34CD75C",
"  .XooooooooooooooooooooooooooooooooooooooooooooooooooooooooooooooooooooooooX   ",
" .O+                                                                        +O. ",
" @#                                                                          #@ ",
"$+     %&*=-                                                                  +$",
"o     *=; :>:                                                                  o",
"o    ;>-   =&                                                                  o",
"o    :>:   *>                                                                  o",
"o    :>%   *>                                                                  o",
"o     =>- ,>&   ,&>>&<  ,&>>&<                    ,&>>&,  ,&>>&,               o",
"o     ;&>=*>-  ,>>>>>>,,>>>>>>,                  ,>>>>>>,,>>>>>>,              o",
"o         *=   *>>>>>>**>>>>>>*                  *>>>>>>**>>>>>>*              o",
"o        1=;   >>>>>>>>>>>>>>>>                  >>>>>>>>>>>>>>>>              o",
"o      ;**;    >>>>>>>>>>>>>>>>                  >>>>>>>>>>>>>>>>              o",
"o     1*<      *>>>>>>>>>>>>>>&                  &>>>>>>>>>>>>>>*              o",
"o              ;>>>>>>>>>>>>>>-                  ->>>>>>>>>>>>>>;              o",
"o   23>45657832 ->>>>>>>>>>>>&                    &>>>>>>>>>>>>-               o",
"o   9>>>707>>>9  *>>>>>>>>>>=;                    ;=>>>>>>>>>>*                o",
"o   8>>>>q>>>>8   *>>>>>>>>=;                      ;=>>>>>>>>*                 o",
"o   w>>>>>>>>>4    :>>>>>>&;                        ;&>>>>>>1                  o",
"o   eq>>>>>>>8r     ,=>>>-                            ->>>=,                   o",
"o   ty>>>>>>>ui      ;*&;                              ;&*;                    o",
"o    pa8>>>>sd                                                                 o",
"o     fgh>qjk                                                                  o",
"o      lzxc+                                                                   o",
"o                                                                              o",
"o                                                                              o",
"o                                                                              o",
"o                                                                              o",
"o                                                                              o",
"o                                                                              o",
"o                                                                              o",
"o                                                                              o",
"o                                                                              o",
"o                                                                              o",
"o               ,&>>&,  ,&>>&,                    ,&>>&,  ,&>>&,               o",
"o              ,>>>>>>,,>>>>>>,                  ,>>>>>>,,>>>>>>,              o",
"o              *>>>>>>**>>>>>>*                  *>>>>>>**>>>>>>*              o",
"o              >>>>>>>>>>>>>>>>                  >>>>>>>>>>>>>>>>              o",
"o              >>>>>>>>>>>>>>>>                  >>>>>>>>>>>>>>>>              o",
"o              *>>>>>>>>>>>>>>&                  &>>>>>>>>>>>>>>*              o",
"o              ;>>>>>>>>>>>>>>-                  ->>>>>>>>>>>>>>;              o",
"o               ->>>>>>>>>>>>&                    &>>>>>>>>>>>>-               o",
"o                *>>>>>>>>>>=;                    ;=>>>>>>>>>>*                o",
"o                 *>>>>>>>>=;                      ;=>>>>>>>>*                 o",
"o                  :>>>>>>&;                        ;&>>>>>>:                  o",
"o                   <=>>>-                            ->>>=,                   o",
"o                    ;*&;                              ;&*;                    o",
"o                                                                              o",
"o                                ,&>>&,  ,&>>&,                                o",
"o                               ,>>>>>>,,>>>>>>,                               o",
"o                               *>>>>>>**>>>>>>*                               o",
"o                               >>>>>>>>>>>>>>>>                               o",
"o                               >>>>>>>>>>>>>>>>                               o",
"o                               *>>>>>>>>>>>>>>&                               o",
"o                               ;>>>>>>>>>>>>>>-                               o",
"o                                ->>>>>>>>>>>>&                                o",
"o                                 *>>>>>>>>>>=;                                o",
"o                                  *>>>>>>>>=;                                 o",
"o                                   :>>>>>>&;                                  o",
"o                                    ,=>>>-                                    o",
"o                                     ;*&;                                     o",
"o                    ;*&;                              ;&*;                    o",
"o                   ,=>>>-                            ->>>=,                   o",
"o                  :>>>>>>&;                        ;&>>>>>>:                  o",
"o                 *>>>>>>>>=;                      ;=>>>>>>>>*                 o",
"o                *>>>>>>>>>>=;                    ;=>>>>>>>>>>*                o",
"o               ->>>>>>>>>>>>&                    &>>>>>>>>>>>>-               o",
"o              ;>>>>>>>>>>>>>>-                  ->>>>>>>>>>>>>>;              o",
"o              *>>>>>>>>>>>>>>&                  &>>>>>>>>>>>>>>*              o",
"o              >>>>>>>>>>>>>>>>                  >>>>>>>>>>>>>>>>              o",
"o              >>>>>>>>>>>>>>>>                  >>>>>>>>>>>>>>>>              o",
"o              *>>>>>>**>>>>>>*                  *>>>>>>**>>>>>>*              o",
"o              ,>>>>>>,,>>>>>>,                  ,>>>>>>,,>>>>>>,              o",
"o               ,&>>&,  ,&>>&,                    ,&>>&,  ,&>>&,               o",
"o                                                                              o",
"o                                                                              o",
"o                                                                              o",
"o                                                                              o",
"o                                                                              o",
"o                                                                              o",
"o                                                                              o",
"o                                                                              o",
"o                                                                              o",
"o                                                                              o",
"o                                                                   tcxzl      o",
"o                                                                  kjq>hgf     o",
"o                                                                 vs>>>>8ap    o",
"o                    ;*&;                              ;&*;      iu>>>>>>>y+   o",
"o                   <=>>>-                            ->>>=<     r8>>>>>>>qe   o",
"o                  :>>>>>>&;                        ;&>>>>>>:    4>>>>>>>>>w   o",
"o                 *>>>>>>>>=;                      ;=>>>>>>>>*   8>>>>q>>>>8   o",
"o                *>>>>>>>>>>=;                    ;=>>>>>>>>>>*  9>>>707>>>9   o",
"o               ->>>>>>>>>>>>&                    &>>>>>>>>>>>>- 23875654>32   o",
"o              ;>>>>>>>>>>>>>>-                  ->>>>>>>>>>>>>>;              o",
"o              *>>>>>>>>>>>>>>&                  &>>>>>>>>>>>>>>*      <*1     o",
"o              >>>>>>>>>>>>>>>>                  >>>>>>>>>>>>>>>>    ;**;      o",
"o              >>>>>>>>>>>>>>>>                  >>>>>>>>>>>>>>>>   ;=:        o",
"o              *>>>>>>**>>>>>>*                  *>>>>>>**>>>>>>*   =*         o",
"o              ,>>>>>><,>>>>>><                  ,>>>>>><,>>>>>><  ->*=>&;     o",
"o               ,&>>&,  ,&>>&,                    ,&>>&,  ,&>>&,   &>, ->=     o",
"o                                                                  >*   %>:    o",
"o                                                                  >*   :>:    o",
"o                                                                  &=   ->;    o",
"o                                                                  :>: ;=*     o",
"$+                                                                  -=*&%     +$",
" @#                                                                          #@ ",
" .O+                                                                        +O. ",
"   XooooooooooooooooooooooooooooooooooooooooooooooooooooooooooooooooooooooooX.  "};
