/* XPM */
static char * aceclub_xpm[] = {
"80 108 46 1",
" 	c #FFFFFFFFFFFF",
".	c #FFFFFBEEFFFF",
"X	c #A699A699A699",
"o	c #861782078617",
"O	c #C71BC30BC71B",
"+	c #EFBEEFBEEFBE",
"@	c #BEFBBEFBBEFB",
"#	c #E79DE79DE79D",
"$	c #A699A289A699",
"%	c #C71BC71BC71B",
"&	c #000000000000",
"*	c #18611C711861",
"=	c #71C671C671C6",
"-	c #38E338E338E3",
";	c #AEBAAAAAAEBA",
":	c #514455555144",
">	c #E79DE38DE79D",
",	c #8E388E388E38",
"<	c #38E33CF338E3",
"1	c #000004100000",
"2	c #F7DEF7DEF7DE",
"3	c #082008200820",
"4	c #F7DEF3CEF7DE",
"5	c #965892489658",
"6	c #208120812081",
"7	c #208124922081",
"8	c #B6DAB2CAB6DA",
"9	c #71C675D671C6",
"0	c #104010401040",
"q	c #104014511040",
"w	c #08200C300820",
"e	c #30C230C230C2",
"r	c #186118611861",
"t	c #28A228A228A2",
"y	c #CF3CCB2BCF3C",
"u	c #49244D344924",
"i	c #9E799A699E79",
"p	c #59655D755965",
"a	c #596559655965",
"s	c #410345144103",
"d	c #DF7DDF7DDF7D",
"f	c #514451445144",
"g	c #69A669A669A6",
"h	c #410341034103",
"j	c #618565956185",
"k	c #EFBEEBADEFBE",
"  .XooooooooooooooooooooooooooooooooooooooooooooooooooooooooooooooooooooooooX   ",
" .O+                                                                        +O. ",
" @#                                                                          #@ ",
"$+   %&*                                                                      +$",
"o    =&&%                                                                      o",
"o    *-&=                                                                      o",
"o   ;*%&*                                                                      o",
"o   := *&;                                                                     o",
"o   &> =&:                                                                     o",
"o  ;*:::&&                                                                     o",
"o  -=   :&,                                                                    o",
"o >&%   ;&-                                                                    o",
"o :&;  >,&&,                                                                   o",
"o ;;;  >;;;;                                                                   o",
"o                                                                              o",
"o    @<1<@                                                                     o",
"o   2<&&&<2                                                                    o",
"o   +3&&&34                                                                    o",
"o +;56&&&7,8#                                                                  o",
"o 901*0&q6&w9                                                                  o",
"o 3&&11&&&&&&                                                                  o",
"o e&&qr&q0&&t                                                                  o",
"o yu-ip&aots%                                                                  o",
"o    >s&sd                                                                     o",
"o   4f3&3p2                                                                    o",
"o                                                                              o",
"o                                                                              o",
"o                                                                              o",
"o                                                                              o",
"o                                                                              o",
"o                                                                              o",
"o                                                                              o",
"o                                                                              o",
"o                                                                              o",
"o                                                                              o",
"o                                                                              o",
"o                                                                              o",
"o                                                                              o",
"o                                                                              o",
"o                                                                              o",
"o                                                                              o",
"o                                                                              o",
"o                                                                              o",
"o                                                                              o",
"o                                                                              o",
"o                                                                              o",
"o                                                                              o",
"o                                     it&ti                                    o",
"o                                    i&&&&&i                                   o",
"o                                    t&&&&&t                                   o",
"o                                    &&&&&&&                                   o",
"o                                    t&&&&&t                                   o",
"o                                 gwwh&&&&&u&&j                                o",
"o                                g&&&&h&&&u&&&&j                               o",
"o                                w&&&&w&&&&&&&&&                               o",
"o                                w&&&&w&&&&&&&&&                               o",
"o                                g&&&&g&&&j&&&&j                               o",
"o                                 gwwg &&& j&&j                                o",
"o                                      &&&                                     o",
"o                                     u&&&u                                    o",
"o                                    u&&&&&u                                   o",
"o                                                                              o",
"o                                                                              o",
"o                                                                              o",
"o                                                                              o",
"o                                                                              o",
"o                                                                              o",
"o                                                                              o",
"o                                                                              o",
"o                                                                              o",
"o                                                                              o",
"o                                                                              o",
"o                                                                              o",
"o                                                                              o",
"o                                                                              o",
"o                                                                              o",
"o                                                                              o",
"o                                                                              o",
"o                                                                              o",
"o                                                                              o",
"o                                                                              o",
"o                                                                              o",
"o                                                                              o",
"o                                                                    2p3&3f4   o",
"o                                                                     ds&s>    o",
"o                                                                  %stoa&pi-uy o",
"o                                                                  t&&0q&rq&&e o",
"o                                                                  &&&&&&11&&3 o",
"o                                                                  9w&6q&0r109 o",
"o                                                                  k8,7&&&65;+ o",
"o                                                                    43&&&3+   o",
"o                                                                    2<&&&<2   o",
"o                                                                     @<1<@    o",
"o                                                                              o",
"o                                                                   ;;;;>  ;;; o",
"o                                                                   ,&&,>  ;&: o",
"o                                                                    -&;   %&> o",
"o                                                                    ,&:   =-  o",
"o                                                                     &&:::*;  o",
"o                                                                     :&= >&   o",
"o                                                                     ;&* =:   o",
"o                                                                      *&%*;   o",
"o                                                                      =&-*    o",
"o                                                                      %&&=    o",
"$+                                                                      *&%   +$",
" @#                                                                          #@ ",
" .O+                                                                        +O. ",
"   XooooooooooooooooooooooooooooooooooooooooooooooooooooooooooooooooooooooooX.  "};
