/* XPM */
static char * acespade_xpm[] = {
"80 108 49 1",
" 	c #FFFFFFFFFFFF",
".	c #FFFFFBEEFFFF",
"X	c #A699A699A699",
"o	c #861782078617",
"O	c #C71BC30BC71B",
"+	c #EFBEEFBEEFBE",
"@	c #BEFBBEFBBEFB",
"#	c #E79DE79DE79D",
"$	c #A699A289A699",
"%	c #C71BC71BC71B",
"&	c #000000000000",
"*	c #18611C711861",
"=	c #71C671C671C6",
"-	c #38E338E338E3",
";	c #AEBAAAAAAEBA",
":	c #514455555144",
">	c #E79DE38DE79D",
",	c #8E388E388E38",
"<	c #CF3CCF3CCF3C",
"1	c #59655D755965",
"2	c #D75CD75CD75C",
"3	c #38E33CF338E3",
"4	c #EFBEEBADEFBE",
"5	c #596559655965",
"6	c #79E77DF779E7",
"7	c #000004100000",
"8	c #082008200820",
"9	c #104014511040",
"0	c #492449244924",
"q	c #79E779E779E7",
"w	c #71C675D671C6",
"e	c #49244D344924",
"r	c #F7DEF7DEF7DE",
"t	c #186118611861",
"y	c #DF7DDF7DDF7D",
"u	c #F7DEF3CEF7DE",
"i	c #08200C300820",
"p	c #965892489658",
"a	c #8E388A288E38",
"s	c #965896589658",
"d	c #BEFBBAEABEFB",
"f	c #104010401040",
"g	c #28A22CB228A2",
"h	c #30C234D330C2",
"j	c #28A228A228A2",
"k	c #861786178617",
"l	c #DF7DDB6CDF7D",
"z	c #B6DAB6DAB6DA",
"x	c #410341034103",
"  .XooooooooooooooooooooooooooooooooooooooooooooooooooooooooooooooooooooooooX   ",
" .O+                                                                        +O. ",
" @#                                                                          #@ ",
"$+   %&*                                                                      +$",
"o    =&&%                                                                      o",
"o    *-&=                                                                      o",
"o   ;*%&*                                                                      o",
"o   := *&;                                                                     o",
"o   &> =&:                                                                     o",
"o  ;*:::&&                                                                     o",
"o  -=   :&,                                                                    o",
"o >&%   ;&-                                                                    o",
"o :&;  >,&&,                                                                   o",
"o ;;;  >;;;;                                                                   o",
"o                                                                              o",
"o     <1<                                                                      o",
"o    23&32                                                                     o",
"o   >-&&&->                                                                    o",
"o  45&&&&&54                                                                   o",
"o  67&&&&&86                                                                   o",
"o  9&&8&7&&9                                                                   o",
"o  380q&w38e                                                                   o",
"o  +>r2t2ryu                                                                   o",
"o     @i@                                                                      o",
"o                                                                              o",
"o                                                                              o",
"o                                                                              o",
"o                                                                              o",
"o                                                                              o",
"o                                                                              o",
"o                                                                              o",
"o                                                                              o",
"o                                                                              o",
"o                                                                              o",
"o                                                                              o",
"o                                                                              o",
"o                                                                              o",
"o                                                                              o",
"o                                                                              o",
"o                                                                              o",
"o                                                                              o",
"o                                                                              o",
"o                                                                              o",
"o                                                                              o",
"o                                                                              o",
"o                                                                              o",
"o                                      pp                                      o",
"o                                     a&&a                                     o",
"o                                    s&&&&s                                    o",
"o                                   $7&&&&7$                                   o",
"o                                  d8&&&&&&8d                                  o",
"o                                 2f&&&&&&&&f2                                 o",
"o                                ug&&&&&&&&&&gu                                o",
"o                                w&&&&&&&&&&&&w                                o",
"o                                i&&&&&&&&&&&&i                                o",
"o                                *&&&7h&&g&&&&j                                o",
"o                                k8i0%l&&lzh7fX                                o",
"o                                 #4  uttr  >+                                 o",
"o                                     r**r                                     o",
"o                                     d&&d                                     o",
"o                                                                              o",
"o                                                                              o",
"o                                                                              o",
"o                                                                              o",
"o                                                                              o",
"o                                                                              o",
"o                                                                              o",
"o                                                                              o",
"o                                                                              o",
"o                                                                              o",
"o                                                                              o",
"o                                                                              o",
"o                                                                              o",
"o                                                                              o",
"o                                                                              o",
"o                                                                              o",
"o                                                                              o",
"o                                                                              o",
"o                                                                              o",
"o                                                                              o",
"o                                                                              o",
"o                                                                              o",
"o                                                                              o",
"o                                                                              o",
"o                                                                      @i@     o",
"o                                                                   uyr2t2r>+  o",
"o                                                                   e8xw&q083  o",
"o                                                                   9&&7&8&&9  o",
"o                                                                   q8&&&&&7q  o",
"o                                                                   45&&&&&54  o",
"o                                                                    >-&&&->   o",
"o                                                                     23&32    o",
"o                                                                      <1<     o",
"o                                                                              o",
"o                                                                   ;;;;>  ;;; o",
"o                                                                   ,&&,>  ;&: o",
"o                                                                    -&;   %&> o",
"o                                                                    ,&:   =-  o",
"o                                                                     &&:::*;  o",
"o                                                                     :&= >&   o",
"o                                                                     ;&* =:   o",
"o                                                                      *&%*;   o",
"o                                                                      =&-*    o",
"o                                                                      %&&=    o",
"$+                                                                      *&%   +$",
" @#                                                                          #@ ",
" .O+                                                                        +O. ",
"   XooooooooooooooooooooooooooooooooooooooooooooooooooooooooooooooooooooooooX.  "};
