/* XPM */
static char * background_xpm[] = {
"100 100 14 1",
" 	c #30C296588617",
".	c #30C29A698E38",
"X	c #38E39A698E38",
"o	c #38E39E798E38",
"O	c #38E3A2899658",
"+	c #38E3A6999658",
"@	c #38E3AAAA9658",
"#	c #38E3AAAA9E79",
"$	c #38E3AEBA9E79",
"%	c #4103AEBA9E79",
"&	c #4103B2CA9E79",
"*	c #4103B2CAA699",
"=	c #4103AEBAA699",
"-	c #38E3A2898E38",
" ........XXXXXoooooooooooooooOOOOOOOOOOOOO++++++++++++++++OOOOOOOOOOOOOoooooooooooooooXXXXX........ ",
"........XXXXXoooooooooooooooOOOOOOOOOOOOO++++++++++++++++++OOOOOOOOOOOOOoooooooooooooooXXXXX........",
".......XXXXXoooooooooooooooOOOOOOOOOOOOO++++++++++++++++++++OOOOOOOOOOOOOoooooooooooooooXXXXX.......",
"......XXXXXoooooooooooooooOOOOOOOOOOOOO++++++++++++++++++++++OOOOOOOOOOOOOoooooooooooooooXXXXX......",
".....XXXXXoooooooooooooooOOOOOOOOOOOOO++++++++++++++++++++++++OOOOOOOOOOOOOoooooooooooooooXXXXX.....",
"....XXXXXoooooooooooooooOOOOOOOOOOOOO++++++++++++++++++++++++++OOOOOOOOOOOOOoooooooooooooooXXXXX....",
"...XXXXXoooooooooooooooOOOOOOOOOOOOO++++++++++++++++++++++++++++OOOOOOOOOOOOOoooooooooooooooXXXXX...",
"..XXXXXoooooooooooooooOOOOOOOOOOOOO++++++++++++++++++++++++++++++OOOOOOOOOOOOOoooooooooooooooXXXXX..",
".XXXXXoooooooooooooooOOOOOOOOOOOOO++++++++++++++++++++++++++++++++OOOOOOOOOOOOOoooooooooooooooXXXXX.",
"XXXXXoooooooooooooooOOOOOOOOOOOOO++++++++++++++++@@++++++++++++++++OOOOOOOOOOOOOoooooooooooooooXXXXX",
"XXXXoooooooooooooooOOOOOOOOOOOOO++++++++++++++++@@@@++++++++++++++++OOOOOOOOOOOOOoooooooooooooooXXXX",
"XXXoooooooooooooooOOOOOOOOOOOOO++++++++++++++++@@@@@@++++++++++++++++OOOOOOOOOOOOOoooooooooooooooXXX",
"XXoooooooooooooooOOOOOOOOOOOOO++++++++++++++++@@@@@@@@++++++++++++++++OOOOOOOOOOOOOoooooooooooooooXX",
"XoooooooooooooooOOOOOOOOOOOOO++++++++++++++++@@@@@@@@@@++++++++++++++++OOOOOOOOOOOOOoooooooooooooooX",
"oooooooooooooooOOOOOOOOOOOOO++++++++++++++++@@@@@##@@@@@++++++++++++++++OOOOOOOOOOOOOooooooooooooooo",
"ooooooooooooooOOOOOOOOOOOOO++++++++++++++++@@@@@####@@@@@++++++++++++++++OOOOOOOOOOOOOoooooooooooooo",
"oooooooooooooOOOOOOOOOOOOO++++++++++++++++@@@@@######@@@@@++++++++++++++++OOOOOOOOOOOOOooooooooooooo",
"ooooooooooooOOOOOOOOOOOOO++++++++++++++++@@@@@########@@@@@++++++++++++++++OOOOOOOOOOOOOoooooooooooo",
"oooooooooooOOOOOOOOOOOOO++++++++++++++++@@@@@##########@@@@@++++++++++++++++OOOOOOOOOOOOOooooooooooo",
"ooooooooooOOOOOOOOOOOOO++++++++++++++++@@@@@############@@@@@++++++++++++++++OOOOOOOOOOOOOoooooooooo",
"oooooooooOOOOOOOOOOOOO++++++++++++++++@@@@@##############@@@@@++++++++++++++++OOOOOOOOOOOOOooooooooo",
"ooooooooOOOOOOOOOOOOO++++++++++++++++@@@@@################@@@@@++++++++++++++++OOOOOOOOOOOOOoooooooo",
"oooooooOOOOOOOOOOOOO++++++++++++++++@@@@@##################@@@@@++++++++++++++++OOOOOOOOOOOOOooooooo",
"ooooooOOOOOOOOOOOOO++++++++++++++++@@@@@####################@@@@@++++++++++++++++OOOOOOOOOOOOOoooooo",
"oooooOOOOOOOOOOOOO++++++++++++++++@@@@@######################@@@@@++++++++++++++++OOOOOOOOOOOOOooooo",
"ooooOOOOOOOOOOOOO++++++++++++++++@@@@@###########$$###########@@@@@++++++++++++++++OOOOOOOOOOOOOoooo",
"oooOOOOOOOOOOOOO++++++++++++++++@@@@@###########$$$$###########@@@@@++++++++++++++++OOOOOOOOOOOOOooo",
"ooOOOOOOOOOOOOO++++++++++++++++@@@@@###########$$$$$$###########@@@@@++++++++++++++++OOOOOOOOOOOOOoo",
"oOOOOOOOOOOOOO++++++++++++++++@@@@@###########$$$$$$$$###########@@@@@++++++++++++++++OOOOOOOOOOOOOo",
"OOOOOOOOOOOOO++++++++++++++++@@@@@###########$$$$$$$$$$###########@@@@@++++++++++++++++OOOOOOOOOOOOO",
"OOOOOOOOOOOO++++++++++++++++@@@@@###########$$$$$$$$$$$$###########@@@@@++++++++++++++++OOOOOOOOOOOO",
"OOOOOOOOOOO++++++++++++++++@@@@@###########$$$$$$$$$$$$$$###########@@@@@++++++++++++++++OOOOOOOOOOO",
"OOOOOOOOOO++++++++++++++++@@@@@###########$$$$$$$$$$$$$$$$###########@@@@@++++++++++++++++OOOOOOOOOO",
"OOOOOOOOO++++++++++++++++@@@@@###########$$$$$$$$%%$$$$$$$$###########@@@@@++++++++++++++++OOOOOOOOO",
"OOOOOOOO++++++++++++++++@@@@@###########$$$$$$$$%%%%$$$$$$$$###########@@@@@++++++++++++++++OOOOOOOO",
"OOOOOOO++++++++++++++++@@@@@###########$$$$$$$$%%%%%%$$$$$$$$###########@@@@@++++++++++++++++OOOOOOO",
"OOOOOO++++++++++++++++@@@@@###########$$$$$$$$%%%%%%%%$$$$$$$$###########@@@@@++++++++++++++++OOOOOO",
"OOOOO++++++++++++++++@@@@@###########$$$$$$$$%%%%%%%%%%$$$$$$$$###########@@@@@++++++++++++++++OOOOO",
"OOOO++++++++++++++++@@@@@###########$$$$$$$$%%%%%%%%%%%%$$$$$$$$###########@@@@@++++++++++++++++OOOO",
"OOO++++++++++++++++@@@@@###########$$$$$$$$%%%%%%&&%%%%%%$$$$$$$$###########@@@@@++++++++++++++++OOO",
"OO++++++++++++++++@@@@@###########$$$$$$$$%%%%%%&&&&%%%%%%$$$$$$$$###########@@@@@++++++++++++++++OO",
"O++++++++++++++++@@@@@###########$$$$$$$$%%%%%%&&&&&&%%%%%%$$$$$$$$###########@@@@@++++++++++++++++O",
"++++++++++++++++@@@@@###########$$$$$$$$%%%%%%&&&**&&&%%%%%%$$$$$$$$###########@@@@@++++++++++++++++",
"+++++++++++++++@@@@@###########$$$$$$$$%%%%%%&&&****&&&%%%%%%$$$$$$$$###########@@@@@+++++++++++++++",
"++++++++++++++@@@@@###########$$$$$$$$%%%%%%&&&******&&&%%%%%%$$$$$$$$###########@@@@@++++++++++++++",
"+++++++++++++@@@@@###########$$$$$$$$%%%%%%&&&********&&&%%%%%%$$$$$$$$###########@@@@@+++++++++++++",
"++++++++++++@@@@@###########$$$$$$$$%%%%%%&&&**********&&&%%%%%%$$$$$$$$###########@@@@@++++++++++++",
"+++++++++++@@@@@###########$$$$$$$$%%%%%%&&&************&&&%%%%%%$$$$$$$$###########@@@@@+++++++++++",
"++++++++++@@@@@###########$$$$$$$$%%%%%%&&&**************&&&%%%%%%$$$$$$$$###########@@@@@++++++++++",
"+++++++++@@@@@###########$$$$$$$$%%%%%%&&&****************&&&%%%%%%$$$$$$$$###########@@@@@+++++++++",
"+++++++++@@@@@###########$$$$$$$$%%%%%%&&&***************&&&%%%=%%$$$$$$$$###########@@@@@@+++++++++",
"++++++++++@@@@@###########$$$$$$$$%%%%%%&&&*************&&&%%%=%%$$$$$$$$###########@@@@@@++++++++++",
"+++++++++++@@@@@###########$$$$$$$$%%%%%%&&&***********&&&%%%=%%$$$$$$$$###########@@@@@@+++++++++++",
"++++++++++++@@@@@###########$$$$$$$$%%%%%%&&&*********&&&%%%=%%$$$$$$$$###########@@@@@@++++++++++++",
"+++++++++++++@@@@@###########$$$$$$$$%%%%%%&&&*******&&&%%%=%%$$$$$$$$###########@@@@@@+++++++++++++",
"++++++++++++++@@@@@###########$$$$$$$$%%%%%%&&&*****&&&%%%=%%$$$$$$$$###########@@@@@@++++++++++++++",
"+++++++++++++++@@@@@###########$$$$$$$$%%%%%%&&&***&&&%%%=%%$$$$$$$$###########@@@@@@+++++++++++++++",
"++++++++++++++++@@@@@###########$$$$$$$$%%%%%%&&&*&&&%%%=%%$$$$$$$$###########@@@@@@+++++++++++++++O",
"O++++++++++++++++@@@@@###########$$$$$$$$%%%%%%&&&&&%%%=%%$$$$$$$$###########@@@@@@+++++++++++++++OO",
"OO++++++++++++++++@@@@@###########$$$$$$$$%%%%%%&&&%%%=%%$$$$$$$$###########@@@@@@+++++++++++++++OOO",
"OOO++++++++++++++++@@@@@###########$$$$$$$$%%%%%%&%%%=%%$$$$$$$$###########@@@@@@+++++++++++++++OOOO",
"OOOO++++++++++++++++@@@@@###########$$$$$$$$%%%%%%%%=%%$$$$$$$$###########@@@@@@+++++++++++++++OOOOO",
"OOOOO++++++++++++++++@@@@@###########$$$$$$$$%%%%%%=%%$$$$$$$$###########@@@@@@+++++++++++++++OOOOOO",
"OOOOOO++++++++++++++++@@@@@###########$$$$$$$$%%%%=%%$$$$$$$$###########@@@@@@+++++++++++++++OOOOOOO",
"OOOOOOO++++++++++++++++@@@@@###########$$$$$$$$%%%%%$$$$$$$$###########@@@@@@+++++++++++++++OOOOOOOO",
"OOOOOOOO++++++++++++++++@@@@@###########$$$$$$$$%%%$$$$$$$$###########@@@@@@+++++++++++++++OOOOOOOOO",
"OOOOOOOOO++++++++++++++++@@@@@###########$$$$$$$$%$$$$$$$$###########@@@@@@+++++++++++++++OOOOOOOOOO",
"OOOOOOOOOO++++++++++++++++@@@@@###########$$$$$$$$$$$$$$$###########@@@@@@+++++++++++++++OOOOOOOOOOO",
"OOOOOOOOOOO++++++++++++++++@@@@@###########$$$$$$$$$$$$$###########@@@@@@+++++++++++++++OOOOOOOOOOOO",
"OOOOOOOOOOOO++++++++++++++++@@@@@###########$$$$$$$$$$$###########@@@@@@+++++++++++++++OOOOOOOOOOOOO",
"OOOOOOOOOOOOO++++++++++++++++@@@@@###########$$$$$$$$$###########@@@@@@+++++++++++++++OOOOOOOOOOOOOO",
"oOOOOOOOOOOOOO++++++++++++++++@@@@@###########$$$$$$$###########@@@@@@+++++++++++++++OOOOOOOOOOOOOOo",
"ooOOOOOOOOOOOOO++++++++++++++++@@@@@###########$$$$$###########@@@@@@+++++++++++++++OOOOOOOOOOOOOOoo",
"oooOOOOOOOOOOOOO++++++++++++++++@@@@@###########$$$###########@@@@@@+++++++++++++++OOOOOOOOOOOOOOooo",
"ooooOOOOOOOOOOOOO++++++++++++++++@@@@@###########$###########@@@@@@+++++++++++++++OOOOOOOOOOOOOOoooo",
"oooooOOOOOOOOOOOOO++++++++++++++++@@@@@#####################@@@@@@+++++++++++++++OOOOOOOOOOOOOOooooo",
"ooooooOOOOOOOOOOOOO++++++++++++++++@@@@@###################@@@@@@+++++++++++++++OOOOOOOOOOOOOOoooooo",
"oooooooOOOOOOOOOOOOO++++++++++++++++@@@@@#################@@@@@@+++++++++++++++OOOOOOOOOOOOOOooooooo",
"ooooooooOOOOOOOOOOOOO++++++++++++++++@@@@@###############@@@@@@+++++++++++++++OOOOOOOOOOOOOOoooooooo",
"oooooooooOOOOOOOOOOOOO++++++++++++++++@@@@@#############@@@@@@+++++++++++++++OOOOOOOOOOOOOOooooooooo",
"ooooooooooOOOOOOOOOOOOO++++++++++++++++@@@@@###########@@@@@@+++++++++++++++OOOOOOOOOOOOOOoooooooooo",
"oooooooooooOOOOOOOOOOOOO++++++++++++++++@@@@@#########@@@@@@+++++++++++++++OOOOOOOOOOOOOOooooooooooo",
"ooooooooooooOOOOOOOOOOOOO++++++++++++++++@@@@@#######@@@@@@+++++++++++++++OOOOOOOOOOOOOOoooooooooooo",
"oooooooooooooOOOOOOOOOOOOO++++++++++++++++@@@@@#####@@@@@++++++++++++++++OOOOOOOOOOOOOOooooooooooooo",
"ooooooooooooooOOOOOOOOOOOOO++++++++++++++++@@@@@###@@@@@++++++++++++++++OOOOOOOOOOOOOOoooooooooooooo",
"oooooooooooooooOOOOOOOOOOOOO++++++++++++++++@@@@@#@@@@@++++++++++++++++OOOOOOOOOOOOOOooooooooooooooX",
"XoooooooooooooooOOOOOOOOOOOOO++++++++++++++++@@@@@@@@@++++++++++++++++OOOOOOOOOOOOOOooooooooooooooXX",
"XXoooooooooooooooOOOOOOOOOOOOO++++++++++++++++@@@@@@@++++++++++++++++OOOOOOOOOOOOOOooooooooooooooXXX",
"XXXoooooooooooooooOOOOOOOOOOOOO++++++++++++++++@@@@@++++++++++++++++OOOOOOOOOOOOOOooooooooooooooXXXX",
"XXXXoooooooooooooooOOOOOOOOOOOOO++++++++++++++++@@@++++++++++++++++OOOOOOOOOOOOOOooooooooooooooXXXXX",
"XXXXXoooooooooooooooOOOOOOOOOOOOO++++++++++++++++@++++++++++++++++OOOOOOOOOOOOOOooooooooooooooXXXXXX",
".XXXXXoooooooooooooooOOOOOOOOOOOOO+++++++++++++++++++++++++++++++OOOOOOOOOOOOOOooooooooooooooXXXXXX.",
"..XXXXXoooooooooooooooOOOOOOOOOOOOO+++++++++++++++++++++++++++++OOOOOOOOOO-OOOooooooooooooooXXXXXX..",
"...XXXXXoooooooooooooooOOOOOOOOOOOOO+++++++++++++++++++++++++++OOOOOOOOOO-OOOooooooooooooooXXXXXX...",
"....XXXXXoooooooooooooooOOOOOOOOOOOOO+++++++++++++++++++++++++OOOOOOOOOO-OOOooooooooooooooXXXXXX....",
".....XXXXXoooooooooooooooOOOOOOOOOOOOO+++++++++++++++++++++++OOOOOOOOOO-OOOooooooooooooooXXXXXX.....",
"......XXXXXoooooooooooooooOOOOOOOOOOOOO+++++++++++++++++++++OOOOOOOOOO-OOOooooooooooooooXXXXXX......",
".......XXXXXoooooooooooooooOOOOOOOOOOOOO+++++++++++++++++++OOOOOOOOOO-OOOooooooooooooooXXXXXX.......",
"........XXXXXoooooooooooooooOOOOOOOOOOOOO+++++++++++++++++OOOOOOOOOO-OOOooooooooooooooXXXXXX........",
" ........XXXXXoooooooooooooooOOOOOOOOOOOOO+++++++++++++++OOOOOOOOOO-OOOooooooooooooooXXXXXX........ "};
