/* XPM */
static char * jackdiamond_xpm[] = {
"80 108 56 1",
" 	c #FFFFFFFFFFFF",
".	c #FFFFFBEEFFFF",
"X	c #A699A699A699",
"o	c #861782078617",
"O	c #965896589658",
"+	c #C71BC30BC71B",
"@	c #EFBEEFBEEFBE",
"#	c #AEBAAEBAAEBA",
"$	c #FFFFF7DEFFFF",
"%	c #BEFBBEFBBEFB",
"&	c #E79DE79DE79D",
"*	c #A699A289A699",
"=	c #FFFFC71BC71B",
"-	c #EFBE55555144",
";	c #965892489658",
":	c #FFFFE38DE79D",
">	c #E79D04100000",
",	c #EFBE3CF338E3",
"<	c #F7DE8E388E38",
"1	c #F7DEAAAAAEBA",
"2	c #EFBE20811861",
"3	c #F7DE75D671C6",
"4	c #F7DEF3CEF7DE",
"5	c #D75C86178617",
"6	c #DF7D86178617",
"7	c #C71B41034103",
"8	c #CF3CBAEABEFB",
"9	c #E79D18611861",
"0	c #BEFB82078617",
"q	c #F7DE86178617",
"w	c #E79D10401040",
"e	c #E79D0C300820",
"r	c #C71B45144103",
"t	c #E79DE38DE79D",
"y	c #E79D1C711861",
"u	c #D75C20811861",
"i	c #D75C04100000",
"p	c #F7DECB2BC71B",
"a	c #DF7D3CF338E3",
"s	c #E79D75D671C6",
"d	c #EFBE92488E38",
"f	c #E79D59655144",
"g	c #F7DEAEBAAEBA",
"h	c #D75C79E779E7",
"j	c #DF7DFBEEFFFF",
"k	c #D75C71C671C6",
"l	c #D75C410338E3",
"z	c #DF7DF7DEFFFF",
"x	c #F7DECF3CCF3C",
"c	c #D75C1C711861",
"v	c #EFBE92489658",
"b	c #F7DED75CD75C",
"n	c #FFFFDB6CD75C",
"m	c #DF7D4D344924",
"M	c #FFFFF7DEF7DE",
"N	c #B6DAB2CAB6DA",
"  .XooooooooooooooooooooooooooooooooooooooooooooooooooooooooooooooooooooooooO.  ",
" .+@                                                                         #$ ",
" %&                                                                          &# ",
"*@    =----                                                                    ;",
"o      :>,                                                                     o",
"o       >-                                                                     o",
"o       >-                                                                     o",
"o       >-                                                                     o",
"o       >-                                                                     o",
"o       >-                                                                     o",
"o   <=  >-                                                                     o",
"o   -< 1><                                                                     o",
"o   -,=22                                                                      o",
"o   =131                                                                       o",
"o                                                                              o",
"o    4564     7777777777777777777777777777777777777777777777777777             o",
"o    8998     7                                                  7             o",
"o    0>>0     7      qq                                          7             o",
"o    w>>w     7     qeeq                                         7             o",
"o  &r>>>>r&   7     e>>e                                         7             o",
"o  7>>>>>>7   7     >>>>                                         7             o",
"o  7>>>>>>7   7    ,>>>>,                                        7             o",
"o  tr>>>>r&   7    >>>>>>                                        7             o",
"o    w>>w     7   y>>>>>>y                                       7             o",
"o    0>>0     7  e>>>>>>>>e                                      7             o",
"o    8998     7 e>>>>>>>>>>e                                     7             o",
"o    4664     7 e>>>>>>>>>>e                                     7             o",
"o             7  e>>>>>>>>e                                      7             o",
"o             7   y>>>>>>y                                       7             o",
"o             7    >>>>>>                                        7             o",
"o             7    ,>>>>,                                        7             o",
"o             7     >>>>                                         7             o",
"o             7     e>>e                                         7             o",
"o             7     qeeq                                         7             o",
"o             7      qq                                          7             o",
"o             7                                                  7             o",
"o             7                                                  7             o",
"o             7                                                  7             o",
"o             7                                                  7             o",
"o             7                   uiip   aiu                     7             o",
"o             7                  siiia  :iiis                    7             o",
"o             7                 piiiiip diiiip                   7             o",
"o             7                 aiiiiiu aiiiia                   7             o",
"o             7                diiiiiiidaiiiiid                  7             o",
"o             7                uiiiiiiiipiiiiiu                  7             o",
"o             7               diiiiiiiiifsiiiiid                 7             o",
"o             7               uiiiiiiiiii:uiiiiu                 7             o",
"o             7              giiiiihhiiiidgiiiiig                7             o",
"o             7              fiiiiijjiiiia aiiiif                7             o",
"o             7              uiiiikjjkiiiippiiiiu                7             o",
"o             7              iiiilzjjzliiiagiiiii                7             o",
"o             7              iiiizjjjjziiiiiiiiii                7             o",
"o             7              uiiilzjjzliiiiiiiiiu                7             o",
"o             7              fiiiikjjkiiiiiiiiiif                7             o",
"o             7              giiiiijjiiiiiiiiiiig                7             o",
"o             7              :iiiiihhiiiiiiiiiii:                7             o",
"o             7               aiiiiiiiiiiiiiiiia                 7             o",
"o             7               diiiiiiiiiiiiiiiid                 7             o",
"o             7               :iiiiiiiiiiiiiiii:                 7             o",
"o             7                fiiiiiiiiiiiiiif                  7             o",
"o             7                xccccccccccccccx                  7             o",
"o             7                 vvvvvvvvvvvvvv                   7             o",
"o             7                 bbbbbbbbbbbbbb                   7             o",
"o             7                nmmmmmmmmmmmmmmn                  7             o",
"o             7                fiiiiiiiiiiiiiif                  7             o",
"o             7               giiiiiiiiiiiiiiiig                 7             o",
"o             7              giiiiiiiiiiiiiiiiiig                7             o",
"o             7             fiiiiiiiiiiiiiiiiiiiif               7             o",
"o             7           puiiiiiiiiiiiiiiiiiiiiiiup             7             o",
"o             7          siiiiiiiiiiiiiiiiiiiiiiiiiis            7             o",
"o             7        puiiiiiiiiiiiiiiiiiiiiiiiiiiiiup          7             o",
"o             7                                                  7             o",
"o             7                                                  7             o",
"o             7                                          qq      7             o",
"o             7                                         qeeq     7             o",
"o             7                                         e>>e     7             o",
"o             7                                         >>>>     7             o",
"o             7                                        ,>>>>,    7             o",
"o             7                                        >>>>>>    7             o",
"o             7                                       y>>>>>>y   7             o",
"o             7                                      e>>>>>>>>e  7             o",
"o             7                                     e>>>>>>>>>>e 7     4564    o",
"o             7                                     e>>>>>>>>>>e 7     8998    o",
"o             7                                      e>>>>>>>>e  7     0>>0    o",
"o             7                                       y>>>>>>y   7     w>>w    o",
"o             7                                        >>>>>>    7   &r>>>>r&  o",
"o             7                                        ,>>>>,    7   7>>>>>>7  o",
"o             7                                         >>>>     7   7>>>>>>7  o",
"o             7                                         e>>e     7   tr>>>>r&  o",
"o             7                                         qeeq     7     w>>w    o",
"o             7                                          qq      7     0>>0    o",
"o             7                                                  7     8998    o",
"o             7777777777777777777777777777777777777777777777777777     4664    o",
"o                                                                              o",
"o                                                                       131=   o",
"o                                                                      22=,-   o",
"o                                                                     <>1 <-   o",
"o                                                                     ->  =<   o",
"o                                                                     ->       o",
"o                                                                     ->       o",
"o                                                                     ->       o",
"o                                                                     ->       o",
"o                                                                     ->       o",
"o                                                                     ,>:      o",
";                                                                    ----=    @*",
"M#&                                                                          &% ",
" .N                                                                         @+. ",
"   OooooooooooooooooooooooooooooooooooooooooooooooooooooooooooooooooooooooooX.  "};
