/* XPM */
static char * jackclub_xpm[] = {
"80 108 55 1",
" 	c #FFFFFFFFFFFF",
".	c #FFFFFBEEFFFF",
"X	c #A699A699A699",
"o	c #861782078617",
"O	c #C71BC30BC71B",
"+	c #EFBEEFBEEFBE",
"@	c #BEFBBEFBBEFB",
"#	c #E79DE79DE79D",
"$	c #A699A289A699",
"%	c #C71BC71BC71B",
"&	c #514455555144",
"*	c #E79DE38DE79D",
"=	c #000000000000",
"-	c #38E338E338E3",
";	c #8E388E388E38",
":	c #AEBAAAAAAEBA",
">	c #18611C711861",
",	c #71C671C671C6",
"<	c #38E33CF338E3",
"1	c #000004100000",
"2	c #F7DEF7DEF7DE",
"3	c #082008200820",
"4	c #F7DEF3CEF7DE",
"5	c #9E799A699E79",
"6	c #28A228A228A2",
"7	c #965892489658",
"8	c #208120812081",
"9	c #208124922081",
"0	c #B6DAB2CAB6DA",
"q	c #71C675D671C6",
"w	c #104010401040",
"e	c #104014511040",
"r	c #08200C300820",
"t	c #30C230C230C2",
"y	c #186118611861",
"u	c #CF3CCB2BCF3C",
"i	c #49244D344924",
"p	c #59655D755965",
"a	c #596559655965",
"s	c #410345144103",
"d	c #69A669A669A6",
"f	c #410341034103",
"g	c #618565956185",
"h	c #DF7DDF7DDF7D",
"j	c #514451445144",
"k	c #30C234D330C2",
"l	c #AEBAAEBAAEBA",
"z	c #9E799E799E79",
"x	c #618561856185",
"c	c #79E779E779E7",
"v	c #D75CD75CD75C",
"b	c #28A22CB228A2",
"n	c #CF3CCF3CCF3C",
"m	c #492449244924",
"M	c #EFBEEBADEFBE",
"  .XooooooooooooooooooooooooooooooooooooooooooooooooooooooooooooooooooooooooX   ",
" .O+                                                                        +O. ",
" @#                                                                          #@ ",
"$+    %&&&&                                                                   +$",
"o      *=-                                                                     o",
"o       =&                                                                     o",
"o       =&                                                                     o",
"o       =&                                                                     o",
"o       =&                                                                     o",
"o       =&                                                                     o",
"o   ;%  =&                                                                     o",
"o   &; :=;                                                                     o",
"o   &-%>>                                                                      o",
"o   %:,:                                                                       o",
"o                                                                              o",
"o    @<1<@    ====================================================             o",
"o   2<===<2   =                                                  =             o",
"o   +3===34   =      56=65                                       =             o",
"o +:78===9;0# =     5=====5                                      =             o",
"o qw1>w=e8=rq =     6=====6                                      =             o",
"o 3==11====== =     =======                                      =             o",
"o t==ey=ew==6 =     6=====6                                      =             o",
"o ui-5p=ao6s% =  drrf=====i==g                                   =             o",
"o    *s=sh    = d====f===i====g                                  =             o",
"o   4j3=3p2   = r====r=========                                  =             o",
"o             = r====r=========                                  =             o",
"o             = d====d===g====g                                  =             o",
"o             =  drrd === g==g                                   =             o",
"o             =       ===                                        =             o",
"o             =      i===i                                       =             o",
"o             =     i=====i                                      =             o",
"o             =                                                  =             o",
"o             =                                                  =             o",
"o             =                                                  =             o",
"o             =                                                  =             o",
"o             =                                                  =             o",
"o             =                                                  =             o",
"o             =                     :%    *:                     =             o",
"o             =                    *=-    ;=*                    =             o",
"o             =                    >==%   -=>                    =             o",
"o             =                   ,===-  *===,                   =             o",
"o             =                  %=====% ;====%                  =             o",
"o             =                  -=====> -====-                  =             o",
"o             =                 ;=======;-=====;                 =             o",
"o             =                 >========%=====>                 =             o",
"o             =                ;=========&,=====;                =             o",
"o             =                >==========*>====>                =             o",
"o             =               :===-&,k====;:=====:               =             o",
"o             =               &===p22l====- -====&               =             o",
"o             =               >==6z  :&====%%====>               =             o",
"o             =               ==>O,# - y===-:=====               =             o",
"o             =               ==0  # # u==========               =             o",
"o             =               >=8%xz,chc=========>               =             o",
"o             =               &===1.$=6==========&               =             o",
"o             =               :===gv b===========:               =             o",
"o             =               *==================*               =             o",
"o             =                -================-                =             o",
"o             =                ;================;                =             o",
"o             =                *================*                =             o",
"o             =                 &==============&                 =             o",
"o             =                 nyyyyyyyyyyyyyyn                 =             o",
"o             =                  77777777777777                  =             o",
"o             =                  vvvvvvvvvvvvvv                  =             o",
"o             =                 vmmmmmmmmmmmmmmv                 =             o",
"o             =                 &==============&                 =             o",
"o             =                :================:                =             o",
"o             =               :==================:               =             o",
"o             =              &====================&              =             o",
"o             =            %>======================>%            =             o",
"o             =           ,==========================,           =             o",
"o             =         %>============================>%         =             o",
"o             =                                                  =             o",
"o             =                                                  =             o",
"o             =                                                  =             o",
"o             =                                                  =             o",
"o             =                                                  =             o",
"o             =                                                  =             o",
"o             =                                      i=====i     =             o",
"o             =                                       i===i      =             o",
"o             =                                        ===       =             o",
"o             =                                   drrd === g==g  =             o",
"o             =                                  d====d===g====g =             o",
"o             =                                  r====r========= =             o",
"o             =                                  r====r========= =   2p3=3j4   o",
"o             =                                  d====f===i====g =    hs=s*    o",
"o             =                                   drrf=====i==g  = %s6oa=p5-iu o",
"o             =                                      6=====6     = 6==we=ye==t o",
"o             =                                      =======     = ======11==3 o",
"o             =                                      6=====6     = qr=8e=wy1wq o",
"o             =                                      5=====5     = M0;9===87:+ o",
"o             =                                       56=65      =   43===3+   o",
"o             =                                                  =   2<===<2   o",
"o             ====================================================    @<1<@    o",
"o                                                                              o",
"o                                                                       :,:%   o",
"o                                                                      >>%-&   o",
"o                                                                     ;=: ;&   o",
"o                                                                     &=  %;   o",
"o                                                                     &=       o",
"o                                                                     &=       o",
"o                                                                     &=       o",
"o                                                                     &=       o",
"o                                                                     &=       o",
"o                                                                     -=*      o",
"$+                                                                   &&&&%    +$",
" @#                                                                          #@ ",
" .O+                                                                        +O. ",
"   XooooooooooooooooooooooooooooooooooooooooooooooooooooooooooooooooooooooooX.  "};
