/* XPM */
static char * jackheart_xpm[] = {
"80 108 86 1",
" 	c #FFFFFFFFFFFF",
".	c #FFFFFBEEFFFF",
"X	c #A699A699A699",
"o	c #861782078617",
"O	c #965896589658",
"+	c #C71BC30BC71B",
"@	c #EFBEEFBEEFBE",
"#	c #AEBAAEBAAEBA",
"$	c #FFFFF7DEFFFF",
"%	c #BEFBBEFBBEFB",
"&	c #E79DE79DE79D",
"*	c #A699A289A699",
"=	c #FFFFC71BC71B",
"-	c #EFBE55555144",
";	c #965892489658",
":	c #FFFFE38DE79D",
">	c #E79D04100000",
",	c #EFBE3CF338E3",
"<	c #F7DE8E388E38",
"1	c #F7DEAAAAAEBA",
"2	c #EFBE20811861",
"3	c #F7DE75D671C6",
"4	c #E79DCF3CCF3C",
"5	c #EFBE51445144",
"6	c #E79D18611861",
"7	c #E79D92489658",
"8	c #C71B41034103",
"9	c #EFBE5D755965",
"0	c #E79D1C711861",
"q	c #F7DE82078617",
"w	c #EFBE59655965",
"e	c #E79D08200820",
"r	c #E79D0C300820",
"t	c #E79D24922081",
"y	c #FFFFCB2BCF3C",
"u	c #EFBE9A699E79",
"i	c #DF7D69A669A6",
"p	c #F7DEF3CEF7DE",
"a	c #D75C65956185",
"s	c #EFBE41034103",
"d	c #E79DDB6CDF7D",
"f	c #EFBEE79DE79D",
"g	c #DF7D49244924",
"h	c #E79D28A228A2",
"j	c #EFBECF3CCF3C",
"k	c #DF7D86178617",
"l	c #E79D14511040",
"z	c #D75C59655965",
"x	c #EFBED75CD75C",
"c	c #EFBE9E799E79",
"v	c #E79D34D330C2",
"b	c #EFBE92489658",
"n	c #F7DE92489658",
"m	c #E79D20812081",
"M	c #F7DEAEBAAEBA",
"N	c #D75C20811861",
"B	c #D75C04100000",
"V	c #F7DECB2BC71B",
"C	c #DF7D3CF338E3",
"Z	c #E79D75D671C6",
"A	c #EFBE92488E38",
"S	c #E79D59655144",
"D	c #F7DE55555144",
"F	c #FFFFEBADEFBE",
"G	c #FFFFDF7DDF7D",
"H	c #FFFFEFBEF7DE",
"J	c #FFFFF3CEF7DE",
"K	c #FFFF86178617",
"L	c #FFFFAAAAAEBA",
"P	c #D75C14510820",
"I	c #FFFFDF7DE79D",
"U	c #DF7D24921861",
"Y	c #FFFFBEFBBEFB",
"T	c #EFBE38E330C2",
"R	c #DF7D0C300820",
"E	c #FFFFA289A699",
"W	c #FFFFAEBAB6DA",
"Q	c #DF7D1C711040",
"!	c #F7DECF3CCF3C",
"~	c #D75C1C711861",
"^	c #F7DED75CD75C",
"/	c #FFFFDB6CD75C",
"(	c #DF7D4D344924",
")	c #EFBED34CD75C",
"_	c #FFFFF7DEF7DE",
"`	c #B6DAB2CAB6DA",
"  .XooooooooooooooooooooooooooooooooooooooooooooooooooooooooooooooooooooooooO.  ",
" .+@                                                                         #$ ",
" %&                                                                          &# ",
"*@    =----                                                                    ;",
"o      :>,                                                                     o",
"o       >-                                                                     o",
"o       >-                                                                     o",
"o       >-                                                                     o",
"o       >-                                                                     o",
"o       >-                                                                     o",
"o   <=  >-                                                                     o",
"o   -< 1><                                                                     o",
"o   -,=22                                                                      o",
"o   =131                                                                       o",
"o                                                                              o",
"o 45>67 76>54 8888888888888888888888888888888888888888888888888888             o",
"o 9>>>0q0>>>w 8                                                  8             o",
"o e>>>>r>>>>e 8                                                  8             o",
"o t>>>>>>>>>6 8  y,>>,y  y,>>,y                                  8             o",
"o ur>>>>>>>ei 8 y>>>>>>yy>>>>>>y                                 8             o",
"o pa>>>>>>>sd 8 w>>>>>>ww>>>>>>w                                 8             o",
"o  fge>>>>hj  8 >>>>>>>>>>>>>>>>                                 8             o",
"o    kl>rzx   8 >>>>>>>>>>>>>>>>                                 8             o",
"o     cvb     8 w>>>>>>>>>>>>>>,                                 8             o",
"o             8 :>>>>>>>>>>>>>>n                                 8             o",
"o             8  n>>>>>>>>>>>>,                                  8             o",
"o             8   w>>>>>>>>>>m:                                  8             o",
"o             8    w>>>>>>>>m:                                   8             o",
"o             8     M>>>>>>,:                                    8             o",
"o             8      ym>>>n                                      8             o",
"o             8       :w,:                                       8             o",
"o             8                                                  8             o",
"o             8                                                  8             o",
"o             8                                                  8             o",
"o             8                                                  8             o",
"o             8                                                  8             o",
"o             8                                                  8             o",
"o             8                                                  8             o",
"o             8                                                  8             o",
"o             8                   NBBV   CBN                     8             o",
"o             8                  ZBBBC  :BBBZ                    8             o",
"o             8                 VBBBBBV ABBBBV                   8             o",
"o             8                 CBBBBBN CBBBBC                   8             o",
"o             8                ABBBBBBBACBBBBBA                  8             o",
"o             8                NBBBBBBBBVBBBBBN                  8             o",
"o             8               ABBBBBBBBBSZBBBBBA                 8             o",
"o             8               NBBBBBBBBBB:NBBBBN                 8             o",
"o             8              MBBBBBBBBBBBAMBBBBBM                8             o",
"o             8              SBBDFFDDFFDBC CBBBBS                8             o",
"o             8              NBBG..GG..GBBVVBBBBN                8             o",
"o             8              BBBH......JBBCMBBBBB                8             o",
"o             8              BBBK......LBBBBBBBBB                8             o",
"o             8              NBBPy....ItBBBBBBBBN                8             o",
"o             8              SBBBUY..ITBBBBBBBBBS                8             o",
"o             8              MBBBBREWQBBBBBBBBBBM                8             o",
"o             8              :BBBBBBBBBBBBBBBBBB:                8             o",
"o             8               CBBBBBBBBBBBBBBBBC                 8             o",
"o             8               ABBBBBBBBBBBBBBBBA                 8             o",
"o             8               :BBBBBBBBBBBBBBBB:                 8             o",
"o             8                SBBBBBBBBBBBBBBS                  8             o",
"o             8                !~~~~~~~~~~~~~~!                  8             o",
"o             8                 bbbbbbbbbbbbbb                   8             o",
"o             8                 ^^^^^^^^^^^^^^                   8             o",
"o             8                /((((((((((((((/                  8             o",
"o             8                SBBBBBBBBBBBBBBS                  8             o",
"o             8               MBBBBBBBBBBBBBBBBM                 8             o",
"o             8              MBBBBBBBBBBBBBBBBBBM                8             o",
"o             8             SBBBBBBBBBBBBBBBBBBBBS               8             o",
"o             8           VNBBBBBBBBBBBBBBBBBBBBBBNV             8             o",
"o             8          ZBBBBBBBBBBBBBBBBBBBBBBBBBBZ            8             o",
"o             8        VNBBBBBBBBBBBBBBBBBBBBBBBBBBBBNV          8             o",
"o             8                                                  8             o",
"o             8                                                  8             o",
"o             8                                                  8             o",
"o             8                                                  8             o",
"o             8                                                  8             o",
"o             8                                                  8             o",
"o             8                                       :,w:       8             o",
"o             8                                      n>>>my      8             o",
"o             8                                    :,>>>>>>M     8             o",
"o             8                                   :m>>>>>>>>w    8             o",
"o             8                                  :m>>>>>>>>>>w   8             o",
"o             8                                  ,>>>>>>>>>>>>n  8             o",
"o             8                                 n>>>>>>>>>>>>>>: 8             o",
"o             8                                 ,>>>>>>>>>>>>>>w 8    pbvu     o",
"o             8                                 >>>>>>>>>>>>>>>> 8   xzr>lk    o",
"o             8                                 >>>>>>>>>>>>>>>> 8  )h>>>>egf  o",
"o             8                                 w>>>>>>ww>>>>>>w 8 ds>>>>>>>a  o",
"o             8                                 y>>>>>>yy>>>>>>y 8 ie>>>>>>>ru o",
"o             8                                  y,>>,y  y,>>,y  8 6>>>>>>>>>t o",
"o             8                                                  8 e>>>>r>>>>e o",
"o             8                                                  8 9>>>0q0>>>9 o",
"o             8888888888888888888888888888888888888888888888888888 45>67 76>54 o",
"o                                                                              o",
"o                                                                       131=   o",
"o                                                                      22=,-   o",
"o                                                                     <>1 <-   o",
"o                                                                     ->  =<   o",
"o                                                                     ->       o",
"o                                                                     ->       o",
"o                                                                     ->       o",
"o                                                                     ->       o",
"o                                                                     ->       o",
"o                                                                     ,>:      o",
";                                                                    ----=    @*",
"_#&                                                                          &% ",
" .`                                                                         @+. ",
"   OooooooooooooooooooooooooooooooooooooooooooooooooooooooooooooooooooooooooX.  "};
