/* XPM */
static char * kingspade_xpm[] = {
"80 108 62 1",
" 	c #FFFFFFFFFFFF",
".	c #FFFFFBEEFFFF",
"X	c #A699A699A699",
"o	c #861782078617",
"O	c #C71BC30BC71B",
"+	c #EFBEEFBEEFBE",
"@	c #BEFBBEFBBEFB",
"#	c #E79DE79DE79D",
"$	c #A699A289A699",
"%	c #8E388E388E38",
"&	c #514455555144",
"*	c #AEBAAAAAAEBA",
"=	c #000000000000",
"-	c #E79DE38DE79D",
";	c #18611C711861",
":	c #71C671C671C6",
">	c #38E338E338E3",
",	c #C71BC71BC71B",
"<	c #CF3CCF3CCF3C",
"1	c #59655D755965",
"2	c #D75CD75CD75C",
"3	c #38E33CF338E3",
"4	c #EFBEEBADEFBE",
"5	c #596559655965",
"6	c #965892489658",
"7	c #79E77DF779E7",
"8	c #000004100000",
"9	c #082008200820",
"0	c #8E388A288E38",
"q	c #104014511040",
"w	c #965896589658",
"e	c #492449244924",
"r	c #79E779E779E7",
"t	c #71C675D671C6",
"y	c #49244D344924",
"u	c #F7DEF7DEF7DE",
"i	c #186118611861",
"p	c #DF7DDF7DDF7D",
"a	c #F7DEF3CEF7DE",
"s	c #BEFBBAEABEFB",
"d	c #08200C300820",
"f	c #104010401040",
"g	c #28A22CB228A2",
"h	c #30C234D330C2",
"j	c #28A228A228A2",
"k	c #861786178617",
"l	c #DF7DDB6CDF7D",
"z	c #B6DAB6DAB6DA",
"x	c #79E775D679E7",
"c	c #082004100820",
"v	c #186114511861",
"b	c #208124922081",
"n	c #28A230C228A2",
"m	c #082010400820",
"M	c #D75CD34CD75C",
"N	c #30C230C230C2",
"B	c #9E799A699E79",
"V	c #618565956185",
"C	c #CF3CCB2BCF3C",
"Z	c #9E799E799E79",
"A	c #AEBAAEBAAEBA",
"S	c #410341034103",
"  .XooooooooooooooooooooooooooooooooooooooooooooooooooooooooooooooooooooooooX   ",
" .O+                                                                        +O. ",
" @#                                                                          #@ ",
"$+ %&&&% %&&%                                                                 +$",
"o   *=%  -;*                                                                   o",
"o   *=*  &%                                                                    o",
"o   *=* :&                                                                     o",
"o   *=**;                                                                      o",
"o   *=>==%                                                                     o",
"o   *=*,==-                                                                    o",
"o   *=* :=>                                                                    o",
"o   *=*  ;=*                                                                   o",
"o  ,&=&, ,=;*                                                                  o",
"o  ,***,  ***                                                                  o",
"o                                                                              o",
"o     <1<     ====================================================             o",
"o    23=32    =                                                  =             o",
"o   ->===>-   =                                                  =             o",
"o  45=====54  =         66                                       =             o",
"o  78=====97  =        0==0                                      =             o",
"o  q==9=8==q  =       w====6                                     =             o",
"o  39er=t39y  =      $8====8$                                    =             o",
"o  +-u2i2upa  =     s9======9s                                   =             o",
"o     @d@     =    2f========f2                                  =             o",
"o             =   ag==========ga                                 =             o",
"o             =   t============t                                 =             o",
"o             =   d============d                                 =             o",
"o             =   ;===8h==g====j                                 =             o",
"o             =   k9de,l==lzh8fX                                 =             o",
"o             =    #4  aiiu  -+                                  =             o",
"o             =        u;;u                                      =             o",
"o             =        s==s                                      =             o",
"o             =                                                  =             o",
"o             =                                                  =             o",
"o             =                                                  =             o",
"o             =                                                  =             o",
"o             =                                                  =             o",
"o             =                                                  =             o",
"o             =                                                  =             o",
"o             =                                                  =             o",
"o             =                       +xX                        =             o",
"o             =                       tcvl                       =             o",
"o             =                      6===b4                      =             o",
"o             =                     Oq====yu                     =             o",
"o             =                    -n=====8t                     =             o",
"o             =                    X8=8=8==m                     =             o",
"o             =                    ,;fr;5&dh                     =             o",
"o             =            *>===&&* +u 5M +a *&&===>*            =             o",
"o             =           *=========:-uNB -:=========*           =             o",
"o             =           >====3======%==%======3====>           =             o",
"o             =           ====2 <==============< 2====           =             o",
"o             =           ===Vu  ..g>======>g..  uV===           =             o",
"o             =           ===1C    p13====31p    C1===           =             o",
"o             =           :==d74    pb====bp    47d==:           =             o",
"o             =           ,==380.u  -:====:-  u.083==,           =             o",
"o             =            >==>gewZ<Ad====dA<Zweg>==>            =             o",
"o             =            -======fdq======qdf======-            =             o",
"o             =             :======================:             =             o",
"o             =              hiiiiiiiiiiiiiiiiiiiih              =             o",
"o             =              pBBBBBBBBBBBBBBBBBBBBp              =             o",
"o             =               ####################               =             o",
"o             =               yyyyyyyyyyyyyyyyyyyy               =             o",
"o             =               ====================               =             o",
"o             =               ====================               =             o",
"o             =               ====================               =             o",
"o             =                                                  =             o",
"o             =                                                  =             o",
"o             =                                                  =             o",
"o             =                                                  =             o",
"o             =                                                  =             o",
"o             =                                                  =             o",
"o             =                                                  =             o",
"o             =                                                  =             o",
"o             =                                                  =             o",
"o             =                                                  =             o",
"o             =                                                  =             o",
"o             =                                      s==s        =             o",
"o             =                                      u;;         =             o",
"o             =                                  +-   ii   4#    =             o",
"o             =                                 Xf8hzl==l,ed9k   =             o",
"o             =                                 j====N==h8===;   =             o",
"o             =                                 d============d   =             o",
"o             =                                 t============t   =             o",
"o             =                                 ag==========ga   =             o",
"o             =                                  2f========f2    =     @d@     o",
"o             =                                   s9======9s     =  apu2i2u-+  o",
"o             =                                    $8====8$      =  y9St=re93  o",
"o             =                                     w====6       =  q==8=9==q  o",
"o             =                                      0==0        =  r9=====8r  o",
"o             =                                       66         =  45=====54  o",
"o             =                                                  =   ->===>-   o",
"o             =                                                  =    23=32    o",
"o             ====================================================     <1<     o",
"o                                                                              o",
"o                                                                  ***  ,***,  o",
"o                                                                  *;=, ,&=&,  o",
"o                                                                   *=;  *=*   o",
"o                                                                    >=: *=*   o",
"o                                                                    -==,*=*   o",
"o                                                                     %==>=*   o",
"o                                                                      ;**=*   o",
"o                                                                     &: *=*   o",
"o                                                                    %&  *=*   o",
"o                                                                   *;-  %=*   o",
"$+                                                                 %&&% %&&&% +$",
" @#                                                                          #@ ",
" .O+                                                                        +O. ",
"   XooooooooooooooooooooooooooooooooooooooooooooooooooooooooooooooooooooooooX.  "};
