/* XPM */
static char * kingdiamond_xpm[] = {
"80 108 82 1",
" 	c #FFFFFFFFFFFF",
".	c #FFFFFBEEFFFF",
"X	c #A699A699A699",
"o	c #861782078617",
"O	c #C71BC30BC71B",
"+	c #EFBEEFBEEFBE",
"@	c #BEFBBEFBBEFB",
"#	c #E79DE79DE79D",
"$	c #A699A289A699",
"%	c #F7DE92489658",
"&	c #EFBE59655965",
"*	c #F7DEAEBAAEBA",
"=	c #E79D04100000",
"-	c #FFFFE38DE79D",
";	c #E79D20812081",
":	c #EFBE75D671C6",
">	c #EFBE3CF338E3",
",	c #FFFFCB2BCF3C",
"<	c #F7DEAAAAAEBA",
"1	c #F7DEC71BC71B",
"2	c #EFBEA289A699",
"3	c #DF7D69A669A6",
"4	c #DF7D86178617",
"5	c #F7DEF3CEF7DE",
"6	c #CF3CBAEABEFB",
"7	c #E79D18611861",
"8	c #BEFB82078617",
"9	c #C71B41034103",
"0	c #E79D10401040",
"q	c #C71B45144103",
"w	c #E79DE38DE79D",
"e	c #FFFFF7DEF7DE",
"r	c #F7DE86178617",
"t	c #FFFFD75CD75C",
"y	c #E79D0C300820",
"u	c #FFFFDF7DDF7D",
"i	c #F7DE6DB669A6",
"p	c #E79D00000000",
"a	c #F7DE9E799E79",
"s	c #E79D14511040",
"d	c #F7DEB2CAB6DA",
"f	c #FFFFD34CD75C",
"g	c #EFBE49244103",
"h	c #FFFFF3CEF7DE",
"j	c #FFFFEBADEFBE",
"k	c #FFFFC71BC71B",
"l	c #FFFFEFBEEFBE",
"z	c #EFBE38E338E3",
"x	c #EFBEE79DEFBE",
"c	c #FFFFDB6CDF7D",
"v	c #EFBE55555144",
"b	c #EFBE14511040",
"n	c #EFBE61856185",
"m	c #FFFFC30BC71B",
"M	c #EFBE10401040",
"N	c #EFBE18611040",
"B	c #EFBE69A669A6",
"V	c #F7DE8E388E38",
"C	c #EFBE28A22081",
"Z	c #EFBE51445144",
"A	c #F7DEB2CAAEBA",
"S	c #F7DEBAEABEFB",
"D	c #EFBE51444924",
"F	c #F7DEC30BBEFB",
"G	c #FFFFE79DE79D",
"H	c #EFBE4D344924",
"J	c #EFBE10400820",
"K	c #EFBE20811861",
"L	c #EFBE5D755965",
"P	c #F7DEA699A699",
"I	c #EFBE45144103",
"U	c #E79D08200000",
"Y	c #EFBE1C711861",
"T	c #EFBE410338E3",
"R	c #F7DE820779E7",
"E	c #EFBE24922081",
"W	c #EFBE41034103",
"Q	c #EFBE0C300820",
"!	c #DF7DDB6CDF7D",
"~	c #F7DE61856185",
"^	c #F7DE65956185",
"/	c #F7DE69A66185",
"  .XooooooooooooooooooooooooooooooooooooooooooooooooooooooooooooooooooooooooX   ",
" .O+                                                                        +O. ",
" @#                                                                          #@ ",
"$+%&&&% %&&%                                                                  +$",
"o  *=%  -;*                                                                    o",
"o  *=*  &%                                                                     o",
"o  *=* :&                                                                      o",
"o  *=**;                                                                       o",
"o  *=>==%                                                                      o",
"o  *=*,==-                                                                     o",
"o  <=< :=>                                                                     o",
"o  *=<  ;=<                                                                    o",
"o ,&=&, ,=;*                                                                   o",
"o 1*<2345*<*                                                                   o",
"o    6776                                                                      o",
"o    8==8     9999999999999999999999999999999999999999999999999999             o",
"o    0==0     9                                                  9             o",
"o  #q====q#   9       %%                                         9             o",
"o  9======9   9      %00%                                        9             o",
"o  9======9   9      0==0                                        9             o",
"o  wq====q#   9      ====                                        9             o",
"o    0==0     9     >====>                                       9             o",
"o    8==8     9     ======                                       9             o",
"o    6776     9    7======7                                      9             o",
"o    5445     9   0========0                                     9             o",
"o             9  0==========0                                    9             o",
"o             9  0==========0                                    9             o",
"o             9   0========0                                     9             o",
"o             9    7======7                                      9             o",
"o             9     ======                                       9             o",
"o             9     >====>                                       9             o",
"o             9      ====                                        9             o",
"o             9      0==0                                        9             o",
"o             9      %00%                                        9             o",
"o             9       %%                                         9             o",
"o             9                                                  9             o",
"o             9                                                  9             o",
"o             9                                                  9             o",
"o             9                                                  9             o",
"o             9                                                  9             o",
"o             9                                                  9             o",
"o             9                       err.                       9             o",
"o             9                       tyyu                       9             o",
"o             9                      .i=pi.                      9             o",
"o             9                     .as==sa.                     9             o",
"o             9                     dy==ppyf                     9             o",
"o             9                     -g==p=gh                     9             o",
"o             9                      jg=p>-                      9             o",
"o             9                       k==*                       9             o",
"o             9             ====== . +lzzjx+  ======             9             o",
"o             9            ==========  cc  ==========            9             o",
"o             9           ============ == ============           9             o",
"o             9           ======vb============bv======           9             o",
"o             9           ===nmldvMN>======>NMvdlmn===           9             o",
"o             9           ===Bfee1VnyC====CynV1eefB===           9             o",
"o             9           ===ZAu..lSDg====gDSl..uAZ===           9             o",
"o             9            ===vFGhltaHJ==JHatlhGFv===            9             o",
"o             9            ===KLP,fFrIb==bIrFf,PLK===            9             o",
"o             9             ==UYTRaVnEy==yEnVaRTYU==             9             o",
"o             9             ====UCDWCU====UCWDCU====             9             o",
"o             9              =====bNQ======QNb=====              9             o",
"o             9              !~~~~^//~~~~~~//^~~~~!              9             o",
"o             9               llllllllllllllllllll               9             o",
"o             9               ~~~~~^~~~~~~~~^~~~~~               9             o",
"o             9               ====================               9             o",
"o             9               ====================               9             o",
"o             9               ====================               9             o",
"o             9                                                  9             o",
"o             9                                                  9             o",
"o             9                                                  9             o",
"o             9                                                  9             o",
"o             9                                                  9             o",
"o             9                                                  9             o",
"o             9                                         %%       9             o",
"o             9                                        %00%      9             o",
"o             9                                        0==0      9             o",
"o             9                                        ====      9             o",
"o             9                                       >====>     9             o",
"o             9                                       ======     9             o",
"o             9                                      7======7    9             o",
"o             9                                     0========0   9             o",
"o             9                                    0==========0  9             o",
"o             9                                    0==========0  9             o",
"o             9                                     0========0   9     5445    o",
"o             9                                      7======7    9     6776    o",
"o             9                                       ======     9     8==8    o",
"o             9                                       >====>     9     0==0    o",
"o             9                                        ====      9   wq====q#  o",
"o             9                                        0==0      9   9======9  o",
"o             9                                        %00%      9   9======9  o",
"o             9                                         %%       9   #q====q#  o",
"o             9                                                  9     0==0    o",
"o             9999999999999999999999999999999999999999999999999999     8==8    o",
"o                                                                      6776    o",
"o                                                                   *<*5432<*1 o",
"o                                                                   *;=, 1&=&1 o",
"o                                                                    *=;  *=*  o",
"o                                                                     >=: *=*  o",
"o                                                                     -==,<=<  o",
"o                                                                      %==>=*  o",
"o                                                                       ;**=<  o",
"o                                                                      &: *=*  o",
"o                                                                     %&  <=*  o",
"o                                                                    *;-  %=*  o",
"$+                                                                  %&&% %&&&%+$",
" @#                                                                          #@ ",
" .O+                                                                        +O. ",
"   XooooooooooooooooooooooooooooooooooooooooooooooooooooooooooooooooooooooooX.  "};
