/* XPM */
static char * kingclub_xpm[] = {
"80 108 85 1",
" 	c #FFFFFFFFFFFF",
".	c #FFFFFBEEFFFF",
"X	c #A699A699A699",
"o	c #861782078617",
"O	c #C71BC30BC71B",
"+	c #EFBEEFBEEFBE",
"@	c #BEFBBEFBBEFB",
"#	c #E79DE79DE79D",
"$	c #A699A289A699",
"%	c #8E388E388E38",
"&	c #514455555144",
"*	c #AEBAAAAAAEBA",
"=	c #000000000000",
"-	c #E79DE38DE79D",
";	c #18611C711861",
":	c #71C671C671C6",
">	c #38E338E338E3",
",	c #C71BC71BC71B",
"<	c #38E33CF338E3",
"1	c #000004100000",
"2	c #F7DEF7DEF7DE",
"3	c #082008200820",
"4	c #F7DEF3CEF7DE",
"5	c #965892489658",
"6	c #208120812081",
"7	c #208124922081",
"8	c #B6DAB2CAB6DA",
"9	c #D75CD75CD75C",
"0	c #618565956185",
"q	c #410341034103",
"w	c #DF7DDB6CDF7D",
"e	c #71C675D671C6",
"r	c #104010401040",
"t	c #104014511040",
"y	c #08200C300820",
"u	c #618561856185",
"i	c #186120811861",
"p	c #514459655144",
"a	c #596561855965",
"s	c #30C230C230C2",
"d	c #186118611861",
"f	c #28A228A228A2",
"g	c #CF3CCB2BCF3C",
"h	c #49244D344924",
"j	c #9E799A699E79",
"k	c #59655D755965",
"l	c #596559655965",
"z	c #410345144103",
"x	c #AEBAA699AEBA",
"c	c #E79DDF7DE79D",
"v	c #DF7DDF7DDF7D",
"b	c #D75CD34CD75C",
"n	c #28A22CB228A2",
"m	c #79E779E779E7",
"M	c #514451445144",
"N	c #410349244103",
"B	c #082010400820",
"V	c #104018611040",
"C	c #000008200000",
"Z	c #965896589658",
"A	c #492449244924",
"S	c #8E388A288E38",
"D	c #30C238E330C2",
"F	c #86177DF78617",
"G	c #492451444924",
"H	c #EFBEE79DEFBE",
"J	c #96589A699658",
"K	c #FFFFF7DEFFFF",
"L	c #9E799E799E79",
"P	c #71C679E771C6",
"I	c #A699AAAAA699",
"U	c #38E3410338E3",
"Y	c #D75CDB6CD75C",
"T	c #B6DAB6DAB6DA",
"R	c #BEFBBAEABEFB",
"E	c #AEBAAEBAAEBA",
"W	c #A6999E79A699",
"Q	c #208128A22081",
"!	c #79E77DF779E7",
"~	c #30C234D330C2",
"^	c #61855D756185",
"/	c #69A669A669A6",
"(	c #EFBEEBADEFBE",
")	c #9E7996589E79",
"_	c #CF3CCF3CCF3C",
"  .XooooooooooooooooooooooooooooooooooooooooooooooooooooooooooooooooooooooooX   ",
" .O+                                                                        +O. ",
" @#                                                                          #@ ",
"$+ %&&&% %&&%                                                                 +$",
"o   *=%  -;*                                                                   o",
"o   *=*  &%                                                                    o",
"o   *=* :&                                                                     o",
"o   *=**;                                                                      o",
"o   *=>==%                                                                     o",
"o   *=*,==-                                                                    o",
"o   *=* :=>                                                                    o",
"o   *=*  ;=*                                                                   o",
"o  ,&=&, ,=;*                                                                  o",
"o  ,***,  ***                                                                  o",
"o                                                                              o",
"o    @<1<@    ====================================================             o",
"o   2<===<2   =                                                  =             o",
"o   +3===34   =                                                  =             o",
"o +*56===7%8# =     9$0q0$w                                      =             o",
"o er1;r=t6=ye =    .Xui=6u*                                      =             o",
"o 3==11====== =    2p;===;a2                                     =             o",
"o s==td=tr==f =    +s1===1<4                                     =             o",
"o gh>jk=lofz, = 2-@*sy===y>xOc4                                  =             o",
"o    -z=zv    = b*eufr1=1tnkm*b                                  =             o",
"o   4M3=3k2   = %Ny=tty=BVt=CNZ                                  =             o",
"o             = q1===1========A                                  =             o",
"o             = ld==yBy=yy3==rk                                  =             o",
"o             = SAVrDD7=7snytzS                                  =             o",
"o             = wXpA5Fh=h:m>G$w                                  =             o",
"o             =     HjD=<J#                                      =             o",
"o             =    K%Ar=thJ.                                     =             o",
"o             =    KLel&lPI.                                     =             o",
"o             =                                                  =             o",
"o             =                                                  =             o",
"o             =                                                  =             o",
"o             =                                                  =             o",
"o             =                                                  =             o",
"o             =                                                  =             o",
"o             =                                                  =             o",
"o             =                      +IMUS-                      =             o",
"o             =                      Y&rC>T                      =             o",
"o             =                     2R;==yS4.                    =             o",
"o             =                    vEe;==rlWb2                   =             o",
"o             =                    %q;t31tdQ!-                   =             o",
"o             =                    ~==11====6g                   =             o",
"o             =                    ^dr7dy;ryA9                   =             o",
"o             =                    ,!0o<6//aT                    =             o",
"o             =            *>===&&*  ()ft:+4 *&&===>*            =             o",
"o             =           *=========:-2sj -:=========*           =             o",
"o             =           >====<======%==%======<====>           =             o",
"o             =           ====9 _==============_ 9====           =             o",
"o             =           ===02  ..n>======>n..  20===           =             o",
"o             =           ===kg    vk<====<kv    gk===           =             o",
"o             =           :==y!(    v7====7v    (!y==:           =             o",
"o             =           ,==<1S.2  -:====:-  2.S1<==,           =             o",
"o             =            >==>nAZL_Ey====yE_LZAn>==>            =             o",
"o             =            -======ryt======tyr======-            =             o",
"o             =             :======================:             =             o",
"o             =              ~dddddddddddddddddddd~              =             o",
"o             =              vjjjjjjjjjjjjjjjjjjjjv              =             o",
"o             =               ####################               =             o",
"o             =               hhhhhhhhhhhhhhhhhhhh               =             o",
"o             =               ====================               =             o",
"o             =               ====================               =             o",
"o             =               ====================               =             o",
"o             =                                                  =             o",
"o             =                                                  =             o",
"o             =                                                  =             o",
"o             =                                                  =             o",
"o             =                                                  =             o",
"o             =                                                  =             o",
"o             =                                                  =             o",
"o             =                                                  =             o",
"o             =                                                  =             o",
"o             =                                                  =             o",
"o             =                                                  =             o",
"o             =                                     .IPl&leLK    =             o",
"o             =                                     .Jht=rA%K    =             o",
"o             =                                      #J<=DjH     =             o",
"o             =                                  w$G>m:h=hF5ApXw =             o",
"o             =                                  Sztyns7=7DDrVAS =             o",
"o             =                                  kr==3yy=yBy==dl =             o",
"o             =                                  A========1===1q =             o",
"o             =                                  ZNC=tVB=ytt=yN% =   4M3=3k2   o",
"o             =                                  b*mknt1=1rfue*b =    -z=zv    o",
"o             =                                  4cOx>y===ys*@-2 = gh>jk=lofz, o",
"o             =                                     4<1===1s+    = s==td=tr==f o",
"o             =                                     2a;===;p2    = 3==11====== o",
"o             =                                      *u6=iuX.    = er1;r=t6=ye o",
"o             =                                      w$0q0$9     = +*56===7%8# o",
"o             =                                                  =   +3===34   o",
"o             =                                                  =   2<===<2   o",
"o             ====================================================    @<1<@    o",
"o                                                                              o",
"o                                                                  ***  ,***,  o",
"o                                                                  *;=, ,&=&,  o",
"o                                                                   *=;  *=*   o",
"o                                                                    >=: *=*   o",
"o                                                                    -==,*=*   o",
"o                                                                     %==>=*   o",
"o                                                                      ;**=*   o",
"o                                                                     &: *=*   o",
"o                                                                    %&  *=*   o",
"o                                                                   *;-  %=*   o",
"$+                                                                 %&&% %&&&% +$",
" @#                                                                          #@ ",
" .O+                                                                        +O. ",
"   XooooooooooooooooooooooooooooooooooooooooooooooooooooooooooooooooooooooooX.  "};
