/* XPM */
static char * kingheart_xpm[] = {
"80 108 99 2",
"  	c #FFFFFFFFFFFF",
". 	c #E79D04100000",
"X 	c #965896589658",
"o 	c #861782078617",
"O 	c #AEBAAEBAAEBA",
"+ 	c #E79DE79DE79D",
"@ 	c #965892489658",
"# 	c #F7DE92489658",
"$ 	c #EFBE59655965",
"% 	c #F7DEAEBAAEBA",
"& 	c #FFFFE38DE79D",
"* 	c #E79D20812081",
"= 	c #EFBE75D671C6",
"- 	c #F7DEAAAAAEBA",
"; 	c #EFBE3CF338E3",
": 	c #FFFFCB2BCF3C",
"> 	c #F7DEC71BC71B",
", 	c #E79DCF3CCF3C",
"< 	c #EFBE51445144",
"1 	c #E79D18611861",
"2 	c #E79D92489658",
"3 	c #C71B41034103",
"4 	c #EFBE5D755965",
"5 	c #E79D1C711861",
"6 	c #F7DE82078617",
"7 	c #E79D08200820",
"8 	c #E79D0C300820",
"9 	c #E79D24922081",
"0 	c #EFBE9A699E79",
"q 	c #DF7D69A669A6",
"w 	c #F7DEF3CEF7DE",
"e 	c #D75C65956185",
"r 	c #EFBE41034103",
"t 	c #E79DDB6CDF7D",
"y 	c #EFBEE79DE79D",
"u 	c #DF7D49244924",
"i 	c #E79D28A228A2",
"p 	c #EFBECF3CCF3C",
"a 	c #DF7D86178617",
"s 	c #E79D14511040",
"d 	c #D75C59655965",
"f 	c #EFBED75CD75C",
"g 	c #EFBE9E799E79",
"h 	c #E79D34D330C2",
"j 	c #EFBE92489658",
"k 	c #FFFFFBEEFFFF",
"l 	c #EFBE2CB228A2",
"z 	c #EFBE38E330C2",
"x 	c #FFFFC30BC71B",
"c 	c #EFBE45144103",
"v 	c #EFBE28A22081",
"b 	c #F7DE820779E7",
"n 	c #FFFFF7DEFFFF",
"m 	c #EFBE14511040",
"M 	c #E79D00000000",
"N 	c #EFBE34D330C2",
"B 	c #EFBE0C300820",
"V 	c #FFFFBAEABEFB",
"C 	c #F7DEAAAAA699",
"Z 	c #F7DE8E388E38",
"A 	c #FFFFDF7DDF7D",
"S 	c #EFBE20812081",
"D 	c #F7DE9E799E79",
"F 	c #F7DE5D755965",
"G 	c #F7DE8A288E38",
"H 	c #E79D08200000",
"J 	c #EFBE55555144",
"K 	c #FFFFAEBAAEBA",
"L 	c #EFBE1C711861",
"P 	c #EFBE10400820",
"I 	c #F7DE7DF779E7",
"U 	c #FFFFD75CD75C",
"Y 	c #FFFFC71BC71B",
"T 	c #EFBE61856185",
"R 	c #FFFFEFBEEFBE",
"E 	c #F7DEB2CAB6DA",
"W 	c #EFBE10401040",
"Q 	c #EFBE18611040",
"! 	c #EFBE69A669A6",
"~ 	c #FFFFD34CD75C",
"^ 	c #FFFFF7DEF7DE",
"/ 	c #F7DEB2CAAEBA",
"( 	c #F7DEBAEABEFB",
") 	c #EFBE51444924",
"_ 	c #EFBE49244103",
"` 	c #F7DEC30BBEFB",
"' 	c #FFFFE79DE79D",
"] 	c #FFFFF3CEF7DE",
"[ 	c #EFBE4D344924",
"{ 	c #EFBE20811861",
"} 	c #F7DEA699A699",
"| 	c #F7DE86178617",
" .	c #EFBE410338E3",
"..	c #EFBE24922081",
"X.	c #DF7DDB6CDF7D",
"o.	c #F7DE61856185",
"O.	c #F7DE65956185",
"+.	c #F7DE69A66185",
"@.	c #EFBED34CD75C",
"  . . X o o o o o o o o o o o o o o o o o o o o o o o o o o o o o o o o o o o o o o o o o o o o o o o o o o o o o o o o o o o o o o o o o o o o o o o o X . . . ",
". . O                                                                                                                                                     O . . ",
". O +                                                                                                                                                     + O . ",
"@       # $ $ $ #   # $ $ #                                                                                                                                   @ ",
"o         % . #     & * %                                                                                                                                     o ",
"o         % . %     $ #                                                                                                                                       o ",
"o         % . %   = $                                                                                                                                         o ",
"o         % . % % *                                                                                                                                           o ",
"o         - . ; . . #                                                                                                                                         o ",
"o         % . % : . . &                                                                                                                                       o ",
"o         - . -   = . ;                                                                                                                                       o ",
"o         - . %     * . %                                                                                                                                     o ",
"o       : $ . $ :   : . * %                                                                                                                                   o ",
"o       > % - % >     % - %                                                                                                                                   o ",
"o                                                                                                                                                             o ",
"o   , < . 1 2   2 1 . < ,   3 3 3 3 3 3 3 3 3 3 3 3 3 3 3 3 3 3 3 3 3 3 3 3 3 3 3 3 3 3 3 3 3 3 3 3 3 3 3 3 3 3 3 3 3 3 3 3 3 3 3 3                           o ",
"o   4 . . . 5 6 5 . . . $   3                                                                                                     3                           o ",
"o   7 . . . . 8 . . . . 7   3                                                                                                     3                           o ",
"o   9 . . . . . . . . . 1   3     : ; . . ; :     : ; . . ; :                                                                     3                           o ",
"o   0 8 . . . . . . . 7 q   3   : . . . . . . : : . . . . . . :                                                                   3                           o ",
"o   w e . . . . . . . r t   3   $ . . . . . . $ $ . . . . . . $                                                                   3                           o ",
"o     y u 7 . . . . i p     3   . . . . . . . . . . . . . . . .                                                                   3                           o ",
"o         a s . 8 d f       3   . . . . . . . . . . . . . . . .                                                                   3                           o ",
"o           g h j           3   $ . . . . . . . . . . . . . . ;                                                                   3                           o ",
"o                           3   & . . . . . . . . . . . . . . #                                                                   3                           o ",
"o                           3     # . . . . . . . . . . . . ;                                                                     3                           o ",
"o                           3       $ . . . . . . . . . . * &                                                                     3                           o ",
"o                           3         $ . . . . . . . . * &                                                                       3                           o ",
"o                           3           % . . . . . . ; &                                                                         3                           o ",
"o                           3             : * . . . #                                                                             3                           o ",
"o                           3               & $ ; &                                                                               3                           o ",
"o                           3                                                                                                     3                           o ",
"o                           3                                                                                                     3                           o ",
"o                           3                                                                                                     3                           o ",
"o                           3                                                                                                     3                           o ",
"o                           3                                                                                                     3                           o ",
"o                           3                                                                                                     3                           o ",
"o                           3                                                                                                     3                           o ",
"o                           3                                                                                                     3                           o ",
"o                           3                                                                                                     3                           o ",
"o                           3                                                                                                     3                           o ",
"o                           3                                                                                                     3                           o ",
"o                           3                                                                                                     3                           o ",
"o                           3                                         k # l z x : c v b n                                         3                           o ",
"o                           3                                         : m M . N ; . . B V                                         3                           o ",
"o                           3                                         C . M . M . . . . Z                                         3                           o ",
"o                           3                                         A S M . M . . . B V                                         3                           o ",
"o                           3                                           D 8 . M . . . F k                                         3                           o ",
"o                           3                                             G m M . H J                                             3                           o ",
"o                           3                           . . . . . .       k K L P I         . . . . . .                           3                           o ",
"o                           3                         . . . . . . . . . .     U Y     . . . . . . . . . .                         3                           o ",
"o                           3                       . . . . . . . . . . . .   . .   . . . . . . . . . . . .                       3                           o ",
"o                           3                       . . . . . . J m . . . . . . . . . . . . m J . . . . . .                       3                           o ",
"o                           3                       . . . T x R E J W Q ; . . . . . . ; Q W J E R x T . . .                       3                           o ",
"o                           3                       . . . ! ~ ^ ^ > Z T 8 v . . . . v 8 T Z > ^ ^ ~ ! . . .                       3                           o ",
"o                           3                       . . . < / A k k R ( ) _ . . . . _ ) ( R k k A / < . . .                       3                           o ",
"o                           3                         . . . J ` ' ] R U D [ P . . P [ D U R ] ' ` J . . .                         3                           o ",
"o                           3                         . . . { 4 } : ~ ` | c m . . m c | ` ~ : } 4 { . . .                         3                           o ",
"o                           3                           . . H L  .b D Z T ..8 . . 8 ..T Z D b  .L H . .                           3                           o ",
"o                           3                           . . . . H v ) r v H . . . . H v r ) v H . . . .                           3                           o ",
"o                           3                             . . . . . m Q B . . . . . . B Q m . . . . .                             3                           o ",
"o                           3                             X.o.o.o.o.O.+.+.o.o.o.o.o.o.+.+.O.o.o.o.o.X.                            3                           o ",
"o                           3                               R R R R R R R R R R R R R R R R R R R R                               3                           o ",
"o                           3                               o.o.o.o.o.O.o.o.o.o.o.o.o.o.O.o.o.o.o.o.                              3                           o ",
"o                           3                               . . . . . . . . . . . . . . . . . . . .                               3                           o ",
"o                           3                               . . . . . . . . . . . . . . . . . . . .                               3                           o ",
"o                           3                               . . . . . . . . . . . . . . . . . . . .                               3                           o ",
"o                           3                                                                                                     3                           o ",
"o                           3                                                                                                     3                           o ",
"o                           3                                                                                                     3                           o ",
"o                           3                                                                                                     3                           o ",
"o                           3                                                                                                     3                           o ",
"o                           3                                                                                                     3                           o ",
"o                           3                                                                                                     3                           o ",
"o                           3                                                                                                     3                           o ",
"o                           3                                                                                                     3                           o ",
"o                           3                                                                                                     3                           o ",
"o                           3                                                                               & ; $ &               3                           o ",
"o                           3                                                                             # . . . * :             3                           o ",
"o                           3                                                                         & ; . . . . . . %           3                           o ",
"o                           3                                                                       & * . . . . . . . . $         3                           o ",
"o                           3                                                                     & * . . . . . . . . . . $       3                           o ",
"o                           3                                                                     ; . . . . . . . . . . . . #     3                           o ",
"o                           3                                                                   # . . . . . . . . . . . . . . &   3                           o ",
"o                           3                                                                   ; . . . . . . . . . . . . . . $   3         w j h 0           o ",
"o                           3                                                                   . . . . . . . . . . . . . . . .   3       f d 8 . s a         o ",
"o                           3                                                                   . . . . . . . . . . . . . . . .   3     @.i . . . . 7 u y     o ",
"o                           3                                                                   $ . . . . . . $ $ . . . . . . $   3   t r . . . . . . . e     o ",
"o                           3                                                                   : . . . . . . : : . . . . . . :   3   q 7 . . . . . . . 8 0   o ",
"o                           3                                                                     : ; . . ; :     : ; . . ; :     3   1 . . . . . . . . . 9   o ",
"o                           3                                                                                                     3   7 . . . . 8 . . . . 7   o ",
"o                           3                                                                                                     3   4 . . . 5 6 5 . . . 4   o ",
"o                           3 3 3 3 3 3 3 3 3 3 3 3 3 3 3 3 3 3 3 3 3 3 3 3 3 3 3 3 3 3 3 3 3 3 3 3 3 3 3 3 3 3 3 3 3 3 3 3 3 3 3 3   , < . 1 2   2 1 . < ,   o ",
"o                                                                                                                                                             o ",
"o                                                                                                                                   % - %     > % - % >       o ",
"o                                                                                                                                   % * . >   : $ . $ :       o ",
"o                                                                                                                                     % . *     % . %         o ",
"o                                                                                                                                       ; . =   % . %         o ",
"o                                                                                                                                       & . . : - . -         o ",
"o                                                                                                                                         # . . ; . %         o ",
"o                                                                                                                                           * - - . %         o ",
"o                                                                                                                                         $ =   % . %         o ",
"o                                                                                                                                       # $     % . -         o ",
"o                                                                                                                                     % * &     # . %         o ",
"@                                                                                                                                   # $ $ #   # $ $ $ #       @ ",
". O +                                                                                                                                                     + O . ",
". . O                                                                                                                                                     O . . ",
". . . X o o o o o o o o o o o o o o o o o o o o o o o o o o o o o o o o o o o o o o o o o o o o o o o o o o o o o o o o o o o o o o o o o o o o o o o o X .     "};
