/* XPM */
static char * queenspade_xpm[] = {
"80 108 53 1",
" 	c #FFFFFFFFFFFF",
".	c #FFFFFBEEFFFF",
"X	c #A699A699A699",
"o	c #861782078617",
"O	c #C71BC30BC71B",
"+	c #EFBEEFBEEFBE",
"@	c #BEFBBEFBBEFB",
"#	c #E79DE79DE79D",
"$	c #8E388E388E38",
"%	c #38E338E338E3",
"&	c #514455555144",
"*	c #AEBAAAAAAEBA",
"=	c #A699A289A699",
"-	c #E79DE38DE79D",
";	c #18611C711861",
":	c #000000000000",
">	c #71C671C671C6",
",	c #C71BC71BC71B",
"<	c #CF3CCF3CCF3C",
"1	c #59655D755965",
"2	c #D75CD75CD75C",
"3	c #38E33CF338E3",
"4	c #965892489658",
"5	c #EFBEEBADEFBE",
"6	c #596559655965",
"7	c #8E388A288E38",
"8	c #79E77DF779E7",
"9	c #000004100000",
"0	c #082008200820",
"q	c #965896589658",
"w	c #104014511040",
"e	c #492449244924",
"r	c #79E779E779E7",
"t	c #71C675D671C6",
"y	c #49244D344924",
"u	c #BEFBBAEABEFB",
"i	c #F7DEF7DEF7DE",
"p	c #186118611861",
"a	c #DF7DDF7DDF7D",
"s	c #F7DEF3CEF7DE",
"d	c #104010401040",
"f	c #08200C300820",
"g	c #28A22CB228A2",
"h	c #30C234D330C2",
"j	c #28A228A228A2",
"k	c #861786178617",
"l	c #DF7DDB6CDF7D",
"z	c #B6DAB6DAB6DA",
"x	c #208128A22081",
"c	c #208120812081",
"v	c #410345144103",
"b	c #FFFFF7DEFFFF",
"n	c #410341034103",
"  .XooooooooooooooooooooooooooooooooooooooooooooooooooooooooooooooooooooooooX   ",
" .O+                                                                        +O. ",
" @# $%&%%*                                                                   #@ ",
"=+-;:*  *:$                                                                   +=",
"o >:>    %:,                                                                   o",
"o ::,    >:&                                                                   o",
"o*::     *::                                                                   o",
"o*::     *::                                                                   o",
"o,::-    *:;                                                                   o",
"o ;:$    &:>                                                                   o",
"o *:;-  -:;                                                                    o",
"o  *;;**;&-                                                                    o",
"o    *:%-                                                                      o",
"o     ;;-                                                                      o",
"o     *;:&&,                                                                   o",
"o     <1<     ::::::::::::::::::::::::::::::::::::::::::::::::::::             o",
"o    23:32    :                                                  :             o",
"o   -%:::%-   :       44                                         :             o",
"o  56:::::65  :      7::7                                        :             o",
"o  89:::::08  :     q::::q                                       :             o",
"o  w::0:9::w  :    =9::::9=                                      :             o",
"o  30er:t30y  :   u0::::::0u                                     :             o",
"o  +-i2p2ias  :  2d::::::::d2                                    :             o",
"o     @f@     : sg::::::::::gs                                   :             o",
"o             : t::::::::::::t                                   :             o",
"o             : f::::::::::::f                                   :             o",
"o             : ;:::9h::g::::j                                   :             o",
"o             : k0fe,l::lzh9dX                                   :             o",
"o             :  #5  sppi  -+                                    :             o",
"o             :      i;;i                                        :             o",
"o             :      u::u                                        :             o",
"o             :                                                  :             o",
"o             :                                                  :             o",
"o             :                                                  :             o",
"o             :                                                  :             o",
"o             :                                                  :             o",
"o             :                                                  :             o",
"o             :                                                  :             o",
"o             :                                                  :             o",
"o             :                                                  :             o",
"o             :                                                  :             o",
"o             :                                                  :             o",
"o             :                                                  :             o",
"o             :                                                  :             o",
"o             :                  lyl        lyl                  :             o",
"o             :                 #g:g#      #g:g#                 :             o",
"o             :          lyl    y:::y      y:::y    lyl          :             o",
"o             :         #g:g#   xecvg      xecvg   #g:g#         :             o",
"o             :         y:::y   .by..      .by..   y:::y         :             o",
"o             :         xecvg    -;-        -;-    xecvg         :             o",
"o             :         .by..    *:&        &:*    .by..         :             o",
"o             :           $*     *::*      *::*     *$           :             o",
"o             :           -:*    >::;-    -;::$    *:-           :             o",
"o             :            %:*   &:::&    &:::&   *:%            :             o",
"o             :            *::*  &::::*  *::::&  *::*            :             o",
"o             :             :::* %::::;--;::::% *:::             :             o",
"o             :             &:::*::::::&&::::::*:::&             :             o",
"o             :             ,::::::::::::::::::::::,             :             o",
"o             :              ;::::::::::::::::::::;              :             o",
"o             :              >::::::::::::::::::::>              :             o",
"o             :              <pppppppppppppppppppp<              :             o",
"o             :               44444444444444444444               :             o",
"o             :               llllllllllllllllllll               :             o",
"o             :               eeeeeeeeeeeeeeeeeeee               :             o",
"o             :               ::::::::::::::::::::               :             o",
"o             :               ::::::::::::::::::::               :             o",
"o             :               ::::::::::::::::::::               :             o",
"o             :                                                  :             o",
"o             :                                                  :             o",
"o             :                                                  :             o",
"o             :                                                  :             o",
"o             :                                                  :             o",
"o             :                                                  :             o",
"o             :                                                  :             o",
"o             :                                                  :             o",
"o             :                                                  :             o",
"o             :                                                  :             o",
"o             :                                        u::u      :             o",
"o             :                                        i;;i      :             o",
"o             :                                    #5  sppi  -+  :             o",
"o             :                                   k0fe,l::lzh9dX :             o",
"o             :                                   ;:::9h::g::::j :             o",
"o             :                                   f::::::::::::f :             o",
"o             :                                   t::::::::::::t :             o",
"o             :                                   sg::::::::::gs :     @f@     o",
"o             :                                    2d::::::::d2  :  sai2p2i-+  o",
"o             :                                     u0::::::0u   :  y0nt:re03  o",
"o             :                                      =9::::9=    :  w::9:0::w  o",
"o             :                                       q::::q     :  r0:::::9r  o",
"o             :                                        7::7      :  56:::::65  o",
"o             :                                         44       :   -%:::%-   o",
"o             :                                                  :    23:32    o",
"o             ::::::::::::::::::::::::::::::::::::::::::::::::::::     <1<     o",
"o                                                                   ,&&:;*     o",
"o                                                                      -;;     o",
"o                                                                      -%:*    o",
"o                                                                    -&;**;;*  o",
"o                                                                    ;:-  -;:* o",
"o                                                                   >:&    $:; o",
"o                                                                   ;:*    -::,o",
"o                                                                   ::*     ::*o",
"o                                                                   ::*     ::*o",
"o                                                                   &:>    ,:: o",
"o                                                                   ,:%    >:> o",
"=+                                                                   $:*  *:;-+=",
" @#                                                                   *%%&%$ #@ ",
" .O+                                                                        +O. ",
"   XooooooooooooooooooooooooooooooooooooooooooooooooooooooooooooooooooooooooX.  "};
