/* XPM */
static char * queendiamond_xpm[] = {
"80 108 38 1",
" 	c #FFFFFFFFFFFF",
".	c #E79D04100000",
"X	c #965896589658",
"o	c #861782078617",
"O	c #AEBAAEBAAEBA",
"+	c #E79DE79DE79D",
"@	c #F7DE8E388E38",
"#	c #EFBE3CF338E3",
"$	c #EFBE55555144",
"%	c #F7DEAAAAAEBA",
"&	c #965892489658",
"*	c #FFFFE38DE79D",
"=	c #EFBE20811861",
"-	c #F7DE75D671C6",
";	c #FFFFC71BC71B",
":	c #F7DEF3CEF7DE",
">	c #D75C86178617",
",	c #DF7D86178617",
"<	c #C71B41034103",
"1	c #CF3CBAEABEFB",
"2	c #E79D18611861",
"3	c #BEFB82078617",
"4	c #F7DE86178617",
"5	c #E79D10401040",
"6	c #E79D0C300820",
"7	c #C71B45144103",
"8	c #E79DE38DE79D",
"9	c #E79D1C711861",
"0	c #FFFFE79DE79D",
"q	c #EFBE51445144",
"w	c #F7DE9A699E79",
"e	c #FFFFF3CEF7DE",
"r	c #EFBE34D330C2",
"t	c #E79D00000000",
"y	c #EFBE4D344924",
"u	c #EFBE1C711861",
"i	c #F7DE92489658",
"p	c #FFFFDB6CDF7D",
" ..XooooooooooooooooooooooooooooooooooooooooooooooooooooooooooooooooooooooooX...",
"..O                                                                          O..",
".O+ @#$##%                                                                   +O.",
"& *=.%  %.@                                                                    &",
"o -.-    #.;                                                                   o",
"o ..;    -.$                                                                   o",
"o%..     %..                                                                   o",
"o%..     %..                                                                   o",
"o;..*    %.=                                                                   o",
"o =.@    $.-                                                                   o",
"o %.=*  *.=                                                                    o",
"o  %==%%=$*                                                                    o",
"o    %.#*                                                                      o",
"o     ==*                                                                      o",
"o     %=.$$;                                                                   o",
"o    :>,:     <<<<<<<<<<<<<<<<<<<<<<<<<<<<<<<<<<<<<<<<<<<<<<<<<<<<             o",
"o    1221     <                                                  <             o",
"o    3..3     <      44                                          <             o",
"o    5..5     <     4664                                         <             o",
"o  +7....7+   <     6..6                                         <             o",
"o  <......<   <     ....                                         <             o",
"o  <......<   <    #....#                                        <             o",
"o  87....7+   <    ......                                        <             o",
"o    5..5     <   9......9                                       <             o",
"o    3..3     <  6........6                                      <             o",
"o    1221     < 6..........6                                     <             o",
"o    :,,:     < 6..........6                                     <             o",
"o             <  6........6                                      <             o",
"o             <   9......9                                       <             o",
"o             <    ......                                        <             o",
"o             <    #....#                                        <             o",
"o             <     ....                                         <             o",
"o             <     6..6                                         <             o",
"o             <     4664                                         <             o",
"o             <      44                                          <             o",
"o             <                                                  <             o",
"o             <                                                  <             o",
"o             <                                                  <             o",
"o             <                                                  <             o",
"o             <                                                  <             o",
"o             <                                                  <             o",
"o             <                  0q0        0q0                  <             o",
"o             <          0q0     w.w        w.w     0q0          <             o",
"o             <          w.w    ertre      ertre    w.w          <             o",
"o             <         ertre   y...y      y...y   ertre         <             o",
"o             <         y...y   y.t.y      y.t.y   y...y         <             o",
"o             <         y.t.y   ertre      ertre   y.t.y         <             o",
"o             <         ertre    w.w        w.w    ertre         <             o",
"o             <          w.w     0q0        0q0     w.w          <             o",
"o             <          0q0     %.@        @.%     0q0          <             o",
"o             <           -%     %..*      *..%     %-           <             o",
"o             <           ;.;    %..$      $..%    ;.;           <             o",
"o             <            ==*   $...;    ;...$   *==            <             o",
"o             <            $.=*  $...=    =...$  *=.$            <             o",
"o             <            %..#  $....@  @....$  #..%            <             o",
"o             <             ...$ =.....**.....= $...             <             o",
"o             <             $...$......$$......$...$             <             o",
"o             <             %......................%             <             o",
"o             <             *......................*             <             o",
"o             <              #....................#              <             o",
"o             <              wuuuuuuuuuuuuuuuuuuuuw              <             o",
"o             <              eiiiiiiiiiiiiiiiiiiiie              <             o",
"o             <               pppppppppppppppppppp               <             o",
"o             <               yyyyyyyyyyyyyyyyyyyy               <             o",
"o             <               ....................               <             o",
"o             <               ....................               <             o",
"o             <               ....................               <             o",
"o             <                                                  <             o",
"o             <                                                  <             o",
"o             <                                                  <             o",
"o             <                                                  <             o",
"o             <                                                  <             o",
"o             <                                                  <             o",
"o             <                                          44      <             o",
"o             <                                         4664     <             o",
"o             <                                         6..6     <             o",
"o             <                                         ....     <             o",
"o             <                                        #....#    <             o",
"o             <                                        ......    <             o",
"o             <                                       9......9   <             o",
"o             <                                      6........6  <             o",
"o             <                                     6..........6 <     :,>:    o",
"o             <                                     6..........6 <     1221    o",
"o             <                                      6........6  <     3..3    o",
"o             <                                       9......9   <     5..5    o",
"o             <                                        ......    <   +7....7+  o",
"o             <                                        #....#    <   <......<  o",
"o             <                                         ....     <   <......<  o",
"o             <                                         6..6     <   +7....78  o",
"o             <                                         4664     <     5..5    o",
"o             <                                          44      <     3..3    o",
"o             <                                                  <     1221    o",
"o             <<<<<<<<<<<<<<<<<<<<<<<<<<<<<<<<<<<<<<<<<<<<<<<<<<<<     :,,:    o",
"o                                                                   ;$$.=%     o",
"o                                                                      *==     o",
"o                                                                      *#.%    o",
"o                                                                    *$=%%==%  o",
"o                                                                    =.*  *=.% o",
"o                                                                   -.$    @.= o",
"o                                                                   =.%    *..;o",
"o                                                                   ..%     ..%o",
"o                                                                   ..%     ..%o",
"o                                                                   $.-    ;.. o",
"o                                                                   ;.#    -.- o",
"&                                                                    @.%  %.=* &",
".O+                                                                   %##$#@ +O.",
"..O                                                                          O..",
"...XooooooooooooooooooooooooooooooooooooooooooooooooooooooooooooooooooooooooX.  "};
