/* XPM */
static char * queenheart_xpm[] = {
"80 108 65 1",
" 	c #FFFFFFFFFFFF",
".	c #E79D04100000",
"X	c #965896589658",
"o	c #861782078617",
"O	c #AEBAAEBAAEBA",
"+	c #E79DE79DE79D",
"@	c #F7DE8E388E38",
"#	c #EFBE3CF338E3",
"$	c #EFBE55555144",
"%	c #F7DEAAAAAEBA",
"&	c #965892489658",
"*	c #FFFFE38DE79D",
"=	c #EFBE20811861",
"-	c #F7DE75D671C6",
";	c #FFFFC71BC71B",
":	c #E79DCF3CCF3C",
">	c #EFBE51445144",
",	c #E79D18611861",
"<	c #E79D92489658",
"1	c #C71B41034103",
"2	c #EFBE5D755965",
"3	c #E79D1C711861",
"4	c #F7DE82078617",
"5	c #EFBE59655965",
"6	c #E79D08200820",
"7	c #E79D0C300820",
"8	c #E79D24922081",
"9	c #FFFFCB2BCF3C",
"0	c #EFBE9A699E79",
"q	c #DF7D69A669A6",
"w	c #F7DEF3CEF7DE",
"e	c #D75C65956185",
"r	c #EFBE41034103",
"t	c #E79DDB6CDF7D",
"y	c #EFBEE79DE79D",
"u	c #DF7D49244924",
"i	c #E79D28A228A2",
"p	c #EFBECF3CCF3C",
"a	c #DF7D86178617",
"s	c #E79D14511040",
"d	c #D75C59655965",
"f	c #EFBED75CD75C",
"g	c #EFBE9E799E79",
"h	c #E79D34D330C2",
"j	c #EFBE92489658",
"k	c #F7DE92489658",
"l	c #E79D20812081",
"z	c #F7DEAEBAAEBA",
"x	c #F7DE79E771C6",
"c	c #E79D08200000",
"v	c #EFBE28A22081",
"b	c #FFFFAEBAAEBA",
"n	c #EFBE18611040",
"m	c #E79D00000000",
"M	c #EFBE14511040",
"N	c #F7DE71C671C6",
"B	c #FFFFFBEEFFFF",
"V	c #FFFFF3CEF7DE",
"C	c #FFFFBAEABEFB",
"Z	c #EFBE24922081",
"A	c #F7DE9A699E79",
"S	c #EFBE1C711861",
"D	c #FFFFDB6CDF7D",
"F	c #EFBE4D344924",
"G	c #EFBED34CD75C",
" ..XooooooooooooooooooooooooooooooooooooooooooooooooooooooooooooooooooooooooX...",
"..O                                                                          O..",
".O+ @#$##%                                                                   +O.",
"& *=.%  %.@                                                                    &",
"o -.-    #.;                                                                   o",
"o ..;    -.$                                                                   o",
"o%..     %..                                                                   o",
"o%..     %..                                                                   o",
"o;..*    %.=                                                                   o",
"o =.@    $.-                                                                   o",
"o %.=*  *.=                                                                    o",
"o  %==%%=$*                                                                    o",
"o    %.#*                                                                      o",
"o     ==*                                                                      o",
"o     %=.$$;                                                                   o",
"o :>.,< <,.>: 1111111111111111111111111111111111111111111111111111             o",
"o 2...343...5 1                                                  1             o",
"o 6....7....6 1                                                  1             o",
"o 8........., 1  9#..#9  9#..#9                                  1             o",
"o 07.......6q 1 9......99......9                                 1             o",
"o we.......rt 1 5......55......5                                 1             o",
"o  yu6....ip  1 ................                                 1             o",
"o    as.7df   1 ................                                 1             o",
"o     ghj     1 5..............#                                 1             o",
"o             1 *..............k                                 1             o",
"o             1  k............#                                  1             o",
"o             1   5..........l*                                  1             o",
"o             1    5........l*                                   1             o",
"o             1     z......#*                                    1             o",
"o             1      9l...k                                      1             o",
"o             1       *5#*                                       1             o",
"o             1                                                  1             o",
"o             1                                                  1             o",
"o             1                                                  1             o",
"o             1                                                  1             o",
"o             1                                                  1             o",
"o             1                                                  1             o",
"o             1                                                  1             o",
"o             1                                                  1             o",
"o             1                                                  1             o",
"o             1                                                  1             o",
"o             1                                                  1             o",
"o             1                                                  1             o",
"o             1                xcvbvcx    xcvbvcx                1             o",
"o             1                nmmMmmM    nmmMmmM                1             o",
"o             1        xcvbvcx @.mmm.N    @.mmm.N xcvbvcx        1             o",
"o             1        nmmMmmM Bkcm.2V    Bkcm.2V nmmMmmM        1             o",
"o             1        @.mmm.N   CZzB       CZzB  @.mmm.N        1             o",
"o             1        Bkcm.2V   *=          =*   Bkcm.2V        1             o",
"o             1          CZzB    %.@        @.%     CZzB         1             o",
"o             1           -%     %..*      *..%     %-           1             o",
"o             1           ;.;    %..$      $..%    ;.;           1             o",
"o             1            ==*   $...;    ;...$   *==            1             o",
"o             1            $.=*  $...=    =...$  *=.$            1             o",
"o             1            %..#  $....@  @....$  #..%            1             o",
"o             1             ...$ =.....**.....= $...             1             o",
"o             1             $...$......$$......$...$             1             o",
"o             1             %......................%             1             o",
"o             1             *......................*             1             o",
"o             1              #....................#              1             o",
"o             1              ASSSSSSSSSSSSSSSSSSSSA              1             o",
"o             1              VkkkkkkkkkkkkkkkkkkkkV              1             o",
"o             1               DDDDDDDDDDDDDDDDDDDD               1             o",
"o             1               FFFFFFFFFFFFFFFFFFFF               1             o",
"o             1               ....................               1             o",
"o             1               ....................               1             o",
"o             1               ....................               1             o",
"o             1                                                  1             o",
"o             1                                                  1             o",
"o             1                                                  1             o",
"o             1                                                  1             o",
"o             1                                                  1             o",
"o             1                                                  1             o",
"o             1                                                  1             o",
"o             1                                                  1             o",
"o             1                                                  1             o",
"o             1                                                  1             o",
"o             1                                       *#5*       1             o",
"o             1                                      k...l9      1             o",
"o             1                                    *#......z     1             o",
"o             1                                   *l........5    1             o",
"o             1                                  *l..........5   1             o",
"o             1                                  #............k  1             o",
"o             1                                 k..............* 1             o",
"o             1                                 #..............5 1    wjh0     o",
"o             1                                 ................ 1   fd7.sa    o",
"o             1                                 ................ 1  Gi....6uy  o",
"o             1                                 5......55......5 1 tr.......e  o",
"o             1                                 9......99......9 1 q6.......70 o",
"o             1                                  9#..#9  9#..#9  1 ,.........8 o",
"o             1                                                  1 6....7....6 o",
"o             1                                                  1 2...343...2 o",
"o             1111111111111111111111111111111111111111111111111111 :>.,< <,.>: o",
"o                                                                   ;$$.=%     o",
"o                                                                      *==     o",
"o                                                                      *#.%    o",
"o                                                                    *$=%%==%  o",
"o                                                                    =.*  *=.% o",
"o                                                                   -.$    @.= o",
"o                                                                   =.%    *..;o",
"o                                                                   ..%     ..%o",
"o                                                                   ..%     ..%o",
"o                                                                   $.-    ;.. o",
"o                                                                   ;.#    -.- o",
"&                                                                    @.%  %.=* &",
".O+                                                                   %##$#@ +O.",
"..O                                                                          O..",
"...XooooooooooooooooooooooooooooooooooooooooooooooooooooooooooooooooooooooooX.  "};
