/* XPM */
static char * slot_xpm[] = {
"80 108 3 1",
" 	c #5144DB6CCF3C",
".	c #4103B2CAA699",
"X	c #38E39E799658",
"                                                                               .",
" ..............................................................................X",
" ..............................................................................X",
" ..............................................................................X",
" ..............................................................................X",
" ..............................................................................X",
" ..............................................................................X",
" ..............................................................................X",
" ..............................................................................X",
" ..............................................................................X",
" ..............................................................................X",
" ..............................................................................X",
" ..............................................................................X",
" ..............................................................................X",
" ..............................................................................X",
" ..............................................................................X",
" ..............................................................................X",
" ..............................................................................X",
" ..............................................................................X",
" ..............................................................................X",
" ..............................................................................X",
" ..............................................................................X",
" ..............................................................................X",
" ..............................................................................X",
" ..............................................................................X",
" ..............................................................................X",
" ..............................................................................X",
" ..............................................................................X",
" ..............................................................................X",
" ..............................................................................X",
" ..............................................................................X",
" ..............................................................................X",
" ..............................................................................X",
" ..............................................................................X",
" ..............................................................................X",
" ..............................................................................X",
" ..............................................................................X",
" ..............................................................................X",
" ..............................................................................X",
" ..............................................................................X",
" ..............................................................................X",
" ..............................................................................X",
" ..............................................................................X",
" ..............................................................................X",
" ..............................................................................X",
" ..............................................................................X",
" ..............................................................................X",
" ..............................................................................X",
" ..............................................................................X",
" ..............................................................................X",
" ..............................................................................X",
" ..............................................................................X",
" ..............................................................................X",
" ..............................................................................X",
" ..............................................................................X",
" ..............................................................................X",
" ..............................................................................X",
" ..............................................................................X",
" ..............................................................................X",
" ..............................................................................X",
" ..............................................................................X",
" ..............................................................................X",
" ..............................................................................X",
" ..............................................................................X",
" ..............................................................................X",
" ..............................................................................X",
" ..............................................................................X",
" ..............................................................................X",
" ..............................................................................X",
" ..............................................................................X",
" ..............................................................................X",
" ..............................................................................X",
" ..............................................................................X",
" ..............................................................................X",
" ..............................................................................X",
" ..............................................................................X",
" ..............................................................................X",
" ..............................................................................X",
" ..............................................................................X",
" ..............................................................................X",
" ..............................................................................X",
" ..............................................................................X",
" ..............................................................................X",
" ..............................................................................X",
" ..............................................................................X",
" ..............................................................................X",
" ..............................................................................X",
" ..............................................................................X",
" ..............................................................................X",
" ..............................................................................X",
" ..............................................................................X",
" ..............................................................................X",
" ..............................................................................X",
" ..............................................................................X",
" ..............................................................................X",
" ..............................................................................X",
" ..............................................................................X",
" ..............................................................................X",
" ..............................................................................X",
" ..............................................................................X",
" ..............................................................................X",
" ..............................................................................X",
" ..............................................................................X",
" ..............................................................................X",
" ..............................................................................X",
" ..............................................................................X",
" ..............................................................................X",
".XXXXXXXXXXXXXXXXXXXXXXXXXXXXXXXXXXXXXXXXXXXXXXXXXXXXXXXXXXXXXXXXXXXXXXXXXXXXXXX"};
