/* XPM */
static char * Ace_Spades_xpm[] = {
"79 123 11 1",
" 	c None",
".	c #000000000000",
"X	c #FFFFFFFFFFFF",
"o	c #79E77DF779E7",
"O	c #38E33CF338E3",
"+	c #BEFBBEFBBEFB",
"@	c #DF7DDF7DDF7D",
"#	c #59655D755965",
"$	c #18611C711861",
"%	c #9E799E799E79",
"&	c #D75CD75CD75C",
"       .................................................................       ",
"     ..XXXXXXXXXXXXXXXXXXXXXXXXXXXXXXXXXXXXXXXXXXXXXXXXXXXXXXXXXXXXXXXXX..     ",
"   ..XXXXXXXXXXXXXXXXXXXXXXXXXXXXXXXXXXXXXXXXXXXXXXXXXXXXXXXXXXXXXXXXXXXXX..   ",
"  .XXXXXXXXXXXXXXXXXXXXXXXXXXXXXXXXXXXXXXXXXXXXXXXXXXXXXXXXXXXXXXXXXXXXXXXXX.  ",
"  .XXXXXXXXXXXXXXXXXXXXXXXXXXXXXXXXXXXXXXXXXXXXXXXXXXXXXXXXXXXXXXXXXXXXXXXXX.  ",
" .XXXXXXXXXXXXXXXXXXXXXXXXXXXXXXXXXXXXXXXXXXXXXXXXXXXXXXXXXXXXXXXXXXXXXXXXXXX. ",
" .XXXXX...XXXXXXXXXXXXXXXXXXXXXXXXXXXXXXXXXXXXXXXXXXXXXXXXXXXXXXXXXXXXXXXXXXX. ",
".XXXXXX...XXXXXXXXXXXXXXXXXXXXXXXXXXXXXXXXXXXXXXXXXXXXXXXXXXXXXXXXXXXXXXXXXXXX.",
".XXXXXo...oXXXXXXXXXXXXXXXXXXXXXXXXXXXXXXXXXXXXXXXXXXXXXXXXXXXXXXXXXXXXXXXXXXX.",
".XXXXXo.X.oXXXXXXXXXXXXXXXXXXXXXXXXXXXXXXXXXXXXXXXXXXXXXXXXXXXXXXXXXXXXXXXXXXX.",
".XXXXX..X..XXXXXXXXXXXXXXXXXXXXXXXXXXXXXXXXXXXXXXXXXXXXXXXXXXXXXXXXXXXXXXXXXXX.",
".XXXXX.oXo.XXXXXXXXXXXXXXXXXXXXXXXXXXXXXXXXXXXXXXXXXXXXXXXXXXXXXXXXXXXXXXXXXXX.",
".XXXXo.oXo.oXXXXXXXXXXXXXXXXXXXXXXXXXXXXXXXXXXXXXXXXXXXXXXXXXXXXXXXXXXXXXXXXXX.",
".XXXXo.XXX.oXXXXXXXXXXXXXXXXXXXXXXXXXXXXXXXXXXXXXXXXXXXXXXXXXXXXXXXXXXXXXXXXXX.",
".XXXX.......XXXXXXXXXXXXXXXXXXXXXXXXXXXXXXXXXXXXXXXXXXXXXXXXXXXXXXXXXXXXXXXXXX.",
".XXXX.......XXXXXXXXXXXXXXXXXXXXXXXXXXXXXXXXXXXXXXXXXXXXXXXXXXXXXXXXXXXXXXXXXX.",
".XXXo.OXXXO.oXXXXXXXXXXXXXXXXXXXXXXXXXXXXXXXXXXXXXXXXXXXXXXXXXXXXXXXXXXXXXXXXX.",
".XXXo.+XXX+.oXXXXXXXXXXXXXXXXXXXXXXXXXXXXXXXXXXXXXXXXXXXXXXXXXXXXXXXXXXXXXXXXX.",
".XXX..XXXXX..XXXXXXXXXXXXXXXXXXXXXXXXXXXXXXXXXXXXXXXXXXXXXXXXXXXXXXXXXXXXXXXXX.",
".XXX..XXXXX..XXXXXXXXXXXXXXXXXXXXXXXXXXXXXXXXXXXXXXXXXXXXXXXXXXXXXXXXXXXXXXXXX.",
".XXXXXXXXXXXXXXXXXXXXXXXXXXXXXXXXXXXXXXXXXXXXXXXXXXXXXXXXXXXXXXXXXXXXXXXXXXXXX.",
".XXXXXXXXXXXXXXXXXXXXXXXXXXXXXXXXXXXXXXXXXXXXXXXXXXXXXXXXXXXXXXXXXXXXXXXXXXXXX.",
".XXXXXXX@XXXXXXXXXXXXXXXXXXXXXXXXXXXXXXXXXXXXXXXXXXXXXXXXXXXXXXXXXXXXXXXXXXXXX.",
".XXXXXXX#XXXXXXXXXXXXXXXXXXXXXXXXXXXXXXXXXXXXXXXXXXXXXXXXXXXXXXXXXXXXXXXXXXXXX.",
".XXXXXXo.oXXXXXXXXXXXXXXXXXXXXXXXXXXXXXXXXXXXXXXXXXXXXXXXXXXXXXXXXXXXXXXXXXXXX.",
".XXXXXo...oXXXXXXXXXXXXXXXXXXXXXXXXXXXXXXXXXXXXXXXXXXXXXXXXXXXXXXXXXXXXXXXXXXX.",
".XXXXo.....oXXXXXXXXXXXXXXXXXXXXXXXXXXXXXXXXXXXXXXXXXXXXXXXXXXXXXXXXXXXXXXXXXX.",
".XXX#.......#XXXXXXXXXXXXXXXXXXXXXXXXXXXXXXXXXXXXXXXXXXXXXXXXXXXXXXXXXXXXXXXXX.",
".XXX....$....XXXXXXXXXXXXXXXXXXXXXXXXXXXXXXXXXXXXXXXXXXXXXXXXXXXXXXXXXXXXXXXXX.",
".XXXO..%o%..O&&&&&&&&&&XXXXXXXXXXXXXXXXXXXXXXXXXXXXXXXXXXXXXXXXXXX&&&&&XXXXXXX.",
".XXXX%+X$&+%&&&&&&&&&&&&XXXXXXXXXXXXXXXXXXXXXXXXXXXXXXXXXXXXXXXXXX&&&&&XXXXXXX.",
".XXXXXX@.@&&&&&&&&&&&&&&&XXXXXXXXXXXXXXXXXXXXXXXXXXXXXXXXXXXXXXXX&&&&&XXXXXXXX.",
".XXXXXX+o+&&&&&&&&&&&&&&&&XXXXXXXXXXXXXXXXXXXXXXXXXXXXXXXXXXXXXX&&&&&XXXXXXXXX.",
".XXXXXXXXX&&&&&&&&&&&&&&&&XXXXXXXXXXXXXXXXXXXXXXXXXXXXXXXXXXXXX&&&&&XXXXXXXXXX.",
".XXXXXXXXXX&&&&&&&&&&&&&&&&XXXXXXXXXXXXXXXXXXXXXXXXXXXXXXXXXXX&&&&&XXXXXXXXXXX.",
".XXXXXXXXXXX&&&&&&&&&&&&&&&&XXXXXXXXXXXXXXXXXXXXXXXXXXXXXXXXXX&&&&&XXXXXXXXXXX.",
".XXXXXXXXXXXX&&&&&&&&&&&&&&&&XXXXXXXXXXXXXXXXXXXXXXXXXXXXXXXX&&&&&XXXXXXXXXXXX.",
".XXXXXXXXXXXX&&&&&&&&&&&&&&&&XXXXXXXXXXXXXXXXXXXXXXXXXXXXXXX&&&&&XXXXXXXXXXXXX.",
".XXXXXXXXXXXXX&&&&&&&&&&&&&&&&XXXXXXXXXXXXXXXXXXXXXXXXXXXXX&&&&&XXXXXXXXXXXXXX.",
".XXXXXXXXXXXXXX&&&&&&&&&&&&&&&&XXXXXXXXXXXXXXXXXXXXXXXXXXX&&&&&XXXXXXXXXXXXXXX.",
".XXXXXXXXXXXXXXX&&&&&&&&&&&&&&&&XXXXXXXXXXXXXXXXXXXXXXXXXX&&&&&XXXXXXXXXXXXXXX.",
".XXXXXXXXXXXXXXX&&&&&&&&&&&&&&&&XXXXXXXXXXXXXXXXXXXXXXXXX&&&&&XXXXXXXXXXXXXXXX.",
".XXXXXXXXXXXXXXXX&&&&&&&&&&&&&&&&XXXXXXXXXXXXXXXXXXXXXXX&&&&&XXXXXXXXXXXXXXXXX.",
".XXXXXXXXXXXXXXXXX&&&&&&&&&&&&&&&&XXXXXXXXXXXXXXXXXXXXX&&&&&XXXXXXXXXXXXXXXXXX.",
".XXXXXXXXXXXXXXXXXX&&&&&&&&&&&&&&&&XXXXXXXXXXXXXXXXXXX&&&&&XXXXXXXXXXXXXXXXXXX.",
".XXXXXXXXXXXXXXXXXX&&&&&&&&&&&&&&&&XXXXXXXXXXXXXXXXXX&&&&&XXXXXXXXXXXXXXXXXXXX.",
".XXXXXXXXXXXXXXXXXXX&&&&&&&&&&&&&&&&XXXXXXXXXXXXXXXXX&&&&&XXXXXXXXXXXXXXXXXXXX.",
".XXXXXXXXXXXXXXXXXXXX&&&&&&&&&&&&&&&&XXXXXXXXXXXXXXX&&&&&XXXXXXXXXXXXXXXXXXXXX.",
".XXXXXXXXXXXXXXXXXXXXX&&&&&&&&&&&&&&&&XXXXXXXXXXXXX&&&&&XXXXXXXXXXXXXXXXXXXXXX.",
".XXXXXXXXXXXXXXXXXXXXX&&&&&&&&&&&&&&&&XXXXXXXXXXXX&&&&&XXXXXXXXXXXXXXXXXXXXXXX.",
".XXXXXXXXXXXXXXXXXXXXXX&&&&&&&&&&&&&&&&XXXXXXXXXX&&&&&XXXXXXXXXXXXXXXXXXXXXXXX.",
".XXXXXXXXXXXXXXXXXXXXXXX&&&&&&&&&&&&&&&&XXXXXXXXX&&&&&XXXXXXXXXXXXXXXXXXXXXXXX.",
".XXXXXXXXXXXXXXXXXXXXXXXX&&&&&&&&&&&&&&#&XXXXXXX&&&&&XXXXXXXXXXXXXXXXXXXXXXXXX.",
".XXXXXXXXXXXXXXXXXXXXXXXX&&&&&&&&&&&&&@.@XXXXXX&&&&&XXXXXXXXXXXXXXXXXXXXXXXXXX.",
".XXXXXXXXXXXXXXXXXXXXXXXXX&&&&&&&&&&&&#.#&XXXX&&&&&XXXXXXXXXXXXXXXXXXXXXXXXXXX.",
".XXXXXXXXXXXXXXXXXXXXXXXXXX&&&&&&&&&&%...%&XX&&&&&XXXXXXXXXXXXXXXXXXXXXXXXXXXX.",
".XXXXXXXXXXXXXXXXXXXXXXXXXXX&&&&&&&&%.....%XX&&&&&XXXXXXXXXXXXXXXXXXXXXXXXXXXX.",
".XXXXXXXXXXXXXXXXXXXXXXXXXXX&&&&&&&%.......%&&&&&XXXXXXXXXXXXXXXXXXXXXXXXXXXXX.",
".XXXXXXXXXXXXXXXXXXXXXXXXXXXX&&&&&%.........%&&&XXXXXXXXXXXXXXXXXXXXXXXXXXXXXX.",
".XXXXXXXXXXXXXXXXXXXXXXXXXXXXX&&&#...........#&XXXXXXXXXXXXXXXXXXXXXXXXXXXXXXX.",
".XXXXXXXXXXXXXXXXXXXXXXXXXXXXXX@O.............O@XXXXXXXXXXXXXXXXXXXXXXXXXXXXXX.",
".XXXXXXXXXXXXXXXXXXXXXXXXXXXXXX$...............$XXXXXXXXXXXXXXXXXXXXXXXXXXXXXX.",
".XXXXXXXXXXXXXXXXXXXXXXXXXXXXX%.................%XXXXXXXXXXXXXXXXXXXXXXXXXXXXX.",
".XXXXXXXXXXXXXXXXXXXXXXXXXXXXXo.................oXXXXXXXXXXXXXXXXXXXXXXXXXXXXX.",
".XXXXXXXXXXXXXXXXXXXXXXXXXXXXXo.......%.%.......o&XXXXXXXXXXXXXXXXXXXXXXXXXXXX.",
".XXXXXXXXXXXXXXXXXXXXXXXXXXXXX@......+&.&+......@&XXXXXXXXXXXXXXXXXXXXXXXXXXXX.",
".XXXXXXXXXXXXXXXXXXXXXXXXXXXX&&+$...%&+.+&%...$+&&&XXXXXXXXXXXXXXXXXXXXXXXXXXX.",
".XXXXXXXXXXXXXXXXXXXXXXXXXXXX&&&&++@&&%.%&&@++&&&&&&XXXXXXXXXXXXXXXXXXXXXXXXXX.",
".XXXXXXXXXXXXXXXXXXXXXXXXXXX&&&&&XXXX&#.#&&&&&&&&&&&&XXXXXXXXXXXXXXXXXXXXXXXXX.",
".XXXXXXXXXXXXXXXXXXXXXXXXXX&&&&&XXXXX&$.$&&&&&&&&&&&&XXXXXXXXXXXXXXXXXXXXXXXXX.",
".XXXXXXXXXXXXXXXXXXXXXXXXX&&&&&XXXXXX@...@&&&&&&&&&&&&XXXXXXXXXXXXXXXXXXXXXXXX.",
".XXXXXXXXXXXXXXXXXXXXXXXX&&&&&XXXXXXX%OoO%&&&&&&&&&&&&&XXXXXXXXXXXXXXXXXXXXXXX.",
".XXXXXXXXXXXXXXXXXXXXXXXX&&&&&XXXXXXXXXX&&&&&&&&&&&&&&&&XXXXXXXXXXXXXXXXXXXXXX.",
".XXXXXXXXXXXXXXXXXXXXXXX&&&&&XXXXXXXXXXX&&&&&&&&&&&&&&&&XXXXXXXXXXXXXXXXXXXXXX.",
".XXXXXXXXXXXXXXXXXXXXXX&&&&&XXXXXXXXXXXXX&&&&&&&&&&&&&&&&XXXXXXXXXXXXXXXXXXXXX.",
".XXXXXXXXXXXXXXXXXXXXX&&&&&XXXXXXXXXXXXXXX&&&&&&&&&&&&&&&&XXXXXXXXXXXXXXXXXXXX.",
".XXXXXXXXXXXXXXXXXXXX&&&&&XXXXXXXXXXXXXXXXX&&&&&&&&&&&&&&&&XXXXXXXXXXXXXXXXXXX.",
".XXXXXXXXXXXXXXXXXXX&&&&&XXXXXXXXXXXXXXXXXX&&&&&&&&&&&&&&&&XXXXXXXXXXXXXXXXXXX.",
".XXXXXXXXXXXXXXXXXXX&&&&&XXXXXXXXXXXXXXXXXXX&&&&&&&&&&&&&&&&XXXXXXXXXXXXXXXXXX.",
".XXXXXXXXXXXXXXXXXX&&&&&XXXXXXXXXXXXXXXXXXXXX&&&&&&&&&&&&&&&&XXXXXXXXXXXXXXXXX.",
".XXXXXXXXXXXXXXXXX&&&&&XXXXXXXXXXXXXXXXXXXXXXX&&&&&&&&&&&&&&&&XXXXXXXXXXXXXXXX.",
".XXXXXXXXXXXXXXXX&&&&&XXXXXXXXXXXXXXXXXXXXXXXX&&&&&&&&&&&&&&&&XXXXXXXXXXXXXXXX.",
".XXXXXXXXXXXXXXX&&&&&XXXXXXXXXXXXXXXXXXXXXXXXXX&&&&&&&&&&&&&&&&XXXXXXXXXXXXXXX.",
".XXXXXXXXXXXXXXX&&&&&XXXXXXXXXXXXXXXXXXXXXXXXXXX&&&&&&&&&&&&&&&&XXXXXXXXXXXXXX.",
".XXXXXXXXXXXXXX&&&&&XXXXXXXXXXXXXXXXXXXXXXXXXXXXX&&&&&&&&&&&&&&&&XXXXXXXXXXXXX.",
".XXXXXXXXXXXXX&&&&&XXXXXXXXXXXXXXXXXXXXXXXXXXXXXX&&&&&&&&&&&&&&&&XXXXXXXXXXXXX.",
".XXXXXXXXXXXX&&&&&XXXXXXXXXXXXXXXXXXXXXXXXXXXXXXXX&&&&&&&&&&&&&&&&XXXXXXXXXXXX.",
".XXXXXXXXXXX&&&&&XXXXXXXXXXXXXXXXXXXXXXXXXXXXXXXXXX&&&&&&&&&&&&&&&&XXXXXXXXXXX.",
".XXXXXXXXXXX&&&&&XXXXXXXXXXXXXXXXXXXXXXXXXXXXXXXXXXX&&&&&&&&&&&&&&&&XXXXXXXXXX.",
".XXXXXXXXXX&&&&&XXXXXXXXXXXXXXXXXXXXXXXXXXXXXXXXXXXX&&&&&&&&&&&&&&&&XXXXXXXXXX.",
".XXXXXXXXX&&&&&XXXXXXXXXXXXXXXXXXXXXXXXXXXXXXXXXXXXXX&&&&&&&&&&&&&&&&+o+XXXXXX.",
".XXXXXXXX&&&&&XXXXXXXXXXXXXXXXXXXXXXXXXXXXXXXXXXXXXXXX&&&&&&&&&&&&&&&@.@XXXXXX.",
".XXXXXXX&&&&&XXXXXXXXXXXXXXXXXXXXXXXXXXXXXXXXXXXXXXXXXX&&&&&&&&&&&&%+&$X+%XXXX.",
".XXXXXXXXXXXXXXXXXXXXXXXXXXXXXXXXXXXXXXXXXXXXXXXXXXXXXXXXXXXXXXXXXO..%o%..OXXX.",
".XXXXXXXXXXXXXXXXXXXXXXXXXXXXXXXXXXXXXXXXXXXXXXXXXXXXXXXXXXXXXXXXX....$....XXX.",
".XXXXXXXXXXXXXXXXXXXXXXXXXXXXXXXXXXXXXXXXXXXXXXXXXXXXXXXXXXXXXXXXX#.......#XXX.",
".XXXXXXXXXXXXXXXXXXXXXXXXXXXXXXXXXXXXXXXXXXXXXXXXXXXXXXXXXXXXXXXXXXo.....oXXXX.",
".XXXXXXXXXXXXXXXXXXXXXXXXXXXXXXXXXXXXXXXXXXXXXXXXXXXXXXXXXXXXXXXXXXXo...oXXXXX.",
".XXXXXXXXXXXXXXXXXXXXXXXXXXXXXXXXXXXXXXXXXXXXXXXXXXXXXXXXXXXXXXXXXXXXo.oXXXXXX.",
".XXXXXXXXXXXXXXXXXXXXXXXXXXXXXXXXXXXXXXXXXXXXXXXXXXXXXXXXXXXXXXXXXXXXX#XXXXXXX.",
".XXXXXXXXXXXXXXXXXXXXXXXXXXXXXXXXXXXXXXXXXXXXXXXXXXXXXXXXXXXXXXXXXXXXX@XXXXXXX.",
".XXXXXXXXXXXXXXXXXXXXXXXXXXXXXXXXXXXXXXXXXXXXXXXXXXXXXXXXXXXXXXXXXXXXXXXXXXXXX.",
".XXXXXXXXXXXXXXXXXXXXXXXXXXXXXXXXXXXXXXXXXXXXXXXXXXXXXXXXXXXXXXXXXXXXXXXXXXXXX.",
".XXXXXXXXXXXXXXXXXXXXXXXXXXXXXXXXXXXXXXXXXXXXXXXXXXXXXXXXXXXXXXXXX..XXXXX..XXX.",
".XXXXXXXXXXXXXXXXXXXXXXXXXXXXXXXXXXXXXXXXXXXXXXXXXXXXXXXXXXXXXXXXX..XXXXX..XXX.",
".XXXXXXXXXXXXXXXXXXXXXXXXXXXXXXXXXXXXXXXXXXXXXXXXXXXXXXXXXXXXXXXXXo.+XXX+.oXXX.",
".XXXXXXXXXXXXXXXXXXXXXXXXXXXXXXXXXXXXXXXXXXXXXXXXXXXXXXXXXXXXXXXXXo.OXXXO.oXXX.",
".XXXXXXXXXXXXXXXXXXXXXXXXXXXXXXXXXXXXXXXXXXXXXXXXXXXXXXXXXXXXXXXXXX.......XXXX.",
".XXXXXXXXXXXXXXXXXXXXXXXXXXXXXXXXXXXXXXXXXXXXXXXXXXXXXXXXXXXXXXXXXX.......XXXX.",
".XXXXXXXXXXXXXXXXXXXXXXXXXXXXXXXXXXXXXXXXXXXXXXXXXXXXXXXXXXXXXXXXXXo.XXX.oXXXX.",
".XXXXXXXXXXXXXXXXXXXXXXXXXXXXXXXXXXXXXXXXXXXXXXXXXXXXXXXXXXXXXXXXXXo.oXo.oXXXX.",
".XXXXXXXXXXXXXXXXXXXXXXXXXXXXXXXXXXXXXXXXXXXXXXXXXXXXXXXXXXXXXXXXXXX.oXo.XXXXX.",
".XXXXXXXXXXXXXXXXXXXXXXXXXXXXXXXXXXXXXXXXXXXXXXXXXXXXXXXXXXXXXXXXXXX..X..XXXXX.",
".XXXXXXXXXXXXXXXXXXXXXXXXXXXXXXXXXXXXXXXXXXXXXXXXXXXXXXXXXXXXXXXXXXXo.X.oXXXXX.",
".XXXXXXXXXXXXXXXXXXXXXXXXXXXXXXXXXXXXXXXXXXXXXXXXXXXXXXXXXXXXXXXXXXXo...oXXXXX.",
".XXXXXXXXXXXXXXXXXXXXXXXXXXXXXXXXXXXXXXXXXXXXXXXXXXXXXXXXXXXXXXXXXXXX...XXXXXX.",
" .XXXXXXXXXXXXXXXXXXXXXXXXXXXXXXXXXXXXXXXXXXXXXXXXXXXXXXXXXXXXXXXXXXX...XXXXX. ",
" .XXXXXXXXXXXXXXXXXXXXXXXXXXXXXXXXXXXXXXXXXXXXXXXXXXXXXXXXXXXXXXXXXXXXXXXXXXX. ",
"  .XXXXXXXXXXXXXXXXXXXXXXXXXXXXXXXXXXXXXXXXXXXXXXXXXXXXXXXXXXXXXXXXXXXXXXXXX.  ",
"  .XXXXXXXXXXXXXXXXXXXXXXXXXXXXXXXXXXXXXXXXXXXXXXXXXXXXXXXXXXXXXXXXXXXXXXXXX.  ",
"   ..XXXXXXXXXXXXXXXXXXXXXXXXXXXXXXXXXXXXXXXXXXXXXXXXXXXXXXXXXXXXXXXXXXXXX..   ",
"     ..XXXXXXXXXXXXXXXXXXXXXXXXXXXXXXXXXXXXXXXXXXXXXXXXXXXXXXXXXXXXXXXXX..     ",
"       .................................................................       "};
