/* XPM */
static char *card_2_1[] = {
/* width height num_colors chars_per_pixel */
"79 123 4 1",
/* colors */
"  c #ffffff",
". c None",
"R c #ff0000",
"B c #000000",
"......BBBBBBBBBBBBBBBBBBBBBBBBBBBBBBBBBBBBBBBBBBBBBBBBBBBBBBBBBBBBBBBBBBB......",
"...BBB                                                                   BBB...",
"..B                                                                         B..",
".B                                                                           B.",
".B                                                                           B.",
".B                                                                           B.",
"B                                                                             B",
"B                                                                             B",
"B                                                                             B",
"B                                                                             B",
"B                                                                             B",
"B                                                                             B",
"B                                                                             B",
"B                                                                             B",
"B                                                                             B",
"B                                                                             B",
"B                                                                             B",
"B                                                                             B",
"B                                                                             B",
"B                                                                             B",
"B                                                                             B",
"B                                                                             B",
"B                                                                             B",
"B                                                                             B",
"B                                                                             B",
"B                                                                             B",
"B                                                                             B",
"B                                                                             B",
"B                                                                             B",
"B                                                                             B",
"B                                                                             B",
"B                                                                             B",
"B                                                                             B",
"B                                                                             B",
"B                                                                             B",
"B                                                                             B",
"B                                                                             B",
"B                                                                             B",
"B                                                                             B",
"B                                                                             B",
"B                                                                             B",
"B                                                                             B",
"B                                                                             B",
"B                                                                             B",
"B                                                                             B",
"B                                                                             B",
"B                                                                             B",
"B                                                                             B",
"B                                                                             B",
"B                                                                             B",
"B                                                                             B",
"B                                                                             B",
"B                                                                             B",
"B                                                                             B",
"B                                                                             B",
"B                                                                             B",
"B                                                                             B",
"B                                                                             B",
"B                                                                             B",
"B                                                                             B",
"B                                                                             B",
"B                                                                             B",
"B                                                                             B",
"B                                                                             B",
"B                                                                             B",
"B                                                                             B",
"B                                                                             B",
"B                                                                             B",
"B                                                                             B",
"B                                                                             B",
"B                                                                             B",
"B                                                                             B",
"B                                                                             B",
"B                                                                             B",
"B                                                                             B",
"B                                                                             B",
"B                                                                             B",
"B                                                                             B",
"B                                                                             B",
"B                                                                             B",
"B                                                                             B",
"B                                                                             B",
"B                                                                             B",
"B                                                                             B",
"B                                                                             B",
"B                                                                             B",
"B                                                                             B",
"B                                                                             B",
"B                                                                             B",
"B                                                                             B",
"B                                                                             B",
"B                                                                             B",
"B                                                                             B",
"B                                                                             B",
"B                                                                             B",
"B                                                                             B",
"B                                                                             B",
"B                                                                             B",
"B                                                                             B",
"B                                                                             B",
"B                                                                             B",
"B                                                                             B",
"B                                                                             B",
"B                                                                             B",
"B                                                                             B",
"B                                                                             B",
"B                                                                             B",
"B                                                                             B",
"B                                                                             B",
"B                                                                             B",
"B                                                                             B",
"B                                                                             B",
"B                                                                             B",
"B                                                                             B",
"B                                                                             B",
"B                                                                             B",
"B                                                                             B",
".B                                                                           B.",
".B                                                                           B.",
".B                                                                           B.",
"..B                                                                         B..",
"...BBB                                                                   BBB...",
"......BBBBBBBBBBBBBBBBBBBBBBBBBBBBBBBBBBBBBBBBBBBBBBBBBBBBBBBBBBBBBBBBBBB......",
};
