/* XPM */
static char * Cardback1_xpm[] = {
/* width height ncolors chars_per_pixel */
"79 123 10 1",
/* colors */
" 	c red",
".	c black",
"X	c #FFAA55",
"o	c #00AEFF",
"O	c #AAFF55",
"+	c #555500",
"@	c blue",
"#	c #AA55FF",
"$	c magenta",
"%	c #FF5100",
/* pixels */
"   .XXXX..oooooooooooooooooooo.OOOOOOOO.++++++++.@@@@@@@@@@@@@@@@@@@@.#####.   ",
"   .XXX.oooooooooooooooooooooo.OOOOOOOO.++++++++.@@@@@@@@@@@@@@@@@@@@@..###.   ",
"$. ...oooooooooooooooooooooooo.OOOOOOOO.++++++++.@@@@@@@@@@@@@@@@@@@@@@@@....%%",
"$$..oooooooooooooooooooooooooo.OOOOOOOO.++++++++.@@@@@@@@@@@@@@@@@@@@@@@@@..%%%",
"$$$$..oooooooooooooooooooooooo.OOOOOOOO.++++++++.@@@@@@@@@@@@@@@@@@@@@@@@..%%%%",
"$$$$$...oooooooooooooooooooooo.OOOOOOOO.++++++++.@@@@@@@@@@@@@@@@@@@@@@..%%%%%%",
"$$$$$$$$..oooooooooooooooooooo.OOOOOOOO.++++++++.@@@@@@@@@@@@@@@@@@@...%%%%%%%%",
"$$$$$$$$$$.ooooooooooooooooooo.OOOOOOOO.++++++++.@@@@@@@@@@@@@@@@@@..%%%%%%%%%%",
"$$$$$$$$$$$..ooooooooooooooooo.OOOOOOOO.++++++++.@@@@@@@@@@@@@@@@...%%%%%%%%%%%",
"$$$$$$$$$$$$$..ooooooooooooooo.OOOOOOOO.++++++++.@@@@@@@@@@@@@@@..%%%%%%%%%%%%%",
"$$$$$$$$$$$$$$$..ooooooooooooo.OOOOOOOO.++++++++.@@@@@@@@@@@@...%%%%%%%%%%%%%%%",
".$$$$$$$$$$$$$$$$.oooooooooooo.OOOOOOOO.++++++++.@@@@@@@@@@@...%%%%%%%%%%%%%%%.",
"#..$$$$$$$$$$$$$$$..oooooooooo.OOOOOOOO.++++++++.@@@@@@@@@...%%%%%%%%%%%%%%%..X",
"##...$$$$$$$$$$$$$$$..oooooooo.OOOOOOOO.++++++++.@@@@@@@@..%%%%%%%%%%%%%%%..XXX",
"#####..$$$$$$$$$$$$$$$.ooooooo.OOOOOOOO.++++++++.@@@@@.%..%%%%%%%%%%%%%%..XXXXX",
"######...$$$$$$$$$$$$$$..ooooo.OOOOOOOO.++++++++.@@@....%%%%%%%%%%%%%%..XXXXXXX",
"########..$$$$$$$$$$$$$$$..ooo.OOOOOOOO.++++++++.@@...%%%%%%%%%%%%%%..XXXXXXXXX",
"#########...$$$$$$$$$$$$$$$....OOOOOOOO.++++++++....%%%%%%%%%%%%%%%..XXXXXXXXXX",
"############..$$$$$$$$$$$$$$...OOOOOOOO.++++++++...%%%%%%%%%%%%%%..XXXXXXXXXXXX",
"##############..$$$$$$$$$$$.  .OOOOOOOO.++++++++.  .%%%%%%%%%%%..XXXXXXXXXXXXXX",
"###############...$$$$$$$..   .OOOOOOOO.++++++++.   ..%%%%%%%..XXXXXXXXXXXXXXX.",
".################...$$$$.     .OOOOOOOO.++++++++.     .%%%%...XXXXXXXXXXXXXX...",
"o..#################..        .OOOOOOOO.++++++++.      ....XXXXXXXXXXXXXXXX..@@",
"ooo..################...       .OOOOOOO.+++++++.       ...XXXXXXXXXXXXXXX..@@@@",
"ooooo..##############.  ..      ..OOOOO.+++++..      ..  .XXXXXXXXXXXXX...@@@@@",
"oooooo...############.    .       ..OOO.+++..       .    .XXXXXXXXXXXX..@@@@@@@",
"ooooooooo..##########.     ..       ..O.+..       ..     .XXXXXXXXXX..@@@@@@@@@",
"oooooooooo..#########.       ..       ...       ..       .XXXXXXXXX.@@@@@@@@@@@",
"oooooooooooo..#######.         .       .      ..         .XXXXXXX..@@@@@@@@@@@@",
"ooooooooooooo...#####.          ..           .           .XXXXX..@@@@@@@@@@@@@@",
"oooooooooooooooo..###.   .        .        ..       .    .XXX..@@@@@@@@@@@@@@@@",
"oooooooooooooooooo..#. ..%..       ..    ..       ..$..  .XX..@@@@@@@@@@@@@@@@@",
"ooooooooooooooooooo....%%%%%..       .. .       ..$$$$.. ...@@@@@@@@@@@@@@@@@@@",
"ooooooooooooooooooo...%%%%%%%...       .      ...$$$$$$$..@@@@@@@@@@@@@@@@@@@@@",
"ooooooooooooooooo..%%%%%%%%%%%%%..     .    ..$$$$$$$$$$$$...@@@@@@@@@@@@@@@@@@",
"oooooooooooooooo..%%%%%%%%%%%%%%%%.    .   .$$$$$$$$$$$$$$$$..@@@@@@@@@@@@@@@@@",
"oooooooooooooo..%%%%%%%%%%%%%%%%...    .   ...$$$$$$$$$$$$$$$$..@@@@@@@@@@@@@@@",
"oooooooooooo..%%%%%%%%%%%%%%%%..XX.    .   .##..$$$$$$$$$$$$$$$..@@@@@@@@@@@@@@",
"oooooooooo..%%%%%%%%%%%%%%%%..XXXX.    .   .####..$$$$$$$$$$$$$$$...@@@@@@@@@@@",
"ooooooooo..%%%%%%%%%%%%%%%%.XXXXXX.    .   .######..$$$$$$$$$$$$$$$...@@@@@@@@@",
"ooooooo..%%%%%%%%%%%%%%%%..XXXXXXX.    .   .#######..$$$$$$$$$$$$$$$$...@@@@@@@",
"oooooo.%%%%%%%%%%%%%%%%..XXXXXXXXX.    .   .#########..$$$$$$$$$$$$$$$...@@@@@@",
"ooo...%%%%%%%%%%%%%%%..XXXXXXXXXXX.    .   .###########..$$$$$$$$$$$$$$$..$.@@@",
"o...%%%%%%%%%%%%%%%..XXXXXXXXXXXXX.    .   .#############..$$$$$$$$$$$$$$$....@",
"..%%%%%%%%%%%%%%%%.XXXXXXXXXXXXXXX.    .   .##############..$$$$$$$$$$$$$$$$...",
"%%%%%%%%%%%%%%%%..XXXXXXXXXXXXXXXX.    .   .################..$$$$$$$$$$$$$$$$.",
"%%%%%%%%%%%%%%..XXXXXXXXXXXXXXX.       .    ...###############...$$$$$$$$$$$$$$",
"%%%%%%%%%%%%..XXXXXXXXXXXXXXXX.        .      ...##############...$$$$$$$$$$$$$",
"%%%%%%%%%%%.XXXXXXXXXXXXXXXX....       .       ...###############...$$$$$$$$$$$",
"%%%%%%%%%..XXXXXXXXXXXXXXXX..o.O..     .     ..+.@..###############..$$$$$$$$$$",
"%%%%%%...XXXXXXXXXXXXXXX...ooo.OOO..   .   ..+++.@@@..###############.#.$$$$$$$",
"..%%%..XXXXXXXXXXXXXXXX..ooooo.OOOOO.. . ..+++++.@@@@@..##############....$$$..",
"  .%.XXXXXXXXXXXXXXXX..ooooooo.OOOOOOO...+++++++.@@@@@@..###############...$.  ",
"  ..XXXXXXXXXXXXXXX..ooooooooo.OOOOOOOO.++++++++.@@@@@@@@...##############...  ",
".  .XXXXXXXXXXXXX..ooooooooooo.OOOOOOOO.++++++++.@@@@@@@@@@...#############.  .",
"   .XXXXXXXXXXX..ooooooooooooo.OOOOOOOO.++++++++.@@@@@@@@@@@@..############.   ",
"   .XXXXXXXXX..ooooooooooooooo.OOOOOOOO.++++++++.@@@@@@@@@@@@@@..##########.   ",
"   .XXXXXXX...oooooooooooooooo.OOOOOOOO.++++++++.@@@@@@@@@@@@@@@...########.   ",
"   .XXXXX..ooooooooooooooooooo.OOOOOOOO.++++++++.@@@@@@@@@@@@@@@@@...######.   ",
"   .XXX...oooooooooooooooooooo.OOOOOOOO.++++++++.@@@@@@@@@@@@@@@@@@@...####.   ",
"   .X...oooooooooooooooooooooo.OOOOOOOO.++++++++.@@@@@@@@@@@@@@@@@@@@@...##.   ",
".  ..X.ooooooooooooooooooooooo.OOOOOOOO.++++++++.@@@@@@@@@@@@@@@@@@@@@@@..#. ..",
"$$..oooooooooooooooooooooooooo.OOOOOOOO.++++++++.@@@@@@@@@@@@@@@@@@@@@@@@@..%%%",
"$$$$..oooooooooooooooooooooooo.OOOOOOOO.++++++++.@@@@@@@@@@@@@@@@@@@@@@@@.%%%%%",
"$$$$$...oooooooooooooooooooooo.OOOOOOOO.++++++++.@@@@@@@@@@@@@@@@@@@@@@..%%%%%%",
"$$$$$$$...oooooooooooooooooooo.OOOOOOOO.++++++++.@@@@@@@@@@@@@@@@@@@@@.%%%%%%%%",
"$$$$$$$$$$.ooooooooooooooooooo.OOOOOOOO.++++++++.@@@@@@@@@@@@@@@@@@.%%%%%%%%%%%",
"$$$$$$$$$$$..ooooooooooooooooo.OOOOOOOO.++++++++.@@@@@@@@@@@@@@@@..%%%%%%%%%%%%",
"$$$$$$$$$$$$$..ooooooooooooooo.OOOOOOOO.++++++++.@@@@@@@@@@@@@@@.%%%%%%%%%%%%%%",
"$$$$$$$$$$$$$$..oooooooooooooo.OOOOOOOO.++++++++.@@@@@@@@@@@@@@.%%%%%%%%%%%%%%.",
".$$$$$$$$$$$$$$$...ooooooooooo.OOOOOOOO.++++++++.@@@@@@@@@@@.%%%%%%%%%%%%%%%...",
"#.$$$$$$$$$$$$$$$$...ooooooooo.OOOOOOOO.++++++++.@@@@@@@@@..%%%%%%%%%%%%%%....X",
"##..$$$$$$$$$$$$$$$$..oooooooo.OOOOOOOO.++++++++.@@@@@@@@.%%%%%%%%%%%%%%%.%.XXX",
"###...$$$$$$$$$$$$$$$$..oooooo.OOOOOOOO.++++++++.@@@@@@..%%%%%%%%%%%%%%....XXXX",
"######..$$$$$$$$$$$$$$$....ooo.OOOOOOOO.++++++++.@@@..%%%%%%%%%%%%%%%%..XXXXXXX",
"########..$$$$$$$$$$$$$$$...oo.OOOOOOOO.++++++++.@@.%%%%%%%%%%%%%%%%..XXXXXXXXX",
"#########...$$$$$$$$$$$$$$$....OOOOOOOO.++++++++...%%%%%%%%%%%%%%%...XXXXXXXXXX",
"###########..$$$$$$$$$$$$$$$$..OOOOOOOO.++++++++.%%%%%%%%%%%%%%%%...XXXXXXXXXXX",
"#############..$$$$$$$$$$$$.. .OOOOOOOO.++++++++. ..%%%%%%%%%%%..XXXXXXXXXXXXXX",
"###############..$$$$$$$$$.   .OOOOOOOO.++++++++.   .%%%%%%%%%.XXXXXXXXXXXXXXXX",
"#################..$$$$$$.    .OOOOOOOO.++++++++.    .%%%%%%..XXXXXXXXXXXXXXXX.",
"..################...$$..     .OOOOOOOO.++++++++.     ..%%..XXXXXXXXXXXXXXXX..@",
"oo...################..       .OOOOOOOO.++++++++.       ..XXXXXXXXXXXXXXXX..@@@",
"oooo..###############...       ..OOOOOO.++++++..       ...XXXXXXXXXXXXXX..@@@@@",
"oooooo..#############. ...       .OOOOO.+++++.       ... .XXXXXXXXXXXX..@@@@@@@",
"oooooooo..###########.   ..       ..OOO.+++..       ..   .XXXXXXXXXXX..@@@@@@@@",
"oooooooooo..#########.     ...       .....       ...     .XXXXXXXXX..@@@@@@@@@@",
"ooooooooooo..########.       ..        .       ...       .XXXXXXX..@@@@@@@@@@@@",
"ooooooooooooo..######.         ..             ..         .XXXXX..@@@@@@@@@@@@@@",
"ooooooooooooooo..####.           ..         ..           .XXX...@@@@@@@@@@@@@@@",
"ooooooooooooooooo..##. ..%..       ..     ..      .....  .XX.@@@@@@@@@@@@@@@@@@",
"ooooooooooooooooooo.....%%%%.        .. ..       ...$$.. ...@@@@@@@@@@@@@@@@@@@",
"ooooooooooooooooooooo..%%%%%%..        .       ...$$$$$$..@@@@@@@@@@@@@@@@@@@@@",
"ooooooooooooooooooo..%%%%%%%%%%.       .      ..$$$$$$$$$$..@@@@@@@@@@@@@@@@@@@",
"oooooooooooooooo...%%%%%%%%%%%%%%%.    .   ...$$$$$$$$$$$$$$..@@@@@@@@@@@@@@@@@",
"ooooooooooooooo..%%%%%%%%%%%%%%%...    .   ...$$$$$$$$$$$$$$$$.@@@@@@@@@@@@@@@@",
"ooooooooooooo..%%%%%%%%%%%%%%%%..X.    .   .##.$$$$$$$$$$$$$$$$..@@@@@@@@@@@@@@",
"ooooooooooo...%%%%%%%%%%%%%%%..XXX.    .   .###..$$$$$$$$$$$$$$$$..@@@@@@@@@@@@",
"ooooooooo..%%%%%%%%%%%%%%%%..XXXXX.    .   .######..$$$$$$$$$$$$$$$..@@@@@@@@@@",
"ooooooo..%%%%%%%%%%%%%%%%..XXXXXXX.    .   .########.$$$$$$$$$$$$$$$$..@@@@@@@@",
"ooooo...%%%%%%%%%%%%%%%%.XXXXXXXXX.    .   .#########..$$$$$$$$$$$$$$$..@@@@@@@",
"ooo...%%%%%%%%%%%%%%%%..XXXXXXXXXX.    .   .###########.$$$$$$$$$$$$$$$$..@@@@@",
"o...%%%%%%%%%%%%%%%...XXXXXXXXXXXX.    .   .#############..$$$$$$$$$$$$$$$..@@@",
"..%%%%%%%%%%%%%%%%..XXXXXXXXXXXXXX.    .   .###############.$$$$$$$$$$$$$$$$..@",
".%%%%%%%%%%%%%%%..XXXXXXXXXXXXXXX..    .   ..###############..$$$$$$$$$$$$$$$$.",
"%%%%%%%%%%%%%%..XXXXXXXXXXXXXXX...     .    ...###############.$$$$$$$$$$$$$$$$",
"%%%%%%%%%%%%..XXXXXXXXXXXXXXX..        .       ..################.$$$$$$$$$$$$$",
"%%%%%%%%%%%..XXXXXXXXXXXXXXX...        .        ...###############..$$$$$$$$$$$",
"%%%%%%%%%..XXXXXXXXXXXXXXX..oo...      .      ...@...###############.$$$$$$$$$$",
"%%%%%%%..XXXXXXXXXXXXXXXX..ooo.OO.     .     .++.@@....##############..$$$$$$$$",
".%%%%..XXXXXXXXXXXXXXXX..ooooo.OOOOO.  .  .+++++.@@@@@..################..$$$$.",
" ..%.XXXXXXXXXXXXXXXX..ooooooo.OOOOOO.....++++++.@@@@@@@..################.$.. ",
"  ..XXXXXXXXXXXXXXXX.ooooooooo.OOOOOOOO.++++++++.@@@@@@@@...###############..  ",
" . .XXXXXXXXXXXXXX..oooooooooo.OOOOOOOO.++++++++.@@@@@@@@@@...#############. . ",
"   .XXXXXXXXXXX...oooooooooooo.OOOOOOOO.++++++++.@@@@@@@@@@@@@..###########.   ",
"   .XXXXXXXXXX...ooooooooooooo.OOOOOOOO.++++++++.@@@@@@@@@@@@@@..##########.   ",
"   .XXXXXXXXX..ooooooooooooooo.OOOOOOOO.++++++++.@@@@@@@@@@@@@@@@..########.   ",
"   .XXXXXXX..ooooooooooooooooo.OOOOOOOO.++++++++.@@@@@@@@@@@@@@@@@...######.   ",
"   .XXXX....oooooooooooooooooo.OOOOOOOO.++++++++.@@@@@@@@@@@@@@@@@@@@..####.   ",
"   .XXX.o.oooooooooooooooooooo.OOOOOOOO.++++++++.@@@@@@@@@@@@@@@@@@@@@...##.   ",
".  .XX...ooooooooooooooooooooo.OOOOOOOO.++++++++.@@@@@@@@@@@@@@@@@@@@@@@.... ..",
"$. ....ooooooooooooooooooooooo.OOOOOOOO.++++++++.@@@@@@@@@@@@@@@@@@@@@@@@....%%",
"$$$$.ooooooooooooooooooooooooo.OOOOOOOO.++++++++.@@@@@@@@@@@@@@@@@@@@@@@@..%%%%"};
