/* XPM */
static char * Cardback3_xpm[] = {
"79 123 11 1",
" 	c None",
".	c #00AEFF",
"+	c #000000",
"@	c #AAFF55",
"#	c #555500",
"$	c #0000FF",
"%	c #FF00FF",
"&	c #FF5100",
"*	c #AA55FF",
"=	c #FFAA55",
"-	c #FF0000",
"                                                                               ",
"                                                                               ",
"                                                                               ",
"                                                                               ",
"                                                                               ",
"        ......................+@@@@@@@@+########+$$$$$$$$$$$$$$$$$$$$$$        ",
"       %++....................+@@@@@@@@+########+$$$$$$$$$$$$$$$$$$$+++&       ",
"      %%%%+...................+@@@@@@@@+########+$$$$$$$$$$$$$$$$$$++&&&&      ",
"     %%%%%%++.................+@@@@@@@@+########+$$$$$$$$$$$$$$$$+++&&&&&&     ",
"     %%%%%%%%++...............+@@@@@@@@+########+$$$$$$$$$$$$$$$++&&&&&&&&     ",
"     %%%%%%%%%%++.............+@@@@@@@@+########+$$$$$$$$$$$$+++&&&&&&&&&&     ",
"     %%%%%%%%%%%%+............+@@@@@@@@+########+$$$$$$$$$$$+++&&&&&&&&&&&     ",
"     %%%%%%%%%%%%%++..........+@@@@@@@@+########+$$$$$$$$$+++&&&&&&&&&&&&&     ",
"     %%%%%%%%%%%%%%%++........+@@@@@@@@+########+$$$$$$$$++&&&&&&&&&&&&&&&     ",
"     ++%%%%%%%%%%%%%%%+.......+@@@@@@@@+########+$$$$$+&++&&&&&&&&&&&&&&++     ",
"     *+++%%%%%%%%%%%%%%++.....+@@@@@@@@+########+$$$++++&&&&&&&&&&&&&&++==     ",
"     ***++%%%%%%%%%%%%%%%++...+@@@@@@@@+########+$$+++&&&&&&&&&&&&&&++====     ",
"     ****+++%%%%%%%%%%%%%%%++++@@@@@@@@+########++++&&&&&&&&&&&&&&&++=====     ",
"     *******++%%%%%%%%%%%%%%+++@@@@@@@@+########+++&&&&&&&&&&&&&&++=======     ",
"     *********++%%%%%%%%%%%+--+@@@@@@@@+########+--+&&&&&&&&&&&++=========     ",
"     **********+++%%%%%%%++---+@@@@@@@@+########+---++&&&&&&&++===========     ",
"     ************+++%%%%+-----+@@@@@@@@+########+-----+&&&&+++============     ",
"     ***************++--------+@@@@@@@@+########+------++++===============     ",
"     ****************+++-------+@@@@@@@+#######+-------+++===============+     ",
"     ++**************+--++------++@@@@@+#####++------++--+=============+++     ",
"     .+++************+----+-------++@@@+###++-------+----+============++$$     ",
"     ....++**********+-----++-------++@+#++-------++-----+==========++$$$$     ",
"     .....++*********+-------++-------+++-------++-------+=========+$$$$$$     ",
"     .......++*******+---------+-------+------++---------+=======++$$$$$$$     ",
"     ........+++*****+----------++-----------+-----------+=====++$$$$$$$$$     ",
"     ...........++***+---+--------+--------++-------+----+===++$$$$$$$$$$$     ",
"     .............++*+-++&++-------++----++-------++%++--+==++$$$$$$$$$$$$     ",
"     ..............++++&&&&&++-------++-+-------++%%%%++-+++$$$$$$$$$$$$$$     ",
"     ..............+++&&&&&&&+++-------+------+++%%%%%%%++$$$$$$$$$$$$$$$$     ",
"     ............++&&&&&&&&&&&&&++-----+----++%%%%%%%%%%%%+++$$$$$$$$$$$$$     ",
"     ...........++&&&&&&&&&&&&&&&&+----+---+%%%%%%%%%%%%%%%%++$$$$$$$$$$$$     ",
"     .........++&&&&&&&&&&&&&&&&+++----+---+++%%%%%%%%%%%%%%%%++$$$$$$$$$$     ",
"     .......++&&&&&&&&&&&&&&&&++==+----+---+**++%%%%%%%%%%%%%%%++$$$$$$$$$     ",
"     .....++&&&&&&&&&&&&&&&&++====+----+---+****++%%%%%%%%%%%%%%%+++$$$$$$     ",
"     ....++&&&&&&&&&&&&&&&&+======+----+---+******++%%%%%%%%%%%%%%%+++$$$$     ",
"     ..++&&&&&&&&&&&&&&&&++=======+----+---+*******++%%%%%%%%%%%%%%%%+++$$     ",
"     .+&&&&&&&&&&&&&&&&++=========+----+---+*********++%%%%%%%%%%%%%%%+++$     ",
"     +&&&&&&&&&&&&&&&++===========+----+---+***********++%%%%%%%%%%%%%%%++     ",
"     &&&&&&&&&&&&&&++=============+----+---+*************++%%%%%%%%%%%%%%%     ",
"     &&&&&&&&&&&&&+===============+----+---+**************++%%%%%%%%%%%%%%     ",
"     &&&&&&&&&&&++================+----+---+****************++%%%%%%%%%%%%     ",
"     &&&&&&&&&++===============+-------+----+++***************+++%%%%%%%%%     ",
"     &&&&&&&++================+--------+------+++**************+++%%%%%%%%     ",
"     &&&&&&+================++++-------+-------+++***************+++%%%%%%     ",
"     &&&&++================++.+@++-----+-----++#+$++***************++%%%%%     ",
"     &+++===============+++...+@@@++---+---++###+$$$++***************+*+%%     ",
"     ++================++.....+@@@@@++-+-++#####+$$$$$++**************++++     ",
"     ================++.......+@@@@@@@+++#######+$$$$$$++***************++     ",
"     ==============++.........+@@@@@@@@+########+$$$$$$$$+++**************     ",
"     ============++...........+@@@@@@@@+########+$$$$$$$$$$+++************     ",
"     ==========++.............+@@@@@@@@+########+$$$$$$$$$$$$++***********     ",
"     ========++...............+@@@@@@@@+########+$$$$$$$$$$$$$$++*********     ",
"     ======+++................+@@@@@@@@+########+$$$$$$$$$$$$$$$+++*******     ",
"     ====++...................+@@@@@@@@+########+$$$$$$$$$$$$$$$$$+++*****     ",
"     ==+++....................+@@@@@@@@+########+$$$$$$$$$$$$$$$$$$$+++***     ",
"     +++......................+@@@@@@@@+########+$$$$$$$$$$$$$$$$$$$$$+++*     ",
"     =+.......................+@@@@@@@@+########+$$$$$$$$$$$$$$$$$$$$$$$++     ",
"     .........................+@@@@@@@@+########+$$$$$$$$$$$$$$$$$$$$$$$$$     ",
"     +........................+@@@@@@@@+########+$$$$$$$$$$$$$$$$$$$$$$$$+     ",
"     +++......................+@@@@@@@@+########+$$$$$$$$$$$$$$$$$$$$$$++&     ",
"     %%+++....................+@@@@@@@@+########+$$$$$$$$$$$$$$$$$$$$$+&&&     ",
"     %%%%%+...................+@@@@@@@@+########+$$$$$$$$$$$$$$$$$$+&&&&&&     ",
"     %%%%%%++.................+@@@@@@@@+########+$$$$$$$$$$$$$$$$++&&&&&&&     ",
"     %%%%%%%%++...............+@@@@@@@@+########+$$$$$$$$$$$$$$$+&&&&&&&&&     ",
"     %%%%%%%%%++..............+@@@@@@@@+########+$$$$$$$$$$$$$$+&&&&&&&&&&     ",
"     %%%%%%%%%%%+++...........+@@@@@@@@+########+$$$$$$$$$$$+&&&&&&&&&&&&&     ",
"     %%%%%%%%%%%%%+++.........+@@@@@@@@+########+$$$$$$$$$++&&&&&&&&&&&&&&     ",
"     %%%%%%%%%%%%%%%++........+@@@@@@@@+########+$$$$$$$$+&&&&&&&&&&&&&&&+     ",
"     +%%%%%%%%%%%%%%%%++......+@@@@@@@@+########+$$$$$$++&&&&&&&&&&&&&&+++     ",
"     *++%%%%%%%%%%%%%%%++++...+@@@@@@@@+########+$$$++&&&&&&&&&&&&&&&&++==     ",
"     ***++%%%%%%%%%%%%%%%+++..+@@@@@@@@+########+$$+&&&&&&&&&&&&&&&&++====     ",
"     ****+++%%%%%%%%%%%%%%%++++@@@@@@@@+########+++&&&&&&&&&&&&&&&+++=====     ",
"     ******++%%%%%%%%%%%%%%%%++@@@@@@@@+########+&&&&&&&&&&&&&&&&+++======     ",
"     ********++%%%%%%%%%%%%++-+@@@@@@@@+########+-++&&&&&&&&&&&++=========     ",
"     **********++%%%%%%%%%+---+@@@@@@@@+########+---+&&&&&&&&&+===========     ",
"     ************++%%%%%%+----+@@@@@@@@+########+----+&&&&&&++============     ",
"     *************+++%%++-----+@@@@@@@@+########+-----++&&++==============     ",
"     ****************++-------+@@@@@@@@+########+-------++================     ",
"     +***************+++-------++@@@@@@+######++-------+++==============++     ",
"     .++*************+-+++-------+@@@@@+#####+-------+++-+============++$$     ",
"     ...++***********+---++-------++@@@+###++-------++---+===========++$$$     ",
"     .....++*********+-----+++-------+++++-------+++-----+=========++$$$$$     ",
"     ......++********+-------++--------+-------+++-------+=======++$$$$$$$     ",
"     ........++******+---------++-------------++---------+=====++$$$$$$$$$     ",
"     ..........++****+-----------++---------++-----------+===+++$$$$$$$$$$     ",
"     ............++**+-++&++-------++-----++------+++++--+==+$$$$$$$$$$$$$     ",
"     ..............+++++&&&&+--------++-++-------+++%%++-+++$$$$$$$$$$$$$$     ",
"     ................++&&&&&&++--------+-------+++%%%%%%++$$$$$$$$$$$$$$$$     ",
"     ..............++&&&&&&&&&&+-------+------++%%%%%%%%%%++$$$$$$$$$$$$$$     ",
"     ...........+++&&&&&&&&&&&&&&&+----+---+++%%%%%%%%%%%%%%++$$$$$$$$$$$$     ",
"     ..........++&&&&&&&&&&&&&&&+++----+---+++%%%%%%%%%%%%%%%%+$$$$$$$$$$$     ",
"     ........++&&&&&&&&&&&&&&&&++=+----+---+**+%%%%%%%%%%%%%%%%++$$$$$$$$$     ",
"     ......+++&&&&&&&&&&&&&&&++===+----+---+***++%%%%%%%%%%%%%%%%++$$$$$$$     ",
"     ....++&&&&&&&&&&&&&&&&++=====+----+---+******++%%%%%%%%%%%%%%%++$$$$$     ",
"     ..++&&&&&&&&&&&&&&&&++=======+----+---+********+%%%%%%%%%%%%%%%%++$$$     ",
"     +++&&&&&&&&&&&&&&&&+=========+----+---+*********++%%%%%%%%%%%%%%%++$$     ",
"     +&&&&&&&&&&&&&&&&++==========+----+---+***********+%%%%%%%%%%%%%%%%++     ",
"     &&&&&&&&&&&&&&+++============+----+---+*************++%%%%%%%%%%%%%%%     ",
"     &&&&&&&&&&&&&++==============+----+---+***************+%%%%%%%%%%%%%%     ",
"     &&&&&&&&&&&++===============++----+---++***************++%%%%%%%%%%%%     ",
"     &&&&&&&&&++===============+++-----+----+++***************+%%%%%%%%%%%     ",
"     &&&&&&&++===============++--------+-------++****************+%%%%%%%%     ",
"     &&&&&&++===============+++--------+--------+++***************++%%%%%%     ",
"     &&&&++===============++..+++------+------+++$+++***************+%%%%%     ",
"     &&++================++...+@@+-----+-----+##+$$++++**************++%%%     ",
"     ++================++.....+@@@@@+--+--+#####+$$$$$++****************++     ",
"     ================++.......+@@@@@@+++++######+$$$$$$$++****************     ",
"     ===============+.........+@@@@@@@@+########+$$$$$$$$+++**************     ",
"     =============++..........+@@@@@@@@+########+$$$$$$$$$$+++************     ",
"     ==========+++............+@@@@@@@@+########+$$$$$$$$$$$$$++**********     ",
"      ========+++.............+@@@@@@@@+########+$$$$$$$$$$$$$$++********      ",
"       ======++...............+@@@@@@@@+########+$$$$$$$$$$$$$$$$++*****       ",
"        ===++.................+@@@@@@@@+########+$$$$$$$$$$$$$$$$$+++**        ",
"                                                                               ",
"                                                                               ",
"                                                                               ",
"                                                                               ",
"                                                                               "};
