/* XPM */
static char * Deuce_Clubs_xpm[] = {
"79 123 11 1",
" 	c None",
".	c #000000000000",
"X	c #FFFFFFFFFFFF",
"o	c #79E77DF779E7",
"O	c #38E33CF338E3",
"+	c #BEFBBEFBBEFB",
"@	c #18611C711861",
"#	c #DF7DDF7DDF7D",
"$	c #9E799E799E79",
"%	c #D75CD75CD75C",
"&	c #59655D755965",
"       .................................................................       ",
"     ..XXXXXXXXXXXXXXXXXXXXXXXXXXXXXXXXXXXXXXXXXXXXXXXXXXXXXXXXXXXXXXXXX..     ",
"   ..XXXXXXXXXXXXXXXXXXXXXXXXXXXXXXXXXXXXXXXXXXXXXXXXXXXXXXXXXXXXXXXXXXXXX..   ",
"  .XXXXXXXXXXXXXXXXXXXXXXXXXXXXXXXXXXXXXXXXXXXXXXXXXXXXXXXXXXXXXXXXXXXXXXXXX.  ",
"  .XXXXXXXXXXXXXXXXXXXXXXXXXXXXXXXXXXXXXXXXXXXXXXXXXXXXXXXXXXXXXXXXXXXXXXXXX.  ",
" .XXXXXXXXXXXXXXXXXXXXXXXXXXXXXXXXXXXXXXXXXXXXXXXXXXXXXXXXXXXXXXXXXXXXXXXXXXX. ",
" .XXXXo...O+XXXXXXXXXXXXXXXXXXXXXXXXXXXXXXXXXXXXXXXXXXXXXXXXXXXXXXXXXXXXXXXXX. ",
".XXXXO......+XXXXXXXXXXXXXXXXXXXXXXXXXXXXXXXXXXXXXXXXXXXXXXXXXXXXXXXXXXXXXXXXX.",
".XXXO.OXXXO.OXXXXXXXXXXXXXXXXXXXXXXXXXXXXXXXXXXXXXXXXXXXXXXXXXXXXXXXXXXXXXXXXX.",
".XXX..XXXXX..XXXXXXXXXXXXXXXXXXXXXXXXXXXXXXXXXXXXXXXXXXXXXXXXXXXXXXXXXXXXXXXXX.",
".XXXXXXXXX+..XXXXXXXXXXXXXXXXXXXXXXXXXXXXXXXXXXXXXXXXXXXXXXXXXXXXXXXXXXXXXXXXX.",
".XXXXXXXX+..oXXXXXXXXXXXXXXXXXXXXXXXXXXXXXXXXXXXXXXXXXXXXXXXXXXXXXXXXXXXXXXXXX.",
".XXXXXXX+..OXXXXXXXXXXXXXXXXXXXXXXXXXXXXXXXXXXXXXXXXXXXXXXXXXXXXXXXXXXXXXXXXXX.",
".XXXXXX+..OXXXXXXXXXXXXXXXXXXXXXXXXXXXXXXXXXXXXXXXXXXXXXXXXXXXXXXXXXXXXXXXXXXX.",
".XXXXX+..OXXXXXXXXXXXXXXXXXXXXXXXXXXXXXXXXXXXXXXXXXXXXXXXXXXXXXXXXXXXXXXXXXXXX.",
".XXXX+..OXXXXXXXXXXXXXXXXXXXXXXXXXXXXo@.@oXXXXXXXXXXXXXXXXXXXXXXXXXXXXXXXXXXXX.",
".XXX+..OXXXXXXXXXXXXXXXXXXXXXXXXXXXXo.....oXXXXXXXXXXXXXXXXXXXXXXXXXXXXXXXXXXX.",
".XXX...XXXX..XXXXXXXXXXXXXXXXXXXXXX#.......#XXXXXXXXXXXXXXXXXXXXXXXXXXXXXXXXXX.",
".XXX.........XXXXXXXXXXXXXXXXXXXXXX+.......+XXXXXXXXXXXXXXXXXXXXXXXXXXXXXXXXXX.",
".XXX.........XXXXXXXXXXXXXXXXXXXXXX#.......#XXXXXXXXXXXXXXXXXXXXXXXXXXXXXXXXXX.",
".XXXXXXXXXXXXXXXXXXXXXXXXXXXXXXX#+#XO.....OX#+#XXXXXXXXXXXXXXXXXXXXXXXXXXXXXXX.",
".XXXXXXXXXXXXXXXXXXXXXXXXXXXXXXo...O#@...@#O...oXXXXXXXXXXXXXXXXXXXXXXXXXXXXXX.",
".XXXXXXXXXXXXXXXXXXXXXXXXXXXXXo.....@#@.@#@.....oXXXXXXXXXXXXXXXXXXXXXXXXXXXXX.",
".XXXXXXX+XXXXXXXXXXXXXXXXXXXXX@......@#.#@......@XXXXXXXXXXXXXXXXXXXXXXXXXXXXX.",
".XXXXX#@.@#XXXXXXXXXXXXXXXXXXX...................XXXXXXXXXXXXXXXXXXXXXXXXXXXXX.",
".XXXXX$...$XXXXXXXXXXXXXXXXXXX@......@#.#@......@XXXXXXXXXXXXXXXXXXXXXXXXXXXXX.",
".XXX#$+...+$#XXXXXXXXXXXXXXXXXo.....@#X.X#@.....oXXXXXXXXXXXXXXXXXXXXXXXXXXXXX.",
".XXX@..o@o..@XXXXXXXXXXXXXXXXXXo...O#XX.XX#O...oXXXXXXXXXXXXXXXXXXXXXXXXXXXXXX.",
".XX+...@O@...+XXXXXXXXXXXXXXXXXX#+#XXX#.#XXX#+#XXXXXXXXXXXXXXXXXXXXXXXXXXXXXXX.",
".XXX@..+o+..@%%%%%%%%%%XXXXXXXXXXXXXXX+.+XXXXXXXXXXXXXXXXXXXXXXXXX%%%%%XXXXXXX.",
".XXX#$#X&%#$#%%%%%%%%%%%XXXXXXXXXXXXXX&.&XXXXXXXXXXXXXXXXXXXXXXXXX%%%%%XXXXXXX.",
".XXXXXXX.%%%%%%%%%%%%%%%%XXXXXXXXXXXXX@.@XXXXXXXXXXXXXXXXXXXXXXXX%%%%%XXXXXXXX.",
".XXXXXX+o+%%%%%%%%%%%%%%%%XXXXXXXXXXX$OoO$XXXXXXXXXXXXXXXXXXXXXX%%%%%XXXXXXXXX.",
".XXXXXXXXX%%%%%%%%%%%%%%%%XXXXXXXXXXXXXXXXXXXXXXXXXXXXXXXXXXXXX%%%%%XXXXXXXXXX.",
".XXXXXXXXXX%%%%%%%%%%%%%%%%XXXXXXXXXXXXXXXXXXXXXXXXXXXXXXXXXXX%%%%%XXXXXXXXXXX.",
".XXXXXXXXXXX%%%%%%%%%%%%%%%%XXXXXXXXXXXXXXXXXXXXXXXXXXXXXXXXXX%%%%%XXXXXXXXXXX.",
".XXXXXXXXXXXX%%%%%%%%%%%%%%%%XXXXXXXXXXXXXXXXXXXXXXXXXXXXXXXX%%%%%XXXXXXXXXXXX.",
".XXXXXXXXXXXX%%%%%%%%%%%%%%%%XXXXXXXXXXXXXXXXXXXXXXXXXXXXXXX%%%%%XXXXXXXXXXXXX.",
".XXXXXXXXXXXXX%%%%%%%%%%%%%%%%XXXXXXXXXXXXXXXXXXXXXXXXXXXXX%%%%%XXXXXXXXXXXXXX.",
".XXXXXXXXXXXXXX%%%%%%%%%%%%%%%%XXXXXXXXXXXXXXXXXXXXXXXXXXX%%%%%XXXXXXXXXXXXXXX.",
".XXXXXXXXXXXXXXX%%%%%%%%%%%%%%%%XXXXXXXXXXXXXXXXXXXXXXXXXX%%%%%XXXXXXXXXXXXXXX.",
".XXXXXXXXXXXXXXX%%%%%%%%%%%%%%%%XXXXXXXXXXXXXXXXXXXXXXXXX%%%%%XXXXXXXXXXXXXXXX.",
".XXXXXXXXXXXXXXXX%%%%%%%%%%%%%%%%XXXXXXXXXXXXXXXXXXXXXXX%%%%%XXXXXXXXXXXXXXXXX.",
".XXXXXXXXXXXXXXXXX%%%%%%%%%%%%%%%%XXXXXXXXXXXXXXXXXXXXX%%%%%XXXXXXXXXXXXXXXXXX.",
".XXXXXXXXXXXXXXXXXX%%%%%%%%%%%%%%%%XXXXXXXXXXXXXXXXXXX%%%%%XXXXXXXXXXXXXXXXXXX.",
".XXXXXXXXXXXXXXXXXX%%%%%%%%%%%%%%%%XXXXXXXXXXXXXXXXXX%%%%%XXXXXXXXXXXXXXXXXXXX.",
".XXXXXXXXXXXXXXXXXXX%%%%%%%%%%%%%%%%XXXXXXXXXXXXXXXXX%%%%%XXXXXXXXXXXXXXXXXXXX.",
".XXXXXXXXXXXXXXXXXXXX%%%%%%%%%%%%%%%%XXXXXXXXXXXXXXX%%%%%XXXXXXXXXXXXXXXXXXXXX.",
".XXXXXXXXXXXXXXXXXXXXX%%%%%%%%%%%%%%%%XXXXXXXXXXXXX%%%%%XXXXXXXXXXXXXXXXXXXXXX.",
".XXXXXXXXXXXXXXXXXXXXX%%%%%%%%%%%%%%%%XXXXXXXXXXXX%%%%%XXXXXXXXXXXXXXXXXXXXXXX.",
".XXXXXXXXXXXXXXXXXXXXXX%%%%%%%%%%%%%%%%XXXXXXXXXX%%%%%XXXXXXXXXXXXXXXXXXXXXXXX.",
".XXXXXXXXXXXXXXXXXXXXXXX%%%%%%%%%%%%%%%%XXXXXXXXX%%%%%XXXXXXXXXXXXXXXXXXXXXXXX.",
".XXXXXXXXXXXXXXXXXXXXXXXX%%%%%%%%%%%%%%%%XXXXXXX%%%%%XXXXXXXXXXXXXXXXXXXXXXXXX.",
".XXXXXXXXXXXXXXXXXXXXXXXX%%%%%%%%%%%%%%%%XXXXXX%%%%%XXXXXXXXXXXXXXXXXXXXXXXXXX.",
".XXXXXXXXXXXXXXXXXXXXXXXXX%%%%%%%%%%%%%%%%XXXX%%%%%XXXXXXXXXXXXXXXXXXXXXXXXXXX.",
".XXXXXXXXXXXXXXXXXXXXXXXXXX%%%%%%%%%%%%%%%%XX%%%%%XXXXXXXXXXXXXXXXXXXXXXXXXXXX.",
".XXXXXXXXXXXXXXXXXXXXXXXXXXX%%%%%%%%%%%%%%%XX%%%%%XXXXXXXXXXXXXXXXXXXXXXXXXXXX.",
".XXXXXXXXXXXXXXXXXXXXXXXXXXX%%%%%%%%%%%%%%XX%%%%%XXXXXXXXXXXXXXXXXXXXXXXXXXXXX.",
".XXXXXXXXXXXXXXXXXXXXXXXXXXXX%%%%%%%%%%%%XX%%%%%XXXXXXXXXXXXXXXXXXXXXXXXXXXXXX.",
".XXXXXXXXXXXXXXXXXXXXXXXXXXXXX%%%%%%%%%%XX%%%%%XXXXXXXXXXXXXXXXXXXXXXXXXXXXXXX.",
".XXXXXXXXXXXXXXXXXXXXXXXXXXXXXX%%%%%%%%XX%%%%%%XXXXXXXXXXXXXXXXXXXXXXXXXXXXXXX.",
".XXXXXXXXXXXXXXXXXXXXXXXXXXXXXX%%%%%%%XX%%%%%%%XXXXXXXXXXXXXXXXXXXXXXXXXXXXXXX.",
".XXXXXXXXXXXXXXXXXXXXXXXXXXXXXXX%%%%%%XX%%%%%%%%XXXXXXXXXXXXXXXXXXXXXXXXXXXXXX.",
".XXXXXXXXXXXXXXXXXXXXXXXXXXXXXXX%%%%%XX%%%%%%%%%%XXXXXXXXXXXXXXXXXXXXXXXXXXXXX.",
".XXXXXXXXXXXXXXXXXXXXXXXXXXXXXX%%%%%XX%%%%%%%%%%%%XXXXXXXXXXXXXXXXXXXXXXXXXXXX.",
".XXXXXXXXXXXXXXXXXXXXXXXXXXXXX%%%%%XX%%%%%%%%%%%%%XXXXXXXXXXXXXXXXXXXXXXXXXXXX.",
".XXXXXXXXXXXXXXXXXXXXXXXXXXXX%%%%%XX%%%%%%%%%%%%%%%XXXXXXXXXXXXXXXXXXXXXXXXXXX.",
".XXXXXXXXXXXXXXXXXXXXXXXXXXXX%%%%%XX%%%%%%%%%%%%%%%%XXXXXXXXXXXXXXXXXXXXXXXXXX.",
".XXXXXXXXXXXXXXXXXXXXXXXXXXX%%%%%XXXX%%%%%%%%%%%%%%%%XXXXXXXXXXXXXXXXXXXXXXXXX.",
".XXXXXXXXXXXXXXXXXXXXXXXXXX%%%%%XXXXX%%%%%%%%%%%%%%%%XXXXXXXXXXXXXXXXXXXXXXXXX.",
".XXXXXXXXXXXXXXXXXXXXXXXXX%%%%%XXXXXXX%%%%%%%%%%%%%%%%XXXXXXXXXXXXXXXXXXXXXXXX.",
".XXXXXXXXXXXXXXXXXXXXXXXX%%%%%XXXXXXXXX%%%%%%%%%%%%%%%%XXXXXXXXXXXXXXXXXXXXXXX.",
".XXXXXXXXXXXXXXXXXXXXXXXX%%%%%XXXXXXXXXX%%%%%%%%%%%%%%%%XXXXXXXXXXXXXXXXXXXXXX.",
".XXXXXXXXXXXXXXXXXXXXXXX%%%%%XXXXXXXXXXX%%%%%%%%%%%%%%%%XXXXXXXXXXXXXXXXXXXXXX.",
".XXXXXXXXXXXXXXXXXXXXXX%%%%%XXXXXXXXXXXXX%%%%%%%%%%%%%%%%XXXXXXXXXXXXXXXXXXXXX.",
".XXXXXXXXXXXXXXXXXXXXX%%%%%XXXXXXXXXXXXXXX%%%%%%%%%%%%%%%%XXXXXXXXXXXXXXXXXXXX.",
".XXXXXXXXXXXXXXXXXXXX%%%%%XXXXXXXXXXXXXXXXX%%%%%%%%%%%%%%%%XXXXXXXXXXXXXXXXXXX.",
".XXXXXXXXXXXXXXXXXXX%%%%%XXXXXXXXXXXXXXXXXX%%%%%%%%%%%%%%%%XXXXXXXXXXXXXXXXXXX.",
".XXXXXXXXXXXXXXXXXXX%%%%%XXXXXXXXXXXXXXXXXXX%%%%%%%%%%%%%%%%XXXXXXXXXXXXXXXXXX.",
".XXXXXXXXXXXXXXXXXX%%%%%XXXXXXXXXXXXXXXXXXXXX%%%%%%%%%%%%%%%%XXXXXXXXXXXXXXXXX.",
".XXXXXXXXXXXXXXXXX%%%%%XXXXXXXXXXXXXXXXXXXXXXX%%%%%%%%%%%%%%%%XXXXXXXXXXXXXXXX.",
".XXXXXXXXXXXXXXXX%%%%%XXXXXXXXXXXXXXXXXXXXXXXX%%%%%%%%%%%%%%%%XXXXXXXXXXXXXXXX.",
".XXXXXXXXXXXXXXX%%%%%XXXXXXXXXXXXXXXXXXXXXXXXXX%%%%%%%%%%%%%%%%XXXXXXXXXXXXXXX.",
".XXXXXXXXXXXXXXX%%%%%XXXXXXXXXXXXXXXXXXXXXXXXXXX%%%%%%%%%%%%%%%%XXXXXXXXXXXXXX.",
".XXXXXXXXXXXXXX%%%%%XXXXXXXXXXXXXXXXXXXXXXXXXXXXX%%%%%%%%%%%%%%%%XXXXXXXXXXXXX.",
".XXXXXXXXXXXXX%%%%%XXXXXXXXXXXXXXXXXXXXXXXXXXXXXX%%%%%%%%%%%%%%%%XXXXXXXXXXXXX.",
".XXXXXXXXXXXX%%%%%XXXXXXXXXXXXXXXXXXXXXXXXXXXXXXXX%%%%%%%%%%%%%%%%XXXXXXXXXXXX.",
".XXXXXXXXXXX%%%%%XXXXXXXXXXXXXXXXXXXXXXXXXXXXXXXXXX%%%%%%%%%%%%%%%%XXXXXXXXXXX.",
".XXXXXXXXXXX%%%%%XXXXXXXXXXXXXXXXXXXXXXXXXXXXXXXXXXX%%%%%%%%%%%%%%%%XXXXXXXXXX.",
".XXXXXXXXXX%%%%%XXXXXXXXXXXXXXXXXXXXXXXXXXXXXXXXXXXX%%%%%%%%%%%%%%%%XXXXXXXXXX.",
".XXXXXXXXX%%%%%XXXXXXXXXXXXXXXXXXXXXX$OoO$XXXXXXXXXXX%%%%%%%%%%%%%%%%+o+XXXXXX.",
".XXXXXXXX%%%%%XXXXXXXXXXXXXXXXXXXXXXXX@.@XXXXXXXXXXXXX%%%%%%%%%%%%%%%%.XXXXXXX.",
".XXXXXXX%%%%%XXXXXXXXXXXXXXXXXXXXXXXXX&.&XXXXXXXXXXXXXX%%%%%%%%%%%#$#%&X#$#XXX.",
".XXXXXXXXXXXXXXXXXXXXXXXXXXXXXXXXXXXXX+.+XXXXXXXXXXXXXXXXXXXXXXXXX@..+o+..@XXX.",
".XXXXXXXXXXXXXXXXXXXXXXXXXXXXXXX#+#XXX#.#XXX#+#XXXXXXXXXXXXXXXXXX+...@O@...+XX.",
".XXXXXXXXXXXXXXXXXXXXXXXXXXXXXXo...O#XX.XX#O...oXXXXXXXXXXXXXXXXXX@..o@o..@XXX.",
".XXXXXXXXXXXXXXXXXXXXXXXXXXXXXo.....@#X.X#@.....oXXXXXXXXXXXXXXXXX#$+...+$#XXX.",
".XXXXXXXXXXXXXXXXXXXXXXXXXXXXX@......@#.#@......@XXXXXXXXXXXXXXXXXXX$...$XXXXX.",
".XXXXXXXXXXXXXXXXXXXXXXXXXXXXX...................XXXXXXXXXXXXXXXXXXX#@.@#XXXXX.",
".XXXXXXXXXXXXXXXXXXXXXXXXXXXXX@......@#.#@......@XXXXXXXXXXXXXXXXXXXXX+XXXXXXX.",
".XXXXXXXXXXXXXXXXXXXXXXXXXXXXXo.....@#@.@#@.....oXXXXXXXXXXXXXXXXXXXXXXXXXXXXX.",
".XXXXXXXXXXXXXXXXXXXXXXXXXXXXXXo...O#@...@#O...oXXXXXXXXXXXXXXXXXXXXXXXXXXXXXX.",
".XXXXXXXXXXXXXXXXXXXXXXXXXXXXXXX#+#XO.....OX#+#XXXXXXXXXXXXXXXXXXXXXXXXXXXXXXX.",
".XXXXXXXXXXXXXXXXXXXXXXXXXXXXXXXXXX#.......#XXXXXXXXXXXXXXXXXXXXXX.........XXX.",
".XXXXXXXXXXXXXXXXXXXXXXXXXXXXXXXXXX+.......+XXXXXXXXXXXXXXXXXXXXXX.........XXX.",
".XXXXXXXXXXXXXXXXXXXXXXXXXXXXXXXXXX#.......#XXXXXXXXXXXXXXXXXXXXXX..XXXX...XXX.",
".XXXXXXXXXXXXXXXXXXXXXXXXXXXXXXXXXXXo.....oXXXXXXXXXXXXXXXXXXXXXXXXXXXXO..+XXX.",
".XXXXXXXXXXXXXXXXXXXXXXXXXXXXXXXXXXXXo@.@oXXXXXXXXXXXXXXXXXXXXXXXXXXXXO..+XXXX.",
".XXXXXXXXXXXXXXXXXXXXXXXXXXXXXXXXXXXXXXXXXXXXXXXXXXXXXXXXXXXXXXXXXXXXO..+XXXXX.",
".XXXXXXXXXXXXXXXXXXXXXXXXXXXXXXXXXXXXXXXXXXXXXXXXXXXXXXXXXXXXXXXXXXXO..+XXXXXX.",
".XXXXXXXXXXXXXXXXXXXXXXXXXXXXXXXXXXXXXXXXXXXXXXXXXXXXXXXXXXXXXXXXXXO..+XXXXXXX.",
".XXXXXXXXXXXXXXXXXXXXXXXXXXXXXXXXXXXXXXXXXXXXXXXXXXXXXXXXXXXXXXXXXo..+XXXXXXXX.",
".XXXXXXXXXXXXXXXXXXXXXXXXXXXXXXXXXXXXXXXXXXXXXXXXXXXXXXXXXXXXXXXXX..+XXXXXXXXX.",
".XXXXXXXXXXXXXXXXXXXXXXXXXXXXXXXXXXXXXXXXXXXXXXXXXXXXXXXXXXXXXXXXX..XXXXX..XXX.",
".XXXXXXXXXXXXXXXXXXXXXXXXXXXXXXXXXXXXXXXXXXXXXXXXXXXXXXXXXXXXXXXXXO.OXXXO.OXXX.",
".XXXXXXXXXXXXXXXXXXXXXXXXXXXXXXXXXXXXXXXXXXXXXXXXXXXXXXXXXXXXXXXXX+......OXXXX.",
" .XXXXXXXXXXXXXXXXXXXXXXXXXXXXXXXXXXXXXXXXXXXXXXXXXXXXXXXXXXXXXXXXX+O...oXXXX. ",
" .XXXXXXXXXXXXXXXXXXXXXXXXXXXXXXXXXXXXXXXXXXXXXXXXXXXXXXXXXXXXXXXXXXXXXXXXXXX. ",
"  .XXXXXXXXXXXXXXXXXXXXXXXXXXXXXXXXXXXXXXXXXXXXXXXXXXXXXXXXXXXXXXXXXXXXXXXXX.  ",
"  .XXXXXXXXXXXXXXXXXXXXXXXXXXXXXXXXXXXXXXXXXXXXXXXXXXXXXXXXXXXXXXXXXXXXXXXXX.  ",
"   ..XXXXXXXXXXXXXXXXXXXXXXXXXXXXXXXXXXXXXXXXXXXXXXXXXXXXXXXXXXXXXXXXXXXXX..   ",
"     ..XXXXXXXXXXXXXXXXXXXXXXXXXXXXXXXXXXXXXXXXXXXXXXXXXXXXXXXXXXXXXXXXX..     ",
"       .................................................................       "};
