/* XPM */
static char * Eight_Spades_xpm[] = {
"79 123 11 1",
" 	c None",
".	c #000000000000",
"X	c #FFFFFFFFFFFF",
"o	c #BEFBBEFBBEFB",
"O	c #38E33CF338E3",
"+	c #59655D755965",
"@	c #DF7DDF7DDF7D",
"#	c #9E799E799E79",
"$	c #18611C711861",
"%	c #79E77DF779E7",
"&	c #D75CD75CD75C",
"       .................................................................       ",
"     ..XXXXXXXXXXXXXXXXXXXXXXXXXXXXXXXXXXXXXXXXXXXXXXXXXXXXXXXXXXXXXXXXX..     ",
"   ..XXXXXXXXXXXXXXXXXXXXXXXXXXXXXXXXXXXXXXXXXXXXXXXXXXXXXXXXXXXXXXXXXXXXX..   ",
"  .XXXXXXXXXXXXXXXXXXXXXXXXXXXXXXXXXXXXXXXXXXXXXXXXXXXXXXXXXXXXXXXXXXXXXXXXX.  ",
"  .XXXXXXXXXXXXXXXXXXXXXXXXXXXXXXXXXXXXXXXXXXXXXXXXXXXXXXXXXXXXXXXXXXXXXXXXX.  ",
" .XXXXXXXXXXXXXXXXXXXXXXXXXXXXXXXXXXXXXXXXXXXXXXXXXXXXXXXXXXXXXXXXXXXXXXXXXXX. ",
" .XXXo.....oXXXXXXXXXXXXXXXXXXXXXXXXXXXXXXXXXXXXXXXXXXXXXXXXXXXXXXXXXXXXXXXXX. ",
".XXXo.......oXXXXXXXXXXXXXXXXXXXXXXXXXXXXXXXXXXXXXXXXXXXXXXXXXXXXXXXXXXXXXXXXX.",
".XXX..OXXXO..XXXXXXXXXXXXXXXXXXXXXXXXXXXXXXXXXXXXXXXXXXXXXXXXXXXXXXXXXXXXXXXXX.",
".XXX..XXXXX..XXXXXXXXXXXXXXXXXXXXXXXXXXXXXXXXXXXXXXXXXXXXXXXXXXXXXXXXXXXXXXXXX.",
".XXX..OXXXO..XXXXXXXXXXXXXXXXXXXXXXXXXXXXXXXXXXXXXXXXXXXXXXXXXXXXXXXXXXXXXXXXX.",
".XXXo.......oXXXXXXXXXXXXXXXXXXXXXXXXXXXXXXXXXXXXXXXXXXXXXXXXXXXXXXXXXXXXXXXXX.",
".XXXXX.....XXXXXXXXXXXXXXXXXXXXXXXXXXXXXXXXXXXXXXXXXXXXXXXXXXXXXXXXXXXXXXXXXXX.",
".XXXo.......oXXXXXXXXXX+XXXXXXXXXXXXXXXXXXXXXXXXXXXXXXX+XXXXXXXXXXXXXXXXXXXXXX.",
".XXX..OXXXO..XXXXXXXXX@.@XXXXXXXXXXXXXXXXXXXXXXXXXXXXX@.@XXXXXXXXXXXXXXXXXXXXX.",
".XXX..XXXXX..XXXXXXXXX+.+XXXXXXXXXXXXXXXXXXXXXXXXXXXXX+.+XXXXXXXXXXXXXXXXXXXXX.",
".XXX..XXXXX..XXXXXXXX#...#XXXXXXXXXXXXXXXXXXXXXXXXXXX#...#XXXXXXXXXXXXXXXXXXXX.",
".XXX..OXXXO..XXXXXXX#.....#XXXXXXXXXXXXXXXXXXXXXXXXX#.....#XXXXXXXXXXXXXXXXXXX.",
".XXXo.......oXXXXXX#.......#XXXXXXXXXXXXXXXXXXXXXXX#.......#XXXXXXXXXXXXXXXXXX.",
".XXXXX.....XXXXXXX#.........#XXXXXXXXXXXXXXXXXXXXX#.........#XXXXXXXXXXXXXXXXX.",
".XXXXXXXXXXXXXXXX+...........+XXXXXXXXXXXXXXXXXXX+...........+XXXXXXXXXXXXXXXX.",
".XXXXXXXXXXXXXX@O.............O@XXXXXXXXXXXXXXX@O.............O@XXXXXXXXXXXXXX.",
".XXXXXXX@XXXXXX$...............$XXXXXXXXXXXXXXX$...............$XXXXXXXXXXXXXX.",
".XXXXXXX+XXXXX#.................#XXXXXXXXXXXXX#.................#XXXXXXXXXXXXX.",
".XXXXXX%.%XXXX%.................%XXXXXXXXXXXXX%.................%XXXXXXXXXXXXX.",
".XXXXX%...%XXX%.......#.#.......%XXXXXXXXXXXXX%.......#.#.......%XXXXXXXXXXXXX.",
".XXXX%.....%XX@......oX.Xo......@XXXXXXXXXXXXX@......oX.Xo......@XXXXXXXXXXXXX.",
".XXX+.......+XXo$...#Xo.oX#...$oXXXXXXXXXXXXXXXo$...#Xo.oX#...$oXXXXXXXXXXXXXX.",
".XXX....$....XXXXoo@XX#.#XX@ooXXXXXXXXXXXXXXXXXXXoo@XX#.#XX@ooXXXXXXXXXXXXXXXX.",
".XXXO..#%#..O&&&&&&&&&+.+XXXXXXXXXXXXXXXXXXXXXXXXXXXXX+.+XXXXXXXXX&&&&&XXXXXXX.",
".XXXX#oX$&o#&&&&&&&&&&$.$XXXXXXXXXXXXXXXXXXXXXXXXXXXXX$.$XXXXXXXXX&&&&&XXXXXXX.",
".XXXXXX@.@&&&&&&&&&&&@...@XXXXXXXXXXXXXXXXXXXXXXXXXXX@...@XXXXXXX&&&&&XXXXXXXX.",
".XXXXXXo%o&&&&&&&&&&&#O%O#XXXXXXXXXXXXX+XXXXXXXXXXXXX#O%O#XXXXXX&&&&&XXXXXXXXX.",
".XXXXXXXXX&&&&&&&&&&&&&&&&XXXXXXXXXXXX@.@XXXXXXXXXXXXXXXXXXXXXX&&&&&XXXXXXXXXX.",
".XXXXXXXXXX&&&&&&&&&&&&&&&&XXXXXXXXXXX+.+XXXXXXXXXXXXXXXXXXXXX&&&&&XXXXXXXXXXX.",
".XXXXXXXXXXX&&&&&&&&&&&&&&&&XXXXXXXXX#...#XXXXXXXXXXXXXXXXXXXX&&&&&XXXXXXXXXXX.",
".XXXXXXXXXXXX&&&&&&&&&&&&&&&&XXXXXXX#.....#XXXXXXXXXXXXXXXXXX&&&&&XXXXXXXXXXXX.",
".XXXXXXXXXXXX&&&&&&&&&&&&&&&&XXXXXX#.......#XXXXXXXXXXXXXXXX&&&&&XXXXXXXXXXXXX.",
".XXXXXXXXXXXXX&&&&&&&&&&&&&&&&XXXX#.........#XXXXXXXXXXXXXX&&&&&XXXXXXXXXXXXXX.",
".XXXXXXXXXXXXXX&&&&&&&&&&&&&&&&XX+...........+XXXXXXXXXXXX&&&&&XXXXXXXXXXXXXXX.",
".XXXXXXXXXXXXXXX&&&&&&&&&&&&&&&@O.............O@XXXXXXXXXX&&&&&XXXXXXXXXXXXXXX.",
".XXXXXXXXXXXXXXX&&&&&&&&&&&&&&&$...............$XXXXXXXXX&&&&&XXXXXXXXXXXXXXXX.",
".XXXXXXXXXXXXXXXX&&&&&&&&&&&&&#.................#XXXXXXX&&&&&XXXXXXXXXXXXXXXXX.",
".XXXXXXXXXXXXXXXXX&&&&&&&&&&&&%.................%XXXXXX&&&&&XXXXXXXXXXXXXXXXXX.",
".XXXXXXXXXXXXXXXXXX&&&&&&&&&&&%.......#.#.......%XXXXX&&&&&XXXXXXXXXXXXXXXXXXX.",
".XXXXXXXXXXXXXXXXXX&&&&&&&&&&&@......oX.Xo......@XXXX&&&&&XXXXXXXXXXXXXXXXXXXX.",
".XXXXXXXXXXXXXXXXXXX&&&&&&&&&&&o$...#Xo.oX#...$oXXXXX&&&&&XXXXXXXXXXXXXXXXXXXX.",
".XXXXXXXXXXXXXXXXXXXX&&&&&&&&&&&&oo@&X#.#XX@ooXXXXXX&&&&&XXXXXXXXXXXXXXXXXXXXX.",
".XXXXXXXXXXXXXXXXXXXXX&&&&&&&&&&&&&&&&+.+XXXXXXXXXX&&&&&XXXXXXXXXXXXXXXXXXXXXX.",
".XXXXXXXXXXXXXXXXXXXXX&&&&&&&&&&&&&&&&$.$XXXXXXXXX&&&&&XXXXXXXXXXXXXXXXXXXXXXX.",
".XXXXXXXXXXXXXXXXXXXXXX&&&&&&&&&&&&&&@...@XXXXXXX&&&&&XXXXXXXXXXXXXXXXXXXXXXXX.",
".XXXXXXXXXXXXXXXXXXXXXXX&&&&&&&&&&&&&#O%O#XXXXXXX&&&&&XXXXXXXXXXXXXXXXXXXXXXXX.",
".XXXXXXXXXXXXXXXXXXXXXX+X&&&&&&&&&&&&&&&&XXXXXXX&&&&&XX+XXXXXXXXXXXXXXXXXXXXXX.",
".XXXXXXXXXXXXXXXXXXXXX@.@&&&&&&&&&&&&&&&&XXXXXX&&&&&XX@.@XXXXXXXXXXXXXXXXXXXXX.",
".XXXXXXXXXXXXXXXXXXXXX+.+X&&&&&&&&&&&&&&&&XXXX&&&&&XXX+.+XXXXXXXXXXXXXXXXXXXXX.",
".XXXXXXXXXXXXXXXXXXXX#...#X&&&&&&&&&&&&&&&&XX&&&&&XXX#...#XXXXXXXXXXXXXXXXXXXX.",
".XXXXXXXXXXXXXXXXXXX#.....#X&&&&&&&&&&&&&&&XX&&&&&XX#.....#XXXXXXXXXXXXXXXXXXX.",
".XXXXXXXXXXXXXXXXXX#.......#&&&&&&&&&&&&&&XX&&&&&XX#.......#XXXXXXXXXXXXXXXXXX.",
".XXXXXXXXXXXXXXXXX#.........#&&&&&&&&&&&&XX&&&&&XX#.........#XXXXXXXXXXXXXXXXX.",
".XXXXXXXXXXXXXXXX+...........+&&&&&&&&&&XX&&&&&XX+...........+XXXXXXXXXXXXXXXX.",
".XXXXXXXXXXXXXX@O.............O@&&&&&&&XX&&&&&&@O.............O@XXXXXXXXXXXXXX.",
".XXXXXXXXXXXXXX$...............$&&&&&&XX&&&&&&&$...............$XXXXXXXXXXXXXX.",
".XXXXXXXXXXXXX#.................#&&&&&XX&&&&&&#.................#XXXXXXXXXXXXX.",
".XXXXXXXXXXXXX%.................%&&&&XX&&&&&&&%.................%XXXXXXXXXXXXX.",
".XXXXXXXXXXXXX%.......#.#.......%&&&XX&&&&&&&&%.......#.#.......%XXXXXXXXXXXXX.",
".XXXXXXXXXXXXX@......oX.Xo......@&&XX&&&&&&&&&@......oX.Xo......@XXXXXXXXXXXXX.",
".XXXXXXXXXXXXXXo$...#Xo.oX#...$o&&XX&&&&&&&&&&&o$...#Xo.oX#...$oXXXXXXXXXXXXXX.",
".XXXXXXXXXXXXXXXXoo@XX#.#XX@oo&&&&XX&&&&&&&&&&&&&oo@XX#.#XX@ooXXXXXXXXXXXXXXXX.",
".XXXXXXXXXXXXXXXXXXXXX+.+XXX&&&&&XXXX&&&&&&&&&&&&&&&&X+.+XXXXXXXXXXXXXXXXXXXXX.",
".XXXXXXXXXXXXXXXXXXXXX$.$XX&&&&&XXXXX&&&&&&&&&&&&&&&&X$.$XXXXXXXXXXXXXXXXXXXXX.",
".XXXXXXXXXXXXXXXXXXXX@...@&&&&&XXXXXX#O%O#&&&&&&&&&&&@...@XXXXXXXXXXXXXXXXXXXX.",
".XXXXXXXXXXXXXXXXXXXX#O%O#&&&&XXXXXXX@...@&&&&&&&&&&&#O%O#XXXXXXXXXXXXXXXXXXXX.",
".XXXXXXXXXXXXXXXXXXXXXXXX&&&&&XXXXXXXX$.$&&&&&&&&&&&&&&&XXXXXXXXXXXXXXXXXXXXXX.",
".XXXXXXXXXXXXXXXXXXXXXXX&&&&&XXXXXXXXX+.+&&&&&&&&&&&&&&&XXXXXXXXXXXXXXXXXXXXXX.",
".XXXXXXXXXXXXXXXXXXXXXX&&&&&XXXXXoo@XX#.#&&@oo&&&&&&&&&&&XXXXXXXXXXXXXXXXXXXXX.",
".XXXXXXXXXXXXXXXXXXXXX&&&&&XXXXo$...#Xo.oX#...$o&&&&&&&&&&XXXXXXXXXXXXXXXXXXXX.",
".XXXXXXXXXXXXXXXXXXXX&&&&&XXXX@......oX.Xo......@&&&&&&&&&&XXXXXXXXXXXXXXXXXXX.",
".XXXXXXXXXXXXXXXXXXX&&&&&XXXXX%.......#.#.......%&&&&&&&&&&XXXXXXXXXXXXXXXXXXX.",
".XXXXXXXXXXXXXXXXXXX&&&&&XXXXX%.................%&&&&&&&&&&&XXXXXXXXXXXXXXXXXX.",
".XXXXXXXXXXXXXXXXXX&&&&&XXXXXX#.................#&&&&&&&&&&&&XXXXXXXXXXXXXXXXX.",
".XXXXXXXXXXXXXXXXX&&&&&XXXXXXXX$...............$&&&&&&&&&&&&&&XXXXXXXXXXXXXXXX.",
".XXXXXXXXXXXXXXXX&&&&&XXXXXXXXX@O.............O@&&&&&&&&&&&&&&XXXXXXXXXXXXXXXX.",
".XXXXXXXXXXXXXXX&&&&&XXXXXXXXXXXX+...........+X&&&&&&&&&&&&&&&&XXXXXXXXXXXXXXX.",
".XXXXXXXXXXXXXXX&&&&&XXXXXXXXXXXXX#.........#XXX&&&&&&&&&&&&&&&&XXXXXXXXXXXXXX.",
".XXXXXXXXXXXXXX&&&&&XXXXXXXXXXXXXXX#.......#XXXXX&&&&&&&&&&&&&&&&XXXXXXXXXXXXX.",
".XXXXXXXXXXXXX&&&&&XXXXXXXXXXXXXXXXX#.....#XXXXXX&&&&&&&&&&&&&&&&XXXXXXXXXXXXX.",
".XXXXXXXXXXXX&&&&&XXXXXXXXXXXXXXXXXXX#...#XXXXXXXX&&&&&&&&&&&&&&&&XXXXXXXXXXXX.",
".XXXXXXXXXXX&&&&&XXXXXXXXXXXXXXXXXXXXX+.+XXXXXXXXXX&&&&&&&&&&&&&&&&XXXXXXXXXXX.",
".XXXXXXXXXXX&&&&&XXXXXXXXXXXXXXXXXXXXX@.@XXXXXXXXXXX&&&&&&&&&&&&&&&&XXXXXXXXXX.",
".XXXXXXXXXX&&&&&XXXXXXXXXXXXXXXXXXXXXXX+XXXXXXXXXXXX&&&&&&&&&&&&&&&&XXXXXXXXXX.",
".XXXXXXXXX&&&&&XXXXXX#O%O#XXXXXXXXXXXXXXXXXXXXXXXXXXX#O%O#&&&&&&&&&&&o%oXXXXXX.",
".XXXXXXXX&&&&&XXXXXXX@...@XXXXXXXXXXXXXXXXXXXXXXXXXXX@...@&&&&&&&&&&&@.@XXXXXX.",
".XXXXXXX&&&&&XXXXXXXXX$.$XXXXXXXXXXXXXXXXXXXXXXXXXXXXX$.$&&&&&&&&&&#o&$Xo#XXXX.",
".XXXXXXXXXXXXXXXXXXXXX+.+XXXXXXXXXXXXXXXXXXXXXXXXXXXXX+.+XXXXXXXXXO..#%#..OXXX.",
".XXXXXXXXXXXXXXXXoo@XX#.#XX@ooXXXXXXXXXXXXXXXXXXXoo@XX#.#XX@ooXXXX....$....XXX.",
".XXXXXXXXXXXXXXo$...#Xo.oX#...$oXXXXXXXXXXXXXXXo$...#Xo.oX#...$oXX+.......+XXX.",
".XXXXXXXXXXXXX@......oX.Xo......@XXXXXXXXXXXXX@......oX.Xo......@XX%.....%XXXX.",
".XXXXXXXXXXXXX%.......#.#.......%XXXXXXXXXXXXX%.......#.#.......%XXX%...%XXXXX.",
".XXXXXXXXXXXXX%.................%XXXXXXXXXXXXX%.................%XXXX%.%XXXXXX.",
".XXXXXXXXXXXXX#.................#XXXXXXXXXXXXX#.................#XXXXX+XXXXXXX.",
".XXXXXXXXXXXXXX$...............$XXXXXXXXXXXXXXX$...............$XXXXXX@XXXXXXX.",
".XXXXXXXXXXXXXX@O.............O@XXXXXXXXXXXXXXX@O.............O@XXXXXXXXXXXXXX.",
".XXXXXXXXXXXXXXXX+...........+XXXXXXXXXXXXXXXXXXX+...........+XXXXXXXXXXXXXXXX.",
".XXXXXXXXXXXXXXXXX#.........#XXXXXXXXXXXXXXXXXXXXX#.........#XXXXXXX.....XXXXX.",
".XXXXXXXXXXXXXXXXXX#.......#XXXXXXXXXXXXXXXXXXXXXXX#.......#XXXXXXo.......oXXX.",
".XXXXXXXXXXXXXXXXXXX#.....#XXXXXXXXXXXXXXXXXXXXXXXXX#.....#XXXXXXX..OXXXO..XXX.",
".XXXXXXXXXXXXXXXXXXXX#...#XXXXXXXXXXXXXXXXXXXXXXXXXXX#...#XXXXXXXX..XXXXX..XXX.",
".XXXXXXXXXXXXXXXXXXXXX+.+XXXXXXXXXXXXXXXXXXXXXXXXXXXXX+.+XXXXXXXXX..XXXXX..XXX.",
".XXXXXXXXXXXXXXXXXXXXX@.@XXXXXXXXXXXXXXXXXXXXXXXXXXXXX@.@XXXXXXXXX..OXXXO..XXX.",
".XXXXXXXXXXXXXXXXXXXXXX+XXXXXXXXXXXXXXXXXXXXXXXXXXXXXXX+XXXXXXXXXXo.......oXXX.",
".XXXXXXXXXXXXXXXXXXXXXXXXXXXXXXXXXXXXXXXXXXXXXXXXXXXXXXXXXXXXXXXXXXX.....XXXXX.",
".XXXXXXXXXXXXXXXXXXXXXXXXXXXXXXXXXXXXXXXXXXXXXXXXXXXXXXXXXXXXXXXXXo.......oXXX.",
".XXXXXXXXXXXXXXXXXXXXXXXXXXXXXXXXXXXXXXXXXXXXXXXXXXXXXXXXXXXXXXXXX..OXXXO..XXX.",
".XXXXXXXXXXXXXXXXXXXXXXXXXXXXXXXXXXXXXXXXXXXXXXXXXXXXXXXXXXXXXXXXX..XXXXX..XXX.",
".XXXXXXXXXXXXXXXXXXXXXXXXXXXXXXXXXXXXXXXXXXXXXXXXXXXXXXXXXXXXXXXXX..OXXXO..XXX.",
".XXXXXXXXXXXXXXXXXXXXXXXXXXXXXXXXXXXXXXXXXXXXXXXXXXXXXXXXXXXXXXXXXo.......oXXX.",
" .XXXXXXXXXXXXXXXXXXXXXXXXXXXXXXXXXXXXXXXXXXXXXXXXXXXXXXXXXXXXXXXXXo.....oXXX. ",
" .XXXXXXXXXXXXXXXXXXXXXXXXXXXXXXXXXXXXXXXXXXXXXXXXXXXXXXXXXXXXXXXXXXXXXXXXXXX. ",
"  .XXXXXXXXXXXXXXXXXXXXXXXXXXXXXXXXXXXXXXXXXXXXXXXXXXXXXXXXXXXXXXXXXXXXXXXXX.  ",
"  .XXXXXXXXXXXXXXXXXXXXXXXXXXXXXXXXXXXXXXXXXXXXXXXXXXXXXXXXXXXXXXXXXXXXXXXXX.  ",
"   ..XXXXXXXXXXXXXXXXXXXXXXXXXXXXXXXXXXXXXXXXXXXXXXXXXXXXXXXXXXXXXXXXXXXXX..   ",
"     ..XXXXXXXXXXXXXXXXXXXXXXXXXXXXXXXXXXXXXXXXXXXXXXXXXXXXXXXXXXXXXXXXX..     ",
"       .................................................................       "};
