/* XPM */
static char * Eight_Diamonds_xpm[] = {
"79 123 12 1",
" 	c None",
".	c #000000000000",
"X	c #FFFFFFFFFFFF",
"o	c #F7DEBEFBBEFB",
"O	c #CF3C00000000",
"+	c #DF7D3CF338E3",
"@	c #E79D7DF779E7",
"#	c #EFBE9E799E79",
"$	c #FFFFDF7DDF7D",
"%	c #DF7D5D755965",
"&	c #D75C1C711861",
"*	c #D75CD75CD75C",
"       .................................................................       ",
"     ..XXXXXXXXXXXXXXXXXXXXXXXXXXXXXXXXXXXXXXXXXXXXXXXXXXXXXXXXXXXXXXXXX..     ",
"   ..XXXXXXXXXXXXXXXXXXXXXXXXXXXXXXXXXXXXXXXXXXXXXXXXXXXXXXXXXXXXXXXXXXXXX..   ",
"  .XXXXXXXXXXXXXXXXXXXXXXXXXXXXXXXXXXXXXXXXXXXXXXXXXXXXXXXXXXXXXXXXXXXXXXXXX.  ",
"  .XXXXXXXXXXXXXXXXXXXXXXXXXXXXXXXXXXXXXXXXXXXXXXXXXXXXXXXXXXXXXXXXXXXXXXXXX.  ",
" .XXXXXXXXXXXXXXXXXXXXXXXXXXXXXXXXXXXXXXXXXXXXXXXXXXXXXXXXXXXXXXXXXXXXXXXXXXX. ",
" .XXXoOOOOOoXXXXXXXXXXXXXXXXXXXXXXXXXXXXXXXXXXXXXXXXXXXXXXXXXXXXXXXXXXXXXXXXX. ",
".XXXoOOOOOOOoXXXXXXXXXXXXXXXXXXXXXXXXXXXXXXXXXXXXXXXXXXXXXXXXXXXXXXXXXXXXXXXXX.",
".XXXOO+XXX+OOXXXXXXXXXXXXXXXXXXXXXXXXXXXXXXXXXXXXXXXXXXXXXXXXXXXXXXXXXXXXXXXXX.",
".XXXOOXXXXXOOXXXXXXXXXXXXXXXXXXXXXXXXXXXXXXXXXXXXXXXXXXXXXXXXXXXXXXXXXXXXXXXXX.",
".XXXOO+XXX+OOXXXXXXXXXXXXXXXXXXXXXXXXXXXXXXXXXXXXXXXXXXXXXXXXXXXXXXXXXXXXXXXXX.",
".XXXoOOOOOOOoXXXXXXXXXXXXXXXXXXXXXXXXXXXXXXXXXXXXXXXXXXXXXXXXXXXXXXXXXXXXXXXXX.",
".XXXXXOOOOOXXXXXXXXXXXX@XXXXXXXXXXXXXXXXXXXXXXXXXXXXXXX@XXXXXXXXXXXXXXXXXXXXXX.",
".XXXoOOOOOOOoXXXXXXXXX#O#XXXXXXXXXXXXXXXXXXXXXXXXXXXXX#O#XXXXXXXXXXXXXXXXXXXXX.",
".XXXOO+XXX+OOXXXXXXXX$OOO$XXXXXXXXXXXXXXXXXXXXXXXXXXX$OOO$XXXXXXXXXXXXXXXXXXXX.",
".XXXOOXXXXXOOXXXXXXXX+OOO+XXXXXXXXXXXXXXXXXXXXXXXXXXX+OOO+XXXXXXXXXXXXXXXXXXXX.",
".XXXOOXXXXXOOXXXXXXX%OOOOO%XXXXXXXXXXXXXXXXXXXXXXXXX%OOOOO%XXXXXXXXXXXXXXXXXXX.",
".XXXOO+XXX+OOXXXXXX@OOOOOOO@XXXXXXXXXXXXXXXXXXXXXXX@OOOOOOO@XXXXXXXXXXXXXXXXXX.",
".XXXoOOOOOOOoXXXXX@OOOOOOOOO@XXXXXXXXXXXXXXXXXXXXX@OOOOOOOOO@XXXXXXXXXXXXXXXXX.",
".XXXXXOOOOOXXXXXX%OOOOOOOOOOO%XXXXXXXXXXXXXXXXXXX%OOOOOOOOOOO%XXXXXXXXXXXXXXXX.",
".XXXXXXXXXXXXXX$+OOOOOOOOOOOOO+$XXXXXXXXXXXXXXX$+OOOOOOOOOOOOO+$XXXXXXXXXXXXXX.",
".XXXXXXXXXXXXX#OOOOOOOOOOOOOOOOO#XXXXXXXXXXXXX#OOOOOOOOOOOOOOOOO#XXXXXXXXXXXXX.",
".XXXXXXX#XXXX@OOOOOOOOOOOOOOOOOOO@XXXXXXXXXXX@OOOOOOOOOOOOOOOOOOO@XXXXXXXXXXXX.",
".XXXXXXoOoXXXX#OOOOOOOOOOOOOOOOO#XXXXXXXXXXXXX#OOOOOOOOOOOOOOOOO#XXXXXXXXXXXXX.",
".XXXXX$&O&$XXXX$+OOOOOOOOOOOOO+$XXXXXXXXXXXXXXX$+OOOOOOOOOOOOO+$XXXXXXXXXXXXXX.",
".XXXX$&OOO&$XXXXX%OOOOOOOOOOO%XXXXXXXXXXXXXXXXXXX%OOOOOOOOOOO%XXXXXXXXXXXXXXXX.",
".XXXo&OOOOO&oXXXXX@OOOOOOOOO@XXXXXXXXXXXXXXXXXXXXX@OOOOOOOOO@XXXXXXXXXXXXXXXXX.",
".XX#OOOOOOOOO#XXXXX@OOOOOOO@XXXXXXXXXXXXXXXXXXXXXXX@OOOOOOO@XXXXXXXXXXXXXXXXXX.",
".XXXo&OOOOO&oXXXXXXX%OOOOO%XXXXXXXXXXXXXXXXXXXXXXXXX%OOOOO%XXXXXXXXXXXXXXXXXXX.",
".XXXX$&OOO&$*********+OOO+XXXXXXXXXXXXXXXXXXXXXXXXXXX+OOO+XXXXXXXX*****XXXXXXX.",
".XXXXX$&O&$**********$OOO$XXXXXXXXXXXXXXXXXXXXXXXXXXX$OOO$XXXXXXXX*****XXXXXXX.",
".XXXXXXoOo************#O#XXXXXXXXXXXXXX@XXXXXXXXXXXXXX#O#XXXXXXXX*****XXXXXXXX.",
".XXXXXXX#X*************@**XXXXXXXXXXXX#O#XXXXXXXXXXXXXX@XXXXXXXX*****XXXXXXXXX.",
".XXXXXXXXX****************XXXXXXXXXXX$OOO$XXXXXXXXXXXXXXXXXXXXX*****XXXXXXXXXX.",
".XXXXXXXXXX****************XXXXXXXXXX+OOO+XXXXXXXXXXXXXXXXXXXX*****XXXXXXXXXXX.",
".XXXXXXXXXXX****************XXXXXXXX%OOOOO%XXXXXXXXXXXXXXXXXXX*****XXXXXXXXXXX.",
".XXXXXXXXXXXX****************XXXXXX@OOOOOOO@XXXXXXXXXXXXXXXXX*****XXXXXXXXXXXX.",
".XXXXXXXXXXXX****************XXXXX@OOOOOOOOO@XXXXXXXXXXXXXXX*****XXXXXXXXXXXXX.",
".XXXXXXXXXXXXX****************XXX%OOOOOOOOOOO%XXXXXXXXXXXXX*****XXXXXXXXXXXXXX.",
".XXXXXXXXXXXXXX****************$+OOOOOOOOOOOOO+$XXXXXXXXXX*****XXXXXXXXXXXXXXX.",
".XXXXXXXXXXXXXXX**************#OOOOOOOOOOOOOOOOO#XXXXXXXXX*****XXXXXXXXXXXXXXX.",
".XXXXXXXXXXXXXXX*************@OOOOOOOOOOOOOOOOOOO@XXXXXXX*****XXXXXXXXXXXXXXXX.",
".XXXXXXXXXXXXXXXX*************#OOOOOOOOOOOOOOOOO#XXXXXXX*****XXXXXXXXXXXXXXXXX.",
".XXXXXXXXXXXXXXXXX*************$+OOOOOOOOOOOOO+$XXXXXXX*****XXXXXXXXXXXXXXXXXX.",
".XXXXXXXXXXXXXXXXXX**************%OOOOOOOOOOO%XXXXXXXX*****XXXXXXXXXXXXXXXXXXX.",
".XXXXXXXXXXXXXXXXXX***************@OOOOOOOOO@XXXXXXXX*****XXXXXXXXXXXXXXXXXXXX.",
".XXXXXXXXXXXXXXXXXXX***************@OOOOOOO@XXXXXXXXX*****XXXXXXXXXXXXXXXXXXXX.",
".XXXXXXXXXXXXXXXXXXXX***************%OOOOO%XXXXXXXXX*****XXXXXXXXXXXXXXXXXXXXX.",
".XXXXXXXXXXXXXXXXXXXXX***************+OOO+XXXXXXXXX*****XXXXXXXXXXXXXXXXXXXXXX.",
".XXXXXXXXXXXXXXXXXXXXX***************$OOO$XXXXXXXX*****XXXXXXXXXXXXXXXXXXXXXXX.",
".XXXXXXXXXXXXXXXXXXXXXX***************#O#XXXXXXXX*****XXXXXXXXXXXXXXXXXXXXXXXX.",
".XXXXXXXXXXXXXXXXXXXXXX@***************@XXXXXXXXX*****X@XXXXXXXXXXXXXXXXXXXXXX.",
".XXXXXXXXXXXXXXXXXXXXX#O#****************XXXXXXX*****X#O#XXXXXXXXXXXXXXXXXXXXX.",
".XXXXXXXXXXXXXXXXXXXX$OOO$***************XXXXXX*****X$OOO$XXXXXXXXXXXXXXXXXXXX.",
".XXXXXXXXXXXXXXXXXXXX+OOO+****************XXXX*****XX+OOO+XXXXXXXXXXXXXXXXXXXX.",
".XXXXXXXXXXXXXXXXXXX%OOOOO%****************XX*****XX%OOOOO%XXXXXXXXXXXXXXXXXXX.",
".XXXXXXXXXXXXXXXXXX@OOOOOOO@***************XX*****X@OOOOOOO@XXXXXXXXXXXXXXXXXX.",
".XXXXXXXXXXXXXXXXX@OOOOOOOOO@*************XX*****X@OOOOOOOOO@XXXXXXXXXXXXXXXXX.",
".XXXXXXXXXXXXXXXX%OOOOOOOOOOO%***********XX*****X%OOOOOOOOOOO%XXXXXXXXXXXXXXXX.",
".XXXXXXXXXXXXXX$+OOOOOOOOOOOOO+$********XX*****$+OOOOOOOOOOOOO+$XXXXXXXXXXXXXX.",
".XXXXXXXXXXXXX#OOOOOOOOOOOOOOOOO#******XX*****#OOOOOOOOOOOOOOOOO#XXXXXXXXXXXXX.",
".XXXXXXXXXXXX@OOOOOOOOOOOOOOOOOOO@****XX*****@OOOOOOOOOOOOOOOOOOO@XXXXXXXXXXXX.",
".XXXXXXXXXXXXX#OOOOOOOOOOOOOOOOO#*****XX******#OOOOOOOOOOOOOOOOO#XXXXXXXXXXXXX.",
".XXXXXXXXXXXXXX$+OOOOOOOOOOOOO+$*****XX********$+OOOOOOOOOOOOO+$XXXXXXXXXXXXXX.",
".XXXXXXXXXXXXXXXX%OOOOOOOOOOO%X*****XX***********%OOOOOOOOOOO%XXXXXXXXXXXXXXXX.",
".XXXXXXXXXXXXXXXXX@OOOOOOOOO@X*****XX*************@OOOOOOOOO@XXXXXXXXXXXXXXXXX.",
".XXXXXXXXXXXXXXXXXX@OOOOOOO@X*****XX***************@OOOOOOO@XXXXXXXXXXXXXXXXXX.",
".XXXXXXXXXXXXXXXXXXX%OOOOO%XX*****XX****************%OOOOO%XXXXXXXXXXXXXXXXXXX.",
".XXXXXXXXXXXXXXXXXXXX+OOO+XX*****XXXX****************+OOO+XXXXXXXXXXXXXXXXXXXX.",
".XXXXXXXXXXXXXXXXXXXX$OOO$X*****XXXXX****************$OOO$XXXXXXXXXXXXXXXXXXXX.",
".XXXXXXXXXXXXXXXXXXXXX#O#X*****XXXXXXX*@**************#O#XXXXXXXXXXXXXXXXXXXXX.",
".XXXXXXXXXXXXXXXXXXXXXX@X*****XXXXXXXX#O#**************@XXXXXXXXXXXXXXXXXXXXXX.",
".XXXXXXXXXXXXXXXXXXXXXXXX*****XXXXXXX$OOO$**************XXXXXXXXXXXXXXXXXXXXXX.",
".XXXXXXXXXXXXXXXXXXXXXXX*****XXXXXXXX+OOO+**************XXXXXXXXXXXXXXXXXXXXXX.",
".XXXXXXXXXXXXXXXXXXXXXX*****XXXXXXXX%OOOOO%**************XXXXXXXXXXXXXXXXXXXXX.",
".XXXXXXXXXXXXXXXXXXXXX*****XXXXXXXX@OOOOOOO@**************XXXXXXXXXXXXXXXXXXXX.",
".XXXXXXXXXXXXXXXXXXXX*****XXXXXXXX@OOOOOOOOO@**************XXXXXXXXXXXXXXXXXXX.",
".XXXXXXXXXXXXXXXXXXX*****XXXXXXXX%OOOOOOOOOOO%*************XXXXXXXXXXXXXXXXXXX.",
".XXXXXXXXXXXXXXXXXXX*****XXXXXX$+OOOOOOOOOOOOO+$************XXXXXXXXXXXXXXXXXX.",
".XXXXXXXXXXXXXXXXXX*****XXXXXX#OOOOOOOOOOOOOOOOO#************XXXXXXXXXXXXXXXXX.",
".XXXXXXXXXXXXXXXXX*****XXXXXX@OOOOOOOOOOOOOOOOOOO@************XXXXXXXXXXXXXXXX.",
".XXXXXXXXXXXXXXXX*****XXXXXXXX#OOOOOOOOOOOOOOOOO#*************XXXXXXXXXXXXXXXX.",
".XXXXXXXXXXXXXXX*****XXXXXXXXXX$+OOOOOOOOOOOOO+$***************XXXXXXXXXXXXXXX.",
".XXXXXXXXXXXXXXX*****XXXXXXXXXXXX%OOOOOOOOOOO%XX****************XXXXXXXXXXXXXX.",
".XXXXXXXXXXXXXX*****XXXXXXXXXXXXXX@OOOOOOOOO@XXXX****************XXXXXXXXXXXXX.",
".XXXXXXXXXXXXX*****XXXXXXXXXXXXXXXX@OOOOOOO@XXXXX****************XXXXXXXXXXXXX.",
".XXXXXXXXXXXX*****XXXXXXXXXXXXXXXXXX%OOOOO%XXXXXXX****************XXXXXXXXXXXX.",
".XXXXXXXXXXX*****XXXXXXXXXXXXXXXXXXXX+OOO+XXXXXXXXX****************XXXXXXXXXXX.",
".XXXXXXXXXXX*****XXXXXXXXXXXXXXXXXXXX$OOO$XXXXXXXXXX****************XXXXXXXXXX.",
".XXXXXXXXXX*****XXXXXXXXXXXXXXXXXXXXXX#O#XXXXXXXXXXX****************XXXXXXXXXX.",
".XXXXXXXXX*****XXXXXXXX@XXXXXXXXXXXXXXX@XXXXXXXXXXXXX**@*************X#XXXXXXX.",
".XXXXXXXX*****XXXXXXXX#O#XXXXXXXXXXXXXXXXXXXXXXXXXXXXX#O#************oOoXXXXXX.",
".XXXXXXX*****XXXXXXXX$OOO$XXXXXXXXXXXXXXXXXXXXXXXXXXX$OOO$**********$&O&$XXXXX.",
".XXXXXXXXXXXXXXXXXXXX+OOO+XXXXXXXXXXXXXXXXXXXXXXXXXXX+OOO+XXXXXXXXX$&OOO&$XXXX.",
".XXXXXXXXXXXXXXXXXXX%OOOOO%XXXXXXXXXXXXXXXXXXXXXXXXX%OOOOO%XXXXXXXo&OOOOO&oXXX.",
".XXXXXXXXXXXXXXXXXX@OOOOOOO@XXXXXXXXXXXXXXXXXXXXXXX@OOOOOOO@XXXXX#OOOOOOOOO#XX.",
".XXXXXXXXXXXXXXXXX@OOOOOOOOO@XXXXXXXXXXXXXXXXXXXXX@OOOOOOOOO@XXXXXo&OOOOO&oXXX.",
".XXXXXXXXXXXXXXXX%OOOOOOOOOOO%XXXXXXXXXXXXXXXXXXX%OOOOOOOOOOO%XXXXX$&OOO&$XXXX.",
".XXXXXXXXXXXXXX$+OOOOOOOOOOOOO+$XXXXXXXXXXXXXXX$+OOOOOOOOOOOOO+$XXXX$&O&$XXXXX.",
".XXXXXXXXXXXXX#OOOOOOOOOOOOOOOOO#XXXXXXXXXXXXX#OOOOOOOOOOOOOOOOO#XXXXoOoXXXXXX.",
".XXXXXXXXXXXX@OOOOOOOOOOOOOOOOOOO@XXXXXXXXXXX@OOOOOOOOOOOOOOOOOOO@XXXX#XXXXXXX.",
".XXXXXXXXXXXXX#OOOOOOOOOOOOOOOOO#XXXXXXXXXXXXX#OOOOOOOOOOOOOOOOO#XXXXXXXXXXXXX.",
".XXXXXXXXXXXXXX$+OOOOOOOOOOOOO+$XXXXXXXXXXXXXXX$+OOOOOOOOOOOOO+$XXXXXXXXXXXXXX.",
".XXXXXXXXXXXXXXXX%OOOOOOOOOOO%XXXXXXXXXXXXXXXXXXX%OOOOOOOOOOO%XXXXXXOOOOOXXXXX.",
".XXXXXXXXXXXXXXXXX@OOOOOOOOO@XXXXXXXXXXXXXXXXXXXXX@OOOOOOOOO@XXXXXoOOOOOOOoXXX.",
".XXXXXXXXXXXXXXXXXX@OOOOOOO@XXXXXXXXXXXXXXXXXXXXXXX@OOOOOOO@XXXXXXOO+XXX+OOXXX.",
".XXXXXXXXXXXXXXXXXXX%OOOOO%XXXXXXXXXXXXXXXXXXXXXXXXX%OOOOO%XXXXXXXOOXXXXXOOXXX.",
".XXXXXXXXXXXXXXXXXXXX+OOO+XXXXXXXXXXXXXXXXXXXXXXXXXXX+OOO+XXXXXXXXOOXXXXXOOXXX.",
".XXXXXXXXXXXXXXXXXXXX$OOO$XXXXXXXXXXXXXXXXXXXXXXXXXXX$OOO$XXXXXXXXOO+XXX+OOXXX.",
".XXXXXXXXXXXXXXXXXXXXX#O#XXXXXXXXXXXXXXXXXXXXXXXXXXXXX#O#XXXXXXXXXoOOOOOOOoXXX.",
".XXXXXXXXXXXXXXXXXXXXXX@XXXXXXXXXXXXXXXXXXXXXXXXXXXXXXX@XXXXXXXXXXXXOOOOOXXXXX.",
".XXXXXXXXXXXXXXXXXXXXXXXXXXXXXXXXXXXXXXXXXXXXXXXXXXXXXXXXXXXXXXXXXoOOOOOOOoXXX.",
".XXXXXXXXXXXXXXXXXXXXXXXXXXXXXXXXXXXXXXXXXXXXXXXXXXXXXXXXXXXXXXXXXOO+XXX+OOXXX.",
".XXXXXXXXXXXXXXXXXXXXXXXXXXXXXXXXXXXXXXXXXXXXXXXXXXXXXXXXXXXXXXXXXOOXXXXXOOXXX.",
".XXXXXXXXXXXXXXXXXXXXXXXXXXXXXXXXXXXXXXXXXXXXXXXXXXXXXXXXXXXXXXXXXOO+XXX+OOXXX.",
".XXXXXXXXXXXXXXXXXXXXXXXXXXXXXXXXXXXXXXXXXXXXXXXXXXXXXXXXXXXXXXXXXoOOOOOOOoXXX.",
" .XXXXXXXXXXXXXXXXXXXXXXXXXXXXXXXXXXXXXXXXXXXXXXXXXXXXXXXXXXXXXXXXXoOOOOOoXXX. ",
" .XXXXXXXXXXXXXXXXXXXXXXXXXXXXXXXXXXXXXXXXXXXXXXXXXXXXXXXXXXXXXXXXXXXXXXXXXXX. ",
"  .XXXXXXXXXXXXXXXXXXXXXXXXXXXXXXXXXXXXXXXXXXXXXXXXXXXXXXXXXXXXXXXXXXXXXXXXX.  ",
"  .XXXXXXXXXXXXXXXXXXXXXXXXXXXXXXXXXXXXXXXXXXXXXXXXXXXXXXXXXXXXXXXXXXXXXXXXX.  ",
"   ..XXXXXXXXXXXXXXXXXXXXXXXXXXXXXXXXXXXXXXXXXXXXXXXXXXXXXXXXXXXXXXXXXXXXX..   ",
"     ..XXXXXXXXXXXXXXXXXXXXXXXXXXXXXXXXXXXXXXXXXXXXXXXXXXXXXXXXXXXXXXXXX..     ",
"       .................................................................       "};
