/* XPM */
static char * Four_Diamonds_xpm[] = {
"79 123 12 1",
" 	c None",
".	c #000000000000",
"X	c #FFFFFFFFFFFF",
"o	c #F7DEBEFBBEFB",
"O	c #CF3C00000000",
"+	c #E79D7DF779E7",
"@	c #EFBE9E799E79",
"#	c #FFFFDF7DDF7D",
"$	c #DF7D3CF338E3",
"%	c #DF7D5D755965",
"&	c #D75C1C711861",
"*	c #D75CD75CD75C",
"       .................................................................       ",
"     ..XXXXXXXXXXXXXXXXXXXXXXXXXXXXXXXXXXXXXXXXXXXXXXXXXXXXXXXXXXXXXXXXX..     ",
"   ..XXXXXXXXXXXXXXXXXXXXXXXXXXXXXXXXXXXXXXXXXXXXXXXXXXXXXXXXXXXXXXXXXXXXX..   ",
"  .XXXXXXXXXXXXXXXXXXXXXXXXXXXXXXXXXXXXXXXXXXXXXXXXXXXXXXXXXXXXXXXXXXXXXXXXX.  ",
"  .XXXXXXXXXXXXXXXXXXXXXXXXXXXXXXXXXXXXXXXXXXXXXXXXXXXXXXXXXXXXXXXXXXXXXXXXX.  ",
" .XXXXXXXXXXXXXXXXXXXXXXXXXXXXXXXXXXXXXXXXXXXXXXXXXXXXXXXXXXXXXXXXXXXXXXXXXXX. ",
" .XXXXXXoOOOXXXXXXXXXXXXXXXXXXXXXXXXXXXXXXXXXXXXXXXXXXXXXXXXXXXXXXXXXXXXXXXXX. ",
".XXXXXXXOOOOXXXXXXXXXXXXXXXXXXXXXXXXXXXXXXXXXXXXXXXXXXXXXXXXXXXXXXXXXXXXXXXXXX.",
".XXXXXX+OOOOXXXXXXXXXXXXXXXXXXXXXXXXXXXXXXXXXXXXXXXXXXXXXXXXXXXXXXXXXXXXXXXXXX.",
".XXXXXXOOXOOXXXXXXXXXXXXXXXXXXXXXXXXXXXXXXXXXXXXXXXXXXXXXXXXXXXXXXXXXXXXXXXXXX.",
".XXXXX+O+XOOXXXXXXXXXXXXXXXXXXXXXXXXXXXXXXXXXXXXXXXXXXXXXXXXXXXXXXXXXXXXXXXXXX.",
".XXXXXOOXXOOXXXXXXXXXXXXXXXXXXXXXXXXXXXXXXXXXXXXXXXXXXXXXXXXXXXXXXXXXXXXXXXXXX.",
".XXXX+O+XXOOXXXXXXXXXXX+XXXXXXXXXXXXXXXXXXXXXXXXXXXXXXX+XXXXXXXXXXXXXXXXXXXXXX.",
".XXXXOOXXXOOXXXXXXXXXX@O@XXXXXXXXXXXXXXXXXXXXXXXXXXXXX@O@XXXXXXXXXXXXXXXXXXXXX.",
".XXX+O+XXXOOXXXXXXXXX#OOO#XXXXXXXXXXXXXXXXXXXXXXXXXXX#OOO#XXXXXXXXXXXXXXXXXXXX.",
".XXXOOOOOOOOOXXXXXXXX$OOO$XXXXXXXXXXXXXXXXXXXXXXXXXXX$OOO$XXXXXXXXXXXXXXXXXXXX.",
".XXXOOOOOOOOOXXXXXXX%OOOOO%XXXXXXXXXXXXXXXXXXXXXXXXX%OOOOO%XXXXXXXXXXXXXXXXXXX.",
".XXXXXXXXXOOXXXXXXX+OOOOOOO+XXXXXXXXXXXXXXXXXXXXXXX+OOOOOOO+XXXXXXXXXXXXXXXXXX.",
".XXXXXXXXOOOOXXXXX+OOOOOOOOO+XXXXXXXXXXXXXXXXXXXXX+OOOOOOOOO+XXXXXXXXXXXXXXXXX.",
".XXXXXXXXOOOOXXXX%OOOOOOOOOOO%XXXXXXXXXXXXXXXXXXX%OOOOOOOOOOO%XXXXXXXXXXXXXXXX.",
".XXXXXXXXXXXXXX#$OOOOOOOOOOOOO$#XXXXXXXXXXXXXXX#$OOOOOOOOOOOOO$#XXXXXXXXXXXXXX.",
".XXXXXXXXXXXXX@OOOOOOOOOOOOOOOOO@XXXXXXXXXXXXX@OOOOOOOOOOOOOOOOO@XXXXXXXXXXXXX.",
".XXXXXXX@XXXX+OOOOOOOOOOOOOOOOOOO+XXXXXXXXXXX+OOOOOOOOOOOOOOOOOOO+XXXXXXXXXXXX.",
".XXXXXXoOoXXXX@OOOOOOOOOOOOOOOOO@XXXXXXXXXXXXX@OOOOOOOOOOOOOOOOO@XXXXXXXXXXXXX.",
".XXXXX#&O&#XXXX#$OOOOOOOOOOOOO$#XXXXXXXXXXXXXXX#$OOOOOOOOOOOOO$#XXXXXXXXXXXXXX.",
".XXXX#&OOO&#XXXXX%OOOOOOOOOOO%XXXXXXXXXXXXXXXXXXX%OOOOOOOOOOO%XXXXXXXXXXXXXXXX.",
".XXXo&OOOOO&oXXXXX+OOOOOOOOO+XXXXXXXXXXXXXXXXXXXXX+OOOOOOOOO+XXXXXXXXXXXXXXXXX.",
".XX@OOOOOOOOO@XXXXX+OOOOOOO+XXXXXXXXXXXXXXXXXXXXXXX+OOOOOOO+XXXXXXXXXXXXXXXXXX.",
".XXXo&OOOOO&oXXXXXXX%OOOOO%XXXXXXXXXXXXXXXXXXXXXXXXX%OOOOO%XXXXXXXXXXXXXXXXXXX.",
".XXXX#&OOO&#*********$OOO$XXXXXXXXXXXXXXXXXXXXXXXXXXX$OOO$XXXXXXXX*****XXXXXXX.",
".XXXXX#&O&#**********#OOO#XXXXXXXXXXXXXXXXXXXXXXXXXXX#OOO#XXXXXXXX*****XXXXXXX.",
".XXXXXXoOo************@O@XXXXXXXXXXXXXXXXXXXXXXXXXXXXX@O@XXXXXXXX*****XXXXXXXX.",
".XXXXXXX@X*************+**XXXXXXXXXXXXXXXXXXXXXXXXXXXXX+XXXXXXXX*****XXXXXXXXX.",
".XXXXXXXXX****************XXXXXXXXXXXXXXXXXXXXXXXXXXXXXXXXXXXXX*****XXXXXXXXXX.",
".XXXXXXXXXX****************XXXXXXXXXXXXXXXXXXXXXXXXXXXXXXXXXXX*****XXXXXXXXXXX.",
".XXXXXXXXXXX****************XXXXXXXXXXXXXXXXXXXXXXXXXXXXXXXXXX*****XXXXXXXXXXX.",
".XXXXXXXXXXXX****************XXXXXXXXXXXXXXXXXXXXXXXXXXXXXXXX*****XXXXXXXXXXXX.",
".XXXXXXXXXXXX****************XXXXXXXXXXXXXXXXXXXXXXXXXXXXXXX*****XXXXXXXXXXXXX.",
".XXXXXXXXXXXXX****************XXXXXXXXXXXXXXXXXXXXXXXXXXXXX*****XXXXXXXXXXXXXX.",
".XXXXXXXXXXXXXX****************XXXXXXXXXXXXXXXXXXXXXXXXXXX*****XXXXXXXXXXXXXXX.",
".XXXXXXXXXXXXXXX****************XXXXXXXXXXXXXXXXXXXXXXXXXX*****XXXXXXXXXXXXXXX.",
".XXXXXXXXXXXXXXX****************XXXXXXXXXXXXXXXXXXXXXXXXX*****XXXXXXXXXXXXXXXX.",
".XXXXXXXXXXXXXXXX****************XXXXXXXXXXXXXXXXXXXXXXX*****XXXXXXXXXXXXXXXXX.",
".XXXXXXXXXXXXXXXXX****************XXXXXXXXXXXXXXXXXXXXX*****XXXXXXXXXXXXXXXXXX.",
".XXXXXXXXXXXXXXXXXX****************XXXXXXXXXXXXXXXXXXX*****XXXXXXXXXXXXXXXXXXX.",
".XXXXXXXXXXXXXXXXXX****************XXXXXXXXXXXXXXXXXX*****XXXXXXXXXXXXXXXXXXXX.",
".XXXXXXXXXXXXXXXXXXX****************XXXXXXXXXXXXXXXXX*****XXXXXXXXXXXXXXXXXXXX.",
".XXXXXXXXXXXXXXXXXXXX****************XXXXXXXXXXXXXXX*****XXXXXXXXXXXXXXXXXXXXX.",
".XXXXXXXXXXXXXXXXXXXXX****************XXXXXXXXXXXXX*****XXXXXXXXXXXXXXXXXXXXXX.",
".XXXXXXXXXXXXXXXXXXXXX****************XXXXXXXXXXXX*****XXXXXXXXXXXXXXXXXXXXXXX.",
".XXXXXXXXXXXXXXXXXXXXXX****************XXXXXXXXXX*****XXXXXXXXXXXXXXXXXXXXXXXX.",
".XXXXXXXXXXXXXXXXXXXXXXX****************XXXXXXXXX*****XXXXXXXXXXXXXXXXXXXXXXXX.",
".XXXXXXXXXXXXXXXXXXXXXXXX****************XXXXXXX*****XXXXXXXXXXXXXXXXXXXXXXXXX.",
".XXXXXXXXXXXXXXXXXXXXXXXX****************XXXXXX*****XXXXXXXXXXXXXXXXXXXXXXXXXX.",
".XXXXXXXXXXXXXXXXXXXXXXXXX****************XXXX*****XXXXXXXXXXXXXXXXXXXXXXXXXXX.",
".XXXXXXXXXXXXXXXXXXXXXXXXXX****************XX*****XXXXXXXXXXXXXXXXXXXXXXXXXXXX.",
".XXXXXXXXXXXXXXXXXXXXXXXXXXX***************XX*****XXXXXXXXXXXXXXXXXXXXXXXXXXXX.",
".XXXXXXXXXXXXXXXXXXXXXXXXXXX**************XX*****XXXXXXXXXXXXXXXXXXXXXXXXXXXXX.",
".XXXXXXXXXXXXXXXXXXXXXXXXXXXX************XX*****XXXXXXXXXXXXXXXXXXXXXXXXXXXXXX.",
".XXXXXXXXXXXXXXXXXXXXXXXXXXXXX**********XX*****XXXXXXXXXXXXXXXXXXXXXXXXXXXXXXX.",
".XXXXXXXXXXXXXXXXXXXXXXXXXXXXXX********XX******XXXXXXXXXXXXXXXXXXXXXXXXXXXXXXX.",
".XXXXXXXXXXXXXXXXXXXXXXXXXXXXXX*******XX*******XXXXXXXXXXXXXXXXXXXXXXXXXXXXXXX.",
".XXXXXXXXXXXXXXXXXXXXXXXXXXXXXXX******XX********XXXXXXXXXXXXXXXXXXXXXXXXXXXXXX.",
".XXXXXXXXXXXXXXXXXXXXXXXXXXXXXXX*****XX**********XXXXXXXXXXXXXXXXXXXXXXXXXXXXX.",
".XXXXXXXXXXXXXXXXXXXXXXXXXXXXXX*****XX************XXXXXXXXXXXXXXXXXXXXXXXXXXXX.",
".XXXXXXXXXXXXXXXXXXXXXXXXXXXXX*****XX*************XXXXXXXXXXXXXXXXXXXXXXXXXXXX.",
".XXXXXXXXXXXXXXXXXXXXXXXXXXXX*****XX***************XXXXXXXXXXXXXXXXXXXXXXXXXXX.",
".XXXXXXXXXXXXXXXXXXXXXXXXXXXX*****XX****************XXXXXXXXXXXXXXXXXXXXXXXXXX.",
".XXXXXXXXXXXXXXXXXXXXXXXXXXX*****XXXX****************XXXXXXXXXXXXXXXXXXXXXXXXX.",
".XXXXXXXXXXXXXXXXXXXXXXXXXX*****XXXXX****************XXXXXXXXXXXXXXXXXXXXXXXXX.",
".XXXXXXXXXXXXXXXXXXXXXXXXX*****XXXXXXX****************XXXXXXXXXXXXXXXXXXXXXXXX.",
".XXXXXXXXXXXXXXXXXXXXXXXX*****XXXXXXXXX****************XXXXXXXXXXXXXXXXXXXXXXX.",
".XXXXXXXXXXXXXXXXXXXXXXXX*****XXXXXXXXXX****************XXXXXXXXXXXXXXXXXXXXXX.",
".XXXXXXXXXXXXXXXXXXXXXXX*****XXXXXXXXXXX****************XXXXXXXXXXXXXXXXXXXXXX.",
".XXXXXXXXXXXXXXXXXXXXXX*****XXXXXXXXXXXXX****************XXXXXXXXXXXXXXXXXXXXX.",
".XXXXXXXXXXXXXXXXXXXXX*****XXXXXXXXXXXXXXX****************XXXXXXXXXXXXXXXXXXXX.",
".XXXXXXXXXXXXXXXXXXXX*****XXXXXXXXXXXXXXXXX****************XXXXXXXXXXXXXXXXXXX.",
".XXXXXXXXXXXXXXXXXXX*****XXXXXXXXXXXXXXXXXX****************XXXXXXXXXXXXXXXXXXX.",
".XXXXXXXXXXXXXXXXXXX*****XXXXXXXXXXXXXXXXXXX****************XXXXXXXXXXXXXXXXXX.",
".XXXXXXXXXXXXXXXXXX*****XXXXXXXXXXXXXXXXXXXXX****************XXXXXXXXXXXXXXXXX.",
".XXXXXXXXXXXXXXXXX*****XXXXXXXXXXXXXXXXXXXXXXX****************XXXXXXXXXXXXXXXX.",
".XXXXXXXXXXXXXXXX*****XXXXXXXXXXXXXXXXXXXXXXXX****************XXXXXXXXXXXXXXXX.",
".XXXXXXXXXXXXXXX*****XXXXXXXXXXXXXXXXXXXXXXXXXX****************XXXXXXXXXXXXXXX.",
".XXXXXXXXXXXXXXX*****XXXXXXXXXXXXXXXXXXXXXXXXXXX****************XXXXXXXXXXXXXX.",
".XXXXXXXXXXXXXX*****XXXXXXXXXXXXXXXXXXXXXXXXXXXXX****************XXXXXXXXXXXXX.",
".XXXXXXXXXXXXX*****XXXXXXXXXXXXXXXXXXXXXXXXXXXXXX****************XXXXXXXXXXXXX.",
".XXXXXXXXXXXX*****XXXXXXXXXXXXXXXXXXXXXXXXXXXXXXXX****************XXXXXXXXXXXX.",
".XXXXXXXXXXX*****XXXXXXXXXXXXXXXXXXXXXXXXXXXXXXXXXX****************XXXXXXXXXXX.",
".XXXXXXXXXXX*****XXXXXXXXXXXXXXXXXXXXXXXXXXXXXXXXXXX****************XXXXXXXXXX.",
".XXXXXXXXXX*****XXXXXXXXXXXXXXXXXXXXXXXXXXXXXXXXXXXX****************XXXXXXXXXX.",
".XXXXXXXXX*****XXXXXXXX+XXXXXXXXXXXXXXXXXXXXXXXXXXXXX**+*************X@XXXXXXX.",
".XXXXXXXX*****XXXXXXXX@O@XXXXXXXXXXXXXXXXXXXXXXXXXXXXX@O@************oOoXXXXXX.",
".XXXXXXX*****XXXXXXXX#OOO#XXXXXXXXXXXXXXXXXXXXXXXXXXX#OOO#**********#&O&#XXXXX.",
".XXXXXXXXXXXXXXXXXXXX$OOO$XXXXXXXXXXXXXXXXXXXXXXXXXXX$OOO$XXXXXXXXX#&OOO&#XXXX.",
".XXXXXXXXXXXXXXXXXXX%OOOOO%XXXXXXXXXXXXXXXXXXXXXXXXX%OOOOO%XXXXXXXo&OOOOO&oXXX.",
".XXXXXXXXXXXXXXXXXX+OOOOOOO+XXXXXXXXXXXXXXXXXXXXXXX+OOOOOOO+XXXXX@OOOOOOOOO@XX.",
".XXXXXXXXXXXXXXXXX+OOOOOOOOO+XXXXXXXXXXXXXXXXXXXXX+OOOOOOOOO+XXXXXo&OOOOO&oXXX.",
".XXXXXXXXXXXXXXXX%OOOOOOOOOOO%XXXXXXXXXXXXXXXXXXX%OOOOOOOOOOO%XXXXX#&OOO&#XXXX.",
".XXXXXXXXXXXXXX#$OOOOOOOOOOOOO$#XXXXXXXXXXXXXXX#$OOOOOOOOOOOOO$#XXXX#&O&#XXXXX.",
".XXXXXXXXXXXXX@OOOOOOOOOOOOOOOOO@XXXXXXXXXXXXX@OOOOOOOOOOOOOOOOO@XXXXoOoXXXXXX.",
".XXXXXXXXXXXX+OOOOOOOOOOOOOOOOOOO+XXXXXXXXXXX+OOOOOOOOOOOOOOOOOOO+XXXX@XXXXXXX.",
".XXXXXXXXXXXXX@OOOOOOOOOOOOOOOOO@XXXXXXXXXXXXX@OOOOOOOOOOOOOOOOO@XXXXXXXXXXXXX.",
".XXXXXXXXXXXXXX#$OOOOOOOOOOOOO$#XXXXXXXXXXXXXXX#$OOOOOOOOOOOOO$#XXXXXXXXXXXXXX.",
".XXXXXXXXXXXXXXXX%OOOOOOOOOOO%XXXXXXXXXXXXXXXXXXX%OOOOOOOOOOO%XXXXOOOOXXXXXXXX.",
".XXXXXXXXXXXXXXXXX+OOOOOOOOO+XXXXXXXXXXXXXXXXXXXXX+OOOOOOOOO+XXXXXOOOOXXXXXXXX.",
".XXXXXXXXXXXXXXXXXX+OOOOOOO+XXXXXXXXXXXXXXXXXXXXXXX+OOOOOOO+XXXXXXXOOXXXXXXXXX.",
".XXXXXXXXXXXXXXXXXXX%OOOOO%XXXXXXXXXXXXXXXXXXXXXXXXX%OOOOO%XXXXXXXOOOOOOOOOXXX.",
".XXXXXXXXXXXXXXXXXXXX$OOO$XXXXXXXXXXXXXXXXXXXXXXXXXXX$OOO$XXXXXXXXOOOOOOOOOXXX.",
".XXXXXXXXXXXXXXXXXXXX#OOO#XXXXXXXXXXXXXXXXXXXXXXXXXXX#OOO#XXXXXXXXXOOXXX+O+XXX.",
".XXXXXXXXXXXXXXXXXXXXX@O@XXXXXXXXXXXXXXXXXXXXXXXXXXXXX@O@XXXXXXXXXXOOXXXOOXXXX.",
".XXXXXXXXXXXXXXXXXXXXXX+XXXXXXXXXXXXXXXXXXXXXXXXXXXXXXX+XXXXXXXXXXXOOXX+O+XXXX.",
".XXXXXXXXXXXXXXXXXXXXXXXXXXXXXXXXXXXXXXXXXXXXXXXXXXXXXXXXXXXXXXXXXXOOXXOOXXXXX.",
".XXXXXXXXXXXXXXXXXXXXXXXXXXXXXXXXXXXXXXXXXXXXXXXXXXXXXXXXXXXXXXXXXXOOX+O+XXXXX.",
".XXXXXXXXXXXXXXXXXXXXXXXXXXXXXXXXXXXXXXXXXXXXXXXXXXXXXXXXXXXXXXXXXXOOXOOXXXXXX.",
".XXXXXXXXXXXXXXXXXXXXXXXXXXXXXXXXXXXXXXXXXXXXXXXXXXXXXXXXXXXXXXXXXXOOOO+XXXXXX.",
".XXXXXXXXXXXXXXXXXXXXXXXXXXXXXXXXXXXXXXXXXXXXXXXXXXXXXXXXXXXXXXXXXXOOOOXXXXXXX.",
" .XXXXXXXXXXXXXXXXXXXXXXXXXXXXXXXXXXXXXXXXXXXXXXXXXXXXXXXXXXXXXXXXXOOOoXXXXXX. ",
" .XXXXXXXXXXXXXXXXXXXXXXXXXXXXXXXXXXXXXXXXXXXXXXXXXXXXXXXXXXXXXXXXXXXXXXXXXXX. ",
"  .XXXXXXXXXXXXXXXXXXXXXXXXXXXXXXXXXXXXXXXXXXXXXXXXXXXXXXXXXXXXXXXXXXXXXXXXX.  ",
"  .XXXXXXXXXXXXXXXXXXXXXXXXXXXXXXXXXXXXXXXXXXXXXXXXXXXXXXXXXXXXXXXXXXXXXXXXX.  ",
"   ..XXXXXXXXXXXXXXXXXXXXXXXXXXXXXXXXXXXXXXXXXXXXXXXXXXXXXXXXXXXXXXXXXXXXX..   ",
"     ..XXXXXXXXXXXXXXXXXXXXXXXXXXXXXXXXXXXXXXXXXXXXXXXXXXXXXXXXXXXXXXXXX..     ",
"       .................................................................       "};
