/* XPM */
static char * Jack_Spades_xpm[] = {
"79 123 14 1",
" 	c None",
".	c #000000000000",
"X	c #FFFFFFFFFFFF",
"o	c #FFFFD75C0000",
"O	c #38E33CF338E3",
"+	c #BEFBBEFBBEFB",
"@	c #DF7DDF7DDF7D",
"#	c #F7DEE38DD75C",
"$	c #59655D755965",
"%	c #79E77DF779E7",
"&	c #18611C711861",
"*	c #9E799E799E79",
"=	c #30C2A289C71B",
"-	c #FFFF00000000",
"       .................................................................       ",
"     ..XXXXXXXXXXXXXXXXXXXXXXXXXXXXXXXXXXXXXXXXXXXXXXXXXXXXXXXXXXXXXXXXX..     ",
"   ..XXXXXXXXXXXXXXXXXXXXXXXXXXXXXXXXXXXXXXXXXXXXXXXXXXXXXXXXXXXXXXXXXXXXX..   ",
"  .XXXXXXXXXXXXXXXXXXXXXXXXXXXXXXXXXXXXXXXXXXXXXXXXXXXXXXXXXXXXXXXXXXXXXXXXX.  ",
"  .XXXXXXXXXXXXXXXXXXXXXXXXXXXXXXXXXXXXXXXXXXXXXXXXXXXXXXXXXXXXXXXXXXXXXXXXX.  ",
" .XXXXXXXXXXXXXXXXXXXXXXXXXXXXXXXXXXXXXXXXXXXXXXXXXXXXXXXXXXXXXXXXXXXXXXXXXXX. ",
" .XXXXXXX....XXXXXXXXXXXXXXXXXXXXXXXXXXXXXXXXXXXXXXXXXXXXXXXXXXXXXXXXXXXXXXXX. ",
".XXXXXXXX....XXXXXXXXXXXXXXXXXXXXXXXXXXXXXXXXXXXXXXXXXXXXXXXXXXXXXXXXXXXXXXXXX.",
".XXXXXXXXX..XXXXXXXXXXXXXXXXXXXXXXXXXXXXXXXXXXXXXXXXXXXXXXXXXXXXXXXXXXXXXXXXXX.",
".XXXXXXXXX..XXXXXXXXXXXXXXXXXXXXXXXXXXXXXXXXXXXXXXXXXXXXXXXXXXXXXXXXXXXXXXXXXX.",
".XXXXXXXXX..XXXXXXXXXXXXXXXXXXXXXXXXXXXXXXXXXXXXXXXXXXXXXXXXXXXXXXXXXXXXXXXXXX.",
".XXXXXXXXX..XXXXXXXXXXXXXXXXXXXXXXXXXXXXXXXXXXXXXXXXXXXXXXXXXXXXXXXXXXXXXXXXXX.",
".XXXXXXXXX..XXXXXXXXXXXXXXXXXXXXXXXXXXXXXXXXXXXXXXXXXXXXXXXXXXXXXXXXXXXXXXXXXX.",
".XXXXXXXXX..XXXXXXXXXXXXXXXXXXXXXXXXXXXXXXXXXXXXXXXXXXXXXXXXXXXXXXXXXXXXXXXXXX.",
".XXXXXXXXX..XXXXXXXXXXXXXXXXXXXXXXXXXXXXXXXXXXXXXXXXXXXXXXXXXXXXXXXXXXXXXXXXXX.",
".XXX..XXXX..XXX.................................................XXXXXXXXXXXXXX.",
".XXX..XXXX..XXX.XXX...o.o.o...o.o...o...o.o.o...XXXXXXXXXXXXXXX.XXXXXXXXXXXXXX.",
".XXX..OXXO..XXX.XXXX...o.o.o...o...o.o...o.o...XXXXXXXXXXXXXXXX.XXXXXXXXXXXXXX.",
".XXX+......+XXX.XX.XX...o.o...o.o...o...o.o...XXXXXXXXXXXXXXXXX.XXXXXXXXXXXXXX.",
".XXXX+....+XXXX.X.o.XX...o.o...o...o.o...o...XXXXXXXXXXXXXXXXXX.XXXXXXXXXXXXXX.",
".XXXXXXXXXXXXXX.X...XXX.....................XXXXXXXXXXXXXXXXXXX.XXXXXXXXXXXXXX.",
".XXXXXXXXXXXXXX.X...XXXX....................XXXXXXXXXXXXXXXXXXX.XXXXXXXXXXXXXX.",
".XXXXXXX@XXXXXX.X.o.XXXX.##########.o.o.o.o.XXXXXXXXXXXXXXXXXXX.XXXXXXXXXXXXXX.",
".XXXXXXX$XXXXXX.X.o.XXXX.###....###.o.o.o.o.XXXXXXXXXXXXXXXXXXX.XXXXXXXXXXXXXX.",
".XXXXXX%.%XXXXX.X...XXXX.##.####..#.o.o.o.o.XXXXXXXXXXXXXXXXXXX.XXXXXXXXXXXXXX.",
".XXXXX%...%XXXX.X...XXXX.##....####.o.o.o.o.XXXXXXXXXXXXXXXXXXX.XXXXXXXXXXXXXX.",
".XXXX%.....%XXX.X.o.XXXX.###..#.###.o.o.o.o.XXXXXXXXXXXXXXXXXXX.XXXXXXXXXXXXXX.",
".XXX$.......$XX.X...XXXX.##....####.o.o.o.o.XXXXXXXXXXXXXXXXXXX.XXXXXXXXXXXXXX.",
".XXX....&....XX.X.o.XXX.###########.o.o.o.o.XXXXXXXXXXXXXXXXXXX.XXXXXXXXXXXXXX.",
".XXXO..*%*..OXX..o.o.XX...#########.o.o.o.o.XXXXXXXXXXXXXXXXXXX.XXXXXXXXXXXXXX.",
".XXXX*+X&X+*XXX.X.o.XXXX.##..##.###.o.o.o.o.XXXXXXXXXXXXXXXXXXX.XXXXXXXXXXXXXX.",
".XXXXXX@.@XXXXX.X...XXXX.####.##.##.o.o.o.o.XXXXXXXXXXXXXXXXXXX.XXXXXXXXXXXXXX.",
".XXXXXX+%+XXXXX.X.o.XXXX.....#..###.o.o.o.o.XXXXXXXXXXXXXXXXXXX.XXXXXXXXXXXXXX.",
".XXXXXXXXXXXXXX.X...XXXXX...#######.o.o.o.o.XXXXXXXXXXXXXXXXXXX.XXXXXXXXXXXXXX.",
".XXXXXXXXXXXXXX.X...XXXXX.#########.o...o...XXXXXXXXXXXXXXXXXXX.XXXXXXXXXXXXXX.",
".XXXXXXXXXXXXXX.X.o.XXXXX.########....o...o...XXXXXXXXXXXXXXXXX.XXXXXXXXXXXXXX.",
".XXXXXXXXXXXXXX.X.o.XXXXX..#####..o.o...o...o.XXXXXXXXXXXXXXXXX.XXXXXXXXXXXXXX.",
".XXXXXXXXXXXXXX.X...XXXXXX............X...X...XXXXXXXXXXXXXXXXX.XXXXXXXXXXXXXX.",
".XXXXXXXXXXXXXX.X....XX...XXXXXXXXXXXXXXXXX......XXXXXXXXXXXXXX.XXXXXXXXXXXXXX.",
".XXXXXXXXXXXXXX..###..X..X..X..X..X..X..X..ooooo...XXXXXXXXXXXX.XXXXXXXXXXXXXX.",
".XXXXXXXXXXXXXX.#......XX.XXXXXXXXXXXXXXXX.o...o.==..XXXXXXXXXX.XXXXXXXXXXXXXX.",
".XXXXXXXXXXXXXX..##..-.....................o...o.=..=...XXXXXXX.XXXXXXXXXXXXXX.",
".XXXXXXXXXXXXXX.#...--..==.X..X...X...X....oo.oo...==..=.XXXXXX.XXXXXXXXXXXXXX.",
".XXXXXXXXXXXXXX..#.-.-.=.==.....X...X...X..ooooo..==..==...XXXX.XXXXXXXXXXXXXX.",
".XXXXXXXXXXXXXX.#.--..======..X...X........o...o.==..==..==.XXX.XXXXXXXXXXXXXX.",
".XXXXXXXXXXXXXX..--...===.............=....o...o.=..==..==....X.XXXXXXXXXXXXXX.",
".XXXXXXXXXXXXXX..-..==.==..==.=====.=.=.==.oo.oo...==..==..==...XXXXXXXXXXXXXX.",
".XXXXXXXXXXXXXX.-..==...=.=.==.==.==...==..ooooo.===..==......=.XXXXXXXXXXXXXX.",
".XXXXXXXXXXXXXX...==..=..===....==..=.=..=.o...o.=...=....--.==.XXXXXXXXXXXXXX.",
".XXXXXXXXXXXXXX.===..==..===..=..===...===.o...o...=..-.--..-.=.XXXXXXXXXXXXXX.",
".XXXXXXXXXXXXXX.....=...=.==.=....=..=..==.oo.oo.==.---..----.=.XXXXXXXXXXXXXX.",
".XXXXXXXXXXXXXX.=====.=.=..=....==.=======.ooooo...--.--..--..=.XXXXXXXXXXXXXX.",
".XXXXXXXXXXXXXX.==.....==.....--.==..............--.---..-..-.=.XXXXXXXXXXXXXX.",
".XXXXXXXXXXXXXX.=..==.===...--.--.=..X.X.X.X.X..-.---.--.----.=.XXXXXXXXXXXXXX.",
".XXXXXXXXXXXXXX.=.==.==...--.--.-...X.X.X.X.X...---.---...--..=.XXXXXXXXXXXXXX.",
".XXXXXXXXXXXXXX...=.==..--.--.-...-..X...X...X.--.---.--.-..-.=.XXXXXXXXXXXXXX.",
".XXXXXXXXXXXXXX....==..-.--.--..---.X...X...X.-.---..--..----.=.XXXXXXXXXXXXXX.",
".XXXXXXXXXXXXXX.====...--.--..---.-..X.X.X.X..---.--..-.-.--....XXXXXXXXXXXXXX.",
".XXXXXXXXXXXXXX.......-.--..---.---.X.X.X.X..--.--...--.--....=.XXXXXXXXXXXXXX.",
".XXXXXXXXXXXXXX.===...--.-.--.---.-.........-.----.--.-..---..=.XXXXXXXXXXXXXX.",
".XXXXXXXXXXXXXX.==..--.--.-..-...--..XX.XX..----...-.-.--.-...=.XXXXXXXXXXXXXX.",
".XXXXXXXXXXXXXX.................................................XXXXXXXXXXXXXX.",
".XXXXXXXXXXXXXX.=...-.--.-.-...----..XX.XX..--...-..-.--.--..==.XXXXXXXXXXXXXX.",
".XXXXXXXXXXXXXX.=..---..-.--.----.-.........-.---.--.-.--...===.XXXXXXXXXXXXXX.",
".XXXXXXXXXXXXXX.=....--.--...--.--..X.X.X.X.---.---..--.-.......XXXXXXXXXXXXXX.",
".XXXXXXXXXXXXXX....--.-.-..--.---..X.X.X.X..-.---..--.--...====.XXXXXXXXXXXXXX.",
".XXXXXXXXXXXXXX.=.----..--..---.-.X...X...X.---..--.--.-..==....XXXXXXXXXXXXXX.",
".XXXXXXXXXXXXXX.=.-..-.--.---.--.X...X...X..-...-.--.--..==.=...XXXXXXXXXXXXXX.",
".XXXXXXXXXXXXXX.=..--...---.---...X.X.X.X.X...-.--.--...==.==.=.XXXXXXXXXXXXXX.",
".XXXXXXXXXXXXXX.=.----.--.---.-..X.X.X.X.X..=.--.--...===.==..=.XXXXXXXXXXXXXX.",
".XXXXXXXXXXXXXX.=.-..-..---.--..............==.--.....==.....==.XXXXXXXXXXXXXX.",
".XXXXXXXXXXXXXX.=..--..--.--...ooooo.=======.==....=..=.=.=====.XXXXXXXXXXXXXX.",
".XXXXXXXXXXXXXX.=.----..---.==.oo.oo.==..=..=....=.==.=...=.....XXXXXXXXXXXXXX.",
".XXXXXXXXXXXXXX.=.-..--.-..=...o...o.===...===..=..===..==..===.XXXXXXXXXXXXXX.",
".XXXXXXXXXXXXXX.==.--....=...=.o...o.=..=.=..==....===..=..==...XXXXXXXXXXXXXX.",
".XXXXXXXXXXXXXX.=......==..===.ooooo..==...==.==.==.=.=...==..-.XXXXXXXXXXXXXX.",
".XXXXXXXXXXXXXX...==..==..==...oo.oo.==.=.=.=====.==..==.==..-..XXXXXXXXXXXXXX.",
".XXXXXXXXXXXXXX.X....==..==..=.o...o....=.............===...--..XXXXXXXXXXXXXX.",
".XXXXXXXXXXXXXX.XXX.==..==..==.o...o........X...X..======..--.#.XXXXXXXXXXXXXX.",
".XXXXXXXXXXXXXX.XXXX...==..==..ooooo..X...X...X.....==.=.-.-.#..XXXXXXXXXXXXXX.",
".XXXXXXXXXXXXXX.XXXXXX.=..==...oo.oo....X...X...X..X.==..--...#.XXXXXXXXXXXXXX.",
".XXXXXXXXXXXXXX.XXXXXXX...=..=.o...o.....................-..##..XXXXXXXXXXXXXX.",
".XXXXXXXXXXXXXX.XXXXXXXXXX..==.o...o.XXXXXXXXXXXXXXXX.XX......#.XXXXXXXXXXXXXX.",
".XXXXXXXXXXXXXX.XXXXXXXXXXXX...ooooo..X..X..X..X..X..X..X..###..XXXXXXXXXXXXXX.",
".XXXXXXXXXXXXXX.XXXXXXXXXXXXXX......XXXXXXXXXXXXXXXXX...XX....X.XXXXXXXXXXXXXX.",
".XXXXXXXXXXXXXX.XXXXXXXXXXXXXXXXX...X...X............XXXXXX...X.XXXXXXXXXXXXXX.",
".XXXXXXXXXXXXXX.XXXXXXXXXXXXXXXXX.o...o...o.o..#####..XXXXX.o.X.XXXXXXXXXXXXXX.",
".XXXXXXXXXXXXXX.XXXXXXXXXXXXXXXXX...o...o....########.XXXXX.o.X.XXXXXXXXXXXXXX.",
".XXXXXXXXXXXXXX.XXXXXXXXXXXXXXXXXXX...o...o.#########.XXXXX...X.XXXXXXXXXXXXXX.",
".XXXXXXXXXXXXXX.XXXXXXXXXXXXXXXXXXX.o.o.o.o.#######...XXXXX...X.XXXXXXXXXXXXXX.",
".XXXXXXXXXXXXXX.XXXXXXXXXXXXXXXXXXX.o.o.o.o.###..#.....XXXX.o.X.XXXXX+%+XXXXXX.",
".XXXXXXXXXXXXXX.XXXXXXXXXXXXXXXXXXX.o.o.o.o.##.##.####.XXXX...X.XXXXX@.@XXXXXX.",
".XXXXXXXXXXXXXX.XXXXXXXXXXXXXXXXXXX.o.o.o.o.###.##..##.XXXX.o.X.XXX*+X&X+*XXXX.",
".XXXXXXXXXXXXXX.XXXXXXXXXXXXXXXXXXX.o.o.o.o.#########...XX.o.o..XXO..*%*..OXXX.",
".XXXXXXXXXXXXXX.XXXXXXXXXXXXXXXXXXX.o.o.o.o.###########.XXX.o.X.XX....&....XXX.",
".XXXXXXXXXXXXXX.XXXXXXXXXXXXXXXXXXX.o.o.o.o.####....##.XXXX...X.XX$.......$XXX.",
".XXXXXXXXXXXXXX.XXXXXXXXXXXXXXXXXXX.o.o.o.o.###.#..###.XXXX.o.X.XXX%.....%XXXX.",
".XXXXXXXXXXXXXX.XXXXXXXXXXXXXXXXXXX.o.o.o.o.####....##.XXXX...X.XXXX%...%XXXXX.",
".XXXXXXXXXXXXXX.XXXXXXXXXXXXXXXXXXX.o.o.o.o.#..####.##.XXXX...X.XXXXX%.%XXXXXX.",
".XXXXXXXXXXXXXX.XXXXXXXXXXXXXXXXXXX.o.o.o.o.###....###.XXXX.o.X.XXXXXX$XXXXXXX.",
".XXXXXXXXXXXXXX.XXXXXXXXXXXXXXXXXXX.o.o.o.o.##########.XXXX.o.X.XXXXXX@XXXXXXX.",
".XXXXXXXXXXXXXX.XXXXXXXXXXXXXXXXXXX....................XXXX...X.XXXXXXXXXXXXXX.",
".XXXXXXXXXXXXXX.XXXXXXXXXXXXXXXXXXX.....................XXX...X.XXXXXXXXXXXXXX.",
".XXXXXXXXXXXXXX.XXXXXXXXXXXXXXXXXX...o...o.o...o...o.o...XX.o.X.XXXX+....+XXXX.",
".XXXXXXXXXXXXXX.XXXXXXXXXXXXXXXXX...o.o...o...o.o...o.o...XX.XX.XXX+......+XXX.",
".XXXXXXXXXXXXXX.XXXXXXXXXXXXXXXX...o.o...o.o...o...o.o.o...XXXX.XXX..OXXO..XXX.",
".XXXXXXXXXXXXXX.XXXXXXXXXXXXXXX...o.o.o...o...o.o...o.o.o...XXX.XXX..XXXX..XXX.",
".XXXXXXXXXXXXXX.................................................XXX..XXXX..XXX.",
".XXXXXXXXXXXXXXXXXXXXXXXXXXXXXXXXXXXXXXXXXXXXXXXXXXXXXXXXXXXXXXXXXX..XXXXXXXXX.",
".XXXXXXXXXXXXXXXXXXXXXXXXXXXXXXXXXXXXXXXXXXXXXXXXXXXXXXXXXXXXXXXXXX..XXXXXXXXX.",
".XXXXXXXXXXXXXXXXXXXXXXXXXXXXXXXXXXXXXXXXXXXXXXXXXXXXXXXXXXXXXXXXXX..XXXXXXXXX.",
".XXXXXXXXXXXXXXXXXXXXXXXXXXXXXXXXXXXXXXXXXXXXXXXXXXXXXXXXXXXXXXXXXX..XXXXXXXXX.",
".XXXXXXXXXXXXXXXXXXXXXXXXXXXXXXXXXXXXXXXXXXXXXXXXXXXXXXXXXXXXXXXXXX..XXXXXXXXX.",
".XXXXXXXXXXXXXXXXXXXXXXXXXXXXXXXXXXXXXXXXXXXXXXXXXXXXXXXXXXXXXXXXXX..XXXXXXXXX.",
".XXXXXXXXXXXXXXXXXXXXXXXXXXXXXXXXXXXXXXXXXXXXXXXXXXXXXXXXXXXXXXXXXX..XXXXXXXXX.",
".XXXXXXXXXXXXXXXXXXXXXXXXXXXXXXXXXXXXXXXXXXXXXXXXXXXXXXXXXXXXXXXXX....XXXXXXXX.",
" .XXXXXXXXXXXXXXXXXXXXXXXXXXXXXXXXXXXXXXXXXXXXXXXXXXXXXXXXXXXXXXXX....XXXXXXX. ",
" .XXXXXXXXXXXXXXXXXXXXXXXXXXXXXXXXXXXXXXXXXXXXXXXXXXXXXXXXXXXXXXXXXXXXXXXXXXX. ",
"  .XXXXXXXXXXXXXXXXXXXXXXXXXXXXXXXXXXXXXXXXXXXXXXXXXXXXXXXXXXXXXXXXXXXXXXXXX.  ",
"  .XXXXXXXXXXXXXXXXXXXXXXXXXXXXXXXXXXXXXXXXXXXXXXXXXXXXXXXXXXXXXXXXXXXXXXXXX.  ",
"   ..XXXXXXXXXXXXXXXXXXXXXXXXXXXXXXXXXXXXXXXXXXXXXXXXXXXXXXXXXXXXXXXXXXXXX..   ",
"     ..XXXXXXXXXXXXXXXXXXXXXXXXXXXXXXXXXXXXXXXXXXXXXXXXXXXXXXXXXXXXXXXXX..     ",
"       .................................................................       "};
