/* XPM */
static char * Jack_Hearts_xpm[] = {
"79 123 16 1",
" 	c None",
".	c #000000000000",
"X	c #FFFFFFFFFFFF",
"o	c #CF3C00000000",
"O	c #FFFFD75C0000",
"+	c #DF7D3CF338E3",
"@	c #F7DEBEFBBEFB",
"#	c #2081410330C2",
"$	c #F7DEE38DD75C",
"%	c #DF7D5D755965",
"&	c #D75C1C711861",
"*	c #E79D7DF779E7",
"=	c #EFBE9E799E79",
"-	c #BEFBBAEABEFB",
";	c #FFFF00000000",
":	c #30C2A289C71B",
"       .................................................................       ",
"     ..XXXXXXXXXXXXXXXXXXXXXXXXXXXXXXXXXXXXXXXXXXXXXXXXXXXXXXXXXXXXXXXXX..     ",
"   ..XXXXXXXXXXXXXXXXXXXXXXXXXXXXXXXXXXXXXXXXXXXXXXXXXXXXXXXXXXXXXXXXXXXXX..   ",
"  .XXXXXXXXXXXXXXXXXXXXXXXXXXXXXXXXXXXXXXXXXXXXXXXXXXXXXXXXXXXXXXXXXXXXXXXXX.  ",
"  .XXXXXXXXXXXXXXXXXXXXXXXXXXXXXXXXXXXXXXXXXXXXXXXXXXXXXXXXXXXXXXXXXXXXXXXXX.  ",
" .XXXXXXXXXXXXXXXXXXXXXXXXXXXXXXXXXXXXXXXXXXXXXXXXXXXXXXXXXXXXXXXXXXXXXXXXXXX. ",
" .XXXXXXXooooXXXXXXXXXXXXXXXXXXXXXXXXXXXXXXXXXXXXXXXXXXXXXXXXXXXXXXXXXXXXXXXX. ",
".XXXXXXXXooooXXXXXXXXXXXXXXXXXXXXXXXXXXXXXXXXXXXXXXXXXXXXXXXXXXXXXXXXXXXXXXXXX.",
".XXXXXXXXXooXXXXXXXXXXXXXXXXXXXXXXXXXXXXXXXXXXXXXXXXXXXXXXXXXXXXXXXXXXXXXXXXXX.",
".XXXXXXXXXooXXXXXXXXXXXXXXXXXXXXXXXXXXXXXXXXXXXXXXXXXXXXXXXXXXXXXXXXXXXXXXXXXX.",
".XXXXXXXXXooXXXXXXXXXXXXXXXXXXXXXXXXXXXXXXXXXXXXXXXXXXXXXXXXXXXXXXXXXXXXXXXXXX.",
".XXXXXXXXXooXXXXXXXXXXXXXXXXXXXXXXXXXXXXXXXXXXXXXXXXXXXXXXXXXXXXXXXXXXXXXXXXXX.",
".XXXXXXXXXooXXXXXXXXXXXXXXXXXXXXXXXXXXXXXXXXXXXXXXXXXXXXXXXXXXXXXXXXXXXXXXXXXX.",
".XXXXXXXXXooXXXXXXXXXXXXXXXXXXXXXXXXXXXXXXXXXXXXXXXXXXXXXXXXXXXXXXXXXXXXXXXXXX.",
".XXXXXXXXXooXXXXXXXXXXXXXXXXXXXXXXXXXXXXXXXXXXXXXXXXXXXXXXXXXXXXXXXXXXXXXXXXXX.",
".XXXooXXXXooXXX.................................................XXXXXXXXXXXXXX.",
".XXXooXXXXooXXX.XXXXX..OO.O.OO..OO.OO..OO.O.OO..XXXXXXXXXXXXXXX.XXXXXXXXXXXXXX.",
".XXXoo+XX+ooXXX.XXXXXX..OO.O.O..O.O.O..O.O.OO..XXXXXXXXXXXXXXXX.XXXXXXXXXXXXXX.",
".XXX@oooooo@XXX..XXXXXX..OO.OO..OO.OO..OO.OO..XXXXXXXXXXXXXXXXX.XXXXXXXXXXXXXX.",
".XXXX@oooo@XXXX...XXXXXX..OO.O..O.O.O..O.OO..XXXXXXXXXXXXXXXXXX.XXXXXXXXXXXXXX.",
".XXXXXXXXXXXXXX....X.XXXX..OOO..OOOOO..OOO..XXXXXXXXXXXXXXXXXXX.XXXXXXXXXXXXXX.",
".XXXXXXXXXXXXXX....X..XXXX..................XXXXXXXXXXXXXXXXXXX.XXXXXXXXXXXXXX.",
".XXXXXXXXXXXXXX....X.O.XXXX.................XXXXXXXXXXXXXXXXXXX.XXXXXXXXXXXXXX.",
".XXXXXXXXXXXXXX....X.OO.XXXX.#.#.#.$$$$$$$$.XXXXXXXXXXXXXXXXXXX.XXXXXXXXXXXXXX.",
".XXXX%&*X*&%XXX....X..OO.XXX.#.#.#.$$....$.XXXXXXXXXXXXXXXXXXXX.XXXXXXXXXXXXXX.",
".XXX*ooo&ooo*XX.......OO.XXX.#.#.#.$$$..$$.XXXXXXXXXXXXXXXXXXXX.XXXXXXXXXXXXXX.",
".XXX+ooooooo+XX.O.O.O..O.XXX.#.#.#.$$.$.$$.XXXXXXXXXXXXXXXXXXXX.XXXXXXXXXXXXXX.",
".XXX=ooooooo=XX.O.O.O.O..XXX.#.#.#.$$$...$$.XXXXXXXXXXXXXXXXXXX.XXXXXXXXXXXXXX.",
".XXXX*ooooo*XXX.O.O.O..O.XX.#.#.#.$$$$$$$$$.XXXXXXXXXXXXXXXXXXX.XXXXXXXXXXXXXX.",
".XXXXX%ooo%XXXX.......OO.XX.#.#.#.$$..$$$$$$.XXXXXXXXXXXXXXXXXX.XXXXXXXXXXXXXX.",
".XXXXXX&o&XXXXX....X.OO.XXX.#.#.#.$$.$$$..$..XXXXXXXXXXXXXXXXXX.XXXXXXXXXXXXXX.",
".XXXXXX@o@XXXXX....X.O.XX..#.#.#.$$$$...$$.XXXXXXXXXXXXXXXXXXXX.XXXXXXXXXXXXXX.",
".XXXXXXX@XXXXXX....X..XX.##..#.#.$$$$$$$$$.XXXXXXXXXXXXX.XX.XXX.XXXXXXXXXXXXXX.",
".XXXXXXXXXXXXXX....X.XX.#..#.#.#.$$$$$$....XXXXXXXXXXXXX....XXX.XXXXXXXXXXXXXX.",
".XXXXXXXXXXXXXX....XXXX.#.#..#.#...$$$$$$...XXXXXX.XXXXXX..XXXX.XXXXXXXXXXXXXX.",
".XXXXXXXXXXXXXX....XXXXX...##.#.#.#..$$$$$$.XXXX.XX.XXXX.-..XXX.XXXXXXXXXXXXXX.",
".XXXXXXXXXXXXXX....XXX..X........X.X...$$$.$.XXXX..-......-.XXX.XXXXXXXXXXXXXX.",
".XXXXXXXXXXXXXX....X..........................XXXXX.XXX.-..XXXX.XXXXXXXXXXXXXX.",
".XXXXXXXXXXXXXX............;;;;;;;;;;;;;;;;;;;..XX.XXXX..XXXXXX.XXXXXXXXXXXXXX.",
".XXXXXXXXXXXXXX.........;...;;;.;;.;;;.;.;;;.;;..XXXXX.XX.XXXXX.XXXXXXXXXXXXXX.",
".XXXXXXXXXXXXXX.........;.;..;;;...............;;..XX.X.X...XXX.XXXXXXXXXXXXXX.",
".XXXXXXXXXXXXXX......:..;;;...;;;;;;;;;.;;;;;;;;;;...XX.X.-..XX.XXXXXXXXXXXXXX.",
".XXXXXXXXXXXXXX.....:.:..;;;...;;..............;;..;...-...-.XX.XXXXXXXXXXXXXX.",
".XXXXXXXXXXXXXX...::.:...;;;.;..;;.XXX.XX.XXX.;;..;X....-.-.XXX.XXXXXXXXXXXXXX.",
".XXXXXXXXXXXXXX..:..:...;;.;;;...;;.XXX..XXX.;;..;;;.;.:...XXXX.XXXXXXXXXXXXXX.",
".XXXXXXXXXXXXXX.:..:....;;;..;;;;.;;.X.XX.X.;;..;;.;;;..:..XXXX.XXXXXXXXXXXXXX.",
".XXXXXXXXXXXXXX...:.....;;;;;.;;...;.XX..XX.;...;.;;.;.:.....XX.XXXXXXXXXXXXXX.",
".XXXXXXXXXXXXXX..:......;;;;;;;;;...;.X..X.;...;;;.;.;..:.:.....XXXXXXXXXXXXXX.",
".XXXXXXXXXXXXXX.:.......;;;;;;;;;;..;.XXXX.;...;;;;.;;.:..:.X...XXXXXXXXXXXXXX.",
".XXXXXXXXXXXXXX.........;..;.;;.;....;.XX.;...;;;;;;.;..:.:.X...XXXXXXXXXXXXXX.",
".XXXXXXXXXXXXXX............;;;;;.;;..;.XX.;...;;;;;....:..:..X..XXXXXXXXXXXXXX.",
".XXXXXXXXXXXXXX..........X.X;;;;.X;...;;;;...X;;;;;..X..::::..X.XXXXXXXXXXXXXX.",
".XXXXXXXXXXXXXX.........:.:.;;;;;......;;....;;.;;.;...:..:.X...XXXXXXXXXXXXXX.",
".XXXXXXXXXXXXXX........:.:.:.;;X.......;;...;;;;;;;;....:.:..X..XXXXXXXXXXXXXX.",
".XXXXXXXXXXXXXX.......:.:.:;;;;;;......;;..;;;.;.;;....:...X..X.XXXXXXXXXXXXXX.",
".XXXXXXXXXXXXXX......:.:.:;;;;;;;;.....;;..;;;;;;;;;.:..:...X...XXXXXXXXXXXXXX.",
".XXXXXXXXXXXXXX.....:.:.;;;;XX;;;......;;..;;;;;;;;;;.:..:...X..XXXXXXXXXXXXXX.",
".XXXXXXXXXXXXXX.X..:.:.:;;;.;.;;.;.....;;..;;;;;;.;;;..:..:...X.XXXXXXXXXXXXXX.",
".XXXXXXXXXXXXXX..X..:.:.X;X;;;;...;........;;;;.;;;;;;..:..:....XXXXXXXXXXXXXX.",
".XXXXXXXXXXXXXX.X.X..:..X;X;;;;;;;.X;.....;;.;;;.;;;;;...:..:.X.XXXXXXXXXXXXXX.",
".XXXXXXXXXXXXXX;.X..:...;;X.X;;;X;;X;;;....;;;;;;;;;;;;....X.:..XXXXXXXXXXXXXX.",
".XXXXXXXXXXXXXX.................................................XXXXXXXXXXXXXX.",
".XXXXXXXXXXXXXX..:.X....;;;;;;;;;;;;....;;;X;;X;;;X.X;;...:..X.;XXXXXXXXXXXXXX.",
".XXXXXXXXXXXXXX.X.:..:...;;;;;.;;;.;;.....;X.;;;;;;;X;X..:..X.X.XXXXXXXXXXXXXX.",
".XXXXXXXXXXXXXX....:..:..;;;;;;.;;;;........;...;;;;X;X.:.:..X..XXXXXXXXXXXXXX.",
".XXXXXXXXXXXXXX.X...:..:..;;;.;;;;;;..;;.....;.;;.;.;;;:.:.:..X.XXXXXXXXXXXXXX.",
".XXXXXXXXXXXXXX..X...:..:.;;;;;;;;;;..;;......;;;XX;;;;.:.:.....XXXXXXXXXXXXXX.",
".XXXXXXXXXXXXXX...X...:..:.;;;;;;;;;..;;.....;;;;;;;;:.:.:......XXXXXXXXXXXXXX.",
".XXXXXXXXXXXXXX.X..X...:....;;.;.;;;..;;......;;;;;;:.:.:.......XXXXXXXXXXXXXX.",
".XXXXXXXXXXXXXX..X..:.:....;;;;;;;;...;;.......X;;.:.:.:........XXXXXXXXXXXXXX.",
".XXXXXXXXXXXXXX...X.:..:...;.;;.;;....;;......;;;;;.:.:.........XXXXXXXXXXXXXX.",
".XXXXXXXXXXXXXX.X..::::..X..;;;;;X...;;;;...;X.;;;;X.X..........XXXXXXXXXXXXXX.",
".XXXXXXXXXXXXXX..X..:..:....;;;;;...;.XX.;..;;.;;;;;............XXXXXXXXXXXXXX.",
".XXXXXXXXXXXXXX...X.:.:..;.;;;;;;...;.XX.;....;.;;.;..;.........XXXXXXXXXXXXXX.",
".XXXXXXXXXXXXXX...X.:..:.;;.;;;;...;.XXXX.;..;;;;;;;;;;.......:.XXXXXXXXXXXXXX.",
".XXXXXXXXXXXXXX.....:.:..;.;.;;;...;.X..X.;...;;;;;;;;;......:..XXXXXXXXXXXXXX.",
".XXXXXXXXXXXXXX.XX.....:.;.;;.;...;.XX..XX.;...;;.;;;;;.....:...XXXXXXXXXXXXXX.",
".XXXXXXXXXXXXXX.XXXX..:..;;;.;;..;;.X.XX.X.;;.;;;;..;;;....:..:.XXXXXXXXXXXXXX.",
".XXXXXXXXXXXXXX.XXXX...:.;.;;;..;;.XXX..XXX.;;...;;;.;;...:..:..XXXXXXXXXXXXXX.",
".XXXXXXXXXXXXXX.XXX.-.-....X;..;;.XXX.XX.XXX.;;..;.;;;...:.::...XXXXXXXXXXXXXX.",
".XXXXXXXXXXXXXX.XX.-...-...;..;;..............;;...;;;..:.:.....XXXXXXXXXXXXXX.",
".XXXXXXXXXXXXXX.XX..-.X.XX...;;;;;;;;;;.;;;;;;;;;...;;;..:......XXXXXXXXXXXXXX.",
".XXXXXXXXXXXXXX.XXX...X.X.XX..;;...............;;;..;.;.........XXXXXXXXXXXXXX.",
".XXXXXXXXXXXXXX.XXXXX.XX.XXXXX..;;.;;;.;.;;;.;;.;;;...;.........XXXXXXXXXXXXXX.",
".XXXXXXXXXXXXXX.XXXXXX..XXXX.XX..;;;;;;;;;;;;;;;;;;;............XXXXXXXXXXXXXX.",
".XXXXXXXXXXXXXX.XXXX..-.XXX.XXXXX..........................X....XXXXXXXXXXXXXX.",
".XXXXXXXXXXXXXX.XXX.-......-..XXXX.$.$$$...X.X........X..XXX....XXXXXXXXXXXXXX.",
".XXXXXXXXXXXXXX.XXX..-.XXXX.XX.XXXX.$$$$$$..#.#.#.##...XXXXX....XXXXXXXXXXXXXX.",
".XXXXXXXXXXXXXX.XXXX..XXXXXX.XXXXXX...$$$$$$...#.#..#.#.XXXX....XXXXXXXXXXXXXX.",
".XXXXXXXXXXXXXX.XXX....XXXXXXXXXXXXX....$$$$$$.#.#.#..#.XX.X....XXXXXXXXXXXXXX.",
".XXXXXXXXXXXXXX.XXX.XX.XXXXXXXXXXXXX.$$$$$$$$$.#.#..##.XX..X....XXXXXX@XXXXXXX.",
".XXXXXXXXXXXXXX.XXXXXXXXXXXXXXXXXXXX.$$...$$$$.#.#.#..XX.O.X....XXXXX@o@XXXXXX.",
".XXXXXXXXXXXXXX.XXXXXXXXXXXXXXXXXX..$..$$$.$$.#.#.#.XXX.OO.X....XXXXX&o&XXXXXX.",
".XXXXXXXXXXXXXX.XXXXXXXXXXXXXXXXXX.$$$$$$..$$.#.#.#.XX.OO.......XXXX%ooo%XXXXX.",
".XXXXXXXXXXXXXX.XXXXXXXXXXXXXXXXXXX.$$$$$$$$$.#.#.#.XX.O..O.O.O.XXX*ooooo*XXXX.",
".XXXXXXXXXXXXXX.XXXXXXXXXXXXXXXXXXX.$$...$$$.#.#.#.XXX..O.O.O.O.XX=ooooooo=XXX.",
".XXXXXXXXXXXXXX.XXXXXXXXXXXXXXXXXXXX.$$.$.$$.#.#.#.XXX.O..O.O.O.XX+ooooooo+XXX.",
".XXXXXXXXXXXXXX.XXXXXXXXXXXXXXXXXXXX.$$..$$$.#.#.#.XXX.OO.......XX*ooo&ooo*XXX.",
".XXXXXXXXXXXXXX.XXXXXXXXXXXXXXXXXXXX.$....$$.#.#.#.XXX.OO..X....XXX%&*X*&%XXXX.",
".XXXXXXXXXXXXXX.XXXXXXXXXXXXXXXXXXX.$$$$$$$$.#.#.#.XXXX.OO.X....XXXXXXXXXXXXXX.",
".XXXXXXXXXXXXXX.XXXXXXXXXXXXXXXXXXX.................XXXX.O.X....XXXXXXXXXXXXXX.",
".XXXXXXXXXXXXXX.XXXXXXXXXXXXXXXXXXX..................XXXX..X....XXXXXXXXXXXXXX.",
".XXXXXXXXXXXXXX.XXXXXXXXXXXXXXXXXXX..OOO..OOOOO..OOO..XXXX.X....XXXXXXXXXXXXXX.",
".XXXXXXXXXXXXXX.XXXXXXXXXXXXXXXXXX..OO.O..O.O.O..O.OO..XXXXXX...XXXX@oooo@XXXX.",
".XXXXXXXXXXXXXX.XXXXXXXXXXXXXXXXX..OO.OO..OO.OO..OO.OO..XXXXXX..XXX@oooooo@XXX.",
".XXXXXXXXXXXXXX.XXXXXXXXXXXXXXXX..OO.O.O..O.O.O..O.O.OO..XXXXXX.XXXoo+XX+ooXXX.",
".XXXXXXXXXXXXXX.XXXXXXXXXXXXXXX..OO.O.OO..OO.OO..OO.O.OO..XXXXX.XXXooXXXXooXXX.",
".XXXXXXXXXXXXXX.................................................XXXooXXXXooXXX.",
".XXXXXXXXXXXXXXXXXXXXXXXXXXXXXXXXXXXXXXXXXXXXXXXXXXXXXXXXXXXXXXXXXXooXXXXXXXXX.",
".XXXXXXXXXXXXXXXXXXXXXXXXXXXXXXXXXXXXXXXXXXXXXXXXXXXXXXXXXXXXXXXXXXooXXXXXXXXX.",
".XXXXXXXXXXXXXXXXXXXXXXXXXXXXXXXXXXXXXXXXXXXXXXXXXXXXXXXXXXXXXXXXXXooXXXXXXXXX.",
".XXXXXXXXXXXXXXXXXXXXXXXXXXXXXXXXXXXXXXXXXXXXXXXXXXXXXXXXXXXXXXXXXXooXXXXXXXXX.",
".XXXXXXXXXXXXXXXXXXXXXXXXXXXXXXXXXXXXXXXXXXXXXXXXXXXXXXXXXXXXXXXXXXooXXXXXXXXX.",
".XXXXXXXXXXXXXXXXXXXXXXXXXXXXXXXXXXXXXXXXXXXXXXXXXXXXXXXXXXXXXXXXXXooXXXXXXXXX.",
".XXXXXXXXXXXXXXXXXXXXXXXXXXXXXXXXXXXXXXXXXXXXXXXXXXXXXXXXXXXXXXXXXXooXXXXXXXXX.",
".XXXXXXXXXXXXXXXXXXXXXXXXXXXXXXXXXXXXXXXXXXXXXXXXXXXXXXXXXXXXXXXXXooooXXXXXXXX.",
" .XXXXXXXXXXXXXXXXXXXXXXXXXXXXXXXXXXXXXXXXXXXXXXXXXXXXXXXXXXXXXXXXooooXXXXXXX. ",
" .XXXXXXXXXXXXXXXXXXXXXXXXXXXXXXXXXXXXXXXXXXXXXXXXXXXXXXXXXXXXXXXXXXXXXXXXXXX. ",
"  .XXXXXXXXXXXXXXXXXXXXXXXXXXXXXXXXXXXXXXXXXXXXXXXXXXXXXXXXXXXXXXXXXXXXXXXXX.  ",
"  .XXXXXXXXXXXXXXXXXXXXXXXXXXXXXXXXXXXXXXXXXXXXXXXXXXXXXXXXXXXXXXXXXXXXXXXXX.  ",
"   ..XXXXXXXXXXXXXXXXXXXXXXXXXXXXXXXXXXXXXXXXXXXXXXXXXXXXXXXXXXXXXXXXXXXXX..   ",
"     ..XXXXXXXXXXXXXXXXXXXXXXXXXXXXXXXXXXXXXXXXXXXXXXXXXXXXXXXXXXXXXXXXX..     ",
"       .................................................................       "};
