/* XPM */
static char * Jack_Diamonds_xpm[] = {
"79 123 13 1",
" 	c None",
".	c #000000000000",
"X	c #FFFFFFFFFFFF",
"o	c #CF3C00000000",
"O	c #FFFFD75C0000",
"+	c #DF7D3CF338E3",
"@	c #F7DEBEFBBEFB",
"#	c #F7DEE38DD75C",
"$	c #EFBE9E799E79",
"%	c #FFFFDF7DDF7D",
"&	c #D75C1C711861",
"*	c #30C2C30BA699",
"=	c #FFFF00000000",
"       .................................................................       ",
"     ..XXXXXXXXXXXXXXXXXXXXXXXXXXXXXXXXXXXXXXXXXXXXXXXXXXXXXXXXXXXXXXXXX..     ",
"   ..XXXXXXXXXXXXXXXXXXXXXXXXXXXXXXXXXXXXXXXXXXXXXXXXXXXXXXXXXXXXXXXXXXXXX..   ",
"  .XXXXXXXXXXXXXXXXXXXXXXXXXXXXXXXXXXXXXXXXXXXXXXXXXXXXXXXXXXXXXXXXXXXXXXXXX.  ",
"  .XXXXXXXXXXXXXXXXXXXXXXXXXXXXXXXXXXXXXXXXXXXXXXXXXXXXXXXXXXXXXXXXXXXXXXXXX.  ",
" .XXXXXXXXXXXXXXXXXXXXXXXXXXXXXXXXXXXXXXXXXXXXXXXXXXXXXXXXXXXXXXXXXXXXXXXXXXX. ",
" .XXXXXXXooooXXXXXXXXXXXXXXXXXXXXXXXXXXXXXXXXXXXXXXXXXXXXXXXXXXXXXXXXXXXXXXXX. ",
".XXXXXXXXooooXXXXXXXXXXXXXXXXXXXXXXXXXXXXXXXXXXXXXXXXXXXXXXXXXXXXXXXXXXXXXXXXX.",
".XXXXXXXXXooXXXXXXXXXXXXXXXXXXXXXXXXXXXXXXXXXXXXXXXXXXXXXXXXXXXXXXXXXXXXXXXXXX.",
".XXXXXXXXXooXXXXXXXXXXXXXXXXXXXXXXXXXXXXXXXXXXXXXXXXXXXXXXXXXXXXXXXXXXXXXXXXXX.",
".XXXXXXXXXooXXXXXXXXXXXXXXXXXXXXXXXXXXXXXXXXXXXXXXXXXXXXXXXXXXXXXXXXXXXXXXXXXX.",
".XXXXXXXXXooXXXXXXXXXXXXXXXXXXXXXXXXXXXXXXXXXXXXXXXXXXXXXXXXXXXXXXXXXXXXXXXXXX.",
".XXXXXXXXXooXXXXXXXXXXXXXXXXXXXXXXXXXXXXXXXXXXXXXXXXXXXXXXXXXXXXXXXXXXXXXXXXXX.",
".XXXXXXXXXooXXXXXXXXXXXXXXXXXXXXXXXXXXXXXXXXXXXXXXXXXXXXXXXXXXXXXXXXXXXXXXXXXX.",
".XXXXXXXXXooXXXXXXXXXXXXXXXXXXXXXXXXXXXXXXXXXXXXXXXXXXXXXXXXXXXXXXXXXXXXXXXXXX.",
".XXXooXXXXooXXX.................................................XXXXXXXXXXXXXX.",
".XXXooXXXXooXXX.XXXXXXXXX...OO...O..O...O..O...OO...XXXXXXXXXXX.XXXXXXXXXXXXXX.",
".XXXoo+XX+ooXXX.XXXXXXXXXX...OO..O..O...O..O..OO...XXXXXXXXXXXX.XXXXXXXXXXXXXX.",
".XXX@oooooo@XXX.XXXXXXXXXXX...OOOO..OOOOO..OOOO...XXXXXXXXXXXXX.XXXXXXXXXXXXXX.",
".XXXX@oooo@XXXX..XXXXXXXXXXX.....................XXXXXXXXXXXXXX.XXXXXXXXXXXXXX.",
".XXXXXXXXXXXXXX...XXXXXXXXXX....................XXXXXXXXXXXXXXX.XXXXXXXXXXXXXX.",
".XXXXXXXXXXXXXX....XXXXXXXXX..O.O.############..XXXXXXXXXXXXXXX.XXXXXXXXXXXXXX.",
".XXXXXXX$XXXXXX.O..XXXXXXXX.O.O.O.####.#######..XXXXXXXXXXXXXXX.XXXXXXXXXXXXXX.",
".XXXXXX@o@XXXXX..O.XXXXXXXX.O.O.O.....####......XXXXXXXXXXXXXXX.XXXXXXXXXXXXXX.",
".XXXXX%&o&%XXXX.O..XXXXXXXX.O.O.O.#####.#.####..XXXXXXXXXXXXXXX.XXXXXXXXXXXXXX.",
".XXXX%&ooo&%XXX..O.XXXXXX.X.O.O.O......##.#.....XXXXXXXXXXXXXXX.XXXXXXXXXXXXXX.",
".XXX@&ooooo&@XX.O..XXXXX..X.O.O.O.#...###.#...O.XXXXXXXXXXXXXXX.XXXXXXXXXXXXXX.",
".XX$ooooooooo$X..O.XXXX..XX.O.O.O.###.###.###.O.XXXXXXXXXXXXXXX.XXXXXXXXXXXXXX.",
".XXX@&ooooo&@XX.O..XXX.O.XX.O.O.O.#######.###.O.XXXXXXXXXXXXXXX.XXXXXXXXXXXXXX.",
".XXXX%&ooo&%XXX..O.XX.O.XXX.O.O.O.########.##.O.XXXXXXXXXXXXXXX.XXXXXXXXXXXXXX.",
".XXXXX%&o&%XXXX.O....OO.XXX.O.O.O.######...##.O.XXXXXXXXXXXXXXX.XXXXXXXXXXXXXX.",
".XXXXXX@o@XXXXX....OOO.XXXX.O.O.O.###########.O.XXXXXXXXXXXXXXX.XXXXXXXXXXXXXX.",
".XXXXXXX$XXXXXX.O.OOO.XXX...O.O.O.###.#######.O.XXXXXXXXXXXXXXX.XXXXXXXXXXXXXX.",
".XXXXXXXXXXXXXX.OOOO.XXX.OO.O.O.O.####.....#.O....XXXXXXXXXXXX..XXXXXXXXXXXXXX.",
".XXXXXXXXXXXXXX..O..XXXX....O.O...#####..###.OO.OO.XXXXXXXXXX...XXXXXXXXXXXXXX.",
".XXXXXXXXXXXXXX....XXXXX.OOOO..XX..########.X.OO.O.XXXXXXXXX....XXXXXXXXXXXXXX.",
".XXXXXXXXXXXXXX..O.XXXX.X....XXXXX...#####.XXX.OOO..XXXXXXXX..O.XXXXXXXXXXXXXX.",
".XXXXXXXXXXXXXX.OO.XXX..XX.XX..XXXXX.......XXX.....X..XXXXXX.OO.XXXXXXXXXXXXXX.",
".XXXXXXXXXXXXXX.O..XX.*..XX..XX...XXXXXXXXX...XX..XX....XXXX.O..XXXXXXXXXXXXXX.",
".XXXXXXXXXXXXXX....X...*...XX..XXX.........XXX..XX........XX....XXXXXXXXXXXXXX.",
".XXXXXXXXXXXXXX.O...==..*...XXX...XXXXXXXXX...XXX.....*......O..XXXXXXXXXXXXXX.",
".XXXXXXXXXXXXXX.OO..=.=..*....XXXX.........XXXX..............OO.XXXXXXXXXXXXXX.",
".XXXXXXXXXXXXXX....=.===..*.......XXXXXXXXX.........****......O.XXXXXXXXXXXXXX.",
".XXXXXXXXXXXXXX.OO.=..=.=..*.*.*................................XXXXXXXXXXXXXX.",
".XXXXXXXXXXXXXX....=.=.===..*.*.*.=...=....=..=..**********...O.XXXXXXXXXXXXXX.",
".XXXXXXXXXXXXXX.OO.=..=.=.=..*.*.*.=...=.=..=................OO.XXXXXXXXXXXXXX.",
".XXXXXXXXXXXXXX....=.===.==.=.*.*.*.=...=.=..=...*********...O..XXXXXXXXXXXXXX.",
".XXXXXXXXXXXXXX.OO.=..=.=.=..=.*.*.*.=...=.=..=..*********......XXXXXXXXXXXXXX.",
".XXXXXXXXXXXXXX.....==.===..=...*.*.*.=...=.=................O..XXXXXXXXXXXXXX.",
".XXXXXXXXXXXXXX.OO..=.=.=.=..=...*.*.*.=..=..=...............OO.XXXXXXXXXXXXXX.",
".XXXXXXXXXXXXXX..O...===.==.=...=*..*.*.=..=..=..**********...O.XXXXXXXXXXXXXX.",
".XXXXXXXXXXXXXX.....=.=.=.=..=..==*..*.*.=..=...................XXXXXXXXXXXXXX.",
".XXXXXXXXXXXXXX..O.=.=.===..=.....=*.*..*.=..=...*******......O.XXXXXXXXXXXXXX.",
".XXXXXXXXXXXXXX.OO....=.=.=..=....==*.*.*..=..=..............OO.XXXXXXXXXXXXXX.",
".XXXXXXXXXXXXXX.O..=.===.==.=...==..=*.*.*..=................O..XXXXXXXXXXXXXX.",
".XXXXXXXXXXXXXX.....=.=.=.=....=...=.=*.*.*......*********......XXXXXXXXXXXXXX.",
".XXXXXXXXXXXXXX.O..=...===.....=..=.=.=*.*.*...............#.O..XXXXXXXXXXXXXX.",
".XXXXXXXXXXXXXX.OO..=.=.=.=..==..=...=.=*.*.*.....******.....OO.XXXXXXXXXXXXXX.",
".XXXXXXXXXXXXXX..O.=..==.=..=...=.===.=.=*.*.*.............#..O.XXXXXXXXXXXXXX.",
".XXXXXXXXXXXXXX.....=...=...=....==..=.=.=*.*.*.................XXXXXXXXXXXXXX.",
".XXXXXXXXXXXXXX..O.=..=...==...=..=..=..=.=*.*.*..............O.XXXXXXXXXXXXXX.",
".XXXXXXXXXXXXXX.................................................XXXXXXXXXXXXXX.",
".XXXXXXXXXXXXXX.O..............*.*.*=.=..=..=..=...==...=..=.O..XXXXXXXXXXXXXX.",
".XXXXXXXXXXXXXX.................*.*.*=.=.=..==....=...=...=.....XXXXXXXXXXXXXX.",
".XXXXXXXXXXXXXX.O..#.............*.*.*=.=.===.=...=..=.==..=.O..XXXXXXXXXXXXXX.",
".XXXXXXXXXXXXXX.OO.....******.....*.*.*=.=...=..==..=.=.=.=..OO.XXXXXXXXXXXXXX.",
".XXXXXXXXXXXXXX..O.#...............*.*.*=.=.=..=.....===...=..O.XXXXXXXXXXXXXX.",
".XXXXXXXXXXXXXX......*********......*.*.*=.=...=....=.=.=.=.....XXXXXXXXXXXXXX.",
".XXXXXXXXXXXXXX..O................=..*.*.*=..==...=.==.===.=..O.XXXXXXXXXXXXXX.",
".XXXXXXXXXXXXXX.OO..............=..=..*.*.*==....=..=.=.=....OO.XXXXXXXXXXXXXX.",
".XXXXXXXXXXXXXX.O......*******...=..=.*..*.*=.....=..===.=.=.O..XXXXXXXXXXXXXX.",
".XXXXXXXXXXXXXX...................=..=.*.*..*==..=..=.=.=.=.....XXXXXXXXXXXXXX.",
".XXXXXXXXXXXXXX.O...**********..=..=..=.*.*..*=...=.==.===...O..XXXXXXXXXXXXXX.",
".XXXXXXXXXXXXXX.OO...............=..=..=.*.*.*...=..=.=.=.=..OO.XXXXXXXXXXXXXX.",
".XXXXXXXXXXXXXX..O................=.=...=.*.*.*...=..===.==.....XXXXXXXXXXXXXX.",
".XXXXXXXXXXXXXX......*********..=..=.=...=.*.*.*.=..=.=.=..=.OO.XXXXXXXXXXXXXX.",
".XXXXXXXXXXXXXX..O...*********...=..=.=...=.*.*.*.=.==.===.=....XXXXXXXXXXXXXX.",
".XXXXXXXXXXXXXX.OO................=..=.=...=.*.*.*..=.=.=..=.OO.XXXXXXXXXXXXXX.",
".XXXXXXXXXXXXXX.O...**********..=..=....=...=.*.*.*..===.=.=....XXXXXXXXXXXXXX.",
".XXXXXXXXXXXXXX................................*.*.*..=.=..=.OO.XXXXXXXXXXXXXX.",
".XXXXXXXXXXXXXX.O......****.........XXXXXXXXX.......*..===.=....XXXXXXXXXXXXXX.",
".XXXXXXXXXXXXXX.OO..............XXXX.........XXXX....*..=.=..OO.XXXXXXXXXXXXXX.",
".XXXXXXXXXXXXXX..O......*.....XXX...XXXXXXXXX...XXX...*..==...O.XXXXXXXXXXXXXX.",
".XXXXXXXXXXXXXX....XX........XX..XXX.........XXX..XX...*...X....XXXXXXXXXXXXXX.",
".XXXXXXXXXXXXXX..O.XXXX....XX..XX...XXXXXXXXX...XX..XX..*.XX..O.XXXXXXXXXXXXXX.",
".XXXXXXXXXXXXXX.OO.XXXXXX..X.....XXX.......XXXXX..XX.XX..XXX.OO.XXXXXXXXXXXXXX.",
".XXXXXXXXXXXXXX.O..XXXXXXXX..OOO.XXX.#####...XXXXX....X.XXXX.O..XXXXXXXXXXXXXX.",
".XXXXXXXXXXXXXX....XXXXXXXXX.O.OO.X.########..XX..OOOO.XXXXX....XXXXXXXXXXXXXX.",
".XXXXXXXXXXXXXX...XXXXXXXXXX.OO.OO.###..#####...O.O....XXXX..O..XXXXXXXXXXXXXX.",
".XXXXXXXXXXXXXX..XXXXXXXXXXXX....O.#.....####.O.O.O.OO.XXX.OOOO.XXXXXXXXXXXXXX.",
".XXXXXXXXXXXXXX.XXXXXXXXXXXXXXX.O.#######.###.O.O.O...XXX.OOO.O.XXXXXX$XXXXXXX.",
".XXXXXXXXXXXXXX.XXXXXXXXXXXXXXX.O.###########.O.O.O.XXXX.OOO....XXXXX@o@XXXXXX.",
".XXXXXXXXXXXXXX.XXXXXXXXXXXXXXX.O.##...######.O.O.O.XXX.OO....O.XXXX%&o&%XXXXX.",
".XXXXXXXXXXXXXX.XXXXXXXXXXXXXXX.O.##.########.O.O.O.XXX.O.XX.O..XXX%&ooo&%XXXX.",
".XXXXXXXXXXXXXX.XXXXXXXXXXXXXXX.O.###.#######.O.O.O.XX.O.XXX..O.XX@&ooooo&@XXX.",
".XXXXXXXXXXXXXX.XXXXXXXXXXXXXXX.O.###.###.###.O.O.O.XX..XXXX.O..X$ooooooooo$XX.",
".XXXXXXXXXXXXXX.XXXXXXXXXXXXXXX.O...#.###...#.O.O.O.X..XXXXX..O.XX@&ooooo&@XXX.",
".XXXXXXXXXXXXXX.XXXXXXXXXXXXXXX.....#.##......O.O.O.X.XXXXXX.O..XXX%&ooo&%XXXX.",
".XXXXXXXXXXXXXX.XXXXXXXXXXXXXXX..####.#.#####.O.O.O.XXXXXXXX..O.XXXX%&o&%XXXXX.",
".XXXXXXXXXXXXXX.XXXXXXXXXXXXXXX......####.....O.O.O.XXXXXXXX.O..XXXXX@o@XXXXXX.",
".XXXXXXXXXXXXXX.XXXXXXXXXXXXXXX..#######.####.O.O.O.XXXXXXXX..O.XXXXXX$XXXXXXX.",
".XXXXXXXXXXXXXX.XXXXXXXXXXXXXXX..############.O.O..XXXXXXXXX....XXXXXXXXXXXXXX.",
".XXXXXXXXXXXXXX.XXXXXXXXXXXXXXX....................XXXXXXXXXX...XXXXXXXXXXXXXX.",
".XXXXXXXXXXXXXX.XXXXXXXXXXXXXX.....................XXXXXXXXXXX..XXXX@oooo@XXXX.",
".XXXXXXXXXXXXXX.XXXXXXXXXXXXX...OOOO..OOOOO..OOOO...XXXXXXXXXXX.XXX@oooooo@XXX.",
".XXXXXXXXXXXXXX.XXXXXXXXXXXX...OO..O..O...O..O..OO...XXXXXXXXXX.XXXoo+XX+ooXXX.",
".XXXXXXXXXXXXXX.XXXXXXXXXXX...OO...O..O...O..O...OO...XXXXXXXXX.XXXooXXXXooXXX.",
".XXXXXXXXXXXXXX.................................................XXXooXXXXooXXX.",
".XXXXXXXXXXXXXXXXXXXXXXXXXXXXXXXXXXXXXXXXXXXXXXXXXXXXXXXXXXXXXXXXXXooXXXXXXXXX.",
".XXXXXXXXXXXXXXXXXXXXXXXXXXXXXXXXXXXXXXXXXXXXXXXXXXXXXXXXXXXXXXXXXXooXXXXXXXXX.",
".XXXXXXXXXXXXXXXXXXXXXXXXXXXXXXXXXXXXXXXXXXXXXXXXXXXXXXXXXXXXXXXXXXooXXXXXXXXX.",
".XXXXXXXXXXXXXXXXXXXXXXXXXXXXXXXXXXXXXXXXXXXXXXXXXXXXXXXXXXXXXXXXXXooXXXXXXXXX.",
".XXXXXXXXXXXXXXXXXXXXXXXXXXXXXXXXXXXXXXXXXXXXXXXXXXXXXXXXXXXXXXXXXXooXXXXXXXXX.",
".XXXXXXXXXXXXXXXXXXXXXXXXXXXXXXXXXXXXXXXXXXXXXXXXXXXXXXXXXXXXXXXXXXooXXXXXXXXX.",
".XXXXXXXXXXXXXXXXXXXXXXXXXXXXXXXXXXXXXXXXXXXXXXXXXXXXXXXXXXXXXXXXXXooXXXXXXXXX.",
".XXXXXXXXXXXXXXXXXXXXXXXXXXXXXXXXXXXXXXXXXXXXXXXXXXXXXXXXXXXXXXXXXooooXXXXXXXX.",
" .XXXXXXXXXXXXXXXXXXXXXXXXXXXXXXXXXXXXXXXXXXXXXXXXXXXXXXXXXXXXXXXXooooXXXXXXX. ",
" .XXXXXXXXXXXXXXXXXXXXXXXXXXXXXXXXXXXXXXXXXXXXXXXXXXXXXXXXXXXXXXXXXXXXXXXXXXX. ",
"  .XXXXXXXXXXXXXXXXXXXXXXXXXXXXXXXXXXXXXXXXXXXXXXXXXXXXXXXXXXXXXXXXXXXXXXXXX.  ",
"  .XXXXXXXXXXXXXXXXXXXXXXXXXXXXXXXXXXXXXXXXXXXXXXXXXXXXXXXXXXXXXXXXXXXXXXXXX.  ",
"   ..XXXXXXXXXXXXXXXXXXXXXXXXXXXXXXXXXXXXXXXXXXXXXXXXXXXXXXXXXXXXXXXXXXXXX..   ",
"     ..XXXXXXXXXXXXXXXXXXXXXXXXXXXXXXXXXXXXXXXXXXXXXXXXXXXXXXXXXXXXXXXXX..     ",
"       .................................................................       "};
