/* XPM */
static char * Jack_Clubs_xpm[] = {
"79 123 15 1",
" 	c None",
".	c #000000000000",
"X	c #FFFFFFFFFFFF",
"o	c #FFFFD75C0000",
"O	c #38E33CF338E3",
"+	c #BEFBBEFBBEFB",
"@	c #DF7DDF7DDF7D",
"#	c #18611C711861",
"$	c #F7DEE38DD75C",
"%	c #2081410330C2",
"&	c #9E799E799E79",
"*	c #79E77DF779E7",
"=	c #59655D755965",
"-	c #30C2A289C71B",
";	c #FFFF00000000",
"       .................................................................       ",
"     ..XXXXXXXXXXXXXXXXXXXXXXXXXXXXXXXXXXXXXXXXXXXXXXXXXXXXXXXXXXXXXXXXX..     ",
"   ..XXXXXXXXXXXXXXXXXXXXXXXXXXXXXXXXXXXXXXXXXXXXXXXXXXXXXXXXXXXXXXXXXXXXX..   ",
"  .XXXXXXXXXXXXXXXXXXXXXXXXXXXXXXXXXXXXXXXXXXXXXXXXXXXXXXXXXXXXXXXXXXXXXXXXX.  ",
"  .XXXXXXXXXXXXXXXXXXXXXXXXXXXXXXXXXXXXXXXXXXXXXXXXXXXXXXXXXXXXXXXXXXXXXXXXX.  ",
" .XXXXXXXXXXXXXXXXXXXXXXXXXXXXXXXXXXXXXXXXXXXXXXXXXXXXXXXXXXXXXXXXXXXXXXXXXXX. ",
" .XXXXXXX....XXXXXXXXXXXXXXXXXXXXXXXXXXXXXXXXXXXXXXXXXXXXXXXXXXXXXXXXXXXXXXXX. ",
".XXXXXXXX....XXXXXXXXXXXXXXXXXXXXXXXXXXXXXXXXXXXXXXXXXXXXXXXXXXXXXXXXXXXXXXXXX.",
".XXXXXXXXX..XXXXXXXXXXXXXXXXXXXXXXXXXXXXXXXXXXXXXXXXXXXXXXXXXXXXXXXXXXXXXXXXXX.",
".XXXXXXXXX..XXXXXXXXXXXXXXXXXXXXXXXXXXXXXXXXXXXXXXXXXXXXXXXXXXXXXXXXXXXXXXXXXX.",
".XXXXXXXXX..XXXXXXXXXXXXXXXXXXXXXXXXXXXXXXXXXXXXXXXXXXXXXXXXXXXXXXXXXXXXXXXXXX.",
".XXXXXXXXX..XXXXXXXXXXXXXXXXXXXXXXXXXXXXXXXXXXXXXXXXXXXXXXXXXXXXXXXXXXXXXXXXXX.",
".XXXXXXXXX..XXXXXXXXXXXXXXXXXXXXXXXXXXXXXXXXXXXXXXXXXXXXXXXXXXXXXXXXXXXXXXXXXX.",
".XXXXXXXXX..XXXXXXXXXXXXXXXXXXXXXXXXXXXXXXXXXXXXXXXXXXXXXXXXXXXXXXXXXXXXXXXXXX.",
".XXXXXXXXX..XXXXXXXXXXXXXXXXXXXXXXXXXXXXXXXXXXXXXXXXXXXXXXXXXXXXXXXXXXXXXXXXXX.",
".XXX..XXXX..XXX.................................................XXXXXXXXXXXXXX.",
".XXX..XXXX..XXX.XXXXX..o..o.o.o.o.o.o..o..o.o..o..XXXXXXXXXXXXX.XXXXXXXXXXXXXX.",
".XXX..OXXO..XXX.XXXXXX..o..o.o..o..o.o.o.o.o..o..XXXXXXXXXXXXXX.XXXXXXXXXXXXXX.",
".XXX+......+XXX.XXXXXXX..o..o.o.o.o.o..o..o..o..XXXXXXXXXXXXXXX.XXXXXXXXXXXXXX.",
".XXXX+....+XXXX..XXXXXX...o..o..o..o.o.o.o..o..XXXXXXXXXXXXXXXX.XXXXXXXXXXXXXX.",
".XXXXXXXXXXXXXX...XXXXX.X..o....o......o...o..XXXXXXXXXXXXXXXXX.XXXXXXXXXXXXXX.",
".XXXXXXXXXXXXXX.o..XXX.XX...ooooooooooooooo..XXXXXXXXXXXXXXXXXX.XXXXXXXXXXXXXX.",
".XXXXXXXXXXXXXX..o..XX.X.X..................XXXXXXXXXXXXXXXXXXX.XXXXXXXXXXXXXX.",
".XXXXXXX+XXXXXX...o..XX..X..................XXXXXXXXXXXXXXXXXXX.XXXXXXXXXXXXXX.",
".XXXXX@#.#@XXXX....o..X.XX.$$$$$$$$$$$.%.%..XXXXXXXXXXXXXXXXXXX.XXXXXXXXXXXXXX.",
".XXXXX&...&XXXX.ooooo..XXX.$$$$$$$$$$$.%.%.%.XXXXXXXXXXXXXXXXXX.XXXXXXXXXXXXXX.",
".XXX@&+...+&@XX.........XX...$$$.....$.%.%.%.XXXXXXXXXXXXXXXXXX.XXXXXXXXXXXXXX.",
".XXX#..*#*..#XX.oo.XXXXXXX.$$.$.$$$$$$.%.%.%.XXXXXXXXXXXXXXXXXX.XXXXXXXXXXXXXX.",
".XX+...#O#...+X.oo.XXXXXX....$$$....$$.%.%.%.XXXXXXXXXXXXXXXXXX.XXXXXXXXXXXXXX.",
".XXX#..+*+..#XX.oo.XXXXXXX..$$.$$..$$$.%.%.%.XXXXXXXXXXXXXXXXXX.XXXXXXXXXXXXXX.",
".XXX@&@X=X@&@XX.oo.XXXXXXX...$.$$...$$.%.%.%.XXXXXXXXXXXXXXXXXX.XXXXXXXXXXXXXX.",
".XXXXXXX.XXXXXX.oo.XXXXXXX.$$.$$$$$$$$.%.%.%.XXXXXXXXXXXXXXXXXX.XXXXXXXXXXXXXX.",
".XXXXXX+*+XXXXX.oo.XXXXXXX.$$...$$$$$$.%.%.%...XXXXXXXXXXXXXXXX.XXXXXXXXXXXXXX.",
".XXXXXXXXXXXXXX.oo.XXXXXXX.$$$.$$$$$$$.%.%...%.XXXXXXXXXXXXXXXX.XXXXXXXXXXXXXX.",
".XXXXXXXXXXXXXX.oo.XXXXXXX.$$$$$$.$$$$.%...%.%.XXXXXXXXXXXXXXXX.XXXXXXXXXXXXXX.",
".XXXXXXXXXXXXXX.oo.XXXXXXXX.$....$$$$$.%.%.%.%.XXXXXXXXXXXXXXXX.XXXXXXXXXXXXXX.",
".XXXXXXXXXXXXXX.....XXXXXXX.$$..$$$$$..%.%.%..XXXXXXXXXXXXXXXXX.XXXXXXXXXXXXXX.",
".XXXXXXXXXXXXXX.$.$$.XXXXXX..$$$$$$$...%%%.....XXXXXXXXXXXXXXXX.XXXXXXXXXXXXXX.",
".XXXXXXXXXXXXXX....$$.XX...-..$$$$...-...........XXXXXXXXXXXXXX.XXXXXXXXXXXXXX.",
".XXXXXXXXXXXXXX.$$.$$....--.-......------....;.....XXXXXXXXXXXX.XXXXXXXXXXXXXX.",
".XXXXXXXXXXXXXX....$$...--...XXX.....--....-.;..-....XXXXXXXXXX.XXXXXXXXXXXXXX.",
".XXXXXXXXXXXXXX.$$.$.....--..XXXX.-......--.;...-.-....XXXXXXX..XXXXXXXXXXXXXX.",
".XXXXXXXXXXXXXX.....$...--...X..X.---..---.;;;..-.-.-....XXXX...XXXXXXXXXXXXXX.",
".XXXXXXXXXXXXXX.oo.$.-...--..XXXX..------..;.;..-......-...X..o.XXXXXXXXXXXXXX.",
".XXXXXXXXXXXXXX.oo....-.--...XXXX....--...;;;;..-..-....-....oo.XXXXXXXXXXXXXX.",
".XXXXXXXXXXXXXX.oo.....-.-.-.X..X.........;.;...-......-.-.X.oo.XXXXXXXXXXXXXX.",
".XXXXXXXXXXXXXX.oo..-...---..XXXX.-......;;;;;..-.-.-...-.XX.oo.XXXXXXXXXXXXXX.",
".XXXXXXXXXXXXXX.oo.-.-...-...XXXX.---....;.;.;..-.-.-..--XX..oo.XXXXXXXXXXXXXX.",
".XXXXXXXXXXXXXX.oo....-.....XX..X..---.;;;;;;;..-........XXX.oo.XXXXXXXXXXXXXX.",
".XXXXXXXXXXXXXX.oo..-..-....XXXX.-...-..;.;.....-..;....XXXX.oo.XXXXXXXXXXXXXX.",
".XXXXXXXXXXXXXX.oo.-....-.-.XXXX..-...;;;;;;.-..-......XX..X.oo.XXXXXXXXXXXXXX.",
".XXXXXXXXXXXXXX.oo....-..-..X..X.-.-.;.;....--..-.;....XXXXX.oo.XXXXXXXXXXXXXX.",
".XXXXXXXXXXXXXX.oo.-..-....XXXXX..-..;;;;;.-.-..-..;;.XXXXX..oo.XXXXXXXXXXXXXX.",
".XXXXXXXXXXXXXX.oo....-..-.XXXX..--.;.;...--.-...;;;;.X..X.-.oo.XXXXXXXXXXXXXX.",
".XXXXXXXXXXXXXX.oo...--..-.X..X.-.-.;;;;.-.--..;;;.;.XXXXX.-.oo.XXXXXXXXXXXXXX.",
".XXXXXXXXXXXXXX.oo...-..-.XXXXX..-..;...--.-.;;..;;;.XXXX.-..oo.XXXXXXXXXXXXXX.",
".XXXXXXXXXXXXXX.oo...-..-.XXXX..---.;;.-.--.;;;;;;..X..XX.-..oo.XXXXXXXXXXXXXX.",
".XXXXXXXXXXXXXX.oo..--..-.X..X.---....--.-.;..;;..-.XXXX.-...oo.XXXXXXXXXXXXXX.",
".XXXXXXXXXXXXXX.oo..-..-.XXXXX.----.--.--.;;;;;.-..XXXXX.-...oo.XXXXXXXXXXXXXX.",
".XXXXXXXXXXXXXX.oo..-..-.XXXX..-.---.-...;..;..-.-.X..X.-....oo.XXXXXXXXXXXXXX.",
".XXXXXXXXXXXXXX.oo..-..-.X..X.-.-.-...-.;.;;..-.-..XXXX.-....oo.XXXXXXXXXXXXXX.",
".XXXXXXXXXXXXXX.................................................XXXXXXXXXXXXXX.",
".XXXXXXXXXXXXXX.oo....-.XXXX..-.-..;;.;.-...-.-.-.X..X.-..-..oo.XXXXXXXXXXXXXX.",
".XXXXXXXXXXXXXX.oo....-.X..X.-.-..;..;...-.---.-..XXXX.-..-..oo.XXXXXXXXXXXXXX.",
".XXXXXXXXXXXXXX.oo...-.XXXXX..-.;;;;;.--.--.----.XXXXX.-..-..oo.XXXXXXXXXXXXXX.",
".XXXXXXXXXXXXXX.oo...-.XXXX.-..;;..;.-.--....---.X..X.-..--..oo.XXXXXXXXXXXXXX.",
".XXXXXXXXXXXXXX.oo..-.XX..X..;;;;;;.--.-.;;.---..XXXX.-..-...oo.XXXXXXXXXXXXXX.",
".XXXXXXXXXXXXXX.oo..-.XXXX.;;;..;;.-.--...;..-..XXXXX.-..-...oo.XXXXXXXXXXXXXX.",
".XXXXXXXXXXXXXX.oo.-.XXXXX.;.;;;..--.-.;;;;.-.-.X..X.-..--...oo.XXXXXXXXXXXXXX.",
".XXXXXXXXXXXXXX.oo.-.X..X.;;;;...-.--...;.;.--..XXXX.-..-....oo.XXXXXXXXXXXXXX.",
".XXXXXXXXXXXXXX.oo..XXXXX.;;..-..-.-.;;;;;..-..XXXXX....-..-.oo.XXXXXXXXXXXXXX.",
".XXXXXXXXXXXXXX.oo.XXXXX....;.-..--....;.;.-.-.X..X..-..-....oo.XXXXXXXXXXXXXX.",
".XXXXXXXXXXXXXX.oo.X..XX......-..-.;;;;;;...-..XXXX.-.-....-.oo.XXXXXXXXXXXXXX.",
".XXXXXXXXXXXXXX.oo.XXXX....;..-.....;.;..-...-.XXXX....-..-..oo.XXXXXXXXXXXXXX.",
".XXXXXXXXXXXXXX.oo.XXX........-..;;;;;;;.---..X..XX.....-....oo.XXXXXXXXXXXXXX.",
".XXXXXXXXXXXXXX.oo..XX--..-.-.-..;.;.;....---.XXXX...-...-.-.oo.XXXXXXXXXXXXXX.",
".XXXXXXXXXXXXXX.oo.XX.-...-.-.-..;;;;;......-.XXXX..---...-..oo.XXXXXXXXXXXXXX.",
".XXXXXXXXXXXXXX.oo.X.-.-......-...;.;.........X..X.-.-.-.....oo.XXXXXXXXXXXXXX.",
".XXXXXXXXXXXXXX.oo....-....-..-..;;;;...--....XXXX...--.-....oo.XXXXXXXXXXXXXX.",
".XXXXXXXXXXXXXX.o..X...-......-..;.;..------..XXXX..--...-.$.oo.XXXXXXXXXXXXXX.",
".XXXXXXXXXXXXXX...XXXX....-.-.-..;;;.---..---.X..X...--...$.....XXXXXXXXXXXXXX.",
".XXXXXXXXXXXXXX..XXXXXXX....-.-...;.--......-.XXXX..--.....$.$$.XXXXXXXXXXXXXX.",
".XXXXXXXXXXXXXX.XXXXXXXXXX....-..;.-....--.....XXX...--...$$....XXXXXXXXXXXXXX.",
".XXXXXXXXXXXXXX.XXXXXXXXXXXX.....;....------......-.--....$$.$$.XXXXXXXXXXXXXX.",
".XXXXXXXXXXXXXX.XXXXXXXXXXXXXX...........-...$$$$..-...XX.$$....XXXXXXXXXXXXXX.",
".XXXXXXXXXXXXXX.XXXXXXXXXXXXXXXX.....%%%...$$$$$$$..XXXXXX.$$.$.XXXXXXXXXXXXXX.",
".XXXXXXXXXXXXXX.XXXXXXXXXXXXXXXXX..%.%.%..$$$$$..$$.XXXXXXX.....XXXXXXXXXXXXXX.",
".XXXXXXXXXXXXXX.XXXXXXXXXXXXXXXX.%.%.%.%.$$$$$....$.XXXXXXXX.oo.XXXXXXXXXXXXXX.",
".XXXXXXXXXXXXXX.XXXXXXXXXXXXXXXX.%.%...%.$$$$.$$$$$$.XXXXXXX.oo.XXXXXXXXXXXXXX.",
".XXXXXXXXXXXXXX.XXXXXXXXXXXXXXXX.%...%.%.$$$$$$$.$$$.XXXXXXX.oo.XXXXXXXXXXXXXX.",
".XXXXXXXXXXXXXX.XXXXXXXXXXXXXXXX...%.%.%.$$$$$$...$$.XXXXXXX.oo.XXXXX+*+XXXXXX.",
".XXXXXXXXXXXXXX.XXXXXXXXXXXXXXXXXX.%.%.%.$$$$$$$$.$$.XXXXXXX.oo.XXXXXX.XXXXXXX.",
".XXXXXXXXXXXXXX.XXXXXXXXXXXXXXXXXX.%.%.%.$$...$$.$...XXXXXXX.oo.XX@&@X=X@&@XXX.",
".XXXXXXXXXXXXXX.XXXXXXXXXXXXXXXXXX.%.%.%.$$$..$$.$$..XXXXXXX.oo.XX#..+*+..#XXX.",
".XXXXXXXXXXXXXX.XXXXXXXXXXXXXXXXXX.%.%.%.$$....$$$....XXXXXX.oo.X+...#O#...+XX.",
".XXXXXXXXXXXXXX.XXXXXXXXXXXXXXXXXX.%.%.%.$$$$$$.$.$$.XXXXXXX.oo.XX#..*#*..#XXX.",
".XXXXXXXXXXXXXX.XXXXXXXXXXXXXXXXXX.%.%.%.$.....$$$...XX.........XX@&+...+&@XXX.",
".XXXXXXXXXXXXXX.XXXXXXXXXXXXXXXXXX.%.%.%.$$$$$$$$$$$.XXX..ooooo.XXXX&...&XXXXX.",
".XXXXXXXXXXXXXX.XXXXXXXXXXXXXXXXXXX..%.%.$$$$$$$$$$$.XX.X..o....XXXX@#.#@XXXXX.",
".XXXXXXXXXXXXXX.XXXXXXXXXXXXXXXXXXX..................X..XX..o...XXXXXX+XXXXXXX.",
".XXXXXXXXXXXXXX.XXXXXXXXXXXXXXXXXXX..................X.X.XX..o..XXXXXXXXXXXXXX.",
".XXXXXXXXXXXXXX.XXXXXXXXXXXXXXXXXX..ooooooooooooooo...XX.XXX..o.XXXXXXXXXXXXXX.",
".XXXXXXXXXXXXXX.XXXXXXXXXXXXXXXXX..o...o......o....o..X.XXXXX...XXXXXXXXXXXXXX.",
".XXXXXXXXXXXXXX.XXXXXXXXXXXXXXXX..o..o.o.o.o..o..o..o...XXXXXX..XXXX+....+XXXX.",
".XXXXXXXXXXXXXX.XXXXXXXXXXXXXXX..o..o..o..o.o.o.o.o..o..XXXXXXX.XXX+......+XXX.",
".XXXXXXXXXXXXXX.XXXXXXXXXXXXXX..o..o.o.o.o.o..o..o.o..o..XXXXXX.XXX..OXXO..XXX.",
".XXXXXXXXXXXXXX.XXXXXXXXXXXXX..o..o.o..o..o.o.o.o.o.o..o..XXXXX.XXX..XXXX..XXX.",
".XXXXXXXXXXXXXX.................................................XXX..XXXX..XXX.",
".XXXXXXXXXXXXXXXXXXXXXXXXXXXXXXXXXXXXXXXXXXXXXXXXXXXXXXXXXXXXXXXXXX..XXXXXXXXX.",
".XXXXXXXXXXXXXXXXXXXXXXXXXXXXXXXXXXXXXXXXXXXXXXXXXXXXXXXXXXXXXXXXXX..XXXXXXXXX.",
".XXXXXXXXXXXXXXXXXXXXXXXXXXXXXXXXXXXXXXXXXXXXXXXXXXXXXXXXXXXXXXXXXX..XXXXXXXXX.",
".XXXXXXXXXXXXXXXXXXXXXXXXXXXXXXXXXXXXXXXXXXXXXXXXXXXXXXXXXXXXXXXXXX..XXXXXXXXX.",
".XXXXXXXXXXXXXXXXXXXXXXXXXXXXXXXXXXXXXXXXXXXXXXXXXXXXXXXXXXXXXXXXXX..XXXXXXXXX.",
".XXXXXXXXXXXXXXXXXXXXXXXXXXXXXXXXXXXXXXXXXXXXXXXXXXXXXXXXXXXXXXXXXX..XXXXXXXXX.",
".XXXXXXXXXXXXXXXXXXXXXXXXXXXXXXXXXXXXXXXXXXXXXXXXXXXXXXXXXXXXXXXXXX..XXXXXXXXX.",
".XXXXXXXXXXXXXXXXXXXXXXXXXXXXXXXXXXXXXXXXXXXXXXXXXXXXXXXXXXXXXXXXX....XXXXXXXX.",
" .XXXXXXXXXXXXXXXXXXXXXXXXXXXXXXXXXXXXXXXXXXXXXXXXXXXXXXXXXXXXXXXX....XXXXXXX. ",
" .XXXXXXXXXXXXXXXXXXXXXXXXXXXXXXXXXXXXXXXXXXXXXXXXXXXXXXXXXXXXXXXXXXXXXXXXXXX. ",
"  .XXXXXXXXXXXXXXXXXXXXXXXXXXXXXXXXXXXXXXXXXXXXXXXXXXXXXXXXXXXXXXXXXXXXXXXXX.  ",
"  .XXXXXXXXXXXXXXXXXXXXXXXXXXXXXXXXXXXXXXXXXXXXXXXXXXXXXXXXXXXXXXXXXXXXXXXXX.  ",
"   ..XXXXXXXXXXXXXXXXXXXXXXXXXXXXXXXXXXXXXXXXXXXXXXXXXXXXXXXXXXXXXXXXXXXXX..   ",
"     ..XXXXXXXXXXXXXXXXXXXXXXXXXXXXXXXXXXXXXXXXXXXXXXXXXXXXXXXXXXXXXXXXX..     ",
"       .................................................................       "};
