/* XPM */
static char * King_Hearts_xpm[] = {
"79 123 14 1",
" 	c None",
".	c #000000000000",
"X	c #FFFFFFFFFFFF",
"o	c #CF3C00000000",
"O	c #E79D7DF779E7",
"+	c #DF7D3CF338E3",
"@	c #FFFFD75C0000",
"#	c #DF7D5D755965",
"$	c #D75C1C711861",
"%	c #F7DEE38DD75C",
"&	c #EFBE9E799E79",
"*	c #2081410330C2",
"=	c #F7DEBEFBBEFB",
"-	c #30C2C30BA699",
"       .................................................................       ",
"     ..XXXXXXXXXXXXXXXXXXXXXXXXXXXXXXXXXXXXXXXXXXXXXXXXXXXXXXXXXXXXXXXXX..     ",
"   ..XXXXXXXXXXXXXXXXXXXXXXXXXXXXXXXXXXXXXXXXXXXXXXXXXXXXXXXXXXXXXXXXXXXXX..   ",
"  .XXXXXXXXXXXXXXXXXXXXXXXXXXXXXXXXXXXXXXXXXXXXXXXXXXXXXXXXXXXXXXXXXXXXXXXXX.  ",
"  .XXXXXXXXXXXXXXXXXXXXXXXXXXXXXXXXXXXXXXXXXXXXXXXXXXXXXXXXXXXXXXXXXXXXXXXXX.  ",
" .XXXXXXXXXXXXXXXXXXXXXXXXXXXXXXXXXXXXXXXXXXXXXXXXXXXXXXXXXXXXXXXXXXXXXXXXXXX. ",
" .XXooooXooooXXXXXXXXXXXXXXXXXXXXXXXXXXXXXXXXXXXXXXXXXXXXXXXXXXXXXXXXXXXXXXXX. ",
".XXXooooXOoooXXXXXXXXXXXXXXXXXXXXXXXXXXXXXXXXXXXXXXXXXXXXXXXXXXXXXXXXXXXXXXXXX.",
".XXXXooXX+o+XXXXXXXXXXXXXXXXXXXXXXXXXXXXXXXXXXXXXXXXXXXXXXXXXXXXXXXXXXXXXXXXXX.",
".XXXXooX+o+XXXXXXXXXXXXXXXXXXXXXXXXXXXXXXXXXXXXXXXXXXXXXXXXXXXXXXXXXXXXXXXXXXX.",
".XXXXoooo+XXXXXXXXXXXXXXXXXXXXXXXXXXXXXXXXXXXXXXXXXXXXXXXXXXXXXXXXXXXXXXXXXXXX.",
".XXXXooooXXXXXXXXXXXXXXXXXXXXXXXXXXXXXXXXXXXXXXXXXXXXXXXXXXXXXXXXXXXXXXXXXXXXX.",
".XXXXooooXXXXXXXXXXXXXXXXXXXXXXXXXXXXXXXXXXXXXXXXXXXXXXXXXXXXXXXXXXXXXXXXXXXXX.",
".XXXXooooOXXXXXXXXXXXXXXXXXXXXXXXXXXXXXXXXXXXXXXXXXXXXXXXXXXXXXXXXXXXXXXXXXXXX.",
".XXXXooXooXXXXXXXXXXXXXXXXXXXXXXXXXXXXXXXXXXXXXXXXXXXXXXXXXXXXXXXXXXXXXXXXXXXX.",
".XXXXooXOoOXXXX.................................................XXXXXXXXXXXXXX.",
".XXXXooXXooXXXX.XXXXXXXXXXX.@@@@@@@@@@@@@@@@@@@@@@@@@@@.XXXXXXX.XXXXXXXXXXXXXX.",
".XXXXooXXOoOXXX.XXXXXXXXXXXX..@..@..@..@..@..@..@..@...XXXXXXXX.XXXXXXXXXXXXXX.",
".XXXooooXooooXX.XXXXXXXXXXXXX..X.@.XoX.@.XoX.@.XoX.@.X.XXXXXXXX.XXXXXXXXXXXXXX.",
".XXXooooXooooXX.XXXXXXXXXXXXXX..@@@oXo@@@oXo@@@oXo@@@.XXXXXXXXX.XXXXXXXXXXXXXX.",
".XXXXXXXXXXXXXX.XXXXXXXXXXXXXXX.@@@@.@@@@@.@@@@@.@@@@.XXXXXXXXX.XXXXXXXXXXXXXX.",
".XXXXXXXXXXXXXX.XXXXXXXXXXXXXXXXo@@@.@@@@@.@@@@@.@@@..XXXXXXXXX.XXXXXXXXXXXXXX.",
".XXXXXXXXXXXXXX.XXXXXXXXXXXXXXXXX....................XXXXXXXXXX.XXXXXXXXXXXXXX.",
".XXXXXXXXXXXXXX.XXXXXXXXXXXXXXXXX.X.X.X.X.X.X.X.X.X.XXXXXXXXXXX.XXXXXXXXXXXXXX.",
".XXXX#$OXO$#XXX.XXXXXXXXXXXXXXXXXX..................XXXXXXXXXXX.XXXXXXXXXXXXXX.",
".XXXOooo$oooOXX.XXXXXXXXXXXXXXXXXX.%%%%%%%%%%.@.@.@.XXXXXXXXXXX.XXXXXXXXXXXXXX.",
".XXX+ooooooo+XX.XXXXXXXXXXXXXXXXX.X@@%%%@@@@%.@.@.@.XXXXXXXXXXX.XXXXXXXXXXXXXX.",
".XXX&ooooooo&XX.XXXXXXXXXXXXXXXXX..XX.%@%%%%%.@.@.@..XXXXXXXXXX.XXXXXXXXXXXXXX.",
".XXXXOoooooOXXX.XXXXXXXXXXXXXXXXX.....%%....%%*@*@*@.XXXXXXXXXX.XXXXXXXXXXXXXX.",
".XXXXX#ooo#XXXX.XXXXXXXXXXXXXXXXX.X...%%%%..%%*@*@*@.XXXXXXXXXX.XXXXXXXXXXXXXX.",
".XXXXXX$o$XXXXX.XXXXXXXXXXXXXXXXX.....%%%...%%*@*@*@..XXXXXXXXX.XXXXXXXXXXXXXX.",
".XXXXXX=o=XXXXX.XXXXXXXXXXXXXXXXX.%%%.%.%%%%%%%*@.@*@.XXXXXXXXX.XXXXXXXXXXXXXX.",
".XXXXXXX=XXXXXX.XXXXXXXXXXXXXXXXX.%%%..%%%%%%%%*@.@*@.XXXXXXXXX.XXXXXXXXXXXXXX.",
".XXXXXXXXXXXXXX.XXXXXXXXXXXXXXXXX.%%%%.%%%%%%%oX*@*@*@.XXXXXXXX.XXXXXXXXXXXXXX.",
".XXXXXXXXXXXXXX.XXXXXXXXXXXXXXXX..%%%%%%%%%%%%oX*@*@*@..XXXXXXX.XXXXXXXXXXXXXX.",
".XXXXXXXXXXXXXX.XXXXXXXXXXXXXX..X.%%..%..%%%%oXX*@*@*@..XXXXXXX.XXXXXXXXXXXXXX.",
".XXXXXXXXXXXXXX.XXXXXXXXXXXXXoXX..%%%%.%%%%%oXoo@@*@*@.XXXXXXXX.XXXXXXXXXXXXXX.",
".XXXXXXXXXXXXXX.XXXXXXXXXXXX.XX.X.%%%@@@%%%%oXo@@.X.X*XXXXXXXXX.XXXXXXXXXXXXXX.",
".XXXXXXXXXXXXXX.XXXXXXXXXXXX....XXo%%%%%%%%oX.X...X.XXXXXXXXXXX.XXXXXXXXXXXXXX.",
".XXXXXXXXXXXXXX.XXXXXXXXXXX..X.X..Xo%o%o%o%oX.X..XX.XXXXXXXXXXX.XXXXXXXXXXXXXX.",
".XXXXXXXXXXXXXX.XXXXXXXXX..XXX.X.XoXo-o-oXoX...XX.X.XXXXXXXXXXX.XXXXXXXXXXXXXX.",
".XXXXXXXXXXXXXX.XXXXXX......XoXX..Xo-----o-.X..X......XXXXXXXXX.XXXXXXXXXXXXXX.",
".XXXXXXXXXXXXXX.XXX....--..X.X.XX..--...---.....X..XX.XXXXXXXXX.XXXXXXXXXXXXXX.",
".XXXXXXXXXXXXXX.X...-.-oo-.X....XX....X.....X..X.X.X......XXXXX.XXXXXXXXXXXXXX.",
".XXXXXXXXXXXXXX..-.-o--oo--..X....XX......XXX....X...---...XXXX.XXXXXXXXXXXXXX.",
".XXXXXXXXXXXXXX.-o-o--o--o-..X.X.X..XXXXXXX..X.X.X..-oo---...XX.XXXXXXXXXXXXXX.",
".XXXXXXXXXXXXXX..-o--o-o--o-.....X.X.......X.X.....----oo---....XXXXXXXXXXXXXX.",
".XXXXXXXXXXXXXX.-o--oo-oo--..-.X.X...X.X.X...X.X...---o--oo---..XXXXXXXXXXXXXX.",
".XXXXXXXXXXXXXX..--o--o--o--..-..X.X.X...X.X....-..--o-o---...-.XXXXXXXXXXXXXX.",
".XXXXXXXXXXXXXX....-.--oo-o-.-o-.....X.X.X.....-.-.-o---o-..--..XXXXXXXXXXXXXX.",
".XXXXXXXXXXXXXX.-.-...--o-oo-ooo-..-.......-..-....--o-o--.---..XXXXXXXXXXXXXX.",
".XXXXXXXXXXXXXX.--o-...--o--oo-o--.----.----..--.-.-o-o--..-o-..XXXXXXXXXXXXXX.",
".XXXXXXXXXXXXXX..--.....--..-o--.-.-o-o@o-o-.-.-.-..-o-.-.--o-..XXXXXXXXXXXXXX.",
".XXXXXXXXXXXXXX.-o--........-o-....--o@o@o--....-..-o--...-oo-..XXXXXXXXXXXXXX.",
".XXXXXXXXXXXXXX.--o-...-.--..-o%%%.---o@o---.-.-...-o--..--oo-..XXXXXXXXXXXXXX.",
".XXXXXXXXXXXXXX..---..-o-o-...%%....---o----.-.--..--....-ooo-..XXXXXXXXXXXXXX.",
".XXXXXXXXXXXXXX.---...--o-...%%%%%%%.-o@o--...-o-..-o--.--o---..XXXXXXXXXXXXXX.",
".XXXXXXXXXXXXXX..-o-..-o-o-..%%%.....--o---..-ooo-.---..-o--....XXXXXXXXXXXXXX.",
".XXXXXXXXXXXXXX.-o--...---...%%%%%%%.-o-o--..--o-.----.---....-.XXXXXXXXXXXXXX.",
".XXXXXXXXXXXXXX.---...-.-.-..%%%.....------.-.-o-.---..-....---.XXXXXXXXXXXXXX.",
".XXXXXXXXXXXXXX..-.-....-...-.%%%%%%.--.---....--.--......---...XXXXXXXXXXXXXX.",
".XXXXXXXXXXXXXX.................................................XXXXXXXXXXXXXX.",
".XXXXXXXXXXXXXX...---......--.--....---.--.%%%%%%.-...-....-.-..XXXXXXXXXXXXXX.",
".XXXXXXXXXXXXXX.---....-..---.-o-.-.------.....%%%..-.-.-...---.XXXXXXXXXXXXXX.",
".XXXXXXXXXXXXXX.-....---.----.-o--..--o-o-.%%%%%%%...---...--o-.XXXXXXXXXXXXXX.",
".XXXXXXXXXXXXXX....--o-..---.-ooo-..---o--.....%%%..-o-o-..-o-..XXXXXXXXXXXXXX.",
".XXXXXXXXXXXXXX..---o--.--o-..-o-...--o@o-.%%%%%%%...-o--...---.XXXXXXXXXXXXXX.",
".XXXXXXXXXXXXXX..-ooo-....--..--.-.----o---....%%...-o-o-..---..XXXXXXXXXXXXXX.",
".XXXXXXXXXXXXXX..-oo--..--o-...-.-.---o@o---.%%%o-..--.-...-o--.XXXXXXXXXXXXXX.",
".XXXXXXXXXXXXXX..-oo-...--o-..-....--o@o@o--....-o-........--o-.XXXXXXXXXXXXXX.",
".XXXXXXXXXXXXXX..-o--.-.-o-..-.-.-.-o-o@o-o-.-.--o-..--.....--..XXXXXXXXXXXXXX.",
".XXXXXXXXXXXXXX..-o-..--o-o-.-.--..----.----.--o-oo--o--...-o--.XXXXXXXXXXXXXX.",
".XXXXXXXXXXXXXX..---.--o-o--....-..-.......-..-ooo-oo-o--...-.-.XXXXXXXXXXXXXX.",
".XXXXXXXXXXXXXX..--..-o---o-.-.-.....X.X.X.....-o-.-o-oo--.-....XXXXXXXXXXXXXX.",
".XXXXXXXXXXXXXX.-...---o-o--..-....X.X...X.X.X..-..--o--o--o--..XXXXXXXXXXXXXX.",
".XXXXXXXXXXXXXX..---oo--o---...X.X...X.X.X...X.X.-..--oo-oo--o-.XXXXXXXXXXXXXX.",
".XXXXXXXXXXXXXX....---oo----.....X.X.......X.X.....-o--o-o--o-..XXXXXXXXXXXXXX.",
".XXXXXXXXXXXXXX.XX...---oo-..X.X.X..XXXXXXX..X.X.X..-o--o--o-o-.XXXXXXXXXXXXXX.",
".XXXXXXXXXXXXXX.XXXX...---...X....XXX......XX....X..--oo--o-.-..XXXXXXXXXXXXXX.",
".XXXXXXXXXXXXXX.XXXXX......X.X.X..X.....X....XX....X.-oo-.-...X.XXXXXXXXXXXXXX.",
".XXXXXXXXXXXXXX.XXXXXXXXX.XX..X.....---...--..XX.X.X..--....XXX.XXXXXXXXXXXXXX.",
".XXXXXXXXXXXXXX.XXXXXXXXX......X..X.-o-----oX..XXoX......XXXXXX.XXXXXXXXXXXXXX.",
".XXXXXXXXXXXXXX.XXXXXXXXXXX.X.XX...XoXo-o-oXoX.X.XXX..XXXXXXXXX.XXXXXXXXXXXXXX.",
".XXXXXXXXXXXXXX.XXXXXXXXXXX.XX..X.Xo%o%o%o%oX..X.X..XXXXXXXXXXX.XXXXXXXXXXXXXX.",
".XXXXXXXXXXXXXX.XXXXXXXXXXX.X...X.Xo%%%%%%%%oXX....XXXXXXXXXXXX.XXXXXXXXXXXXXX.",
".XXXXXXXXXXXXXX.XXXXXXXXX*X.X.@@oXo%%%%@@@%%%.X.XX.XXXXXXXXXXXX.XXXXXXXXXXXXXX.",
".XXXXXXXXXXXXXX.XXXXXXXX.@*@*@@ooXo%%%%%.%%%%..XXoXXXXXXXXXXXXX.XXXXXXXXXXXXXX.",
".XXXXXXXXXXXXXX.XXXXXXX..@*@*@*XXo%%%%..%..%%.X..XXXXXXXXXXXXXX.XXXXXXXXXXXXXX.",
".XXXXXXXXXXXXXX.XXXXXXX..@*@*@*Xo%%%%%%%%%%%%..XXXXXXXXXXXXXXXX.XXXXXXXXXXXXXX.",
".XXXXXXXXXXXXXX.XXXXXXXX.@*@*@*Xo%%%%%%%.%%%%.XXXXXXXXXXXXXXXXX.XXXXXXXXXXXXXX.",
".XXXXXXXXXXXXXX.XXXXXXXXX.@*@.@*%%%%%%%%..%%%.XXXXXXXXXXXXXXXXX.XXXXXX=XXXXXXX.",
".XXXXXXXXXXXXXX.XXXXXXXXX.@*@.@*%%%%%%%.%.%%%.XXXXXXXXXXXXXXXXX.XXXXX=o=XXXXXX.",
".XXXXXXXXXXXXXX.XXXXXXXXX..@*@*@*%%...%%%.....XXXXXXXXXXXXXXXXX.XXXXX$o$XXXXXX.",
".XXXXXXXXXXXXXX.XXXXXXXXXX.@*@*@*%%..%%%%...X.XXXXXXXXXXXXXXXXX.XXXX#ooo#XXXXX.",
".XXXXXXXXXXXXXX.XXXXXXXXXX.@*@*@*%%....%%.....XXXXXXXXXXXXXXXXX.XXXOoooooOXXXX.",
".XXXXXXXXXXXXXX.XXXXXXXXXX..@.@.@.%%%%%@%.XX..XXXXXXXXXXXXXXXXX.XX&ooooooo&XXX.",
".XXXXXXXXXXXXXX.XXXXXXXXXXX.@.@.@.%@@@@%%%@@X.XXXXXXXXXXXXXXXXX.XX+ooooooo+XXX.",
".XXXXXXXXXXXXXX.XXXXXXXXXXX.@.@.@.%%%%%%%%%%.XXXXXXXXXXXXXXXXXX.XXOooo$oooOXXX.",
".XXXXXXXXXXXXXX.XXXXXXXXXXX..................XXXXXXXXXXXXXXXXXX.XXX#$OXO$#XXXX.",
".XXXXXXXXXXXXXX.XXXXXXXXXXX.X.X.X.X.X.X.X.X.X.XXXXXXXXXXXXXXXXX.XXXXXXXXXXXXXX.",
".XXXXXXXXXXXXXX.XXXXXXXXXX....................XXXXXXXXXXXXXXXXX.XXXXXXXXXXXXXX.",
".XXXXXXXXXXXXXX.XXXXXXXXX..@@@.@@@@@.@@@@@.@@@oXXXXXXXXXXXXXXXX.XXXXXXXXXXXXXX.",
".XXXXXXXXXXXXXX.XXXXXXXXX.@@@@.@@@@@.@@@@@.@@@@.XXXXXXXXXXXXXXX.XXXXXXXXXXXXXX.",
".XXXXXXXXXXXXXX.XXXXXXXXX.@@@oXo@@@oXo@@@oXo@@@..XXXXXXXXXXXXXX.XXooooXooooXXX.",
".XXXXXXXXXXXXXX.XXXXXXXX.X.@.XoX.@.XoX.@.XoX.@.X..XXXXXXXXXXXXX.XXooooXooooXXX.",
".XXXXXXXXXXXXXX.XXXXXXXX...@..@..@..@..@..@..@..@..XXXXXXXXXXXX.XXXOoOXXooXXXX.",
".XXXXXXXXXXXXXX.XXXXXXX.@@@@@@@@@@@@@@@@@@@@@@@@@@@.XXXXXXXXXXX.XXXXooXXooXXXX.",
".XXXXXXXXXXXXXX.................................................XXXXOoOXooXXXX.",
".XXXXXXXXXXXXXXXXXXXXXXXXXXXXXXXXXXXXXXXXXXXXXXXXXXXXXXXXXXXXXXXXXXXXooXooXXXX.",
".XXXXXXXXXXXXXXXXXXXXXXXXXXXXXXXXXXXXXXXXXXXXXXXXXXXXXXXXXXXXXXXXXXXXOooooXXXX.",
".XXXXXXXXXXXXXXXXXXXXXXXXXXXXXXXXXXXXXXXXXXXXXXXXXXXXXXXXXXXXXXXXXXXXXooooXXXX.",
".XXXXXXXXXXXXXXXXXXXXXXXXXXXXXXXXXXXXXXXXXXXXXXXXXXXXXXXXXXXXXXXXXXXXXooooXXXX.",
".XXXXXXXXXXXXXXXXXXXXXXXXXXXXXXXXXXXXXXXXXXXXXXXXXXXXXXXXXXXXXXXXXXXX+ooooXXXX.",
".XXXXXXXXXXXXXXXXXXXXXXXXXXXXXXXXXXXXXXXXXXXXXXXXXXXXXXXXXXXXXXXXXXX+o+XooXXXX.",
".XXXXXXXXXXXXXXXXXXXXXXXXXXXXXXXXXXXXXXXXXXXXXXXXXXXXXXXXXXXXXXXXXX+o+XXooXXXX.",
".XXXXXXXXXXXXXXXXXXXXXXXXXXXXXXXXXXXXXXXXXXXXXXXXXXXXXXXXXXXXXXXXXoooOXooooXXX.",
" .XXXXXXXXXXXXXXXXXXXXXXXXXXXXXXXXXXXXXXXXXXXXXXXXXXXXXXXXXXXXXXXXooooXooooXX. ",
" .XXXXXXXXXXXXXXXXXXXXXXXXXXXXXXXXXXXXXXXXXXXXXXXXXXXXXXXXXXXXXXXXXXXXXXXXXXX. ",
"  .XXXXXXXXXXXXXXXXXXXXXXXXXXXXXXXXXXXXXXXXXXXXXXXXXXXXXXXXXXXXXXXXXXXXXXXXX.  ",
"  .XXXXXXXXXXXXXXXXXXXXXXXXXXXXXXXXXXXXXXXXXXXXXXXXXXXXXXXXXXXXXXXXXXXXXXXXX.  ",
"   ..XXXXXXXXXXXXXXXXXXXXXXXXXXXXXXXXXXXXXXXXXXXXXXXXXXXXXXXXXXXXXXXXXXXXX..   ",
"     ..XXXXXXXXXXXXXXXXXXXXXXXXXXXXXXXXXXXXXXXXXXXXXXXXXXXXXXXXXXXXXXXXX..     ",
"       .................................................................       "};
