/* XPM */
static char * King_Spades_xpm[] = {
"79 123 16 1",
" 	c None",
".	c #000000000000",
"X	c #FFFFFFFFFFFF",
"o	c #79E77DF779E7",
"O	c #38E33CF338E3",
"+	c #FFFFD75C0000",
"@	c #DF7DDF7DDF7D",
"#	c #59655D755965",
"$	c #2081410330C2",
"%	c #F7DEE38DD75C",
"&	c #18611C711861",
"*	c #9E799E799E79",
"=	c #BEFBBEFBBEFB",
"-	c #FFFF00000000",
";	c #30C2C30BA699",
":	c #30C2A289C71B",
"       .................................................................       ",
"     ..XXXXXXXXXXXXXXXXXXXXXXXXXXXXXXXXXXXXXXXXXXXXXXXXXXXXXXXXXXXXXXXXX..     ",
"   ..XXXXXXXXXXXXXXXXXXXXXXXXXXXXXXXXXXXXXXXXXXXXXXXXXXXXXXXXXXXXXXXXXXXXX..   ",
"  .XXXXXXXXXXXXXXXXXXXXXXXXXXXXXXXXXXXXXXXXXXXXXXXXXXXXXXXXXXXXXXXXXXXXXXXXX.  ",
"  .XXXXXXXXXXXXXXXXXXXXXXXXXXXXXXXXXXXXXXXXXXXXXXXXXXXXXXXXXXXXXXXXXXXXXXXXX.  ",
" .XXXXXXXXXXXXXXXXXXXXXXXXXXXXXXXXXXXXXXXXXXXXXXXXXXXXXXXXXXXXXXXXXXXXXXXXXXX. ",
" .XX....X....XXXXXXXXXXXXXXXXXXXXXXXXXXXXXXXXXXXXXXXXXXXXXXXXXXXXXXXXXXXXXXXX. ",
".XXX....Xo...XXXXXXXXXXXXXXXXXXXXXXXXXXXXXXXXXXXXXXXXXXXXXXXXXXXXXXXXXXXXXXXXX.",
".XXXX..XXO.OXXXXXXXXXXXXXXXXXXXXXXXXXXXXXXXXXXXXXXXXXXXXXXXXXXXXXXXXXXXXXXXXXX.",
".XXXX..XO.OXXXXXXXXXXXXXXXXXXXXXXXXXXXXXXXXXXXXXXXXXXXXXXXXXXXXXXXXXXXXXXXXXXX.",
".XXXX....OXXXXXXXXXXXXXXXXXXXXXXXXXXXXXXXXXXXXXXXXXXXXXXXXXXXXXXXXXXXXXXXXXXXX.",
".XXXX....XXXXXXXXXXXXXXXXXXXXXXXXXXXXXXXXXXXXXXXXXXXXXXXXXXXXXXXXXXXXXXXXXXXXX.",
".XXXX....XXXXXXXXXXXXXXXXXXXXXXXXXXXXXXXXXXXXXXXXXXXXXXXXXXXXXXXXXXXXXXXXXXXXX.",
".XXXX....oXXXXXXXXXXXXXXXXXXXXXXXXXXXXXXXXXXXXXXXXXXXXXXXXXXXXXXXXXXXXXXXXXXXX.",
".XXXX..X..XXXXXXXXXXXXXXXXXXXXXXXXXXXXXXXXXXXXXXXXXXXXXXXXXXXXXXXXXXXXXXXXXXXX.",
".XXXX..Xo.oXXXX.................................................XXXXXXXXXXXXXX.",
".XXXX..XX..XXXX.XXXXXXXXXXXXX.+.++++.+++++.+++++.+++++.++.XXXXX.XXXXXXXXXXXXXX.",
".XXXX..XXo.oXXX.XXXXXXXXXXXXXX...++...+++...+++...+++..+.XXXXXX.XXXXXXXXXXXXXX.",
".XXX....X....XX.XXXXXXXXXXXXXXX..+.....+.....+.....+....XXXXXXX.XXXXXXXXXXXXXX.",
".XXX....X....XX.XXXXXXXXXXXXXXXX.+.....+.....+.....++..XXXXXXXX.XXXXXXXXXXXXXX.",
".XXXXXXXXXXXXXX.XXXXXXXXXXXXXXXXX.++.+++++.+++++.++++.XXXXXXXXX.XXXXXXXXXXXXXX.",
".XXXXXXXXXXXXXX.XXXXXXXXXXXXXXXXXX....................XXXXXXXXX.XXXXXXXXXXXXXX.",
".XXXXXXX@XXXXXX.XXXXXXXXXXXXXXXXXX....................XXXXXXXXX.XXXXXXXXXXXXXX.",
".XXXXXXX#XXXXXX.XXXXXXXXXXXXXXXXXX.$.$.$.%%%%%%%%%%%%.XXXXXXX.X.XXXXXXXXXXXXXX.",
".XXXXXXo.oXXXXX.XXXXXXXXXXXXXXXXXX.$.$.$.%%....%%.....XXXXXX....XXXXXXXXXXXXXX.",
".XXXXXo...oXXXX.XXXXXXXXXXXXXXXXXX.$.$.$.%.%%%%%.%%%%.XXXXX..+..XXXXXXXXXXXXXX.",
".XXXXo.....oXXX.XXXXXXXXXXXXXXXXXX.$.$.$.%%...%.....%.XXXX..+++.XXXXXXXXXXXXXX.",
".XXX#.......#XX.XXXXXXXXXXXXXXXXXX.$.$.$.%...%%.%..%%.XXXX.++++.XXXXXXXXXXXXXX.",
".XXX....&....XX.XXXXXXXXXXXXXXXXXX.$.$.$.%%...%.....%.XXXX.++.+.XXXXXXXXXXXXXX.",
".XXXO..*o*..OXX.XXXXXXXXXXXXXXXXXX.$.$.$.%%%%%%%.%%%%.XXXX.++.+.XXXXXXXXXXXXXX.",
".XXXX*=X&X=*XXX.XXXXXXXXXXXXXXXXXX.$.$.$.%%%%%%%.%%%%.XXXX.+.++.XXXXXXXXXXXXXX.",
".XXXXXX@.@XXXXX.XXXXXXXXXXXXXXXXXX.$.$.$.%%%%%%..%%%%.XXXX.+.++.XXXXXXXXXXXXXX.",
".XXXXXX=o=XXXXX.XXXXXXXXXXXXXXXXXX.$.$.$.%.%..%.%..%..XXXX.+.++.XXXXXXXXXXXXXX.",
".XXXXXXXXXXXXXX.XXXXXXXXXXXXXXXXXX.$.$.$.%...%%%%%....XXXX.++.+.XXXXXXXXXXXXXX.",
".XXXXXXXXXXXXXX.XXXXXXXXXXXXXXXXXX.$.$.$.%%%%..%..%%%.XXXX.++.+.XXXXXXXXXXXXXX.",
".XXXXXXXXXXXXXX.XXXXXXXXXXXXXXXXXX.$.$.$.%%%%%%.%%%%%.XXXX.++.+.XXXXXXXXXXXXXX.",
".XXXXXXXXXXXXXX.XXXXXXXXXXXXXXXXX..$.$.$.%%%%%...%%%%...XX.++.+.XXXXXXXXXXXXXX.",
".XXXXXXXXXXXXXX.XXXXXXXXXXXXXXXX.$.$.$.$..%%%%%%%%%%%..$.X.+.++.XXXXXXXXXXXXXX.",
".XXXXXXXXXXXXXX.XXXXXXXXXXXXXXXX.$.$.$.$.$..%.%.%.%..$.$.X.+.++.XXXXXXXXXXXXXX.",
".XXXXXXXXXXXXXX.XXXXXXXXXXXXXXX...$.$.$...$$.$...$.$$.$.XX.+.++.XXXXXXXXXXXXXX.",
".XXXXXXXXXXXXXX.XXXXXXXXXXXXX..........................XXX.+..+.XXXXXXXXXXXXXX.",
".XXXXXXXXXXXXXX.XXXXXXXXXX....-.;;;;;;;;;;;;;;;;;;.---...X.+..+.XXXXXXXXXXXXXX.",
".XXXXXXXXXXXXXX.XXXXXXXX..--..-....................---.;.X.+..+.XXXXXXXXXXXXXX.",
".XXXXXXXXXXXXXX.XXXXXX.....-----.X.X.X.X.X.X.X.X....-.;.;..++...XXXXXXXXXXXXXX.",
".XXXXXXXXXXXXXX.XXX...;;...--..-.................-..-.;.;..++...XXXXXXXXXXXXXX.",
".XXXXXXXXXXXXXX.X..;...;;...-..-.:::::::::::::::.----.;.;..++...XXXXXXXXXXXXXX.",
".XXXXXXXXXXXXXX...;;;...;;..--.-.:::++:::::+++:.-.--.;.;.;.+++..XXXXXXXXXXXXXX.",
".XXXXXXXXXXXXXX....;;;...;...----.:+++::::+::::.-..-.;.;.;.+++..XXXXXXXXXXXXXX.",
".XXXXXXXXXXXXXX.....;;;...;;.-..-.::+++++++::::.-..-.;.;.;.+++..XXXXXXXXXXXXXX.",
".XXXXXXXXXXXXXX.;;...;;.;.;;.-..-.:::+++++++::.----.;.;;.;.+++..XXXXXXXXXXXXXX.",
".XXXXXXXXXXXXXX.;;;....;.;...--.-.:++:++++++::.-.--.;.;.;..+++..XXXXXXXXXXXXXX.",
".XXXXXXXXXXXXXX..;;;..;.;.;;;.---.::::+:::+:+:.-..-.;.;.;..+++..XXXXXXXXXXXXXX.",
".XXXXXXXXXXXXXX...;;...;...;;.----.::+:::+::+:.-..-.;.;.;..++...XXXXXXXXXXXXXX.",
".XXXXXXXXXXXXXX....;.;;.....;.-..-.:::::::::::.---.;.;;.;..++...XXXXXXXXXXXXXX.",
".XXXXXXXXXXXXXX.;.....;.;.....-..-............-.--.;.;.;...++...XXXXXXXXXXXXXX.",
".XXXXXXXXXXXXXX.;;...;.;;;....--.-............-..-.;.;.;........XXXXXXXXXXXXXX.",
".XXXXXXXXXXXXXX.;;.....;;;;....---..;.;.;.;.;.-..-.;.;.;.%%%.%%.XXXXXXXXXXXXXX.",
".XXXXXXXXXXXXXX......%.;;;.....----.;.;.;.;.;.---....;.;........XXXXXXXXXXXXXX.",
".XXXXXXXXXXXXXX.%%%.%...;....;.-..-..;.;.;.;.;.--.;;;..;;.%.%%%.XXXXXXXXXXXXXX.",
".XXXXXXXXXXXXXX.......%.....;;.-..-...;;;..;.;..-.;;;.;.;.......XXXXXXXXXXXXXX.",
".XXXXXXXXXXXXXX.%%%.%..%...;;;.--.-....;...;.;..-....;.;..%.%%%.XXXXXXXXXXXXXX.",
".XXXXXXXXXXXXXX.................................................XXXXXXXXXXXXXX.",
".XXXXXXXXXXXXXX.%%%.%..;.;....-..;.;...;....-.--.;;;...%..%.%%%.XXXXXXXXXXXXXX.",
".XXXXXXXXXXXXXX.......;.;.;;;.-..;.;..;;;...-..-.;;.....%.......XXXXXXXXXXXXXX.",
".XXXXXXXXXXXXXX.%%%.%.;;..;;;.--.;.;.;.;.;..-..-.;....;...%.%%%.XXXXXXXXXXXXXX.",
".XXXXXXXXXXXXXX........;.;....---.;.;.;.;.;.----.....;;;.%......XXXXXXXXXXXXXX.",
".XXXXXXXXXXXXXX.%%.%%%.;.;.;.-..-.;.;.;.;.;..---....;;;;.....;;.XXXXXXXXXXXXXX.",
".XXXXXXXXXXXXXX........;.;.;.-..-............-.--....;;;.;...;;.XXXXXXXXXXXXXX.",
".XXXXXXXXXXXXXX...++...;.;.;.--.-............-..-.....;.;.....;.XXXXXXXXXXXXXX.",
".XXXXXXXXXXXXXX...++..;.;;.;.---.:::::::::::.-..-.;.....;;.;....XXXXXXXXXXXXXX.",
".XXXXXXXXXXXXXX...++..;.;.;.-..-.:+::+:::+::.----.;;...;...;;...XXXXXXXXXXXXXX.",
".XXXXXXXXXXXXXX..+++..;.;.;.-..-.:+:+:::+::::.---.;;;.;.;..;;;..XXXXXXXXXXXXXX.",
".XXXXXXXXXXXXXX..+++..;.;.;.--.-.::++++++:++:.-.--...;.;....;;;.XXXXXXXXXXXXXX.",
".XXXXXXXXXXXXXX..+++.;.;;.;.----.::+++++++:::.-..-.;;.;.;;...;;.XXXXXXXXXXXXXX.",
".XXXXXXXXXXXXXX..+++.;.;.;.-..-.::::+++++++::.-..-.;;...;;;.....XXXXXXXXXXXXXX.",
".XXXXXXXXXXXXXX..+++.;.;.;.-..-.::::+::::+++:.----...;...;;;....XXXXXXXXXXXXXX.",
".XXXXXXXXXXXXXX..+++.;.;.;.--.-.:+++:::::++:::.-.--..;;...;;;...XXXXXXXXXXXXXX.",
".XXXXXXXXXXXXXX...++..;.;.----.:::::::::::::::.-..-...;;...;..X.XXXXXXXXXXXXXX.",
".XXXXXXXXXXXXXX...++..;.;.-..-.................-..--...;;...XXX.XXXXXXXXXXXXXX.",
".XXXXXXXXXXXXXX...++..;.;.-....X.X.X.X.X.X.X.X.-----.....XXXXXX.XXXXXXXXXXXXXX.",
".XXXXXXXXXXXXXX.+..+.X.;.---....................-..--..XXXXXXXX.XXXXXXXXXXXXXX.",
".XXXXXXXXXXXXXX.+..+.X...---.;;;;;;;;;;;;;;;;;;.-....XXXXXXXXXX.XXXXXXXXXXXXXX.",
".XXXXXXXXXXXXXX.+..+.XXX..........................XXXXXXXXXXXXX.XXXXXXXXXXXXXX.",
".XXXXXXXXXXXXXX.++.+.XX.$.$$.$...$.$$...$.$.$...XXXXXXXXXXXXXXX.XXXXXXXXXXXXXX.",
".XXXXXXXXXXXXXX.++.+.X.$.$..%.%.%.%..$.$.$.$.$.XXXXXXXXXXXXXXXX.XXXXXXXXXXXXXX.",
".XXXXXXXXXXXXXX.++.+.X.$..%%%%%%%%%%%..$.$.$.$.XXXXXXXXXXXXXXXX.XXXXXXXXXXXXXX.",
".XXXXXXXXXXXXXX.+.++.XX...%%%%...%%%%%.$.$.$..XXXXXXXXXXXXXXXXX.XXXXXXXXXXXXXX.",
".XXXXXXXXXXXXXX.+.++.XXXX.%%%%%.%%%%%%.$.$.$.XXXXXXXXXXXXXXXXXX.XXXXXXXXXXXXXX.",
".XXXXXXXXXXXXXX.+.++.XXXX.%%%..%..%%%%.$.$.$.XXXXXXXXXXXXXXXXXX.XXXXXXXXXXXXXX.",
".XXXXXXXXXXXXXX.+.++.XXXX....%%%%%...%.$.$.$.XXXXXXXXXXXXXXXXXX.XXXXXXXXXXXXXX.",
".XXXXXXXXXXXXXX.++.+.XXXX..%..%.%..%.%.$.$.$.XXXXXXXXXXXXXXXXXX.XXXXX=o=XXXXXX.",
".XXXXXXXXXXXXXX.++.+.XXXX.%%%%..%%%%%%.$.$.$.XXXXXXXXXXXXXXXXXX.XXXXX@.@XXXXXX.",
".XXXXXXXXXXXXXX.++.+.XXXX.%%%%.%%%%%%%.$.$.$.XXXXXXXXXXXXXXXXXX.XXX*=X&X=*XXXX.",
".XXXXXXXXXXXXXX.+.++.XXXX.%%%%.%%%%%%%.$.$.$.XXXXXXXXXXXXXXXXXX.XXO..*o*..OXXX.",
".XXXXXXXXXXXXXX.+.++.XXXX.%.....%...%%.$.$.$.XXXXXXXXXXXXXXXXXX.XX....&....XXX.",
".XXXXXXXXXXXXXX.++++.XXXX.%%..%.%%...%.$.$.$.XXXXXXXXXXXXXXXXXX.XX#.......#XXX.",
".XXXXXXXXXXXXXX.+++..XXXX.%.....%...%%.$.$.$.XXXXXXXXXXXXXXXXXX.XXXo.....oXXXX.",
".XXXXXXXXXXXXXX..+..XXXXX.%%%%.%%%%%.%.$.$.$.XXXXXXXXXXXXXXXXXX.XXXXo...oXXXXX.",
".XXXXXXXXXXXXXX....XXXXXX.....%%....%%.$.$.$.XXXXXXXXXXXXXXXXXX.XXXXXo.oXXXXXX.",
".XXXXXXXXXXXXXX.X.XXXXXXX.%%%%%%%%%%%%.$.$.$.XXXXXXXXXXXXXXXXXX.XXXXXX#XXXXXXX.",
".XXXXXXXXXXXXXX.XXXXXXXXX....................XXXXXXXXXXXXXXXXXX.XXXXXX@XXXXXXX.",
".XXXXXXXXXXXXXX.XXXXXXXXX....................XXXXXXXXXXXXXXXXXX.XXXXXXXXXXXXXX.",
".XXXXXXXXXXXXXX.XXXXXXXXX.++++.+++++.+++++.++.XXXXXXXXXXXXXXXXX.XXXXXXXXXXXXXX.",
".XXXXXXXXXXXXXX.XXXXXXXX..++.....+.....+.....+.XXXXXXXXXXXXXXXX.XX....X....XXX.",
".XXXXXXXXXXXXXX.XXXXXXX....+.....+.....+.....+..XXXXXXXXXXXXXXX.XX....X....XXX.",
".XXXXXXXXXXXXXX.XXXXXX.+..+++...+++...+++...++...XXXXXXXXXXXXXX.XXXo.oXX..XXXX.",
".XXXXXXXXXXXXXX.XXXXX.++.+++++.+++++.+++++.++++.+.XXXXXXXXXXXXX.XXXX..XX..XXXX.",
".XXXXXXXXXXXXXX.................................................XXXXo.oX..XXXX.",
".XXXXXXXXXXXXXXXXXXXXXXXXXXXXXXXXXXXXXXXXXXXXXXXXXXXXXXXXXXXXXXXXXXXX..X..XXXX.",
".XXXXXXXXXXXXXXXXXXXXXXXXXXXXXXXXXXXXXXXXXXXXXXXXXXXXXXXXXXXXXXXXXXXXo....XXXX.",
".XXXXXXXXXXXXXXXXXXXXXXXXXXXXXXXXXXXXXXXXXXXXXXXXXXXXXXXXXXXXXXXXXXXXX....XXXX.",
".XXXXXXXXXXXXXXXXXXXXXXXXXXXXXXXXXXXXXXXXXXXXXXXXXXXXXXXXXXXXXXXXXXXXX....XXXX.",
".XXXXXXXXXXXXXXXXXXXXXXXXXXXXXXXXXXXXXXXXXXXXXXXXXXXXXXXXXXXXXXXXXXXXO....XXXX.",
".XXXXXXXXXXXXXXXXXXXXXXXXXXXXXXXXXXXXXXXXXXXXXXXXXXXXXXXXXXXXXXXXXXXO.OX..XXXX.",
".XXXXXXXXXXXXXXXXXXXXXXXXXXXXXXXXXXXXXXXXXXXXXXXXXXXXXXXXXXXXXXXXXXO.OXX..XXXX.",
".XXXXXXXXXXXXXXXXXXXXXXXXXXXXXXXXXXXXXXXXXXXXXXXXXXXXXXXXXXXXXXXXX...oX....XXX.",
" .XXXXXXXXXXXXXXXXXXXXXXXXXXXXXXXXXXXXXXXXXXXXXXXXXXXXXXXXXXXXXXXX....X....XX. ",
" .XXXXXXXXXXXXXXXXXXXXXXXXXXXXXXXXXXXXXXXXXXXXXXXXXXXXXXXXXXXXXXXXXXXXXXXXXXX. ",
"  .XXXXXXXXXXXXXXXXXXXXXXXXXXXXXXXXXXXXXXXXXXXXXXXXXXXXXXXXXXXXXXXXXXXXXXXXX.  ",
"  .XXXXXXXXXXXXXXXXXXXXXXXXXXXXXXXXXXXXXXXXXXXXXXXXXXXXXXXXXXXXXXXXXXXXXXXXX.  ",
"   ..XXXXXXXXXXXXXXXXXXXXXXXXXXXXXXXXXXXXXXXXXXXXXXXXXXXXXXXXXXXXXXXXXXXXX..   ",
"     ..XXXXXXXXXXXXXXXXXXXXXXXXXXXXXXXXXXXXXXXXXXXXXXXXXXXXXXXXXXXXXXXXX..     ",
"       .................................................................       "};
