/* XPM */
static char * King_Diamonds_xpm[] = {
"79 123 15 1",
" 	c None",
".	c #000000000000",
"X	c #FFFFFFFFFFFF",
"o	c #CF3C00000000",
"O	c #E79D7DF779E7",
"+	c #DF7D3CF338E3",
"@	c #FFFFD75C0000",
"#	c #EFBE9E799E79",
"$	c #F7DEBEFBBEFB",
"%	c #2081410330C2",
"&	c #FFFFDF7DDF7D",
"*	c #D75C1C711861",
"=	c #F7DEE38DD75C",
"-	c #30C2A289C71B",
";	c #FFFF00000000",
"       .................................................................       ",
"     ..XXXXXXXXXXXXXXXXXXXXXXXXXXXXXXXXXXXXXXXXXXXXXXXXXXXXXXXXXXXXXXXXX..     ",
"   ..XXXXXXXXXXXXXXXXXXXXXXXXXXXXXXXXXXXXXXXXXXXXXXXXXXXXXXXXXXXXXXXXXXXXX..   ",
"  .XXXXXXXXXXXXXXXXXXXXXXXXXXXXXXXXXXXXXXXXXXXXXXXXXXXXXXXXXXXXXXXXXXXXXXXXX.  ",
"  .XXXXXXXXXXXXXXXXXXXXXXXXXXXXXXXXXXXXXXXXXXXXXXXXXXXXXXXXXXXXXXXXXXXXXXXXX.  ",
" .XXXXXXXXXXXXXXXXXXXXXXXXXXXXXXXXXXXXXXXXXXXXXXXXXXXXXXXXXXXXXXXXXXXXXXXXXXX. ",
" .XXooooXooooXXXXXXXXXXXXXXXXXXXXXXXXXXXXXXXXXXXXXXXXXXXXXXXXXXXXXXXXXXXXXXXX. ",
".XXXooooXOoooXXXXXXXXXXXXXXXXXXXXXXXXXXXXXXXXXXXXXXXXXXXXXXXXXXXXXXXXXXXXXXXXX.",
".XXXXooXX+o+XXXXXXXXXXXXXXXXXXXXXXXXXXXXXXXXXXXXXXXXXXXXXXXXXXXXXXXXXXXXXXXXXX.",
".XXXXooX+o+XXXXXXXXXXXXXXXXXXXXXXXXXXXXXXXXXXXXXXXXXXXXXXXXXXXXXXXXXXXXXXXXXXX.",
".XXXXoooo+XXXXXXXXXXXXXXXXXXXXXXXXXXXXXXXXXXXXXXXXXXXXXXXXXXXXXXXXXXXXXXXXXXXX.",
".XXXXooooXXXXXXXXXXXXXXXXXXXXXXXXXXXXXXXXXXXXXXXXXXXXXXXXXXXXXXXXXXXXXXXXXXXXX.",
".XXXXooooXXXXXXXXXXXXXXXXXXXXXXXXXXXXXXXXXXXXXXXXXXXXXXXXXXXXXXXXXXXXXXXXXXXXX.",
".XXXXooooOXXXXXXXXXXXXXXXXXXXXXXXXXXXXXXXXXXXXXXXXXXXXXXXXXXXXXXXXXXXXXXXXXXXX.",
".XXXXooXooXXXXXXXXXXXXXXXXXXXXXXXXXXXXXXXXXXXXXXXXXXXXXXXXXXXXXXXXXXXXXXXXXXXX.",
".XXXXooXOoOXXXX.................................................XXXXXXXXXXXXXX.",
".XXXXooXXooXXXX.XXXXXXXXXX..@.@@@.@@@.@@@.@@@.@@@.@@@.@..XXXXXX.XXXXXXXXXXXXXX.",
".XXXXooXXOoOXXX.XXXXXXXXXXX..@.@.@.@.@.@.@.@.@.@.@.@.@..XXXXXXX.XXXXXXXXXXXXXX.",
".XXXooooXooooXX.XXXXXXXXXXXX..@@@.@@@.@@@.@@@.@@@.@@@...XXX.XXX.XXXXXXXXXXXXXX.",
".XXXooooXooooXX.XXXXXXXXXXXXX...@@@.@@@.@@@.@@@.@@@.@@.XXX.XXXX.XXXXXXXXXXXXXX.",
".XXXXXXXXXXXXXX.XXXXXXXXXXXXXX...@.@.@.@.@.@.@.@.@.@...XX..XXXX.XXXXXXXXXXXXXX.",
".XXXXXXXXXXXXXX.XXXXXXXXXXXXXXX..@@.@@@.@@@.@@@.@@@.@.XX.@.XXX..XXXXXXXXXXXXXX.",
".XXXXXXX#XXXXXX.XXXXXXXXXXXXXXXX.............@@@@.@@..XX.@.XX...XXXXXXXXXXXXXX.",
".XXXXXX$o$XXXXX.XXXXXXXXXXXXXXXXX................@.@.XX.@@.XX.%.XXXXXXXXXXXXXX.",
".XXXXX&*o*&XXXX.XXXXXXXXXXXXXXXXX.========........@@.XX.@.@.X...XXXXXXXXXXXXXX.",
".XXXX&*ooo*&XXX.XXXXXXXXXXXXXXXXX.==....====.........X.@@..@....XXXXXXXXXXXXXX.",
".XXX$*ooooo*$XX.XXXXXXXXXXXXXXXXX.=.====.===.%.......X...@...@@.XXXXXXXXXXXXXX.",
".XX#ooooooooo#X.XXXXXXXXXXXXXXXXX.=....=====.%.%.....X...@...@@.XXXXXXXXXXXXXX.",
".XXX$*ooooo*$XX.XXXXXXXXXXXXXXXXX.==..=.====.%.%.%.%.X.@@..@....XXXXXXXXXXXXXX.",
".XXXX&*ooo*&XXX.XXXXXXXXXXXXXXXX.==....=====.%.%.%.%..X.@.@.X...XXXXXXXXXXXXXX.",
".XXXXX&*o*&XXXX.XXXXXXXXXXXXXXXX.============.%.%.%.%.X.@@.XX.%.XXXXXXXXXXXXXX.",
".XXXXXX$o$XXXXX.XXXXXXXXXXXXXXX.=.===.=======.%.%.%.%.XX.@.XX...XXXXXXXXXXXXXX.",
".XXXXXXX#XXXXXX.XXXXXXXXXXXXXXX..=..==.=======.%.%.%.%.X.@.XX...XXXXXXXXXXXXXX.",
".XXXXXXXXXXXXXX.XXXXXXXXXXXXXXXX.===..====...=.%.%.%.%.XX..XX.%.XXXXXXXXXXXXXX.",
".XXXXXXXXXXXXXX.XXXXXXXXXXXXXXXXX.=======..--..%.%.%.%.XXX.XX...XXXXXXXXXXXXXX.",
".XXXXXXXXXXXXXX.XXXXXXXXXXXXXXXXX...====..-..-.%.%.%.%.XXXX.X...XXXXXXXXXXXXXX.",
".XXXXXXXXXXXXXX.XX..XXXXXXXXXXXXX..=====.-.-.-.%.%.%.%..XXXXX.%.XXXXXXXXXXXXXX.",
".XXXXXXXXXXXXXX.X..;.X..XXXXXX.X.=====.=.-.--.-.-.-.-.%.XXXXX...XXXXXXXXXXXXXX.",
".XXXXXXXXXXXXXX.X.;.;.-.XXXXX.%.%.=.=.%.%.-.....................XXXXXXXXXXXXXX.",
".XXXXXXXXXXXXXX.X..;.;.-.X...%.%.%.%.%.%......---..---..---.--..XXXXXXXXXXXXXX.",
".XXXXXXXXXXXXXX.X.;.;..-......%.%.%.%.%.%.-.-..-.-..-.-..-.--...XXXXXXXXXXXXXX.",
".XXXXXXXXXXXXXX.XX.;.-..-.-....@...........---..---..---..--....XXXXXXXXXXXXXX.",
".XXXXXXXXXXXXXX.XXX...-.--.@..@@@...............................XXXXXXXXXXXXXX.",
".XXXXXXXXXXXXXX.XX...--..-.@@.@@@....X....;;;;;;;;;;;;;;........XXXXXXXXXXXXXX.",
".XXXXXXXXXXXXXX.X.--..-..-..@@;@@@..X.X..................-----..XXXXXXXXXXXXXX.",
".XXXXXXXXXXXXXX...--..--....@@;;@@...X...---..---..XXX....-..-..XXXXXXXXXXXXXX.",
".XXXXXXXXXXXXXX.-..--...;;;..@;;;@........-..-.-..X.X......-.-..XXXXXXXXXXXXXX.",
".XXXXXXXXXXXXXX.-..-..;;;....@;;;@.....-.-..---..XX...X.X...--..XXXXXXXXXXXXXX.",
".XXXXXXXXXXXXXX.--..;;;....-.@@;;@...--..-.......X.X...X.....-..XXXXXXXXXXXXXX.",
".XXXXXXXXXXXXXX.--.;;....-..-.@@;@@...-.--..X.X.X.X.-.X.X.X.....XXXXXXXXXXXXXX.",
".XXXXXXXXXXXXXX.-.;;....---.-.@@@@@..X..-..X.X.X..X.--...X......XXXXXXXXXXXXXX.",
".XXXXXXXXXXXXXX..;;..X.-.-..-.@@.@@..XX...X.X.......--..X.X.X...XXXXXXXXXXXXXX.",
".XXXXXXXXXXXXXX.;;..X.---...-.@@..@....X.X.X..--...--.-....X....XXXXXXXXXXXXXX.",
".XXXXXXXXXXXXXX.;..X.-.-.X..-.@.....X.X.X.X.X.--.-.--.--..X.X.X.XXXXXXXXXXXXXX.",
".XXXXXXXXXXXXXX...X.---.X....-.@..@..X.X.X.X..----.-...--....X..XXXXXXXXXXXXXX.",
".XXXXXXXXXXXXXX..X.-.-.X.....-.@@.@.X.X.X.X.X.-.-.-.-.-.-.X.X.X.XXXXXXXXXXXXXX.",
".XXXXXXXXXXXXXX.X.---.XX.....-.@@@@..........X..-.-.-.-.--.X....XXXXXXXXXXXXXX.",
".XXXXXXXXXXXXXX..-.-.X....X..-.@@.@.X.X.X.X.......-.--...--.X.X.XXXXXXXXXXXXXX.",
".XXXXXXXXXXXXXX.---.X....XX..-.@..@..........-..-.-..--.-.--.X..XXXXXXXXXXXXXX.",
".XXXXXXXXXXXXXX..-.X.XX...X..-......X..X..XX.-.--.-..--.-.--..X.XXXXXXXXXXXXXX.",
".XXXXXXXXXXXXXX.X.X.X.XX.....-.@..@..XX.XX...---.-....--...--...XXXXXXXXXXXXXX.",
".XXXXXXXXXXXXXX.................................................XXXXXXXXXXXXXX.",
".XXXXXXXXXXXXXX...--...--....-.---...XX.XX..@..@.-.....XX.X.X.X.XXXXXXXXXXXXXX.",
".XXXXXXXXXXXXXX.X..--.-.--..-.--.-.XX..X..X......-..X...XX.X.-..XXXXXXXXXXXXXX.",
".XXXXXXXXXXXXXX..X.--.-.--..-.-..-..........@..@.-..XX....X.---.XXXXXXXXXXXXXX.",
".XXXXXXXXXXXXXX.X.X.--...--.-.......X.X.X.X.@.@@.-..X....X.-.-..XXXXXXXXXXXXXX.",
".XXXXXXXXXXXXXX....X.--.-.-.-.-..X..........@@@@.-.....XX.---.X.XXXXXXXXXXXXXX.",
".XXXXXXXXXXXXXX.X.X.X.-.-.-.-.-.-.X.X.X.X.X.@.@@.-.....X.-.-.X..XXXXXXXXXXXXXX.",
".XXXXXXXXXXXXXX..X....--...-.----..X.X.X.X..@..@.-....X.---.X...XXXXXXXXXXXXXX.",
".XXXXXXXXXXXXXX.X.X.X..--.--.-.--.X.X.X.X.X.....@.-..X.-.-.X..;.XXXXXXXXXXXXXX.",
".XXXXXXXXXXXXXX....X....-.--...--..X.X.X....@..@@.-...---.X..;;.XXXXXXXXXXXXXX.",
".XXXXXXXXXXXXXX...X.X.X..--.......X.X...XX..@@.@@.-..-.-.X..;;..XXXXXXXXXXXXXX.",
".XXXXXXXXXXXXXX......X...--.X..X.X.X..-..X..@@@@@.-.---....;;.-.XXXXXXXXXXXXXX.",
".XXXXXXXXXXXXXX.....X.X.X.-.X.X.X.X..--.-...@@;@@.-..-....;;.--.XXXXXXXXXXXXXX.",
".XXXXXXXXXXXXXX..-.....X...X.X.......-..--...@;;@@.-....;;;..--.XXXXXXXXXXXXXX.",
".XXXXXXXXXXXXXX..--...X.X...XX..---..-.-.....@;;;@....;;;..-..-.XXXXXXXXXXXXXX.",
".XXXXXXXXXXXXXX..-.-......X.X..-.-..-........@;;;@..;;;...--..-.XXXXXXXXXXXXXX.",
".XXXXXXXXXXXXXX..-..-....XXX..---..---...X...@@;;@@....--..--...XXXXXXXXXXXXXX.",
".XXXXXXXXXXXXXX..-----..................X.X..@@@;@@..-..-..--.X.XXXXXXXXXXXXXX.",
".XXXXXXXXXXXXXX........;;;;;;;;;;;;;;....X....@@@.@@.-..--...XX.XXXXXXXXXXXXXX.",
".XXXXXXXXXXXXXX...............................@@@..@.--.-...XXX.XXXXXXXXXXXXXX.",
".XXXXXXXXXXXXXX....--..---..---..---...........@....-.-..-.;.XX.XXXXXXXXXXXXXX.",
".XXXXXXXXXXXXXX...--.-..-.-..-.-..-.-.%.%.%.%.%.%......-..;.;.X.XXXXXXXXXXXXXX.",
".XXXXXXXXXXXXXX..--.---..---..---......%.%.%.%.%.%...X.-.;.;..X.XXXXXXXXXXXXXX.",
".XXXXXXXXXXXXXX.....................-.%.%.=.=.%.%.XXXXX.-.;.;.X.XXXXXXXXXXXXXX.",
".XXXXXXXXXXXXXX...XXXXX.%.-.-.-.-.--.-.=.=====.X.XXXXXX..X.;..X.XXXXXXXXXXXXXX.",
".XXXXXXXXXXXXXX.%.XXXXX..%.%.%.%.-.-.-.=====..XXXXXXXXXXXXX..XX.XXXXXXXXXXXXXX.",
".XXXXXXXXXXXXXX...X.XXXX.%.%.%.%.-..-..====...XXXXXXXXXXXXXXXXX.XXXXXXXXXXXXXX.",
".XXXXXXXXXXXXXX...XX.XXX.%.%.%.%..--..=======.XXXXXXXXXXXXXXXXX.XXXXXXXXXXXXXX.",
".XXXXXXXXXXXXXX.%.XX..XX.%.%.%.%.=...====..===.XXXXXXXXXXXXXXXX.XXXXXXXXXXXXXX.",
".XXXXXXXXXXXXXX...XX.@.X.%.%.%.%.=======.==..=..XXXXXXXXXXXXXXX.XXXXXX#XXXXXXX.",
".XXXXXXXXXXXXXX...XX.@.XX.%.%.%.%.=======.===.=.XXXXXXXXXXXXXXX.XXXXX$o$XXXXXX.",
".XXXXXXXXXXXXXX.%.XX.@@.X.%.%.%.%.============.XXXXXXXXXXXXXXXX.XXXX&*o*&XXXXX.",
".XXXXXXXXXXXXXX...X.@.@.X..%.%.%.%.=====....==.XXXXXXXXXXXXXXXX.XXX&*ooo*&XXXX.",
".XXXXXXXXXXXXXX....@..@@.X.%.%.%.%.====.=..==.XXXXXXXXXXXXXXXXX.XX$*ooooo*$XXX.",
".XXXXXXXXXXXXXX.@@...@...X.....%.%.=====....=.XXXXXXXXXXXXXXXXX.X#ooooooooo#XX.",
".XXXXXXXXXXXXXX.@@...@...X.......%.===.====.=.XXXXXXXXXXXXXXXXX.XX$*ooooo*$XXX.",
".XXXXXXXXXXXXXX....@..@@.X.........====....==.XXXXXXXXXXXXXXXXX.XXX&*ooo*&XXXX.",
".XXXXXXXXXXXXXX...X.@.@.XX.@@........========.XXXXXXXXXXXXXXXXX.XXXX&*o*&XXXXX.",
".XXXXXXXXXXXXXX.%.XX.@@.XX.@.@................XXXXXXXXXXXXXXXXX.XXXXX$o$XXXXXX.",
".XXXXXXXXXXXXXX...XX.@.XX..@@.@@@@.............XXXXXXXXXXXXXXXX.XXXXXX#XXXXXXX.",
".XXXXXXXXXXXXXX..XXX.@.XX.@.@@@.@@@.@@@.@@@.@@..XXXXXXXXXXXXXXX.XXXXXXXXXXXXXX.",
".XXXXXXXXXXXXXX.XXXX..XX...@.@.@.@.@.@.@.@.@.@...XXXXXXXXXXXXXX.XXXXXXXXXXXXXX.",
".XXXXXXXXXXXXXX.XXXX.XXX.@@.@@@.@@@.@@@.@@@.@@@...XXXXXXXXXXXXX.XXooooXooooXXX.",
".XXXXXXXXXXXXXX.XXX.XXX...@@@.@@@.@@@.@@@.@@@.@@@..XXXXXXXXXXXX.XXooooXooooXXX.",
".XXXXXXXXXXXXXX.XXXXXXX..@.@.@.@.@.@.@.@.@.@.@.@.@..XXXXXXXXXXX.XXXOoOXXooXXXX.",
".XXXXXXXXXXXXXX.XXXXXX..@.@@@.@@@.@@@.@@@.@@@.@@@.@..XXXXXXXXXX.XXXXooXXooXXXX.",
".XXXXXXXXXXXXXX.................................................XXXXOoOXooXXXX.",
".XXXXXXXXXXXXXXXXXXXXXXXXXXXXXXXXXXXXXXXXXXXXXXXXXXXXXXXXXXXXXXXXXXXXooXooXXXX.",
".XXXXXXXXXXXXXXXXXXXXXXXXXXXXXXXXXXXXXXXXXXXXXXXXXXXXXXXXXXXXXXXXXXXXOooooXXXX.",
".XXXXXXXXXXXXXXXXXXXXXXXXXXXXXXXXXXXXXXXXXXXXXXXXXXXXXXXXXXXXXXXXXXXXXooooXXXX.",
".XXXXXXXXXXXXXXXXXXXXXXXXXXXXXXXXXXXXXXXXXXXXXXXXXXXXXXXXXXXXXXXXXXXXXooooXXXX.",
".XXXXXXXXXXXXXXXXXXXXXXXXXXXXXXXXXXXXXXXXXXXXXXXXXXXXXXXXXXXXXXXXXXXX+ooooXXXX.",
".XXXXXXXXXXXXXXXXXXXXXXXXXXXXXXXXXXXXXXXXXXXXXXXXXXXXXXXXXXXXXXXXXXX+o+XooXXXX.",
".XXXXXXXXXXXXXXXXXXXXXXXXXXXXXXXXXXXXXXXXXXXXXXXXXXXXXXXXXXXXXXXXXX+o+XXooXXXX.",
".XXXXXXXXXXXXXXXXXXXXXXXXXXXXXXXXXXXXXXXXXXXXXXXXXXXXXXXXXXXXXXXXXoooOXooooXXX.",
" .XXXXXXXXXXXXXXXXXXXXXXXXXXXXXXXXXXXXXXXXXXXXXXXXXXXXXXXXXXXXXXXXooooXooooXX. ",
" .XXXXXXXXXXXXXXXXXXXXXXXXXXXXXXXXXXXXXXXXXXXXXXXXXXXXXXXXXXXXXXXXXXXXXXXXXXX. ",
"  .XXXXXXXXXXXXXXXXXXXXXXXXXXXXXXXXXXXXXXXXXXXXXXXXXXXXXXXXXXXXXXXXXXXXXXXXX.  ",
"  .XXXXXXXXXXXXXXXXXXXXXXXXXXXXXXXXXXXXXXXXXXXXXXXXXXXXXXXXXXXXXXXXXXXXXXXXX.  ",
"   ..XXXXXXXXXXXXXXXXXXXXXXXXXXXXXXXXXXXXXXXXXXXXXXXXXXXXXXXXXXXXXXXXXXXXX..   ",
"     ..XXXXXXXXXXXXXXXXXXXXXXXXXXXXXXXXXXXXXXXXXXXXXXXXXXXXXXXXXXXXXXXXX..     ",
"       .................................................................       "};
