/* XPM */
static char * King_Clubs_xpm[] = {
"79 123 16 1",
" 	c None",
".	c #000000000000",
"X	c #FFFFFFFFFFFF",
"o	c #79E77DF779E7",
"O	c #38E33CF338E3",
"+	c #FFFFD75C0000",
"@	c #FFFF00000000",
"#	c #BEFBBEFBBEFB",
"$	c #DF7DDF7DDF7D",
"%	c #18611C711861",
"&	c #9E799E799E79",
"*	c #F7DEE38DD75C",
"=	c #2081410330C2",
"-	c #59655D755965",
";	c #30C2C30BA699",
":	c #30C2A289C71B",
"       .................................................................       ",
"     ..XXXXXXXXXXXXXXXXXXXXXXXXXXXXXXXXXXXXXXXXXXXXXXXXXXXXXXXXXXXXXXXXX..     ",
"   ..XXXXXXXXXXXXXXXXXXXXXXXXXXXXXXXXXXXXXXXXXXXXXXXXXXXXXXXXXXXXXXXXXXXXX..   ",
"  .XXXXXXXXXXXXXXXXXXXXXXXXXXXXXXXXXXXXXXXXXXXXXXXXXXXXXXXXXXXXXXXXXXXXXXXXX.  ",
"  .XXXXXXXXXXXXXXXXXXXXXXXXXXXXXXXXXXXXXXXXXXXXXXXXXXXXXXXXXXXXXXXXXXXXXXXXX.  ",
" .XXXXXXXXXXXXXXXXXXXXXXXXXXXXXXXXXXXXXXXXXXXXXXXXXXXXXXXXXXXXXXXXXXXXXXXXXXX. ",
" .XX....X....XXXXXXXXXXXXXXXXXXXXXXXXXXXXXXXXXXXXXXXXXXXXXXXXXXXXXXXXXXXXXXXX. ",
".XXX....Xo...XXXXXXXXXXXXXXXXXXXXXXXXXXXXXXXXXXXXXXXXXXXXXXXXXXXXXXXXXXXXXXXXX.",
".XXXX..XXO.OXXXXXXXXXXXXXXXXXXXXXXXXXXXXXXXXXXXXXXXXXXXXXXXXXXXXXXXXXXXXXXXXXX.",
".XXXX..XO.OXXXXXXXXXXXXXXXXXXXXXXXXXXXXXXXXXXXXXXXXXXXXXXXXXXXXXXXXXXXXXXXXXXX.",
".XXXX....OXXXXXXXXXXXXXXXXXXXXXXXXXXXXXXXXXXXXXXXXXXXXXXXXXXXXXXXXXXXXXXXXXXXX.",
".XXXX....XXXXXXXXXXXXXXXXXXXXXXXXXXXXXXXXXXXXXXXXXXXXXXXXXXXXXXXXXXXXXXXXXXXXX.",
".XXXX....XXXXXXXXXXXXXXXXXXXXXXXXXXXXXXXXXXXXXXXXXXXXXXXXXXXXXXXXXXXXXXXXXXXXX.",
".XXXX....oXXXXXXXXXXXXXXXXXXXXXXXXXXXXXXXXXXXXXXXXXXXXXXXXXXXXXXXXXXXXXXXXXXXX.",
".XXXX..X..XXXXXXXXXXXXXXXXXXXXXXXXXXXXXXXXXXXXXXXXXXXXXXXXXXXXXXXXXXXXXXXXXXXX.",
".XXXX..Xo.oXXXX.................................................XXXXXXXXXXXXXX.",
".XXXX..XX..XXXX.XXXXXXXXXXXX..+.+++++.+++++.+++++.+++++.+..XXXX.XXXXXXXXXXXXXX.",
".XXXX..XXo.oXXX.XXXXXXXXXXXXX...+++++.+++++.+++++.+++++...XXXXX.XXXXXXXXXXXXXX.",
".XXX....X....XX.XXXXXXXXXXXXXX....+..+..+..+..+..+..+....XXXXXX.XXXXXXXXXXXXXX.",
".XXX....X....XX.XXXXXXXXXXXXXXX..++++.+++++.+++++.++++..XXXXXXX.XXXXXXXXXXXXXX.",
".XXXXXXXXXXXXXX.XXXXXXXXXXXXXXXX.......................XXXXXXXX.XXXXXXXXXXXXXX.",
".XXXXXXXXXXXXXX.XXXXXXXXXXXXXXXXX..@.@.@.@.@.@.@.@.@..XXXXXXXXX.XXXXXXXXXXXXXX.",
".XXXXXXXXXXXXXX.XXXXXXXXXXXXXXXXXX..@.@.@.@.@.@.@.@..XXXXXXXXXX.XXXXXXXXXXXXXX.",
".XXXXXXX#XXXXXX.XXXXXXXXXXXXXXXXXX..................XXXXXXXXXXX.XXXXXXXXXXXXXX.",
".XXXXX$%.%$XXXX.XXXXXXXXXXXXXXXXXX..................XXXXXXXXXXX.XXXXXXXXXXXXXX.",
".XXXXX&...&XXXX.XXXXXXXXXXXXXXXXXX.**********.=.=.=.XXXXXXX.XXX.XXXXXXXXXXXXXX.",
".XXX$&#...#&$XX.XXXXXXXXXXXXXXXXXX....***...*.=.=.=.XXXXXX...XX.XXXXXXXXXXXXXX.",
".XXX%..o%o..%XX.XXXXXXXXXXXXXXXXXX.*...**..**.=.=.=.XXXXX.....X.XXXXXXXXXXXXXX.",
".XX#...%O%...#X.XXXXXXXXXXXXXXXXXX.....**.....=.=.=.XXXXX.+...X.XXXXXXXXXXXXXX.",
".XXX%..#o#..%XX.XXXXXXXXXXXXXXXXXX.**.*******.=.=.=.XXXXX.+.@.X.XXXXXXXXXXXXXX.",
".XXX$&$X-X$&$XX.XXXXXXXXXXXXXXXXXX.**.*******.=.=.=.XXXXX.+...X.XXXXXXXXXXXXXX.",
".XXXXXXX.XXXXXX.XXXXXXXXXXXXXXXXXX.**....****.=.=.=.XXXXX.+.+.X.XXXXXXXXXXXXXX.",
".XXXXXX#o#XXXXX.XXXXXXXXXXXXXXXXXX.***.******.=.=.=.XXXXX.+...X.XXXXXXXXXXXXXX.",
".XXXXXXXXXXXXXX.XXXXXXXXXXXXXXXXXX.*..*..****.=.=.=...XXX.+.@.X.XXXXXXXXXXXXXX.",
".XXXXXXXXXXXXXX.XXXXXXXXXXXXXXXX...***.******.=.=...=.XXX.+...X.XXXXXXXXXXXXXX.",
".XXXXXXXXXXXXXX.XXXXXXXXXXXXXXX.==.**...***...=...=.=.XXX.+.+.X.XXXXXXXXXXXXXX.",
".XXXXXXXXXXXXXX.XXXXXXXXXXXXXXX.=...****...==.=.=.=...XXX.+...X.XXXXXXXXXXXXXX.",
".XXXXXXXXXXXXXX.XXXXXXXXXXXXX..X====....==..=.=.=....XXXX.+.@.X.XXXXXXXXXXXXXX.",
".XXXXXXXXXXXXXX.XXXXXXXXXXX...X..===.....====.===.XX..XXX.+...X.XXXXXXXXXXXXXX.",
".XXXXXXXXXXXXXX.XXXXXXXXX...XX.X.XX..XX...........X.X..XX.+.+.X.XXXXXXXXXXXXXX.",
".XXXXXXXXXXXXXX.XXXXXXX.......XXX.X.X.XXX.XXX.XXX.XXX...X.+...X.XXXXXXXXXXXXXX.",
".XXXXXXXXXXXXXX.XXXXX..........X.XXX..X.XXX.XXX.XXX.......+.@.X.XXXXXXXXXXXXXX.",
".XXXXXXXXXXXXXX.XXX..........;....X.XX.XX.XXX.XXX.....;...+...X.XXXXXXXXXXXXXX.",
".XXXXXXXXXXXXXX.X.............;.;..X.XX.XXX.XXX.....;;....+.+.X.XXXXXXXXXXXXXX.",
".XXXXXXXXXXXXXX............;.....;.;..XX..XXX.....;;;..;;.+...X.XXXXXXXXXXXXXX.",
".XXXXXXXXXXXXXX........;;..;..;;..;.;...XX.......;;;..;;..+.@.X.XXXXXXXXXXXXXX.",
".XXXXXXXXXXXXXX.;.....;;;..;..;;;..;....;.....;;;;;....;;.+...X.XXXXXXXXXXXXXX.",
".XXXXXXXXXXXXXX.;.....;....;....;.;.;...;;;;;;;;;;...;;;..+.+...XXXXXXXXXXXXXX.",
".XXXXXXXXXXXXXX.;....;....;;;....;.;.;..;;;...;;;...;;....+.....XXXXXXXXXXXXXX.",
".XXXXXXXXXXXXXX.;.......;;...;;.....;...;;;...;;;....;;...+.@...XXXXXXXXXXXXXX.",
".XXXXXXXXXXXXXX.;......;.......;...;.;..;..;.;..;..;;;....+.....XXXXXXXXXXXXXX.",
".XXXXXXXXXXXXXX.;.....;...;.;...;...;.;.;...;.....;;......+.+...XXXXXXXXXXXXXX.",
".XXXXXXXXXXXXXX.;....;...;...;...;.;.;..;..;.;....;;;.....+.....XXXXXXXXXXXXXX.",
".XXXXXXXXXXXXXX.........;.;.;.;...;.;.;.;;;;.;;;...;......+.@...XXXXXXXXXXXXXX.",
".XXXXXXXXXXXXXX...;....;...;...;...;.;..;;;...;;..;;......+.....XXXXXXXXXXXXXX.",
".XXXXXXXXXXXXXX..;.....;;.;.;.;;..;.;......;;;;..;;.......+.+...XXXXXXXXXXXXXX.",
".XXXXXXXXXXXXXX.;;.......;;.;;...;...::.::..;;;..;;.......+.....XXXXXXXXXXXXXX.",
".XXXXXXXXXXXXXX.;;;.............;..::::.::::.;;...;.........***.XXXXXXXXXXXXXX.",
".XXXXXXXXXXXXXX.;;.........;;..;;..:..:.:..:..;..;;.....***.....XXXXXXXXXXXXXX.",
".XXXXXXXXXXXXXX.;..........;.;..;.::..:::..::.;..;......*...***.XXXXXXXXXXXXXX.",
".XXXXXXXXXXXXXX.....;;......;;..;.:::::.:::::.;..;;.....*.......XXXXXXXXXXXXXX.",
".XXXXXXXXXXXXXX.................................................XXXXXXXXXXXXXX.",
".XXXXXXXXXXXXXX.......*.....;;..;.:::::.:::::.;..;;......;;.....XXXXXXXXXXXXXX.",
".XXXXXXXXXXXXXX.***...*......;..;.::..:::..::.;..;.;..........;.XXXXXXXXXXXXXX.",
".XXXXXXXXXXXXXX.....***.....;;..;..:..:.:..:..;;..;;.........;;.XXXXXXXXXXXXXX.",
".XXXXXXXXXXXXXX.***.........;...;;.::::.::::..;.............;;;.XXXXXXXXXXXXXX.",
".XXXXXXXXXXXXXX.....+.......;;..;;;..::.::...;...;;.;;.......;;.XXXXXXXXXXXXXX.",
".XXXXXXXXXXXXXX...+.+.......;;..;;;;......;.;..;;.;.;.;;.....;..XXXXXXXXXXXXXX.",
".XXXXXXXXXXXXXX.....+......;;..;;...;;;..;.;...;...;...;....;...XXXXXXXXXXXXXX.",
".XXXXXXXXXXXXXX...@.+......;...;;;.;;;;.;.;.;...;.;.;.;.........XXXXXXXXXXXXXX.",
".XXXXXXXXXXXXXX.....+.....;;;....;.;..;..;.;.;...;...;...;....;.XXXXXXXXXXXXXX.",
".XXXXXXXXXXXXXX...+.+......;;.....;...;.;.;...;...;.;...;.....;.XXXXXXXXXXXXXX.",
".XXXXXXXXXXXXXX.....+....;;;..;..;.;..;..;.;...;.......;......;.XXXXXXXXXXXXXX.",
".XXXXXXXXXXXXXX...@.+...;;....;;;...;;;...;.....;;...;;.......;.XXXXXXXXXXXXXX.",
".XXXXXXXXXXXXXX.....+....;;...;;;...;;;..;.;.;....;;;....;....;.XXXXXXXXXXXXXX.",
".XXXXXXXXXXXXXX...+.+..;;;...;;;;;;;;;;...;.;.;....;....;.....;.XXXXXXXXXXXXXX.",
".XXXXXXXXXXXXXX.X...+.;;....;;;;;.....;....;..;;;..;..;;;.....;.XXXXXXXXXXXXXX.",
".XXXXXXXXXXXXXX.X.@.+..;;..;;;.......XX...;.;..;;..;..;;........XXXXXXXXXXXXXX.",
".XXXXXXXXXXXXXX.X...+.;;..;;;.....XXX..XX..;.;.....;............XXXXXXXXXXXXXX.",
".XXXXXXXXXXXXXX.X.+.+....;;.....XXX.XXX.XX.X..;.;.............X.XXXXXXXXXXXXXX.",
".XXXXXXXXXXXXXX.X...+...;.....XXX.XXX.XX.XX.X....;..........XXX.XXXXXXXXXXXXXX.",
".XXXXXXXXXXXXXX.X.@.+.......XXX.XXX.XXX.X..XXX.X..........XXXXX.XXXXXXXXXXXXXX.",
".XXXXXXXXXXXXXX.X...+.X...XXX.XXX.XXX.XXX.X.X.XXX.......XXXXXXX.XXXXXXXXXXXXXX.",
".XXXXXXXXXXXXXX.X.+.+.XX..X.X...........XX..XX.X.XX...XXXXXXXXX.XXXXXXXXXXXXXX.",
".XXXXXXXXXXXXXX.X...+.XXX..XX.===.====.....===..X...XXXXXXXXXXX.XXXXXXXXXXXXXX.",
".XXXXXXXXXXXXXX.X.@.+.XXXX....=.=.=..==....====X..XXXXXXXXXXXXX.XXXXXXXXXXXXXX.",
".XXXXXXXXXXXXXX.X...+.XXX...=.=.=.==...****...=.XXXXXXXXXXXXXXX.XXXXXXXXXXXXXX.",
".XXXXXXXXXXXXXX.X.+.+.XXX.=.=...=...***...**.==.XXXXXXXXXXXXXXX.XXXXXXXXXXXXXX.",
".XXXXXXXXXXXXXX.X...+.XXX.=...=.=.******.***...XXXXXXXXXXXXXXXX.XXXXXXXXXXXXXX.",
".XXXXXXXXXXXXXX.X.@.+.XXX...=.=.=.****..*..*.XXXXXXXXXXXXXXXXXX.XXXXXXXXXXXXXX.",
".XXXXXXXXXXXXXX.X...+.XXXXX.=.=.=.******.***.XXXXXXXXXXXXXXXXXX.XXXXX#o#XXXXXX.",
".XXXXXXXXXXXXXX.X.+.+.XXXXX.=.=.=.****....**.XXXXXXXXXXXXXXXXXX.XXXXXX.XXXXXXX.",
".XXXXXXXXXXXXXX.X...+.XXXXX.=.=.=.*******.**.XXXXXXXXXXXXXXXXXX.XX$&$X-X$&$XXX.",
".XXXXXXXXXXXXXX.X.@.+.XXXXX.=.=.=.*******.**.XXXXXXXXXXXXXXXXXX.XX%..#o#..%XXX.",
".XXXXXXXXXXXXXX.X...+.XXXXX.=.=.=.....**.....XXXXXXXXXXXXXXXXXX.X#...%O%...#XX.",
".XXXXXXXXXXXXXX.X.....XXXXX.=.=.=.**..**...*.XXXXXXXXXXXXXXXXXX.XX%..o%o..%XXX.",
".XXXXXXXXXXXXXX.XX...XXXXXX.=.=.=.*...***....XXXXXXXXXXXXXXXXXX.XX$&#...#&$XXX.",
".XXXXXXXXXXXXXX.XXX.XXXXXXX.=.=.=.**********.XXXXXXXXXXXXXXXXXX.XXXX&...&XXXXX.",
".XXXXXXXXXXXXXX.XXXXXXXXXXX..................XXXXXXXXXXXXXXXXXX.XXXX$%.%$XXXXX.",
".XXXXXXXXXXXXXX.XXXXXXXXXXX..................XXXXXXXXXXXXXXXXXX.XXXXXX#XXXXXXX.",
".XXXXXXXXXXXXXX.XXXXXXXXXX..@.@.@.@.@.@.@.@..XXXXXXXXXXXXXXXXXX.XXXXXXXXXXXXXX.",
".XXXXXXXXXXXXXX.XXXXXXXXX..@.@.@.@.@.@.@.@.@..XXXXXXXXXXXXXXXXX.XXXXXXXXXXXXXX.",
".XXXXXXXXXXXXXX.XXXXXXXX.......................XXXXXXXXXXXXXXXX.XXXXXXXXXXXXXX.",
".XXXXXXXXXXXXXX.XXXXXXX..++++.+++++.+++++.++++..XXXXXXXXXXXXXXX.XX....X....XXX.",
".XXXXXXXXXXXXXX.XXXXXX....+..+..+..+..+..+..+....XXXXXXXXXXXXXX.XX....X....XXX.",
".XXXXXXXXXXXXXX.XXXXX...+++++.+++++.+++++.+++++...XXXXXXXXXXXXX.XXXo.oXX..XXXX.",
".XXXXXXXXXXXXXX.XXXX..+.+++++.+++++.+++++.+++++.+..XXXXXXXXXXXX.XXXX..XX..XXXX.",
".XXXXXXXXXXXXXX.................................................XXXXo.oX..XXXX.",
".XXXXXXXXXXXXXXXXXXXXXXXXXXXXXXXXXXXXXXXXXXXXXXXXXXXXXXXXXXXXXXXXXXXX..X..XXXX.",
".XXXXXXXXXXXXXXXXXXXXXXXXXXXXXXXXXXXXXXXXXXXXXXXXXXXXXXXXXXXXXXXXXXXXo....XXXX.",
".XXXXXXXXXXXXXXXXXXXXXXXXXXXXXXXXXXXXXXXXXXXXXXXXXXXXXXXXXXXXXXXXXXXXX....XXXX.",
".XXXXXXXXXXXXXXXXXXXXXXXXXXXXXXXXXXXXXXXXXXXXXXXXXXXXXXXXXXXXXXXXXXXXX....XXXX.",
".XXXXXXXXXXXXXXXXXXXXXXXXXXXXXXXXXXXXXXXXXXXXXXXXXXXXXXXXXXXXXXXXXXXXO....XXXX.",
".XXXXXXXXXXXXXXXXXXXXXXXXXXXXXXXXXXXXXXXXXXXXXXXXXXXXXXXXXXXXXXXXXXXO.OX..XXXX.",
".XXXXXXXXXXXXXXXXXXXXXXXXXXXXXXXXXXXXXXXXXXXXXXXXXXXXXXXXXXXXXXXXXXO.OXX..XXXX.",
".XXXXXXXXXXXXXXXXXXXXXXXXXXXXXXXXXXXXXXXXXXXXXXXXXXXXXXXXXXXXXXXXX...oX....XXX.",
" .XXXXXXXXXXXXXXXXXXXXXXXXXXXXXXXXXXXXXXXXXXXXXXXXXXXXXXXXXXXXXXXX....X....XX. ",
" .XXXXXXXXXXXXXXXXXXXXXXXXXXXXXXXXXXXXXXXXXXXXXXXXXXXXXXXXXXXXXXXXXXXXXXXXXXX. ",
"  .XXXXXXXXXXXXXXXXXXXXXXXXXXXXXXXXXXXXXXXXXXXXXXXXXXXXXXXXXXXXXXXXXXXXXXXXX.  ",
"  .XXXXXXXXXXXXXXXXXXXXXXXXXXXXXXXXXXXXXXXXXXXXXXXXXXXXXXXXXXXXXXXXXXXXXXXXX.  ",
"   ..XXXXXXXXXXXXXXXXXXXXXXXXXXXXXXXXXXXXXXXXXXXXXXXXXXXXXXXXXXXXXXXXXXXXX..   ",
"     ..XXXXXXXXXXXXXXXXXXXXXXXXXXXXXXXXXXXXXXXXXXXXXXXXXXXXXXXXXXXXXXXXX..     ",
"       .................................................................       "};
