/* XPM */
static char * Nine_Diamonds_xpm[] = {
"79 123 12 1",
" 	c None",
".	c #000000000000",
"X	c #FFFFFFFFFFFF",
"o	c #F7DEBEFBBEFB",
"O	c #CF3C00000000",
"+	c #DF7D3CF338E3",
"@	c #E79D7DF779E7",
"#	c #EFBE9E799E79",
"$	c #FFFFDF7DDF7D",
"%	c #DF7D5D755965",
"&	c #D75C1C711861",
"*	c #D75CD75CD75C",
"       .................................................................       ",
"     ..XXXXXXXXXXXXXXXXXXXXXXXXXXXXXXXXXXXXXXXXXXXXXXXXXXXXXXXXXXXXXXXXX..     ",
"   ..XXXXXXXXXXXXXXXXXXXXXXXXXXXXXXXXXXXXXXXXXXXXXXXXXXXXXXXXXXXXXXXXXXXXX..   ",
"  .XXXXXXXXXXXXXXXXXXXXXXXXXXXXXXXXXXXXXXXXXXXXXXXXXXXXXXXXXXXXXXXXXXXXXXXXX.  ",
"  .XXXXXXXXXXXXXXXXXXXXXXXXXXXXXXXXXXXXXXXXXXXXXXXXXXXXXXXXXXXXXXXXXXXXXXXXX.  ",
" .XXXXXXXXXXXXXXXXXXXXXXXXXXXXXXXXXXXXXXXXXXXXXXXXXXXXXXXXXXXXXXXXXXXXXXXXXXX. ",
" .XXXoOOOOOoXXXXXXXXXXXXXXXXXXXXXXXXXXXXXXXXXXXXXXXXXXXXXXXXXXXXXXXXXXXXXXXXX. ",
".XXXoOOOOOOOoXXXXXXXXXXXXXXXXXXXXXXXXXXXXXXXXXXXXXXXXXXXXXXXXXXXXXXXXXXXXXXXXX.",
".XXXOO+XXX+OOXXXXXXXXXXXXXXXXXXXXXXXXXXXXXXXXXXXXXXXXXXXXXXXXXXXXXXXXXXXXXXXXX.",
".XXXOOXXXXXOOXXXXXXXXXXXXXXXXXXXXXXXXXXXXXXXXXXXXXXXXXXXXXXXXXXXXXXXXXXXXXXXXX.",
".XXXOOXXXXXOOXXXXXXXXXXXXXXXXXXXXXXXXXXXXXXXXXXXXXXXXXXXXXXXXXXXXXXXXXXXXXXXXX.",
".XXXOOXXXXXOOXXXXXXXXXXXXXXXXXXXXXXXXXXXXXXXXXXXXXXXXXXXXXXXXXXXXXXXXXXXXXXXXX.",
".XXXOO+XXX+OOXXXXXXXXXX@XXXXXXXXXXXXXXXXXXXXXXXXXXXXXXX@XXXXXXXXXXXXXXXXXXXXXX.",
".XXXoOOOOOOOOXXXXXXXXX#O#XXXXXXXXXXXXXXXXXXXXXXXXXXXXX#O#XXXXXXXXXXXXXXXXXXXXX.",
".XXXXoOOOOoOOXXXXXXXX$OOO$XXXXXXXXXXXXXXXXXXXXXXXXXXX$OOO$XXXXXXXXXXXXXXXXXXXX.",
".XXXXXXXXXXOOXXXXXXXX+OOO+XXXXXXXXXXXXXXXXXXXXXXXXXXX+OOO+XXXXXXXXXXXXXXXXXXXX.",
".XXXo+XXXXXOOXXXXXXX%OOOOO%XXXXXXXXXXXXXXXXXXXXXXXXX%OOOOO%XXXXXXXXXXXXXXXXXXX.",
".XXXOO+XXX+OOXXXXXX@OOOOOOO@XXXXXXXXXXXXXXXXXXXXXXX@OOOOOOO@XXXXXXXXXXXXXXXXXX.",
".XXXoOOOOOOOoXXXXX@OOOOOOOOO@XXXXXXXXXXXXXXXXXXXXX@OOOOOOOOO@XXXXXXXXXXXXXXXXX.",
".XXXXoOOOOOoXXXXX%OOOOOOOOOOO%XXXXXXXXXXXXXXXXXXX%OOOOOOOOOOO%XXXXXXXXXXXXXXXX.",
".XXXXXXXXXXXXXX$+OOOOOOOOOOOOO+$XXXXXXXXXXXXXXX$+OOOOOOOOOOOOO+$XXXXXXXXXXXXXX.",
".XXXXXXXXXXXXX#OOOOOOOOOOOOOOOOO#XXXXXXXXXXXXX#OOOOOOOOOOOOOOOOO#XXXXXXXXXXXXX.",
".XXXXXXX#XXXX@OOOOOOOOOOOOOOOOOOO@XXXXXXXXXXX@OOOOOOOOOOOOOOOOOOO@XXXXXXXXXXXX.",
".XXXXXXoOoXXXX#OOOOOOOOOOOOOOOOO#XXXXXXXXXXXXX#OOOOOOOOOOOOOOOOO#XXXXXXXXXXXXX.",
".XXXXX$&O&$XXXX$+OOOOOOOOOOOOO+$XXXXXXXXXXXXXXX$+OOOOOOOOOOOOO+$XXXXXXXXXXXXXX.",
".XXXX$&OOO&$XXXXX%OOOOOOOOOOO%XXXXXXXXXXXXXXXXXXX%OOOOOOOOOOO%XXXXXXXXXXXXXXXX.",
".XXXo&OOOOO&oXXXXX@OOOOOOOOO@XXXXXXXXXXXXXXXXXXXXX@OOOOOOOOO@XXXXXXXXXXXXXXXXX.",
".XX#OOOOOOOOO#XXXXX@OOOOOOO@XXXXXXXXXXXXXXXXXXXXXXX@OOOOOOO@XXXXXXXXXXXXXXXXXX.",
".XXXo&OOOOO&oXXXXXXX%OOOOO%XXXXXXXXXXXXXXXXXXXXXXXXX%OOOOO%XXXXXXXXXXXXXXXXXXX.",
".XXXX$&OOO&$*********+OOO+XXXXXXXXXXXXXXXXXXXXXXXXXXX+OOO+XXXXXXXX*****XXXXXXX.",
".XXXXX$&O&$**********$OOO$XXXXXXXXXXXXXXXXXXXXXXXXXXX$OOO$XXXXXXXX*****XXXXXXX.",
".XXXXXXoOo************#O#XXXXXXXXXXXXXXXXXXXXXXXXXXXXX#O#XXXXXXXX*****XXXXXXXX.",
".XXXXXXX#X*************@**XXXXXXXXXXXXXXXXXXXXXXXXXXXXX@XXXXXXXX*****XXXXXXXXX.",
".XXXXXXXXX****************XXXXXXXXXXXXXXXXXXXXXXXXXXXXXXXXXXXXX*****XXXXXXXXXX.",
".XXXXXXXXXX****************XXXXXXXXXXXXXXXXXXXXXXXXXXXXXXXXXXX*****XXXXXXXXXXX.",
".XXXXXXXXXXX****************XXXXXXXXXXXXXXXXXXXXXXXXXXXXXXXXXX*****XXXXXXXXXXX.",
".XXXXXXXXXXXX****************XXXXXXXXXXXXXXXXXXXXXXXXXXXXXXXX*****XXXXXXXXXXXX.",
".XXXXXXXXXXXX****************XXXXXXXXXXXXXXXXXXXXXXXXXXXXXXX*****XXXXXXXXXXXXX.",
".XXXXXXXXXXXXX*********@******XXXXXXXXXXXXXXXXXXXXXXXXX@XXX*****XXXXXXXXXXXXXX.",
".XXXXXXXXXXXXXX*******#O#******XXXXXXXXXXXXXXXXXXXXXXX#O#X*****XXXXXXXXXXXXXXX.",
".XXXXXXXXXXXXXXX*****$OOO$******XXXXXXXXXXXXXXXXXXXXX$OOO$*****XXXXXXXXXXXXXXX.",
".XXXXXXXXXXXXXXX*****+OOO+******XXXXXXXXXXXXXXXXXXXXX+OOO+****XXXXXXXXXXXXXXXX.",
".XXXXXXXXXXXXXXXX***%OOOOO%******XXXXXXXXXXXXXXXXXXX%OOOOO%**XXXXXXXXXXXXXXXXX.",
".XXXXXXXXXXXXXXXXX*@OOOOOOO@******XXXXXXXXXXXXXXXXX@OOOOOOO@XXXXXXXXXXXXXXXXXX.",
".XXXXXXXXXXXXXXXXX@OOOOOOOOO@******XXXXXXXXXXXXXXX@OOOOOOOOO@XXXXXXXXXXXXXXXXX.",
".XXXXXXXXXXXXXXXX%OOOOOOOOOOO%*****XXXXXXXXXXXXXX%OOOOOOOOOOO%XXXXXXXXXXXXXXXX.",
".XXXXXXXXXXXXXX$+OOOOOOOOOOOOO+$****XXXXXXXXXXX$+OOOOOOOOOOOOO+$XXXXXXXXXXXXXX.",
".XXXXXXXXXXXXX#OOOOOOOOOOOOOOOOO#****XXXXXXXXX#OOOOOOOOOOOOOOOOO#XXXXXXXXXXXXX.",
".XXXXXXXXXXXX@OOOOOOOOOOOOOOOOOOO@****XXXXXXX@OOOOOOOOOOOOOOOOOOO@XXXXXXXXXXXX.",
".XXXXXXXXXXXXX#OOOOOOOOOOOOOOOOO#*****XXXXXXXX#OOOOOOOOOOOOOOOOO#XXXXXXXXXXXXX.",
".XXXXXXXXXXXXXX$+OOOOOOOOOOOOO+$*******XXXXXXXX$+OOOOOOOOOOOOO+$XXXXXXXXXXXXXX.",
".XXXXXXXXXXXXXXXX%OOOOOOOOOOO%*********@XXXXXXXXX%OOOOOOOOOOO%XXXXXXXXXXXXXXXX.",
".XXXXXXXXXXXXXXXXX@OOOOOOOOO@*********#O#XXXXXXX**@OOOOOOOOO@XXXXXXXXXXXXXXXXX.",
".XXXXXXXXXXXXXXXXXX@OOOOOOO@*********$OOO$XXXXX****@OOOOOOO@XXXXXXXXXXXXXXXXXX.",
".XXXXXXXXXXXXXXXXXXX%OOOOO%**********+OOO+XXXX*****X%OOOOO%XXXXXXXXXXXXXXXXXXX.",
".XXXXXXXXXXXXXXXXXXXX+OOO+X*********%OOOOO%XX*****XXX+OOO+XXXXXXXXXXXXXXXXXXXX.",
".XXXXXXXXXXXXXXXXXXXX$OOO$XX*******@OOOOOOO@X*****XXX$OOO$XXXXXXXXXXXXXXXXXXXX.",
".XXXXXXXXXXXXXXXXXXXXX#O#XXX******@OOOOOOOOO@****XXXXX#O#XXXXXXXXXXXXXXXXXXXXX.",
".XXXXXXXXXXXXXXXXXXXXXX@XXXXX****%OOOOOOOOOOO%**XXXXXXX@XXXXXXXXXXXXXXXXXXXXXX.",
".XXXXXXXXXXXXXXXXXXXXXXXXXXXXX*$+OOOOOOOOOOOOO+$XXXXXXXXXXXXXXXXXXXXXXXXXXXXXX.",
".XXXXXXXXXXXXXXXXXXXXXXXXXXXXX#OOOOOOOOOOOOOOOOO#XXXXXXXXXXXXXXXXXXXXXXXXXXXXX.",
".XXXXXXXXXXXXXXXXXXXXXXXXXXXX@OOOOOOOOOOOOOOOOOOO@XXXXXXXXXXXXXXXXXXXXXXXXXXXX.",
".XXXXXXXXXXXXXXXXXXXXXXXXXXXXX#OOOOOOOOOOOOOOOOO#XXXXXXXXXXXXXXXXXXXXXXXXXXXXX.",
".XXXXXXXXXXXXXXXXXXXXXXXXXXXXXX$+OOOOOOOOOOOOO+$*XXXXXXXXXXXXXXXXXXXXXXXXXXXXX.",
".XXXXXXXXXXXXXXXXXXXXXX@XXXXXXX**%OOOOOOOOOOO%****XXXXX@XXXXXXXXXXXXXXXXXXXXXX.",
".XXXXXXXXXXXXXXXXXXXXX#O#XXXXX****@OOOOOOOOO@*****XXXX#O#XXXXXXXXXXXXXXXXXXXXX.",
".XXXXXXXXXXXXXXXXXXXX$OOO$XXX*****X@OOOOOOO@*******XX$OOO$XXXXXXXXXXXXXXXXXXXX.",
".XXXXXXXXXXXXXXXXXXXX+OOO+XXX*****XX%OOOOO%*********X+OOO+XXXXXXXXXXXXXXXXXXXX.",
".XXXXXXXXXXXXXXXXXXX%OOOOO%X*****XXXX+OOO+**********%OOOOO%XXXXXXXXXXXXXXXXXXX.",
".XXXXXXXXXXXXXXXXXX@OOOOOOO@****XXXXX$OOO$*********@OOOOOOO@XXXXXXXXXXXXXXXXXX.",
".XXXXXXXXXXXXXXXXX@OOOOOOOOO@**XXXXXXX#O#*********@OOOOOOOOO@XXXXXXXXXXXXXXXXX.",
".XXXXXXXXXXXXXXXX%OOOOOOOOOOO%XXXXXXXXX@*********%OOOOOOOOOOO%XXXXXXXXXXXXXXXX.",
".XXXXXXXXXXXXXX$+OOOOOOOOOOOOO+$XXXXXXXX*******$+OOOOOOOOOOOOO+$XXXXXXXXXXXXXX.",
".XXXXXXXXXXXXX#OOOOOOOOOOOOOOOOO#XXXXXXX******#OOOOOOOOOOOOOOOOO#XXXXXXXXXXXXX.",
".XXXXXXXXXXXX@OOOOOOOOOOOOOOOOOOO@XXXXXXX****@OOOOOOOOOOOOOOOOOOO@XXXXXXXXXXXX.",
".XXXXXXXXXXXXX#OOOOOOOOOOOOOOOOO#XXXXXXXXX****#OOOOOOOOOOOOOOOOO#XXXXXXXXXXXXX.",
".XXXXXXXXXXXXXX$+OOOOOOOOOOOOO+$XXXXXXXXXXX****$+OOOOOOOOOOOOO+$XXXXXXXXXXXXXX.",
".XXXXXXXXXXXXXXXX%OOOOOOOOOOO%XXXXXXXXXXXXX******%OOOOOOOOOOO%XXXXXXXXXXXXXXXX.",
".XXXXXXXXXXXXXXXXX@OOOOOOOOO@XXXXXXXXXXXXXXX******@OOOOOOOOO@XXXXXXXXXXXXXXXXX.",
".XXXXXXXXXXXXXXXXXX@OOOOOOO@XXXXXXXXXXXXXXXXX******@OOOOOOO@*XXXXXXXXXXXXXXXXX.",
".XXXXXXXXXXXXXXXXX**%OOOOO%XXXXXXXXXXXXXXXXXXX******%OOOOO%***XXXXXXXXXXXXXXXX.",
".XXXXXXXXXXXXXXXX****+OOO+XXXXXXXXXXXXXXXXXXXX*******+OOO+****XXXXXXXXXXXXXXXX.",
".XXXXXXXXXXXXXXX*****$OOO$XXXXXXXXXXXXXXXXXXXXX******$OOO$*****XXXXXXXXXXXXXXX.",
".XXXXXXXXXXXXXXX*****X#O#XXXXXXXXXXXXXXXXXXXXXXX******#O#*******XXXXXXXXXXXXXX.",
".XXXXXXXXXXXXXX*****XXX@XXXXXXXXXXXXXXXXXXXXXXXXX******@*********XXXXXXXXXXXXX.",
".XXXXXXXXXXXXX*****XXXXXXXXXXXXXXXXXXXXXXXXXXXXXX****************XXXXXXXXXXXXX.",
".XXXXXXXXXXXX*****XXXXXXXXXXXXXXXXXXXXXXXXXXXXXXXX****************XXXXXXXXXXXX.",
".XXXXXXXXXXX*****XXXXXXXXXXXXXXXXXXXXXXXXXXXXXXXXXX****************XXXXXXXXXXX.",
".XXXXXXXXXXX*****XXXXXXXXXXXXXXXXXXXXXXXXXXXXXXXXXXX****************XXXXXXXXXX.",
".XXXXXXXXXX*****XXXXXXXXXXXXXXXXXXXXXXXXXXXXXXXXXXXX****************XXXXXXXXXX.",
".XXXXXXXXX*****XXXXXXXX@XXXXXXXXXXXXXXXXXXXXXXXXXXXXX**@*************X#XXXXXXX.",
".XXXXXXXX*****XXXXXXXX#O#XXXXXXXXXXXXXXXXXXXXXXXXXXXXX#O#************oOoXXXXXX.",
".XXXXXXX*****XXXXXXXX$OOO$XXXXXXXXXXXXXXXXXXXXXXXXXXX$OOO$**********$&O&$XXXXX.",
".XXXXXXXXXXXXXXXXXXXX+OOO+XXXXXXXXXXXXXXXXXXXXXXXXXXX+OOO+XXXXXXXXX$&OOO&$XXXX.",
".XXXXXXXXXXXXXXXXXXX%OOOOO%XXXXXXXXXXXXXXXXXXXXXXXXX%OOOOO%XXXXXXXo&OOOOO&oXXX.",
".XXXXXXXXXXXXXXXXXX@OOOOOOO@XXXXXXXXXXXXXXXXXXXXXXX@OOOOOOO@XXXXX#OOOOOOOOO#XX.",
".XXXXXXXXXXXXXXXXX@OOOOOOOOO@XXXXXXXXXXXXXXXXXXXXX@OOOOOOOOO@XXXXXo&OOOOO&oXXX.",
".XXXXXXXXXXXXXXXX%OOOOOOOOOOO%XXXXXXXXXXXXXXXXXXX%OOOOOOOOOOO%XXXXX$&OOO&$XXXX.",
".XXXXXXXXXXXXXX$+OOOOOOOOOOOOO+$XXXXXXXXXXXXXXX$+OOOOOOOOOOOOO+$XXXX$&O&$XXXXX.",
".XXXXXXXXXXXXX#OOOOOOOOOOOOOOOOO#XXXXXXXXXXXXX#OOOOOOOOOOOOOOOOO#XXXXoOoXXXXXX.",
".XXXXXXXXXXXX@OOOOOOOOOOOOOOOOOOO@XXXXXXXXXXX@OOOOOOOOOOOOOOOOOOO@XXXX#XXXXXXX.",
".XXXXXXXXXXXXX#OOOOOOOOOOOOOOOOO#XXXXXXXXXXXXX#OOOOOOOOOOOOOOOOO#XXXXXXXXXXXXX.",
".XXXXXXXXXXXXXX$+OOOOOOOOOOOOO+$XXXXXXXXXXXXXXX$+OOOOOOOOOOOOO+$XXXXXXXXXXXXXX.",
".XXXXXXXXXXXXXXXX%OOOOOOOOOOO%XXXXXXXXXXXXXXXXXXX%OOOOOOOOOOO%XXXXXoOOOOOoXXXX.",
".XXXXXXXXXXXXXXXXX@OOOOOOOOO@XXXXXXXXXXXXXXXXXXXXX@OOOOOOOOO@XXXXXoOOOOOOOoXXX.",
".XXXXXXXXXXXXXXXXXX@OOOOOOO@XXXXXXXXXXXXXXXXXXXXXXX@OOOOOOO@XXXXXXOO+XXX+OOXXX.",
".XXXXXXXXXXXXXXXXXXX%OOOOO%XXXXXXXXXXXXXXXXXXXXXXXXX%OOOOO%XXXXXXXOOXXXXX+oXXX.",
".XXXXXXXXXXXXXXXXXXXX+OOO+XXXXXXXXXXXXXXXXXXXXXXXXXXX+OOO+XXXXXXXXOOXXXXXXXXXX.",
".XXXXXXXXXXXXXXXXXXXX$OOO$XXXXXXXXXXXXXXXXXXXXXXXXXXX$OOO$XXXXXXXXOOoOOOOoXXXX.",
".XXXXXXXXXXXXXXXXXXXXX#O#XXXXXXXXXXXXXXXXXXXXXXXXXXXXX#O#XXXXXXXXXOOOOOOOOoXXX.",
".XXXXXXXXXXXXXXXXXXXXXX@XXXXXXXXXXXXXXXXXXXXXXXXXXXXXXX@XXXXXXXXXXOO+XXX+OOXXX.",
".XXXXXXXXXXXXXXXXXXXXXXXXXXXXXXXXXXXXXXXXXXXXXXXXXXXXXXXXXXXXXXXXXOOXXXXXOOXXX.",
".XXXXXXXXXXXXXXXXXXXXXXXXXXXXXXXXXXXXXXXXXXXXXXXXXXXXXXXXXXXXXXXXXOOXXXXXOOXXX.",
".XXXXXXXXXXXXXXXXXXXXXXXXXXXXXXXXXXXXXXXXXXXXXXXXXXXXXXXXXXXXXXXXXOOXXXXXOOXXX.",
".XXXXXXXXXXXXXXXXXXXXXXXXXXXXXXXXXXXXXXXXXXXXXXXXXXXXXXXXXXXXXXXXXOO+XXX+OOXXX.",
".XXXXXXXXXXXXXXXXXXXXXXXXXXXXXXXXXXXXXXXXXXXXXXXXXXXXXXXXXXXXXXXXXoOOOOOOOoXXX.",
" .XXXXXXXXXXXXXXXXXXXXXXXXXXXXXXXXXXXXXXXXXXXXXXXXXXXXXXXXXXXXXXXXXoOOOOOoXXX. ",
" .XXXXXXXXXXXXXXXXXXXXXXXXXXXXXXXXXXXXXXXXXXXXXXXXXXXXXXXXXXXXXXXXXXXXXXXXXXX. ",
"  .XXXXXXXXXXXXXXXXXXXXXXXXXXXXXXXXXXXXXXXXXXXXXXXXXXXXXXXXXXXXXXXXXXXXXXXXX.  ",
"  .XXXXXXXXXXXXXXXXXXXXXXXXXXXXXXXXXXXXXXXXXXXXXXXXXXXXXXXXXXXXXXXXXXXXXXXXX.  ",
"   ..XXXXXXXXXXXXXXXXXXXXXXXXXXXXXXXXXXXXXXXXXXXXXXXXXXXXXXXXXXXXXXXXXXXXX..   ",
"     ..XXXXXXXXXXXXXXXXXXXXXXXXXXXXXXXXXXXXXXXXXXXXXXXXXXXXXXXXXXXXXXXXX..     ",
"       .................................................................       "};
