/* XPM */
static char * Queen_Spades_xpm[] = {
"79 123 15 1",
" 	c None",
".	c #000000000000",
"X	c #FFFFFFFFFFFF",
"o	c #BEFBBEFBBEFB",
"O	c #38E33CF338E3",
"+	c #79E77DF779E7",
"@	c #FFFFD75C0000",
"#	c #F7DEE38DD75C",
"$	c #DF7DDF7DDF7D",
"%	c #59655D755965",
"&	c #30C2C30BA699",
"*	c #18611C711861",
"=	c #9E799E799E79",
"-	c #FFFF00000000",
";	c #30C2A289C71B",
"       .................................................................       ",
"     ..XXXXXXXXXXXXXXXXXXXXXXXXXXXXXXXXXXXXXXXXXXXXXXXXXXXXXXXXXXXXXXXXX..     ",
"   ..XXXXXXXXXXXXXXXXXXXXXXXXXXXXXXXXXXXXXXXXXXXXXXXXXXXXXXXXXXXXXXXXXXXXX..   ",
"  .XXXXXXXXXXXXXXXXXXXXXXXXXXXXXXXXXXXXXXXXXXXXXXXXXXXXXXXXXXXXXXXXXXXXXXXXX.  ",
"  .XXXXXXXXXXXXXXXXXXXXXXXXXXXXXXXXXXXXXXXXXXXXXXXXXXXXXXXXXXXXXXXXXXXXXXXXX.  ",
" .XXXXXXXXXXXXXXXXXXXXXXXXXXXXXXXXXXXXXXXXXXXXXXXXXXXXXXXXXXXXXXXXXXXXXXXXXXX. ",
" .XXXXo...oXXXXXXXXXXXXXXXXXXXXXXXXXXXXXXXXXXXXXXXXXXXXXXXXXXXXXXXXXXXXXXXXXX. ",
".XXXXo.....oXXXXXXXXXXXXXXXXXXXXXXXXXXXXXXXXXXXXXXXXXXXXXXXXXXXXXXXXXXXXXXXXXX.",
".XXXX..OXO..XXXXXXXXXXXXXXXXXXXXXXXXXXXXXXXXXXXXXXXXXXXXXXXXXXXXXXXXXXXXXXXXXX.",
".XXXX..XXX..XXXXXXXXXXXXXXXXXXXXXXXXXXXXXXXXXXXXXXXXXXXXXXXXXXXXXXXXXXXXXXXXXX.",
".XXXX..XXX..XXXXXXXXXXXXXXXXXXXXXXXXXXXXXXXXXXXXXXXXXXXXXXXXXXXXXXXXXXXXXXXXXX.",
".XXXX..XXX..XXXXXXXXXXXXXXXXXXXXXXXXXXXXXXXXXXXXXXXXXXXXXXXXXXXXXXXXXXXXXXXXXX.",
".XXXX..XXX..XXXXXXXXXXXXXXXXXXXXXXXXXXXXXXXXXXXXXXXXXXXXXXXXXXXXXXXXXXXXXXXXXX.",
".XXXX..XXX..XXXXXXXXXXXXXXXXXXXXXXXXXXXXXXXXXXXXXXXXXXXXXXXXXXXXXXXXXXXXXXXXXX.",
".XXX....+X..XXXXXXXXXXXXXXXXXXXXXXXXXXXXXXXXXXXXXXXXXXXXXXXXXXXXXXXXXXXXXXXXXX.",
".XXX........XXX.................................................XXXXXXXXXXXXXX.",
".XXXX..XO...XXX.XXXXXXXXX..X.@@.@@.X..@.@@@@.XXXXXXXXXXXXXXXXXX.XXXXXXXXXXXXXX.",
".XXXX..OX...XXX.XXXXXXXXX...@@.#.@@..@@@@@@.XXXXXXXXXXXXXXXXXXX.XXXXXXXXXXXXXX.",
".XXXXo......OXX.XXXXXXXXX..@@.###.@@..@...@.XXXXXXXXXXXXXXXXXXX.XXXXXXXXXXXXXX.",
".XXXXXo...oOoXX.XX.XXXXX.@.@.#####.@..@@..@.XXXXXXXXXXXXXXXXXXX.XXXXXXXXXXXXXX.",
".XXXXXXXXXXXXXX.XX.XXXXX.@..#######...@.@.@.XXXXXXXXXXXXXXXXXXX.XXXXXXXXXXXXXX.",
".XXXXXXXXXXXXXX.X.@.XXXX.@.X...###.....@@@@.XXXXXXXXXXXXXXXXXXX.XXXXXXXXXXXXXX.",
".XXXXXXX$XXXXXX.X.@.XXXX.@.XXX.##.XXX..@....XXXXXXXXXXXXXXXXXXX.XXXXXXXXXXXXXX.",
".XXXXXXX%XXXXXX.X.@.XXXX.@.....##......@@...XXXXXXXXXXXXXXXXXXX.XXXXXXXXXXXXXX.",
".XXXXXX+.+XXXXX..@@@.XXX.@...&.###..##...@..XXXXXXXXXXXXXXXXXXX.XXXXXXXXXXXXXX.",
".XXXXX+...+XXXX.X.@.XXX.@.@....###...#..@@@@.XXXXXXXXXXXXXXXXXX.XXXXXXXXXXXXXX.",
".XXXX+.....+XXX.X...XXX.@.@.##.########......XXXXXXXXXXXXXXXXXX.XXXXXXXXXXXXXX.",
".XXX%.......%XX.XX.XXXX.@.@.###..#####...@...XXXXXXXXXXXXXXXXXX.XXXXXXXXXXXXXX.",
".XXX....*....XX.XX.XXXX.@.@.###.######.......XXXXXXXXXXXXXXXXXX.XXXXXXXXXXXXXX.",
".XXXO..=+=..OXX.XX..XXX.@.@.#########.&...XXXXXXXXXXXXXXXXXXXXX.XXXXXXXXXXXXXX.",
".XXXX=oX*Xo=XXX.X..XXXX.@.@..##...###..&.XXXXXXXXXXXXXXXXXXXXXX.XXXXXXXXXXXXXX.",
".XXXXXX$.$XXXXX.XX..XX.@.@...##..###.&...XXXXXXXXXXXXXXXXXXXXXX.XXXXXXXXXXXXXX.",
".XXXXXXo+oXXXXX.X..XXX.@.@..&.######..&&..XXXXXXXXXXXXXXXXXXXXX.XXXXXXXXXXXXXX.",
".XXXXXXXXXXXXXX.XX..XX.@.@..&.#####.&.&.&.XXXXXXXXXXXXXXXXXXXXX.XXXXXXXXXXXXXX.",
".XXXXXXXXXXXXXX.X..XXX.@.@.&.&.###.&&&.&&&.XXXXXXXXXXXXXXXXXXXX.XXXXXXXXXXXXXX.",
".XXXXXXXXXXXXXX.XX..XX.@....&.&...&.&.&.&.&.XXXXXXXXXXXXXXXXXXX.XXXXXXXXXXXXXX.",
".XXXXXXXXXXXXXX.X..XX.....&&.&&&.&&&.&&&.&&&.XXXXXXXXXXXXXXXXXX.XXXXXXXXXXXXXX.",
".XXXXXXXXXXXXXX.XX..X.....&.&.&.&.&.&.&.&...X.XXXXXXXXXXXXXXXXX.XXXXXXXXXXXXXX.",
".XXXXXXXXXXXXXX.X..XX..XX..&&&.&&&.&&&.&&..XX.XXXXXXXXXXXXXXXXX.XXXXXXXXXXXXXX.",
".XXXXXXXXXXXXXX.XX.....XX...&.&.&.&.&.&..XXXXX.XXXXXXXXXXXXXXXX.XXXXXXXXXXXXXX.",
".XXXXXXXXXXXXXX.X..X.XXXXX...&&&.&&&.&&.XX.X.XX.XXXXXXXXXXXXXXX.XXXXXXXXXXXXXX.",
".XXXXXXXXXXXXXX.XX....X.XXX.&.&.&.&.&..XXX..XXX..XXXXXXXXX.XXXX.XXXXXXXXXXXXXX.",
".XXXXXXXXXXXXXX.X..X..XX..X.&&.&&&.&&.XXX.X.XXX.-.XXXXXXX...XXX.XXXXXXXXXXXXXX.",
".XXXXXXXXXXXXXX.XX.....X..XX..&.&....XXXXXXXXXX.-.XXXXXX.@.@.XX.XXXXXXXXXXXXXX.",
".XXXXXXXXXXXXXX.X..X....XX.XX......XXX.X.XXXX..-...XXXX...@...X.XXXXXXXXXXXXXX.",
".XXXXXXXXXXXXXX.XX.......XXXX.;.;.XXXX..XXXX..-.....X..-.@.@.XX.XXXXXXXXXXXXXX.",
".XXXXXXXXXXXXXX.X..--....XXX.;;.;;.X..X.XX...-...-.....--...XX..XXXXXXXXXXXXXX.",
".XXXXXXXXXXXXXX.XX..--....XX.;;.;;.XXXXXX..-....--...-...-.XX.-.XXXXXXXXXXXXXX.",
".XXXXXXXXXXXXXX.X..X.--.....;;;.;;;.XXXX.-..-..--..@..-..--...-.XXXXXXXXXXXXXX.",
".XXXXXXXXXXXXXX.XX....--....;;;.;;;.XX..-.--..--..@.@..-........XXXXXXXXXXXXXX.",
".XXXXXXXXXXXXXX.X..--..--...;;...;;...-..-....-..@.@@@....&.X.-.XXXXXXXXXXXXXX.",
".XXXXXXXXXXXXXX.XX..--..--...........-..-.....-..@.@@.@.&&&&..-.XXXXXXXXXXXXXX.",
".XXXXXXXXXXXXXX.X..----..-..;;...;;.-..-...--.-..@.@.@.@.&&&..-.XXXXXXXXXXXXXX.",
".XXXXXXXXXXXXXX.XX...---.-..;;;.;;;..--...---.-..@.@..&..&..--..XXXXXXXXXXXXXX.",
".XXXXXXXXXXXXXX.X..X..--..-.;;;.;;;.-....--.-.--..X@@.&&..&&.--.XXXXXXXXXXXXXX.",
".XXXXXXXXXXXXXX.XX..-.---.-..;;.;;.--...--..-..--..@.&&&.&.&..-.XXXXXXXXXXXXXX.",
".XXXXXXXXXXXXXX.X..---.-......;.;;.-...--...--..--..&&&&&..&.-..XXXXXXXXXXXXXX.",
".XXXXXXXXXXXXXX.XX..---...---.;.;.....---------.----..&&...&.--.XXXXXXXXXXXXXX.",
".XXXXXXXXXXXXXX.X..----................................&&&&&..-.XXXXXXXXXXXXXX.",
".XXXXXXXXXXXXXX.XX..-.-..-.---.---.---.---.---.---.----.&&&&.--.XXXXXXXXXXXXXX.",
".XXXXXXXXXXXXXX.X..--.-.......................................-.XXXXXXXXXXXXXX.",
".XXXXXXXXXXXXXX.................................................XXXXXXXXXXXXXX.",
".XXXXXXXXXXXXXX.-.......................................-.--..X.XXXXXXXXXXXXXX.",
".XXXXXXXXXXXXXX.--.&&&&.----.---.---.---.---.---.---.-..-.-..XX.XXXXXXXXXXXXXX.",
".XXXXXXXXXXXXXX.-..&&&&&................................----..X.XXXXXXXXXXXXXX.",
".XXXXXXXXXXXXXX.--.&...&&..----.---------.....;.;.---...---..XX.XXXXXXXXXXXXXX.",
".XXXXXXXXXXXXXX..-.&..&&&&&..--..--...--...-.;;.;......-.---..X.XXXXXXXXXXXXXX.",
".XXXXXXXXXXXXXX.-..&.&.&&&.@..--..-..--...--.;;.;;..-.---.-..XX.XXXXXXXXXXXXXX.",
".XXXXXXXXXXXXXX.--.&&..&&.@@X..--.-.--....-.;;;.;;;.-..--..X..X.XXXXXXXXXXXXXX.",
".XXXXXXXXXXXXXX..--..&..&..@.@..-.---...--..;;;.;;;..-.---...XX.XXXXXXXXXXXXXX.",
".XXXXXXXXXXXXXX.-..&&&.@.@.@.@..-.--...-..-.;;...;;..-..----..X.XXXXXXXXXXXXXX.",
".XXXXXXXXXXXXXX.-..&&&&.@.@@.@..-.....-..-...........--..--..XX.XXXXXXXXXXXXXX.",
".XXXXXXXXXXXXXX.-.X.&....@@@.@..-....-..-...;;...;;...--..--..X.XXXXXXXXXXXXXX.",
".XXXXXXXXXXXXXX........-..@.@..--..--.-..XX.;;;.;;;....--....XX.XXXXXXXXXXXXXX.",
".XXXXXXXXXXXXXX.-...--..-..@..--..-..-.XXXX.;;;.;;;.....--.X..X.XXXXXXXXXXXXXX.",
".XXXXXXXXXXXXXX.-.XX.-...-...--....-..XXXXXX.;;.;;.XX....--..XX.XXXXXXXXXXXXXX.",
".XXXXXXXXXXXXXX..XX...--.....-...-...XX.X..X.;;.;;.XXX....--..X.XXXXXXXXXXXXXX.",
".XXXXXXXXXXXXXX.XX.@.@.-..X.....-..XXXX..XXXX.;.;.XXXX.......XX.XXXXXXXXXXXXXX.",
".XXXXXXXXXXXXXX.X...@...XXXX...-..XXXX.X.XXX......XX.XX....X..X.XXXXXXXXXXXXXX.",
".XXXXXXXXXXXXXX.XX.@.@.XXXXXX.-.XXXXXXXXXX....&.&..XX..X.....XX.XXXXXXXXXXXXXX.",
".XXXXXXXXXXXXXX.XXX...XXXXXXX.-.XXX.X.XXX.&&.&&&.&&.X..XX..X..X.XXXXXXXXXXXXXX.",
".XXXXXXXXXXXXXX.XXXX.XXXXXXXXX..XXX..XXX..&.&.&.&.&.XXX.X....XX.XXXXXXXXXXXXXX.",
".XXXXXXXXXXXXXX.XXXXXXXXXXXXXXX.XX.X.XX.&&.&&&.&&&...XXXXX.X..X.XXXXXXXXXXXXXX.",
".XXXXXXXXXXXXXX.XXXXXXXXXXXXXXXX.XXXXX..&.&.&.&.&.&...XX.....XX.XXXXXXXXXXXXXX.",
".XXXXXXXXXXXXXX.XXXXXXXXXXXXXXXXX.XX..&&.&&&.&&&.&&&..XX..XX..X.XXXXXXXXXXXXXX.",
".XXXXXXXXXXXXXX.XXXXXXXXXXXXXXXXX.X...&.&.&.&.&.&.&.&.....X..XX.XXXXXXXXXXXXXX.",
".XXXXXXXXXXXXXX.XXXXXXXXXXXXXXXXXX.&&&.&&&.&&&.&&&.&&.....XX..X.XXXXXXXXXXXXXX.",
".XXXXXXXXXXXXXX.XXXXXXXXXXXXXXXXXXX.&.&.&.&.&...&.&....@.XX..XX.XXXXXXXXXXXXXX.",
".XXXXXXXXXXXXXX.XXXXXXXXXXXXXXXXXXXX.&&&.&&&.###.&.&.@.@.XXX..X.XXXXXXXXXXXXXX.",
".XXXXXXXXXXXXXX.XXXXXXXXXXXXXXXXXXXXX.&.&.&.#####.&..@.@.XX..XX.XXXXXXXXXXXXXX.",
".XXXXXXXXXXXXXX.XXXXXXXXXXXXXXXXXXXXX..&&..######.&..@.@.XXX..X.XXXXXo+oXXXXXX.",
".XXXXXXXXXXXXXX.XXXXXXXXXXXXXXXXXXXXXX...&.###..##...@.@.XX..XX.XXXXX$.$XXXXXX.",
".XXXXXXXXXXXXXX.XXXXXXXXXXXXXXXXXXXXXX.&..###...##..@.@.XXXX..X.XXX=oX*Xo=XXXX.",
".XXXXXXXXXXXXXX.XXXXXXXXXXXXXXXXXXXXX...&.#########.@.@.XXX..XX.XXO..=+=..OXXX.",
".XXXXXXXXXXXXXX.XXXXXXXXXXXXXXXXXX.......######.###.@.@.XXXX.XX.XX....*....XXX.",
".XXXXXXXXXXXXXX.XXXXXXXXXXXXXXXXXX...@...#####..###.@.@.XXXX.XX.XX%.......%XXX.",
".XXXXXXXXXXXXXX.XXXXXXXXXXXXXXXXXX......########.##.@.@.XXX...X.XXX+.....+XXXX.",
".XXXXXXXXXXXXXX.XXXXXXXXXXXXXXXXXX.@@@@..#...###....@.@.XXX.@.X.XXXX+...+XXXXX.",
".XXXXXXXXXXXXXX.XXXXXXXXXXXXXXXXXXX..@...##..###.&...@.XXX.@@@..XXXXX+.+XXXXXX.",
".XXXXXXXXXXXXXX.XXXXXXXXXXXXXXXXXXX...@@......##.....@.XXXX.@.X.XXXXXX%XXXXXXX.",
".XXXXXXXXXXXXXX.XXXXXXXXXXXXXXXXXXX....@..XXX.##.XXX.@.XXXX.@.X.XXXXXX$XXXXXXX.",
".XXXXXXXXXXXXXX.XXXXXXXXXXXXXXXXXXX.@@@@.....###...X.@.XXXX.@.X.XXXXXXXXXXXXXX.",
".XXXXXXXXXXXXXX.XXXXXXXXXXXXXXXXXXX.@.@.@...#######..@.XXXXX.XX.XXXXXXXXXXXXXX.",
".XXXXXXXXXXXXXX.XXXXXXXXXXXXXXXXXXX.@..@@..@.#####.@.@.XXXXX.XX.XXoOo...oXXXXX.",
".XXXXXXXXXXXXXX.XXXXXXXXXXXXXXXXXXX.@...@..@@.###.@@..XXXXXXXXX.XXO......oXXXX.",
".XXXXXXXXXXXXXX.XXXXXXXXXXXXXXXXXXX.@@@@@@..@@.#.@@...XXXXXXXXX.XXX...XO..XXXX.",
".XXXXXXXXXXXXXX.XXXXXXXXXXXXXXXXXX.@@@@.@..X.@@.@@.X..XXXXXXXXX.XXX...OX..XXXX.",
".XXXXXXXXXXXXXX.................................................XXX........XXX.",
".XXXXXXXXXXXXXXXXXXXXXXXXXXXXXXXXXXXXXXXXXXXXXXXXXXXXXXXXXXXXXXXXXX..X+....XXX.",
".XXXXXXXXXXXXXXXXXXXXXXXXXXXXXXXXXXXXXXXXXXXXXXXXXXXXXXXXXXXXXXXXXX..XXX..XXXX.",
".XXXXXXXXXXXXXXXXXXXXXXXXXXXXXXXXXXXXXXXXXXXXXXXXXXXXXXXXXXXXXXXXXX..XXX..XXXX.",
".XXXXXXXXXXXXXXXXXXXXXXXXXXXXXXXXXXXXXXXXXXXXXXXXXXXXXXXXXXXXXXXXXX..XXX..XXXX.",
".XXXXXXXXXXXXXXXXXXXXXXXXXXXXXXXXXXXXXXXXXXXXXXXXXXXXXXXXXXXXXXXXXX..XXX..XXXX.",
".XXXXXXXXXXXXXXXXXXXXXXXXXXXXXXXXXXXXXXXXXXXXXXXXXXXXXXXXXXXXXXXXXX..XXX..XXXX.",
".XXXXXXXXXXXXXXXXXXXXXXXXXXXXXXXXXXXXXXXXXXXXXXXXXXXXXXXXXXXXXXXXXX..OXO..XXXX.",
".XXXXXXXXXXXXXXXXXXXXXXXXXXXXXXXXXXXXXXXXXXXXXXXXXXXXXXXXXXXXXXXXXXo.....oXXXX.",
" .XXXXXXXXXXXXXXXXXXXXXXXXXXXXXXXXXXXXXXXXXXXXXXXXXXXXXXXXXXXXXXXXXXo...oXXXX. ",
" .XXXXXXXXXXXXXXXXXXXXXXXXXXXXXXXXXXXXXXXXXXXXXXXXXXXXXXXXXXXXXXXXXXXXXXXXXXX. ",
"  .XXXXXXXXXXXXXXXXXXXXXXXXXXXXXXXXXXXXXXXXXXXXXXXXXXXXXXXXXXXXXXXXXXXXXXXXX.  ",
"  .XXXXXXXXXXXXXXXXXXXXXXXXXXXXXXXXXXXXXXXXXXXXXXXXXXXXXXXXXXXXXXXXXXXXXXXXX.  ",
"   ..XXXXXXXXXXXXXXXXXXXXXXXXXXXXXXXXXXXXXXXXXXXXXXXXXXXXXXXXXXXXXXXXXXXXX..   ",
"     ..XXXXXXXXXXXXXXXXXXXXXXXXXXXXXXXXXXXXXXXXXXXXXXXXXXXXXXXXXXXXXXXXX..     ",
"       .................................................................       "};
