/* XPM */
static char * Queen_Diamonds_xpm[] = {
"79 123 14 1",
" 	c None",
".	c #000000000000",
"X	c #FFFFFFFFFFFF",
"o	c #F7DEBEFBBEFB",
"O	c #CF3C00000000",
"+	c #DF7D3CF338E3",
"@	c #E79D7DF779E7",
"#	c #F7DEE38DD75C",
"$	c #EFBE9E799E79",
"%	c #FFFFDF7DDF7D",
"&	c #D75C1C711861",
"*	c #30C2C30BA699",
"=	c #2081410330C2",
"-	c #FFFFD75C0000",
"       .................................................................       ",
"     ..XXXXXXXXXXXXXXXXXXXXXXXXXXXXXXXXXXXXXXXXXXXXXXXXXXXXXXXXXXXXXXXXX..     ",
"   ..XXXXXXXXXXXXXXXXXXXXXXXXXXXXXXXXXXXXXXXXXXXXXXXXXXXXXXXXXXXXXXXXXXXXX..   ",
"  .XXXXXXXXXXXXXXXXXXXXXXXXXXXXXXXXXXXXXXXXXXXXXXXXXXXXXXXXXXXXXXXXXXXXXXXXX.  ",
"  .XXXXXXXXXXXXXXXXXXXXXXXXXXXXXXXXXXXXXXXXXXXXXXXXXXXXXXXXXXXXXXXXXXXXXXXXX.  ",
" .XXXXXXXXXXXXXXXXXXXXXXXXXXXXXXXXXXXXXXXXXXXXXXXXXXXXXXXXXXXXXXXXXXXXXXXXXXX. ",
" .XXXXoOOOoXXXXXXXXXXXXXXXXXXXXXXXXXXXXXXXXXXXXXXXXXXXXXXXXXXXXXXXXXXXXXXXXXX. ",
".XXXXoOOOOOoXXXXXXXXXXXXXXXXXXXXXXXXXXXXXXXXXXXXXXXXXXXXXXXXXXXXXXXXXXXXXXXXXX.",
".XXXXOO+X+OOXXXXXXXXXXXXXXXXXXXXXXXXXXXXXXXXXXXXXXXXXXXXXXXXXXXXXXXXXXXXXXXXXX.",
".XXXXOOXXXOOXXXXXXXXXXXXXXXXXXXXXXXXXXXXXXXXXXXXXXXXXXXXXXXXXXXXXXXXXXXXXXXXXX.",
".XXXXOOXXXOOXXXXXXXXXXXXXXXXXXXXXXXXXXXXXXXXXXXXXXXXXXXXXXXXXXXXXXXXXXXXXXXXXX.",
".XXXXOOXXXOOXXXXXXXXXXXXXXXXXXXXXXXXXXXXXXXXXXXXXXXXXXXXXXXXXXXXXXXXXXXXXXXXXX.",
".XXXXOOXXXOOXXXXXXXXXXXXXXXXXXXXXXXXXXXXXXXXXXXXXXXXXXXXXXXXXXXXXXXXXXXXXXXXXX.",
".XXXXOOXXXOOXXXXXXXXXXXXXXXXXXXXXXXXXXXXXXXXXXXXXXXXXXXXXXXXXXXXXXXXXXXXXXXXXX.",
".XXXOOOO@XOOXXXXXXXXXXXXXXXXXXXXXXXXXXXXXXXXXXXXXXXXXXXXXXXXXXXXXXXXXXXXXXXXXX.",
".XXXOOOOOOOOXXX.................................................XXXXXXXXXXXXXX.",
".XXXXOOX+OOOXXX.XX.XXXXX.XXX.....XX.XX.X.XXXXXXXXXXXXXXXXXXXXXX.XXXXXXXXXXXXXX.",
".XXXXOO+XOOOXXX.XXX.XX.....X..X.XX.#.XX..XXXXXXXXXXXXXXXXXXXXXX.XXXXXXXXXXXXXX.",
".XXXXoOOOOOO+XX.XXX.XXXX.XX....XX.###.XX..XXXXXXXXXXXXXXXXXXXXX.XXXXXXXXXXXXXX.",
".XXXXXoOOOo+oXX.XXX.XXX.XXX..X.X.#####.X.X.XXXXXXXXXXXXXXXXXXXX.XXXXXXXXXXXXXX.",
".XXXXXXXXXXXXXX.XXX.X.........X.#######..XX.XXXXXXXXXXXXXXXXXXX.XXXXXXXXXXXXXX.",
".XXXXXXXXXXXXXX.XXX.XXX.XX..X......#...X..X.XXXXXXXXXXXXXXXXXXX.XXXXXXXXXXXXXX.",
".XXXXXXX$XXXXXX.XXX.XX.XX....#.####.###....X.XXXXXXXXXXXXXXXXXX.XXXXXXXXXXXXXX.",
".XXXXXXoOoXXXXX.XXX........X.##.....#......XX.XXXXXXXXXXXXXXXXX.XXXXXXXXXXXXXX.",
".XXXXX%&O&%XXXX.XXX.XX.X....####..##...#....XX.XXXXXXXXXXXXXXXX.XXXXXXXXXXXXXX.",
".XXXX%&OOO&%XXX.XX.XX.XX..X..###...#.#.......X.XXXXXXXXXXXXXXXX.XXXXXXXXXXXXXX.",
".XXXo&OOOOO&oXX.XX.........X.#######.###.....XX.XXXXXXXXXXXXXXX.XXXXXXXXXXXXXX.",
".XX$OOOOOOOOO$X.XX.XX.X..X...########.##......X.XXXXXXXXXXXXXXX.XXXXXXXXXXXXXX.",
".XXXo&OOOOO&oXX.X.XXXX.....X.#####..#.#..X.....X.XXXXXXXXXXXXXX.XXXXXXXXXXXXXX.",
".XXXX%&OOO&%XXX.........X...########.##.X.X....XX.XXXXXXXXXXXXX.XXXXXXXXXXXXXX.",
".XXXXX%&O&%XXXX.XXXXXX...XX.###########..X......X.XXXXXXXXXXXXX.XXXXXXXXXXXXXX.",
".XXXXXXoOoXXXXX.XXXXXX.X..X..###.....##.X.X.....X.XXXXXXXXXXXXX.XXXXXXXXXXXXXX.",
".XXXXXXX$XXXXXX.XXXXX...XXX...####..##...X.X.....X.XXXXXXXXXXXX.XXXXXXXXXXXXXX.",
".XXXXXXXXXXXXXX.XXXXX.X.X.XXX..#######..X.X.X....X.XXXXXXXX.XXX.XXXXXXXXXXXXXX.",
".XXXXXXXXXXXXXX.XXXX....XXX.XX..#####....X.X.....XX.XXXXXX...XX.XXXXXXXXXXXXXX.",
".XXXXXXXXXXXXXX.XXXX.X....XXX.X..####.XX..X.X.....X.XXXXX.X.X.X.XXXXXXXXXXXXXX.",
".XXXXXXXXXXXXXX.XXX..........XX.X....XX.XX...X....X.XXXX...X....XXXXXXXXXXXXXX.",
".XXXXXXXXXXXXXX.XXX.X.X.........X.XXX.X...........XX.XXXX.X.X.X.XXXXXXXXXXXXXX.",
".XXXXXXXXXXXXXX.XX...X...X...................X.....X.XXXXXX..XX.XXXXXXXXXXXXXX.",
".XXXXXXXXXXXXXX.XX.X....X.X.X.............X.X.X....X.XXXXX..X.X.XXXXXXXXXXXXXX.",
".XXXXXXXXXXXXXX.X..........X...X.......X...X.........XXXX.X.X.X.XXXXXXXXXXXXXX.",
".XXXXXXXXXXXXXX.X.X.X.......X.X.X.X.X.X.X.X.......X...XX.X.X.X..XXXXXXXXXXXXXX.",
".XXXXXXXXXXXXXX......X.X.........X...X.........X.X......X.XX.X..XXXXXXXXXXXXXX.",
".XXXXXXXXXXXXXX..X......X.X.................X.X......*.X..XXX.X.XXXXXXXXXXXXXX.",
".XXXXXXXXXXXXXX......X...X.X.X...........X.X.X..X...*.*.X....X..XXXXXXXXXXXXXX.",
".XXXXXXXXXXXXXX.X...XX......X.X.X.X.X.X.X.X........*.**..X.=..X.XXXXXXXXXXXXXX.",
".XXXXXXXXXXXXXX.....X..**.**.....X.X.X.............*.*..X.===...XXXXXXXXXXXXXX.",
".XXXXXXXXXXXXXX....XX.*.*.**...........--.....**...*.*.X.=.=.=..XXXXXXXXXXXXXX.",
".XXXXXXXXXXXXXX....X..***.**........--.--..*****...*..X.===.===.XXXXXXXXXXXXXX.",
".XXXXXXXXXXXXXX...XX........X.**....--.--...*..**...*..=.=.=.=..XXXXXXXXXXXXXX.",
".XXXXXXXXXXXXXX...X..*.X.***..****...-..--..*..**.....===.===.=.XXXXXXXXXXXXXX.",
".XXXXXXXXXXXXXX..XX.**.X.*.*.X.*..*..--.--..***......=.=.=.=.=..XXXXXXXXXXXXXX.",
".XXXXXXXXXXXXXX..X...**..***.X.*..*..--.-.......X.X.=.=.===.===.XXXXXXXXXXXXXX.",
".XXXXXXXXXXXXXX.XX....*.X...XX.****.......X.X.X.X...==.=.=.=.=..XXXXXXXXXXXXXX.",
".XXXXXXXXXXXXXX.X...X.**.**...X.....X.X.X.X......-.X...==.===.=.XXXXXXXXXXXXXX.",
".XXXXXXXXXXXXXX.X....X.*.*.***..X.X.X.......------..===..=.=.=..XXXXXXXXXXXXXX.",
".XXXXXXXXXXXXXX.....X..*.*.*.*.......-------....-.-.=.=.===.===.XXXXXXXXXXXXXX.",
".XXXXXXXXXXXXXX......X.*.*.***..-----........--.-.-.===..=.=.=..XXXXXXXXXXXXXX.",
".XXXXXXXXXXXXXX.....X..*.**...X.-.....--------.-.---...=..===.=.XXXXXXXXXXXXXX.",
".XXXXXXXXXXXXXX......X.*.*...XX.-.-----......-.-.-...==.==.=.=..XXXXXXXXXXXXXX.",
".XXXXXXXXXXXXXX...X.X..*..XXX.X.-.-.....-.-..-.-..---.=.=...==..XXXXXXXXXXXXXX.",
".XXXXXXXXXXXXXX.................................................XXXXXXXXXXXXXX.",
".XXXXXXXXXXXXXX..==...=.=.---..-.-..-.-.....-.-.X.XXX..*..X.X...XXXXXXXXXXXXXX.",
".XXXXXXXXXXXXXX..=.=.==.==...-.-.-......-----.-.XX...*.*.X......XXXXXXXXXXXXXX.",
".XXXXXXXXXXXXXX.=.===..=...---.-.--------.....-.X...**.*..X.....XXXXXXXXXXXXXX.",
".XXXXXXXXXXXXXX..=.=.=..===.-.-.--........-----..***.*.*.X......XXXXXXXXXXXXXX.",
".XXXXXXXXXXXXXX.===.===.=.=.-.-....-------.......*.*.*.*..X.....XXXXXXXXXXXXXX.",
".XXXXXXXXXXXXXX..=.=.=..===..------.......X.X.X..***.*.*.X....X.XXXXXXXXXXXXXX.",
".XXXXXXXXXXXXXX.=.===.==...X.-......X.X.X.X.....X...**.**.X...X.XXXXXXXXXXXXXX.",
".XXXXXXXXXXXXXX..=.=.=.=.==...X.X.X.X.......****.XX...X.*....XX.XXXXXXXXXXXXXX.",
".XXXXXXXXXXXXXX.===.===.=.=.X.X.......-.--..*..*.X.***..**...X..XXXXXXXXXXXXXX.",
".XXXXXXXXXXXXXX..=.=.=.=.=......***..--.--..*..*.X.*.*.X.**.XX..XXXXXXXXXXXXXX.",
".XXXXXXXXXXXXXX.=.===.===.....**..*..--..-...****..***.X.*..X...XXXXXXXXXXXXXX.",
".XXXXXXXXXXXXXX..=.=.=.=..*...**..*...--.--....**.X........XX...XXXXXXXXXXXXXX.",
".XXXXXXXXXXXXXX.===.===.X..*...*****..--.--........**.***..X....XXXXXXXXXXXXXX.",
".XXXXXXXXXXXXXX..=.=.=.X.*.*...**.....--...........**.*.*.XX....XXXXXXXXXXXXXX.",
".XXXXXXXXXXXXXX...===.X..*.*.............X.X.X.....**.**..X.....XXXXXXXXXXXXXX.",
".XXXXXXXXXXXXXX.X..=.X..**.*........X.X.X.X.X.X.X.X......XX...X.XXXXXXXXXXXXXX.",
".XXXXXXXXXXXXXX..X....X.*.*...X..X.X.X...........X.X.X...X......XXXXXXXXXXXXXX.",
".XXXXXXXXXXXXXX.X.XXX..X.*......X.X.................X.X......X..XXXXXXXXXXXXXX.",
".XXXXXXXXXXXXXX..X.XX.X......X.X.........X...X.........X.X......XXXXXXXXXXXXXX.",
".XXXXXXXXXXXXXX..X.X.X.XX...X.......X.X.X.X.X.X.X.X.......X.X.X.XXXXXXXXXXXXXX.",
".XXXXXXXXXXXXXX.X.X.X.XXXX.........X...X.......X...X..........X.XXXXXXXXXXXXXX.",
".XXXXXXXXXXXXXX.X.X..XXXXX.X....X.X.X.............X.X.X....X.XX.XXXXXXXXXXXXXX.",
".XXXXXXXXXXXXXX.XX..XXXXXX.X.....X...................X...X...XX.XXXXXXXXXXXXXX.",
".XXXXXXXXXXXXXX.X.X.X.XXXX.XX...........X.XXX.X.........X.X.XXX.XXXXXXXXXXXXXX.",
".XXXXXXXXXXXXXX....X...XXXX.X....X...XX.XX....X.XX..........XXX.XXXXXXXXXXXXXX.",
".XXXXXXXXXXXXXX.X.X.X.XXXXX.X.....X.X..XX.####..X.XXX....X.XXXX.XXXXXXXXXXXXXX.",
".XXXXXXXXXXXXXX.XX...XXXXXX.XX.....X.X....#####..XX.XXX....XXXX.XXXXXXXXXXXXXX.",
".XXXXXXXXXXXXXX.XXX.XXXXXXXX.X....X.X.X..#######..XXX.X.X.XXXXX.XXXXXXXXXXXXXX.",
".XXXXXXXXXXXXXX.XXXXXXXXXXXX.X.....X.X...##..####...XXX...XXXXX.XXXXXX$XXXXXXX.",
".XXXXXXXXXXXXXX.XXXXXXXXXXXXX.X.....X.X.##.....###..X..X.XXXXXX.XXXXXoOoXXXXXX.",
".XXXXXXXXXXXXXX.XXXXXXXXXXXXX.X......X..###########.XX...XXXXXX.XXXX%&O&%XXXXX.",
".XXXXXXXXXXXXXX.XXXXXXXXXXXXX.XX....X.X.##.########...X.........XXX%&OOO&%XXXX.",
".XXXXXXXXXXXXXX.XXXXXXXXXXXXXX.X.....X..#.#..#####.X.....XXXX.X.XXo&OOOOO&oXXX.",
".XXXXXXXXXXXXXX.XXXXXXXXXXXXXXX.X......##.########...X..X.XX.XX.X$OOOOOOOOO$XX.",
".XXXXXXXXXXXXXX.XXXXXXXXXXXXXXX.XX.....###.#######.X.........XX.XXo&OOOOO&oXXX.",
".XXXXXXXXXXXXXX.XXXXXXXXXXXXXXXX.X.......#.#...###..X..XX.XX.XX.XXX%&OOO&%XXXX.",
".XXXXXXXXXXXXXX.XXXXXXXXXXXXXXXX.XX....#...##..####....X.XX.XXX.XXXX%&O&%XXXXX.",
".XXXXXXXXXXXXXX.XXXXXXXXXXXXXXXXX.XX......#.....##.X........XXX.XXXXXoOoXXXXXX.",
".XXXXXXXXXXXXXX.XXXXXXXXXXXXXXXXXX.X....###.####.#....XX.XX.XXX.XXXXXX$XXXXXXX.",
".XXXXXXXXXXXXXX.XXXXXXXXXXXXXXXXXXX.X..X...#......X..XX.XXX.XXX.XXXXXXXXXXXXXX.",
".XXXXXXXXXXXXXX.XXXXXXXXXXXXXXXXXXX.XX..#######.X.........X.XXX.XXXXXXXXXXXXXX.",
".XXXXXXXXXXXXXX.XXXXXXXXXXXXXXXXXXXX.X.X.#####.X.X..XXX.XXX.XXX.XXo+oOOOoXXXXX.",
".XXXXXXXXXXXXXX.XXXXXXXXXXXXXXXXXXXXX..XX.###.XX....XX.XXXX.XXX.XX+OOOOOOoXXXX.",
".XXXXXXXXXXXXXX.XXXXXXXXXXXXXXXXXXXXXX..XX.#.XX.X..X.....XX.XXX.XXXOOOX+OOXXXX.",
".XXXXXXXXXXXXXX.XXXXXXXXXXXXXXXXXXXXXX.X.XX.XX.....XXX.XXXXX.XX.XXXOOO+XOOXXXX.",
".XXXXXXXXXXXXXX.................................................XXXOOOOOOOOXXX.",
".XXXXXXXXXXXXXXXXXXXXXXXXXXXXXXXXXXXXXXXXXXXXXXXXXXXXXXXXXXXXXXXXXXOOX@OOOOXXX.",
".XXXXXXXXXXXXXXXXXXXXXXXXXXXXXXXXXXXXXXXXXXXXXXXXXXXXXXXXXXXXXXXXXXOOXXXOOXXXX.",
".XXXXXXXXXXXXXXXXXXXXXXXXXXXXXXXXXXXXXXXXXXXXXXXXXXXXXXXXXXXXXXXXXXOOXXXOOXXXX.",
".XXXXXXXXXXXXXXXXXXXXXXXXXXXXXXXXXXXXXXXXXXXXXXXXXXXXXXXXXXXXXXXXXXOOXXXOOXXXX.",
".XXXXXXXXXXXXXXXXXXXXXXXXXXXXXXXXXXXXXXXXXXXXXXXXXXXXXXXXXXXXXXXXXXOOXXXOOXXXX.",
".XXXXXXXXXXXXXXXXXXXXXXXXXXXXXXXXXXXXXXXXXXXXXXXXXXXXXXXXXXXXXXXXXXOOXXXOOXXXX.",
".XXXXXXXXXXXXXXXXXXXXXXXXXXXXXXXXXXXXXXXXXXXXXXXXXXXXXXXXXXXXXXXXXXOO+X+OOXXXX.",
".XXXXXXXXXXXXXXXXXXXXXXXXXXXXXXXXXXXXXXXXXXXXXXXXXXXXXXXXXXXXXXXXXXoOOOOOoXXXX.",
" .XXXXXXXXXXXXXXXXXXXXXXXXXXXXXXXXXXXXXXXXXXXXXXXXXXXXXXXXXXXXXXXXXXoOOOoXXXX. ",
" .XXXXXXXXXXXXXXXXXXXXXXXXXXXXXXXXXXXXXXXXXXXXXXXXXXXXXXXXXXXXXXXXXXXXXXXXXXX. ",
"  .XXXXXXXXXXXXXXXXXXXXXXXXXXXXXXXXXXXXXXXXXXXXXXXXXXXXXXXXXXXXXXXXXXXXXXXXX.  ",
"  .XXXXXXXXXXXXXXXXXXXXXXXXXXXXXXXXXXXXXXXXXXXXXXXXXXXXXXXXXXXXXXXXXXXXXXXXX.  ",
"   ..XXXXXXXXXXXXXXXXXXXXXXXXXXXXXXXXXXXXXXXXXXXXXXXXXXXXXXXXXXXXXXXXXXXXX..   ",
"     ..XXXXXXXXXXXXXXXXXXXXXXXXXXXXXXXXXXXXXXXXXXXXXXXXXXXXXXXXXXXXXXXXX..     ",
"       .................................................................       "};
