/* XPM */
static char * Queen_Hearts_xpm[] = {
"79 123 15 1",
" 	c None",
".	c #000000000000",
"X	c #FFFFFFFFFFFF",
"o	c #F7DEBEFBBEFB",
"O	c #CF3C00000000",
"+	c #DF7D3CF338E3",
"@	c #E79D7DF779E7",
"#	c #FFFFD75C0000",
"$	c #F7DEE38DD75C",
"%	c #DF7D5D755965",
"&	c #D75C1C711861",
"*	c #EFBE9E799E79",
"=	c #30C2A289C71B",
"-	c #FFFF00000000",
";	c #30C2C30BA699",
"       .................................................................       ",
"     ..XXXXXXXXXXXXXXXXXXXXXXXXXXXXXXXXXXXXXXXXXXXXXXXXXXXXXXXXXXXXXXXXX..     ",
"   ..XXXXXXXXXXXXXXXXXXXXXXXXXXXXXXXXXXXXXXXXXXXXXXXXXXXXXXXXXXXXXXXXXXXXX..   ",
"  .XXXXXXXXXXXXXXXXXXXXXXXXXXXXXXXXXXXXXXXXXXXXXXXXXXXXXXXXXXXXXXXXXXXXXXXXX.  ",
"  .XXXXXXXXXXXXXXXXXXXXXXXXXXXXXXXXXXXXXXXXXXXXXXXXXXXXXXXXXXXXXXXXXXXXXXXXX.  ",
" .XXXXXXXXXXXXXXXXXXXXXXXXXXXXXXXXXXXXXXXXXXXXXXXXXXXXXXXXXXXXXXXXXXXXXXXXXXX. ",
" .XXXXoOOOoXXXXXXXXXXXXXXXXXXXXXXXXXXXXXXXXXXXXXXXXXXXXXXXXXXXXXXXXXXXXXXXXXX. ",
".XXXXoOOOOOoXXXXXXXXXXXXXXXXXXXXXXXXXXXXXXXXXXXXXXXXXXXXXXXXXXXXXXXXXXXXXXXXXX.",
".XXXXOO+X+OOXXXXXXXXXXXXXXXXXXXXXXXXXXXXXXXXXXXXXXXXXXXXXXXXXXXXXXXXXXXXXXXXXX.",
".XXXXOOXXXOOXXXXXXXXXXXXXXXXXXXXXXXXXXXXXXXXXXXXXXXXXXXXXXXXXXXXXXXXXXXXXXXXXX.",
".XXXXOOXXXOOXXXXXXXXXXXXXXXXXXXXXXXXXXXXXXXXXXXXXXXXXXXXXXXXXXXXXXXXXXXXXXXXXX.",
".XXXXOOXXXOOXXXXXXXXXXXXXXXXXXXXXXXXXXXXXXXXXXXXXXXXXXXXXXXXXXXXXXXXXXXXXXXXXX.",
".XXXXOOXXXOOXXXXXXXXXXXXXXXXXXXXXXXXXXXXXXXXXXXXXXXXXXXXXXXXXXXXXXXXXXXXXXXXXX.",
".XXXXOOXXXOOXXXXXXXXXXXXXXXXXXXXXXXXXXXXXXXXXXXXXXXXXXXXXXXXXXXXXXXXXXXXXXXXXX.",
".XXXOOOO@XOOXXXXXXXXXXXXXXXXXXXXXXXXXXXXXXXXXXXXXXXXXXXXXXXXXXXXXXXXXXXXXXXXXX.",
".XXXOOOOOOOOXXX.................................................XXXXXXXXXXXXXX.",
".XXXXOOX+OOOXXX.XXXXXXXXXX.#.#.#.#.##########.XXXXXXXXXXXXXXXXX.XXXXXXXXXXXXXX.",
".XXXXOO+XOOOXXX.XXXXXXXXXX..#.#.#...##..#####.XXXXXXXXXXXXXXXXX.XXXXXXXXXXXXXX.",
".XXXXoOOOOOO+XX.XXXXXXXXX..#.#.#.#..##...###.XXXXXXXXXXXXXXXXXX.XXXXXXXXXXXXXX.",
".XXXXXoOOOo+oXX.XXXXXXXXX...#.$.#.#..#...###.XXXXXXXXXXXXXXXXXX.XXXXXXXXXXXXXX.",
".XXXXXXXXXXXXXX.XXXXXXXXX..#.$$$.#.#.#######.XXXXXXXXXXXXXXXXXX.XXXXXXXXXXXXXX.",
".XXXXXXXXXXXXXX.XXXXXXXXX...$$$$$.#...##..##.XXXXXXXXXXXXXXXXXX.XXXXXXXXXXXXXX.",
".XXXXXXXXXXXXXX.XXXXXXXX.#.$...$$.....##...#.XXXXXXXXXXXXXXXXXX.XXXXXXXXXXXXXX.",
".XXXXXXXXXXXXXX.XXXXXXXX.#.$$$.$$$$$...#...##.XXXXXXXXXXXXXXXXX.XXXXXXXXXXXXXX.",
".XXXX%&@X@&%XXX.XXXXXXXX.#.....$$...$..######.XXXXXXXXXXXXXXXXX.XXXXXXXXXXXXXX.",
".XXX@OOO&OOO@XX.XXXXXXXX.#.$...$$$..$$..##..#.XXXXXXXXXXXXXXXXX.XXXXXXXXXXXXXX.",
".XXX+OOOOOOO+XX.XXXXXXX.#......$$....$$..#...#.XXXXXXXXXXXXXXXX.XXXXXXXXXXXXXX.",
".XXX*OOOOOOO*XX.XXXXXXX.#..$$$.$$$$$$$$..#...#.XXXXXXXXXXXXXXXX.XXXXXXXXXXXXXX.",
".XXXX@OOOOO@XXX.XXXXXXX.#..$$$$.$$$$$$$$..#####.XXXXXXXXXXXXXXX.XXXXXXXXXXXXXX.",
".XXXXX%OOO%XXXX.XXXXXXX.#...$$$.$.$$$$$$...#..##.XXXXXXXXXXXXXX.XXXXXXXXXXXXXX.",
".XXXXXX&O&XXXXX.XXXXXX.#....$$$..$$$$$$..........XXXXXXXXXXXXXX.XXXXXXXXXXXXXX.",
".XXXXXXoOoXXXXX.XXXXXX.#....$$$$.$$$$$$..=..XXXXXXXXXXXXXXXXXXX.XXXXXXXXXXXXXX.",
".XXXXXXXoXXXXXX.XXXXXX.#....$$$$$$.$$$........XXXXXXXXXXXXXXXXX.XXXXXXXXXXXXXX.",
".XXXXXXXXXXXXXX.XXXXXX.#...=.$$...$$$$..X.=....XXXXXXXXXXXX.XXX.XXXXXXXXXXXXXX.",
".XXXXXXXXXXXXXX.XXXXX.#...==.$$$..$$$...........XXXXXXXXX..#..X.XXXXXXXXXXXXXX.",
".XXXXXXXXXXXXXX.XXXXX.#...=...$$.$$$$..X.X.=......XXXXXXX.#.#.X.XXXXXXXXXXXXXX.",
".XXXXXXXXXXXXXX.XXXXX.#.....X.$$$$$$................XXXX.#...#..XXXXXXXXXXXXXX.",
".XXXXXXXXXXXXXX.XXXXX.#....X.X.$$$$..X.X.X..==........XXX.#.#.#.XXXXXXXXXXXXXX.",
".XXXXXXXXXXXXXX.XXXX.#...=..X.X.....X.X.X...==.......XXXX..#..#.XXXXXXXXXXXXXX.",
".XXXXXXXXXXXXXX.XXXX.#...=...X.X.X.X.X.X..=.........XXXXXXX.##..XXXXXXXXXXXXXX.",
".XXXXXXXXXXXXXX.XXXX.#..=.==....X.X.X....===........XXXXX.......XXXXXXXXXXXXXX.",
".XXXXXXXXXXXXXX.XXXX.#.=.===.==.......==..=......=.=..XX...=..=.XXXXXXXXXXXXXX.",
".XXXXXXXXXXXXXX.XXX.#.===...===.==.==.===..-..=.====....=====.=.XXXXXXXXXXXXXX.",
".XXXXXXXXXXXXXX.XXX..==.==.....===.==....---..=.==.=.=....=.=.=.XXXXXXXXXXXXXX.",
".XXXXXXXXXXXXXX.XXX.==.==..--........------...==...==..--..=....XXXXXXXXXXXXXX.",
".XXXXXXXXXXXXXX.XX.==.===.---.....---------..====.;....--.==.=..XXXXXXXXXXXXXX.",
".XXXXXXXXXXXXXX.XX.==.===.--.......--;;-;;-..=.=.;...=.--.=.=.=.XXXXXXXXXXXXXX.",
".XXXXXXXXXXXXXX.X.==..==..--.;......-;;;;;-........==..--.==.=..XXXXXXXXXXXXXX.",
".XXXXXXXXXXXXXX..==.=.==.---.;.;....--;;;-..;.;...=...---.===...XXXXXXXXXXXXXX.",
".XXXXXXXXXXXXXX.=====.==.--...;;.;...--;--..;....=.==.--..==....XXXXXXXXXXXXXX.",
".XXXXXXXXXXXXXX.==.=.=.=.--.=...;....--;-...;;..=.=...--.==.....XXXXXXXXXXXXXX.",
".XXXXXXXXXXXXXX.===..=.=.--..=....;...---...;;..=.=.=.--.=....=.XXXXXXXXXXXXXX.",
".XXXXXXXXXXXXXX.=.==.===.--...=..;;...---..;...=.=.=..--.....=..XXXXXXXXXXXXXX.",
".XXXXXXXXXXXXXX.==...==..--...=...;....-...;;..=.=..=.--....=.=.XXXXXXXXXXXXXX.",
".XXXXXXXXXXXXXX.==.=.==.---.=..=...;...-..;.;..=.=.=..--...=.=..XXXXXXXXXXXXXX.",
".XXXXXXXXXXXXXX.==.====.--.....=...;;..-......=.=.=.=.--..=.=.=.XXXXXXXXXXXXXX.",
".XXXXXXXXXXXXXX.=...===.--.==..=.==........;..=.=..=..--.=.=.==.XXXXXXXXXXXXXX.",
".XXXXXXXXXXXXXX..=.=.==.--..=..=...==....;.;..=.=.=.=.--..=.===.XXXXXXXXXXXXXX.",
".XXXXXXXXXXXXXX.==.==.=.--.=...=.=...==..;;..=.=.=....--.=.==.=.XXXXXXXXXXXXXX.",
".XXXXXXXXXXXXXX.===.===.--.==.=....=...==....=.=....=.--..==.==.XXXXXXXXXXXXXX.",
".XXXXXXXXXXXXXX..==.==..--....=.==...X...==....=..==..--.===.==.XXXXXXXXXXXXXX.",
".XXXXXXXXXXXXXX.................................................XXXXXXXXXXXXXX.",
".XXXXXXXXXXXXXX.==.===.--..==..=....==...X...==.=....--..==.==..XXXXXXXXXXXXXX.",
".XXXXXXXXXXXXXX.==.==..--.=....=.=....==...=....=.==.--.===.===.XXXXXXXXXXXXXX.",
".XXXXXXXXXXXXXX.=.==.=.--....=.=.=..;;..==...=.=...=.--.=.==.==.XXXXXXXXXXXXXX.",
".XXXXXXXXXXXXXX.===.=..--.=.=.=.=..;.;....==...=..=..--.==.=.=..XXXXXXXXXXXXXX.",
".XXXXXXXXXXXXXX.==.=.=.--..=..=.=..;........==.=..==.--.===...=.XXXXXXXXXXXXXX.",
".XXXXXXXXXXXXXX.=.=.=..--.=.=.=.=......-..;;...=.....--.====.==.XXXXXXXXXXXXXX.",
".XXXXXXXXXXXXXX..=.=...--..=.=.=..;.;..-...;...=..=.---.==.=.==.XXXXXXXXXXXXXX.",
".XXXXXXXXXXXXXX.=.=....--.=..=.=..;;...-....;...=...--..==...==.XXXXXXXXXXXXXX.",
".XXXXXXXXXXXXXX..=.....--..=.=.=...;..---...;;..=...--.===.==.=.XXXXXXXXXXXXXX.",
".XXXXXXXXXXXXXX.=....=.--.=.=.=..;;...---...;....=..--.=.=..===.XXXXXXXXXXXXXX.",
".XXXXXXXXXXXXXX.....==.--...=.=..;;...-;--....;...=.--.=.=.=.==.XXXXXXXXXXXXXX.",
".XXXXXXXXXXXXXX....==..--.==.=....;..--;--...;.;;...--.==.=====.XXXXXXXXXXXXXX.",
".XXXXXXXXXXXXXX...===.---...=...;.;..-;;;--....;.;.---.==.=.==..XXXXXXXXXXXXXX.",
".XXXXXXXXXXXXXX..=.==.--..==........-;;;;;-......;.--..==..==.X.XXXXXXXXXXXXXX.",
".XXXXXXXXXXXXXX.=.=.=.--.=...;.=.=..-;;-;;--.......--.===.==.XX.XXXXXXXXXXXXXX.",
".XXXXXXXXXXXXXX..=.==.--....;.====..---------.....---.===.==.XX.XXXXXXXXXXXXXX.",
".XXXXXXXXXXXXXX....=..--..==...==...------........--..==.==.XXX.XXXXXXXXXXXXXX.",
".XXXXXXXXXXXXXX.=.=.=....=.=.==.=..---....==.===.....==.==..XXX.XXXXXXXXXXXXXX.",
".XXXXXXXXXXXXXX.=.=====....====.=..-..===.==.==.===...===.#.XXX.XXXXXXXXXXXXXX.",
".XXXXXXXXXXXXXX.=..=...XX..=.=......=..==.......==.===.=.#.XXXX.XXXXXXXXXXXXXX.",
".XXXXXXXXXXXXXX.......XXXXX........===....X.X.X....==.=..#.XXXX.XXXXXXXXXXXXXX.",
".XXXXXXXXXXXXXX..##.XXXXXXX.........=..X.X.X.X.X.X...=...#.XXXX.XXXXXXXXXXXXXX.",
".XXXXXXXXXXXXXX.#..#..XXXX.......==...X.X.X.....X.X..=...#.XXXX.XXXXXXXXXXXXXX.",
".XXXXXXXXXXXXXX.#.#.#.XXX........==..X.X.X..$$$$.X.X....#.XXXXX.XXXXXXXXXXXXXX.",
".XXXXXXXXXXXXXX..#...#.XXXX................$$$$$$.X.....#.XXXXX.XXXXXXXXXXXXXX.",
".XXXXXXXXXXXXXX.X.#.#.XXXXXXX......=.X.X..$$$$.$$...=...#.XXXXX.XXXXXXXXXXXXXX.",
".XXXXXXXXXXXXXX.X..#..XXXXXXXXX...........$$$..$$$.==...#.XXXXX.XXXXXXXXXXXXXX.",
".XXXXXXXXXXXXXX.XXX.XXXXXXXXXXXX....=.X..$$$$...$$.=...#.XXXXXX.XXXXXXXXXXXXXX.",
".XXXXXXXXXXXXXX.XXXXXXXXXXXXXXXXX........$$$.$$$$$$....#.XXXXXX.XXXXXXoXXXXXXX.",
".XXXXXXXXXXXXXX.XXXXXXXXXXXXXXXXXXX..=..$$$$$$.$$$$....#.XXXXXX.XXXXXoOoXXXXXX.",
".XXXXXXXXXXXXXX.XXXXXXXXXXXXXX..........$$$$$$..$$$....#.XXXXXX.XXXXX&O&XXXXXX.",
".XXXXXXXXXXXXXX.XXXXXXXXXXXXXX.##..#...$$$$$$.$.$$$...#.XXXXXXX.XXXX%OOO%XXXXX.",
".XXXXXXXXXXXXXX.XXXXXXXXXXXXXXX.#####..$$$$$$$$.$$$$..#.XXXXXXX.XXX@OOOOO@XXXX.",
".XXXXXXXXXXXXXX.XXXXXXXXXXXXXXXX.#...#..$$$$$$$$.$$$..#.XXXXXXX.XX*OOOOOOO*XXX.",
".XXXXXXXXXXXXXX.XXXXXXXXXXXXXXXX.#...#..$$....$$......#.XXXXXXX.XX+OOOOOOO+XXX.",
".XXXXXXXXXXXXXX.XXXXXXXXXXXXXXXXX.#..##..$$..$$$...$.#.XXXXXXXX.XX@OOO&OOO@XXX.",
".XXXXXXXXXXXXXX.XXXXXXXXXXXXXXXXX.######..$...$$.....#.XXXXXXXX.XXX%&@X@&%XXXX.",
".XXXXXXXXXXXXXX.XXXXXXXXXXXXXXXXX.##...#...$$$$$.$$$.#.XXXXXXXX.XXXXXXXXXXXXXX.",
".XXXXXXXXXXXXXX.XXXXXXXXXXXXXXXXXX.#...##.....$$...$.#.XXXXXXXX.XXXXXXXXXXXXXX.",
".XXXXXXXXXXXXXX.XXXXXXXXXXXXXXXXXX.##..##...#.$$$$$...XXXXXXXXX.XXXXXXXXXXXXXX.",
".XXXXXXXXXXXXXX.XXXXXXXXXXXXXXXXXX.#######.#.#.$$$.#..XXXXXXXXX.XXXXXXXXXXXXXX.",
".XXXXXXXXXXXXXX.XXXXXXXXXXXXXXXXXX.###...#..#.#.$.#...XXXXXXXXX.XXo+oOOOoXXXXX.",
".XXXXXXXXXXXXXX.XXXXXXXXXXXXXXXXXX.###...##..#.#.#.#..XXXXXXXXX.XX+OOOOOOoXXXX.",
".XXXXXXXXXXXXXX.XXXXXXXXXXXXXXXXX.#####..##...#.#.#..XXXXXXXXXX.XXXOOOX+OOXXXX.",
".XXXXXXXXXXXXXX.XXXXXXXXXXXXXXXXX.##########.#.#.#.#.XXXXXXXXXX.XXXOOO+XOOXXXX.",
".XXXXXXXXXXXXXX.................................................XXXOOOOOOOOXXX.",
".XXXXXXXXXXXXXXXXXXXXXXXXXXXXXXXXXXXXXXXXXXXXXXXXXXXXXXXXXXXXXXXXXXOOX@OOOOXXX.",
".XXXXXXXXXXXXXXXXXXXXXXXXXXXXXXXXXXXXXXXXXXXXXXXXXXXXXXXXXXXXXXXXXXOOXXXOOXXXX.",
".XXXXXXXXXXXXXXXXXXXXXXXXXXXXXXXXXXXXXXXXXXXXXXXXXXXXXXXXXXXXXXXXXXOOXXXOOXXXX.",
".XXXXXXXXXXXXXXXXXXXXXXXXXXXXXXXXXXXXXXXXXXXXXXXXXXXXXXXXXXXXXXXXXXOOXXXOOXXXX.",
".XXXXXXXXXXXXXXXXXXXXXXXXXXXXXXXXXXXXXXXXXXXXXXXXXXXXXXXXXXXXXXXXXXOOXXXOOXXXX.",
".XXXXXXXXXXXXXXXXXXXXXXXXXXXXXXXXXXXXXXXXXXXXXXXXXXXXXXXXXXXXXXXXXXOOXXXOOXXXX.",
".XXXXXXXXXXXXXXXXXXXXXXXXXXXXXXXXXXXXXXXXXXXXXXXXXXXXXXXXXXXXXXXXXXOO+X+OOXXXX.",
".XXXXXXXXXXXXXXXXXXXXXXXXXXXXXXXXXXXXXXXXXXXXXXXXXXXXXXXXXXXXXXXXXXoOOOOOoXXXX.",
" .XXXXXXXXXXXXXXXXXXXXXXXXXXXXXXXXXXXXXXXXXXXXXXXXXXXXXXXXXXXXXXXXXXoOOOoXXXX. ",
" .XXXXXXXXXXXXXXXXXXXXXXXXXXXXXXXXXXXXXXXXXXXXXXXXXXXXXXXXXXXXXXXXXXXXXXXXXXX. ",
"  .XXXXXXXXXXXXXXXXXXXXXXXXXXXXXXXXXXXXXXXXXXXXXXXXXXXXXXXXXXXXXXXXXXXXXXXXX.  ",
"  .XXXXXXXXXXXXXXXXXXXXXXXXXXXXXXXXXXXXXXXXXXXXXXXXXXXXXXXXXXXXXXXXXXXXXXXXX.  ",
"   ..XXXXXXXXXXXXXXXXXXXXXXXXXXXXXXXXXXXXXXXXXXXXXXXXXXXXXXXXXXXXXXXXXXXXX..   ",
"     ..XXXXXXXXXXXXXXXXXXXXXXXXXXXXXXXXXXXXXXXXXXXXXXXXXXXXXXXXXXXXXXXXX..     ",
"       .................................................................       "};
