/* XPM */
static char * Queen_Clubs_xpm[] = {
"79 123 16 1",
" 	c None",
".	c #000000000000",
"X	c #FFFFFFFFFFFF",
"o	c #BEFBBEFBBEFB",
"O	c #38E33CF338E3",
"+	c #79E77DF779E7",
"@	c #30C2A289C71B",
"#	c #F7DEE38DD75C",
"$	c #DF7DDF7DDF7D",
"%	c #18611C711861",
"&	c #9E799E799E79",
"*	c #59655D755965",
"=	c #BEFBBAEABEFB",
"-	c #FFFFD75C0000",
";	c #30C2C30BA699",
":	c #FFFF00000000",
"       .................................................................       ",
"     ..XXXXXXXXXXXXXXXXXXXXXXXXXXXXXXXXXXXXXXXXXXXXXXXXXXXXXXXXXXXXXXXXX..     ",
"   ..XXXXXXXXXXXXXXXXXXXXXXXXXXXXXXXXXXXXXXXXXXXXXXXXXXXXXXXXXXXXXXXXXXXXX..   ",
"  .XXXXXXXXXXXXXXXXXXXXXXXXXXXXXXXXXXXXXXXXXXXXXXXXXXXXXXXXXXXXXXXXXXXXXXXXX.  ",
"  .XXXXXXXXXXXXXXXXXXXXXXXXXXXXXXXXXXXXXXXXXXXXXXXXXXXXXXXXXXXXXXXXXXXXXXXXX.  ",
" .XXXXXXXXXXXXXXXXXXXXXXXXXXXXXXXXXXXXXXXXXXXXXXXXXXXXXXXXXXXXXXXXXXXXXXXXXXX. ",
" .XXXXo...oXXXXXXXXXXXXXXXXXXXXXXXXXXXXXXXXXXXXXXXXXXXXXXXXXXXXXXXXXXXXXXXXXX. ",
".XXXXo.....oXXXXXXXXXXXXXXXXXXXXXXXXXXXXXXXXXXXXXXXXXXXXXXXXXXXXXXXXXXXXXXXXXX.",
".XXXX..OXO..XXXXXXXXXXXXXXXXXXXXXXXXXXXXXXXXXXXXXXXXXXXXXXXXXXXXXXXXXXXXXXXXXX.",
".XXXX..XXX..XXXXXXXXXXXXXXXXXXXXXXXXXXXXXXXXXXXXXXXXXXXXXXXXXXXXXXXXXXXXXXXXXX.",
".XXXX..XXX..XXXXXXXXXXXXXXXXXXXXXXXXXXXXXXXXXXXXXXXXXXXXXXXXXXXXXXXXXXXXXXXXXX.",
".XXXX..XXX..XXXXXXXXXXXXXXXXXXXXXXXXXXXXXXXXXXXXXXXXXXXXXXXXXXXXXXXXXXXXXXXXXX.",
".XXXX..XXX..XXXXXXXXXXXXXXXXXXXXXXXXXXXXXXXXXXXXXXXXXXXXXXXXXXXXXXXXXXXXXXXXXX.",
".XXXX..XXX..XXXXXXXXXXXXXXXXXXXXXXXXXXXXXXXXXXXXXXXXXXXXXXXXXXXXXXXXXXXXXXXXXX.",
".XXX....+X..XXXXXXXXXXXXXXXXXXXXXXXXXXXXXXXXXXXXXXXXXXXXXXXXXXXXXXXXXXXXXXXXXX.",
".XXX........XXX.................................................XXXXXXXXXXXXXX.",
".XXXX..XO...XXX.XXXXXX..XX..@...@.@@.@@.@.XXXXXXXXXXXXXXXXXXXXX.XXXXXXXXXXXXXX.",
".XXXX..OX...XXX.XXXXX.......@....@@.@.@@..XXXXXXXXXXXXXXXXXXXXX.XXXXXXXXXXXXXX.",
".XXXXo......OXX..XXXX.......@.@.@@.@@@.@@.XXXXXXXXXXXXXXXXXXXXX.XXXXXXXXXXXXXX.",
".XXXXXo...oOoXX...XXXX..X..@@.@.@.@@.@@.@.XXXXXXXXXXXXXXXXXXXXX.XXXXXXXXXXXXXX.",
".XXXXXXXXXXXXXX.@.XXXXXXX..@.....@@.#.@@..XXXXXXXXXXXXXXXXXXXXX.XXXXXXXXXXXXXX.",
".XXXXXXXXXXXXXX.@..XX..XX..@..@.....##....XXXXXXXXXXXXXXXXXXXXX.XXXXXXXXXXXXXX.",
".XXXXXXXXXXXXXX.@@.X.......@.@..#####.###.XXXXXXXXXXXXXXXXXXXXX.XXXXXXXXXXXXXX.",
".XXXXXXXoXXXXXX.@@.X.......@.@.#....#.....XXXXXXXXXXXXXXXXXXXXX.XXXXXXXXXXXXXX.",
".XXXXX$%.%$XXXX.@@.XX..X..@@...##..##...#.XXXXXXXXXXXXXXXXXXXXX.XXXXXXXXXXXXXX.",
".XXXXX&...&XXXX.@@.XXXXX..@..@.##...#.#....XXXXXXXXXXXXXXXXXXXX.XXXXXXXXXXXXXX.",
".XXX$&o...o&$XX.@@.X..X...@..@.#######.##.@.XXXXXXXXXXXXXXXXXXX.XXXXXXXXXXXXXX.",
".XXX%..+%+..%XX.@.........@.@@.####.#..##.@@.XXXXXXXXXXXXXXXXXX.XXXXXXXXXXXXXX.",
".XXo...%O%...oX.@.@......@@....#####..##...@@.XXXXXXXXXXXXXXXXX.XXXXXXXXXXXXXX.",
".XXX%..o+o..%XX.@.@@.....@..@.#######.##....@@.XXXXXXXXXXXXXXXX.XXXXXXXXXXXXXX.",
".XXX$&$X*X$&$XX.....XX...@..@.#######.##.=...@@.XXXXXXXXXXXXXXX.XXXXXXXXXXXXXX.",
".XXXXXXX.XXXXXX.XXX..X..@@.@@.####.#####.==...@@.XXXXXXXXXXXXXX.XXXXXXXXXXXXXX.",
".XXXXXXo+oXXXXX.XXXX....@......###....#...==...@@.XXXXXXXXXXXXX.XXXXXXXXXXXXXX.",
".XXXXXXXXXXXXXX.XXXXX...@..@....####..#....==..@@.XXXXXXXXXXXXX.XXXXXXXXXXXXXX.",
".XXXXXXXXXXXXXX.XXXX...@@.@@.....#####......=...@@.XXXXXXXXXXXX.XXXXXXXXXXXXXX.",
".XXXXXXXXXXXXXX.XXXX...@..@..-.-..####.---...=..@@.XXXXXXXXXXXX.XXXXXXXXXXXXXX.",
".XXXXXXXXXXXXXX.XXX...@@....----.......-.---....@@.XXXXXXXXXXXX.XXXXXXXXXXXXXX.",
".XXXXXXXXXXXXXX.XXX...@..--.-.----.-.-.---.--...@@.XXXXXXXXXXXX.XXXXXXXXXXXXXX.",
".XXXXXXXXXXXXXX.XX...@@.--......--------.-...;..@@.XXXXX.XXXXXX.XXXXXXXXXXXXXX.",
".XXXXXXXXXXXXXX.XX..@@..--.;;;;....-..-...;;;;....XXXXX.:.XXXXX.XXXXXXXXXXXXXX.",
".XXXXXXXXXXXXXX.X...@.......;;;.;;.....;;.;;;..;..XXXX..:..XXXX.XXXXXXXXXXXXXX.",
".XXXXXXXXXXXXXX.X..@@.;;;.;..;...;..:..;...;..;;;..XX.::.::.XXX.XXXXXXXXXXXXXX.",
".XXXXXXXXXXXXXX...@@..;;..;;...;...:.:...;...;;;....XX..:..-..X.XXXXXXXXXXXXXX.",
".XXXXXXXXXXXXXX...@...;.......;;;.:.:.:.;;;.......;..XX.:.-.-.X.XXXXXXXXXXXXXX.",
".XXXXXXXXXXXXXX..@@.;.....;........:.:......;.;..;;;..XX.-.--.X.XXXXXXXXXXXXXX.",
".XXXXXXXXXXXXXX.@@..;..;.;.;.;.;....:...XX.;.....;;......-.-.XX.XXXXXXXXXXXXXX.",
".XXXXXXXXXXXXXX.@..;....;...;....XX...XXXX..;.;..;;..----.-...X.XXXXXXXXXXXXXX.",
".XXXXXXXXXXXXXX.@....;.;.;.;.;.;.XXX.XXXXX...;...;;......-.---..XXXXXXXXXXXXXX.",
".XXXXXXXXXXXXXX...;...;...;...;.;.XXX...XX..;.;..;;;......--..-.XXXXXXXXXXXXXX.",
".XXXXXXXXXXXXXX..;.;.;.;.;.;.;.;..XXX...XXX.......;;;..;....--..XXXXXXXXXXXXXX.",
".XXXXXXXXXXXXXX.;...;...;...;...;.X..X.X..X.;..;...;..;.;...-.-.XXXXXXXXXXXXXX.",
".XXXXXXXXXXXXXX..;.;.;.;.;.;.;.;..X...X...X...;;;....;;;.;;..-..XXXXXXXXXXXXXX.",
".XXXXXXXXXXXXXX...;...;...;...;...X..X.X..X.;.;;....;.;....;..-.XXXXXXXXXXXXXX.",
".XXXXXXXXXXXXXX..;.;.;.;.;.;.;.;..XXXX.XXXX...;;..;..;;;;;;.;...XXXXXXXXXXXXXX.",
".XXXXXXXXXXXXXX.;...;...;...;...;.XXX...XXX..;;;;;;;..;...;;.;..XXXXXXXXXXXXXX.",
".XXXXXXXXXXXXXX..;.;.......;.;.;.;.XXXXXXXX..;;;;;;;...;;;.;;...XXXXXXXXXXXXXX.",
".XXXXXXXXXXXXXX......;;;;;;...;....XXXX.XXX..;;;;;;.;....;;.;.;.XXXXXXXXXXXXXX.",
".XXXXXXXXXXXXXX...;;;;;;;;;;;;...;.XXX...XX..;;..;;..;....;.;...XXXXXXXXXXXXXX.",
".XXXXXXXXXXXXXX..;;;;;;;..;;;;;;...XX.X.X.X..;;..;;.;.;...;.;.;.XXXXXXXXXXXXXX.",
".XXXXXXXXXXXXXX...;..;;;..;;;;;;.;.X...;...X.;;;;;;;.;.;...;.;..XXXXXXXXXXXXXX.",
".XXXXXXXXXXXXXX.;....;;;;;;;..;;;.;.X.;;;.X.X.;;;;;;;...;;..;.;.XXXXXXXXXXXXXX.",
".XXXXXXXXXXXXXX.................................................XXXXXXXXXXXXXX.",
".XXXXXXXXXXXXXX.;.;..;;...;;;;;;;.X.X.;;;.X.;.;;;..;;;;;;;....;.XXXXXXXXXXXXXX.",
".XXXXXXXXXXXXXX..;.;...;.;.;;;;;;;.X...;...X.;.;;;;;;..;;;..;...XXXXXXXXXXXXXX.",
".XXXXXXXXXXXXXX.;.;.;...;.;.;;..;;..X.X.X.XX...;;;;;;..;;;;;;;..XXXXXXXXXXXXXX.",
".XXXXXXXXXXXXXX...;.;....;..;;..;;..XX...XXX.;...;;;;;;;;;;;;...XXXXXXXXXXXXXX.",
".XXXXXXXXXXXXXX.;.;.;;....;.;;;;;;..XXX.XXXX....;...;;;;;;......XXXXXXXXXXXXXX.",
".XXXXXXXXXXXXXX...;;.;;;...;;;;;;;..XXXXXXXX.;.;.;.;.......;.;..XXXXXXXXXXXXXX.",
".XXXXXXXXXXXXXX..;.;;...;..;;;;;;;..XXX...XXX.;...;...;...;...;.XXXXXXXXXXXXXX.",
".XXXXXXXXXXXXXX...;.;;;;;;..;..;;...XXXX.XXXX..;.;.;.;.;.;.;.;..XXXXXXXXXXXXXX.",
".XXXXXXXXXXXXXX.-..;....;.;....;;.;.X..X.X..X...;...;...;...;...XXXXXXXXXXXXXX.",
".XXXXXXXXXXXXXX..-..;;.;;;....;;;...X...X...X..;.;.;.;.;.;.;.;..XXXXXXXXXXXXXX.",
".XXXXXXXXXXXXXX.-.-...;.;..;...;..;.X..X.X..X.;...;...;...;...;.XXXXXXXXXXXXXX.",
".XXXXXXXXXXXXXX..--....;..;;;.......XXX...XXX..;.;.;.;.;.;.;.;..XXXXXXXXXXXXXX.",
".XXXXXXXXXXXXXX.-..--......;;;..;.;..XX...XXX.;.;...;...;...;...XXXXXXXXXXXXXX.",
".XXXXXXXXXXXXXX..---.-......;;...;...XXXXX.XXX.;.;.;.;.;.;....@.XXXXXXXXXXXXXX.",
".XXXXXXXXXXXXXX.X...-.----..;;..;.;..XXXX...XX....;...;....;..@.XXXXXXXXXXXXXX.",
".XXXXXXXXXXXXXX.XX.-.-......;;.....;.XX...:....;.;.;.;.;..;..@@.XXXXXXXXXXXXXX.",
".XXXXXXXXXXXXXX.X.--.-.XX..;;;..;.;......:.:........;.....;.@@..XXXXXXXXXXXXXX.",
".XXXXXXXXXXXXXX.X.-.-.:.XX..;.......;;;.:.:.:.;;;.......;...@...XXXXXXXXXXXXXX.",
".XXXXXXXXXXXXXX.X..-..:..XX....;;;...;...:.:...;...;;..;;..@@...XXXXXXXXXXXXXX.",
".XXXXXXXXXXXXXX.XXX.::.::.XX..;;;..;...;..:..;...;..;.;;;.@@..X.XXXXXXXXXXXXXX.",
".XXXXXXXXXXXXXX.XXXX..:..XXXX..;..;;;.;;.....;;.;;;.......@...X.XXXXXXXXXXXXXX.",
".XXXXXXXXXXXXXX.XXXXX.:.XXXXX....;;;;...-..-....;;;;.--..@@..XX.XXXXXXXXXXXXXX.",
".XXXXXXXXXXXXXX.XXXXXX.XXXXX.@@..;...-.--------......--.@@...XX.XXXXXXXXXXXXXX.",
".XXXXXXXXXXXXXX.XXXXXXXXXXXX.@@...--.---.-.-.----.-.--..@...XXX.XXXXXXXXXXXXXX.",
".XXXXXXXXXXXXXX.XXXXXXXXXXXX.@@....---.-.......----....@@...XXX.XXXXXXXXXXXXXX.",
".XXXXXXXXXXXXXX.XXXXXXXXXXXX.@@..=...---.####..-.-..@..@...XXXX.XXXXXXXXXXXXXX.",
".XXXXXXXXXXXXXX.XXXXXXXXXXXX.@@...=......#####.....@@.@@...XXXX.XXXXXXXXXXXXXX.",
".XXXXXXXXXXXXXX.XXXXXXXXXXXXX.@@..==....#..####....@..@...XXXXX.XXXXXXXXXXXXXX.",
".XXXXXXXXXXXXXX.XXXXXXXXXXXXX.@@...==...#....###......@....XXXX.XXXXXo+oXXXXXX.",
".XXXXXXXXXXXXXX.XXXXXXXXXXXXXX.@@...==.#####.####.@@.@@..X..XXX.XXXXXX.XXXXXXX.",
".XXXXXXXXXXXXXX.XXXXXXXXXXXXXXX.@@...=.##.#######.@..@...XX.....XX$&$X*X$&$XXX.",
".XXXXXXXXXXXXXX.XXXXXXXXXXXXXXXX.@@....##.#######.@..@.....@@.@.XX%..o+o..%XXX.",
".XXXXXXXXXXXXXX.XXXXXXXXXXXXXXXXX.@@...##..#####....@@......@.@.Xo...%O%...oXX.",
".XXXXXXXXXXXXXX.XXXXXXXXXXXXXXXXXX.@@.##..#.####.@@.@.........@.XX%..+%+..%XXX.",
".XXXXXXXXXXXXXX.XXXXXXXXXXXXXXXXXXX.@.##.#######.@..@...X..X.@@.XX$&o...o&$XXX.",
".XXXXXXXXXXXXXX.XXXXXXXXXXXXXXXXXXXX....#.#...##.@..@..XXXXX.@@.XXXX&...&XXXXX.",
".XXXXXXXXXXXXXX.XXXXXXXXXXXXXXXXXXXXX.#...##..##...@@..X..XX.@@.XXXX$%.%$XXXXX.",
".XXXXXXXXXXXXXX.XXXXXXXXXXXXXXXXXXXXX.....#....#.@.@.......X.@@.XXXXXXoXXXXXXX.",
".XXXXXXXXXXXXXX.XXXXXXXXXXXXXXXXXXXXX.###.#####..@.@.......X.@@.XXXXXXXXXXXXXX.",
".XXXXXXXXXXXXXX.XXXXXXXXXXXXXXXXXXXXX....##.....@..@..XX..XX..@.XXXXXXXXXXXXXX.",
".XXXXXXXXXXXXXX.XXXXXXXXXXXXXXXXXXXXX..@@.#.@@.....@..XXXXXXX.@.XXXXXXXXXXXXXX.",
".XXXXXXXXXXXXXX.XXXXXXXXXXXXXXXXXXXXX.@.@@.@@.@.@.@@..X..XXXX...XXoOo...oXXXXX.",
".XXXXXXXXXXXXXX.XXXXXXXXXXXXXXXXXXXXX.@@.@@@.@@.@.@.......XXXX..XXO......oXXXX.",
".XXXXXXXXXXXXXX.XXXXXXXXXXXXXXXXXXXXX..@@.@.@@....@.......XXXXX.XXX...XO..XXXX.",
".XXXXXXXXXXXXXX.XXXXXXXXXXXXXXXXXXXXX.@.@@.@@.@...@..XX..XXXXXX.XXX...OX..XXXX.",
".XXXXXXXXXXXXXX.................................................XXX........XXX.",
".XXXXXXXXXXXXXXXXXXXXXXXXXXXXXXXXXXXXXXXXXXXXXXXXXXXXXXXXXXXXXXXXXX..X+....XXX.",
".XXXXXXXXXXXXXXXXXXXXXXXXXXXXXXXXXXXXXXXXXXXXXXXXXXXXXXXXXXXXXXXXXX..XXX..XXXX.",
".XXXXXXXXXXXXXXXXXXXXXXXXXXXXXXXXXXXXXXXXXXXXXXXXXXXXXXXXXXXXXXXXXX..XXX..XXXX.",
".XXXXXXXXXXXXXXXXXXXXXXXXXXXXXXXXXXXXXXXXXXXXXXXXXXXXXXXXXXXXXXXXXX..XXX..XXXX.",
".XXXXXXXXXXXXXXXXXXXXXXXXXXXXXXXXXXXXXXXXXXXXXXXXXXXXXXXXXXXXXXXXXX..XXX..XXXX.",
".XXXXXXXXXXXXXXXXXXXXXXXXXXXXXXXXXXXXXXXXXXXXXXXXXXXXXXXXXXXXXXXXXX..XXX..XXXX.",
".XXXXXXXXXXXXXXXXXXXXXXXXXXXXXXXXXXXXXXXXXXXXXXXXXXXXXXXXXXXXXXXXXX..OXO..XXXX.",
".XXXXXXXXXXXXXXXXXXXXXXXXXXXXXXXXXXXXXXXXXXXXXXXXXXXXXXXXXXXXXXXXXXo.....oXXXX.",
" .XXXXXXXXXXXXXXXXXXXXXXXXXXXXXXXXXXXXXXXXXXXXXXXXXXXXXXXXXXXXXXXXXXo...oXXXX. ",
" .XXXXXXXXXXXXXXXXXXXXXXXXXXXXXXXXXXXXXXXXXXXXXXXXXXXXXXXXXXXXXXXXXXXXXXXXXXX. ",
"  .XXXXXXXXXXXXXXXXXXXXXXXXXXXXXXXXXXXXXXXXXXXXXXXXXXXXXXXXXXXXXXXXXXXXXXXXX.  ",
"  .XXXXXXXXXXXXXXXXXXXXXXXXXXXXXXXXXXXXXXXXXXXXXXXXXXXXXXXXXXXXXXXXXXXXXXXXX.  ",
"   ..XXXXXXXXXXXXXXXXXXXXXXXXXXXXXXXXXXXXXXXXXXXXXXXXXXXXXXXXXXXXXXXXXXXXX..   ",
"     ..XXXXXXXXXXXXXXXXXXXXXXXXXXXXXXXXXXXXXXXXXXXXXXXXXXXXXXXXXXXXXXXXX..     ",
"       .................................................................       "};
