/* XPM */
static char * Ranks_xpm[] = {
"117 56 9 1",
" 	c None",
".	c #000000",
"+	c #7D7D7D",
"@	c #3C3C3C",
"#	c #BEBEBE",
"$	c #D00000",
"%	c #FF7D7D",
"&	c #FF3C3C",
"*	c #FFBEBE",
"   ...     +...@# .........    #... ........  #.....# ......... #.....#  #.....# .. #....#     ....  #...#  .... ....",
"   ...    @......#.........    .... ........ #.......#.........#.......##.......#.. ......     .... #.....# .... +...",
"  +...+  @.@   @.@..   #..@   +.... ..       ..@   @....     ....@   @....@   @.... ..  ..      ..  ..@ @..  ..  @.@ ",
"  +. .+  ..     ..    #..@    .. .. ..       ..     @#      @.@..     ....     .... ..  ..      ..  ..   ..  .. @.@  ",
"  .. ..        #..   #...    +.+ .. ..#....# ..             .. ..@   @....     .... ..  ..      ..  ..   ..  ....@   ",
"  .+ +.       #..+  #....    ..  .. ........#..#....#      @.+ #.......#..     .... ..  ..      ..  ..   ..  ....    ",
" +.+ +.+     #..@   ......  +.+  .. ..@   @..........#     ..    .....  ..@   @.... ..  ..      ..  ..   ..  ....    ",
" +.   .+    #..@    #@  @.. ..   .. #@     ....@   @..    +.+  #.......##.......... ..  ..      ..  ..   ..  ....+   ",
" .......   #..@          ..+.+   ..        ....     ..    ..   ..@   @.. #....#.... ..  ..      .. ....+ ..  .. ..   ",
" .......  #..@           ...........       ....     ..   #.@   ..     ..       .... ..  ....    .. ........  .. +.+  ",
"+.@   @.+#..@     #.#    ...........#@     ....     ..   +.+   ..     ..#@     .... ..  ....    ..  .. @...  ..  ..  ",
"+.#   #.+...    .....#  @..      .. ..@   @....@   @..   @.    ..@   @....@   @.... ..  ....@  @..  ..@ ...  ..  +.+ ",
"..     ...........#......@      ....#.......##.......#   ..    #.......##.......#.. ......#......#  #......@.... ....",
"..     ........... #@...@#      .... #.....#  #.....#    ..      .....   #.....# .. #....# #....#    #...#@#.... ....",
"   $$$     %$$$&* $$$$$$$$$    *$$$ $$$$$$$$  *$$$$$* $$$$$$$$$ *$$$$$*  *$$$$$* $$ *$$$$*     $$$$  *$$$*  $$$$ $$$$",
"   $$$    &$$$$$$*$$$$$$$$$    $$$$ $$$$$$$$ *$$$$$$$*$$$$$$$$$*$$$$$$$**$$$$$$$*$$ $$$$$$     $$$$ *$$$$$* $$$$ %$$$",
"  %$$$%  &$&   &$&$$   *$$&   %$$$$ $$       $$&   &$$$$     $$$$&   &$$$$&   &$$$$ $$  $$      $$  $$& &$$  $$  &$& ",
"  %$ $%  $$     $$    *$$&    $$ $$ $$       $$     &*      &$&$$     $$$$     $$$$ $$  $$      $$  $$   $$  $$ &$&  ",
"  $$ $$        *$$   *$$$    %$% $$ $$*$$$$* $$             $$ $$&   &$$$$     $$$$ $$  $$      $$  $$   $$  $$$$&   ",
"  $% %$       *$$%  *$$$$    $$  $$ $$$$$$$$*$$*$$$$*      &$% *$$$$$$$*$$     $$$$ $$  $$      $$  $$   $$  $$$$    ",
" %$% %$%     *$$&   $$$$$$  %$%  $$ $$&   &$$$$$$$$$$*     $$    $$$$$  $$&   &$$$$ $$  $$      $$  $$   $$  $$$$    ",
" %$   $%    *$$&    *&  &$$ $$   $$ *&     $$$$&   &$$    %$%  *$$$$$$$**$$$$$$$$$$ $$  $$      $$  $$   $$  $$$$%   ",
" $$$$$$$   *$$&          $$%$%   $$        $$$$     $$    $$   $$&   &$$ *$$$$*$$$$ $$  $$      $$ $$$$% $$  $$ $$   ",
" $$$$$$$  *$$&           $$$$$$$$$$$       $$$$     $$   *$&   $$     $$       $$$$ $$  $$$$    $$ $$$$$$$$  $$ %$%  ",
"%$&   &$%*$$&     *$*    $$$$$$$$$$$*&     $$$$     $$   %$%   $$     $$*&     $$$$ $$  $$$$    $$  $$ &$$$  $$  $$  ",
"%$*   *$%$$$    $$$$$*  &$$      $$ $$&   &$$$$&   &$$   &$    $$&   &$$$$&   &$$$$ $$  $$$$&  &$$  $$& $$$  $$  %$% ",
"$$     $$$$$$$$$$$*$$$$$$&      $$$$*$$$$$$$**$$$$$$$*   $$    *$$$$$$$**$$$$$$$*$$ $$$$$$*$$$$$$*  *$$$$$$&$$$$ $$$$",
"$$     $$$$$$$$$$$ *&$$$&*      $$$$ *$$$$$*  *$$$$$*    $$      $$$$$   *$$$$$* $$ *$$$$* *$$$$*    *$$$*&*$$$$ $$$$",
"$$$$ $$$$*&*$$$*    *$$$$* *$$$$* $$ *$$$$$*   $$$$$      $$    *$$$$$*  *$$$$$* $$$$      *&$$$&* $$$$$$$$$$$     $$",
"$$$$ $$$$&$$$$$$*  *$$$$$$*$$$$$$ $$*$$$$$$$**$$$$$$$*    $$   *$$$$$$$**$$$$$$$*$$$$      &$$$$$$*$$$$$$$$$$$     $$",
" %$%  $$  $$$ &$$  $$&  &$$$$  $$ $$$$&   &$$$$&   &$$    $&   $$&   &$$$$&   &$$ $$      $$&  *$$$$$    $$$%$*   *$%",
"  $$  $$  $$$& $$  $$    $$$$  $$ $$$$     &*$$     $$   %$%   $$     $$$$     &*$$$$$$$$$$$    *$*     &$$*%$&   &$%",
"  %$% $$  $$$$$$$$ $$    $$$$  $$ $$$$       $$     $$   &$*   $$     $$$$       $$$$$$$$$$$           &$$*  $$$$$$$ ",
"   $$ $$  $$ %$$$$ $$      $$  $$ $$$$*$$$$* $$&   &$$   $$    $$     $$$$        $$   %$%$$          &$$*   $$$$$$$ ",
"   %$$$$  $$   $$  $$      $$  $$ $$$$$$$$$$**$$$$$$$*  %$%    $$&   &$$$$     &* $$   $$ $$&  &*    &$$*    %$   $% ",
"    $$$$  $$   $$  $$      $$  $$ $$$$&   &$$  $$$$$    $$     *$$$$$$$$$$&   &$$ $$  %$%  $$$$$$   &$$*     %$% %$% ",
"    $$$$  $$   $$  $$      $$  $$ $$$$     $$*$$$$$$$* %$&      *$$$$*$$*$$$$$$$$ $$  $$    $$$$*  %$$*       $% %$  ",
"   &$$$$  $$   $$  $$      $$  $$ $$$$     $$$$&   &$$ $$             $$ *$$$$*$$ $$ %$%    $$$*   $$*        $$ $$  ",
"  &$& $$  $$   $$  $$      $$  $$ $$$$     $$$$     $$&$&      *&     $$       $$ $$ $$    &$$*    $$     $$  %$ $%  ",
" &$&  $$  $$& &$$  $$      $$  $$ $$$$&   &$$$$&   &$$$$     $$$$&   &$$       $$ $$$$%   &$$*   $$&$&   &$&  %$$$%  ",
"$$$% $$$$ *$$$$$* $$$$     $$$$$$ $$*$$$$$$$**$$$$$$$*$$$$$$$$$*$$$$$$$* $$$$$$$$ $$$$    $$$$$$$$$*$$$$$$&    $$$   ",
"$$$$ $$$$  *$$$*  $$$$     *$$$$* $$ *$$$$$*  *$$$$$* $$$$$$$$$ *$$$$$*  $$$$$$$$ $$$*    $$$$$$$$$ *&$$$%     $$$   ",
".... ....#@#...#    #....# #....# .. #.....#   .....      ..    #.....#  #.....# ....      #@...@# ...........     ..",
".... ....@......#  #......#...... ..#.......##.......#    ..   #.......##.......#....      @......#...........     ..",
" +.+  ..  ... @..  ..@  @....  .. ....@   @....@   @..    .@   ..@   @....@   @.. ..      ..@  #.....    ...+.#   #.+",
"  ..  ..  ...@ ..  ..    ....  .. ....     @#..     ..   +.+   ..     ....     @#...........    #.#     @..#+.@   @.+",
"  +.+ ..  ........ ..    ....  .. ....       ..     ..   @.#   ..     ....       ...........           @..#  ....... ",
"   .. ..  .. +.... ..      ..  .. ....#....# ..@   @..   ..    ..     ....        ..   +.+..          @..#   ....... ",
"   +....  ..   ..  ..      ..  .. ..........##.......#  +.+    ..@   @....     @# ..   .. ..@  @#    @..#    +.   .+ ",
"    ....  ..   ..  ..      ..  .. ....@   @..  .....    ..     #..........@   @.. ..  +.+  ......   @..#     +.+ +.+ ",
"    ....  ..   ..  ..      ..  .. ....     ..#.......# +.@      #....#..#........ ..  ..    ....#  +..#       .+ +.  ",
"   @....  ..   ..  ..      ..  .. ....     ....@   @.. ..             .. #....#.. .. +.+    ...#   ..#        .. ..  ",
"  @.@ ..  ..   ..  ..      ..  .. ....     ....     ..@.@      #@     ..       .. .. ..    @..#    ..     ..  +. .+  ",
" @.@  ..  ..@ @..  ..      ..  .. ....@   @....@   @....     ....@   @..       .. ....+   @..#   ..@.@   @.@  +...+  ",
"...+ .... #.....# ....     ...... ..#.......##.......#.........#.......# ........ ....    .........#......@    ...   ",
".... ....  #...#  ....     #....# .. #.....#  #.....# ......... #.....#  ........ ...#    ......... #@...+     ...   "};
