/* XPM */
static char * Ranks_xpm[] = {
"108 70 9 1",
" 	c None",
".	c #000000000000",
"X	c #BEFBBEFBBEFB",
"o	c #CF3C00000000",
"O	c #F3CEBEFBBEFB",
"+	c #7DF77DF77DF7",
"@	c #3CF33CF33CF3",
"#	c #E79D7DF77DF7",
"$	c #DB6C3CF33CF3",
"   ...    X.....X      ....   ooo    OoooooO      oooo         X....X .. X.....X          OooooO oo OoooooO ",
"   ...   X.......X     ....   ooo   OoooooooO     oooo         ...... ..X.......X         oooooo ooOoooooooO",
"  +...+  ..@   @..      ..   #ooo#  oo$   $oo      oo          ..  .. ....@   @..         oo  oo oooo$   $oo",
"  +. .+  ..     @X      ..   #o o#  oo     $O      oo          ..  .. ....     @X         oo  oo oooo     $O",
"  .. ..  ..             ..   oo oo  oo             oo          ..  .. ....                oo  oo oooo       ",
"  .+ +.  ..X....X       ..   o# #o  ooOooooO       oo          ..  .. ....                oo  oo oooo       ",
" +.+ +.+ ........X      ..  #o# #o# ooooooooO      oo          ..  .. ....     @X         oo  oo oooo     $O",
" +.   .+ ..@   @..      ..  #o   o# oo$   $oo      oo          ..  .. ....@   @..         oo  oo oooo$   $oo",
" ....... ..     ..      ..  ooooooo oo     oo      oo          ..  .. ..X........         oo  oo ooOoooooooo",
" ....... ..     ....    ..  ooooooo oo     oooo    oo          ..  .. .. X....X..         oo  oo oo OooooOoo",
"+.@   @.+..     ....    .. #o$   $o#oo     oooo    oo          ..  .. ..       ..         oo  oo oo       oo",
"+.X   X.+..@   @....@  @.. #oO   Oo#oo$   $oooo$  $oo          ..  .. ..       ..         oo  oo oo       oo",
"..     ..X.......XX......X oo     ooOoooooooOOooooooO          ...... .. ........         oooooo oo oooooooo",
"..     .. X.....X  X....X  oo     oo OoooooO  OooooO           X....X .. ........         OooooO oo oooooooo",
"  +...@X .........  X...X    #ooo$O ooooooooo  OoooO            X.....X ....               OoooooO oooo     ",
" @......X......... X.....X  $ooooooOooooooooo OoooooO          X.......X....              OoooooooOoooo     ",
"@.@   @.@..     .. ..@ @.. $o$   $o$oo     oo oo$ $oo          ..@   @.. ..               oo$   $oo oo      ",
"..     ..      @.@ ..   .. oo     oo      $o$ oo   oo          ..     @X.........         oo     $Oooooooooo",
"      X..      ..  ..   ..       Ooo      oo  oo   oo          ..       .........         oo       ooooooooo",
"     X..+     @.+  ..   ..      Ooo#     $o#  oo   oo          ..X....X  ..   +.+         ooOooooO  oo   #o#",
"    X..@      ..   ..   ..     Ooo$      oo   oo   oo          ........X ..   ..          ooooooooO oo   oo ",
"   X..@      +.+   ..   ..    Ooo$      #o#   oo   oo          ..@   @.. ..  +.+          oo$   $oo oo  #o# ",
"  X..@       ..   ....+ ..   Ooo$       oo   oooo# oo          ..     .. ..  ..           oo     oo oo  oo  ",
" X..@       X.@   ........  Ooo$       Oo$   oooooooo          ..     .. .. +.+           oo     oo oo #o#  ",
"X..@        +.+    .. @... Ooo$        #o#    oo $ooo          ..     .. .. ..            oo     oo oo oo   ",
"...    ..   @.     ..@ ... ooo    oo   $o     oo$ ooo          ..@   @.. ....+            oo$   $oo oooo#   ",
".........   ..     X......@ooooooooo   oo     Ooooooo$         X.......X ....             OoooooooO oooo    ",
".........   ..      X...X@Xooooooooo   oo      OoooO$O          X.....X  ...X              OoooooO  oooO    ",
"......... X.....X .... ....ooooooooo OoooooO oooo oooo.... ....  .....   X@...@X oooo oooo  ooooo   O$ooo$O ",
".........X.......X.... +...oooooooooOoooooooOoooo #ooo.... ....X.......X @......Xoooo ooooOoooooooO $ooooooO",
"..   X..@..@   @.. ..  @.@ oo   Ooo$oo$   $oo oo  $o$  +.+  .. ..@   @....@  X... #o#  oo oo$   $oooo$  Oooo",
"    X..@ ..     .. .. @.@      Ooo$ oo     oo oo $o$    ..  .. ..     ....    X.X  oo  oo oo     oooo    OoO",
"   X...  ..@   @.. ....@      Oooo  oo$   $oo oooo$     +.+ .. ..     ....         #o# oo oo     oooo       ",
"  X....  X.......X ....      Ooooo  OoooooooO oooo       .. .. ..@   @....          oo oo oo$   $oooo       ",
"  ......   .....   ....      oooooo   ooooo   oooo       +.... X.......X..@  @X     #oooo OoooooooOoo$  $O  ",
"  X@  @..X.......X ....+     O$  $ooOoooooooO oooo#       ....   .....   ......      oooo   ooooo   oooooo  ",
"       ....@   @.. .. ..          oooo$   $oo oo oo       .... X.......X  ....X      oooo OoooooooO  ooooO  ",
"       ....     .. .. +.+         oooo     oo oo #o#     @.... ..@   @..  ...X      $oooo oo$   $oo  oooO   ",
"X.X    ....     .. ..  ..  OoO    oooo     oo oo  oo    @.@ .. ..     .. @..X      $o$ oo oo     oo $ooO    ",
"...X  @....@   @.. ..  +.+ oooO  $oooo$   $oo oo  #o#  @.@  .. ..@   @..@..X   .. $o$  oo oo$   $oo$ooO   oo",
"X......@ X.......X.... ....Ooooooo$ OoooooooOoooo oooo...+ ....X.......X.........ooo# ooooOoooooooOooooooooo",
" X@...@X   .....  .... .... O$ooo$O   ooooo  oooo oooo.... .... X.....X .........oooo oooo OoooooO ooooooooo",
"    X...  X.....X              Oooo  OoooooO          X@X...X      ..   .........O$OoooO      oo   ooooooooo",
"    .... X.......X             oooo OoooooooO         @......X     ..   .........$ooooooO     oo   ooooooooo",
"   +.... ..@   @..            #oooo oo$   $oo          ... @..     .@   ..    ... ooo $oo     o$   oo    ooo",
"   .. .. ..     ..            oo oo oo     oo          ...@ ..    +.+        @..X ooo$ oo    #o#        $ooO",
"  +.+ .. ..     ..           #o# oo oo     oo          ........   @.X       @..X  oooooooo   $oO       $ooO ",
"  ..  .. ..     ..           oo  oo oo     oo          .. +....   ..       @..X   oo #oooo   oo       $ooO  ",
" +.+  .. ..@   @..          #o#  oo oo$   $oo          ..   ..   +.+      @..X    oo   oo   #o#      $ooO   ",
" ..   .. X........          oo   oo Ooooooooo          ..   ..   ..      @..X     oo   oo   oo      $ooO    ",
"+.+   ..  X....X..         #o#   oo  OooooOoo          ..   ..  +.@     +..X      oo   oo  #o$     #ooO     ",
".........       ..         ooooooooo       oo          ..   ..  ..      ..X       oo   oo  oo      ooO      ",
".........X@     ..         oooooooooO$     oo          ..   .. @.@      ..     .. oo   oo $o$      oo     oo",
"      .. ..@   @..               oo oo$   $oo          ..@ @.. ..     ..@.@   @.@ oo$ $oo oo     oo$o$   $o$",
"     ....X.......X              ooooOoooooooO          X.....X .........X......@  OoooooO oooooooooOoooooo$ ",
"     .... X.....X               oooo OoooooO            X...X  ......... X@...+    OoooO  ooooooooo O$ooo#  ",
"........ .. X....X         oooooooo oo OooooO           X....X  X.....X ..     ..  OooooO  OoooooO oo     oo",
"........ .. ......         oooooooo oo oooooo          X......XX.......X..     .. OooooooOOoooooooOoo     oo",
"..       .. ..  ..         oo       oo oo  oo          ..@  @....@   @..+.X   X.+ oo$  $oooo$   $oo#oO   Oo#",
"..       .. ..  ..         oo       oo oo  oo          ..    ....     ..+.@   @.+ oo    oooo     oo#o$   $o#",
"..X....X .. ..  ..         ooOooooO oo oo  oo          ..    ....     .. .......  oo    oooo     oo ooooooo ",
"........X.. ..  ..         ooooooooOoo oo  oo          ..      ..     .. .......  oo      oo     oo ooooooo ",
"..@   @.... ..  ..         oo$   $oooo oo  oo          ..      ..@   @.. +.   .+  oo      oo$   $oo #o   o# ",
"X@     .... ..  ..         O$     oooo oo  oo          ..      X........ +.+ +.+  oo      Ooooooooo #o# #o# ",
"       .... ..  ..                oooo oo  oo          ..       X....X..  .+ +.   oo       OooooOoo  o# #o  ",
"       .... ..  ..                oooo oo  oo          ..             ..  .. ..   oo             oo  oo oo  ",
"X@     .... ..  ..         O$     oooo oo  oo          ..      X@     ..  +. .+   oo      O$     oo  #o o#  ",
"..@   @.... ..  ..         oo$   $oooo oo  oo          ..      ..@   @..  +...+   oo      oo$   $oo  #ooo#  ",
"X.......X.. ......         OoooooooOoo oooooo         ....     X.......X   ...   oooo     OoooooooO   ooo   ",
" X.....X .. X....X          OoooooO oo OooooO         ....      X.....X    ...   oooo      OoooooO    ooo   "};
