/* XPM */
static char * Seven_Diamonds_xpm[] = {
"79 123 12 1",
" 	c None",
".	c #000000000000",
"X	c #FFFFFFFFFFFF",
"o	c #CF3C00000000",
"O	c #DF7D3CF338E3",
"+	c #E79D7DF779E7",
"@	c #EFBE9E799E79",
"#	c #FFFFDF7DDF7D",
"$	c #F7DEBEFBBEFB",
"%	c #DF7D5D755965",
"&	c #D75C1C711861",
"*	c #D75CD75CD75C",
"       .................................................................       ",
"     ..XXXXXXXXXXXXXXXXXXXXXXXXXXXXXXXXXXXXXXXXXXXXXXXXXXXXXXXXXXXXXXXXX..     ",
"   ..XXXXXXXXXXXXXXXXXXXXXXXXXXXXXXXXXXXXXXXXXXXXXXXXXXXXXXXXXXXXXXXXXXXXX..   ",
"  .XXXXXXXXXXXXXXXXXXXXXXXXXXXXXXXXXXXXXXXXXXXXXXXXXXXXXXXXXXXXXXXXXXXXXXXXX.  ",
"  .XXXXXXXXXXXXXXXXXXXXXXXXXXXXXXXXXXXXXXXXXXXXXXXXXXXXXXXXXXXXXXXXXXXXXXXXX.  ",
" .XXXXXXXXXXXXXXXXXXXXXXXXXXXXXXXXXXXXXXXXXXXXXXXXXXXXXXXXXXXXXXXXXXXXXXXXXXX. ",
" .XXoooooooooXXXXXXXXXXXXXXXXXXXXXXXXXXXXXXXXXXXXXXXXXXXXXXXXXXXXXXXXXXXXXXXX. ",
".XXXoooooooooXXXXXXXXXXXXXXXXXXXXXXXXXXXXXXXXXXXXXXXXXXXXXXXXXXXXXXXXXXXXXXXXX.",
".XXXooXXXXXooXXXXXXXXXXXXXXXXXXXXXXXXXXXXXXXXXXXXXXXXXXXXXXXXXXXXXXXXXXXXXXXXX.",
".XXXXXXXXXOoOXXXXXXXXXXXXXXXXXXXXXXXXXXXXXXXXXXXXXXXXXXXXXXXXXXXXXXXXXXXXXXXXX.",
".XXXXXXXXXooXXXXXXXXXXXXXXXXXXXXXXXXXXXXXXXXXXXXXXXXXXXXXXXXXXXXXXXXXXXXXXXXXX.",
".XXXXXXXXOo+XXXXXXXXXXXXXXXXXXXXXXXXXXXXXXXXXXXXXXXXXXXXXXXXXXXXXXXXXXXXXXXXXX.",
".XXXXXXXXooXXXXXXXXXXXX+XXXXXXXXXXXXXXXXXXXXXXXXXXXXXXX+XXXXXXXXXXXXXXXXXXXXXX.",
".XXXXXXX+o+XXXXXXXXXXX@o@XXXXXXXXXXXXXXXXXXXXXXXXXXXXX@o@XXXXXXXXXXXXXXXXXXXXX.",
".XXXXXXXooXXXXXXXXXXX#ooo#XXXXXXXXXXXXXXXXXXXXXXXXXXX#ooo#XXXXXXXXXXXXXXXXXXXX.",
".XXXXXX$oOXXXXXXXXXXXOoooOXXXXXXXXXXXXXXXXXXXXXXXXXXXOoooOXXXXXXXXXXXXXXXXXXXX.",
".XXXXXX+o+XXXXXXXXXX%ooooo%XXXXXXXXXXXXXXXXXXXXXXXXX%ooooo%XXXXXXXXXXXXXXXXXXX.",
".XXXXXXOoXXXXXXXXXX+ooooooo+XXXXXXXXXXXXXXXXXXXXXXX+ooooooo+XXXXXXXXXXXXXXXXXX.",
".XXXXXXooXXXXXXXXX+ooooooooo+XXXXXXXXXXXXXXXXXXXXX+ooooooooo+XXXXXXXXXXXXXXXXX.",
".XXXXXXooXXXXXXXX%ooooooooooo%XXXXXXXXXXXXXXXXXXX%ooooooooooo%XXXXXXXXXXXXXXXX.",
".XXXXXXXXXXXXXX#OoooooooooooooO#XXXXXXXXXXXXXXX#OoooooooooooooO#XXXXXXXXXXXXXX.",
".XXXXXXXXXXXXX@ooooooooooooooooo@XXXXXXXXXXXXX@ooooooooooooooooo@XXXXXXXXXXXXX.",
".XXXXXXX@XXXX+ooooooooooooooooooo+XXXXXXXXXXX+ooooooooooooooooooo+XXXXXXXXXXXX.",
".XXXXXX$o$XXXX@ooooooooooooooooo@XXXXXXXXXXXXX@ooooooooooooooooo@XXXXXXXXXXXXX.",
".XXXXX#&o&#XXXX#OoooooooooooooO#XXXXXXXXXXXXXXX#OoooooooooooooO#XXXXXXXXXXXXXX.",
".XXXX#&ooo&#XXXXX%ooooooooooo%XXXXXXXXXXXXXXXXXXX%ooooooooooo%XXXXXXXXXXXXXXXX.",
".XXX$&ooooo&$XXXXX+ooooooooo+XXXXXXXXXXXXXXXXXXXXX+ooooooooo+XXXXXXXXXXXXXXXXX.",
".XX@ooooooooo@XXXXX+ooooooo+XXXXXXXXXXXXXXXXXXXXXXX+ooooooo+XXXXXXXXXXXXXXXXXX.",
".XXX$&ooooo&$XXXXXXX%ooooo%XXXXXXXXXXXXXXXXXXXXXXXXX%ooooo%XXXXXXXXXXXXXXXXXXX.",
".XXXX#&ooo&#*********OoooOXXXXXXXXXXXXXXXXXXXXXXXXXXXOoooOXXXXXXXX*****XXXXXXX.",
".XXXXX#&o&#**********#ooo#XXXXXXXXXXXXXXXXXXXXXXXXXXX#ooo#XXXXXXXX*****XXXXXXX.",
".XXXXXX$o$************@o@XXXXXXXXXXXXXX+XXXXXXXXXXXXXX@o@XXXXXXXX*****XXXXXXXX.",
".XXXXXXX@X*************+**XXXXXXXXXXXX@o@XXXXXXXXXXXXXX+XXXXXXXX*****XXXXXXXXX.",
".XXXXXXXXX****************XXXXXXXXXXX#ooo#XXXXXXXXXXXXXXXXXXXXX*****XXXXXXXXXX.",
".XXXXXXXXXX****************XXXXXXXXXXOoooOXXXXXXXXXXXXXXXXXXXX*****XXXXXXXXXXX.",
".XXXXXXXXXXX****************XXXXXXXX%ooooo%XXXXXXXXXXXXXXXXXXX*****XXXXXXXXXXX.",
".XXXXXXXXXXXX****************XXXXXX+ooooooo+XXXXXXXXXXXXXXXXX*****XXXXXXXXXXXX.",
".XXXXXXXXXXXX****************XXXXX+ooooooooo+XXXXXXXXXXXXXXX*****XXXXXXXXXXXXX.",
".XXXXXXXXXXXXX****************XXX%ooooooooooo%XXXXXXXXXXXXX*****XXXXXXXXXXXXXX.",
".XXXXXXXXXXXXXX****************#OoooooooooooooO#XXXXXXXXXX*****XXXXXXXXXXXXXXX.",
".XXXXXXXXXXXXXXX**************@ooooooooooooooooo@XXXXXXXXX*****XXXXXXXXXXXXXXX.",
".XXXXXXXXXXXXXXX*************+ooooooooooooooooooo+XXXXXXX*****XXXXXXXXXXXXXXXX.",
".XXXXXXXXXXXXXXXX*************@ooooooooooooooooo@XXXXXXX*****XXXXXXXXXXXXXXXXX.",
".XXXXXXXXXXXXXXXXX*************#OoooooooooooooO#XXXXXXX*****XXXXXXXXXXXXXXXXXX.",
".XXXXXXXXXXXXXXXXXX**************%ooooooooooo%XXXXXXXX*****XXXXXXXXXXXXXXXXXXX.",
".XXXXXXXXXXXXXXXXXX***************+ooooooooo+XXXXXXXX*****XXXXXXXXXXXXXXXXXXXX.",
".XXXXXXXXXXXXXXXXXXX***************+ooooooo+XXXXXXXXX*****XXXXXXXXXXXXXXXXXXXX.",
".XXXXXXXXXXXXXXXXXXXX***************%ooooo%XXXXXXXXX*****XXXXXXXXXXXXXXXXXXXXX.",
".XXXXXXXXXXXXXXXXXXXXX***************OoooOXXXXXXXXX*****XXXXXXXXXXXXXXXXXXXXXX.",
".XXXXXXXXXXXXXXXXXXXXX***************#ooo#XXXXXXXX*****XXXXXXXXXXXXXXXXXXXXXXX.",
".XXXXXXXXXXXXXXXXXXXXXX***************@o@XXXXXXXX*****XXXXXXXXXXXXXXXXXXXXXXXX.",
".XXXXXXXXXXXXXXXXXXXXXX+***************+XXXXXXXXX*****X+XXXXXXXXXXXXXXXXXXXXXX.",
".XXXXXXXXXXXXXXXXXXXXX@o@****************XXXXXXX*****X@o@XXXXXXXXXXXXXXXXXXXXX.",
".XXXXXXXXXXXXXXXXXXXX#ooo#***************XXXXXX*****X#ooo#XXXXXXXXXXXXXXXXXXXX.",
".XXXXXXXXXXXXXXXXXXXXOoooO****************XXXX*****XXOoooOXXXXXXXXXXXXXXXXXXXX.",
".XXXXXXXXXXXXXXXXXXX%ooooo%****************XX*****XX%ooooo%XXXXXXXXXXXXXXXXXXX.",
".XXXXXXXXXXXXXXXXXX+ooooooo+***************XX*****X+ooooooo+XXXXXXXXXXXXXXXXXX.",
".XXXXXXXXXXXXXXXXX+ooooooooo+*************XX*****X+ooooooooo+XXXXXXXXXXXXXXXXX.",
".XXXXXXXXXXXXXXXX%ooooooooooo%***********XX*****X%ooooooooooo%XXXXXXXXXXXXXXXX.",
".XXXXXXXXXXXXXX#OoooooooooooooO#********XX*****#OoooooooooooooO#XXXXXXXXXXXXXX.",
".XXXXXXXXXXXXX@ooooooooooooooooo@******XX*****@ooooooooooooooooo@XXXXXXXXXXXXX.",
".XXXXXXXXXXXX+ooooooooooooooooooo+****XX*****+ooooooooooooooooooo+XXXXXXXXXXXX.",
".XXXXXXXXXXXXX@ooooooooooooooooo@*****XX******@ooooooooooooooooo@XXXXXXXXXXXXX.",
".XXXXXXXXXXXXXX#OoooooooooooooO#*****XX********#OoooooooooooooO#XXXXXXXXXXXXXX.",
".XXXXXXXXXXXXXXXX%ooooooooooo%X*****XX***********%ooooooooooo%XXXXXXXXXXXXXXXX.",
".XXXXXXXXXXXXXXXXX+ooooooooo+X*****XX*************+ooooooooo+XXXXXXXXXXXXXXXXX.",
".XXXXXXXXXXXXXXXXXX+ooooooo+X*****XX***************+ooooooo+XXXXXXXXXXXXXXXXXX.",
".XXXXXXXXXXXXXXXXXXX%ooooo%XX*****XX****************%ooooo%XXXXXXXXXXXXXXXXXXX.",
".XXXXXXXXXXXXXXXXXXXXOoooOXX*****XXXX****************OoooOXXXXXXXXXXXXXXXXXXXX.",
".XXXXXXXXXXXXXXXXXXXX#ooo#X*****XXXXX****************#ooo#XXXXXXXXXXXXXXXXXXXX.",
".XXXXXXXXXXXXXXXXXXXXX@o@X*****XXXXXXX****************@o@XXXXXXXXXXXXXXXXXXXXX.",
".XXXXXXXXXXXXXXXXXXXXXX+X*****XXXXXXXXX****************+XXXXXXXXXXXXXXXXXXXXXX.",
".XXXXXXXXXXXXXXXXXXXXXXXX*****XXXXXXXXXX****************XXXXXXXXXXXXXXXXXXXXXX.",
".XXXXXXXXXXXXXXXXXXXXXXX*****XXXXXXXXXXX****************XXXXXXXXXXXXXXXXXXXXXX.",
".XXXXXXXXXXXXXXXXXXXXXX*****XXXXXXXXXXXXX****************XXXXXXXXXXXXXXXXXXXXX.",
".XXXXXXXXXXXXXXXXXXXXX*****XXXXXXXXXXXXXXX****************XXXXXXXXXXXXXXXXXXXX.",
".XXXXXXXXXXXXXXXXXXXX*****XXXXXXXXXXXXXXXXX****************XXXXXXXXXXXXXXXXXXX.",
".XXXXXXXXXXXXXXXXXXX*****XXXXXXXXXXXXXXXXXX****************XXXXXXXXXXXXXXXXXXX.",
".XXXXXXXXXXXXXXXXXXX*****XXXXXXXXXXXXXXXXXXX****************XXXXXXXXXXXXXXXXXX.",
".XXXXXXXXXXXXXXXXXX*****XXXXXXXXXXXXXXXXXXXXX****************XXXXXXXXXXXXXXXXX.",
".XXXXXXXXXXXXXXXXX*****XXXXXXXXXXXXXXXXXXXXXXX****************XXXXXXXXXXXXXXXX.",
".XXXXXXXXXXXXXXXX*****XXXXXXXXXXXXXXXXXXXXXXXX****************XXXXXXXXXXXXXXXX.",
".XXXXXXXXXXXXXXX*****XXXXXXXXXXXXXXXXXXXXXXXXXX****************XXXXXXXXXXXXXXX.",
".XXXXXXXXXXXXXXX*****XXXXXXXXXXXXXXXXXXXXXXXXXXX****************XXXXXXXXXXXXXX.",
".XXXXXXXXXXXXXX*****XXXXXXXXXXXXXXXXXXXXXXXXXXXXX****************XXXXXXXXXXXXX.",
".XXXXXXXXXXXXX*****XXXXXXXXXXXXXXXXXXXXXXXXXXXXXX****************XXXXXXXXXXXXX.",
".XXXXXXXXXXXX*****XXXXXXXXXXXXXXXXXXXXXXXXXXXXXXXX****************XXXXXXXXXXXX.",
".XXXXXXXXXXX*****XXXXXXXXXXXXXXXXXXXXXXXXXXXXXXXXXX****************XXXXXXXXXXX.",
".XXXXXXXXXXX*****XXXXXXXXXXXXXXXXXXXXXXXXXXXXXXXXXXX****************XXXXXXXXXX.",
".XXXXXXXXXX*****XXXXXXXXXXXXXXXXXXXXXXXXXXXXXXXXXXXX****************XXXXXXXXXX.",
".XXXXXXXXX*****XXXXXXXX+XXXXXXXXXXXXXXXXXXXXXXXXXXXXX**+*************X@XXXXXXX.",
".XXXXXXXX*****XXXXXXXX@o@XXXXXXXXXXXXXXXXXXXXXXXXXXXXX@o@************$o$XXXXXX.",
".XXXXXXX*****XXXXXXXX#ooo#XXXXXXXXXXXXXXXXXXXXXXXXXXX#ooo#**********#&o&#XXXXX.",
".XXXXXXXXXXXXXXXXXXXXOoooOXXXXXXXXXXXXXXXXXXXXXXXXXXXOoooOXXXXXXXXX#&ooo&#XXXX.",
".XXXXXXXXXXXXXXXXXXX%ooooo%XXXXXXXXXXXXXXXXXXXXXXXXX%ooooo%XXXXXXX$&ooooo&$XXX.",
".XXXXXXXXXXXXXXXXXX+ooooooo+XXXXXXXXXXXXXXXXXXXXXXX+ooooooo+XXXXX@ooooooooo@XX.",
".XXXXXXXXXXXXXXXXX+ooooooooo+XXXXXXXXXXXXXXXXXXXXX+ooooooooo+XXXXX$&ooooo&$XXX.",
".XXXXXXXXXXXXXXXX%ooooooooooo%XXXXXXXXXXXXXXXXXXX%ooooooooooo%XXXXX#&ooo&#XXXX.",
".XXXXXXXXXXXXXX#OoooooooooooooO#XXXXXXXXXXXXXXX#OoooooooooooooO#XXXX#&o&#XXXXX.",
".XXXXXXXXXXXXX@ooooooooooooooooo@XXXXXXXXXXXXX@ooooooooooooooooo@XXXX$o$XXXXXX.",
".XXXXXXXXXXXX+ooooooooooooooooooo+XXXXXXXXXXX+ooooooooooooooooooo+XXXX@XXXXXXX.",
".XXXXXXXXXXXXX@ooooooooooooooooo@XXXXXXXXXXXXX@ooooooooooooooooo@XXXXXXXXXXXXX.",
".XXXXXXXXXXXXXX#OoooooooooooooO#XXXXXXXXXXXXXXX#OoooooooooooooO#XXXXXXXXXXXXXX.",
".XXXXXXXXXXXXXXXX%ooooooooooo%XXXXXXXXXXXXXXXXXXX%ooooooooooo%XXXXXXXXooXXXXXX.",
".XXXXXXXXXXXXXXXXX+ooooooooo+XXXXXXXXXXXXXXXXXXXXX+ooooooooo+XXXXXXXXXooXXXXXX.",
".XXXXXXXXXXXXXXXXXX+ooooooo+XXXXXXXXXXXXXXXXXXXXXXX+ooooooo+XXXXXXXXXXoOXXXXXX.",
".XXXXXXXXXXXXXXXXXXX%ooooo%XXXXXXXXXXXXXXXXXXXXXXXXX%ooooo%XXXXXXXXXX+o+XXXXXX.",
".XXXXXXXXXXXXXXXXXXXXOoooOXXXXXXXXXXXXXXXXXXXXXXXXXXXOoooOXXXXXXXXXXXOo$XXXXXX.",
".XXXXXXXXXXXXXXXXXXXX#ooo#XXXXXXXXXXXXXXXXXXXXXXXXXXX#ooo#XXXXXXXXXXXooXXXXXXX.",
".XXXXXXXXXXXXXXXXXXXXX@o@XXXXXXXXXXXXXXXXXXXXXXXXXXXXX@o@XXXXXXXXXXX+o+XXXXXXX.",
".XXXXXXXXXXXXXXXXXXXXXX+XXXXXXXXXXXXXXXXXXXXXXXXXXXXXXX+XXXXXXXXXXXXooXXXXXXXX.",
".XXXXXXXXXXXXXXXXXXXXXXXXXXXXXXXXXXXXXXXXXXXXXXXXXXXXXXXXXXXXXXXXXX+oOXXXXXXXX.",
".XXXXXXXXXXXXXXXXXXXXXXXXXXXXXXXXXXXXXXXXXXXXXXXXXXXXXXXXXXXXXXXXXXooXXXXXXXXX.",
".XXXXXXXXXXXXXXXXXXXXXXXXXXXXXXXXXXXXXXXXXXXXXXXXXXXXXXXXXXXXXXXXXOoOXXXXXXXXX.",
".XXXXXXXXXXXXXXXXXXXXXXXXXXXXXXXXXXXXXXXXXXXXXXXXXXXXXXXXXXXXXXXXXooXXXXXooXXX.",
".XXXXXXXXXXXXXXXXXXXXXXXXXXXXXXXXXXXXXXXXXXXXXXXXXXXXXXXXXXXXXXXXXoooooooooXXX.",
" .XXXXXXXXXXXXXXXXXXXXXXXXXXXXXXXXXXXXXXXXXXXXXXXXXXXXXXXXXXXXXXXXoooooooooXX. ",
" .XXXXXXXXXXXXXXXXXXXXXXXXXXXXXXXXXXXXXXXXXXXXXXXXXXXXXXXXXXXXXXXXXXXXXXXXXXX. ",
"  .XXXXXXXXXXXXXXXXXXXXXXXXXXXXXXXXXXXXXXXXXXXXXXXXXXXXXXXXXXXXXXXXXXXXXXXXX.  ",
"  .XXXXXXXXXXXXXXXXXXXXXXXXXXXXXXXXXXXXXXXXXXXXXXXXXXXXXXXXXXXXXXXXXXXXXXXXX.  ",
"   ..XXXXXXXXXXXXXXXXXXXXXXXXXXXXXXXXXXXXXXXXXXXXXXXXXXXXXXXXXXXXXXXXXXXXX..   ",
"     ..XXXXXXXXXXXXXXXXXXXXXXXXXXXXXXXXXXXXXXXXXXXXXXXXXXXXXXXXXXXXXXXXX..     ",
"       .................................................................       "};
