/* XPM */
static char * Seven_Spades_xpm[] = {
"79 123 11 1",
" 	c None",
".	c #000000000000",
"X	c #FFFFFFFFFFFF",
"o	c #38E33CF338E3",
"O	c #79E77DF779E7",
"+	c #59655D755965",
"@	c #DF7DDF7DDF7D",
"#	c #BEFBBEFBBEFB",
"$	c #9E799E799E79",
"%	c #18611C711861",
"&	c #D75CD75CD75C",
"       .................................................................       ",
"     ..XXXXXXXXXXXXXXXXXXXXXXXXXXXXXXXXXXXXXXXXXXXXXXXXXXXXXXXXXXXXXXXXX..     ",
"   ..XXXXXXXXXXXXXXXXXXXXXXXXXXXXXXXXXXXXXXXXXXXXXXXXXXXXXXXXXXXXXXXXXXXXX..   ",
"  .XXXXXXXXXXXXXXXXXXXXXXXXXXXXXXXXXXXXXXXXXXXXXXXXXXXXXXXXXXXXXXXXXXXXXXXXX.  ",
"  .XXXXXXXXXXXXXXXXXXXXXXXXXXXXXXXXXXXXXXXXXXXXXXXXXXXXXXXXXXXXXXXXXXXXXXXXX.  ",
" .XXXXXXXXXXXXXXXXXXXXXXXXXXXXXXXXXXXXXXXXXXXXXXXXXXXXXXXXXXXXXXXXXXXXXXXXXXX. ",
" .XX.........XXXXXXXXXXXXXXXXXXXXXXXXXXXXXXXXXXXXXXXXXXXXXXXXXXXXXXXXXXXXXXXX. ",
".XXX.........XXXXXXXXXXXXXXXXXXXXXXXXXXXXXXXXXXXXXXXXXXXXXXXXXXXXXXXXXXXXXXXXX.",
".XXX..XXXXX..XXXXXXXXXXXXXXXXXXXXXXXXXXXXXXXXXXXXXXXXXXXXXXXXXXXXXXXXXXXXXXXXX.",
".XXXXXXXXXo.oXXXXXXXXXXXXXXXXXXXXXXXXXXXXXXXXXXXXXXXXXXXXXXXXXXXXXXXXXXXXXXXXX.",
".XXXXXXXXX..XXXXXXXXXXXXXXXXXXXXXXXXXXXXXXXXXXXXXXXXXXXXXXXXXXXXXXXXXXXXXXXXXX.",
".XXXXXXXXo.OXXXXXXXXXXXXXXXXXXXXXXXXXXXXXXXXXXXXXXXXXXXXXXXXXXXXXXXXXXXXXXXXXX.",
".XXXXXXXX..XXXXXXXXXXXXXXXXXXXXXXXXXXXXXXXXXXXXXXXXXXXXXXXXXXXXXXXXXXXXXXXXXXX.",
".XXXXXXXO.OXXXXXXXXXXXX+XXXXXXXXXXXXXXXXXXXXXXXXXXXXXXX+XXXXXXXXXXXXXXXXXXXXXX.",
".XXXXXXX..XXXXXXXXXXXX@.@XXXXXXXXXXXXXXXXXXXXXXXXXXXXX@.@XXXXXXXXXXXXXXXXXXXXX.",
".XXXXXX#.oXXXXXXXXXXXX+.+XXXXXXXXXXXXXXXXXXXXXXXXXXXXX+.+XXXXXXXXXXXXXXXXXXXXX.",
".XXXXXXO.OXXXXXXXXXXX$...$XXXXXXXXXXXXXXXXXXXXXXXXXXX$...$XXXXXXXXXXXXXXXXXXXX.",
".XXXXXXo.XXXXXXXXXXX$.....$XXXXXXXXXXXXXXXXXXXXXXXXX$.....$XXXXXXXXXXXXXXXXXXX.",
".XXXXXX..XXXXXXXXXX$.......$XXXXXXXXXXXXXXXXXXXXXXX$.......$XXXXXXXXXXXXXXXXXX.",
".XXXXXX..XXXXXXXXX$.........$XXXXXXXXXXXXXXXXXXXXX$.........$XXXXXXXXXXXXXXXXX.",
".XXXXXXXXXXXXXXXX+...........+XXXXXXXXXXXXXXXXXXX+...........+XXXXXXXXXXXXXXXX.",
".XXXXXXXXXXXXXX@o.............o@XXXXXXXXXXXXXXX@o.............o@XXXXXXXXXXXXXX.",
".XXXXXXX@XXXXXX%...............%XXXXXXXXXXXXXXX%...............%XXXXXXXXXXXXXX.",
".XXXXXXX+XXXXX$.................$XXXXXXXXXXXXX$.................$XXXXXXXXXXXXX.",
".XXXXXXO.OXXXXO.................OXXXXXXXXXXXXXO.................OXXXXXXXXXXXXX.",
".XXXXXO...OXXXO.......$.$.......OXXXXXXXXXXXXXO.......$.$.......OXXXXXXXXXXXXX.",
".XXXXO.....OXX@......#X.X#......@XXXXXXXXXXXXX@......#X.X#......@XXXXXXXXXXXXX.",
".XXX+.......+XX#%...$X#.#X$...%#XXXXXXXXXXXXXXX#%...$X#.#X$...%#XXXXXXXXXXXXXX.",
".XXX....%....XXXX##@XX$.$XX@##XXXXXXXXXXXXXXXXXXX##@XX$.$XX@##XXXXXXXXXXXXXXXX.",
".XXXo..$O$..o&&&&&&&&&+.+XXXXXXXXXXXXXXXXXXXXXXXXXXXXX+.+XXXXXXXXX&&&&&XXXXXXX.",
".XXXX$#X%&#$&&&&&&&&&&%.%XXXXXXXXXXXXXXXXXXXXXXXXXXXXX%.%XXXXXXXXX&&&&&XXXXXXX.",
".XXXXXX@.@&&&&&&&&&&&@...@XXXXXXXXXXXXXXXXXXXXXXXXXXX@...@XXXXXXX&&&&&XXXXXXXX.",
".XXXXXX#O#&&&&&&&&&&&$oOo$XXXXXXXXXXXXX+XXXXXXXXXXXXX$oOo$XXXXXX&&&&&XXXXXXXXX.",
".XXXXXXXXX&&&&&&&&&&&&&&&&XXXXXXXXXXXX@.@XXXXXXXXXXXXXXXXXXXXXX&&&&&XXXXXXXXXX.",
".XXXXXXXXXX&&&&&&&&&&&&&&&&XXXXXXXXXXX+.+XXXXXXXXXXXXXXXXXXXXX&&&&&XXXXXXXXXXX.",
".XXXXXXXXXXX&&&&&&&&&&&&&&&&XXXXXXXXX$...$XXXXXXXXXXXXXXXXXXXX&&&&&XXXXXXXXXXX.",
".XXXXXXXXXXXX&&&&&&&&&&&&&&&&XXXXXXX$.....$XXXXXXXXXXXXXXXXXX&&&&&XXXXXXXXXXXX.",
".XXXXXXXXXXXX&&&&&&&&&&&&&&&&XXXXXX$.......$XXXXXXXXXXXXXXXX&&&&&XXXXXXXXXXXXX.",
".XXXXXXXXXXXXX&&&&&&&&&&&&&&&&XXXX$.........$XXXXXXXXXXXXXX&&&&&XXXXXXXXXXXXXX.",
".XXXXXXXXXXXXXX&&&&&&&&&&&&&&&&XX+...........+XXXXXXXXXXXX&&&&&XXXXXXXXXXXXXXX.",
".XXXXXXXXXXXXXXX&&&&&&&&&&&&&&&@o.............o@XXXXXXXXXX&&&&&XXXXXXXXXXXXXXX.",
".XXXXXXXXXXXXXXX&&&&&&&&&&&&&&&%...............%XXXXXXXXX&&&&&XXXXXXXXXXXXXXXX.",
".XXXXXXXXXXXXXXXX&&&&&&&&&&&&&$.................$XXXXXXX&&&&&XXXXXXXXXXXXXXXXX.",
".XXXXXXXXXXXXXXXXX&&&&&&&&&&&&O.................OXXXXXX&&&&&XXXXXXXXXXXXXXXXXX.",
".XXXXXXXXXXXXXXXXXX&&&&&&&&&&&O.......$.$.......OXXXXX&&&&&XXXXXXXXXXXXXXXXXXX.",
".XXXXXXXXXXXXXXXXXX&&&&&&&&&&&@......#X.X#......@XXXX&&&&&XXXXXXXXXXXXXXXXXXXX.",
".XXXXXXXXXXXXXXXXXXX&&&&&&&&&&&#%...$X#.#X$...%#XXXXX&&&&&XXXXXXXXXXXXXXXXXXXX.",
".XXXXXXXXXXXXXXXXXXXX&&&&&&&&&&&&##@&X$.$XX@##XXXXXX&&&&&XXXXXXXXXXXXXXXXXXXXX.",
".XXXXXXXXXXXXXXXXXXXXX&&&&&&&&&&&&&&&&+.+XXXXXXXXXX&&&&&XXXXXXXXXXXXXXXXXXXXXX.",
".XXXXXXXXXXXXXXXXXXXXX&&&&&&&&&&&&&&&&%.%XXXXXXXXX&&&&&XXXXXXXXXXXXXXXXXXXXXXX.",
".XXXXXXXXXXXXXXXXXXXXXX&&&&&&&&&&&&&&@...@XXXXXXX&&&&&XXXXXXXXXXXXXXXXXXXXXXXX.",
".XXXXXXXXXXXXXXXXXXXXXXX&&&&&&&&&&&&&$oOo$XXXXXXX&&&&&XXXXXXXXXXXXXXXXXXXXXXXX.",
".XXXXXXXXXXXXXXXXXXXXXX+X&&&&&&&&&&&&&&&&XXXXXXX&&&&&XX+XXXXXXXXXXXXXXXXXXXXXX.",
".XXXXXXXXXXXXXXXXXXXXX@.@&&&&&&&&&&&&&&&&XXXXXX&&&&&XX@.@XXXXXXXXXXXXXXXXXXXXX.",
".XXXXXXXXXXXXXXXXXXXXX+.+X&&&&&&&&&&&&&&&&XXXX&&&&&XXX+.+XXXXXXXXXXXXXXXXXXXXX.",
".XXXXXXXXXXXXXXXXXXXX$...$X&&&&&&&&&&&&&&&&XX&&&&&XXX$...$XXXXXXXXXXXXXXXXXXXX.",
".XXXXXXXXXXXXXXXXXXX$.....$X&&&&&&&&&&&&&&&XX&&&&&XX$.....$XXXXXXXXXXXXXXXXXXX.",
".XXXXXXXXXXXXXXXXXX$.......$&&&&&&&&&&&&&&XX&&&&&XX$.......$XXXXXXXXXXXXXXXXXX.",
".XXXXXXXXXXXXXXXXX$.........$&&&&&&&&&&&&XX&&&&&XX$.........$XXXXXXXXXXXXXXXXX.",
".XXXXXXXXXXXXXXXX+...........+&&&&&&&&&&XX&&&&&XX+...........+XXXXXXXXXXXXXXXX.",
".XXXXXXXXXXXXXX@o.............o@&&&&&&&XX&&&&&&@o.............o@XXXXXXXXXXXXXX.",
".XXXXXXXXXXXXXX%...............%&&&&&&XX&&&&&&&%...............%XXXXXXXXXXXXXX.",
".XXXXXXXXXXXXX$.................$&&&&&XX&&&&&&$.................$XXXXXXXXXXXXX.",
".XXXXXXXXXXXXXO.................O&&&&XX&&&&&&&O.................OXXXXXXXXXXXXX.",
".XXXXXXXXXXXXXO.......$.$.......O&&&XX&&&&&&&&O.......$.$.......OXXXXXXXXXXXXX.",
".XXXXXXXXXXXXX@......#X.X#......@&&XX&&&&&&&&&@......#X.X#......@XXXXXXXXXXXXX.",
".XXXXXXXXXXXXXX#%...$X#.#X$...%#&&XX&&&&&&&&&&&#%...$X#.#X$...%#XXXXXXXXXXXXXX.",
".XXXXXXXXXXXXXXXX##@XX$.$XX@##&&&&XX&&&&&&&&&&&&&##@XX$.$XX@##XXXXXXXXXXXXXXXX.",
".XXXXXXXXXXXXXXXXXXXXX+.+XXX&&&&&XXXX&&&&&&&&&&&&&&&&X+.+XXXXXXXXXXXXXXXXXXXXX.",
".XXXXXXXXXXXXXXXXXXXXX%.%XX&&&&&XXXXX&&&&&&&&&&&&&&&&X%.%XXXXXXXXXXXXXXXXXXXXX.",
".XXXXXXXXXXXXXXXXXXXX@...@&&&&&XXXXXXX&&&&&&&&&&&&&&&@...@XXXXXXXXXXXXXXXXXXXX.",
".XXXXXXXXXXXXXXXXXXXX$oOo$&&&&XXXXXXXXX&&&&&&&&&&&&&&$oOo$XXXXXXXXXXXXXXXXXXXX.",
".XXXXXXXXXXXXXXXXXXXXXXXX&&&&&XXXXXXXXXX&&&&&&&&&&&&&&&&XXXXXXXXXXXXXXXXXXXXXX.",
".XXXXXXXXXXXXXXXXXXXXXXX&&&&&XXXXXXXXXXX&&&&&&&&&&&&&&&&XXXXXXXXXXXXXXXXXXXXXX.",
".XXXXXXXXXXXXXXXXXXXXXX&&&&&XXXXXXXXXXXXX&&&&&&&&&&&&&&&&XXXXXXXXXXXXXXXXXXXXX.",
".XXXXXXXXXXXXXXXXXXXXX&&&&&XXXXXXXXXXXXXXX&&&&&&&&&&&&&&&&XXXXXXXXXXXXXXXXXXXX.",
".XXXXXXXXXXXXXXXXXXXX&&&&&XXXXXXXXXXXXXXXXX&&&&&&&&&&&&&&&&XXXXXXXXXXXXXXXXXXX.",
".XXXXXXXXXXXXXXXXXXX&&&&&XXXXXXXXXXXXXXXXXX&&&&&&&&&&&&&&&&XXXXXXXXXXXXXXXXXXX.",
".XXXXXXXXXXXXXXXXXXX&&&&&XXXXXXXXXXXXXXXXXXX&&&&&&&&&&&&&&&&XXXXXXXXXXXXXXXXXX.",
".XXXXXXXXXXXXXXXXXX&&&&&XXXXXXXXXXXXXXXXXXXXX&&&&&&&&&&&&&&&&XXXXXXXXXXXXXXXXX.",
".XXXXXXXXXXXXXXXXX&&&&&XXXXXXXXXXXXXXXXXXXXXXX&&&&&&&&&&&&&&&&XXXXXXXXXXXXXXXX.",
".XXXXXXXXXXXXXXXX&&&&&XXXXXXXXXXXXXXXXXXXXXXXX&&&&&&&&&&&&&&&&XXXXXXXXXXXXXXXX.",
".XXXXXXXXXXXXXXX&&&&&XXXXXXXXXXXXXXXXXXXXXXXXXX&&&&&&&&&&&&&&&&XXXXXXXXXXXXXXX.",
".XXXXXXXXXXXXXXX&&&&&XXXXXXXXXXXXXXXXXXXXXXXXXXX&&&&&&&&&&&&&&&&XXXXXXXXXXXXXX.",
".XXXXXXXXXXXXXX&&&&&XXXXXXXXXXXXXXXXXXXXXXXXXXXXX&&&&&&&&&&&&&&&&XXXXXXXXXXXXX.",
".XXXXXXXXXXXXX&&&&&XXXXXXXXXXXXXXXXXXXXXXXXXXXXXX&&&&&&&&&&&&&&&&XXXXXXXXXXXXX.",
".XXXXXXXXXXXX&&&&&XXXXXXXXXXXXXXXXXXXXXXXXXXXXXXXX&&&&&&&&&&&&&&&&XXXXXXXXXXXX.",
".XXXXXXXXXXX&&&&&XXXXXXXXXXXXXXXXXXXXXXXXXXXXXXXXXX&&&&&&&&&&&&&&&&XXXXXXXXXXX.",
".XXXXXXXXXXX&&&&&XXXXXXXXXXXXXXXXXXXXXXXXXXXXXXXXXXX&&&&&&&&&&&&&&&&XXXXXXXXXX.",
".XXXXXXXXXX&&&&&XXXXXXXXXXXXXXXXXXXXXXXXXXXXXXXXXXXX&&&&&&&&&&&&&&&&XXXXXXXXXX.",
".XXXXXXXXX&&&&&XXXXXX$oOo$XXXXXXXXXXXXXXXXXXXXXXXXXXX$oOo$&&&&&&&&&&&#O#XXXXXX.",
".XXXXXXXX&&&&&XXXXXXX@...@XXXXXXXXXXXXXXXXXXXXXXXXXXX@...@&&&&&&&&&&&@.@XXXXXX.",
".XXXXXXX&&&&&XXXXXXXXX%.%XXXXXXXXXXXXXXXXXXXXXXXXXXXXX%.%&&&&&&&&&&$#&%X#$XXXX.",
".XXXXXXXXXXXXXXXXXXXXX+.+XXXXXXXXXXXXXXXXXXXXXXXXXXXXX+.+XXXXXXXXXo..$O$..oXXX.",
".XXXXXXXXXXXXXXXX##@XX$.$XX@##XXXXXXXXXXXXXXXXXXX##@XX$.$XX@##XXXX....%....XXX.",
".XXXXXXXXXXXXXX#%...$X#.#X$...%#XXXXXXXXXXXXXXX#%...$X#.#X$...%#XX+.......+XXX.",
".XXXXXXXXXXXXX@......#X.X#......@XXXXXXXXXXXXX@......#X.X#......@XXO.....OXXXX.",
".XXXXXXXXXXXXXO.......$.$.......OXXXXXXXXXXXXXO.......$.$.......OXXXO...OXXXXX.",
".XXXXXXXXXXXXXO.................OXXXXXXXXXXXXXO.................OXXXXO.OXXXXXX.",
".XXXXXXXXXXXXX$.................$XXXXXXXXXXXXX$.................$XXXXX+XXXXXXX.",
".XXXXXXXXXXXXXX%...............%XXXXXXXXXXXXXXX%...............%XXXXXX@XXXXXXX.",
".XXXXXXXXXXXXXX@o.............o@XXXXXXXXXXXXXXX@o.............o@XXXXXXXXXXXXXX.",
".XXXXXXXXXXXXXXXX+...........+XXXXXXXXXXXXXXXXXXX+...........+XXXXXXXXXXXXXXXX.",
".XXXXXXXXXXXXXXXXX$.........$XXXXXXXXXXXXXXXXXXXXX$.........$XXXXXXXXX..XXXXXX.",
".XXXXXXXXXXXXXXXXXX$.......$XXXXXXXXXXXXXXXXXXXXXXX$.......$XXXXXXXXXX..XXXXXX.",
".XXXXXXXXXXXXXXXXXXX$.....$XXXXXXXXXXXXXXXXXXXXXXXXX$.....$XXXXXXXXXXX.oXXXXXX.",
".XXXXXXXXXXXXXXXXXXXX$...$XXXXXXXXXXXXXXXXXXXXXXXXXXX$...$XXXXXXXXXXXO.OXXXXXX.",
".XXXXXXXXXXXXXXXXXXXXX+.+XXXXXXXXXXXXXXXXXXXXXXXXXXXXX+.+XXXXXXXXXXXXo.#XXXXXX.",
".XXXXXXXXXXXXXXXXXXXXX@.@XXXXXXXXXXXXXXXXXXXXXXXXXXXXX@.@XXXXXXXXXXXX..XXXXXXX.",
".XXXXXXXXXXXXXXXXXXXXXX+XXXXXXXXXXXXXXXXXXXXXXXXXXXXXXX+XXXXXXXXXXXXO.OXXXXXXX.",
".XXXXXXXXXXXXXXXXXXXXXXXXXXXXXXXXXXXXXXXXXXXXXXXXXXXXXXXXXXXXXXXXXXX..XXXXXXXX.",
".XXXXXXXXXXXXXXXXXXXXXXXXXXXXXXXXXXXXXXXXXXXXXXXXXXXXXXXXXXXXXXXXXXO.oXXXXXXXX.",
".XXXXXXXXXXXXXXXXXXXXXXXXXXXXXXXXXXXXXXXXXXXXXXXXXXXXXXXXXXXXXXXXXX..XXXXXXXXX.",
".XXXXXXXXXXXXXXXXXXXXXXXXXXXXXXXXXXXXXXXXXXXXXXXXXXXXXXXXXXXXXXXXXo.oXXXXXXXXX.",
".XXXXXXXXXXXXXXXXXXXXXXXXXXXXXXXXXXXXXXXXXXXXXXXXXXXXXXXXXXXXXXXXX..XXXXX..XXX.",
".XXXXXXXXXXXXXXXXXXXXXXXXXXXXXXXXXXXXXXXXXXXXXXXXXXXXXXXXXXXXXXXXX.........XXX.",
" .XXXXXXXXXXXXXXXXXXXXXXXXXXXXXXXXXXXXXXXXXXXXXXXXXXXXXXXXXXXXXXXX.........XX. ",
" .XXXXXXXXXXXXXXXXXXXXXXXXXXXXXXXXXXXXXXXXXXXXXXXXXXXXXXXXXXXXXXXXXXXXXXXXXXX. ",
"  .XXXXXXXXXXXXXXXXXXXXXXXXXXXXXXXXXXXXXXXXXXXXXXXXXXXXXXXXXXXXXXXXXXXXXXXXX.  ",
"  .XXXXXXXXXXXXXXXXXXXXXXXXXXXXXXXXXXXXXXXXXXXXXXXXXXXXXXXXXXXXXXXXXXXXXXXXX.  ",
"   ..XXXXXXXXXXXXXXXXXXXXXXXXXXXXXXXXXXXXXXXXXXXXXXXXXXXXXXXXXXXXXXXXXXXXX..   ",
"     ..XXXXXXXXXXXXXXXXXXXXXXXXXXXXXXXXXXXXXXXXXXXXXXXXXXXXXXXXXXXXXXXXX..     ",
"       .................................................................       "};
