/* XPM */
static char * Seven_Clubs_xpm[] = {
"79 123 11 1",
" 	c None",
".	c #000000000000",
"X	c #FFFFFFFFFFFF",
"o	c #38E33CF338E3",
"O	c #79E77DF779E7",
"+	c #BEFBBEFBBEFB",
"@	c #18611C711861",
"#	c #DF7DDF7DDF7D",
"$	c #9E799E799E79",
"%	c #D75CD75CD75C",
"&	c #59655D755965",
"       .................................................................       ",
"     ..XXXXXXXXXXXXXXXXXXXXXXXXXXXXXXXXXXXXXXXXXXXXXXXXXXXXXXXXXXXXXXXXX..     ",
"   ..XXXXXXXXXXXXXXXXXXXXXXXXXXXXXXXXXXXXXXXXXXXXXXXXXXXXXXXXXXXXXXXXXXXXX..   ",
"  .XXXXXXXXXXXXXXXXXXXXXXXXXXXXXXXXXXXXXXXXXXXXXXXXXXXXXXXXXXXXXXXXXXXXXXXXX.  ",
"  .XXXXXXXXXXXXXXXXXXXXXXXXXXXXXXXXXXXXXXXXXXXXXXXXXXXXXXXXXXXXXXXXXXXXXXXXX.  ",
" .XXXXXXXXXXXXXXXXXXXXXXXXXXXXXXXXXXXXXXXXXXXXXXXXXXXXXXXXXXXXXXXXXXXXXXXXXXX. ",
" .XX.........XXXXXXXXXXXXXXXXXXXXXXXXXXXXXXXXXXXXXXXXXXXXXXXXXXXXXXXXXXXXXXXX. ",
".XXX.........XXXXXXXXXXXXXXXXXXXXXXXXXXXXXXXXXXXXXXXXXXXXXXXXXXXXXXXXXXXXXXXXX.",
".XXX..XXXXX..XXXXXXXXXXXXXXXXXXXXXXXXXXXXXXXXXXXXXXXXXXXXXXXXXXXXXXXXXXXXXXXXX.",
".XXXXXXXXXo.oXXXXXXXXXXXXXXXXXXXXXXXXXXXXXXXXXXXXXXXXXXXXXXXXXXXXXXXXXXXXXXXXX.",
".XXXXXXXXX..XXXXXXXXXXXXXXXXXXXXXXXXXXXXXXXXXXXXXXXXXXXXXXXXXXXXXXXXXXXXXXXXXX.",
".XXXXXXXXo.OXXXXXXXXXXXXXXXXXXXXXXXXXXXXXXXXXXXXXXXXXXXXXXXXXXXXXXXXXXXXXXXXXX.",
".XXXXXXXX..XXXXXXXXXXXXXXXXXXXXXXXXXXXXXXXXXXXXXXXXXXXXXXXXXXXXXXXXXXXXXXXXXXX.",
".XXXXXXXO.OXXXXXXXXXXXXXXXXXXXXXXXXXXXXXXXXXXXXXXXXXXXXXXXXXXXXXXXXXXXXXXXXXXX.",
".XXXXXXX..XXXXXXXXXXXXXXXXXXXXXXXXXXXXXXXXXXXXXXXXXXXXXXXXXXXXXXXXXXXXXXXXXXXX.",
".XXXXXX+.oXXXXXXXXXXXO@.@OXXXXXXXXXXXXXXXXXXXXXXXXXXXO@.@OXXXXXXXXXXXXXXXXXXXX.",
".XXXXXXO.OXXXXXXXXXXO.....OXXXXXXXXXXXXXXXXXXXXXXXXXO.....OXXXXXXXXXXXXXXXXXXX.",
".XXXXXXo.XXXXXXXXXX#.......#XXXXXXXXXXXXXXXXXXXXXXX#.......#XXXXXXXXXXXXXXXXXX.",
".XXXXXX..XXXXXXXXXX+.......+XXXXXXXXXXXXXXXXXXXXXXX+.......+XXXXXXXXXXXXXXXXXX.",
".XXXXXX..XXXXXXXXXX#.......#XXXXXXXXXXXXXXXXXXXXXXX#.......#XXXXXXXXXXXXXXXXXX.",
".XXXXXXXXXXXXXXX#+#Xo.....oX#+#XXXXXXXXXXXXXXXXX#+#Xo.....oX#+#XXXXXXXXXXXXXXX.",
".XXXXXXXXXXXXXXO...o#@...@#o...OXXXXXXXXXXXXXXXO...o#@...@#o...OXXXXXXXXXXXXXX.",
".XXXXXXXXXXXXXO.....@#@.@#@.....OXXXXXXXXXXXXXO.....@#@.@#@.....OXXXXXXXXXXXXX.",
".XXXXXXX+XXXXX@......@#.#@......@XXXXXXXXXXXXX@......@#.#@......@XXXXXXXXXXXXX.",
".XXXXX#@.@#XXX...................XXXXXXXXXXXXX...................XXXXXXXXXXXXX.",
".XXXXX$...$XXX@......@#.#@......@XXXXXXXXXXXXX@......@#.#@......@XXXXXXXXXXXXX.",
".XXX#$+...+$#XO.....@#X.X#@.....OXXXXXXXXXXXXXO.....@#X.X#@.....OXXXXXXXXXXXXX.",
".XXX@..O@O..@XXO...o#XX.XX#o...OXXXXXXXXXXXXXXXO...o#XX.XX#o...OXXXXXXXXXXXXXX.",
".XX+...@o@...+XX#+#XXX#.#XXX#+#XXXXXXXXXXXXXXXXX#+#XXX#.#XXX#+#XXXXXXXXXXXXXXX.",
".XXX@..+O+..@%%%%%%%%%+.+XXXXXXXXXXXXXXXXXXXXXXXXXXXXX+.+XXXXXXXXX%%%%%XXXXXXX.",
".XXX#$#X&%#$#%%%%%%%%%&.&XXXXXXXXXXXXXXXXXXXXXXXXXXXXX&.&XXXXXXXXX%%%%%XXXXXXX.",
".XXXXXXX.%%%%%%%%%%%%%@.@XXXXXXXXXXXXXXXXXXXXXXXXXXXXX@.@XXXXXXXX%%%%%XXXXXXXX.",
".XXXXXX+O+%%%%%%%%%%%$oOo$XXXXXXXXXXXXXXXXXXXXXXXXXXX$oOo$XXXXXX%%%%%XXXXXXXXX.",
".XXXXXXXXX%%%%%%%%%%%%%%%%XXXXXXXXXXXXXXXXXXXXXXXXXXXXXXXXXXXXX%%%%%XXXXXXXXXX.",
".XXXXXXXXXX%%%%%%%%%%%%%%%%XXXXXXXXXXO@.@OXXXXXXXXXXXXXXXXXXXX%%%%%XXXXXXXXXXX.",
".XXXXXXXXXXX%%%%%%%%%%%%%%%%XXXXXXXXO.....OXXXXXXXXXXXXXXXXXXX%%%%%XXXXXXXXXXX.",
".XXXXXXXXXXXX%%%%%%%%%%%%%%%%XXXXXX#.......#XXXXXXXXXXXXXXXXX%%%%%XXXXXXXXXXXX.",
".XXXXXXXXXXXX%%%%%%%%%%%%%%%%XXXXXX+.......+XXXXXXXXXXXXXXXX%%%%%XXXXXXXXXXXXX.",
".XXXXXXXXXXXXX%%%%%%%%%%%%%%%%XXXXX#.......#XXXXXXXXXXXXXXX%%%%%XXXXXXXXXXXXXX.",
".XXXXXXXXXXXXXX%%%%%%%%%%%%%%%%X#+#Xo.....oX#+#XXXXXXXXXXX%%%%%XXXXXXXXXXXXXXX.",
".XXXXXXXXXXXXXXX%%%%%%%%%%%%%%%O...o#@...@#o...OXXXXXXXXXX%%%%%XXXXXXXXXXXXXXX.",
".XXXXXXXXXXXXXXX%%%%%%%%%%%%%%O.....@#@.@#@.....OXXXXXXXX%%%%%XXXXXXXXXXXXXXXX.",
".XXXXXXXXXXXXXXXX%%%%%%%%%%%%%@......@#.#@......@XXXXXXX%%%%%XXXXXXXXXXXXXXXXX.",
".XXXXXXXXXXXXXXXXX%%%%%%%%%%%%...................XXXXXX%%%%%XXXXXXXXXXXXXXXXXX.",
".XXXXXXXXXXXXXXXXXX%%%%%%%%%%%@......@#.#@......@XXXXX%%%%%XXXXXXXXXXXXXXXXXXX.",
".XXXXXXXXXXXXXXXXXX%%%%%%%%%%%O.....@#X.X#@.....OXXXX%%%%%XXXXXXXXXXXXXXXXXXXX.",
".XXXXXXXXXXXXXXXXXXX%%%%%%%%%%%O...o#XX.XX#o...OXXXXX%%%%%XXXXXXXXXXXXXXXXXXXX.",
".XXXXXXXXXXXXXXXXXXXX%%%%%%%%%%%#+#%%X#.#XXX#+#XXXXX%%%%%XXXXXXXXXXXXXXXXXXXXX.",
".XXXXXXXXXXXXXXXXXXXXX%%%%%%%%%%%%%%%%+.+XXXXXXXXXX%%%%%XXXXXXXXXXXXXXXXXXXXXX.",
".XXXXXXXXXXXXXXXXXXXXX%%%%%%%%%%%%%%%%&.&XXXXXXXXX%%%%%XXXXXXXXXXXXXXXXXXXXXXX.",
".XXXXXXXXXXXXXXXXXXXXXX%%%%%%%%%%%%%%%@.@XXXXXXXX%%%%%XXXXXXXXXXXXXXXXXXXXXXXX.",
".XXXXXXXXXXXXXXXXXXXXXXX%%%%%%%%%%%%%$oOo$XXXXXXX%%%%%XXXXXXXXXXXXXXXXXXXXXXXX.",
".XXXXXXXXXXXXXXXXXXXXXXXX%%%%%%%%%%%%%%%%XXXXXXX%%%%%XXXXXXXXXXXXXXXXXXXXXXXXX.",
".XXXXXXXXXXXXXXXXXXXXXXXX%%%%%%%%%%%%%%%%XXXXXX%%%%%XXXXXXXXXXXXXXXXXXXXXXXXXX.",
".XXXXXXXXXXXXXXXXXXXXO@.@O%%%%%%%%%%%%%%%%XXXX%%%%%XXO@.@OXXXXXXXXXXXXXXXXXXXX.",
".XXXXXXXXXXXXXXXXXXXO.....O%%%%%%%%%%%%%%%%XX%%%%%XXO.....OXXXXXXXXXXXXXXXXXXX.",
".XXXXXXXXXXXXXXXXXX#.......#%%%%%%%%%%%%%%%XX%%%%%X#.......#XXXXXXXXXXXXXXXXXX.",
".XXXXXXXXXXXXXXXXXX+.......+%%%%%%%%%%%%%%XX%%%%%XX+.......+XXXXXXXXXXXXXXXXXX.",
".XXXXXXXXXXXXXXXXXX#.......#X%%%%%%%%%%%%XX%%%%%XXX#.......#XXXXXXXXXXXXXXXXXX.",
".XXXXXXXXXXXXXXX#+#Xo.....oX#+#%%%%%%%%%XX%%%%%X#+#Xo.....oX#+#XXXXXXXXXXXXXXX.",
".XXXXXXXXXXXXXXO...o#@...@#o...O%%%%%%%XX%%%%%%O...o#@...@#o...OXXXXXXXXXXXXXX.",
".XXXXXXXXXXXXXO.....@#@.@#@.....O%%%%%XX%%%%%%O.....@#@.@#@.....OXXXXXXXXXXXXX.",
".XXXXXXXXXXXXX@......@#.#@......@%%%%%XX%%%%%%@......@#.#@......@XXXXXXXXXXXXX.",
".XXXXXXXXXXXXX...................%%%%XX%%%%%%%...................XXXXXXXXXXXXX.",
".XXXXXXXXXXXXX@......@#.#@......@%%%XX%%%%%%%%@......@#.#@......@XXXXXXXXXXXXX.",
".XXXXXXXXXXXXXO.....@#X.X#@.....O%%XX%%%%%%%%%O.....@#X.X#@.....OXXXXXXXXXXXXX.",
".XXXXXXXXXXXXXXO...o#XX.XX#o...O%%XX%%%%%%%%%%%O...o#XX.XX#o...OXXXXXXXXXXXXXX.",
".XXXXXXXXXXXXXXX#+#XXX#.#XXX#+#%%%XX%%%%%%%%%%%%#+#%XX#.#XXX#+#XXXXXXXXXXXXXXX.",
".XXXXXXXXXXXXXXXXXXXXX+.+XXX%%%%%XXXX%%%%%%%%%%%%%%%%X+.+XXXXXXXXXXXXXXXXXXXXX.",
".XXXXXXXXXXXXXXXXXXXXX&.&XX%%%%%XXXXX%%%%%%%%%%%%%%%%X&.&XXXXXXXXXXXXXXXXXXXXX.",
".XXXXXXXXXXXXXXXXXXXXX@.@X%%%%%XXXXXXX%%%%%%%%%%%%%%%%@.@XXXXXXXXXXXXXXXXXXXXX.",
".XXXXXXXXXXXXXXXXXXXX$oOo$%%%%XXXXXXXXX%%%%%%%%%%%%%%$oOo$XXXXXXXXXXXXXXXXXXXX.",
".XXXXXXXXXXXXXXXXXXXXXXXX%%%%%XXXXXXXXXX%%%%%%%%%%%%%%%%XXXXXXXXXXXXXXXXXXXXXX.",
".XXXXXXXXXXXXXXXXXXXXXXX%%%%%XXXXXXXXXXX%%%%%%%%%%%%%%%%XXXXXXXXXXXXXXXXXXXXXX.",
".XXXXXXXXXXXXXXXXXXXXXX%%%%%XXXXXXXXXXXXX%%%%%%%%%%%%%%%%XXXXXXXXXXXXXXXXXXXXX.",
".XXXXXXXXXXXXXXXXXXXXX%%%%%XXXXXXXXXXXXXXX%%%%%%%%%%%%%%%%XXXXXXXXXXXXXXXXXXXX.",
".XXXXXXXXXXXXXXXXXXXX%%%%%XXXXXXXXXXXXXXXXX%%%%%%%%%%%%%%%%XXXXXXXXXXXXXXXXXXX.",
".XXXXXXXXXXXXXXXXXXX%%%%%XXXXXXXXXXXXXXXXXX%%%%%%%%%%%%%%%%XXXXXXXXXXXXXXXXXXX.",
".XXXXXXXXXXXXXXXXXXX%%%%%XXXXXXXXXXXXXXXXXXX%%%%%%%%%%%%%%%%XXXXXXXXXXXXXXXXXX.",
".XXXXXXXXXXXXXXXXXX%%%%%XXXXXXXXXXXXXXXXXXXXX%%%%%%%%%%%%%%%%XXXXXXXXXXXXXXXXX.",
".XXXXXXXXXXXXXXXXX%%%%%XXXXXXXXXXXXXXXXXXXXXXX%%%%%%%%%%%%%%%%XXXXXXXXXXXXXXXX.",
".XXXXXXXXXXXXXXXX%%%%%XXXXXXXXXXXXXXXXXXXXXXXX%%%%%%%%%%%%%%%%XXXXXXXXXXXXXXXX.",
".XXXXXXXXXXXXXXX%%%%%XXXXXXXXXXXXXXXXXXXXXXXXXX%%%%%%%%%%%%%%%%XXXXXXXXXXXXXXX.",
".XXXXXXXXXXXXXXX%%%%%XXXXXXXXXXXXXXXXXXXXXXXXXXX%%%%%%%%%%%%%%%%XXXXXXXXXXXXXX.",
".XXXXXXXXXXXXXX%%%%%XXXXXXXXXXXXXXXXXXXXXXXXXXXXX%%%%%%%%%%%%%%%%XXXXXXXXXXXXX.",
".XXXXXXXXXXXXX%%%%%XXXXXXXXXXXXXXXXXXXXXXXXXXXXXX%%%%%%%%%%%%%%%%XXXXXXXXXXXXX.",
".XXXXXXXXXXXX%%%%%XXXXXXXXXXXXXXXXXXXXXXXXXXXXXXXX%%%%%%%%%%%%%%%%XXXXXXXXXXXX.",
".XXXXXXXXXXX%%%%%XXXXXXXXXXXXXXXXXXXXXXXXXXXXXXXXXX%%%%%%%%%%%%%%%%XXXXXXXXXXX.",
".XXXXXXXXXXX%%%%%XXXXXXXXXXXXXXXXXXXXXXXXXXXXXXXXXXX%%%%%%%%%%%%%%%%XXXXXXXXXX.",
".XXXXXXXXXX%%%%%XXXXXXXXXXXXXXXXXXXXXXXXXXXXXXXXXXXX%%%%%%%%%%%%%%%%XXXXXXXXXX.",
".XXXXXXXXX%%%%%XXXXXX$oOo$XXXXXXXXXXXXXXXXXXXXXXXXXXX$oOo$%%%%%%%%%%%+O+XXXXXX.",
".XXXXXXXX%%%%%XXXXXXXX@.@XXXXXXXXXXXXXXXXXXXXXXXXXXXXX@.@%%%%%%%%%%%%%.XXXXXXX.",
".XXXXXXX%%%%%XXXXXXXXX&.&XXXXXXXXXXXXXXXXXXXXXXXXXXXXX&.&%%%%%%%%%#$#%&X#$#XXX.",
".XXXXXXXXXXXXXXXXXXXXX+.+XXXXXXXXXXXXXXXXXXXXXXXXXXXXX+.+XXXXXXXXX@..+O+..@XXX.",
".XXXXXXXXXXXXXXX#+#XXX#.#XXX#+#XXXXXXXXXXXXXXXXX#+#XXX#.#XXX#+#XX+...@o@...+XX.",
".XXXXXXXXXXXXXXO...o#XX.XX#o...OXXXXXXXXXXXXXXXO...o#XX.XX#o...OXX@..O@O..@XXX.",
".XXXXXXXXXXXXXO.....@#X.X#@.....OXXXXXXXXXXXXXO.....@#X.X#@.....OX#$+...+$#XXX.",
".XXXXXXXXXXXXX@......@#.#@......@XXXXXXXXXXXXX@......@#.#@......@XXX$...$XXXXX.",
".XXXXXXXXXXXXX...................XXXXXXXXXXXXX...................XXX#@.@#XXXXX.",
".XXXXXXXXXXXXX@......@#.#@......@XXXXXXXXXXXXX@......@#.#@......@XXXXX+XXXXXXX.",
".XXXXXXXXXXXXXO.....@#@.@#@.....OXXXXXXXXXXXXXO.....@#@.@#@.....OXXXXXXXXXXXXX.",
".XXXXXXXXXXXXXXO...o#@...@#o...OXXXXXXXXXXXXXXXO...o#@...@#o...OXXXXXXXXXXXXXX.",
".XXXXXXXXXXXXXXX#+#Xo.....oX#+#XXXXXXXXXXXXXXXXX#+#Xo.....oX#+#XXXXXXXXXXXXXXX.",
".XXXXXXXXXXXXXXXXXX#.......#XXXXXXXXXXXXXXXXXXXXXXX#.......#XXXXXXXXXX..XXXXXX.",
".XXXXXXXXXXXXXXXXXX+.......+XXXXXXXXXXXXXXXXXXXXXXX+.......+XXXXXXXXXX..XXXXXX.",
".XXXXXXXXXXXXXXXXXX#.......#XXXXXXXXXXXXXXXXXXXXXXX#.......#XXXXXXXXXX.oXXXXXX.",
".XXXXXXXXXXXXXXXXXXXO.....OXXXXXXXXXXXXXXXXXXXXXXXXXO.....OXXXXXXXXXXO.OXXXXXX.",
".XXXXXXXXXXXXXXXXXXXXO@.@OXXXXXXXXXXXXXXXXXXXXXXXXXXXO@.@OXXXXXXXXXXXo.+XXXXXX.",
".XXXXXXXXXXXXXXXXXXXXXXXXXXXXXXXXXXXXXXXXXXXXXXXXXXXXXXXXXXXXXXXXXXXX..XXXXXXX.",
".XXXXXXXXXXXXXXXXXXXXXXXXXXXXXXXXXXXXXXXXXXXXXXXXXXXXXXXXXXXXXXXXXXXO.OXXXXXXX.",
".XXXXXXXXXXXXXXXXXXXXXXXXXXXXXXXXXXXXXXXXXXXXXXXXXXXXXXXXXXXXXXXXXXX..XXXXXXXX.",
".XXXXXXXXXXXXXXXXXXXXXXXXXXXXXXXXXXXXXXXXXXXXXXXXXXXXXXXXXXXXXXXXXXO.oXXXXXXXX.",
".XXXXXXXXXXXXXXXXXXXXXXXXXXXXXXXXXXXXXXXXXXXXXXXXXXXXXXXXXXXXXXXXXX..XXXXXXXXX.",
".XXXXXXXXXXXXXXXXXXXXXXXXXXXXXXXXXXXXXXXXXXXXXXXXXXXXXXXXXXXXXXXXXo.oXXXXXXXXX.",
".XXXXXXXXXXXXXXXXXXXXXXXXXXXXXXXXXXXXXXXXXXXXXXXXXXXXXXXXXXXXXXXXX..XXXXX..XXX.",
".XXXXXXXXXXXXXXXXXXXXXXXXXXXXXXXXXXXXXXXXXXXXXXXXXXXXXXXXXXXXXXXXX.........XXX.",
" .XXXXXXXXXXXXXXXXXXXXXXXXXXXXXXXXXXXXXXXXXXXXXXXXXXXXXXXXXXXXXXXX.........XX. ",
" .XXXXXXXXXXXXXXXXXXXXXXXXXXXXXXXXXXXXXXXXXXXXXXXXXXXXXXXXXXXXXXXXXXXXXXXXXXX. ",
"  .XXXXXXXXXXXXXXXXXXXXXXXXXXXXXXXXXXXXXXXXXXXXXXXXXXXXXXXXXXXXXXXXXXXXXXXXX.  ",
"  .XXXXXXXXXXXXXXXXXXXXXXXXXXXXXXXXXXXXXXXXXXXXXXXXXXXXXXXXXXXXXXXXXXXXXXXXX.  ",
"   ..XXXXXXXXXXXXXXXXXXXXXXXXXXXXXXXXXXXXXXXXXXXXXXXXXXXXXXXXXXXXXXXXXXXXX..   ",
"     ..XXXXXXXXXXXXXXXXXXXXXXXXXXXXXXXXXXXXXXXXXXXXXXXXXXXXXXXXXXXXXXXXX..     ",
"       .................................................................       "};
