/* XPM */
static char * Seven_Hearts_xpm[] = {
"79 123 12 1",
" 	c None",
".	c #000000000000",
"X	c #FFFFFFFFFFFF",
"o	c #CF3C00000000",
"O	c #DF7D3CF338E3",
"+	c #E79D7DF779E7",
"@	c #F7DEBEFBBEFB",
"#	c #FFFFDF7DDF7D",
"$	c #DF7D5D755965",
"%	c #D75C1C711861",
"&	c #EFBE9E799E79",
"*	c #D75CD75CD75C",
"       .................................................................       ",
"     ..XXXXXXXXXXXXXXXXXXXXXXXXXXXXXXXXXXXXXXXXXXXXXXXXXXXXXXXXXXXXXXXXX..     ",
"   ..XXXXXXXXXXXXXXXXXXXXXXXXXXXXXXXXXXXXXXXXXXXXXXXXXXXXXXXXXXXXXXXXXXXXX..   ",
"  .XXXXXXXXXXXXXXXXXXXXXXXXXXXXXXXXXXXXXXXXXXXXXXXXXXXXXXXXXXXXXXXXXXXXXXXXX.  ",
"  .XXXXXXXXXXXXXXXXXXXXXXXXXXXXXXXXXXXXXXXXXXXXXXXXXXXXXXXXXXXXXXXXXXXXXXXXX.  ",
" .XXXXXXXXXXXXXXXXXXXXXXXXXXXXXXXXXXXXXXXXXXXXXXXXXXXXXXXXXXXXXXXXXXXXXXXXXXX. ",
" .XXoooooooooXXXXXXXXXXXXXXXXXXXXXXXXXXXXXXXXXXXXXXXXXXXXXXXXXXXXXXXXXXXXXXXX. ",
".XXXoooooooooXXXXXXXXXXXXXXXXXXXXXXXXXXXXXXXXXXXXXXXXXXXXXXXXXXXXXXXXXXXXXXXXX.",
".XXXooXXXXXooXXXXXXXXXXXXXXXXXXXXXXXXXXXXXXXXXXXXXXXXXXXXXXXXXXXXXXXXXXXXXXXXX.",
".XXXXXXXXXOoOXXXXXXXXXXXXXXXXXXXXXXXXXXXXXXXXXXXXXXXXXXXXXXXXXXXXXXXXXXXXXXXXX.",
".XXXXXXXXXooXXXXXXXXXXXXXXXXXXXXXXXXXXXXXXXXXXXXXXXXXXXXXXXXXXXXXXXXXXXXXXXXXX.",
".XXXXXXXXOo+XXXXXXXXXXXXXXXXXXXXXXXXXXXXXXXXXXXXXXXXXXXXXXXXXXXXXXXXXXXXXXXXXX.",
".XXXXXXXXooXXXXXXXXXXXXXXXXXXXXXXXXXXXXXXXXXXXXXXXXXXXXXXXXXXXXXXXXXXXXXXXXXXX.",
".XXXXXXX+o+XXXXXXXXXXXXXXXXXXXXXXXXXXXXXXXXXXXXXXXXXXXXXXXXXXXXXXXXXXXXXXXXXXX.",
".XXXXXXXooXXXXXXXXXXXXXXXXXXXXXXXXXXXXXXXXXXXXXXXXXXXXXXXXXXXXXXXXXXXXXXXXXXXX.",
".XXXXXX@oOXXXXXXXX#@#XXXXX#@#XXXXXXXXXXXXXXXXXXXXX#@#XXXXX#@#XXXXXXXXXXXXXXXXX.",
".XXXXXX+o+XXXXXX@Oooo$#X#$oooO@XXXXXXXXXXXXXXXXX@Oooo$#X#$oooO@XXXXXXXXXXXXXXX.",
".XXXXXXOoXXXXXX#oooooo%X%oooooo#XXXXXXXXXXXXXXX#oooooo%X%oooooo#XXXXXXXXXXXXXX.",
".XXXXXXooXXXXXX$oooooooOooooooo$XXXXXXXXXXXXXXX$oooooooOooooooo$XXXXXXXXXXXXXX.",
".XXXXXXooXXXXXXoooooooooooooooooXXXXXXXXXXXXXXXoooooooooooooooooXXXXXXXXXXXXXX.",
".XXXXXXXXXXXXXXoooooooooooooooooXXXXXXXXXXXXXXXoooooooooooooooooXXXXXXXXXXXXXX.",
".XXXXXXXXXXXXXXOoooooooooooooooOXXXXXXXXXXXXXXXOoooooooooooooooOXXXXXXXXXXXXXX.",
".XXXXXXXXXXXXXX@ooooooooooooooo@XXXXXXXXXXXXXXX@ooooooooooooooo@XXXXXXXXXXXXXX.",
".XXXXXXXXXXXXXXX&ooooooooooooo&XXXXXXXXXXXXXXXXX&ooooooooooooo&XXXXXXXXXXXXXXX.",
".XXXX$%+X+%$XXXXX$ooooooooooo$XXXXXXXXXXXXXXXXXXX$ooooooooooo$XXXXXXXXXXXXXXXX.",
".XXX+ooo%ooo+XXXXX$ooooooooo$XXXXXXXXXXXXXXXXXXXXX$ooooooooo$XXXXXXXXXXXXXXXXX.",
".XXXOoooooooOXXXXXXOoooooooOXXXXXXXXXXXXXXXXXXXXXXXOoooooooOXXXXXXXXXXXXXXXXXX.",
".XXX&ooooooo&XXXXXX#%ooooo%#XXXXXXXXXXXXXXXXXXXXXXX#%ooooo%#XXXXXXXXXXXXXXXXXX.",
".XXXX+ooooo+XXXXXXXX@ooooo@XXXXXXXXXXXXXXXXXXXXXXXXX@ooooo@XXXXXXXXXXXXXXXXXXX.",
".XXXXX$ooo$**********+ooo+XXXXXXXXXXXXXXXXXXXXXXXXXXX+ooo+XXXXXXXX*****XXXXXXX.",
".XXXXXX%o%************%o%XXXXXXXXXXXXXXXXXXXXXXXXXXXXX%o%XXXXXXXXX*****XXXXXXX.",
".XXXXXX@o@************#o#XXXXXXXXXXXXXXXXXXXXXXXXXXXXX#o#XXXXXXXX*****XXXXXXXX.",
".XXXXXXX@X*************&**XXXXXXXXXXXXXXXXXXXXXXXXXXXXX&XXXXXXXX*****XXXXXXXXX.",
".XXXXXXXXX****************XXXXXXXXXXXXXXXXXXXXXXXXXXXXXXXXXXXXX*****XXXXXXXXXX.",
".XXXXXXXXXX****************XXXXXXX#@#XXXXX#@#XXXXXXXXXXXXXXXXX*****XXXXXXXXXXX.",
".XXXXXXXXXXX****************XXXX@Oooo$#X#$oooO@XXXXXXXXXXXXXXX*****XXXXXXXXXXX.",
".XXXXXXXXXXXX****************XX#oooooo%X%oooooo#XXXXXXXXXXXXX*****XXXXXXXXXXXX.",
".XXXXXXXXXXXX****************XX$oooooooOooooooo$XXXXXXXXXXXX*****XXXXXXXXXXXXX.",
".XXXXXXXXXXXXX****************XoooooooooooooooooXXXXXXXXXXX*****XXXXXXXXXXXXXX.",
".XXXXXXXXXXXXXX****************oooooooooooooooooXXXXXXXXXX*****XXXXXXXXXXXXXXX.",
".XXXXXXXXXXXXXXX***************OoooooooooooooooOXXXXXXXXXX*****XXXXXXXXXXXXXXX.",
".XXXXXXXXXXXXXXX***************@ooooooooooooooo@XXXXXXXXX*****XXXXXXXXXXXXXXXX.",
".XXXXXXXXXXXXXXXX***************&ooooooooooooo&XXXXXXXXX*****XXXXXXXXXXXXXXXXX.",
".XXXXXXXXXXXXXXXXX***************$ooooooooooo$XXXXXXXXX*****XXXXXXXXXXXXXXXXXX.",
".XXXXXXXXXXXXXXXXXX***************$ooooooooo$XXXXXXXXX*****XXXXXXXXXXXXXXXXXXX.",
".XXXXXXXXXXXXXXXXXX****************OoooooooOXXXXXXXXX*****XXXXXXXXXXXXXXXXXXXX.",
".XXXXXXXXXXXXXXXXXXX***************#%ooooo%#XXXXXXXXX*****XXXXXXXXXXXXXXXXXXXX.",
".XXXXXXXXXXXXXXXXXXXX***************@ooooo@XXXXXXXXX*****XXXXXXXXXXXXXXXXXXXXX.",
".XXXXXXXXXXXXXXXXXXXXX***************+ooo+XXXXXXXXX*****XXXXXXXXXXXXXXXXXXXXXX.",
".XXXXXXXXXXXXXXXXXXXXX****************%o%XXXXXXXXX*****XXXXXXXXXXXXXXXXXXXXXXX.",
".XXXXXXXXXXXXXXXXXXXXXX***************#o#XXXXXXXX*****XXXXXXXXXXXXXXXXXXXXXXXX.",
".XXXXXXXXXXXXXXXXXXXXXXX***************&XXXXXXXXX*****XXXXXXXXXXXXXXXXXXXXXXXX.",
".XXXXXXXXXXXXXXXXXXXXXXXX****************XXXXXXX*****XXXXXXXXXXXXXXXXXXXXXXXXX.",
".XXXXXXXXXXXXXXXXXXXXXXXX****************XXXXXX*****XXXXXXXXXXXXXXXXXXXXXXXXXX.",
".XXXXXXXXXXXXXXXXX#@#XXXXX#@#*************XXXX****#@#XXXXX#@#XXXXXXXXXXXXXXXXX.",
".XXXXXXXXXXXXXXX@Oooo$#X#$oooO@************XX***@Oooo$#X#$oooO@XXXXXXXXXXXXXXX.",
".XXXXXXXXXXXXXX#oooooo%X%oooooo#***********XX**#oooooo%X%oooooo#XXXXXXXXXXXXXX.",
".XXXXXXXXXXXXXX$oooooooOooooooo$**********XX***$oooooooOooooooo$XXXXXXXXXXXXXX.",
".XXXXXXXXXXXXXXooooooooooooooooo*********XX****oooooooooooooooooXXXXXXXXXXXXXX.",
".XXXXXXXXXXXXXXooooooooooooooooo********XX*****oooooooooooooooooXXXXXXXXXXXXXX.",
".XXXXXXXXXXXXXXOoooooooooooooooO*******XX******OoooooooooooooooOXXXXXXXXXXXXXX.",
".XXXXXXXXXXXXXX@ooooooooooooooo@******XX*******@ooooooooooooooo@XXXXXXXXXXXXXX.",
".XXXXXXXXXXXXXXX&ooooooooooooo&X******XX********&ooooooooooooo&XXXXXXXXXXXXXXX.",
".XXXXXXXXXXXXXXXX$ooooooooooo$XX*****XX**********$ooooooooooo$XXXXXXXXXXXXXXXX.",
".XXXXXXXXXXXXXXXXX$ooooooooo$XX*****XX************$ooooooooo$XXXXXXXXXXXXXXXXX.",
".XXXXXXXXXXXXXXXXXXOoooooooOXX*****XX*************XOoooooooOXXXXXXXXXXXXXXXXXX.",
".XXXXXXXXXXXXXXXXXX#%ooooo%#X*****XX***************#%ooooo%#XXXXXXXXXXXXXXXXXX.",
".XXXXXXXXXXXXXXXXXXX@ooooo@XX*****XX****************@ooooo@XXXXXXXXXXXXXXXXXXX.",
".XXXXXXXXXXXXXXXXXXXX+ooo+XX*****XXXX****************+ooo+XXXXXXXXXXXXXXXXXXXX.",
".XXXXXXXXXXXXXXXXXXXXX%o%XX*****XXXXX****************X%o%XXXXXXXXXXXXXXXXXXXXX.",
".XXXXXXXXXXXXXXXXXXXXX#o#X*****XXXXXXX****************#o#XXXXXXXXXXXXXXXXXXXXX.",
".XXXXXXXXXXXXXXXXXXXXXX&X*****XXXXXXXXX****************&XXXXXXXXXXXXXXXXXXXXXX.",
".XXXXXXXXXXXXXXXXXXXXXXXX*****XXXXXXXXXX****************XXXXXXXXXXXXXXXXXXXXXX.",
".XXXXXXXXXXXXXXXXXXXXXXX*****XXXXXXXXXXX****************XXXXXXXXXXXXXXXXXXXXXX.",
".XXXXXXXXXXXXXXXXXXXXXX*****XXXXXXXXXXXXX****************XXXXXXXXXXXXXXXXXXXXX.",
".XXXXXXXXXXXXXXXXXXXXX*****XXXXXXXXXXXXXXX****************XXXXXXXXXXXXXXXXXXXX.",
".XXXXXXXXXXXXXXXXXXXX*****XXXXXXXXXXXXXXXXX****************XXXXXXXXXXXXXXXXXXX.",
".XXXXXXXXXXXXXXXXXXX*****XXXXXXXXXXXXXXXXXX****************XXXXXXXXXXXXXXXXXXX.",
".XXXXXXXXXXXXXXXXXXX*****XXXXXXXXXXXXXXXXXXX****************XXXXXXXXXXXXXXXXXX.",
".XXXXXXXXXXXXXXXXXX*****XXXXXXXXXXXXXXXXXXXXX****************XXXXXXXXXXXXXXXXX.",
".XXXXXXXXXXXXXXXXX*****XXXXXXXXXXXXXXXXXXXXXXX****************XXXXXXXXXXXXXXXX.",
".XXXXXXXXXXXXXXXX*****XXXXXXXXXXXXXXXXXXXXXXXX****************XXXXXXXXXXXXXXXX.",
".XXXXXXXXXXXXXXX*****XXXXXXXXXXXXXXXXXXXXXXXXXX****************XXXXXXXXXXXXXXX.",
".XXXXXXXXXXXXXXX*****XXXXXXXXXXXXXXXXXXXXXXXXXXX****************XXXXXXXXXXXXXX.",
".XXXXXXXXXXXXXX*****XXXXXXXXXXXXXXXXXXXXXXXXXXXXX****************XXXXXXXXXXXXX.",
".XXXXXXXXXXXXX*****XXXXXXXXXXXXXXXXXXXXXXXXXXXXXX****************XXXXXXXXXXXXX.",
".XXXXXXXXXXXX*****XXXXXXXXXXXXXXXXXXXXXXXXXXXXXXXX****************XXXXXXXXXXXX.",
".XXXXXXXXXXX*****XXXXXXXXXXXXXXXXXXXXXXXXXXXXXXXXXX****************XXXXXXXXXXX.",
".XXXXXXXXXXX*****XXXXXXXXXXXXXXXXXXXXXXXXXXXXXXXXXXX****************XXXXXXXXXX.",
".XXXXXXXXXX*****XXXXXXXXXXXXXXXXXXXXXXXXXXXXXXXXXXXX****************XXXXXXXXXX.",
".XXXXXXXXX*****XXXXXXXX&XXXXXXXXXXXXXXXXXXXXXXXXXXXXX**&*************X@XXXXXXX.",
".XXXXXXXX*****XXXXXXXX#o#XXXXXXXXXXXXXXXXXXXXXXXXXXXXX#o#************@o@XXXXXX.",
".XXXXXXX*****XXXXXXXXX%o%XXXXXXXXXXXXXXXXXXXXXXXXXXXXX%o%************%o%XXXXXX.",
".XXXXXXXXXXXXXXXXXXXX+ooo+XXXXXXXXXXXXXXXXXXXXXXXXXXX+ooo+XXXXXXXXXX$ooo$XXXXX.",
".XXXXXXXXXXXXXXXXXXX@ooooo@XXXXXXXXXXXXXXXXXXXXXXXXX@ooooo@XXXXXXXX+ooooo+XXXX.",
".XXXXXXXXXXXXXXXXXX#%ooooo%#XXXXXXXXXXXXXXXXXXXXXXX#%ooooo%#XXXXXX&ooooooo&XXX.",
".XXXXXXXXXXXXXXXXXXOoooooooOXXXXXXXXXXXXXXXXXXXXXXXOoooooooOXXXXXXOoooooooOXXX.",
".XXXXXXXXXXXXXXXXX$ooooooooo$XXXXXXXXXXXXXXXXXXXXX$ooooooooo$XXXXX+ooo%ooo+XXX.",
".XXXXXXXXXXXXXXXX$ooooooooooo$XXXXXXXXXXXXXXXXXXX$ooooooooooo$XXXXX$%+X+%$XXXX.",
".XXXXXXXXXXXXXXX&ooooooooooooo&XXXXXXXXXXXXXXXXX&ooooooooooooo&XXXXXXXXXXXXXXX.",
".XXXXXXXXXXXXXX@ooooooooooooooo@XXXXXXXXXXXXXXX@ooooooooooooooo@XXXXXXXXXXXXXX.",
".XXXXXXXXXXXXXXOoooooooooooooooOXXXXXXXXXXXXXXXOoooooooooooooooOXXXXXXXXXXXXXX.",
".XXXXXXXXXXXXXXoooooooooooooooooXXXXXXXXXXXXXXXoooooooooooooooooXXXXXXXXXXXXXX.",
".XXXXXXXXXXXXXXoooooooooooooooooXXXXXXXXXXXXXXXoooooooooooooooooXXXXXXooXXXXXX.",
".XXXXXXXXXXXXXX$oooooooOooooooo$XXXXXXXXXXXXXXX$oooooooOooooooo$XXXXXXooXXXXXX.",
".XXXXXXXXXXXXXX#oooooo%X%oooooo#XXXXXXXXXXXXXXX#oooooo%X%oooooo#XXXXXXoOXXXXXX.",
".XXXXXXXXXXXXXXX@Oooo$#X#$oooO@XXXXXXXXXXXXXXXXX@Oooo$#X#$oooO@XXXXXX+o+XXXXXX.",
".XXXXXXXXXXXXXXXXX#@#XXXXX#@#XXXXXXXXXXXXXXXXXXXXX#@#XXXXX#@#XXXXXXXXOo@XXXXXX.",
".XXXXXXXXXXXXXXXXXXXXXXXXXXXXXXXXXXXXXXXXXXXXXXXXXXXXXXXXXXXXXXXXXXXXooXXXXXXX.",
".XXXXXXXXXXXXXXXXXXXXXXXXXXXXXXXXXXXXXXXXXXXXXXXXXXXXXXXXXXXXXXXXXXX+o+XXXXXXX.",
".XXXXXXXXXXXXXXXXXXXXXXXXXXXXXXXXXXXXXXXXXXXXXXXXXXXXXXXXXXXXXXXXXXXooXXXXXXXX.",
".XXXXXXXXXXXXXXXXXXXXXXXXXXXXXXXXXXXXXXXXXXXXXXXXXXXXXXXXXXXXXXXXXX+oOXXXXXXXX.",
".XXXXXXXXXXXXXXXXXXXXXXXXXXXXXXXXXXXXXXXXXXXXXXXXXXXXXXXXXXXXXXXXXXooXXXXXXXXX.",
".XXXXXXXXXXXXXXXXXXXXXXXXXXXXXXXXXXXXXXXXXXXXXXXXXXXXXXXXXXXXXXXXXOoOXXXXXXXXX.",
".XXXXXXXXXXXXXXXXXXXXXXXXXXXXXXXXXXXXXXXXXXXXXXXXXXXXXXXXXXXXXXXXXooXXXXXooXXX.",
".XXXXXXXXXXXXXXXXXXXXXXXXXXXXXXXXXXXXXXXXXXXXXXXXXXXXXXXXXXXXXXXXXoooooooooXXX.",
" .XXXXXXXXXXXXXXXXXXXXXXXXXXXXXXXXXXXXXXXXXXXXXXXXXXXXXXXXXXXXXXXXoooooooooXX. ",
" .XXXXXXXXXXXXXXXXXXXXXXXXXXXXXXXXXXXXXXXXXXXXXXXXXXXXXXXXXXXXXXXXXXXXXXXXXXX. ",
"  .XXXXXXXXXXXXXXXXXXXXXXXXXXXXXXXXXXXXXXXXXXXXXXXXXXXXXXXXXXXXXXXXXXXXXXXXX.  ",
"  .XXXXXXXXXXXXXXXXXXXXXXXXXXXXXXXXXXXXXXXXXXXXXXXXXXXXXXXXXXXXXXXXXXXXXXXXX.  ",
"   ..XXXXXXXXXXXXXXXXXXXXXXXXXXXXXXXXXXXXXXXXXXXXXXXXXXXXXXXXXXXXXXXXXXXXX..   ",
"     ..XXXXXXXXXXXXXXXXXXXXXXXXXXXXXXXXXXXXXXXXXXXXXXXXXXXXXXXXXXXXXXXXX..     ",
"       .................................................................       "};
