/* XPM */
static char * Six_Hearts_xpm[] = {
"79 123 12 1",
" 	c None",
".	c #000000000000",
"X	c #FFFFFFFFFFFF",
"o	c #F7DEBEFBBEFB",
"O	c #CF3C00000000",
"+	c #DF7D3CF338E3",
"@	c #FFFFDF7DDF7D",
"#	c #DF7D5D755965",
"$	c #D75C1C711861",
"%	c #EFBE9E799E79",
"&	c #E79D7DF779E7",
"*	c #D75CD75CD75C",
"       .................................................................       ",
"     ..XXXXXXXXXXXXXXXXXXXXXXXXXXXXXXXXXXXXXXXXXXXXXXXXXXXXXXXXXXXXXXXXX..     ",
"   ..XXXXXXXXXXXXXXXXXXXXXXXXXXXXXXXXXXXXXXXXXXXXXXXXXXXXXXXXXXXXXXXXXXXXX..   ",
"  .XXXXXXXXXXXXXXXXXXXXXXXXXXXXXXXXXXXXXXXXXXXXXXXXXXXXXXXXXXXXXXXXXXXXXXXXX.  ",
"  .XXXXXXXXXXXXXXXXXXXXXXXXXXXXXXXXXXXXXXXXXXXXXXXXXXXXXXXXXXXXXXXXXXXXXXXXX.  ",
" .XXXXXXXXXXXXXXXXXXXXXXXXXXXXXXXXXXXXXXXXXXXXXXXXXXXXXXXXXXXXXXXXXXXXXXXXXXX. ",
" .XXXoOOOOOoXXXXXXXXXXXXXXXXXXXXXXXXXXXXXXXXXXXXXXXXXXXXXXXXXXXXXXXXXXXXXXXXX. ",
".XXXoOOOOOOOoXXXXXXXXXXXXXXXXXXXXXXXXXXXXXXXXXXXXXXXXXXXXXXXXXXXXXXXXXXXXXXXXX.",
".XXXOO+XXX+OOXXXXXXXXXXXXXXXXXXXXXXXXXXXXXXXXXXXXXXXXXXXXXXXXXXXXXXXXXXXXXXXXX.",
".XXXOOXXXXX+oXXXXXXXXXXXXXXXXXXXXXXXXXXXXXXXXXXXXXXXXXXXXXXXXXXXXXXXXXXXXXXXXX.",
".XXXOOXXXXXXXXXXXXXXXXXXXXXXXXXXXXXXXXXXXXXXXXXXXXXXXXXXXXXXXXXXXXXXXXXXXXXXXX.",
".XXXOOoOOOOoXXXXXXXXXXXXXXXXXXXXXXXXXXXXXXXXXXXXXXXXXXXXXXXXXXXXXXXXXXXXXXXXXX.",
".XXXOOOOOOOOoXXXXXXXXXXXXXXXXXXXXXXXXXXXXXXXXXXXXXXXXXXXXXXXXXXXXXXXXXXXXXXXXX.",
".XXXOO+XXX+OOXXXXXXXXXXXXXXXXXXXXXXXXXXXXXXXXXXXXXXXXXXXXXXXXXXXXXXXXXXXXXXXXX.",
".XXXOOXXXXXOOXXXXXXXXXXXXXXXXXXXXXXXXXXXXXXXXXXXXXXXXXXXXXXXXXXXXXXXXXXXXXXXXX.",
".XXXOOXXXXXOOXXXXX@o@XXXXX@o@XXXXXXXXXXXXXXXXXXXXX@o@XXXXX@o@XXXXXXXXXXXXXXXXX.",
".XXXOOXXXXXOOXXXo+OOO#@X@#OOO+oXXXXXXXXXXXXXXXXXo+OOO#@X@#OOO+oXXXXXXXXXXXXXXX.",
".XXXOO+XXX+OOXX@OOOOOO$X$OOOOOO@XXXXXXXXXXXXXXX@OOOOOO$X$OOOOOO@XXXXXXXXXXXXXX.",
".XXXoOOOOOOOoXX#OOOOOOO+OOOOOOO#XXXXXXXXXXXXXXX#OOOOOOO+OOOOOOO#XXXXXXXXXXXXXX.",
".XXXXoOOOOOoXXXOOOOOOOOOOOOOOOOOXXXXXXXXXXXXXXXOOOOOOOOOOOOOOOOOXXXXXXXXXXXXXX.",
".XXXXXXXXXXXXXXOOOOOOOOOOOOOOOOOXXXXXXXXXXXXXXXOOOOOOOOOOOOOOOOOXXXXXXXXXXXXXX.",
".XXXXXXXXXXXXXX+OOOOOOOOOOOOOOO+XXXXXXXXXXXXXXX+OOOOOOOOOOOOOOO+XXXXXXXXXXXXXX.",
".XXXXXXXXXXXXXXoOOOOOOOOOOOOOOOoXXXXXXXXXXXXXXXoOOOOOOOOOOOOOOOoXXXXXXXXXXXXXX.",
".XXXXXXXXXXXXXXX%OOOOOOOOOOOOO%XXXXXXXXXXXXXXXXX%OOOOOOOOOOOOO%XXXXXXXXXXXXXXX.",
".XXXX#$&X&$#XXXXX#OOOOOOOOOOO#XXXXXXXXXXXXXXXXXXX#OOOOOOOOOOO#XXXXXXXXXXXXXXXX.",
".XXX&OOO$OOO&XXXXX#OOOOOOOOO#XXXXXXXXXXXXXXXXXXXXX#OOOOOOOOO#XXXXXXXXXXXXXXXXX.",
".XXX+OOOOOOO+XXXXXX+OOOOOOO+XXXXXXXXXXXXXXXXXXXXXXX+OOOOOOO+XXXXXXXXXXXXXXXXXX.",
".XXX%OOOOOOO%XXXXXX@$OOOOO$@XXXXXXXXXXXXXXXXXXXXXXX@$OOOOO$@XXXXXXXXXXXXXXXXXX.",
".XXXX&OOOOO&XXXXXXXXoOOOOOoXXXXXXXXXXXXXXXXXXXXXXXXXoOOOOOoXXXXXXXXXXXXXXXXXXX.",
".XXXXX#OOO#**********&OOO&XXXXXXXXXXXXXXXXXXXXXXXXXXX&OOO&XXXXXXXX*****XXXXXXX.",
".XXXXXX$O$************$O$XXXXXXXXXXXXXXXXXXXXXXXXXXXXX$O$XXXXXXXXX*****XXXXXXX.",
".XXXXXXoOo************@O@XXXXXXXXXXXXXXXXXXXXXXXXXXXXX@O@XXXXXXXX*****XXXXXXXX.",
".XXXXXXXoX*************%**XXXXXXXXXXXXXXXXXXXXXXXXXXXXX%XXXXXXXX*****XXXXXXXXX.",
".XXXXXXXXX****************XXXXXXXXXXXXXXXXXXXXXXXXXXXXXXXXXXXXX*****XXXXXXXXXX.",
".XXXXXXXXXX****************XXXXXXXXXXXXXXXXXXXXXXXXXXXXXXXXXXX*****XXXXXXXXXXX.",
".XXXXXXXXXXX****************XXXXXXXXXXXXXXXXXXXXXXXXXXXXXXXXXX*****XXXXXXXXXXX.",
".XXXXXXXXXXXX****************XXXXXXXXXXXXXXXXXXXXXXXXXXXXXXXX*****XXXXXXXXXXXX.",
".XXXXXXXXXXXX****************XXXXXXXXXXXXXXXXXXXXXXXXXXXXXXX*****XXXXXXXXXXXXX.",
".XXXXXXXXXXXXX****************XXXXXXXXXXXXXXXXXXXXXXXXXXXXX*****XXXXXXXXXXXXXX.",
".XXXXXXXXXXXXXX****************XXXXXXXXXXXXXXXXXXXXXXXXXXX*****XXXXXXXXXXXXXXX.",
".XXXXXXXXXXXXXXX****************XXXXXXXXXXXXXXXXXXXXXXXXXX*****XXXXXXXXXXXXXXX.",
".XXXXXXXXXXXXXXX****************XXXXXXXXXXXXXXXXXXXXXXXXX*****XXXXXXXXXXXXXXXX.",
".XXXXXXXXXXXXXXXX****************XXXXXXXXXXXXXXXXXXXXXXX*****XXXXXXXXXXXXXXXXX.",
".XXXXXXXXXXXXXXXXX****************XXXXXXXXXXXXXXXXXXXXX*****XXXXXXXXXXXXXXXXXX.",
".XXXXXXXXXXXXXXXXXX****************XXXXXXXXXXXXXXXXXXX*****XXXXXXXXXXXXXXXXXXX.",
".XXXXXXXXXXXXXXXXXX****************XXXXXXXXXXXXXXXXXX*****XXXXXXXXXXXXXXXXXXXX.",
".XXXXXXXXXXXXXXXXXXX****************XXXXXXXXXXXXXXXXX*****XXXXXXXXXXXXXXXXXXXX.",
".XXXXXXXXXXXXXXXXXXXX****************XXXXXXXXXXXXXXX*****XXXXXXXXXXXXXXXXXXXXX.",
".XXXXXXXXXXXXXXXXXXXXX****************XXXXXXXXXXXXX*****XXXXXXXXXXXXXXXXXXXXXX.",
".XXXXXXXXXXXXXXXXXXXXX****************XXXXXXXXXXXX*****XXXXXXXXXXXXXXXXXXXXXXX.",
".XXXXXXXXXXXXXXXXXXXXXX****************XXXXXXXXXX*****XXXXXXXXXXXXXXXXXXXXXXXX.",
".XXXXXXXXXXXXXXXXXXXXXXX****************XXXXXXXXX*****XXXXXXXXXXXXXXXXXXXXXXXX.",
".XXXXXXXXXXXXXXXXXXXXXXXX****************XXXXXXX*****XXXXXXXXXXXXXXXXXXXXXXXXX.",
".XXXXXXXXXXXXXXXXXXXXXXXX****************XXXXXX*****XXXXXXXXXXXXXXXXXXXXXXXXXX.",
".XXXXXXXXXXXXXXXXX@o@XXXXX@o@*************XXXX****@o@XXXXX@o@XXXXXXXXXXXXXXXXX.",
".XXXXXXXXXXXXXXXo+OOO#@X@#OOO+o************XX***o+OOO#@X@#OOO+oXXXXXXXXXXXXXXX.",
".XXXXXXXXXXXXXX@OOOOOO$X$OOOOOO@***********XX**@OOOOOO$X$OOOOOO@XXXXXXXXXXXXXX.",
".XXXXXXXXXXXXXX#OOOOOOO+OOOOOOO#**********XX***#OOOOOOO+OOOOOOO#XXXXXXXXXXXXXX.",
".XXXXXXXXXXXXXXOOOOOOOOOOOOOOOOO*********XX****OOOOOOOOOOOOOOOOOXXXXXXXXXXXXXX.",
".XXXXXXXXXXXXXXOOOOOOOOOOOOOOOOO********XX*****OOOOOOOOOOOOOOOOOXXXXXXXXXXXXXX.",
".XXXXXXXXXXXXXX+OOOOOOOOOOOOOOO+*******XX******+OOOOOOOOOOOOOOO+XXXXXXXXXXXXXX.",
".XXXXXXXXXXXXXXoOOOOOOOOOOOOOOOo******XX*******oOOOOOOOOOOOOOOOoXXXXXXXXXXXXXX.",
".XXXXXXXXXXXXXXX%OOOOOOOOOOOOO%X******XX********%OOOOOOOOOOOOO%XXXXXXXXXXXXXXX.",
".XXXXXXXXXXXXXXXX#OOOOOOOOOOO#XX*****XX**********#OOOOOOOOOOO#XXXXXXXXXXXXXXXX.",
".XXXXXXXXXXXXXXXXX#OOOOOOOOO#XX*****XX************#OOOOOOOOO#XXXXXXXXXXXXXXXXX.",
".XXXXXXXXXXXXXXXXXX+OOOOOOO+XX*****XX*************X+OOOOOOO+XXXXXXXXXXXXXXXXXX.",
".XXXXXXXXXXXXXXXXXX@$OOOOO$@X*****XX***************@$OOOOO$@XXXXXXXXXXXXXXXXXX.",
".XXXXXXXXXXXXXXXXXXXoOOOOOoXX*****XX****************oOOOOOoXXXXXXXXXXXXXXXXXXX.",
".XXXXXXXXXXXXXXXXXXXX&OOO&XX*****XXXX****************&OOO&XXXXXXXXXXXXXXXXXXXX.",
".XXXXXXXXXXXXXXXXXXXXX$O$XX*****XXXXX****************X$O$XXXXXXXXXXXXXXXXXXXXX.",
".XXXXXXXXXXXXXXXXXXXXX@O@X*****XXXXXXX****************@O@XXXXXXXXXXXXXXXXXXXXX.",
".XXXXXXXXXXXXXXXXXXXXXX%X*****XXXXXXXXX****************%XXXXXXXXXXXXXXXXXXXXXX.",
".XXXXXXXXXXXXXXXXXXXXXXXX*****XXXXXXXXXX****************XXXXXXXXXXXXXXXXXXXXXX.",
".XXXXXXXXXXXXXXXXXXXXXXX*****XXXXXXXXXXX****************XXXXXXXXXXXXXXXXXXXXXX.",
".XXXXXXXXXXXXXXXXXXXXXX*****XXXXXXXXXXXXX****************XXXXXXXXXXXXXXXXXXXXX.",
".XXXXXXXXXXXXXXXXXXXXX*****XXXXXXXXXXXXXXX****************XXXXXXXXXXXXXXXXXXXX.",
".XXXXXXXXXXXXXXXXXXXX*****XXXXXXXXXXXXXXXXX****************XXXXXXXXXXXXXXXXXXX.",
".XXXXXXXXXXXXXXXXXXX*****XXXXXXXXXXXXXXXXXX****************XXXXXXXXXXXXXXXXXXX.",
".XXXXXXXXXXXXXXXXXXX*****XXXXXXXXXXXXXXXXXXX****************XXXXXXXXXXXXXXXXXX.",
".XXXXXXXXXXXXXXXXXX*****XXXXXXXXXXXXXXXXXXXXX****************XXXXXXXXXXXXXXXXX.",
".XXXXXXXXXXXXXXXXX*****XXXXXXXXXXXXXXXXXXXXXXX****************XXXXXXXXXXXXXXXX.",
".XXXXXXXXXXXXXXXX*****XXXXXXXXXXXXXXXXXXXXXXXX****************XXXXXXXXXXXXXXXX.",
".XXXXXXXXXXXXXXX*****XXXXXXXXXXXXXXXXXXXXXXXXXX****************XXXXXXXXXXXXXXX.",
".XXXXXXXXXXXXXXX*****XXXXXXXXXXXXXXXXXXXXXXXXXXX****************XXXXXXXXXXXXXX.",
".XXXXXXXXXXXXXX*****XXXXXXXXXXXXXXXXXXXXXXXXXXXXX****************XXXXXXXXXXXXX.",
".XXXXXXXXXXXXX*****XXXXXXXXXXXXXXXXXXXXXXXXXXXXXX****************XXXXXXXXXXXXX.",
".XXXXXXXXXXXX*****XXXXXXXXXXXXXXXXXXXXXXXXXXXXXXXX****************XXXXXXXXXXXX.",
".XXXXXXXXXXX*****XXXXXXXXXXXXXXXXXXXXXXXXXXXXXXXXXX****************XXXXXXXXXXX.",
".XXXXXXXXXXX*****XXXXXXXXXXXXXXXXXXXXXXXXXXXXXXXXXXX****************XXXXXXXXXX.",
".XXXXXXXXXX*****XXXXXXXXXXXXXXXXXXXXXXXXXXXXXXXXXXXX****************XXXXXXXXXX.",
".XXXXXXXXX*****XXXXXXXX%XXXXXXXXXXXXXXXXXXXXXXXXXXXXX**%*************XoXXXXXXX.",
".XXXXXXXX*****XXXXXXXX@O@XXXXXXXXXXXXXXXXXXXXXXXXXXXXX@O@************oOoXXXXXX.",
".XXXXXXX*****XXXXXXXXX$O$XXXXXXXXXXXXXXXXXXXXXXXXXXXXX$O$************$O$XXXXXX.",
".XXXXXXXXXXXXXXXXXXXX&OOO&XXXXXXXXXXXXXXXXXXXXXXXXXXX&OOO&XXXXXXXXXX#OOO#XXXXX.",
".XXXXXXXXXXXXXXXXXXXoOOOOOoXXXXXXXXXXXXXXXXXXXXXXXXXoOOOOOoXXXXXXXX&OOOOO&XXXX.",
".XXXXXXXXXXXXXXXXXX@$OOOOO$@XXXXXXXXXXXXXXXXXXXXXXX@$OOOOO$@XXXXXX%OOOOOOO%XXX.",
".XXXXXXXXXXXXXXXXXX+OOOOOOO+XXXXXXXXXXXXXXXXXXXXXXX+OOOOOOO+XXXXXX+OOOOOOO+XXX.",
".XXXXXXXXXXXXXXXXX#OOOOOOOOO#XXXXXXXXXXXXXXXXXXXXX#OOOOOOOOO#XXXXX&OOO$OOO&XXX.",
".XXXXXXXXXXXXXXXX#OOOOOOOOOOO#XXXXXXXXXXXXXXXXXXX#OOOOOOOOOOO#XXXXX#$&X&$#XXXX.",
".XXXXXXXXXXXXXXX%OOOOOOOOOOOOO%XXXXXXXXXXXXXXXXX%OOOOOOOOOOOOO%XXXXXXXXXXXXXXX.",
".XXXXXXXXXXXXXXoOOOOOOOOOOOOOOOoXXXXXXXXXXXXXXXoOOOOOOOOOOOOOOOoXXXXXXXXXXXXXX.",
".XXXXXXXXXXXXXX+OOOOOOOOOOOOOOO+XXXXXXXXXXXXXXX+OOOOOOOOOOOOOOO+XXXXXXXXXXXXXX.",
".XXXXXXXXXXXXXXOOOOOOOOOOOOOOOOOXXXXXXXXXXXXXXXOOOOOOOOOOOOOOOOOXXXXXXXXXXXXXX.",
".XXXXXXXXXXXXXXOOOOOOOOOOOOOOOOOXXXXXXXXXXXXXXXOOOOOOOOOOOOOOOOOXXXoOOOOOoXXXX.",
".XXXXXXXXXXXXXX#OOOOOOO+OOOOOOO#XXXXXXXXXXXXXXX#OOOOOOO+OOOOOOO#XXoOOOOOOOoXXX.",
".XXXXXXXXXXXXXX@OOOOOO$X$OOOOOO@XXXXXXXXXXXXXXX@OOOOOO$X$OOOOOO@XXOO+XXX+OOXXX.",
".XXXXXXXXXXXXXXXo+OOO#@X@#OOO+oXXXXXXXXXXXXXXXXXo+OOO#@X@#OOO+oXXXOOXXXXXOOXXX.",
".XXXXXXXXXXXXXXXXX@o@XXXXX@o@XXXXXXXXXXXXXXXXXXXXX@o@XXXXX@o@XXXXXOOXXXXXOOXXX.",
".XXXXXXXXXXXXXXXXXXXXXXXXXXXXXXXXXXXXXXXXXXXXXXXXXXXXXXXXXXXXXXXXXOOXXXXXOOXXX.",
".XXXXXXXXXXXXXXXXXXXXXXXXXXXXXXXXXXXXXXXXXXXXXXXXXXXXXXXXXXXXXXXXXOO+XXX+OOXXX.",
".XXXXXXXXXXXXXXXXXXXXXXXXXXXXXXXXXXXXXXXXXXXXXXXXXXXXXXXXXXXXXXXXXoOOOOOOOOXXX.",
".XXXXXXXXXXXXXXXXXXXXXXXXXXXXXXXXXXXXXXXXXXXXXXXXXXXXXXXXXXXXXXXXXXoOOOOoOOXXX.",
".XXXXXXXXXXXXXXXXXXXXXXXXXXXXXXXXXXXXXXXXXXXXXXXXXXXXXXXXXXXXXXXXXXXXXXXXOOXXX.",
".XXXXXXXXXXXXXXXXXXXXXXXXXXXXXXXXXXXXXXXXXXXXXXXXXXXXXXXXXXXXXXXXXo+XXXXXOOXXX.",
".XXXXXXXXXXXXXXXXXXXXXXXXXXXXXXXXXXXXXXXXXXXXXXXXXXXXXXXXXXXXXXXXXOO+XXX+OOXXX.",
".XXXXXXXXXXXXXXXXXXXXXXXXXXXXXXXXXXXXXXXXXXXXXXXXXXXXXXXXXXXXXXXXXoOOOOOOOoXXX.",
" .XXXXXXXXXXXXXXXXXXXXXXXXXXXXXXXXXXXXXXXXXXXXXXXXXXXXXXXXXXXXXXXXXoOOOOOoXXX. ",
" .XXXXXXXXXXXXXXXXXXXXXXXXXXXXXXXXXXXXXXXXXXXXXXXXXXXXXXXXXXXXXXXXXXXXXXXXXXX. ",
"  .XXXXXXXXXXXXXXXXXXXXXXXXXXXXXXXXXXXXXXXXXXXXXXXXXXXXXXXXXXXXXXXXXXXXXXXXX.  ",
"  .XXXXXXXXXXXXXXXXXXXXXXXXXXXXXXXXXXXXXXXXXXXXXXXXXXXXXXXXXXXXXXXXXXXXXXXXX.  ",
"   ..XXXXXXXXXXXXXXXXXXXXXXXXXXXXXXXXXXXXXXXXXXXXXXXXXXXXXXXXXXXXXXXXXXXXX..   ",
"     ..XXXXXXXXXXXXXXXXXXXXXXXXXXXXXXXXXXXXXXXXXXXXXXXXXXXXXXXXXXXXXXXXX..     ",
"       .................................................................       "};
