/* XPM */
static char * Six_Spades_xpm[] = {
"79 123 11 1",
" 	c None",
".	c #000000000000",
"X	c #FFFFFFFFFFFF",
"o	c #BEFBBEFBBEFB",
"O	c #38E33CF338E3",
"+	c #59655D755965",
"@	c #DF7DDF7DDF7D",
"#	c #9E799E799E79",
"$	c #18611C711861",
"%	c #79E77DF779E7",
"&	c #D75CD75CD75C",
"       .................................................................       ",
"     ..XXXXXXXXXXXXXXXXXXXXXXXXXXXXXXXXXXXXXXXXXXXXXXXXXXXXXXXXXXXXXXXXX..     ",
"   ..XXXXXXXXXXXXXXXXXXXXXXXXXXXXXXXXXXXXXXXXXXXXXXXXXXXXXXXXXXXXXXXXXXXXX..   ",
"  .XXXXXXXXXXXXXXXXXXXXXXXXXXXXXXXXXXXXXXXXXXXXXXXXXXXXXXXXXXXXXXXXXXXXXXXXX.  ",
"  .XXXXXXXXXXXXXXXXXXXXXXXXXXXXXXXXXXXXXXXXXXXXXXXXXXXXXXXXXXXXXXXXXXXXXXXXX.  ",
" .XXXXXXXXXXXXXXXXXXXXXXXXXXXXXXXXXXXXXXXXXXXXXXXXXXXXXXXXXXXXXXXXXXXXXXXXXXX. ",
" .XXXo.....oXXXXXXXXXXXXXXXXXXXXXXXXXXXXXXXXXXXXXXXXXXXXXXXXXXXXXXXXXXXXXXXXX. ",
".XXXo.......oXXXXXXXXXXXXXXXXXXXXXXXXXXXXXXXXXXXXXXXXXXXXXXXXXXXXXXXXXXXXXXXXX.",
".XXX..OXXXO..XXXXXXXXXXXXXXXXXXXXXXXXXXXXXXXXXXXXXXXXXXXXXXXXXXXXXXXXXXXXXXXXX.",
".XXX..XXXXXOoXXXXXXXXXXXXXXXXXXXXXXXXXXXXXXXXXXXXXXXXXXXXXXXXXXXXXXXXXXXXXXXXX.",
".XXX..XXXXXXXXXXXXXXXXXXXXXXXXXXXXXXXXXXXXXXXXXXXXXXXXXXXXXXXXXXXXXXXXXXXXXXXX.",
".XXX..o....oXXXXXXXXXXXXXXXXXXXXXXXXXXXXXXXXXXXXXXXXXXXXXXXXXXXXXXXXXXXXXXXXXX.",
".XXX........oXXXXXXXXXXXXXXXXXXXXXXXXXXXXXXXXXXXXXXXXXXXXXXXXXXXXXXXXXXXXXXXXX.",
".XXX..OXXXO..XXXXXXXXXX+XXXXXXXXXXXXXXXXXXXXXXXXXXXXXXX+XXXXXXXXXXXXXXXXXXXXXX.",
".XXX..XXXXX..XXXXXXXXX@.@XXXXXXXXXXXXXXXXXXXXXXXXXXXXX@.@XXXXXXXXXXXXXXXXXXXXX.",
".XXX..XXXXX..XXXXXXXXX+.+XXXXXXXXXXXXXXXXXXXXXXXXXXXXX+.+XXXXXXXXXXXXXXXXXXXXX.",
".XXX..XXXXX..XXXXXXXX#...#XXXXXXXXXXXXXXXXXXXXXXXXXXX#...#XXXXXXXXXXXXXXXXXXXX.",
".XXX..OXXXO..XXXXXXX#.....#XXXXXXXXXXXXXXXXXXXXXXXXX#.....#XXXXXXXXXXXXXXXXXXX.",
".XXXo.......oXXXXXX#.......#XXXXXXXXXXXXXXXXXXXXXXX#.......#XXXXXXXXXXXXXXXXXX.",
".XXXXo.....oXXXXXX#.........#XXXXXXXXXXXXXXXXXXXXX#.........#XXXXXXXXXXXXXXXXX.",
".XXXXXXXXXXXXXXXX+...........+XXXXXXXXXXXXXXXXXXX+...........+XXXXXXXXXXXXXXXX.",
".XXXXXXXXXXXXXX@O.............O@XXXXXXXXXXXXXXX@O.............O@XXXXXXXXXXXXXX.",
".XXXXXXX@XXXXXX$...............$XXXXXXXXXXXXXXX$...............$XXXXXXXXXXXXXX.",
".XXXXXXX+XXXXX#.................#XXXXXXXXXXXXX#.................#XXXXXXXXXXXXX.",
".XXXXXX%.%XXXX%.................%XXXXXXXXXXXXX%.................%XXXXXXXXXXXXX.",
".XXXXX%...%XXX%.......#.#.......%XXXXXXXXXXXXX%.......#.#.......%XXXXXXXXXXXXX.",
".XXXX%.....%XX@......oX.Xo......@XXXXXXXXXXXXX@......oX.Xo......@XXXXXXXXXXXXX.",
".XXX+.......+XXo$...#Xo.oX#...$oXXXXXXXXXXXXXXXo$...#Xo.oX#...$oXXXXXXXXXXXXXX.",
".XXX....$....XXXXoo@XX#.#XX@ooXXXXXXXXXXXXXXXXXXXoo@XX#.#XX@ooXXXXXXXXXXXXXXXX.",
".XXXO..#%#..O&&&&&&&&&+.+XXXXXXXXXXXXXXXXXXXXXXXXXXXXX+.+XXXXXXXXX&&&&&XXXXXXX.",
".XXXX#oX$&o#&&&&&&&&&&$.$XXXXXXXXXXXXXXXXXXXXXXXXXXXXX$.$XXXXXXXXX&&&&&XXXXXXX.",
".XXXXXX@.@&&&&&&&&&&&@...@XXXXXXXXXXXXXXXXXXXXXXXXXXX@...@XXXXXXX&&&&&XXXXXXXX.",
".XXXXXXo%o&&&&&&&&&&&#O%O#XXXXXXXXXXXXXXXXXXXXXXXXXXX#O%O#XXXXXX&&&&&XXXXXXXXX.",
".XXXXXXXXX&&&&&&&&&&&&&&&&XXXXXXXXXXXXXXXXXXXXXXXXXXXXXXXXXXXXX&&&&&XXXXXXXXXX.",
".XXXXXXXXXX&&&&&&&&&&&&&&&&XXXXXXXXXXXXXXXXXXXXXXXXXXXXXXXXXXX&&&&&XXXXXXXXXXX.",
".XXXXXXXXXXX&&&&&&&&&&&&&&&&XXXXXXXXXXXXXXXXXXXXXXXXXXXXXXXXXX&&&&&XXXXXXXXXXX.",
".XXXXXXXXXXXX&&&&&&&&&&&&&&&&XXXXXXXXXXXXXXXXXXXXXXXXXXXXXXXX&&&&&XXXXXXXXXXXX.",
".XXXXXXXXXXXX&&&&&&&&&&&&&&&&XXXXXXXXXXXXXXXXXXXXXXXXXXXXXXX&&&&&XXXXXXXXXXXXX.",
".XXXXXXXXXXXXX&&&&&&&&&&&&&&&&XXXXXXXXXXXXXXXXXXXXXXXXXXXXX&&&&&XXXXXXXXXXXXXX.",
".XXXXXXXXXXXXXX&&&&&&&&&&&&&&&&XXXXXXXXXXXXXXXXXXXXXXXXXXX&&&&&XXXXXXXXXXXXXXX.",
".XXXXXXXXXXXXXXX&&&&&&&&&&&&&&&&XXXXXXXXXXXXXXXXXXXXXXXXXX&&&&&XXXXXXXXXXXXXXX.",
".XXXXXXXXXXXXXXX&&&&&&&&&&&&&&&&XXXXXXXXXXXXXXXXXXXXXXXXX&&&&&XXXXXXXXXXXXXXXX.",
".XXXXXXXXXXXXXXXX&&&&&&&&&&&&&&&&XXXXXXXXXXXXXXXXXXXXXXX&&&&&XXXXXXXXXXXXXXXXX.",
".XXXXXXXXXXXXXXXXX&&&&&&&&&&&&&&&&XXXXXXXXXXXXXXXXXXXXX&&&&&XXXXXXXXXXXXXXXXXX.",
".XXXXXXXXXXXXXXXXXX&&&&&&&&&&&&&&&&XXXXXXXXXXXXXXXXXXX&&&&&XXXXXXXXXXXXXXXXXXX.",
".XXXXXXXXXXXXXXXXXX&&&&&&&&&&&&&&&&XXXXXXXXXXXXXXXXXX&&&&&XXXXXXXXXXXXXXXXXXXX.",
".XXXXXXXXXXXXXXXXXXX&&&&&&&&&&&&&&&&XXXXXXXXXXXXXXXXX&&&&&XXXXXXXXXXXXXXXXXXXX.",
".XXXXXXXXXXXXXXXXXXXX&&&&&&&&&&&&&&&&XXXXXXXXXXXXXXX&&&&&XXXXXXXXXXXXXXXXXXXXX.",
".XXXXXXXXXXXXXXXXXXXXX&&&&&&&&&&&&&&&&XXXXXXXXXXXXX&&&&&XXXXXXXXXXXXXXXXXXXXXX.",
".XXXXXXXXXXXXXXXXXXXXX&&&&&&&&&&&&&&&&XXXXXXXXXXXX&&&&&XXXXXXXXXXXXXXXXXXXXXXX.",
".XXXXXXXXXXXXXXXXXXXXXX&&&&&&&&&&&&&&&&XXXXXXXXXX&&&&&XXXXXXXXXXXXXXXXXXXXXXXX.",
".XXXXXXXXXXXXXXXXXXXXXXX&&&&&&&&&&&&&&&&XXXXXXXXX&&&&&XXXXXXXXXXXXXXXXXXXXXXXX.",
".XXXXXXXXXXXXXXXXXXXXXX+X&&&&&&&&&&&&&&&&XXXXXXX&&&&&XX+XXXXXXXXXXXXXXXXXXXXXX.",
".XXXXXXXXXXXXXXXXXXXXX@.@&&&&&&&&&&&&&&&&XXXXXX&&&&&XX@.@XXXXXXXXXXXXXXXXXXXXX.",
".XXXXXXXXXXXXXXXXXXXXX+.+X&&&&&&&&&&&&&&&&XXXX&&&&&XXX+.+XXXXXXXXXXXXXXXXXXXXX.",
".XXXXXXXXXXXXXXXXXXXX#...#X&&&&&&&&&&&&&&&&XX&&&&&XXX#...#XXXXXXXXXXXXXXXXXXXX.",
".XXXXXXXXXXXXXXXXXXX#.....#X&&&&&&&&&&&&&&&XX&&&&&XX#.....#XXXXXXXXXXXXXXXXXXX.",
".XXXXXXXXXXXXXXXXXX#.......#&&&&&&&&&&&&&&XX&&&&&XX#.......#XXXXXXXXXXXXXXXXXX.",
".XXXXXXXXXXXXXXXXX#.........#&&&&&&&&&&&&XX&&&&&XX#.........#XXXXXXXXXXXXXXXXX.",
".XXXXXXXXXXXXXXXX+...........+&&&&&&&&&&XX&&&&&XX+...........+XXXXXXXXXXXXXXXX.",
".XXXXXXXXXXXXXX@O.............O@&&&&&&&XX&&&&&&@O.............O@XXXXXXXXXXXXXX.",
".XXXXXXXXXXXXXX$...............$&&&&&&XX&&&&&&&$...............$XXXXXXXXXXXXXX.",
".XXXXXXXXXXXXX#.................#&&&&&XX&&&&&&#.................#XXXXXXXXXXXXX.",
".XXXXXXXXXXXXX%.................%&&&&XX&&&&&&&%.................%XXXXXXXXXXXXX.",
".XXXXXXXXXXXXX%.......#.#.......%&&&XX&&&&&&&&%.......#.#.......%XXXXXXXXXXXXX.",
".XXXXXXXXXXXXX@......oX.Xo......@&&XX&&&&&&&&&@......oX.Xo......@XXXXXXXXXXXXX.",
".XXXXXXXXXXXXXXo$...#Xo.oX#...$o&&XX&&&&&&&&&&&o$...#Xo.oX#...$oXXXXXXXXXXXXXX.",
".XXXXXXXXXXXXXXXXoo@XX#.#XX@oo&&&&XX&&&&&&&&&&&&&oo@XX#.#XX@ooXXXXXXXXXXXXXXXX.",
".XXXXXXXXXXXXXXXXXXXXX+.+XXX&&&&&XXXX&&&&&&&&&&&&&&&&X+.+XXXXXXXXXXXXXXXXXXXXX.",
".XXXXXXXXXXXXXXXXXXXXX$.$XX&&&&&XXXXX&&&&&&&&&&&&&&&&X$.$XXXXXXXXXXXXXXXXXXXXX.",
".XXXXXXXXXXXXXXXXXXXX@...@&&&&&XXXXXXX&&&&&&&&&&&&&&&@...@XXXXXXXXXXXXXXXXXXXX.",
".XXXXXXXXXXXXXXXXXXXX#O%O#&&&&XXXXXXXXX&&&&&&&&&&&&&&#O%O#XXXXXXXXXXXXXXXXXXXX.",
".XXXXXXXXXXXXXXXXXXXXXXXX&&&&&XXXXXXXXXX&&&&&&&&&&&&&&&&XXXXXXXXXXXXXXXXXXXXXX.",
".XXXXXXXXXXXXXXXXXXXXXXX&&&&&XXXXXXXXXXX&&&&&&&&&&&&&&&&XXXXXXXXXXXXXXXXXXXXXX.",
".XXXXXXXXXXXXXXXXXXXXXX&&&&&XXXXXXXXXXXXX&&&&&&&&&&&&&&&&XXXXXXXXXXXXXXXXXXXXX.",
".XXXXXXXXXXXXXXXXXXXXX&&&&&XXXXXXXXXXXXXXX&&&&&&&&&&&&&&&&XXXXXXXXXXXXXXXXXXXX.",
".XXXXXXXXXXXXXXXXXXXX&&&&&XXXXXXXXXXXXXXXXX&&&&&&&&&&&&&&&&XXXXXXXXXXXXXXXXXXX.",
".XXXXXXXXXXXXXXXXXXX&&&&&XXXXXXXXXXXXXXXXXX&&&&&&&&&&&&&&&&XXXXXXXXXXXXXXXXXXX.",
".XXXXXXXXXXXXXXXXXXX&&&&&XXXXXXXXXXXXXXXXXXX&&&&&&&&&&&&&&&&XXXXXXXXXXXXXXXXXX.",
".XXXXXXXXXXXXXXXXXX&&&&&XXXXXXXXXXXXXXXXXXXXX&&&&&&&&&&&&&&&&XXXXXXXXXXXXXXXXX.",
".XXXXXXXXXXXXXXXXX&&&&&XXXXXXXXXXXXXXXXXXXXXXX&&&&&&&&&&&&&&&&XXXXXXXXXXXXXXXX.",
".XXXXXXXXXXXXXXXX&&&&&XXXXXXXXXXXXXXXXXXXXXXXX&&&&&&&&&&&&&&&&XXXXXXXXXXXXXXXX.",
".XXXXXXXXXXXXXXX&&&&&XXXXXXXXXXXXXXXXXXXXXXXXXX&&&&&&&&&&&&&&&&XXXXXXXXXXXXXXX.",
".XXXXXXXXXXXXXXX&&&&&XXXXXXXXXXXXXXXXXXXXXXXXXXX&&&&&&&&&&&&&&&&XXXXXXXXXXXXXX.",
".XXXXXXXXXXXXXX&&&&&XXXXXXXXXXXXXXXXXXXXXXXXXXXXX&&&&&&&&&&&&&&&&XXXXXXXXXXXXX.",
".XXXXXXXXXXXXX&&&&&XXXXXXXXXXXXXXXXXXXXXXXXXXXXXX&&&&&&&&&&&&&&&&XXXXXXXXXXXXX.",
".XXXXXXXXXXXX&&&&&XXXXXXXXXXXXXXXXXXXXXXXXXXXXXXXX&&&&&&&&&&&&&&&&XXXXXXXXXXXX.",
".XXXXXXXXXXX&&&&&XXXXXXXXXXXXXXXXXXXXXXXXXXXXXXXXXX&&&&&&&&&&&&&&&&XXXXXXXXXXX.",
".XXXXXXXXXXX&&&&&XXXXXXXXXXXXXXXXXXXXXXXXXXXXXXXXXXX&&&&&&&&&&&&&&&&XXXXXXXXXX.",
".XXXXXXXXXX&&&&&XXXXXXXXXXXXXXXXXXXXXXXXXXXXXXXXXXXX&&&&&&&&&&&&&&&&XXXXXXXXXX.",
".XXXXXXXXX&&&&&XXXXXX#O%O#XXXXXXXXXXXXXXXXXXXXXXXXXXX#O%O#&&&&&&&&&&&o%oXXXXXX.",
".XXXXXXXX&&&&&XXXXXXX@...@XXXXXXXXXXXXXXXXXXXXXXXXXXX@...@&&&&&&&&&&&@.@XXXXXX.",
".XXXXXXX&&&&&XXXXXXXXX$.$XXXXXXXXXXXXXXXXXXXXXXXXXXXXX$.$&&&&&&&&&&#o&$Xo#XXXX.",
".XXXXXXXXXXXXXXXXXXXXX+.+XXXXXXXXXXXXXXXXXXXXXXXXXXXXX+.+XXXXXXXXXO..#%#..OXXX.",
".XXXXXXXXXXXXXXXXoo@XX#.#XX@ooXXXXXXXXXXXXXXXXXXXoo@XX#.#XX@ooXXXX....$....XXX.",
".XXXXXXXXXXXXXXo$...#Xo.oX#...$oXXXXXXXXXXXXXXXo$...#Xo.oX#...$oXX+.......+XXX.",
".XXXXXXXXXXXXX@......oX.Xo......@XXXXXXXXXXXXX@......oX.Xo......@XX%.....%XXXX.",
".XXXXXXXXXXXXX%.......#.#.......%XXXXXXXXXXXXX%.......#.#.......%XXX%...%XXXXX.",
".XXXXXXXXXXXXX%.................%XXXXXXXXXXXXX%.................%XXXX%.%XXXXXX.",
".XXXXXXXXXXXXX#.................#XXXXXXXXXXXXX#.................#XXXXX+XXXXXXX.",
".XXXXXXXXXXXXXX$...............$XXXXXXXXXXXXXXX$...............$XXXXXX@XXXXXXX.",
".XXXXXXXXXXXXXX@O.............O@XXXXXXXXXXXXXXX@O.............O@XXXXXXXXXXXXXX.",
".XXXXXXXXXXXXXXXX+...........+XXXXXXXXXXXXXXXXXXX+...........+XXXXXXXXXXXXXXXX.",
".XXXXXXXXXXXXXXXXX#.........#XXXXXXXXXXXXXXXXXXXXX#.........#XXXXXXo.....oXXXX.",
".XXXXXXXXXXXXXXXXXX#.......#XXXXXXXXXXXXXXXXXXXXXXX#.......#XXXXXXo.......oXXX.",
".XXXXXXXXXXXXXXXXXXX#.....#XXXXXXXXXXXXXXXXXXXXXXXXX#.....#XXXXXXX..OXXXO..XXX.",
".XXXXXXXXXXXXXXXXXXXX#...#XXXXXXXXXXXXXXXXXXXXXXXXXXX#...#XXXXXXXX..XXXXX..XXX.",
".XXXXXXXXXXXXXXXXXXXXX+.+XXXXXXXXXXXXXXXXXXXXXXXXXXXXX+.+XXXXXXXXX..XXXXX..XXX.",
".XXXXXXXXXXXXXXXXXXXXX@.@XXXXXXXXXXXXXXXXXXXXXXXXXXXXX@.@XXXXXXXXX..XXXXX..XXX.",
".XXXXXXXXXXXXXXXXXXXXXX+XXXXXXXXXXXXXXXXXXXXXXXXXXXXXXX+XXXXXXXXXX..OXXXO..XXX.",
".XXXXXXXXXXXXXXXXXXXXXXXXXXXXXXXXXXXXXXXXXXXXXXXXXXXXXXXXXXXXXXXXXo........XXX.",
".XXXXXXXXXXXXXXXXXXXXXXXXXXXXXXXXXXXXXXXXXXXXXXXXXXXXXXXXXXXXXXXXXXo....o..XXX.",
".XXXXXXXXXXXXXXXXXXXXXXXXXXXXXXXXXXXXXXXXXXXXXXXXXXXXXXXXXXXXXXXXXXXXXXXX..XXX.",
".XXXXXXXXXXXXXXXXXXXXXXXXXXXXXXXXXXXXXXXXXXXXXXXXXXXXXXXXXXXXXXXXXoOXXXXX..XXX.",
".XXXXXXXXXXXXXXXXXXXXXXXXXXXXXXXXXXXXXXXXXXXXXXXXXXXXXXXXXXXXXXXXX..OXXXO..XXX.",
".XXXXXXXXXXXXXXXXXXXXXXXXXXXXXXXXXXXXXXXXXXXXXXXXXXXXXXXXXXXXXXXXXo.......oXXX.",
" .XXXXXXXXXXXXXXXXXXXXXXXXXXXXXXXXXXXXXXXXXXXXXXXXXXXXXXXXXXXXXXXXXo.....oXXX. ",
" .XXXXXXXXXXXXXXXXXXXXXXXXXXXXXXXXXXXXXXXXXXXXXXXXXXXXXXXXXXXXXXXXXXXXXXXXXXX. ",
"  .XXXXXXXXXXXXXXXXXXXXXXXXXXXXXXXXXXXXXXXXXXXXXXXXXXXXXXXXXXXXXXXXXXXXXXXXX.  ",
"  .XXXXXXXXXXXXXXXXXXXXXXXXXXXXXXXXXXXXXXXXXXXXXXXXXXXXXXXXXXXXXXXXXXXXXXXXX.  ",
"   ..XXXXXXXXXXXXXXXXXXXXXXXXXXXXXXXXXXXXXXXXXXXXXXXXXXXXXXXXXXXXXXXXXXXXX..   ",
"     ..XXXXXXXXXXXXXXXXXXXXXXXXXXXXXXXXXXXXXXXXXXXXXXXXXXXXXXXXXXXXXXXXX..     ",
"       .................................................................       "};
