/* XPM */
static char * Six_Clubs_xpm[] = {
"79 123 11 1",
" 	c None",
".	c #000000000000",
"X	c #FFFFFFFFFFFF",
"o	c #BEFBBEFBBEFB",
"O	c #38E33CF338E3",
"+	c #79E77DF779E7",
"@	c #18611C711861",
"#	c #DF7DDF7DDF7D",
"$	c #9E799E799E79",
"%	c #D75CD75CD75C",
"&	c #59655D755965",
"       .................................................................       ",
"     ..XXXXXXXXXXXXXXXXXXXXXXXXXXXXXXXXXXXXXXXXXXXXXXXXXXXXXXXXXXXXXXXXX..     ",
"   ..XXXXXXXXXXXXXXXXXXXXXXXXXXXXXXXXXXXXXXXXXXXXXXXXXXXXXXXXXXXXXXXXXXXXX..   ",
"  .XXXXXXXXXXXXXXXXXXXXXXXXXXXXXXXXXXXXXXXXXXXXXXXXXXXXXXXXXXXXXXXXXXXXXXXXX.  ",
"  .XXXXXXXXXXXXXXXXXXXXXXXXXXXXXXXXXXXXXXXXXXXXXXXXXXXXXXXXXXXXXXXXXXXXXXXXX.  ",
" .XXXXXXXXXXXXXXXXXXXXXXXXXXXXXXXXXXXXXXXXXXXXXXXXXXXXXXXXXXXXXXXXXXXXXXXXXXX. ",
" .XXXo.....oXXXXXXXXXXXXXXXXXXXXXXXXXXXXXXXXXXXXXXXXXXXXXXXXXXXXXXXXXXXXXXXXX. ",
".XXXo.......oXXXXXXXXXXXXXXXXXXXXXXXXXXXXXXXXXXXXXXXXXXXXXXXXXXXXXXXXXXXXXXXXX.",
".XXX..OXXXO..XXXXXXXXXXXXXXXXXXXXXXXXXXXXXXXXXXXXXXXXXXXXXXXXXXXXXXXXXXXXXXXXX.",
".XXX..XXXXXOoXXXXXXXXXXXXXXXXXXXXXXXXXXXXXXXXXXXXXXXXXXXXXXXXXXXXXXXXXXXXXXXXX.",
".XXX..XXXXXXXXXXXXXXXXXXXXXXXXXXXXXXXXXXXXXXXXXXXXXXXXXXXXXXXXXXXXXXXXXXXXXXXX.",
".XXX..o....oXXXXXXXXXXXXXXXXXXXXXXXXXXXXXXXXXXXXXXXXXXXXXXXXXXXXXXXXXXXXXXXXXX.",
".XXX........oXXXXXXXXXXXXXXXXXXXXXXXXXXXXXXXXXXXXXXXXXXXXXXXXXXXXXXXXXXXXXXXXX.",
".XXX..OXXXO..XXXXXXXXXXXXXXXXXXXXXXXXXXXXXXXXXXXXXXXXXXXXXXXXXXXXXXXXXXXXXXXXX.",
".XXX..XXXXX..XXXXXXXXXXXXXXXXXXXXXXXXXXXXXXXXXXXXXXXXXXXXXXXXXXXXXXXXXXXXXXXXX.",
".XXX..XXXXX..XXXXXXXX+@.@+XXXXXXXXXXXXXXXXXXXXXXXXXXX+@.@+XXXXXXXXXXXXXXXXXXXX.",
".XXX..XXXXX..XXXXXXX+.....+XXXXXXXXXXXXXXXXXXXXXXXXX+.....+XXXXXXXXXXXXXXXXXXX.",
".XXX..OXXXO..XXXXXX#.......#XXXXXXXXXXXXXXXXXXXXXXX#.......#XXXXXXXXXXXXXXXXXX.",
".XXXo.......oXXXXXXo.......oXXXXXXXXXXXXXXXXXXXXXXXo.......oXXXXXXXXXXXXXXXXXX.",
".XXXXo.....oXXXXXXX#.......#XXXXXXXXXXXXXXXXXXXXXXX#.......#XXXXXXXXXXXXXXXXXX.",
".XXXXXXXXXXXXXXX#o#XO.....OX#o#XXXXXXXXXXXXXXXXX#o#XO.....OX#o#XXXXXXXXXXXXXXX.",
".XXXXXXXXXXXXXX+...O#@...@#O...+XXXXXXXXXXXXXXX+...O#@...@#O...+XXXXXXXXXXXXXX.",
".XXXXXXXXXXXXX+.....@#@.@#@.....+XXXXXXXXXXXXX+.....@#@.@#@.....+XXXXXXXXXXXXX.",
".XXXXXXXoXXXXX@......@#.#@......@XXXXXXXXXXXXX@......@#.#@......@XXXXXXXXXXXXX.",
".XXXXX#@.@#XXX...................XXXXXXXXXXXXX...................XXXXXXXXXXXXX.",
".XXXXX$...$XXX@......@#.#@......@XXXXXXXXXXXXX@......@#.#@......@XXXXXXXXXXXXX.",
".XXX#$o...o$#X+.....@#X.X#@.....+XXXXXXXXXXXXX+.....@#X.X#@.....+XXXXXXXXXXXXX.",
".XXX@..+@+..@XX+...O#XX.XX#O...+XXXXXXXXXXXXXXX+...O#XX.XX#O...+XXXXXXXXXXXXXX.",
".XXo...@O@...oXX#o#XXX#.#XXX#o#XXXXXXXXXXXXXXXXX#o#XXX#.#XXX#o#XXXXXXXXXXXXXXX.",
".XXX@..o+o..@%%%%%%%%%o.oXXXXXXXXXXXXXXXXXXXXXXXXXXXXXo.oXXXXXXXXX%%%%%XXXXXXX.",
".XXX#$#X&%#$#%%%%%%%%%&.&XXXXXXXXXXXXXXXXXXXXXXXXXXXXX&.&XXXXXXXXX%%%%%XXXXXXX.",
".XXXXXXX.%%%%%%%%%%%%%@.@XXXXXXXXXXXXXXXXXXXXXXXXXXXXX@.@XXXXXXXX%%%%%XXXXXXXX.",
".XXXXXXo+o%%%%%%%%%%%$O+O$XXXXXXXXXXXXXXXXXXXXXXXXXXX$O+O$XXXXXX%%%%%XXXXXXXXX.",
".XXXXXXXXX%%%%%%%%%%%%%%%%XXXXXXXXXXXXXXXXXXXXXXXXXXXXXXXXXXXXX%%%%%XXXXXXXXXX.",
".XXXXXXXXXX%%%%%%%%%%%%%%%%XXXXXXXXXXXXXXXXXXXXXXXXXXXXXXXXXXX%%%%%XXXXXXXXXXX.",
".XXXXXXXXXXX%%%%%%%%%%%%%%%%XXXXXXXXXXXXXXXXXXXXXXXXXXXXXXXXXX%%%%%XXXXXXXXXXX.",
".XXXXXXXXXXXX%%%%%%%%%%%%%%%%XXXXXXXXXXXXXXXXXXXXXXXXXXXXXXXX%%%%%XXXXXXXXXXXX.",
".XXXXXXXXXXXX%%%%%%%%%%%%%%%%XXXXXXXXXXXXXXXXXXXXXXXXXXXXXXX%%%%%XXXXXXXXXXXXX.",
".XXXXXXXXXXXXX%%%%%%%%%%%%%%%%XXXXXXXXXXXXXXXXXXXXXXXXXXXXX%%%%%XXXXXXXXXXXXXX.",
".XXXXXXXXXXXXXX%%%%%%%%%%%%%%%%XXXXXXXXXXXXXXXXXXXXXXXXXXX%%%%%XXXXXXXXXXXXXXX.",
".XXXXXXXXXXXXXXX%%%%%%%%%%%%%%%%XXXXXXXXXXXXXXXXXXXXXXXXXX%%%%%XXXXXXXXXXXXXXX.",
".XXXXXXXXXXXXXXX%%%%%%%%%%%%%%%%XXXXXXXXXXXXXXXXXXXXXXXXX%%%%%XXXXXXXXXXXXXXXX.",
".XXXXXXXXXXXXXXXX%%%%%%%%%%%%%%%%XXXXXXXXXXXXXXXXXXXXXXX%%%%%XXXXXXXXXXXXXXXXX.",
".XXXXXXXXXXXXXXXXX%%%%%%%%%%%%%%%%XXXXXXXXXXXXXXXXXXXXX%%%%%XXXXXXXXXXXXXXXXXX.",
".XXXXXXXXXXXXXXXXXX%%%%%%%%%%%%%%%%XXXXXXXXXXXXXXXXXXX%%%%%XXXXXXXXXXXXXXXXXXX.",
".XXXXXXXXXXXXXXXXXX%%%%%%%%%%%%%%%%XXXXXXXXXXXXXXXXXX%%%%%XXXXXXXXXXXXXXXXXXXX.",
".XXXXXXXXXXXXXXXXXXX%%%%%%%%%%%%%%%%XXXXXXXXXXXXXXXXX%%%%%XXXXXXXXXXXXXXXXXXXX.",
".XXXXXXXXXXXXXXXXXXXX%%%%%%%%%%%%%%%%XXXXXXXXXXXXXXX%%%%%XXXXXXXXXXXXXXXXXXXXX.",
".XXXXXXXXXXXXXXXXXXXXX%%%%%%%%%%%%%%%%XXXXXXXXXXXXX%%%%%XXXXXXXXXXXXXXXXXXXXXX.",
".XXXXXXXXXXXXXXXXXXXXX%%%%%%%%%%%%%%%%XXXXXXXXXXXX%%%%%XXXXXXXXXXXXXXXXXXXXXXX.",
".XXXXXXXXXXXXXXXXXXXXXX%%%%%%%%%%%%%%%%XXXXXXXXXX%%%%%XXXXXXXXXXXXXXXXXXXXXXXX.",
".XXXXXXXXXXXXXXXXXXXXXXX%%%%%%%%%%%%%%%%XXXXXXXXX%%%%%XXXXXXXXXXXXXXXXXXXXXXXX.",
".XXXXXXXXXXXXXXXXXXXXXXXX%%%%%%%%%%%%%%%%XXXXXXX%%%%%XXXXXXXXXXXXXXXXXXXXXXXXX.",
".XXXXXXXXXXXXXXXXXXXXXXXX%%%%%%%%%%%%%%%%XXXXXX%%%%%XXXXXXXXXXXXXXXXXXXXXXXXXX.",
".XXXXXXXXXXXXXXXXXXXX+@.@+%%%%%%%%%%%%%%%%XXXX%%%%%XX+@.@+XXXXXXXXXXXXXXXXXXXX.",
".XXXXXXXXXXXXXXXXXXX+.....+%%%%%%%%%%%%%%%%XX%%%%%XX+.....+XXXXXXXXXXXXXXXXXXX.",
".XXXXXXXXXXXXXXXXXX#.......#%%%%%%%%%%%%%%%XX%%%%%X#.......#XXXXXXXXXXXXXXXXXX.",
".XXXXXXXXXXXXXXXXXXo.......o%%%%%%%%%%%%%%XX%%%%%XXo.......oXXXXXXXXXXXXXXXXXX.",
".XXXXXXXXXXXXXXXXXX#.......#X%%%%%%%%%%%%XX%%%%%XXX#.......#XXXXXXXXXXXXXXXXXX.",
".XXXXXXXXXXXXXXX#o#XO.....OX#o#%%%%%%%%%XX%%%%%X#o#XO.....OX#o#XXXXXXXXXXXXXXX.",
".XXXXXXXXXXXXXX+...O#@...@#O...+%%%%%%%XX%%%%%%+...O#@...@#O...+XXXXXXXXXXXXXX.",
".XXXXXXXXXXXXX+.....@#@.@#@.....+%%%%%XX%%%%%%+.....@#@.@#@.....+XXXXXXXXXXXXX.",
".XXXXXXXXXXXXX@......@#.#@......@%%%%%XX%%%%%%@......@#.#@......@XXXXXXXXXXXXX.",
".XXXXXXXXXXXXX...................%%%%XX%%%%%%%...................XXXXXXXXXXXXX.",
".XXXXXXXXXXXXX@......@#.#@......@%%%XX%%%%%%%%@......@#.#@......@XXXXXXXXXXXXX.",
".XXXXXXXXXXXXX+.....@#X.X#@.....+%%XX%%%%%%%%%+.....@#X.X#@.....+XXXXXXXXXXXXX.",
".XXXXXXXXXXXXXX+...O#XX.XX#O...+%%XX%%%%%%%%%%%+...O#XX.XX#O...+XXXXXXXXXXXXXX.",
".XXXXXXXXXXXXXXX#o#XXX#.#XXX#o#%%%XX%%%%%%%%%%%%#o#%XX#.#XXX#o#XXXXXXXXXXXXXXX.",
".XXXXXXXXXXXXXXXXXXXXXo.oXXX%%%%%XXXX%%%%%%%%%%%%%%%%Xo.oXXXXXXXXXXXXXXXXXXXXX.",
".XXXXXXXXXXXXXXXXXXXXX&.&XX%%%%%XXXXX%%%%%%%%%%%%%%%%X&.&XXXXXXXXXXXXXXXXXXXXX.",
".XXXXXXXXXXXXXXXXXXXXX@.@X%%%%%XXXXXXX%%%%%%%%%%%%%%%%@.@XXXXXXXXXXXXXXXXXXXXX.",
".XXXXXXXXXXXXXXXXXXXX$O+O$%%%%XXXXXXXXX%%%%%%%%%%%%%%$O+O$XXXXXXXXXXXXXXXXXXXX.",
".XXXXXXXXXXXXXXXXXXXXXXXX%%%%%XXXXXXXXXX%%%%%%%%%%%%%%%%XXXXXXXXXXXXXXXXXXXXXX.",
".XXXXXXXXXXXXXXXXXXXXXXX%%%%%XXXXXXXXXXX%%%%%%%%%%%%%%%%XXXXXXXXXXXXXXXXXXXXXX.",
".XXXXXXXXXXXXXXXXXXXXXX%%%%%XXXXXXXXXXXXX%%%%%%%%%%%%%%%%XXXXXXXXXXXXXXXXXXXXX.",
".XXXXXXXXXXXXXXXXXXXXX%%%%%XXXXXXXXXXXXXXX%%%%%%%%%%%%%%%%XXXXXXXXXXXXXXXXXXXX.",
".XXXXXXXXXXXXXXXXXXXX%%%%%XXXXXXXXXXXXXXXXX%%%%%%%%%%%%%%%%XXXXXXXXXXXXXXXXXXX.",
".XXXXXXXXXXXXXXXXXXX%%%%%XXXXXXXXXXXXXXXXXX%%%%%%%%%%%%%%%%XXXXXXXXXXXXXXXXXXX.",
".XXXXXXXXXXXXXXXXXXX%%%%%XXXXXXXXXXXXXXXXXXX%%%%%%%%%%%%%%%%XXXXXXXXXXXXXXXXXX.",
".XXXXXXXXXXXXXXXXXX%%%%%XXXXXXXXXXXXXXXXXXXXX%%%%%%%%%%%%%%%%XXXXXXXXXXXXXXXXX.",
".XXXXXXXXXXXXXXXXX%%%%%XXXXXXXXXXXXXXXXXXXXXXX%%%%%%%%%%%%%%%%XXXXXXXXXXXXXXXX.",
".XXXXXXXXXXXXXXXX%%%%%XXXXXXXXXXXXXXXXXXXXXXXX%%%%%%%%%%%%%%%%XXXXXXXXXXXXXXXX.",
".XXXXXXXXXXXXXXX%%%%%XXXXXXXXXXXXXXXXXXXXXXXXXX%%%%%%%%%%%%%%%%XXXXXXXXXXXXXXX.",
".XXXXXXXXXXXXXXX%%%%%XXXXXXXXXXXXXXXXXXXXXXXXXXX%%%%%%%%%%%%%%%%XXXXXXXXXXXXXX.",
".XXXXXXXXXXXXXX%%%%%XXXXXXXXXXXXXXXXXXXXXXXXXXXXX%%%%%%%%%%%%%%%%XXXXXXXXXXXXX.",
".XXXXXXXXXXXXX%%%%%XXXXXXXXXXXXXXXXXXXXXXXXXXXXXX%%%%%%%%%%%%%%%%XXXXXXXXXXXXX.",
".XXXXXXXXXXXX%%%%%XXXXXXXXXXXXXXXXXXXXXXXXXXXXXXXX%%%%%%%%%%%%%%%%XXXXXXXXXXXX.",
".XXXXXXXXXXX%%%%%XXXXXXXXXXXXXXXXXXXXXXXXXXXXXXXXXX%%%%%%%%%%%%%%%%XXXXXXXXXXX.",
".XXXXXXXXXXX%%%%%XXXXXXXXXXXXXXXXXXXXXXXXXXXXXXXXXXX%%%%%%%%%%%%%%%%XXXXXXXXXX.",
".XXXXXXXXXX%%%%%XXXXXXXXXXXXXXXXXXXXXXXXXXXXXXXXXXXX%%%%%%%%%%%%%%%%XXXXXXXXXX.",
".XXXXXXXXX%%%%%XXXXXX$O+O$XXXXXXXXXXXXXXXXXXXXXXXXXXX$O+O$%%%%%%%%%%%o+oXXXXXX.",
".XXXXXXXX%%%%%XXXXXXXX@.@XXXXXXXXXXXXXXXXXXXXXXXXXXXXX@.@%%%%%%%%%%%%%.XXXXXXX.",
".XXXXXXX%%%%%XXXXXXXXX&.&XXXXXXXXXXXXXXXXXXXXXXXXXXXXX&.&%%%%%%%%%#$#%&X#$#XXX.",
".XXXXXXXXXXXXXXXXXXXXXo.oXXXXXXXXXXXXXXXXXXXXXXXXXXXXXo.oXXXXXXXXX@..o+o..@XXX.",
".XXXXXXXXXXXXXXX#o#XXX#.#XXX#o#XXXXXXXXXXXXXXXXX#o#XXX#.#XXX#o#XXo...@O@...oXX.",
".XXXXXXXXXXXXXX+...O#XX.XX#O...+XXXXXXXXXXXXXXX+...O#XX.XX#O...+XX@..+@+..@XXX.",
".XXXXXXXXXXXXX+.....@#X.X#@.....+XXXXXXXXXXXXX+.....@#X.X#@.....+X#$o...o$#XXX.",
".XXXXXXXXXXXXX@......@#.#@......@XXXXXXXXXXXXX@......@#.#@......@XXX$...$XXXXX.",
".XXXXXXXXXXXXX...................XXXXXXXXXXXXX...................XXX#@.@#XXXXX.",
".XXXXXXXXXXXXX@......@#.#@......@XXXXXXXXXXXXX@......@#.#@......@XXXXXoXXXXXXX.",
".XXXXXXXXXXXXX+.....@#@.@#@.....+XXXXXXXXXXXXX+.....@#@.@#@.....+XXXXXXXXXXXXX.",
".XXXXXXXXXXXXXX+...O#@...@#O...+XXXXXXXXXXXXXXX+...O#@...@#O...+XXXXXXXXXXXXXX.",
".XXXXXXXXXXXXXXX#o#XO.....OX#o#XXXXXXXXXXXXXXXXX#o#XO.....OX#o#XXXXXXXXXXXXXXX.",
".XXXXXXXXXXXXXXXXXX#.......#XXXXXXXXXXXXXXXXXXXXXXX#.......#XXXXXXXo.....oXXXX.",
".XXXXXXXXXXXXXXXXXXo.......oXXXXXXXXXXXXXXXXXXXXXXXo.......oXXXXXXo.......oXXX.",
".XXXXXXXXXXXXXXXXXX#.......#XXXXXXXXXXXXXXXXXXXXXXX#.......#XXXXXX..OXXXO..XXX.",
".XXXXXXXXXXXXXXXXXXX+.....+XXXXXXXXXXXXXXXXXXXXXXXXX+.....+XXXXXXX..XXXXX..XXX.",
".XXXXXXXXXXXXXXXXXXXX+@.@+XXXXXXXXXXXXXXXXXXXXXXXXXXX+@.@+XXXXXXXX..XXXXX..XXX.",
".XXXXXXXXXXXXXXXXXXXXXXXXXXXXXXXXXXXXXXXXXXXXXXXXXXXXXXXXXXXXXXXXX..XXXXX..XXX.",
".XXXXXXXXXXXXXXXXXXXXXXXXXXXXXXXXXXXXXXXXXXXXXXXXXXXXXXXXXXXXXXXXX..OXXXO..XXX.",
".XXXXXXXXXXXXXXXXXXXXXXXXXXXXXXXXXXXXXXXXXXXXXXXXXXXXXXXXXXXXXXXXXo........XXX.",
".XXXXXXXXXXXXXXXXXXXXXXXXXXXXXXXXXXXXXXXXXXXXXXXXXXXXXXXXXXXXXXXXXXo....o..XXX.",
".XXXXXXXXXXXXXXXXXXXXXXXXXXXXXXXXXXXXXXXXXXXXXXXXXXXXXXXXXXXXXXXXXXXXXXXX..XXX.",
".XXXXXXXXXXXXXXXXXXXXXXXXXXXXXXXXXXXXXXXXXXXXXXXXXXXXXXXXXXXXXXXXXoOXXXXX..XXX.",
".XXXXXXXXXXXXXXXXXXXXXXXXXXXXXXXXXXXXXXXXXXXXXXXXXXXXXXXXXXXXXXXXX..OXXXO..XXX.",
".XXXXXXXXXXXXXXXXXXXXXXXXXXXXXXXXXXXXXXXXXXXXXXXXXXXXXXXXXXXXXXXXXo.......oXXX.",
" .XXXXXXXXXXXXXXXXXXXXXXXXXXXXXXXXXXXXXXXXXXXXXXXXXXXXXXXXXXXXXXXXXo.....oXXX. ",
" .XXXXXXXXXXXXXXXXXXXXXXXXXXXXXXXXXXXXXXXXXXXXXXXXXXXXXXXXXXXXXXXXXXXXXXXXXXX. ",
"  .XXXXXXXXXXXXXXXXXXXXXXXXXXXXXXXXXXXXXXXXXXXXXXXXXXXXXXXXXXXXXXXXXXXXXXXXX.  ",
"  .XXXXXXXXXXXXXXXXXXXXXXXXXXXXXXXXXXXXXXXXXXXXXXXXXXXXXXXXXXXXXXXXXXXXXXXXX.  ",
"   ..XXXXXXXXXXXXXXXXXXXXXXXXXXXXXXXXXXXXXXXXXXXXXXXXXXXXXXXXXXXXXXXXXXXXX..   ",
"     ..XXXXXXXXXXXXXXXXXXXXXXXXXXXXXXXXXXXXXXXXXXXXXXXXXXXXXXXXXXXXXXXXX..     ",
"       .................................................................       "};
