/* XPM */
static char * Six_Diamonds_xpm[] = {
"79 123 12 1",
" 	c None",
".	c #000000000000",
"X	c #FFFFFFFFFFFF",
"o	c #F7DEBEFBBEFB",
"O	c #CF3C00000000",
"+	c #DF7D3CF338E3",
"@	c #E79D7DF779E7",
"#	c #EFBE9E799E79",
"$	c #FFFFDF7DDF7D",
"%	c #DF7D5D755965",
"&	c #D75C1C711861",
"*	c #D75CD75CD75C",
"       .................................................................       ",
"     ..XXXXXXXXXXXXXXXXXXXXXXXXXXXXXXXXXXXXXXXXXXXXXXXXXXXXXXXXXXXXXXXXX..     ",
"   ..XXXXXXXXXXXXXXXXXXXXXXXXXXXXXXXXXXXXXXXXXXXXXXXXXXXXXXXXXXXXXXXXXXXXX..   ",
"  .XXXXXXXXXXXXXXXXXXXXXXXXXXXXXXXXXXXXXXXXXXXXXXXXXXXXXXXXXXXXXXXXXXXXXXXXX.  ",
"  .XXXXXXXXXXXXXXXXXXXXXXXXXXXXXXXXXXXXXXXXXXXXXXXXXXXXXXXXXXXXXXXXXXXXXXXXX.  ",
" .XXXXXXXXXXXXXXXXXXXXXXXXXXXXXXXXXXXXXXXXXXXXXXXXXXXXXXXXXXXXXXXXXXXXXXXXXXX. ",
" .XXXoOOOOOoXXXXXXXXXXXXXXXXXXXXXXXXXXXXXXXXXXXXXXXXXXXXXXXXXXXXXXXXXXXXXXXXX. ",
".XXXoOOOOOOOoXXXXXXXXXXXXXXXXXXXXXXXXXXXXXXXXXXXXXXXXXXXXXXXXXXXXXXXXXXXXXXXXX.",
".XXXOO+XXX+OOXXXXXXXXXXXXXXXXXXXXXXXXXXXXXXXXXXXXXXXXXXXXXXXXXXXXXXXXXXXXXXXXX.",
".XXXOOXXXXX+oXXXXXXXXXXXXXXXXXXXXXXXXXXXXXXXXXXXXXXXXXXXXXXXXXXXXXXXXXXXXXXXXX.",
".XXXOOXXXXXXXXXXXXXXXXXXXXXXXXXXXXXXXXXXXXXXXXXXXXXXXXXXXXXXXXXXXXXXXXXXXXXXXX.",
".XXXOOoOOOOoXXXXXXXXXXXXXXXXXXXXXXXXXXXXXXXXXXXXXXXXXXXXXXXXXXXXXXXXXXXXXXXXXX.",
".XXXOOOOOOOOoXXXXXXXXXX@XXXXXXXXXXXXXXXXXXXXXXXXXXXXXXX@XXXXXXXXXXXXXXXXXXXXXX.",
".XXXOO+XXX+OOXXXXXXXXX#O#XXXXXXXXXXXXXXXXXXXXXXXXXXXXX#O#XXXXXXXXXXXXXXXXXXXXX.",
".XXXOOXXXXXOOXXXXXXXX$OOO$XXXXXXXXXXXXXXXXXXXXXXXXXXX$OOO$XXXXXXXXXXXXXXXXXXXX.",
".XXXOOXXXXXOOXXXXXXXX+OOO+XXXXXXXXXXXXXXXXXXXXXXXXXXX+OOO+XXXXXXXXXXXXXXXXXXXX.",
".XXXOOXXXXXOOXXXXXXX%OOOOO%XXXXXXXXXXXXXXXXXXXXXXXXX%OOOOO%XXXXXXXXXXXXXXXXXXX.",
".XXXOO+XXX+OOXXXXXX@OOOOOOO@XXXXXXXXXXXXXXXXXXXXXXX@OOOOOOO@XXXXXXXXXXXXXXXXXX.",
".XXXoOOOOOOOoXXXXX@OOOOOOOOO@XXXXXXXXXXXXXXXXXXXXX@OOOOOOOOO@XXXXXXXXXXXXXXXXX.",
".XXXXoOOOOOoXXXXX%OOOOOOOOOOO%XXXXXXXXXXXXXXXXXXX%OOOOOOOOOOO%XXXXXXXXXXXXXXXX.",
".XXXXXXXXXXXXXX$+OOOOOOOOOOOOO+$XXXXXXXXXXXXXXX$+OOOOOOOOOOOOO+$XXXXXXXXXXXXXX.",
".XXXXXXXXXXXXX#OOOOOOOOOOOOOOOOO#XXXXXXXXXXXXX#OOOOOOOOOOOOOOOOO#XXXXXXXXXXXXX.",
".XXXXXXX#XXXX@OOOOOOOOOOOOOOOOOOO@XXXXXXXXXXX@OOOOOOOOOOOOOOOOOOO@XXXXXXXXXXXX.",
".XXXXXXoOoXXXX#OOOOOOOOOOOOOOOOO#XXXXXXXXXXXXX#OOOOOOOOOOOOOOOOO#XXXXXXXXXXXXX.",
".XXXXX$&O&$XXXX$+OOOOOOOOOOOOO+$XXXXXXXXXXXXXXX$+OOOOOOOOOOOOO+$XXXXXXXXXXXXXX.",
".XXXX$&OOO&$XXXXX%OOOOOOOOOOO%XXXXXXXXXXXXXXXXXXX%OOOOOOOOOOO%XXXXXXXXXXXXXXXX.",
".XXXo&OOOOO&oXXXXX@OOOOOOOOO@XXXXXXXXXXXXXXXXXXXXX@OOOOOOOOO@XXXXXXXXXXXXXXXXX.",
".XX#OOOOOOOOO#XXXXX@OOOOOOO@XXXXXXXXXXXXXXXXXXXXXXX@OOOOOOO@XXXXXXXXXXXXXXXXXX.",
".XXXo&OOOOO&oXXXXXXX%OOOOO%XXXXXXXXXXXXXXXXXXXXXXXXX%OOOOO%XXXXXXXXXXXXXXXXXXX.",
".XXXX$&OOO&$*********+OOO+XXXXXXXXXXXXXXXXXXXXXXXXXXX+OOO+XXXXXXXX*****XXXXXXX.",
".XXXXX$&O&$**********$OOO$XXXXXXXXXXXXXXXXXXXXXXXXXXX$OOO$XXXXXXXX*****XXXXXXX.",
".XXXXXXoOo************#O#XXXXXXXXXXXXXXXXXXXXXXXXXXXXX#O#XXXXXXXX*****XXXXXXXX.",
".XXXXXXX#X*************@**XXXXXXXXXXXXXXXXXXXXXXXXXXXXX@XXXXXXXX*****XXXXXXXXX.",
".XXXXXXXXX****************XXXXXXXXXXXXXXXXXXXXXXXXXXXXXXXXXXXXX*****XXXXXXXXXX.",
".XXXXXXXXXX****************XXXXXXXXXXXXXXXXXXXXXXXXXXXXXXXXXXX*****XXXXXXXXXXX.",
".XXXXXXXXXXX****************XXXXXXXXXXXXXXXXXXXXXXXXXXXXXXXXXX*****XXXXXXXXXXX.",
".XXXXXXXXXXXX****************XXXXXXXXXXXXXXXXXXXXXXXXXXXXXXXX*****XXXXXXXXXXXX.",
".XXXXXXXXXXXX****************XXXXXXXXXXXXXXXXXXXXXXXXXXXXXXX*****XXXXXXXXXXXXX.",
".XXXXXXXXXXXXX****************XXXXXXXXXXXXXXXXXXXXXXXXXXXXX*****XXXXXXXXXXXXXX.",
".XXXXXXXXXXXXXX****************XXXXXXXXXXXXXXXXXXXXXXXXXXX*****XXXXXXXXXXXXXXX.",
".XXXXXXXXXXXXXXX****************XXXXXXXXXXXXXXXXXXXXXXXXXX*****XXXXXXXXXXXXXXX.",
".XXXXXXXXXXXXXXX****************XXXXXXXXXXXXXXXXXXXXXXXXX*****XXXXXXXXXXXXXXXX.",
".XXXXXXXXXXXXXXXX****************XXXXXXXXXXXXXXXXXXXXXXX*****XXXXXXXXXXXXXXXXX.",
".XXXXXXXXXXXXXXXXX****************XXXXXXXXXXXXXXXXXXXXX*****XXXXXXXXXXXXXXXXXX.",
".XXXXXXXXXXXXXXXXXX****************XXXXXXXXXXXXXXXXXXX*****XXXXXXXXXXXXXXXXXXX.",
".XXXXXXXXXXXXXXXXXX****************XXXXXXXXXXXXXXXXXX*****XXXXXXXXXXXXXXXXXXXX.",
".XXXXXXXXXXXXXXXXXXX****************XXXXXXXXXXXXXXXXX*****XXXXXXXXXXXXXXXXXXXX.",
".XXXXXXXXXXXXXXXXXXXX****************XXXXXXXXXXXXXXX*****XXXXXXXXXXXXXXXXXXXXX.",
".XXXXXXXXXXXXXXXXXXXXX****************XXXXXXXXXXXXX*****XXXXXXXXXXXXXXXXXXXXXX.",
".XXXXXXXXXXXXXXXXXXXXX****************XXXXXXXXXXXX*****XXXXXXXXXXXXXXXXXXXXXXX.",
".XXXXXXXXXXXXXXXXXXXXXX****************XXXXXXXXXX*****XXXXXXXXXXXXXXXXXXXXXXXX.",
".XXXXXXXXXXXXXXXXXXXXXX@****************XXXXXXXXX*****X@XXXXXXXXXXXXXXXXXXXXXX.",
".XXXXXXXXXXXXXXXXXXXXX#O#****************XXXXXXX*****X#O#XXXXXXXXXXXXXXXXXXXXX.",
".XXXXXXXXXXXXXXXXXXXX$OOO$***************XXXXXX*****X$OOO$XXXXXXXXXXXXXXXXXXXX.",
".XXXXXXXXXXXXXXXXXXXX+OOO+****************XXXX*****XX+OOO+XXXXXXXXXXXXXXXXXXXX.",
".XXXXXXXXXXXXXXXXXXX%OOOOO%****************XX*****XX%OOOOO%XXXXXXXXXXXXXXXXXXX.",
".XXXXXXXXXXXXXXXXXX@OOOOOOO@***************XX*****X@OOOOOOO@XXXXXXXXXXXXXXXXXX.",
".XXXXXXXXXXXXXXXXX@OOOOOOOOO@*************XX*****X@OOOOOOOOO@XXXXXXXXXXXXXXXXX.",
".XXXXXXXXXXXXXXXX%OOOOOOOOOOO%***********XX*****X%OOOOOOOOOOO%XXXXXXXXXXXXXXXX.",
".XXXXXXXXXXXXXX$+OOOOOOOOOOOOO+$********XX*****$+OOOOOOOOOOOOO+$XXXXXXXXXXXXXX.",
".XXXXXXXXXXXXX#OOOOOOOOOOOOOOOOO#******XX*****#OOOOOOOOOOOOOOOOO#XXXXXXXXXXXXX.",
".XXXXXXXXXXXX@OOOOOOOOOOOOOOOOOOO@****XX*****@OOOOOOOOOOOOOOOOOOO@XXXXXXXXXXXX.",
".XXXXXXXXXXXXX#OOOOOOOOOOOOOOOOO#*****XX******#OOOOOOOOOOOOOOOOO#XXXXXXXXXXXXX.",
".XXXXXXXXXXXXXX$+OOOOOOOOOOOOO+$*****XX********$+OOOOOOOOOOOOO+$XXXXXXXXXXXXXX.",
".XXXXXXXXXXXXXXXX%OOOOOOOOOOO%X*****XX***********%OOOOOOOOOOO%XXXXXXXXXXXXXXXX.",
".XXXXXXXXXXXXXXXXX@OOOOOOOOO@X*****XX*************@OOOOOOOOO@XXXXXXXXXXXXXXXXX.",
".XXXXXXXXXXXXXXXXXX@OOOOOOO@X*****XX***************@OOOOOOO@XXXXXXXXXXXXXXXXXX.",
".XXXXXXXXXXXXXXXXXXX%OOOOO%XX*****XX****************%OOOOO%XXXXXXXXXXXXXXXXXXX.",
".XXXXXXXXXXXXXXXXXXXX+OOO+XX*****XXXX****************+OOO+XXXXXXXXXXXXXXXXXXXX.",
".XXXXXXXXXXXXXXXXXXXX$OOO$X*****XXXXX****************$OOO$XXXXXXXXXXXXXXXXXXXX.",
".XXXXXXXXXXXXXXXXXXXXX#O#X*****XXXXXXX****************#O#XXXXXXXXXXXXXXXXXXXXX.",
".XXXXXXXXXXXXXXXXXXXXXX@X*****XXXXXXXXX****************@XXXXXXXXXXXXXXXXXXXXXX.",
".XXXXXXXXXXXXXXXXXXXXXXXX*****XXXXXXXXXX****************XXXXXXXXXXXXXXXXXXXXXX.",
".XXXXXXXXXXXXXXXXXXXXXXX*****XXXXXXXXXXX****************XXXXXXXXXXXXXXXXXXXXXX.",
".XXXXXXXXXXXXXXXXXXXXXX*****XXXXXXXXXXXXX****************XXXXXXXXXXXXXXXXXXXXX.",
".XXXXXXXXXXXXXXXXXXXXX*****XXXXXXXXXXXXXXX****************XXXXXXXXXXXXXXXXXXXX.",
".XXXXXXXXXXXXXXXXXXXX*****XXXXXXXXXXXXXXXXX****************XXXXXXXXXXXXXXXXXXX.",
".XXXXXXXXXXXXXXXXXXX*****XXXXXXXXXXXXXXXXXX****************XXXXXXXXXXXXXXXXXXX.",
".XXXXXXXXXXXXXXXXXXX*****XXXXXXXXXXXXXXXXXXX****************XXXXXXXXXXXXXXXXXX.",
".XXXXXXXXXXXXXXXXXX*****XXXXXXXXXXXXXXXXXXXXX****************XXXXXXXXXXXXXXXXX.",
".XXXXXXXXXXXXXXXXX*****XXXXXXXXXXXXXXXXXXXXXXX****************XXXXXXXXXXXXXXXX.",
".XXXXXXXXXXXXXXXX*****XXXXXXXXXXXXXXXXXXXXXXXX****************XXXXXXXXXXXXXXXX.",
".XXXXXXXXXXXXXXX*****XXXXXXXXXXXXXXXXXXXXXXXXXX****************XXXXXXXXXXXXXXX.",
".XXXXXXXXXXXXXXX*****XXXXXXXXXXXXXXXXXXXXXXXXXXX****************XXXXXXXXXXXXXX.",
".XXXXXXXXXXXXXX*****XXXXXXXXXXXXXXXXXXXXXXXXXXXXX****************XXXXXXXXXXXXX.",
".XXXXXXXXXXXXX*****XXXXXXXXXXXXXXXXXXXXXXXXXXXXXX****************XXXXXXXXXXXXX.",
".XXXXXXXXXXXX*****XXXXXXXXXXXXXXXXXXXXXXXXXXXXXXXX****************XXXXXXXXXXXX.",
".XXXXXXXXXXX*****XXXXXXXXXXXXXXXXXXXXXXXXXXXXXXXXXX****************XXXXXXXXXXX.",
".XXXXXXXXXXX*****XXXXXXXXXXXXXXXXXXXXXXXXXXXXXXXXXXX****************XXXXXXXXXX.",
".XXXXXXXXXX*****XXXXXXXXXXXXXXXXXXXXXXXXXXXXXXXXXXXX****************XXXXXXXXXX.",
".XXXXXXXXX*****XXXXXXXX@XXXXXXXXXXXXXXXXXXXXXXXXXXXXX**@*************X#XXXXXXX.",
".XXXXXXXX*****XXXXXXXX#O#XXXXXXXXXXXXXXXXXXXXXXXXXXXXX#O#************oOoXXXXXX.",
".XXXXXXX*****XXXXXXXX$OOO$XXXXXXXXXXXXXXXXXXXXXXXXXXX$OOO$**********$&O&$XXXXX.",
".XXXXXXXXXXXXXXXXXXXX+OOO+XXXXXXXXXXXXXXXXXXXXXXXXXXX+OOO+XXXXXXXXX$&OOO&$XXXX.",
".XXXXXXXXXXXXXXXXXXX%OOOOO%XXXXXXXXXXXXXXXXXXXXXXXXX%OOOOO%XXXXXXXo&OOOOO&oXXX.",
".XXXXXXXXXXXXXXXXXX@OOOOOOO@XXXXXXXXXXXXXXXXXXXXXXX@OOOOOOO@XXXXX#OOOOOOOOO#XX.",
".XXXXXXXXXXXXXXXXX@OOOOOOOOO@XXXXXXXXXXXXXXXXXXXXX@OOOOOOOOO@XXXXXo&OOOOO&oXXX.",
".XXXXXXXXXXXXXXXX%OOOOOOOOOOO%XXXXXXXXXXXXXXXXXXX%OOOOOOOOOOO%XXXXX$&OOO&$XXXX.",
".XXXXXXXXXXXXXX$+OOOOOOOOOOOOO+$XXXXXXXXXXXXXXX$+OOOOOOOOOOOOO+$XXXX$&O&$XXXXX.",
".XXXXXXXXXXXXX#OOOOOOOOOOOOOOOOO#XXXXXXXXXXXXX#OOOOOOOOOOOOOOOOO#XXXXoOoXXXXXX.",
".XXXXXXXXXXXX@OOOOOOOOOOOOOOOOOOO@XXXXXXXXXXX@OOOOOOOOOOOOOOOOOOO@XXXX#XXXXXXX.",
".XXXXXXXXXXXXX#OOOOOOOOOOOOOOOOO#XXXXXXXXXXXXX#OOOOOOOOOOOOOOOOO#XXXXXXXXXXXXX.",
".XXXXXXXXXXXXXX$+OOOOOOOOOOOOO+$XXXXXXXXXXXXXXX$+OOOOOOOOOOOOO+$XXXXXXXXXXXXXX.",
".XXXXXXXXXXXXXXXX%OOOOOOOOOOO%XXXXXXXXXXXXXXXXXXX%OOOOOOOOOOO%XXXXXoOOOOOoXXXX.",
".XXXXXXXXXXXXXXXXX@OOOOOOOOO@XXXXXXXXXXXXXXXXXXXXX@OOOOOOOOO@XXXXXoOOOOOOOoXXX.",
".XXXXXXXXXXXXXXXXXX@OOOOOOO@XXXXXXXXXXXXXXXXXXXXXXX@OOOOOOO@XXXXXXOO+XXX+OOXXX.",
".XXXXXXXXXXXXXXXXXXX%OOOOO%XXXXXXXXXXXXXXXXXXXXXXXXX%OOOOO%XXXXXXXOOXXXXXOOXXX.",
".XXXXXXXXXXXXXXXXXXXX+OOO+XXXXXXXXXXXXXXXXXXXXXXXXXXX+OOO+XXXXXXXXOOXXXXXOOXXX.",
".XXXXXXXXXXXXXXXXXXXX$OOO$XXXXXXXXXXXXXXXXXXXXXXXXXXX$OOO$XXXXXXXXOOXXXXXOOXXX.",
".XXXXXXXXXXXXXXXXXXXXX#O#XXXXXXXXXXXXXXXXXXXXXXXXXXXXX#O#XXXXXXXXXOO+XXX+OOXXX.",
".XXXXXXXXXXXXXXXXXXXXXX@XXXXXXXXXXXXXXXXXXXXXXXXXXXXXXX@XXXXXXXXXXoOOOOOOOOXXX.",
".XXXXXXXXXXXXXXXXXXXXXXXXXXXXXXXXXXXXXXXXXXXXXXXXXXXXXXXXXXXXXXXXXXoOOOOoOOXXX.",
".XXXXXXXXXXXXXXXXXXXXXXXXXXXXXXXXXXXXXXXXXXXXXXXXXXXXXXXXXXXXXXXXXXXXXXXXOOXXX.",
".XXXXXXXXXXXXXXXXXXXXXXXXXXXXXXXXXXXXXXXXXXXXXXXXXXXXXXXXXXXXXXXXXo+XXXXXOOXXX.",
".XXXXXXXXXXXXXXXXXXXXXXXXXXXXXXXXXXXXXXXXXXXXXXXXXXXXXXXXXXXXXXXXXOO+XXX+OOXXX.",
".XXXXXXXXXXXXXXXXXXXXXXXXXXXXXXXXXXXXXXXXXXXXXXXXXXXXXXXXXXXXXXXXXoOOOOOOOoXXX.",
" .XXXXXXXXXXXXXXXXXXXXXXXXXXXXXXXXXXXXXXXXXXXXXXXXXXXXXXXXXXXXXXXXXoOOOOOoXXX. ",
" .XXXXXXXXXXXXXXXXXXXXXXXXXXXXXXXXXXXXXXXXXXXXXXXXXXXXXXXXXXXXXXXXXXXXXXXXXXX. ",
"  .XXXXXXXXXXXXXXXXXXXXXXXXXXXXXXXXXXXXXXXXXXXXXXXXXXXXXXXXXXXXXXXXXXXXXXXXX.  ",
"  .XXXXXXXXXXXXXXXXXXXXXXXXXXXXXXXXXXXXXXXXXXXXXXXXXXXXXXXXXXXXXXXXXXXXXXXXX.  ",
"   ..XXXXXXXXXXXXXXXXXXXXXXXXXXXXXXXXXXXXXXXXXXXXXXXXXXXXXXXXXXXXXXXXXXXXX..   ",
"     ..XXXXXXXXXXXXXXXXXXXXXXXXXXXXXXXXXXXXXXXXXXXXXXXXXXXXXXXXXXXXXXXXX..     ",
"       .................................................................       "};
