/* XPM */
static char * Suits_xpm[] = {
"168 88 17 1",
" 	c None",
".	c #CF3C00000000",
"X	c #7DF77DF77DF7",
"o	c #DB6C3CF33CF3",
"O	c #000000000000",
"+	c #F3CEBEFBBEFB",
"@	c #3CF33CF33CF3",
"#	c #BEFBBEFBBEFB",
"$	c #E79D7DF77DF7",
"%	c #9E799E799E79",
"&	c #EFBE9E799E79",
"*	c #5D755D755D75",
"=	c #1C711C711C71",
"-	c #DF7DDF7DDF7D",
";	c #FBEEDF7DDF7D",
":	c #D34C1C711C71",
">	c #DF7D5D755D75",
"                                                                                                                                               .                        ",
"                                                             X                                                                                o.o                       ",
"                                                             O                                                                               +...+                      ",
"                                                            XOX                                                                              o...o                      ",
"                                                            @O@                                                                             o.....o                     ",
"                  #XXX#                                    #OOO#                                                                           +.......+                    ",
"                #OOOOOOO#                                  @OOO@                                                                           .........                    ",
"               @OOOOOOOOO@                                #OOOOO#                          $o...$+         +$...o$                        o.........o                   ",
"              XOOOOOOOOOOOX                              #OOOOOOO#                       $........o+     +o........$                     o...........o                  ",
"             #OOOOOOOOOOOOO#                            #OOOOOOOOO#                     o...........+   +...........o                   o.............o                 ",
"             XOOOOOOOOOOOOOX                           #OOOOOOOOOOO#                   o.............+ +.............o                 +...............+                ",
"             OOOOOOOOOOOOOOO                          #OOOOOOOOOOOOO#                 +..............o o..............+               +.................+               ",
"             OOOOOOOOOOOOOOO                         #OOOOOOOOOOOOOOO#                o...............$...............o              +...................+              ",
"             OOOOOOOOOOOOOOO                        #OOOOOOOOOOOOOOOOO#               .................................             o.....................o             ",
"             @OOOOOOOOOOOOO@                       #OOOOOOOOOOOOOOOOOOO#             $.................................$           o.......................o            ",
"             XOOOOOOOOOOOOOX                      #OOOOOOOOOOOOOOOOOOOOO#            $.................................$          o.........................o           ",
"              @OOOOOOOOOOO@                      @OOOOOOOOOOOOOOOOOOOOOOO@           $.................................$        +.............................+         ",
"     #XOOO@X  #OOOOOOOOOOO#  X@OOOX#            @OOOOOOOOOOOOOOOOOOOOOOOOO@          +.................................+       o...............................o        ",
"    XOOOOOOO@# #OOOOOOOOO# #@OOOOOOOX         #OOOOOOOOOOOOOOOOOOOOOOOOOOOOO#         .................................      +o.................................o+      ",
"   @OOOOOOOOOO# #OOOOOOO# #OOOOOOOOOO@       #OOOOOOOOOOOOOOOOOOOOOOOOOOOOOOO#        $...............................$     o.....................................o     ",
"  #OOOOOOOOOOOO# #OOOOO# #OOOOOOOOOOOO#     #OOOOOOOOOOOOOOOOOOOOOOOOOOOOOOOOO#        ...............................     .........................................    ",
"  OOOOOOOOOOOOOO# #OOO# #OOOOOOOOOOOOOO     @OOOOOOOOOOOOOOOOOOOOOOOOOOOOOOOOO@        +.............................+      o.....................................o     ",
" #OOOOOOOOOOOOOOO# XOX #OOOOOOOOOOOOOOO#   #OOOOOOOOOOOOOOOOOOOOOOOOOOOOOOOOOOO#        +...........................+        +o.................................o+      ",
" XOOOOOOOOOOOOOOOOX@O@XOOOOOOOOOOOOOOOOX   XOOOOOOOOOOOOOOOOOOOOOOOOOOOOOOOOOOOX         +.........................+           o...............................o        ",
" XOOOOOOOOOOOOOOOOOOOOOOOOOOOOOOOOOOOOOX   XOOOOOOOOOOOOOOOOOOOOOOOOOOOOOOOOOOOX          o.......................o             +.............................+         ",
" XOOOOOOOOOOOOOOOOX@O@XOOOOOOOOOOOOOOOOX   XOOOOOOOOOOOOOOOO@O@OOOOOOOOOOOOOOOOX           o.....................o                o.........................o           ",
" #OOOOOOOOOOOOOOO# XOX #OOOOOOOOOOOOOOO#   XOOOOOOOOOOOOOOO#XOX#OOOOOOOOOOOOOOOX            o...................o                  o.......................o            ",
"  OOOOOOOOOOOOOO#  XOX  #OOOOOOOOOOOOOO     OOOOOOOOOOOOO@  XOX  @OOOOOOOOOOOOO              o.................o                    o.....................o             ",
"  #OOOOOOOOOOOO#   XOX   #OOOOOOOOOOOO#     XOOOOOOOOOOOO   XOX   OOOOOOOOOOOOX               .................                      +...................+              ",
"   @OOOOOOOOOO#    XOX    #OOOOOOOOOO@       @OOOOOOOOOO#   XOX   #OOOOOOOOOO@                +...............+                       +.................+               ",
"    XOOOOOOO@#     XOX     #@OOOOOOOX         @OOOOOOOO#    OOO    #OOOOOOOO@                  +.............+                         +...............+                ",
"     #XOOO@X       XOX       X@OOOX#           #@OOOOX      OOO      XOOOO@#                    o...........o                           o.............o                 ",
"                   XOX                                      OOO                                  o.........o                             o...........o                  ",
"                   OOO                                     XOOOX                                 +.........+                              o.........o                   ",
"                   OOO                                     XOOOX                                  $.......$                                .........                    ",
"                  #OOO#                                    OOOOO                                   o.....o                                 +.......+                    ",
"                  XOOOX                                    OOOOO                                   +.....+                                  o.....o                     ",
"                  OOOOO                                   XOOOOOX                                   +...+                                    o...o                      ",
"                 #OOOOO#                                  XOOOOOX                                    o.o                                     +...+                      ",
"                 @OOOOO@                                  OOOOOOO                                    +.+                                      o.o                       ",
"                @OOXXXOO@                                @OOXXXOO@                                    .                                        .                        ",
"                                                                         $                  %@X@%                %@X@%                  &                    $          ",
"                               *                                        &.&                  =O=                 -OOO-                 ;.;                  &.&         ",
"                              -O-                                      ;...;                 *O*                  =O=                  :.:                 ;...;        ",
"        X=O=X                 *O*              ;+;     ;+;             o...o                 #O#                  *O*                 $...$                o...o        ",
"       XOOOOOX               %OOO%           +o...>; ;>...o+          >.....>          -#-   -O-   -#-       ##-  %O%  -##           +.....+              >.....>       ",
"      -OOOOOOO-             %OOOOO%         ;......: :......;        $.......$        XOOO@-  O  -@OOOX    #=OOO% #O# %OOO=#        ;:.....:;            $.......$      ",
"      #OOOOOOO#            %OOOOOOO%        >.......o.......>       $.........$      XOOOOO=- O -=OOOOOX  -OOOOOO# O #OOOOOO-       o.......o           $.........$     ",
"      -OOOOOOO-           %OOOOOOOOO%       .................      >...........>     =OOOOOO=-O-=OOOOOO=  XOOOOOOO%O%OOOOOOOX      >.........>         >...........>    ",
"   -#- @OOOOO@ -#-       *OOOOOOOOOOO*      .................    ;o.............o;   OOOOOOOOOOOOOOOOOOO  XOOOOOOOOOOOOOOOOOX     >...........>      ;o.............o;  ",
"  XOOO@-=OOO=-@OOOX    -@OOOOOOOOOOOOO@-    o...............o   &.................&  =OOOOOO=-O-=OOOOOO=  %OOOOOOOOOOOOOOOOO%    &.............&    &.................& ",
" XOOOOO=-=O=-=OOOOOX   =OOOOOOOOOOOOOOO=    +...............+  $...................$ XOOOOO=-=O=-=OOOOOX   =OOOOOOOOOOOOOOO=    +...............+  $...................$",
" =OOOOOO=-O-=OOOOOO=  %OOOOOOOOOOOOOOOOO%    &.............&    &.................&   XOOO@-=OOO=-@OOOX    -@OOOOOOOOOOOOO@-    o...............o   &.................& ",
" OOOOOOOOOOOOOOOOOOO  XOOOOOOOOOOOOOOOOOX     >...........>      ;o.............o;     -#- @OOOOO@ -#-       *OOOOOOOOOOO*      .................    ;o.............o;  ",
" =OOOOOO=-O-=OOOOOO=  XOOOOOOO%O%OOOOOOOX      >.........>         >...........>          -OOOOOOO-           %OOOOOOOOO%       .................      >...........>    ",
" XOOOOO=- O -=OOOOOX  -OOOOOO# O #OOOOOO-       o.......o           $.........$           #OOOOOOO#            %OOOOOOO%        >.......o.......>       $.........$     ",
"  XOOO@-  O  -@OOOX    #=OOO% #O# %OOO=#        ;:.....:;            $.......$            -OOOOOOO-             %OOOOO%         ;......: :......;        $.......$      ",
"   -#-   -O-   -#-       ##-  %O%  -##           +.....+              >.....>              XOOOOOX               %OOO%           +o...>; ;>...o+          >.....>       ",
"         #O#                  *O*                 $...$                o...o                X=O=X                 *O*              ;+;     ;+;             o...o        ",
"         *O*                  =O=                  :.:                 ;...;                                      -O-                                      ;...;        ",
"         =O=                 -OOO-                 ;.;                  &.&                                        *                                        &.&         ",
"        %@X@%                %@X@%                  &                    $                                                                                   $          ",
"                                                    ;             #-#            #-#             ;              ;                                                       ",
"                      %                            ;.;            XOX            XOX             o             ;.;                                                      ",
"      #X#            -O-                           o.o            -O-            #O#            >.>            o.o                                                      ",
"     XOOOX           @O@        ;>.:& &:.>;       >...>       -%-  @  -%-     ##  O  ##        +...+          >...>                                                     ",
"     OOOOO          @OOO@       o....$....o      &.....&     #OOO% * %OOO#   =OO@ @ @OO=      ;:...:;        &.....&                                                    ",
"     =OOO=         @OOOOO@     ;...........;    >.......>    @OOOOX@XOOOO@  XOOOO*@*OOOOX    ;:.....:;      >.......>                                                   ",
"  %*X%OOO%X*%    -=OOOOOOO=-   ;...........;  ;o.........o;  @OOOO@=@OOOO@  XOOOOOOOOOOOX    o.......o    ;o.........o;                                                 ",
" XOOO@XOX@OOOX  -=OOOOOOOOO=-   >.........>  ;.............; XOOO@XOX@OOOX  -=OOOOOOOOO=-   >.........>  ;.............;                                                ",
" @OOOO@=@OOOO@  XOOOOOOOOOOOX    o.......o    ;o.........o;   %*X%OOO%X*%    -=OOOOOOO=-   ;...........;  ;o.........o;                                                 ",
" @OOOOX@XOOOO@  XOOOO*@*OOOOX    ;:.....:;      >.......>        =OOO=         @OOOOO@     ;...........;    >.......>                                                   ",
" #OOO% * %OOO#   =OO@ @ @OO=      ;:...:;        &.....&         OOOOO          @OOO@       o....$....o      &.....&                                                    ",
"  -%-  @  -%-     ##  O  ##        +...+          >...>          XOOOX           @O@        ;>.:& &:.>;       >...>                                                     ",
"      -O-            #O#            >.>            o.o            #X#            -O-                           o.o                                                      ",
"      XOX            XOX             o             ;.;                            %                            ;.;                                                      ",
"      #-#            #-#             ;              ;                                                           ;                                                       ",
"                -                     &         #X#        #X#         +          &                                                                                     ",
"     #          *                    +.+         O         -O-        +.+        +.+                                                                                    ",
"   -=O=-       XOX      >:$ $:>     ;:.:;    -%- * -%-   %# = #%      :.:       ;:.:;                                                                                   ",
"   %OOO%      XOOOX    $...:...$   ;:...:;   =OO#X#OO=  @OO%X%OO@    >...>     ;:...:;                                                                                  ",
" -%#OOO#%-   XOOOOOX   o.......o  +:.....:+ #OOO=@=OOO# OOOO=OOOO   $.....$   +:.....:+                                                                                 ",
" =OOX=XOO=  *OOOOOOO*  &.......& &.........& =OOX=XOO=  *OOOOOOO*  &.......& &.........&                                                                                ",
"#OOO=@=OOO# OOOO=OOOO   $.....$   +:.....:+  -%#OOO#%-   XOOOOOX   o.......o  +:.....:+                                                                                 ",
" =OO#X#OO=  @OO%X%OO@    >...>     ;:...:;     %OOO%      XOOOX    $...:...$   ;:...:;                                                                                  ",
" -%- * -%-   %# = #%      :.:       ;:.:;      -=O=-       XOX      >:$ $:>     ;:.:;                                                                                   ",
"     O         -O-        +.+        +.+         #          *                    +.+                                                                                    ",
"    #X#        #X#         +          &                     -                     &                                                                                     "};
