/* XPM */
static char * Suits_xpm[] = {
"144 75 31 1",
" 	c None",
".	c #FFEEEE",
"+	c #DDDDDD",
"@	c #FFBBBB",
"#	c #D00000",
"$	c #EEEEEE",
"%	c #555555",
"&	c #000000",
"*	c #FF4444",
"=	c #CCCCCC",
"-	c #111111",
";	c #FFAAAA",
">	c #FFCCCC",
",	c #FF5555",
"'	c #F22222",
")	c #FF3333",
"!	c #FF6666",
"~	c #FFDDDD",
"{	c #666666",
"]	c #444444",
"^	c #E11111",
"/	c #FF9999",
"(	c #AAAAAA",
"_	c #999999",
":	c #FF8888",
"<	c #888888",
"[	c #777777",
"}	c #FF7777",
"|	c #BBBBBB",
"1	c #222222",
"2	c #333333",
"                               .                                                                                                                ",
"          +                   @#@                                        $                                                                      ",
"       +%&&&%+                *#*                                       =&=                                                                     ",
"      +-&&&&&-+              ;###;           >,')!~   ~!)',>            {&{                                                                     ",
"      ]&&&&&&&]             .'###'.         @#####^; ;^#####@          +&&&+                                                                    ",
"     +&&&&&&&&&+            !#####!         '#######/#######'          %&&&%                                                                    ",
"     (&&&&&&&&&(           ;#######;       @#################@        _&&&&&_                                                                   ",
"     (&&&&&&&&&(          ~^#######^~      :#################:       (&&&&&&&(                                                                  ",
"     +&&&&&&&&&+         .)#########).     !#################!      <&&&&&&&&&<                                                                 ",
"      ]&&&&&&&]          *###########*     !#################!     [&&&&&&&&&&&[                                                                ",
"      +-&&&&&-+         ,#############,    }#################}    [&&&&&&&&&&&&&[                                                               ",
"  $<{<$[&&&&&[$<{<$   .,###############,.  @#################@   |&&&&&&&&&&&&&&&|                                                              ",
" +-&&&1-&&&&&-1&&&-+  }#################}   '###############'    1&&&&&&&&&&&&&&&1                                                              ",
" %&&&&&&&&&&&&&&&&&%  .,###############,.   ;###############;   |&&&&&&&&&&&&&&&&&|                                                             ",
"$&&&&&&&&&&&&&&&&&&&$   ,#############,      ,#############,    [&&&&&&&&&&&&&&&&&[                                                             ",
"(&&&&&&&&&&&&&&&&&&&(    *###########*       .)###########).    {&&&&&&&&&&&&&&&&&{                                                             ",
"_&&&&&&&&&&&&&&&&&&&_    .)#########).        .'#########'.     {&&&&&&&&&&&&&&&&&{                                                             ",
"|&&&&&&&&&&&&&&&&&&&|     ~^#######^~          .'#######'.      <&&&&&&&&&&&&&&&&&<                                                             ",
"$-&&&&&&&&&&&&&&&&&-$      ;#######;            .*#####*.       |&&&&&&&&&&&&&&&&&|                                                             ",
" [&&&&&&_|&|_&&&&&&[        !#####!              .)###).         -&&&&&_|&|_&&&&&-                                                              ",
"  %&&&&2 =&= 2&&&&%         .'###'.               ~###~          _&&&&2 =&= 2&&&&_                                                              ",
"   |[{_  (&(  _{[|           ;###;                 }#}            |{{(  (&(  ({{|                                                               ",
"         [&[                  *#*                  ~)~                  [&[                                                                     ",
"         2&2                  @#@                                       2&2                                                                     ",
"         |_|                   .                                        |_|                                                                     ",
"       =<<=               ;;                                  ==                                  ;;                                            ",
"      [&&&&[             .^^.                                 ]]               $&&$              .^^.               ;;               $&&$       ",
"     _&&&&&&_            }##}           >@.    .@>           |&&|               11               }##}               ''                11        ",
"     1&&&&&&1           ~####~        @'##^:  :^##'@         2&&2          ([(  %%  ([(         ~####~             /##/          _[|  %%  |[_   ",
"    +&&&&&&&&+          *####*       .^#####}}#####^.       [&&&&[       $2&&&] [[ ]&&&2$       *####*            @####@        ]&&&] [[ ]&&&]  ",
"    $&&&&&&&&$         :######:      /##############/      <&&&&&&<      ]&&&&&_{{_&&&&&]      :######:          ;^####^;      |&&&&&_{{_&&&&&| ",
"     1&&&&&&1         @########@     ,##############,     [&&&&&&&&[    +&&&&&&&&&&&&&&&&+    @########@        ;########;     [&&&&&&&&&&&&&&[ ",
"     (&&&&&&(        ~^########^~    *##############*    [&&&&&&&&&&[   (&&&&&&&&&&&&&&&&(   ~^########^~      @##########@    ]&&&&&&&&&&&&&&] ",
"  $(( {&&&&{ (($    .'##########'.   *##############*   _&&&&&&&&&&&&_  (&&&&&&&&&&&&&&&&(  .'##########'.    ~^##########^~   ]&&&&&&&&&&&&&&] ",
" +1&&1-&&&&-1&&1+  ~'############'~  }##############}  $-&&&&&&&&&&&&-$ =&&&&&&&&&&&&&&&&= ~'############'~   *############*   ]&&&&&&&&&&&&&&] ",
" 2&&&&&&&&&&&&&&2  ,##############,  >##############>  <&&&&&&&&&&&&&&<  2&&&&&&&&&&&&&&2  ,##############,  >##############>  <&&&&&&&&&&&&&&< ",
"=&&&&&&&&&&&&&&&&= ~'############'~   *############*   ]&&&&&&&&&&&&&&]  +1&&1-&&&&-1&&1+  ~'############'~  }##############}  $-&&&&&&&&&&&&-$ ",
"(&&&&&&&&&&&&&&&&(  .'##########'.    ~^##########^~   ]&&&&&&&&&&&&&&]   $(( {&&&&{ (($    .'##########'.   *##############*   _&&&&&&&&&&&&_  ",
"(&&&&&&&&&&&&&&&&(   ~^########^~      @##########@    ]&&&&&&&&&&&&&&]      (&&&&&&(        ~^########^~    *##############*    [&&&&&&&&&&[   ",
"+&&&&&&&&&&&&&&&&+    @########@        ;########;     [&&&&&&&&&&&&&&[      1&&&&&&1         @########@     ,##############,     [&&&&&&&&[    ",
" ]&&&&&_{{_&&&&&]      :######:          ;^####^;      |&&&&&_{{_&&&&&|     $&&&&&&&&$         :######:      /##############/      <&&&&&&<     ",
" $2&&&] [[ ]&&&2$       *####*            @####@        ]&&&] [[ ]&&&]      +&&&&&&&&+          *####*       .^#####}}#####^.       [&&&&[      ",
"   ([(  %%  ([(         ~####~             /##/          _[|  %%  |[_        1&&&&&&1           ~####~        @'##^:  :^##'@         2&&2       ",
"        11               }##}               ''                11             _&&&&&&_            }##}           >@.    .@>           |&&|       ",
"       $&&$              .^^.               ;;               $&&$             [&&&&[             .^^.                                 ]]        ",
"                          ;;                                                   =<<=               ;;                                  ==        ",
"                       ..                                                              ..                                                       ",
"      ({{(             **          @/>    >/@          ||              --              **                              --                       ",
"     %&&&&%           @##@        *###)..)###*         22         $(($ ]] $(($        @##@             @@         $((  ]]  (($                  ",
"    (&&&&&&(          '##'       :#####))#####:       (&&(       (&&&-$[[$-&&&(       '##'             ''        +-&&1$[[$1&&-+                 ",
"    %&&&&&&%         }####}      )############)      $1&&1$     $-&&&&%]]%&&&&-$     }####}           :##:       {&&&&%]]%&&&&{                 ",
"    ]&&&&&&]        @######@     ##############     $]&&&&]$    _&&&&&&&&&&&&&&_    @######@         ;####;      1&&&&&&&&&&&&1                 ",
"    [&&&&&&[       ~^######^~    ##############    $2&&&&&&2$   [&&&&&&&&&&&&&&[   ~^######^~       :######:     &&&&&&&&&&&&&&                 ",
"    +-&&&&-+      .'########'.   '############'   $1&&&&&&&&1$  _&&&&&&&&&&&&&&_  .'########'.     :########:    &&&&&&&&&&&&&&                 ",
"  =_+_&&&&_+_=   .'##########'.  }############}   ]&&&&&&&&&&]  +&&&&&&&&&&&&&&+ .'##########'.   @##########@   2&&&&&&&&&&&&2                 ",
" _&&&1&&&&1&&&_  )############)  .^##########^.  _&&&&&&&&&&&&_  _&&&1&&&&1&&&_  )############)  .^##########^.  _&&&&&&&&&&&&_                 ",
"+&&&&&&&&&&&&&&+ .'##########'.   @##########@   2&&&&&&&&&&&&2   =_+_&&&&_+_=   .'##########'.  }############}   ]&&&&&&&&&&]                  ",
"_&&&&&&&&&&&&&&_  .'########'.     :########:    &&&&&&&&&&&&&&     +-&&&&-+      .'########'.   '############'   $1&&&&&&&&1$                  ",
"[&&&&&&&&&&&&&&[   ~^######^~       :######:     &&&&&&&&&&&&&&     [&&&&&&[       ~^######^~    ##############    $2&&&&&&2$                   ",
"_&&&&&&&&&&&&&&_    @######@         ;####;      1&&&&&&&&&&&&1     ]&&&&&&]        @######@     ##############     $]&&&&]$                    ",
"$-&&&&%]]%&&&&-$     }####}           :##:       {&&&&%]]%&&&&{     %&&&&&&%         }####}      )############)      $1&&1$                     ",
" (&&&-$[[$-&&&(       '##'             ''        +-&&1$[[$1&&-+     (&&&&&&(          '##'       :#####))#####:       (&&(                      ",
"  $(($ ]] $(($        @##@             @@         $((  ]]  (($       %&&&&%           @##@        *###)..)###*         22                       ",
"       --              **                              --             ({{(             **          @/>    >/@          ||                       ",
"                       ..                                                              ..                                                       ",
"  $2&2$     .'.               $1$      $[$      .'.       >       $[$                                                                           ",
"  <&&&<     !#!    !#*>*#!    [&[    $| 1 |$    !#!      ~#~    += 1 =+                                                                         ",
"  <&&&<    @###@  @#######@  <&&&<  =-&{[{&-=  @###@    .'#'.  $-&{[{&-$                                                                        ",
" $+-&-+$  ~^###^~ /#######/ _&&&&&_ {&&&&&&&{ ~^###^~  .'###'. (&&&&&&&(                                                                        ",
"=--&&&--=~^#####^~@#######@+&&&&&&&+{&&&&&&&{~^#####^~ *#####* _&&&&&&&_                                                                        ",
"{&&&&&&&{~^#####^~ *#####* _&&&&&&&_=--&&&--=~^#####^~@#######@+&&&&&&&+                                                                        ",
"{&&&&&&&{ ~^###^~  .'###'. (&&&&&&&( $+-&-+$  ~^###^~ /#######/ _&&&&&_                                                                         ",
"=-&{[{&-=  @###@    .'#'.  $-&{[{&-$  <&&&<    @###@  @#######@  <&&&<                                                                          ",
" $| 1 |$    !#!      ~#~    += 1 =+   <&&&<     !#!    !#*>*#!    [&[                                                                           ",
"   $[$      .'.       >       $[$     $2&2$     .'.               $1$                                                                           "};
