/* XPM */
static char * Ten_Spades_xpm[] = {
"79 123 11 1",
" 	c None",
".	c #000000000000",
"X	c #FFFFFFFFFFFF",
"o	c #BEFBBEFBBEFB",
"O	c #59655D755965",
"+	c #DF7DDF7DDF7D",
"@	c #9E799E799E79",
"#	c #38E33CF338E3",
"$	c #18611C711861",
"%	c #79E77DF779E7",
"&	c #D75CD75CD75C",
"       .................................................................       ",
"     ..XXXXXXXXXXXXXXXXXXXXXXXXXXXXXXXXXXXXXXXXXXXXXXXXXXXXXXXXXXXXXXXXX..     ",
"   ..XXXXXXXXXXXXXXXXXXXXXXXXXXXXXXXXXXXXXXXXXXXXXXXXXXXXXXXXXXXXXXXXXXXXX..   ",
"  .XXXXXXXXXXXXXXXXXXXXXXXXXXXXXXXXXXXXXXXXXXXXXXXXXXXXXXXXXXXXXXXXXXXXXXXXX.  ",
"  .XXXXXXXXXXXXXXXXXXXXXXXXXXXXXXXXXXXXXXXXXXXXXXXXXXXXXXXXXXXXXXXXXXXXXXXXX.  ",
" .XXXXXXXXXXXXXXXXXXXXXXXXXXXXXXXXXXXXXXXXXXXXXXXXXXXXXXXXXXXXXXXXXXXXXXXXXXX. ",
" .XX..Xo....oXXXXXXXXXXXXXXXXXXXXXXXXXXXXXXXXXXXXXXXXXXXXXXXXXXXXXXXXXXXXXXXX. ",
".XXX..X......XXXXXXXXXXXXXXXXXXXXXXXXXXXXXXXXXXXXXXXXXXXXXXXXXXXXXXXXXXXXXXXXX.",
".XXX..X..XX..XXXXXXXXXXXXXXXXXXXXXXXXXXXXXXXXXXXXXXXXXXXXXXXXXXXXXXXXXXXXXXXXX.",
".XXX..X..XX..XXXXXXXXXXXXXXXXXXXXXXXXXXXXXXXXXXXXXXXXXXXXXXXXXXXXXXXXXXXXXXXXX.",
".XXX..X..XX..XXXXXXXXXXXXXXXXXXXXXXXXXXXXXXXXXXXXXXXXXXXXXXXXXXXXXXXXXXXXXXXXX.",
".XXX..X..XX..XXXXXXXXXXXXXXXXXXXXXXXXXXXXXXXXXXXXXXXXXXXXXXXXXXXXXXXXXXXXXXXXX.",
".XXX..X..XX..XXXXXXXXXXXXXXXXXXXXXXXXXXXXXXXXXXXXXXXXXXXXXXXXXXXXXXXXXXXXXXXXX.",
".XXX..X..XX..XXXXXXXXXXOXXXXXXXXXXXXXXXXXXXXXXXXXXXXXXXOXXXXXXXXXXXXXXXXXXXXXX.",
".XXX..X..XX..XXXXXXXXX+.+XXXXXXXXXXXXXXXXXXXXXXXXXXXXX+.+XXXXXXXXXXXXXXXXXXXXX.",
".XXX..X..XX..XXXXXXXXXO.OXXXXXXXXXXXXXXXXXXXXXXXXXXXXXO.OXXXXXXXXXXXXXXXXXXXXX.",
".XXX..X..XX..XXXXXXXX@...@XXXXXXXXXXXXXXXXXXXXXXXXXXX@...@XXXXXXXXXXXXXXXXXXXX.",
".XXX..X..XX..XXXXXXX@.....@XXXXXXXXXXXXXXXXXXXXXXXXX@.....@XXXXXXXXXXXXXXXXXXX.",
".XXX..X......XXXXXX@.......@XXXXXXXXXXXXXXXXXXXXXXX@.......@XXXXXXXXXXXXXXXXXX.",
".XXX..Xo....oXXXXX@.........@XXXXXXXXXXXXXXXXXXXXX@.........@XXXXXXXXXXXXXXXXX.",
".XXXXXXXXXXXXXXXXO...........OXXXXXXXXXXXXXXXXXXXO...........OXXXXXXXXXXXXXXXX.",
".XXXXXXXXXXXXXX+#.............#+XXXXXXXXXXXXXXX+#.............#+XXXXXXXXXXXXXX.",
".XXXXXXX+XXXXXX$...............$XXXXXXXXXXXXXXX$...............$XXXXXXXXXXXXXX.",
".XXXXXXXOXXXXX@.................@XXXXXXXXXXXXX@.................@XXXXXXXXXXXXX.",
".XXXXXX%.%XXXX%.................%XXXXXXXXXXXXX%.................%XXXXXXXXXXXXX.",
".XXXXX%...%XXX%.......@.@.......%XXXXXXXXXXXXX%.......@.@.......%XXXXXXXXXXXXX.",
".XXXX%.....%XX+......oX.Xo......+XXXXXXOXXXXXX+......oX.Xo......+XXXXXXXXXXXXX.",
".XXXO.......OXXo$...@Xo.oX@...$oXXXXXX+.+XXXXXXo$...@Xo.oX@...$oXXXXXXXXXXXXXX.",
".XXX....$....XXXXoo+XX@.@XX+ooXXXXXXXXO.OXXXXXXXXoo+XX@.@XX+ooXXXXXXXXXXXXXXXX.",
".XXX#..@%@..#&&&&&&&&&O.OXXXXXXXXXXXX@...@XXXXXXXXXXXXO.OXXXXXXXXX&&&&&XXXXXXX.",
".XXXX@oX$&o@&&&&&&&&&&$.$XXXXXXXXXXX@.....@XXXXXXXXXXX$.$XXXXXXXXX&&&&&XXXXXXX.",
".XXXXXX+.+&&&&&&&&&&&+...+XXXXXXXXX@.......@XXXXXXXXX+...+XXXXXXX&&&&&XXXXXXXX.",
".XXXXXXo%o&&&&&&&&&&&@#%#@XXXXXXXX@.........@XXXXXXXX@#%#@XXXXXX&&&&&XXXXXXXXX.",
".XXXXXXXXX&&&&&&&&&&&&&&&&XXXXXXXO...........OXXXXXXXXXXXXXXXXX&&&&&XXXXXXXXXX.",
".XXXXXXXXXX&&&&&&&&&&&&&&&&XXXX+#.............#+XXXXXXXXXXXXXX&&&&&XXXXXXXXXXX.",
".XXXXXXXXXXX&&&&&&&&&&&&&&&&XXX$...............$XXXXXXXXXXXXXX&&&&&XXXXXXXXXXX.",
".XXXXXXXXXXXX&&&&&&&&&&&&&&&&X@.................@XXXXXXXXXXXX&&&&&XXXXXXXXXXXX.",
".XXXXXXXXXXXX&&&&&&&&&&&&&&&&X%.................%XXXXXXXXXXX&&&&&XXXXXXXXXXXXX.",
".XXXXXXXXXXXXX&&&&&&&&&&&&&&&&%.......@.@.......%XXXXXXXXXX&&&&&XXXXXXXXXXXXXX.",
".XXXXXXXXXXXXXX&&&&&&&&O&&&&&&+......oX.Xo......+XXXXXXOXX&&&&&XXXXXXXXXXXXXXX.",
".XXXXXXXXXXXXXXX&&&&&&+.+&&&&&&o$...@Xo.oX@...$oXXXXXX+.+X&&&&&XXXXXXXXXXXXXXX.",
".XXXXXXXXXXXXXXX&&&&&&O.O&&&&&&&Xoo+XX@.@XX+ooXXXXXXXXO.O&&&&&XXXXXXXXXXXXXXXX.",
".XXXXXXXXXXXXXXXX&&&&@...@&&&&&&&XXXXXO.OXXXXXXXXXXXX@...@&&&XXXXXXXXXXXXXXXXX.",
".XXXXXXXXXXXXXXXXX&&@.....@&&&&&&&XXXX$.$XXXXXXXXXXX@.....@&XXXXXXXXXXXXXXXXXX.",
".XXXXXXXXXXXXXXXXXX@.......@&&&&&&&XX+...+XXXXXXXXX@.......@XXXXXXXXXXXXXXXXXX.",
".XXXXXXXXXXXXXXXXX@.........@&&&&&&XX@#%#@XXXXXXXX@.........@XXXXXXXXXXXXXXXXX.",
".XXXXXXXXXXXXXXXXO...........O&&&&&&XXXXXXXXXXXXXO...........OXXXXXXXXXXXXXXXX.",
".XXXXXXXXXXXXXX+#.............#+&&&&&XXXXXXXXXX+#.............#+XXXXXXXXXXXXXX.",
".XXXXXXXXXXXXXX$...............$&&&&&&XXXXXXXXX$...............$XXXXXXXXXXXXXX.",
".XXXXXXXXXXXXX@.................@&&&&&XXXXXXXX@.................@XXXXXXXXXXXXX.",
".XXXXXXXXXXXXX%.................%&&&&&&XXXXXXX%.................%XXXXXXXXXXXXX.",
".XXXXXXXXXXXXX%.......@.@.......%&&&&&&&XXXXXX%.......@.@.......%XXXXXXXXXXXXX.",
".XXXXXXXXXXXXX+......oX.Xo......+&&&&&&&&XXXXX+......oX.Xo......+XXXXXXXXXXXXX.",
".XXXXXXXXXXXXXXo$...@Xo.o&@...$o&&&&&&&&&XXXXXXo$...@Xo.oX@...$oXXXXXXXXXXXXXX.",
".XXXXXXXXXXXXXXXXoo+XX@.@X&+oo&&&&&&&&&&&&XXXX&&&oo+XX@.@XX+ooXXXXXXXXXXXXXXXX.",
".XXXXXXXXXXXXXXXXXXXXXO.OXX&&&&&&&&&&&&&&&&XX&&&&&XXXXO.OXXXXXXXXXXXXXXXXXXXXX.",
".XXXXXXXXXXXXXXXXXXXXX$.$XXX&&&&&&&&&&&&&&&XX&&&&&XXXX$.$XXXXXXXXXXXXXXXXXXXXX.",
".XXXXXXXXXXXXXXXXXXXX+...+XX&&&&&&&&&&&&&&XX&&&&&XXXX+...+XXXXXXXXXXXXXXXXXXXX.",
".XXXXXXXXXXXXXXXXXXXX@#%#@XXX&&&&&&&&&&&&XX&&&&&XXXXX@#%#@XXXXXXXXXXXXXXXXXXXX.",
".XXXXXXXXXXXXXXXXXXXXXXXXXXXXX&&&&&&&&&&XX&&&&&XXXXXXXXXXXXXXXXXXXXXXXXXXXXXXX.",
".XXXXXXXXXXXXXXXXXXXXXXXXXXXXXX&&&&&&&&XX&&&&&&XXXXXXXXXXXXXXXXXXXXXXXXXXXXXXX.",
".XXXXXXXXXXXXXXXXXXXXXXXXXXXXXX&&&&&&&XX&&&&&&&XXXXXXXXXXXXXXXXXXXXXXXXXXXXXXX.",
".XXXXXXXXXXXXXXXXXXXXXXXXXXXXXXX&&&&&&XX&&&&&&&&XXXXXXXXXXXXXXXXXXXXXXXXXXXXXX.",
".XXXXXXXXXXXXXXXXXXXXXXXXXXXXXXX&&&&&XX&&&&&&&&&&XXXXXXXXXXXXXXXXXXXXXXXXXXXXX.",
".XXXXXXXXXXXXXXXXXXXX@#%#@XXXXX&&&&&XX&&&&&&&&&&&&XXX@#%#@XXXXXXXXXXXXXXXXXXXX.",
".XXXXXXXXXXXXXXXXXXXX+...+XXXX&&&&&XX&&&&&&&&&&&&&XXX+...+XXXXXXXXXXXXXXXXXXXX.",
".XXXXXXXXXXXXXXXXXXXXX$.$XXXX&&&&&XX&&&&&&&&&&&&&&&XXX$.$XXXXXXXXXXXXXXXXXXXXX.",
".XXXXXXXXXXXXXXXXXXXXXO.OXXXX&&&&&XX&&&&&&&&&&&&&&&&XXO.OXXXXXXXXXXXXXXXXXXXXX.",
".XXXXXXXXXXXXXXXXoo+XX@.@XX+oo&&&XXXX&&&&&&&&&&&&oo+&X@.@XX+ooXXXXXXXXXXXXXXXX.",
".XXXXXXXXXXXXXXo$...@Xo.oX@...$oXXXXX&&&&&&&&&&o$...@Xo.oX@...$oXXXXXXXXXXXXXX.",
".XXXXXXXXXXXXX+......oX.Xo......+XXXXX&&&&&&&&+......oX.Xo......+XXXXXXXXXXXXX.",
".XXXXXXXXXXXXX%.......@.@.......%XXXXXX&&&&&&&%.......@.@.......%XXXXXXXXXXXXX.",
".XXXXXXXXXXXXX%.................%XXXXXXX&&&&&&%.................%XXXXXXXXXXXXX.",
".XXXXXXXXXXXXX@.................@XXXXXXX&&&&&&@.................@XXXXXXXXXXXXX.",
".XXXXXXXXXXXXXX$...............$XXXXXXXXX&&&&&&$...............$XXXXXXXXXXXXXX.",
".XXXXXXXXXXXXXX+#.............#+XXXXXXXXXX&&&&&+#.............#+XXXXXXXXXXXXXX.",
".XXXXXXXXXXXXXXXXO...........OXXXXXXXXXXXXX&&&&&&O...........OXXXXXXXXXXXXXXXX.",
".XXXXXXXXXXXXXXXXX@.........@XXXXXXXX@#%#@X&&&&&&&@.........@XXXXXXXXXXXXXXXXX.",
".XXXXXXXXXXXXXXXXXX@.......@XXXXXXXXX+...+XX&&&&&&&@.......@XXXXXXXXXXXXXXXXXX.",
".XXXXXXXXXXXXXXXXXX&@.....@XXXXXXXXXXX$.$XXXX&&&&&&&@.....@&&XXXXXXXXXXXXXXXXX.",
".XXXXXXXXXXXXXXXXX&&&@...@XXXXXXXXXXXXO.OXXXXX&&&&&&&@...@&&&&XXXXXXXXXXXXXXXX.",
".XXXXXXXXXXXXXXXX&&&&&O.OXXXXXXXXoo+XX@.@XX+oo&&&&&&&&O.O&&&&&XXXXXXXXXXXXXXXX.",
".XXXXXXXXXXXXXXX&&&&&X+.+XXXXXXo$...@Xo.oX@...$o&&&&&&+.+&&&&&&XXXXXXXXXXXXXXX.",
".XXXXXXXXXXXXXXX&&&&&XXOXXXXXX+......oX.Xo......+&&&&&&O&&&&&&&&XXXXXXXXXXXXXX.",
".XXXXXXXXXXXXXX&&&&&XXXXXXXXXX%.......@.@.......%&&&&&&&&&&&&&&&&XXXXXXXXXXXXX.",
".XXXXXXXXXXXXX&&&&&XXXXXXXXXXX%.................%&&&&&&&&&&&&&&&&XXXXXXXXXXXXX.",
".XXXXXXXXXXXX&&&&&XXXXXXXXXXXX@.................@X&&&&&&&&&&&&&&&&XXXXXXXXXXXX.",
".XXXXXXXXXXX&&&&&XXXXXXXXXXXXXX$...............$XXX&&&&&&&&&&&&&&&&XXXXXXXXXXX.",
".XXXXXXXXXXX&&&&&XXXXXXXXXXXXXX+#.............#+XXXX&&&&&&&&&&&&&&&&XXXXXXXXXX.",
".XXXXXXXXXX&&&&&XXXXXXXXXXXXXXXXXO...........OXXXXXX&&&&&&&&&&&&&&&&XXXXXXXXXX.",
".XXXXXXXXX&&&&&XXXXXX@#%#@XXXXXXXX@.........@XXXXXXXX@#%#@&&&&&&&&&&&o%oXXXXXX.",
".XXXXXXXX&&&&&XXXXXXX+...+XXXXXXXXX@.......@XXXXXXXXX+...+&&&&&&&&&&&+.+XXXXXX.",
".XXXXXXX&&&&&XXXXXXXXX$.$XXXXXXXXXXX@.....@XXXXXXXXXXX$.$&&&&&&&&&&@o&$Xo@XXXX.",
".XXXXXXXXXXXXXXXXXXXXXO.OXXXXXXXXXXXX@...@XXXXXXXXXXXXO.OXXXXXXXXX#..@%@..#XXX.",
".XXXXXXXXXXXXXXXXoo+XX@.@XX+ooXXXXXXXXO.OXXXXXXXXoo+XX@.@XX+ooXXXX....$....XXX.",
".XXXXXXXXXXXXXXo$...@Xo.oX@...$oXXXXXX+.+XXXXXXo$...@Xo.oX@...$oXXO.......OXXX.",
".XXXXXXXXXXXXX+......oX.Xo......+XXXXXXOXXXXXX+......oX.Xo......+XX%.....%XXXX.",
".XXXXXXXXXXXXX%.......@.@.......%XXXXXXXXXXXXX%.......@.@.......%XXX%...%XXXXX.",
".XXXXXXXXXXXXX%.................%XXXXXXXXXXXXX%.................%XXXX%.%XXXXXX.",
".XXXXXXXXXXXXX@.................@XXXXXXXXXXXXX@.................@XXXXXOXXXXXXX.",
".XXXXXXXXXXXXXX$...............$XXXXXXXXXXXXXXX$...............$XXXXXX+XXXXXXX.",
".XXXXXXXXXXXXXX+#.............#+XXXXXXXXXXXXXXX+#.............#+XXXXXXXXXXXXXX.",
".XXXXXXXXXXXXXXXXO...........OXXXXXXXXXXXXXXXXXXXO...........OXXXXXXXXXXXXXXXX.",
".XXXXXXXXXXXXXXXXX@.........@XXXXXXXXXXXXXXXXXXXXX@.........@XXXXXo....oX..XXX.",
".XXXXXXXXXXXXXXXXXX@.......@XXXXXXXXXXXXXXXXXXXXXXX@.......@XXXXXX......X..XXX.",
".XXXXXXXXXXXXXXXXXXX@.....@XXXXXXXXXXXXXXXXXXXXXXXXX@.....@XXXXXXX..XX..X..XXX.",
".XXXXXXXXXXXXXXXXXXXX@...@XXXXXXXXXXXXXXXXXXXXXXXXXXX@...@XXXXXXXX..XX..X..XXX.",
".XXXXXXXXXXXXXXXXXXXXXO.OXXXXXXXXXXXXXXXXXXXXXXXXXXXXXO.OXXXXXXXXX..XX..X..XXX.",
".XXXXXXXXXXXXXXXXXXXXX+.+XXXXXXXXXXXXXXXXXXXXXXXXXXXXX+.+XXXXXXXXX..XX..X..XXX.",
".XXXXXXXXXXXXXXXXXXXXXXOXXXXXXXXXXXXXXXXXXXXXXXXXXXXXXXOXXXXXXXXXX..XX..X..XXX.",
".XXXXXXXXXXXXXXXXXXXXXXXXXXXXXXXXXXXXXXXXXXXXXXXXXXXXXXXXXXXXXXXXX..XX..X..XXX.",
".XXXXXXXXXXXXXXXXXXXXXXXXXXXXXXXXXXXXXXXXXXXXXXXXXXXXXXXXXXXXXXXXX..XX..X..XXX.",
".XXXXXXXXXXXXXXXXXXXXXXXXXXXXXXXXXXXXXXXXXXXXXXXXXXXXXXXXXXXXXXXXX..XX..X..XXX.",
".XXXXXXXXXXXXXXXXXXXXXXXXXXXXXXXXXXXXXXXXXXXXXXXXXXXXXXXXXXXXXXXXX..XX..X..XXX.",
".XXXXXXXXXXXXXXXXXXXXXXXXXXXXXXXXXXXXXXXXXXXXXXXXXXXXXXXXXXXXXXXXX..XX..X..XXX.",
".XXXXXXXXXXXXXXXXXXXXXXXXXXXXXXXXXXXXXXXXXXXXXXXXXXXXXXXXXXXXXXXXX......X..XXX.",
" .XXXXXXXXXXXXXXXXXXXXXXXXXXXXXXXXXXXXXXXXXXXXXXXXXXXXXXXXXXXXXXXXo....oX..XX. ",
" .XXXXXXXXXXXXXXXXXXXXXXXXXXXXXXXXXXXXXXXXXXXXXXXXXXXXXXXXXXXXXXXXXXXXXXXXXXX. ",
"  .XXXXXXXXXXXXXXXXXXXXXXXXXXXXXXXXXXXXXXXXXXXXXXXXXXXXXXXXXXXXXXXXXXXXXXXXX.  ",
"  .XXXXXXXXXXXXXXXXXXXXXXXXXXXXXXXXXXXXXXXXXXXXXXXXXXXXXXXXXXXXXXXXXXXXXXXXX.  ",
"   ..XXXXXXXXXXXXXXXXXXXXXXXXXXXXXXXXXXXXXXXXXXXXXXXXXXXXXXXXXXXXXXXXXXXXX..   ",
"     ..XXXXXXXXXXXXXXXXXXXXXXXXXXXXXXXXXXXXXXXXXXXXXXXXXXXXXXXXXXXXXXXXX..     ",
"       .................................................................       "};
