/* XPM */
static char * Ten_Clubs_xpm[] = {
"79 123 11 1",
" 	c None",
".	c #000000000000",
"X	c #FFFFFFFFFFFF",
"o	c #BEFBBEFBBEFB",
"O	c #79E77DF779E7",
"+	c #18611C711861",
"@	c #DF7DDF7DDF7D",
"#	c #38E33CF338E3",
"$	c #9E799E799E79",
"%	c #D75CD75CD75C",
"&	c #59655D755965",
"       .................................................................       ",
"     ..XXXXXXXXXXXXXXXXXXXXXXXXXXXXXXXXXXXXXXXXXXXXXXXXXXXXXXXXXXXXXXXXX..     ",
"   ..XXXXXXXXXXXXXXXXXXXXXXXXXXXXXXXXXXXXXXXXXXXXXXXXXXXXXXXXXXXXXXXXXXXXX..   ",
"  .XXXXXXXXXXXXXXXXXXXXXXXXXXXXXXXXXXXXXXXXXXXXXXXXXXXXXXXXXXXXXXXXXXXXXXXXX.  ",
"  .XXXXXXXXXXXXXXXXXXXXXXXXXXXXXXXXXXXXXXXXXXXXXXXXXXXXXXXXXXXXXXXXXXXXXXXXX.  ",
" .XXXXXXXXXXXXXXXXXXXXXXXXXXXXXXXXXXXXXXXXXXXXXXXXXXXXXXXXXXXXXXXXXXXXXXXXXXX. ",
" .XX..Xo....oXXXXXXXXXXXXXXXXXXXXXXXXXXXXXXXXXXXXXXXXXXXXXXXXXXXXXXXXXXXXXXXX. ",
".XXX..X......XXXXXXXXXXXXXXXXXXXXXXXXXXXXXXXXXXXXXXXXXXXXXXXXXXXXXXXXXXXXXXXXX.",
".XXX..X..XX..XXXXXXXXXXXXXXXXXXXXXXXXXXXXXXXXXXXXXXXXXXXXXXXXXXXXXXXXXXXXXXXXX.",
".XXX..X..XX..XXXXXXXXXXXXXXXXXXXXXXXXXXXXXXXXXXXXXXXXXXXXXXXXXXXXXXXXXXXXXXXXX.",
".XXX..X..XX..XXXXXXXXXXXXXXXXXXXXXXXXXXXXXXXXXXXXXXXXXXXXXXXXXXXXXXXXXXXXXXXXX.",
".XXX..X..XX..XXXXXXXXXXXXXXXXXXXXXXXXXXXXXXXXXXXXXXXXXXXXXXXXXXXXXXXXXXXXXXXXX.",
".XXX..X..XX..XXXXXXXXXXXXXXXXXXXXXXXXXXXXXXXXXXXXXXXXXXXXXXXXXXXXXXXXXXXXXXXXX.",
".XXX..X..XX..XXXXXXXXXXXXXXXXXXXXXXXXXXXXXXXXXXXXXXXXXXXXXXXXXXXXXXXXXXXXXXXXX.",
".XXX..X..XX..XXXXXXXXXXXXXXXXXXXXXXXXXXXXXXXXXXXXXXXXXXXXXXXXXXXXXXXXXXXXXXXXX.",
".XXX..X..XX..XXXXXXXXO+.+OXXXXXXXXXXXXXXXXXXXXXXXXXXXO+.+OXXXXXXXXXXXXXXXXXXXX.",
".XXX..X..XX..XXXXXXXO.....OXXXXXXXXXXXXXXXXXXXXXXXXXO.....OXXXXXXXXXXXXXXXXXXX.",
".XXX..X..XX..XXXXXX@.......@XXXXXXXXXXXXXXXXXXXXXXX@.......@XXXXXXXXXXXXXXXXXX.",
".XXX..X......XXXXXXo.......oXXXXXXXXXXXXXXXXXXXXXXXo.......oXXXXXXXXXXXXXXXXXX.",
".XXX..Xo....oXXXXXX@.......@XXXXXXXXXXXXXXXXXXXXXXX@.......@XXXXXXXXXXXXXXXXXX.",
".XXXXXXXXXXXXXXX@o@X#.....#X@o@XXXXXXXXXXXXXXXXX@o@X#.....#X@o@XXXXXXXXXXXXXXX.",
".XXXXXXXXXXXXXXO...#@+...+@#...OXXXXXXXXXXXXXXXO...#@+...+@#...OXXXXXXXXXXXXXX.",
".XXXXXXXXXXXXXO.....+@+.+@+.....OXXXXXXXXXXXXXO.....+@+.+@+.....OXXXXXXXXXXXXX.",
".XXXXXXXoXXXXX+......+@.@+......+XXXXXXXXXXXXX+......+@.@+......+XXXXXXXXXXXXX.",
".XXXXX@+.+@XXX...................XXXXXXXXXXXXX...................XXXXXXXXXXXXX.",
".XXXXX$...$XXX+......+@.@+......+XXXXXXXXXXXXX+......+@.@+......+XXXXXXXXXXXXX.",
".XXX@$o...o$@XO.....+@X.X@+.....OXXXXXXXXXXXXXO.....+@X.X@+.....OXXXXXXXXXXXXX.",
".XXX+..O+O..+XXO...#@XX.XX@#...OXXXXXXXXXXXXXXXO...#@XX.XX@#...OXXXXXXXXXXXXXX.",
".XXo...+#+...oXX@o@XXX@.@XXX@o@XXXXXXO+.+OXXXXXX@o@XXX@.@XXX@o@XXXXXXXXXXXXXXX.",
".XXX+..oOo..+%%%%%%%%%o.oXXXXXXXXXXXO.....OXXXXXXXXXXXo.oXXXXXXXXX%%%%%XXXXXXX.",
".XXX@$@X&%@$@%%%%%%%%%&.&XXXXXXXXXX@.......@XXXXXXXXXX&.&XXXXXXXXX%%%%%XXXXXXX.",
".XXXXXXX.%%%%%%%%%%%%%+.+XXXXXXXXXXo.......oXXXXXXXXXX+.+XXXXXXXX%%%%%XXXXXXXX.",
".XXXXXXoOo%%%%%%%%%%%$#O#$XXXXXXXXX@.......@XXXXXXXXX$#O#$XXXXXX%%%%%XXXXXXXXX.",
".XXXXXXXXX%%%%%%%%%%%%%%%%XXXXXX@o@X#.....#X@o@XXXXXXXXXXXXXXXX%%%%%XXXXXXXXXX.",
".XXXXXXXXXX%%%%%%%%%%%%%%%%XXXXO...#@+...+@#...OXXXXXXXXXXXXXX%%%%%XXXXXXXXXXX.",
".XXXXXXXXXXX%%%%%%%%%%%%%%%%XXO.....+@+.+@+.....OXXXXXXXXXXXXX%%%%%XXXXXXXXXXX.",
".XXXXXXXXXXXX%%%%%%%%%%%%%%%%X+......+@.@+......+XXXXXXXXXXXX%%%%%XXXXXXXXXXXX.",
".XXXXXXXXXXXX%%%%%%%%%%%%%%%%X...................XXXXXXXXXXX%%%%%XXXXXXXXXXXXX.",
".XXXXXXXXXXXXX%%%%%%%%%%%%%%%%+......+@.@+......+XXXXXXXXXX%%%%%XXXXXXXXXXXXXX.",
".XXXXXXXXXXXXXX%%%%%%%%%%%%%%%O.....+@X.X@+.....OXXXXXXXXX%%%%%XXXXXXXXXXXXXXX.",
".XXXXXXXXXXXXXXX%%%%%%%%%%%%%%%O...#@XX.XX@#...OXXXXXXXXXX%%%%%XXXXXXXXXXXXXXX.",
".XXXXXXXXXXXXXXX%%%%%O+.+O%%%%%%@o@XXX@.@XXX@o@XXXXXXO+.+O%%%%XXXXXXXXXXXXXXXX.",
".XXXXXXXXXXXXXXXX%%%O.....O%%%%%%XXXXXo.oXXXXXXXXXXXO.....O%%XXXXXXXXXXXXXXXXX.",
".XXXXXXXXXXXXXXXXX%@.......@%%%%%%XXXX&.&XXXXXXXXXX@.......@XXXXXXXXXXXXXXXXXX.",
".XXXXXXXXXXXXXXXXXXo.......o%%%%%%%XXX+.+XXXXXXXXXXo.......oXXXXXXXXXXXXXXXXXX.",
".XXXXXXXXXXXXXXXXXX@.......@%%%%%%%XX$#O#$XXXXXXXXX@.......@XXXXXXXXXXXXXXXXXX.",
".XXXXXXXXXXXXXXX@o@X#.....#%@o@%%%%%XXXXXXXXXXXX@o@X#.....#X@o@XXXXXXXXXXXXXXX.",
".XXXXXXXXXXXXXXO...#@+...+@#...O%%%%%XXXXXXXXXXO...#@+...+@#...OXXXXXXXXXXXXXX.",
".XXXXXXXXXXXXXO.....+@+.+@+.....O%%%%%XXXXXXXXO.....+@+.+@+.....OXXXXXXXXXXXXX.",
".XXXXXXXXXXXXX+......+@.@+......+%%%%%XXXXXXXX+......+@.@+......+XXXXXXXXXXXXX.",
".XXXXXXXXXXXXX...................%%%%%%XXXXXXX...................XXXXXXXXXXXXX.",
".XXXXXXXXXXXXX+......+@.@+......+%%%%%%%XXXXXX+......+@.@+......+XXXXXXXXXXXXX.",
".XXXXXXXXXXXXXO.....+@X.X@+.....O%%%%%%%%XXXXXO.....+@X.X@+.....OXXXXXXXXXXXXX.",
".XXXXXXXXXXXXXXO...#@XX.X%@#...O%%%%%%%%%XXXXXXO...#@XX.XX@#...OXXXXXXXXXXXXXX.",
".XXXXXXXXXXXXXXX@o@XXX@.@X%%@o@%%%%%%%%%%%XXXX%%@o@XXX@.@XXX@o@XXXXXXXXXXXXXXX.",
".XXXXXXXXXXXXXXXXXXXXXo.oXX%%%%%%%%%%%%%%%%XX%%%%%XXXXo.oXXXXXXXXXXXXXXXXXXXXX.",
".XXXXXXXXXXXXXXXXXXXXX&.&XXX%%%%%%%%%%%%%%%XX%%%%%XXXX&.&XXXXXXXXXXXXXXXXXXXXX.",
".XXXXXXXXXXXXXXXXXXXXX+.+XXX%%%%%%%%%%%%%%XX%%%%%XXXXX+.+XXXXXXXXXXXXXXXXXXXXX.",
".XXXXXXXXXXXXXXXXXXXX$#O#$XXX%%%%%%%%%%%%XX%%%%%XXXXX$#O#$XXXXXXXXXXXXXXXXXXXX.",
".XXXXXXXXXXXXXXXXXXXXXXXXXXXXX%%%%%%%%%%XX%%%%%XXXXXXXXXXXXXXXXXXXXXXXXXXXXXXX.",
".XXXXXXXXXXXXXXXXXXXXXXXXXXXXXX%%%%%%%%XX%%%%%%XXXXXXXXXXXXXXXXXXXXXXXXXXXXXXX.",
".XXXXXXXXXXXXXXXXXXXXXXXXXXXXXX%%%%%%%XX%%%%%%%XXXXXXXXXXXXXXXXXXXXXXXXXXXXXXX.",
".XXXXXXXXXXXXXXXXXXXXXXXXXXXXXXX%%%%%%XX%%%%%%%%XXXXXXXXXXXXXXXXXXXXXXXXXXXXXX.",
".XXXXXXXXXXXXXXXXXXXXXXXXXXXXXXX%%%%%XX%%%%%%%%%%XXXXXXXXXXXXXXXXXXXXXXXXXXXXX.",
".XXXXXXXXXXXXXXXXXXXX$#O#$XXXXX%%%%%XX%%%%%%%%%%%%XXX$#O#$XXXXXXXXXXXXXXXXXXXX.",
".XXXXXXXXXXXXXXXXXXXXX+.+XXXXX%%%%%XX%%%%%%%%%%%%%XXXX+.+XXXXXXXXXXXXXXXXXXXXX.",
".XXXXXXXXXXXXXXXXXXXXX&.&XXXX%%%%%XX%%%%%%%%%%%%%%%XXX&.&XXXXXXXXXXXXXXXXXXXXX.",
".XXXXXXXXXXXXXXXXXXXXXo.oXXXX%%%%%XX%%%%%%%%%%%%%%%%XXo.oXXXXXXXXXXXXXXXXXXXXX.",
".XXXXXXXXXXXXXXX@o@XXX@.@XXX@o@%%XXXX%%%%%%%%%%%@o@%%X@.@XXX@o@XXXXXXXXXXXXXXX.",
".XXXXXXXXXXXXXXO...#@XX.XX@#...OXXXXX%%%%%%%%%%O...#@XX.XX@#...OXXXXXXXXXXXXXX.",
".XXXXXXXXXXXXXO.....+@X.X@+.....OXXXXX%%%%%%%%O.....+@X.X@+.....OXXXXXXXXXXXXX.",
".XXXXXXXXXXXXX+......+@.@+......+XXXXXX%%%%%%%+......+@.@+......+XXXXXXXXXXXXX.",
".XXXXXXXXXXXXX...................XXXXXXX%%%%%%...................XXXXXXXXXXXXX.",
".XXXXXXXXXXXXX+......+@.@+......+XXXXXXX%%%%%%+......+@.@+......+XXXXXXXXXXXXX.",
".XXXXXXXXXXXXXO.....+@+.+@+.....OXXXXXXXX%%%%%O.....+@+.+@+.....OXXXXXXXXXXXXX.",
".XXXXXXXXXXXXXXO...#@+...+@#...OXXXXXXXXXX%%%%%O...#@+...+@#...OXXXXXXXXXXXXXX.",
".XXXXXXXXXXXXXXX@o@X#.....#X@o@XXXXXXXXXXXX%%%%%@o@%#.....#X@o@XXXXXXXXXXXXXXX.",
".XXXXXXXXXXXXXXXXXX@.......@XXXXXXXXX$#O#$X%%%%%%%%@.......@XXXXXXXXXXXXXXXXXX.",
".XXXXXXXXXXXXXXXXXXo.......oXXXXXXXXXX+.+XXX%%%%%%%o.......oXXXXXXXXXXXXXXXXXX.",
".XXXXXXXXXXXXXXXXXX@.......@XXXXXXXXXX&.&XXXX%%%%%%@.......@%XXXXXXXXXXXXXXXXX.",
".XXXXXXXXXXXXXXXXX%%O.....OXXXXXXXXXXXo.oXXXXX%%%%%%O.....O%%%XXXXXXXXXXXXXXXX.",
".XXXXXXXXXXXXXXXX%%%%O+.+OXXXXXX@o@XXX@.@XXX@o@%%%%%%O+.+O%%%%XXXXXXXXXXXXXXXX.",
".XXXXXXXXXXXXXXX%%%%%XXXXXXXXXXO...#@XX.XX@#...O%%%%%%%%%%%%%%%XXXXXXXXXXXXXXX.",
".XXXXXXXXXXXXXXX%%%%%XXXXXXXXXO.....+@X.X@+.....O%%%%%%%%%%%%%%%XXXXXXXXXXXXXX.",
".XXXXXXXXXXXXXX%%%%%XXXXXXXXXX+......+@.@+......+%%%%%%%%%%%%%%%%XXXXXXXXXXXXX.",
".XXXXXXXXXXXXX%%%%%XXXXXXXXXXX...................%%%%%%%%%%%%%%%%XXXXXXXXXXXXX.",
".XXXXXXXXXXXX%%%%%XXXXXXXXXXXX+......+@.@+......+X%%%%%%%%%%%%%%%%XXXXXXXXXXXX.",
".XXXXXXXXXXX%%%%%XXXXXXXXXXXXXO.....+@+.+@+.....OXX%%%%%%%%%%%%%%%%XXXXXXXXXXX.",
".XXXXXXXXXXX%%%%%XXXXXXXXXXXXXXO...#@+...+@#...OXXXX%%%%%%%%%%%%%%%%XXXXXXXXXX.",
".XXXXXXXXXX%%%%%XXXXXXXXXXXXXXXX@o@X#.....#X@o@XXXXX%%%%%%%%%%%%%%%%XXXXXXXXXX.",
".XXXXXXXXX%%%%%XXXXXX$#O#$XXXXXXXXX@.......@XXXXXXXXX$#O#$%%%%%%%%%%%oOoXXXXXX.",
".XXXXXXXX%%%%%XXXXXXXX+.+XXXXXXXXXXo.......oXXXXXXXXXX+.+%%%%%%%%%%%%%.XXXXXXX.",
".XXXXXXX%%%%%XXXXXXXXX&.&XXXXXXXXXX@.......@XXXXXXXXXX&.&%%%%%%%%%@$@%&X@$@XXX.",
".XXXXXXXXXXXXXXXXXXXXXo.oXXXXXXXXXXXO.....OXXXXXXXXXXXo.oXXXXXXXXX+..oOo..+XXX.",
".XXXXXXXXXXXXXXX@o@XXX@.@XXX@o@XXXXXXO+.+OXXXXXX@o@XXX@.@XXX@o@XXo...+#+...oXX.",
".XXXXXXXXXXXXXXO...#@XX.XX@#...OXXXXXXXXXXXXXXXO...#@XX.XX@#...OXX+..O+O..+XXX.",
".XXXXXXXXXXXXXO.....+@X.X@+.....OXXXXXXXXXXXXXO.....+@X.X@+.....OX@$o...o$@XXX.",
".XXXXXXXXXXXXX+......+@.@+......+XXXXXXXXXXXXX+......+@.@+......+XXX$...$XXXXX.",
".XXXXXXXXXXXXX...................XXXXXXXXXXXXX...................XXX@+.+@XXXXX.",
".XXXXXXXXXXXXX+......+@.@+......+XXXXXXXXXXXXX+......+@.@+......+XXXXXoXXXXXXX.",
".XXXXXXXXXXXXXO.....+@+.+@+.....OXXXXXXXXXXXXXO.....+@+.+@+.....OXXXXXXXXXXXXX.",
".XXXXXXXXXXXXXXO...#@+...+@#...OXXXXXXXXXXXXXXXO...#@+...+@#...OXXXXXXXXXXXXXX.",
".XXXXXXXXXXXXXXX@o@X#.....#X@o@XXXXXXXXXXXXXXXXX@o@X#.....#X@o@XXXXXXXXXXXXXXX.",
".XXXXXXXXXXXXXXXXXX@.......@XXXXXXXXXXXXXXXXXXXXXXX@.......@XXXXXXo....oX..XXX.",
".XXXXXXXXXXXXXXXXXXo.......oXXXXXXXXXXXXXXXXXXXXXXXo.......oXXXXXX......X..XXX.",
".XXXXXXXXXXXXXXXXXX@.......@XXXXXXXXXXXXXXXXXXXXXXX@.......@XXXXXX..XX..X..XXX.",
".XXXXXXXXXXXXXXXXXXXO.....OXXXXXXXXXXXXXXXXXXXXXXXXXO.....OXXXXXXX..XX..X..XXX.",
".XXXXXXXXXXXXXXXXXXXXO+.+OXXXXXXXXXXXXXXXXXXXXXXXXXXXO+.+OXXXXXXXX..XX..X..XXX.",
".XXXXXXXXXXXXXXXXXXXXXXXXXXXXXXXXXXXXXXXXXXXXXXXXXXXXXXXXXXXXXXXXX..XX..X..XXX.",
".XXXXXXXXXXXXXXXXXXXXXXXXXXXXXXXXXXXXXXXXXXXXXXXXXXXXXXXXXXXXXXXXX..XX..X..XXX.",
".XXXXXXXXXXXXXXXXXXXXXXXXXXXXXXXXXXXXXXXXXXXXXXXXXXXXXXXXXXXXXXXXX..XX..X..XXX.",
".XXXXXXXXXXXXXXXXXXXXXXXXXXXXXXXXXXXXXXXXXXXXXXXXXXXXXXXXXXXXXXXXX..XX..X..XXX.",
".XXXXXXXXXXXXXXXXXXXXXXXXXXXXXXXXXXXXXXXXXXXXXXXXXXXXXXXXXXXXXXXXX..XX..X..XXX.",
".XXXXXXXXXXXXXXXXXXXXXXXXXXXXXXXXXXXXXXXXXXXXXXXXXXXXXXXXXXXXXXXXX..XX..X..XXX.",
".XXXXXXXXXXXXXXXXXXXXXXXXXXXXXXXXXXXXXXXXXXXXXXXXXXXXXXXXXXXXXXXXX..XX..X..XXX.",
".XXXXXXXXXXXXXXXXXXXXXXXXXXXXXXXXXXXXXXXXXXXXXXXXXXXXXXXXXXXXXXXXX......X..XXX.",
" .XXXXXXXXXXXXXXXXXXXXXXXXXXXXXXXXXXXXXXXXXXXXXXXXXXXXXXXXXXXXXXXXo....oX..XX. ",
" .XXXXXXXXXXXXXXXXXXXXXXXXXXXXXXXXXXXXXXXXXXXXXXXXXXXXXXXXXXXXXXXXXXXXXXXXXXX. ",
"  .XXXXXXXXXXXXXXXXXXXXXXXXXXXXXXXXXXXXXXXXXXXXXXXXXXXXXXXXXXXXXXXXXXXXXXXXX.  ",
"  .XXXXXXXXXXXXXXXXXXXXXXXXXXXXXXXXXXXXXXXXXXXXXXXXXXXXXXXXXXXXXXXXXXXXXXXXX.  ",
"   ..XXXXXXXXXXXXXXXXXXXXXXXXXXXXXXXXXXXXXXXXXXXXXXXXXXXXXXXXXXXXXXXXXXXXX..   ",
"     ..XXXXXXXXXXXXXXXXXXXXXXXXXXXXXXXXXXXXXXXXXXXXXXXXXXXXXXXXXXXXXXXXX..     ",
"       .................................................................       "};
