/* XPM */
static char * Ten_Diamonds_xpm[] = {
"79 123 12 1",
" 	c None",
".	c #000000000000",
"X	c #FFFFFFFFFFFF",
"o	c #CF3C00000000",
"O	c #F7DEBEFBBEFB",
"+	c #E79D7DF779E7",
"@	c #EFBE9E799E79",
"#	c #FFFFDF7DDF7D",
"$	c #DF7D3CF338E3",
"%	c #DF7D5D755965",
"&	c #D75C1C711861",
"*	c #D75CD75CD75C",
"       .................................................................       ",
"     ..XXXXXXXXXXXXXXXXXXXXXXXXXXXXXXXXXXXXXXXXXXXXXXXXXXXXXXXXXXXXXXXXX..     ",
"   ..XXXXXXXXXXXXXXXXXXXXXXXXXXXXXXXXXXXXXXXXXXXXXXXXXXXXXXXXXXXXXXXXXXXXX..   ",
"  .XXXXXXXXXXXXXXXXXXXXXXXXXXXXXXXXXXXXXXXXXXXXXXXXXXXXXXXXXXXXXXXXXXXXXXXXX.  ",
"  .XXXXXXXXXXXXXXXXXXXXXXXXXXXXXXXXXXXXXXXXXXXXXXXXXXXXXXXXXXXXXXXXXXXXXXXXX.  ",
" .XXXXXXXXXXXXXXXXXXXXXXXXXXXXXXXXXXXXXXXXXXXXXXXXXXXXXXXXXXXXXXXXXXXXXXXXXXX. ",
" .XXooXOooooOXXXXXXXXXXXXXXXXXXXXXXXXXXXXXXXXXXXXXXXXXXXXXXXXXXXXXXXXXXXXXXXX. ",
".XXXooXooooooXXXXXXXXXXXXXXXXXXXXXXXXXXXXXXXXXXXXXXXXXXXXXXXXXXXXXXXXXXXXXXXXX.",
".XXXooXooXXooXXXXXXXXXXXXXXXXXXXXXXXXXXXXXXXXXXXXXXXXXXXXXXXXXXXXXXXXXXXXXXXXX.",
".XXXooXooXXooXXXXXXXXXXXXXXXXXXXXXXXXXXXXXXXXXXXXXXXXXXXXXXXXXXXXXXXXXXXXXXXXX.",
".XXXooXooXXooXXXXXXXXXXXXXXXXXXXXXXXXXXXXXXXXXXXXXXXXXXXXXXXXXXXXXXXXXXXXXXXXX.",
".XXXooXooXXooXXXXXXXXXXXXXXXXXXXXXXXXXXXXXXXXXXXXXXXXXXXXXXXXXXXXXXXXXXXXXXXXX.",
".XXXooXooXXooXXXXXXXXXX+XXXXXXXXXXXXXXXXXXXXXXXXXXXXXXX+XXXXXXXXXXXXXXXXXXXXXX.",
".XXXooXooXXooXXXXXXXXX@o@XXXXXXXXXXXXXXXXXXXXXXXXXXXXX@o@XXXXXXXXXXXXXXXXXXXXX.",
".XXXooXooXXooXXXXXXXX#ooo#XXXXXXXXXXXXXXXXXXXXXXXXXXX#ooo#XXXXXXXXXXXXXXXXXXXX.",
".XXXooXooXXooXXXXXXXX$ooo$XXXXXXXXXXXXXXXXXXXXXXXXXXX$ooo$XXXXXXXXXXXXXXXXXXXX.",
".XXXooXooXXooXXXXXXX%ooooo%XXXXXXXXXXXXXXXXXXXXXXXXX%ooooo%XXXXXXXXXXXXXXXXXXX.",
".XXXooXooXXooXXXXXX+ooooooo+XXXXXXXXXXXXXXXXXXXXXXX+ooooooo+XXXXXXXXXXXXXXXXXX.",
".XXXooXooooooXXXXX+ooooooooo+XXXXXXXXXXXXXXXXXXXXX+ooooooooo+XXXXXXXXXXXXXXXXX.",
".XXXooXOooooOXXXX%ooooooooooo%XXXXXXXXXXXXXXXXXXX%ooooooooooo%XXXXXXXXXXXXXXXX.",
".XXXXXXXXXXXXXX#$ooooooooooooo$#XXXXXXXXXXXXXXX#$ooooooooooooo$#XXXXXXXXXXXXXX.",
".XXXXXXXXXXXXX@ooooooooooooooooo@XXXXXXXXXXXXX@ooooooooooooooooo@XXXXXXXXXXXXX.",
".XXXXXXX@XXXX+ooooooooooooooooooo+XXXXXXXXXXX+ooooooooooooooooooo+XXXXXXXXXXXX.",
".XXXXXXOoOXXXX@ooooooooooooooooo@XXXXXXXXXXXXX@ooooooooooooooooo@XXXXXXXXXXXXX.",
".XXXXX#&o&#XXXX#$ooooooooooooo$#XXXXXXXXXXXXXXX#$ooooooooooooo$#XXXXXXXXXXXXXX.",
".XXXX#&ooo&#XXXXX%ooooooooooo%XXXXXXXXX+XXXXXXXXX%ooooooooooo%XXXXXXXXXXXXXXXX.",
".XXXO&ooooo&OXXXXX+ooooooooo+XXXXXXXXX@o@XXXXXXXXX+ooooooooo+XXXXXXXXXXXXXXXXX.",
".XX@ooooooooo@XXXXX+ooooooo+XXXXXXXXX#ooo#XXXXXXXXX+ooooooo+XXXXXXXXXXXXXXXXXX.",
".XXXO&ooooo&OXXXXXXX%ooooo%XXXXXXXXXX$ooo$XXXXXXXXXX%ooooo%XXXXXXXXXXXXXXXXXXX.",
".XXXX#&ooo&#*********$ooo$XXXXXXXXXX%ooooo%XXXXXXXXXX$ooo$XXXXXXXX*****XXXXXXX.",
".XXXXX#&o&#**********#ooo#XXXXXXXXX+ooooooo+XXXXXXXXX#ooo#XXXXXXXX*****XXXXXXX.",
".XXXXXXOoO************@o@XXXXXXXXX+ooooooooo+XXXXXXXXX@o@XXXXXXXX*****XXXXXXXX.",
".XXXXXXX@X*************+**XXXXXXX%ooooooooooo%XXXXXXXXX+XXXXXXXX*****XXXXXXXXX.",
".XXXXXXXXX****************XXXXX#$ooooooooooooo$#XXXXXXXXXXXXXXX*****XXXXXXXXXX.",
".XXXXXXXXXX****************XXX@ooooooooooooooooo@XXXXXXXXXXXXX*****XXXXXXXXXXX.",
".XXXXXXXXXXX****************X+ooooooooooooooooooo+XXXXXXXXXXXX*****XXXXXXXXXXX.",
".XXXXXXXXXXXX****************X@ooooooooooooooooo@XXXXXXXXXXXX*****XXXXXXXXXXXX.",
".XXXXXXXXXXXX****************XX#$ooooooooooooo$#XXXXXXXXXXXX*****XXXXXXXXXXXXX.",
".XXXXXXXXXXXXX*********+******XXX%ooooooooooo%XXXXXXXXX+XXX*****XXXXXXXXXXXXXX.",
".XXXXXXXXXXXXXX*******@o@******XXX+ooooooooo+XXXXXXXXX@o@X*****XXXXXXXXXXXXXXX.",
".XXXXXXXXXXXXXXX*****#ooo#******XXX+ooooooo+XXXXXXXXX#ooo#*****XXXXXXXXXXXXXXX.",
".XXXXXXXXXXXXXXX*****$ooo$******XXXX%ooooo%XXXXXXXXXX$ooo$****XXXXXXXXXXXXXXXX.",
".XXXXXXXXXXXXXXXX***%ooooo%******XXXX$ooo$XXXXXXXXXX%ooooo%**XXXXXXXXXXXXXXXXX.",
".XXXXXXXXXXXXXXXXX*+ooooooo+******XXX#ooo#XXXXXXXXX+ooooooo+XXXXXXXXXXXXXXXXXX.",
".XXXXXXXXXXXXXXXXX+ooooooooo+******XXX@o@XXXXXXXXX+ooooooooo+XXXXXXXXXXXXXXXXX.",
".XXXXXXXXXXXXXXXX%ooooooooooo%*****XXXX+XXXXXXXXX%ooooooooooo%XXXXXXXXXXXXXXXX.",
".XXXXXXXXXXXXXX#$ooooooooooooo$#****XXXXXXXXXXX#$ooooooooooooo$#XXXXXXXXXXXXXX.",
".XXXXXXXXXXXXX@ooooooooooooooooo@****XXXXXXXXX@ooooooooooooooooo@XXXXXXXXXXXXX.",
".XXXXXXXXXXXX+ooooooooooooooooooo+****XXXXXXX+ooooooooooooooooooo+XXXXXXXXXXXX.",
".XXXXXXXXXXXXX@ooooooooooooooooo@*****XXXXXXXX@ooooooooooooooooo@XXXXXXXXXXXXX.",
".XXXXXXXXXXXXXX#$ooooooooooooo$#*******XXXXXXXX#$ooooooooooooo$#XXXXXXXXXXXXXX.",
".XXXXXXXXXXXXXXXX%ooooooooooo%**********XXXXXXXXX%ooooooooooo%XXXXXXXXXXXXXXXX.",
".XXXXXXXXXXXXXXXXX+ooooooooo+************XXXXXXX**+ooooooooo+XXXXXXXXXXXXXXXXX.",
".XXXXXXXXXXXXXXXXXX+ooooooo+*************XXXXXX****+ooooooo+XXXXXXXXXXXXXXXXXX.",
".XXXXXXXXXXXXXXXXXXX%ooooo%***************XXXX*****X%ooooo%XXXXXXXXXXXXXXXXXXX.",
".XXXXXXXXXXXXXXXXXXXX$ooo$X****************XX*****XXX$ooo$XXXXXXXXXXXXXXXXXXXX.",
".XXXXXXXXXXXXXXXXXXXX#ooo#XX***************XX*****XXX#ooo#XXXXXXXXXXXXXXXXXXXX.",
".XXXXXXXXXXXXXXXXXXXXX@o@XXX**************XX*****XXXXX@o@XXXXXXXXXXXXXXXXXXXXX.",
".XXXXXXXXXXXXXXXXXXXXXX+XXXXX************XX*****XXXXXXX+XXXXXXXXXXXXXXXXXXXXXX.",
".XXXXXXXXXXXXXXXXXXXXXXXXXXXXX**********XX*****XXXXXXXXXXXXXXXXXXXXXXXXXXXXXXX.",
".XXXXXXXXXXXXXXXXXXXXXXXXXXXXXX********XX******XXXXXXXXXXXXXXXXXXXXXXXXXXXXXXX.",
".XXXXXXXXXXXXXXXXXXXXXXXXXXXXXX*******XX*******XXXXXXXXXXXXXXXXXXXXXXXXXXXXXXX.",
".XXXXXXXXXXXXXXXXXXXXXXXXXXXXXXX******XX********XXXXXXXXXXXXXXXXXXXXXXXXXXXXXX.",
".XXXXXXXXXXXXXXXXXXXXXXXXXXXXXXX*****XX**********XXXXXXXXXXXXXXXXXXXXXXXXXXXXX.",
".XXXXXXXXXXXXXXXXXXXXXX+XXXXXXX*****XX************XXXXX+XXXXXXXXXXXXXXXXXXXXXX.",
".XXXXXXXXXXXXXXXXXXXXX@o@XXXXX*****XX*************XXXX@o@XXXXXXXXXXXXXXXXXXXXX.",
".XXXXXXXXXXXXXXXXXXXX#ooo#XXX*****XX***************XX#ooo#XXXXXXXXXXXXXXXXXXXX.",
".XXXXXXXXXXXXXXXXXXXX$ooo$XXX*****XX****************X$ooo$XXXXXXXXXXXXXXXXXXXX.",
".XXXXXXXXXXXXXXXXXXX%ooooo%X*****XXXX***************%ooooo%XXXXXXXXXXXXXXXXXXX.",
".XXXXXXXXXXXXXXXXXX+ooooooo+****XXXXX**************+ooooooo+XXXXXXXXXXXXXXXXXX.",
".XXXXXXXXXXXXXXXXX+ooooooooo+**XXXXXXX************+ooooooooo+XXXXXXXXXXXXXXXXX.",
".XXXXXXXXXXXXXXXX%ooooooooooo%XXXXXXXXX**********%ooooooooooo%XXXXXXXXXXXXXXXX.",
".XXXXXXXXXXXXXX#$ooooooooooooo$#XXXXXXXX*******#$ooooooooooooo$#XXXXXXXXXXXXXX.",
".XXXXXXXXXXXXX@ooooooooooooooooo@XXXXXXX******@ooooooooooooooooo@XXXXXXXXXXXXX.",
".XXXXXXXXXXXX+ooooooooooooooooooo+XXXXXXX****+ooooooooooooooooooo+XXXXXXXXXXXX.",
".XXXXXXXXXXXXX@ooooooooooooooooo@XXXXXXXXX****@ooooooooooooooooo@XXXXXXXXXXXXX.",
".XXXXXXXXXXXXXX#$ooooooooooooo$#XXXXXXXXXXX****#$ooooooooooooo$#XXXXXXXXXXXXXX.",
".XXXXXXXXXXXXXXXX%ooooooooooo%XXXXXXXXX+XXX******%ooooooooooo%XXXXXXXXXXXXXXXX.",
".XXXXXXXXXXXXXXXXX+ooooooooo+XXXXXXXXX@o@XXX******+ooooooooo+XXXXXXXXXXXXXXXXX.",
".XXXXXXXXXXXXXXXXXX+ooooooo+XXXXXXXXX#ooo#XXX******+ooooooo+*XXXXXXXXXXXXXXXXX.",
".XXXXXXXXXXXXXXXXX**%ooooo%XXXXXXXXXX$ooo$XXXX******%ooooo%***XXXXXXXXXXXXXXXX.",
".XXXXXXXXXXXXXXXX****$ooo$XXXXXXXXXX%ooooo%XXX*******$ooo$****XXXXXXXXXXXXXXXX.",
".XXXXXXXXXXXXXXX*****#ooo#XXXXXXXXX+ooooooo+XXX******#ooo#*****XXXXXXXXXXXXXXX.",
".XXXXXXXXXXXXXXX*****X@o@XXXXXXXXX+ooooooooo+XXX******@o@*******XXXXXXXXXXXXXX.",
".XXXXXXXXXXXXXX*****XXX+XXXXXXXXX%ooooooooooo%XXX******+*********XXXXXXXXXXXXX.",
".XXXXXXXXXXXXX*****XXXXXXXXXXXX#$ooooooooooooo$#X****************XXXXXXXXXXXXX.",
".XXXXXXXXXXXX*****XXXXXXXXXXXX@ooooooooooooooooo@X****************XXXXXXXXXXXX.",
".XXXXXXXXXXX*****XXXXXXXXXXXX+ooooooooooooooooooo+X****************XXXXXXXXXXX.",
".XXXXXXXXXXX*****XXXXXXXXXXXXX@ooooooooooooooooo@XXX****************XXXXXXXXXX.",
".XXXXXXXXXX*****XXXXXXXXXXXXXXX#$ooooooooooooo$#XXXX****************XXXXXXXXXX.",
".XXXXXXXXX*****XXXXXXXX+XXXXXXXXX%ooooooooooo%XXXXXXX**+*************X@XXXXXXX.",
".XXXXXXXX*****XXXXXXXX@o@XXXXXXXXX+ooooooooo+XXXXXXXXX@o@************OoOXXXXXX.",
".XXXXXXX*****XXXXXXXX#ooo#XXXXXXXXX+ooooooo+XXXXXXXXX#ooo#**********#&o&#XXXXX.",
".XXXXXXXXXXXXXXXXXXXX$ooo$XXXXXXXXXX%ooooo%XXXXXXXXXX$ooo$XXXXXXXXX#&ooo&#XXXX.",
".XXXXXXXXXXXXXXXXXXX%ooooo%XXXXXXXXXX$ooo$XXXXXXXXXX%ooooo%XXXXXXXO&ooooo&OXXX.",
".XXXXXXXXXXXXXXXXXX+ooooooo+XXXXXXXXX#ooo#XXXXXXXXX+ooooooo+XXXXX@ooooooooo@XX.",
".XXXXXXXXXXXXXXXXX+ooooooooo+XXXXXXXXX@o@XXXXXXXXX+ooooooooo+XXXXXO&ooooo&OXXX.",
".XXXXXXXXXXXXXXXX%ooooooooooo%XXXXXXXXX+XXXXXXXXX%ooooooooooo%XXXXX#&ooo&#XXXX.",
".XXXXXXXXXXXXXX#$ooooooooooooo$#XXXXXXXXXXXXXXX#$ooooooooooooo$#XXXX#&o&#XXXXX.",
".XXXXXXXXXXXXX@ooooooooooooooooo@XXXXXXXXXXXXX@ooooooooooooooooo@XXXXOoOXXXXXX.",
".XXXXXXXXXXXX+ooooooooooooooooooo+XXXXXXXXXXX+ooooooooooooooooooo+XXXX@XXXXXXX.",
".XXXXXXXXXXXXX@ooooooooooooooooo@XXXXXXXXXXXXX@ooooooooooooooooo@XXXXXXXXXXXXX.",
".XXXXXXXXXXXXXX#$ooooooooooooo$#XXXXXXXXXXXXXXX#$ooooooooooooo$#XXXXXXXXXXXXXX.",
".XXXXXXXXXXXXXXXX%ooooooooooo%XXXXXXXXXXXXXXXXXXX%ooooooooooo%XXXXOooooOXooXXX.",
".XXXXXXXXXXXXXXXXX+ooooooooo+XXXXXXXXXXXXXXXXXXXXX+ooooooooo+XXXXXooooooXooXXX.",
".XXXXXXXXXXXXXXXXXX+ooooooo+XXXXXXXXXXXXXXXXXXXXXXX+ooooooo+XXXXXXooXXooXooXXX.",
".XXXXXXXXXXXXXXXXXXX%ooooo%XXXXXXXXXXXXXXXXXXXXXXXXX%ooooo%XXXXXXXooXXooXooXXX.",
".XXXXXXXXXXXXXXXXXXXX$ooo$XXXXXXXXXXXXXXXXXXXXXXXXXXX$ooo$XXXXXXXXooXXooXooXXX.",
".XXXXXXXXXXXXXXXXXXXX#ooo#XXXXXXXXXXXXXXXXXXXXXXXXXXX#ooo#XXXXXXXXooXXooXooXXX.",
".XXXXXXXXXXXXXXXXXXXXX@o@XXXXXXXXXXXXXXXXXXXXXXXXXXXXX@o@XXXXXXXXXooXXooXooXXX.",
".XXXXXXXXXXXXXXXXXXXXXX+XXXXXXXXXXXXXXXXXXXXXXXXXXXXXXX+XXXXXXXXXXooXXooXooXXX.",
".XXXXXXXXXXXXXXXXXXXXXXXXXXXXXXXXXXXXXXXXXXXXXXXXXXXXXXXXXXXXXXXXXooXXooXooXXX.",
".XXXXXXXXXXXXXXXXXXXXXXXXXXXXXXXXXXXXXXXXXXXXXXXXXXXXXXXXXXXXXXXXXooXXooXooXXX.",
".XXXXXXXXXXXXXXXXXXXXXXXXXXXXXXXXXXXXXXXXXXXXXXXXXXXXXXXXXXXXXXXXXooXXooXooXXX.",
".XXXXXXXXXXXXXXXXXXXXXXXXXXXXXXXXXXXXXXXXXXXXXXXXXXXXXXXXXXXXXXXXXooXXooXooXXX.",
".XXXXXXXXXXXXXXXXXXXXXXXXXXXXXXXXXXXXXXXXXXXXXXXXXXXXXXXXXXXXXXXXXooooooXooXXX.",
" .XXXXXXXXXXXXXXXXXXXXXXXXXXXXXXXXXXXXXXXXXXXXXXXXXXXXXXXXXXXXXXXXOooooOXooXX. ",
" .XXXXXXXXXXXXXXXXXXXXXXXXXXXXXXXXXXXXXXXXXXXXXXXXXXXXXXXXXXXXXXXXXXXXXXXXXXX. ",
"  .XXXXXXXXXXXXXXXXXXXXXXXXXXXXXXXXXXXXXXXXXXXXXXXXXXXXXXXXXXXXXXXXXXXXXXXXX.  ",
"  .XXXXXXXXXXXXXXXXXXXXXXXXXXXXXXXXXXXXXXXXXXXXXXXXXXXXXXXXXXXXXXXXXXXXXXXXX.  ",
"   ..XXXXXXXXXXXXXXXXXXXXXXXXXXXXXXXXXXXXXXXXXXXXXXXXXXXXXXXXXXXXXXXXXXXXX..   ",
"     ..XXXXXXXXXXXXXXXXXXXXXXXXXXXXXXXXXXXXXXXXXXXXXXXXXXXXXXXXXXXXXXXXX..     ",
"       .................................................................       "};
