/* XPM */
static char * Ten_Hearts_xpm[] = {
"79 123 12 1",
" 	c None",
".	c #000000000000",
"X	c #FFFFFFFFFFFF",
"o	c #CF3C00000000",
"O	c #F7DEBEFBBEFB",
"+	c #FFFFDF7DDF7D",
"@	c #DF7D3CF338E3",
"#	c #DF7D5D755965",
"$	c #D75C1C711861",
"%	c #EFBE9E799E79",
"&	c #E79D7DF779E7",
"*	c #D75CD75CD75C",
"       .................................................................       ",
"     ..XXXXXXXXXXXXXXXXXXXXXXXXXXXXXXXXXXXXXXXXXXXXXXXXXXXXXXXXXXXXXXXXX..     ",
"   ..XXXXXXXXXXXXXXXXXXXXXXXXXXXXXXXXXXXXXXXXXXXXXXXXXXXXXXXXXXXXXXXXXXXXX..   ",
"  .XXXXXXXXXXXXXXXXXXXXXXXXXXXXXXXXXXXXXXXXXXXXXXXXXXXXXXXXXXXXXXXXXXXXXXXXX.  ",
"  .XXXXXXXXXXXXXXXXXXXXXXXXXXXXXXXXXXXXXXXXXXXXXXXXXXXXXXXXXXXXXXXXXXXXXXXXX.  ",
" .XXXXXXXXXXXXXXXXXXXXXXXXXXXXXXXXXXXXXXXXXXXXXXXXXXXXXXXXXXXXXXXXXXXXXXXXXXX. ",
" .XXooXOooooOXXXXXXXXXXXXXXXXXXXXXXXXXXXXXXXXXXXXXXXXXXXXXXXXXXXXXXXXXXXXXXXX. ",
".XXXooXooooooXXXXXXXXXXXXXXXXXXXXXXXXXXXXXXXXXXXXXXXXXXXXXXXXXXXXXXXXXXXXXXXXX.",
".XXXooXooXXooXXXXXXXXXXXXXXXXXXXXXXXXXXXXXXXXXXXXXXXXXXXXXXXXXXXXXXXXXXXXXXXXX.",
".XXXooXooXXooXXXXXXXXXXXXXXXXXXXXXXXXXXXXXXXXXXXXXXXXXXXXXXXXXXXXXXXXXXXXXXXXX.",
".XXXooXooXXooXXXXXXXXXXXXXXXXXXXXXXXXXXXXXXXXXXXXXXXXXXXXXXXXXXXXXXXXXXXXXXXXX.",
".XXXooXooXXooXXXXXXXXXXXXXXXXXXXXXXXXXXXXXXXXXXXXXXXXXXXXXXXXXXXXXXXXXXXXXXXXX.",
".XXXooXooXXooXXXXXXXXXXXXXXXXXXXXXXXXXXXXXXXXXXXXXXXXXXXXXXXXXXXXXXXXXXXXXXXXX.",
".XXXooXooXXooXXXXXXXXXXXXXXXXXXXXXXXXXXXXXXXXXXXXXXXXXXXXXXXXXXXXXXXXXXXXXXXXX.",
".XXXooXooXXooXXXXXXXXXXXXXXXXXXXXXXXXXXXXXXXXXXXXXXXXXXXXXXXXXXXXXXXXXXXXXXXXX.",
".XXXooXooXXooXXXXX+O+XXXXX+O+XXXXXXXXXXXXXXXXXXXXX+O+XXXXX+O+XXXXXXXXXXXXXXXXX.",
".XXXooXooXXooXXXO@ooo#+X+#ooo@OXXXXXXXXXXXXXXXXXO@ooo#+X+#ooo@OXXXXXXXXXXXXXXX.",
".XXXooXooXXooXX+oooooo$X$oooooo+XXXXXXXXXXXXXXX+oooooo$X$oooooo+XXXXXXXXXXXXXX.",
".XXXooXooooooXX#ooooooo@ooooooo#XXXXXXXXXXXXXXX#ooooooo@ooooooo#XXXXXXXXXXXXXX.",
".XXXooXOooooOXXoooooooooooooooooXXXXXXXXXXXXXXXoooooooooooooooooXXXXXXXXXXXXXX.",
".XXXXXXXXXXXXXXoooooooooooooooooXXXXXXXXXXXXXXXoooooooooooooooooXXXXXXXXXXXXXX.",
".XXXXXXXXXXXXXX@ooooooooooooooo@XXXXXXXXXXXXXXX@ooooooooooooooo@XXXXXXXXXXXXXX.",
".XXXXXXXXXXXXXXOoooooooooooooooOXXXXXXXXXXXXXXXOoooooooooooooooOXXXXXXXXXXXXXX.",
".XXXXXXXXXXXXXXX%ooooooooooooo%XXXXXXXXXXXXXXXXX%ooooooooooooo%XXXXXXXXXXXXXXX.",
".XXXX#$&X&$#XXXXX#ooooooooooo#XXXXXXXXXXXXXXXXXXX#ooooooooooo#XXXXXXXXXXXXXXXX.",
".XXX&ooo$ooo&XXXXX#ooooooooo#XXXXXXXXXXXXXXXXXXXXX#ooooooooo#XXXXXXXXXXXXXXXXX.",
".XXX@ooooooo@XXXXXX@ooooooo@XXXXXXXXXXXXXXXXXXXXXXX@ooooooo@XXXXXXXXXXXXXXXXXX.",
".XXX%ooooooo%XXXXXX+$ooooo$+XXXXXXXXXXXXXXXXXXXXXXX+$ooooo$+XXXXXXXXXXXXXXXXXX.",
".XXXX&ooooo&XXXXXXXXOoooooOXXXXXXX+O+XXXXX+O+XXXXXXXOoooooOXXXXXXXXXXXXXXXXXXX.",
".XXXXX#ooo#**********&ooo&XXXXXXO@ooo#+X+#ooo@OXXXXXX&ooo&XXXXXXXX*****XXXXXXX.",
".XXXXXX$o$************$o$XXXXXX+oooooo$X$oooooo+XXXXXX$o$XXXXXXXXX*****XXXXXXX.",
".XXXXXXOoO************+o+XXXXXX#ooooooo@ooooooo#XXXXXX+o+XXXXXXXX*****XXXXXXXX.",
".XXXXXXXOX*************%**XXXXXoooooooooooooooooXXXXXXX%XXXXXXXX*****XXXXXXXXX.",
".XXXXXXXXX****************XXXXXoooooooooooooooooXXXXXXXXXXXXXXX*****XXXXXXXXXX.",
".XXXXXXXXXX****************XXXX@ooooooooooooooo@XXXXXXXXXXXXXX*****XXXXXXXXXXX.",
".XXXXXXXXXXX****************XXXOoooooooooooooooOXXXXXXXXXXXXXX*****XXXXXXXXXXX.",
".XXXXXXXXXXXX****************XXX%ooooooooooooo%XXXXXXXXXXXXXX*****XXXXXXXXXXXX.",
".XXXXXXXXXXXX****************XXXX#ooooooooooo#XXXXXXXXXXXXXX*****XXXXXXXXXXXXX.",
".XXXXXXXXXXXXX****************XXXX#ooooooooo#XXXXXXXXXXXXXX*****XXXXXXXXXXXXXX.",
".XXXXXXXXXXXXXX****************XXXX@ooooooo@XXXXXXXXXXXXXX*****XXXXXXXXXXXXXXX.",
".XXXXXXXXXXXXXXX****************XXX+$ooooo$+XXXXXXXXXXXXXX*****XXXXXXXXXXXXXXX.",
".XXXXXXXXXXXXXXX**+O+*****+O+***XXXXOoooooOXXXXXXX+O+XXXX*+O+*XXXXXXXXXXXXXXXX.",
".XXXXXXXXXXXXXXXO@ooo#+*+#ooo@O**XXXX&ooo&XXXXXXO@ooo#+X+#ooo@OXXXXXXXXXXXXXXX.",
".XXXXXXXXXXXXXX+oooooo$*$oooooo+**XXXX$o$XXXXXX+oooooo$*$oooooo+XXXXXXXXXXXXXX.",
".XXXXXXXXXXXXXX#ooooooo@ooooooo#***XXX+o+XXXXXX#ooooooo@ooooooo#XXXXXXXXXXXXXX.",
".XXXXXXXXXXXXXXooooooooooooooooo***XXXX%XXXXXXXoooooooooooooooooXXXXXXXXXXXXXX.",
".XXXXXXXXXXXXXXooooooooooooooooo****XXXXXXXXXXXoooooooooooooooooXXXXXXXXXXXXXX.",
".XXXXXXXXXXXXXX@ooooooooooooooo@*****XXXXXXXXXX@ooooooooooooooo@XXXXXXXXXXXXXX.",
".XXXXXXXXXXXXXXOoooooooooooooooO******XXXXXXXXXOoooooooooooooooOXXXXXXXXXXXXXX.",
".XXXXXXXXXXXXXXX%ooooooooooooo%*******XXXXXXXXXX%ooooooooooooo%XXXXXXXXXXXXXXX.",
".XXXXXXXXXXXXXXXX#ooooooooooo#*********XXXXXXXXXX#ooooooooooo#XXXXXXXXXXXXXXXX.",
".XXXXXXXXXXXXXXXXX#ooooooooo#***********XXXXXXXXX*#ooooooooo#XXXXXXXXXXXXXXXXX.",
".XXXXXXXXXXXXXXXXXX@ooooooo@*************XXXXXXX***@ooooooo@XXXXXXXXXXXXXXXXXX.",
".XXXXXXXXXXXXXXXXXX+$ooooo$+*************XXXXXX****+$ooooo$+XXXXXXXXXXXXXXXXXX.",
".XXXXXXXXXXXXXXXXXXXOoooooO***************XXXX*****XOoooooOXXXXXXXXXXXXXXXXXXX.",
".XXXXXXXXXXXXXXXXXXXX&ooo&X****************XX*****XXX&ooo&XXXXXXXXXXXXXXXXXXXX.",
".XXXXXXXXXXXXXXXXXXXXX$o$XXX***************XX*****XXXX$o$XXXXXXXXXXXXXXXXXXXXX.",
".XXXXXXXXXXXXXXXXXXXXX+o+XXX**************XX*****XXXXX+o+XXXXXXXXXXXXXXXXXXXXX.",
".XXXXXXXXXXXXXXXXXXXXXX%XXXXX************XX*****XXXXXXX%XXXXXXXXXXXXXXXXXXXXXX.",
".XXXXXXXXXXXXXXXXXXXXXXXXXXXXX**********XX*****XXXXXXXXXXXXXXXXXXXXXXXXXXXXXXX.",
".XXXXXXXXXXXXXXXXXXXXXXXXXXXXXX********XX******XXXXXXXXXXXXXXXXXXXXXXXXXXXXXXX.",
".XXXXXXXXXXXXXXXXXXXXXXXXXXXXXX*******XX*******XXXXXXXXXXXXXXXXXXXXXXXXXXXXXXX.",
".XXXXXXXXXXXXXXXXXXXXXXXXXXXXXXX******XX********XXXXXXXXXXXXXXXXXXXXXXXXXXXXXX.",
".XXXXXXXXXXXXXXXXXXXXXXXXXXXXXXX*****XX**********XXXXXXXXXXXXXXXXXXXXXXXXXXXXX.",
".XXXXXXXXXXXXXXXXXXXXXX%XXXXXXX*****XX************XXXXX%XXXXXXXXXXXXXXXXXXXXXX.",
".XXXXXXXXXXXXXXXXXXXXX+o+XXXXX*****XX*************XXXX+o+XXXXXXXXXXXXXXXXXXXXX.",
".XXXXXXXXXXXXXXXXXXXXX$o$XXXX*****XX***************XXX$o$XXXXXXXXXXXXXXXXXXXXX.",
".XXXXXXXXXXXXXXXXXXXX&ooo&XXX*****XX****************X&ooo&XXXXXXXXXXXXXXXXXXXX.",
".XXXXXXXXXXXXXXXXXXXOoooooOX*****XXXX***************OoooooOXXXXXXXXXXXXXXXXXXX.",
".XXXXXXXXXXXXXXXXXX+$ooooo$+****XXXXX**************+$ooooo$+XXXXXXXXXXXXXXXXXX.",
".XXXXXXXXXXXXXXXXXX@ooooooo@***XXXXXXX*************@ooooooo@XXXXXXXXXXXXXXXXXX.",
".XXXXXXXXXXXXXXXXX#ooooooooo#*XXXXXXXXX***********#ooooooooo#XXXXXXXXXXXXXXXXX.",
".XXXXXXXXXXXXXXXX#ooooooooooo#XXXXXXXXXX*********#ooooooooooo#XXXXXXXXXXXXXXXX.",
".XXXXXXXXXXXXXXX%ooooooooooooo%XXXXXXXXX********%ooooooooooooo%XXXXXXXXXXXXXXX.",
".XXXXXXXXXXXXXXOoooooooooooooooOXXXXXXXXX******OoooooooooooooooOXXXXXXXXXXXXXX.",
".XXXXXXXXXXXXXX@ooooooooooooooo@XXXXXXXXXX*****@ooooooooooooooo@XXXXXXXXXXXXXX.",
".XXXXXXXXXXXXXXoooooooooooooooooXXXXXXXXXXX****oooooooooooooooooXXXXXXXXXXXXXX.",
".XXXXXXXXXXXXXXoooooooooooooooooXXXXXXX%XXX****oooooooooooooooooXXXXXXXXXXXXXX.",
".XXXXXXXXXXXXXX#ooooooo@ooooooo#XXXXXX+o+XXX***#ooooooo@ooooooo#XXXXXXXXXXXXXX.",
".XXXXXXXXXXXXXX+oooooo$*$oooooo+XXXXXX$o$XXXX**+oooooo$*$oooooo+XXXXXXXXXXXXXX.",
".XXXXXXXXXXXXXXXO@ooo#+X+#ooo@OXXXXXX&ooo&XXXX**O@ooo#+*+#ooo@OXXXXXXXXXXXXXXX.",
".XXXXXXXXXXXXXXXX*+O+*XXXX+O+XXXXXXXOoooooOXXX****+O+*****+O+*XXXXXXXXXXXXXXXX.",
".XXXXXXXXXXXXXXX*****XXXXXXXXXXXXXX+$ooooo$+XXX****************XXXXXXXXXXXXXXX.",
".XXXXXXXXXXXXXXX*****XXXXXXXXXXXXXX@ooooooo@XXXX****************XXXXXXXXXXXXXX.",
".XXXXXXXXXXXXXX*****XXXXXXXXXXXXXX#ooooooooo#XXXX****************XXXXXXXXXXXXX.",
".XXXXXXXXXXXXX*****XXXXXXXXXXXXXX#ooooooooooo#XXX****************XXXXXXXXXXXXX.",
".XXXXXXXXXXXX*****XXXXXXXXXXXXXX%ooooooooooooo%XXX****************XXXXXXXXXXXX.",
".XXXXXXXXXXX*****XXXXXXXXXXXXXXOoooooooooooooooOXXX****************XXXXXXXXXXX.",
".XXXXXXXXXXX*****XXXXXXXXXXXXXX@ooooooooooooooo@XXXX****************XXXXXXXXXX.",
".XXXXXXXXXX*****XXXXXXXXXXXXXXXoooooooooooooooooXXXX****************XXXXXXXXXX.",
".XXXXXXXXX*****XXXXXXXX%XXXXXXXoooooooooooooooooXXXXX**%*************XOXXXXXXX.",
".XXXXXXXX*****XXXXXXXX+o+XXXXXX#ooooooo@ooooooo#XXXXXX+o+************OoOXXXXXX.",
".XXXXXXX*****XXXXXXXXX$o$XXXXXX+oooooo$X$oooooo+XXXXXX$o$************$o$XXXXXX.",
".XXXXXXXXXXXXXXXXXXXX&ooo&XXXXXXO@ooo#+X+#ooo@OXXXXXX&ooo&XXXXXXXXXX#ooo#XXXXX.",
".XXXXXXXXXXXXXXXXXXXOoooooOXXXXXXX+O+XXXXX+O+XXXXXXXOoooooOXXXXXXXX&ooooo&XXXX.",
".XXXXXXXXXXXXXXXXXX+$ooooo$+XXXXXXXXXXXXXXXXXXXXXXX+$ooooo$+XXXXXX%ooooooo%XXX.",
".XXXXXXXXXXXXXXXXXX@ooooooo@XXXXXXXXXXXXXXXXXXXXXXX@ooooooo@XXXXXX@ooooooo@XXX.",
".XXXXXXXXXXXXXXXXX#ooooooooo#XXXXXXXXXXXXXXXXXXXXX#ooooooooo#XXXXX&ooo$ooo&XXX.",
".XXXXXXXXXXXXXXXX#ooooooooooo#XXXXXXXXXXXXXXXXXXX#ooooooooooo#XXXXX#$&X&$#XXXX.",
".XXXXXXXXXXXXXXX%ooooooooooooo%XXXXXXXXXXXXXXXXX%ooooooooooooo%XXXXXXXXXXXXXXX.",
".XXXXXXXXXXXXXXOoooooooooooooooOXXXXXXXXXXXXXXXOoooooooooooooooOXXXXXXXXXXXXXX.",
".XXXXXXXXXXXXXX@ooooooooooooooo@XXXXXXXXXXXXXXX@ooooooooooooooo@XXXXXXXXXXXXXX.",
".XXXXXXXXXXXXXXoooooooooooooooooXXXXXXXXXXXXXXXoooooooooooooooooXXXXXXXXXXXXXX.",
".XXXXXXXXXXXXXXoooooooooooooooooXXXXXXXXXXXXXXXoooooooooooooooooXXOooooOXooXXX.",
".XXXXXXXXXXXXXX#ooooooo@ooooooo#XXXXXXXXXXXXXXX#ooooooo@ooooooo#XXooooooXooXXX.",
".XXXXXXXXXXXXXX+oooooo$X$oooooo+XXXXXXXXXXXXXXX+oooooo$X$oooooo+XXooXXooXooXXX.",
".XXXXXXXXXXXXXXXO@ooo#+X+#ooo@OXXXXXXXXXXXXXXXXXO@ooo#+X+#ooo@OXXXooXXooXooXXX.",
".XXXXXXXXXXXXXXXXX+O+XXXXX+O+XXXXXXXXXXXXXXXXXXXXX+O+XXXXX+O+XXXXXooXXooXooXXX.",
".XXXXXXXXXXXXXXXXXXXXXXXXXXXXXXXXXXXXXXXXXXXXXXXXXXXXXXXXXXXXXXXXXooXXooXooXXX.",
".XXXXXXXXXXXXXXXXXXXXXXXXXXXXXXXXXXXXXXXXXXXXXXXXXXXXXXXXXXXXXXXXXooXXooXooXXX.",
".XXXXXXXXXXXXXXXXXXXXXXXXXXXXXXXXXXXXXXXXXXXXXXXXXXXXXXXXXXXXXXXXXooXXooXooXXX.",
".XXXXXXXXXXXXXXXXXXXXXXXXXXXXXXXXXXXXXXXXXXXXXXXXXXXXXXXXXXXXXXXXXooXXooXooXXX.",
".XXXXXXXXXXXXXXXXXXXXXXXXXXXXXXXXXXXXXXXXXXXXXXXXXXXXXXXXXXXXXXXXXooXXooXooXXX.",
".XXXXXXXXXXXXXXXXXXXXXXXXXXXXXXXXXXXXXXXXXXXXXXXXXXXXXXXXXXXXXXXXXooXXooXooXXX.",
".XXXXXXXXXXXXXXXXXXXXXXXXXXXXXXXXXXXXXXXXXXXXXXXXXXXXXXXXXXXXXXXXXooXXooXooXXX.",
".XXXXXXXXXXXXXXXXXXXXXXXXXXXXXXXXXXXXXXXXXXXXXXXXXXXXXXXXXXXXXXXXXooooooXooXXX.",
" .XXXXXXXXXXXXXXXXXXXXXXXXXXXXXXXXXXXXXXXXXXXXXXXXXXXXXXXXXXXXXXXXOooooOXooXX. ",
" .XXXXXXXXXXXXXXXXXXXXXXXXXXXXXXXXXXXXXXXXXXXXXXXXXXXXXXXXXXXXXXXXXXXXXXXXXXX. ",
"  .XXXXXXXXXXXXXXXXXXXXXXXXXXXXXXXXXXXXXXXXXXXXXXXXXXXXXXXXXXXXXXXXXXXXXXXXX.  ",
"  .XXXXXXXXXXXXXXXXXXXXXXXXXXXXXXXXXXXXXXXXXXXXXXXXXXXXXXXXXXXXXXXXXXXXXXXXX.  ",
"   ..XXXXXXXXXXXXXXXXXXXXXXXXXXXXXXXXXXXXXXXXXXXXXXXXXXXXXXXXXXXXXXXXXXXXX..   ",
"     ..XXXXXXXXXXXXXXXXXXXXXXXXXXXXXXXXXXXXXXXXXXXXXXXXXXXXXXXXXXXXXXXXX..     ",
"       .................................................................       "};
