/* XPM */
static char * Three_Diamonds_xpm[] = {
"79 123 12 1",
" 	c None",
".	c #000000000000",
"X	c #FFFFFFFFFFFF",
"o	c #CF3C00000000",
"O	c #F7DEBEFBBEFB",
"+	c #DF7D3CF338E3",
"@	c #E79D7DF779E7",
"#	c #EFBE9E799E79",
"$	c #FFFFDF7DDF7D",
"%	c #DF7D5D755965",
"&	c #D75C1C711861",
"*	c #D75CD75CD75C",
"       .................................................................       ",
"     ..XXXXXXXXXXXXXXXXXXXXXXXXXXXXXXXXXXXXXXXXXXXXXXXXXXXXXXXXXXXXXXXXX..     ",
"   ..XXXXXXXXXXXXXXXXXXXXXXXXXXXXXXXXXXXXXXXXXXXXXXXXXXXXXXXXXXXXXXXXXXXXX..   ",
"  .XXXXXXXXXXXXXXXXXXXXXXXXXXXXXXXXXXXXXXXXXXXXXXXXXXXXXXXXXXXXXXXXXXXXXXXXX.  ",
"  .XXXXXXXXXXXXXXXXXXXXXXXXXXXXXXXXXXXXXXXXXXXXXXXXXXXXXXXXXXXXXXXXXXXXXXXXX.  ",
" .XXXXXXXXXXXXXXXXXXXXXXXXXXXXXXXXXXXXXXXXXXXXXXXXXXXXXXXXXXXXXXXXXXXXXXXXXXX. ",
" .XXoooooooooXXXXXXXXXXXXXXXXXXXXXXXXXXXXXXXXXXXXXXXXXXXXXXXXXXXXXXXXXXXXXXXX. ",
".XXXoooooooooXXXXXXXXXXXXXXXXXXXXXXXXXXXXXXXXXXXXXXXXXXXXXXXXXXXXXXXXXXXXXXXXX.",
".XXXooXXXOoo+XXXXXXXXXXXXXXXXXXXXXXXXXXXXXXXXXXXXXXXXXXXXXXXXXXXXXXXXXXXXXXXXX.",
".XXXXXXXOoo+XXXXXXXXXXXXXXXXXXXXXXXXXXXXXXXXXXXXXXXXXXXXXXXXXXXXXXXXXXXXXXXXXX.",
".XXXXXXOoooXXXXXXXXXXXXXXXXXXXXXXXXXXXXXXXXXXXXXXXXXXXXXXXXXXXXXXXXXXXXXXXXXXX.",
".XXXXXOooooXXXXXXXXXXXXXXXXXXXXXXXXXXXXXXXXXXXXXXXXXXXXXXXXXXXXXXXXXXXXXXXXXXX.",
".XXXXXooooooXXXXXXXXXXXXXXXXXXXXXXXXXXX@XXXXXXXXXXXXXXXXXXXXXXXXXXXXXXXXXXXXXX.",
".XXXXXO+XX+ooXXXXXXXXXXXXXXXXXXXXXXXXX#o#XXXXXXXXXXXXXXXXXXXXXXXXXXXXXXXXXXXXX.",
".XXXXXXXXXXooXXXXXXXXXXXXXXXXXXXXXXXX$ooo$XXXXXXXXXXXXXXXXXXXXXXXXXXXXXXXXXXXX.",
".XXXXXXXXXXooXXXXXXXXXXXXXXXXXXXXXXXX+ooo+XXXXXXXXXXXXXXXXXXXXXXXXXXXXXXXXXXXX.",
".XXXOoOXXXXooXXXXXXXXXXXXXXXXXXXXXXX%ooooo%XXXXXXXXXXXXXXXXXXXXXXXXXXXXXXXXXXX.",
".XXXoooOXX+ooXXXXXXXXXXXXXXXXXXXXXX@ooooooo@XXXXXXXXXXXXXXXXXXXXXXXXXXXXXXXXXX.",
".XXXOoooooo+XXXXXXXXXXXXXXXXXXXXXX@ooooooooo@XXXXXXXXXXXXXXXXXXXXXXXXXXXXXXXXX.",
".XXXXO+ooo+OXXXXXXXXXXXXXXXXXXXXX%ooooooooooo%XXXXXXXXXXXXXXXXXXXXXXXXXXXXXXXX.",
".XXXXXXXXXXXXXXXXXXXXXXXXXXXXXX$+ooooooooooooo+$XXXXXXXXXXXXXXXXXXXXXXXXXXXXXX.",
".XXXXXXXXXXXXXXXXXXXXXXXXXXXXX#ooooooooooooooooo#XXXXXXXXXXXXXXXXXXXXXXXXXXXXX.",
".XXXXXXX#XXXXXXXXXXXXXXXXXXXX@ooooooooooooooooooo@XXXXXXXXXXXXXXXXXXXXXXXXXXXX.",
".XXXXXXOoOXXXXXXXXXXXXXXXXXXXX#ooooooooooooooooo#XXXXXXXXXXXXXXXXXXXXXXXXXXXXX.",
".XXXXX$&o&$XXXXXXXXXXXXXXXXXXXX$+ooooooooooooo+$XXXXXXXXXXXXXXXXXXXXXXXXXXXXXX.",
".XXXX$&ooo&$XXXXXXXXXXXXXXXXXXXXX%ooooooooooo%XXXXXXXXXXXXXXXXXXXXXXXXXXXXXXXX.",
".XXXO&ooooo&OXXXXXXXXXXXXXXXXXXXXX@ooooooooo@XXXXXXXXXXXXXXXXXXXXXXXXXXXXXXXXX.",
".XX#ooooooooo#XXXXXXXXXXXXXXXXXXXXX@ooooooo@XXXXXXXXXXXXXXXXXXXXXXXXXXXXXXXXXX.",
".XXXO&ooooo&OXXXXXXXXXXXXXXXXXXXXXXX%ooooo%XXXXXXXXXXXXXXXXXXXXXXXXXXXXXXXXXXX.",
".XXXX$&ooo&$***********XXXXXXXXXXXXXX+ooo+XXXXXXXXXXXXXXXXXXXXXXXX*****XXXXXXX.",
".XXXXX$&o&$*************XXXXXXXXXXXXX$ooo$XXXXXXXXXXXXXXXXXXXXXXXX*****XXXXXXX.",
".XXXXXXOoO***************XXXXXXXXXXXXX#o#XXXXXXXXXXXXXXXXXXXXXXXX*****XXXXXXXX.",
".XXXXXXX#X****************XXXXXXXXXXXXX@XXXXXXXXXXXXXXXXXXXXXXXX*****XXXXXXXXX.",
".XXXXXXXXX****************XXXXXXXXXXXXXXXXXXXXXXXXXXXXXXXXXXXXX*****XXXXXXXXXX.",
".XXXXXXXXXX****************XXXXXXXXXXXXXXXXXXXXXXXXXXXXXXXXXXX*****XXXXXXXXXXX.",
".XXXXXXXXXXX****************XXXXXXXXXXXXXXXXXXXXXXXXXXXXXXXXXX*****XXXXXXXXXXX.",
".XXXXXXXXXXXX****************XXXXXXXXXXXXXXXXXXXXXXXXXXXXXXXX*****XXXXXXXXXXXX.",
".XXXXXXXXXXXX****************XXXXXXXXXXXXXXXXXXXXXXXXXXXXXXX*****XXXXXXXXXXXXX.",
".XXXXXXXXXXXXX****************XXXXXXXXXXXXXXXXXXXXXXXXXXXXX*****XXXXXXXXXXXXXX.",
".XXXXXXXXXXXXXX****************XXXXXXXXXXXXXXXXXXXXXXXXXXX*****XXXXXXXXXXXXXXX.",
".XXXXXXXXXXXXXXX****************XXXXXXXXXXXXXXXXXXXXXXXXXX*****XXXXXXXXXXXXXXX.",
".XXXXXXXXXXXXXXX****************XXXXXXXXXXXXXXXXXXXXXXXXX*****XXXXXXXXXXXXXXXX.",
".XXXXXXXXXXXXXXXX****************XXXXXXXXXXXXXXXXXXXXXXX*****XXXXXXXXXXXXXXXXX.",
".XXXXXXXXXXXXXXXXX****************XXXXXXXXXXXXXXXXXXXXX*****XXXXXXXXXXXXXXXXXX.",
".XXXXXXXXXXXXXXXXXX****************XXXXXXXXXXXXXXXXXXX*****XXXXXXXXXXXXXXXXXXX.",
".XXXXXXXXXXXXXXXXXX****************XXXXXXXXXXXXXXXXXX*****XXXXXXXXXXXXXXXXXXXX.",
".XXXXXXXXXXXXXXXXXXX****************XXXXXXXXXXXXXXXXX*****XXXXXXXXXXXXXXXXXXXX.",
".XXXXXXXXXXXXXXXXXXXX****************XXXXXXXXXXXXXXX*****XXXXXXXXXXXXXXXXXXXXX.",
".XXXXXXXXXXXXXXXXXXXXX****************XXXXXXXXXXXXX*****XXXXXXXXXXXXXXXXXXXXXX.",
".XXXXXXXXXXXXXXXXXXXXX****************XXXXXXXXXXXX*****XXXXXXXXXXXXXXXXXXXXXXX.",
".XXXXXXXXXXXXXXXXXXXXXX****************XXXXXXXXXX*****XXXXXXXXXXXXXXXXXXXXXXXX.",
".XXXXXXXXXXXXXXXXXXXXXXX***************@XXXXXXXXX*****XXXXXXXXXXXXXXXXXXXXXXXX.",
".XXXXXXXXXXXXXXXXXXXXXXXX*************#o#XXXXXXX*****XXXXXXXXXXXXXXXXXXXXXXXXX.",
".XXXXXXXXXXXXXXXXXXXXXXXX************$ooo$XXXXX*****XXXXXXXXXXXXXXXXXXXXXXXXXX.",
".XXXXXXXXXXXXXXXXXXXXXXXXX***********+ooo+XXXX*****XXXXXXXXXXXXXXXXXXXXXXXXXXX.",
".XXXXXXXXXXXXXXXXXXXXXXXXXX*********%ooooo%XX*****XXXXXXXXXXXXXXXXXXXXXXXXXXXX.",
".XXXXXXXXXXXXXXXXXXXXXXXXXXX*******@ooooooo@X*****XXXXXXXXXXXXXXXXXXXXXXXXXXXX.",
".XXXXXXXXXXXXXXXXXXXXXXXXXXX******@ooooooooo@****XXXXXXXXXXXXXXXXXXXXXXXXXXXXX.",
".XXXXXXXXXXXXXXXXXXXXXXXXXXXX****%ooooooooooo%**XXXXXXXXXXXXXXXXXXXXXXXXXXXXXX.",
".XXXXXXXXXXXXXXXXXXXXXXXXXXXXX*$+ooooooooooooo+$XXXXXXXXXXXXXXXXXXXXXXXXXXXXXX.",
".XXXXXXXXXXXXXXXXXXXXXXXXXXXXX#ooooooooooooooooo#XXXXXXXXXXXXXXXXXXXXXXXXXXXXX.",
".XXXXXXXXXXXXXXXXXXXXXXXXXXXX@ooooooooooooooooooo@XXXXXXXXXXXXXXXXXXXXXXXXXXXX.",
".XXXXXXXXXXXXXXXXXXXXXXXXXXXXX#ooooooooooooooooo#XXXXXXXXXXXXXXXXXXXXXXXXXXXXX.",
".XXXXXXXXXXXXXXXXXXXXXXXXXXXXXX$+ooooooooooooo+$*XXXXXXXXXXXXXXXXXXXXXXXXXXXXX.",
".XXXXXXXXXXXXXXXXXXXXXXXXXXXXXX**%ooooooooooo%****XXXXXXXXXXXXXXXXXXXXXXXXXXXX.",
".XXXXXXXXXXXXXXXXXXXXXXXXXXXXX****@ooooooooo@*****XXXXXXXXXXXXXXXXXXXXXXXXXXXX.",
".XXXXXXXXXXXXXXXXXXXXXXXXXXXX*****X@ooooooo@*******XXXXXXXXXXXXXXXXXXXXXXXXXXX.",
".XXXXXXXXXXXXXXXXXXXXXXXXXXXX*****XX%ooooo%*********XXXXXXXXXXXXXXXXXXXXXXXXXX.",
".XXXXXXXXXXXXXXXXXXXXXXXXXXX*****XXXX+ooo+***********XXXXXXXXXXXXXXXXXXXXXXXXX.",
".XXXXXXXXXXXXXXXXXXXXXXXXXX*****XXXXX$ooo$***********XXXXXXXXXXXXXXXXXXXXXXXXX.",
".XXXXXXXXXXXXXXXXXXXXXXXXX*****XXXXXXX#o#*************XXXXXXXXXXXXXXXXXXXXXXXX.",
".XXXXXXXXXXXXXXXXXXXXXXXX*****XXXXXXXXX@***************XXXXXXXXXXXXXXXXXXXXXXX.",
".XXXXXXXXXXXXXXXXXXXXXXXX*****XXXXXXXXXX****************XXXXXXXXXXXXXXXXXXXXXX.",
".XXXXXXXXXXXXXXXXXXXXXXX*****XXXXXXXXXXX****************XXXXXXXXXXXXXXXXXXXXXX.",
".XXXXXXXXXXXXXXXXXXXXXX*****XXXXXXXXXXXXX****************XXXXXXXXXXXXXXXXXXXXX.",
".XXXXXXXXXXXXXXXXXXXXX*****XXXXXXXXXXXXXXX****************XXXXXXXXXXXXXXXXXXXX.",
".XXXXXXXXXXXXXXXXXXXX*****XXXXXXXXXXXXXXXXX****************XXXXXXXXXXXXXXXXXXX.",
".XXXXXXXXXXXXXXXXXXX*****XXXXXXXXXXXXXXXXXX****************XXXXXXXXXXXXXXXXXXX.",
".XXXXXXXXXXXXXXXXXXX*****XXXXXXXXXXXXXXXXXXX****************XXXXXXXXXXXXXXXXXX.",
".XXXXXXXXXXXXXXXXXX*****XXXXXXXXXXXXXXXXXXXXX****************XXXXXXXXXXXXXXXXX.",
".XXXXXXXXXXXXXXXXX*****XXXXXXXXXXXXXXXXXXXXXXX****************XXXXXXXXXXXXXXXX.",
".XXXXXXXXXXXXXXXX*****XXXXXXXXXXXXXXXXXXXXXXXX****************XXXXXXXXXXXXXXXX.",
".XXXXXXXXXXXXXXX*****XXXXXXXXXXXXXXXXXXXXXXXXXX****************XXXXXXXXXXXXXXX.",
".XXXXXXXXXXXXXXX*****XXXXXXXXXXXXXXXXXXXXXXXXXXX****************XXXXXXXXXXXXXX.",
".XXXXXXXXXXXXXX*****XXXXXXXXXXXXXXXXXXXXXXXXXXXXX****************XXXXXXXXXXXXX.",
".XXXXXXXXXXXXX*****XXXXXXXXXXXXXXXXXXXXXXXXXXXXXX****************XXXXXXXXXXXXX.",
".XXXXXXXXXXXX*****XXXXXXXXXXXXXXXXXXXXXXXXXXXXXXXX****************XXXXXXXXXXXX.",
".XXXXXXXXXXX*****XXXXXXXXXXXXXXXXXXXXXXXXXXXXXXXXXX****************XXXXXXXXXXX.",
".XXXXXXXXXXX*****XXXXXXXXXXXXXXXXXXXXXXXXXXXXXXXXXXX****************XXXXXXXXXX.",
".XXXXXXXXXX*****XXXXXXXXXXXXXXXXXXXXXXXXXXXXXXXXXXXX****************XXXXXXXXXX.",
".XXXXXXXXX*****XXXXXXXXXXXXXXXXXXXXXXXX@XXXXXXXXXXXXX****************X#XXXXXXX.",
".XXXXXXXX*****XXXXXXXXXXXXXXXXXXXXXXXX#o#XXXXXXXXXXXXX***************OoOXXXXXX.",
".XXXXXXX*****XXXXXXXXXXXXXXXXXXXXXXXX$ooo$XXXXXXXXXXXXX*************$&o&$XXXXX.",
".XXXXXXXXXXXXXXXXXXXXXXXXXXXXXXXXXXXX+ooo+XXXXXXXXXXXXXXXXXXXXXXXXX$&ooo&$XXXX.",
".XXXXXXXXXXXXXXXXXXXXXXXXXXXXXXXXXXX%ooooo%XXXXXXXXXXXXXXXXXXXXXXXO&ooooo&OXXX.",
".XXXXXXXXXXXXXXXXXXXXXXXXXXXXXXXXXX@ooooooo@XXXXXXXXXXXXXXXXXXXXX#ooooooooo#XX.",
".XXXXXXXXXXXXXXXXXXXXXXXXXXXXXXXXX@ooooooooo@XXXXXXXXXXXXXXXXXXXXXO&ooooo&OXXX.",
".XXXXXXXXXXXXXXXXXXXXXXXXXXXXXXXX%ooooooooooo%XXXXXXXXXXXXXXXXXXXXX$&ooo&$XXXX.",
".XXXXXXXXXXXXXXXXXXXXXXXXXXXXXX$+ooooooooooooo+$XXXXXXXXXXXXXXXXXXXX$&o&$XXXXX.",
".XXXXXXXXXXXXXXXXXXXXXXXXXXXXX#ooooooooooooooooo#XXXXXXXXXXXXXXXXXXXXOoOXXXXXX.",
".XXXXXXXXXXXXXXXXXXXXXXXXXXXX@ooooooooooooooooooo@XXXXXXXXXXXXXXXXXXXX#XXXXXXX.",
".XXXXXXXXXXXXXXXXXXXXXXXXXXXXX#ooooooooooooooooo#XXXXXXXXXXXXXXXXXXXXXXXXXXXXX.",
".XXXXXXXXXXXXXXXXXXXXXXXXXXXXXX$+ooooooooooooo+$XXXXXXXXXXXXXXXXXXXXXXXXXXXXXX.",
".XXXXXXXXXXXXXXXXXXXXXXXXXXXXXXXX%ooooooooooo%XXXXXXXXXXXXXXXXXXXXXO+ooo+OXXXX.",
".XXXXXXXXXXXXXXXXXXXXXXXXXXXXXXXXX@ooooooooo@XXXXXXXXXXXXXXXXXXXXXX+ooooooOXXX.",
".XXXXXXXXXXXXXXXXXXXXXXXXXXXXXXXXXX@ooooooo@XXXXXXXXXXXXXXXXXXXXXXoo+XXOoooXXX.",
".XXXXXXXXXXXXXXXXXXXXXXXXXXXXXXXXXXX%ooooo%XXXXXXXXXXXXXXXXXXXXXXXooXXXXOoOXXX.",
".XXXXXXXXXXXXXXXXXXXXXXXXXXXXXXXXXXXX+ooo+XXXXXXXXXXXXXXXXXXXXXXXXooXXXXXXXXXX.",
".XXXXXXXXXXXXXXXXXXXXXXXXXXXXXXXXXXXX$ooo$XXXXXXXXXXXXXXXXXXXXXXXXooXXXXXXXXXX.",
".XXXXXXXXXXXXXXXXXXXXXXXXXXXXXXXXXXXXX#o#XXXXXXXXXXXXXXXXXXXXXXXXXoo+XX+OXXXXX.",
".XXXXXXXXXXXXXXXXXXXXXXXXXXXXXXXXXXXXXX@XXXXXXXXXXXXXXXXXXXXXXXXXXXooooooXXXXX.",
".XXXXXXXXXXXXXXXXXXXXXXXXXXXXXXXXXXXXXXXXXXXXXXXXXXXXXXXXXXXXXXXXXXXooooOXXXXX.",
".XXXXXXXXXXXXXXXXXXXXXXXXXXXXXXXXXXXXXXXXXXXXXXXXXXXXXXXXXXXXXXXXXXXoooOXXXXXX.",
".XXXXXXXXXXXXXXXXXXXXXXXXXXXXXXXXXXXXXXXXXXXXXXXXXXXXXXXXXXXXXXXXXX+ooOXXXXXXX.",
".XXXXXXXXXXXXXXXXXXXXXXXXXXXXXXXXXXXXXXXXXXXXXXXXXXXXXXXXXXXXXXXXX+ooOXXXooXXX.",
".XXXXXXXXXXXXXXXXXXXXXXXXXXXXXXXXXXXXXXXXXXXXXXXXXXXXXXXXXXXXXXXXXoooooooooXXX.",
" .XXXXXXXXXXXXXXXXXXXXXXXXXXXXXXXXXXXXXXXXXXXXXXXXXXXXXXXXXXXXXXXXoooooooooXX. ",
" .XXXXXXXXXXXXXXXXXXXXXXXXXXXXXXXXXXXXXXXXXXXXXXXXXXXXXXXXXXXXXXXXXXXXXXXXXXX. ",
"  .XXXXXXXXXXXXXXXXXXXXXXXXXXXXXXXXXXXXXXXXXXXXXXXXXXXXXXXXXXXXXXXXXXXXXXXXX.  ",
"  .XXXXXXXXXXXXXXXXXXXXXXXXXXXXXXXXXXXXXXXXXXXXXXXXXXXXXXXXXXXXXXXXXXXXXXXXX.  ",
"   ..XXXXXXXXXXXXXXXXXXXXXXXXXXXXXXXXXXXXXXXXXXXXXXXXXXXXXXXXXXXXXXXXXXXXX..   ",
"     ..XXXXXXXXXXXXXXXXXXXXXXXXXXXXXXXXXXXXXXXXXXXXXXXXXXXXXXXXXXXXXXXXX..     ",
"       .................................................................       "};
