/* XPM */
static char * Three_Hearts_xpm[] = {
"79 123 12 1",
" 	c None",
".	c #000000000000",
"X	c #FFFFFFFFFFFF",
"o	c #CF3C00000000",
"O	c #F7DEBEFBBEFB",
"+	c #DF7D3CF338E3",
"@	c #FFFFDF7DDF7D",
"#	c #DF7D5D755965",
"$	c #D75C1C711861",
"%	c #EFBE9E799E79",
"&	c #E79D7DF779E7",
"*	c #D75CD75CD75C",
"       .................................................................       ",
"     ..XXXXXXXXXXXXXXXXXXXXXXXXXXXXXXXXXXXXXXXXXXXXXXXXXXXXXXXXXXXXXXXXX..     ",
"   ..XXXXXXXXXXXXXXXXXXXXXXXXXXXXXXXXXXXXXXXXXXXXXXXXXXXXXXXXXXXXXXXXXXXXX..   ",
"  .XXXXXXXXXXXXXXXXXXXXXXXXXXXXXXXXXXXXXXXXXXXXXXXXXXXXXXXXXXXXXXXXXXXXXXXXX.  ",
"  .XXXXXXXXXXXXXXXXXXXXXXXXXXXXXXXXXXXXXXXXXXXXXXXXXXXXXXXXXXXXXXXXXXXXXXXXX.  ",
" .XXXXXXXXXXXXXXXXXXXXXXXXXXXXXXXXXXXXXXXXXXXXXXXXXXXXXXXXXXXXXXXXXXXXXXXXXXX. ",
" .XXoooooooooXXXXXXXXXXXXXXXXXXXXXXXXXXXXXXXXXXXXXXXXXXXXXXXXXXXXXXXXXXXXXXXX. ",
".XXXoooooooooXXXXXXXXXXXXXXXXXXXXXXXXXXXXXXXXXXXXXXXXXXXXXXXXXXXXXXXXXXXXXXXXX.",
".XXXooXXXOoo+XXXXXXXXXXXXXXXXXXXXXXXXXXXXXXXXXXXXXXXXXXXXXXXXXXXXXXXXXXXXXXXXX.",
".XXXXXXXOoo+XXXXXXXXXXXXXXXXXXXXXXXXXXXXXXXXXXXXXXXXXXXXXXXXXXXXXXXXXXXXXXXXXX.",
".XXXXXXOoooXXXXXXXXXXXXXXXXXXXXXXXXXXXXXXXXXXXXXXXXXXXXXXXXXXXXXXXXXXXXXXXXXXX.",
".XXXXXOooooXXXXXXXXXXXXXXXXXXXXXXXXXXXXXXXXXXXXXXXXXXXXXXXXXXXXXXXXXXXXXXXXXXX.",
".XXXXXooooooXXXXXXXXXXXXXXXXXXXXXXXXXXXXXXXXXXXXXXXXXXXXXXXXXXXXXXXXXXXXXXXXXX.",
".XXXXXO+XX+ooXXXXXXXXXXXXXXXXXXXXXXXXXXXXXXXXXXXXXXXXXXXXXXXXXXXXXXXXXXXXXXXXX.",
".XXXXXXXXXXooXXXXXXXXXXXXXXXXXXXXXXXXXXXXXXXXXXXXXXXXXXXXXXXXXXXXXXXXXXXXXXXXX.",
".XXXXXXXXXXooXXXXXXXXXXXXXXXXXXXXX@O@XXXXX@O@XXXXXXXXXXXXXXXXXXXXXXXXXXXXXXXXX.",
".XXXOoOXXXXooXXXXXXXXXXXXXXXXXXXO+ooo#@X@#ooo+OXXXXXXXXXXXXXXXXXXXXXXXXXXXXXXX.",
".XXXoooOXX+ooXXXXXXXXXXXXXXXXXX@oooooo$X$oooooo@XXXXXXXXXXXXXXXXXXXXXXXXXXXXXX.",
".XXXOoooooo+XXXXXXXXXXXXXXXXXXX#ooooooo+ooooooo#XXXXXXXXXXXXXXXXXXXXXXXXXXXXXX.",
".XXXXO+ooo+OXXXXXXXXXXXXXXXXXXXoooooooooooooooooXXXXXXXXXXXXXXXXXXXXXXXXXXXXXX.",
".XXXXXXXXXXXXXXXXXXXXXXXXXXXXXXoooooooooooooooooXXXXXXXXXXXXXXXXXXXXXXXXXXXXXX.",
".XXXXXXXXXXXXXXXXXXXXXXXXXXXXXX+ooooooooooooooo+XXXXXXXXXXXXXXXXXXXXXXXXXXXXXX.",
".XXXXXXXXXXXXXXXXXXXXXXXXXXXXXXOoooooooooooooooOXXXXXXXXXXXXXXXXXXXXXXXXXXXXXX.",
".XXXXXXXXXXXXXXXXXXXXXXXXXXXXXXX%ooooooooooooo%XXXXXXXXXXXXXXXXXXXXXXXXXXXXXXX.",
".XXXX#$&X&$#XXXXXXXXXXXXXXXXXXXXX#ooooooooooo#XXXXXXXXXXXXXXXXXXXXXXXXXXXXXXXX.",
".XXX&ooo$ooo&XXXXXXXXXXXXXXXXXXXXX#ooooooooo#XXXXXXXXXXXXXXXXXXXXXXXXXXXXXXXXX.",
".XXX+ooooooo+XXXXXXXXXXXXXXXXXXXXXX+ooooooo+XXXXXXXXXXXXXXXXXXXXXXXXXXXXXXXXXX.",
".XXX%ooooooo%XXXXXXXXXXXXXXXXXXXXXX@$ooooo$@XXXXXXXXXXXXXXXXXXXXXXXXXXXXXXXXXX.",
".XXXX&ooooo&XXXXXXXXXXXXXXXXXXXXXXXXOoooooOXXXXXXXXXXXXXXXXXXXXXXXXXXXXXXXXXXX.",
".XXXXX#ooo#************XXXXXXXXXXXXXX&ooo&XXXXXXXXXXXXXXXXXXXXXXXX*****XXXXXXX.",
".XXXXXX$o$**************XXXXXXXXXXXXXX$o$XXXXXXXXXXXXXXXXXXXXXXXXX*****XXXXXXX.",
".XXXXXXOoO***************XXXXXXXXXXXXX@o@XXXXXXXXXXXXXXXXXXXXXXXX*****XXXXXXXX.",
".XXXXXXXOX****************XXXXXXXXXXXXX%XXXXXXXXXXXXXXXXXXXXXXXX*****XXXXXXXXX.",
".XXXXXXXXX****************XXXXXXXXXXXXXXXXXXXXXXXXXXXXXXXXXXXXX*****XXXXXXXXXX.",
".XXXXXXXXXX****************XXXXXXXXXXXXXXXXXXXXXXXXXXXXXXXXXXX*****XXXXXXXXXXX.",
".XXXXXXXXXXX****************XXXXXXXXXXXXXXXXXXXXXXXXXXXXXXXXXX*****XXXXXXXXXXX.",
".XXXXXXXXXXXX****************XXXXXXXXXXXXXXXXXXXXXXXXXXXXXXXX*****XXXXXXXXXXXX.",
".XXXXXXXXXXXX****************XXXXXXXXXXXXXXXXXXXXXXXXXXXXXXX*****XXXXXXXXXXXXX.",
".XXXXXXXXXXXXX****************XXXXXXXXXXXXXXXXXXXXXXXXXXXXX*****XXXXXXXXXXXXXX.",
".XXXXXXXXXXXXXX****************XXXXXXXXXXXXXXXXXXXXXXXXXXX*****XXXXXXXXXXXXXXX.",
".XXXXXXXXXXXXXXX****************XXXXXXXXXXXXXXXXXXXXXXXXXX*****XXXXXXXXXXXXXXX.",
".XXXXXXXXXXXXXXX****************XXXXXXXXXXXXXXXXXXXXXXXXX*****XXXXXXXXXXXXXXXX.",
".XXXXXXXXXXXXXXXX****************XXXXXXXXXXXXXXXXXXXXXXX*****XXXXXXXXXXXXXXXXX.",
".XXXXXXXXXXXXXXXXX****************XXXXXXXXXXXXXXXXXXXXX*****XXXXXXXXXXXXXXXXXX.",
".XXXXXXXXXXXXXXXXXX****************XXXXXXXXXXXXXXXXXXX*****XXXXXXXXXXXXXXXXXXX.",
".XXXXXXXXXXXXXXXXXX****************XXXXXXXXXXXXXXXXXX*****XXXXXXXXXXXXXXXXXXXX.",
".XXXXXXXXXXXXXXXXXXX****************XXXXXXXXXXXXXXXXX*****XXXXXXXXXXXXXXXXXXXX.",
".XXXXXXXXXXXXXXXXXXXX****************XXXXXXXXXXXXXXX*****XXXXXXXXXXXXXXXXXXXXX.",
".XXXXXXXXXXXXXXXXXXXXX****************XXXXXXXXXXXXX*****XXXXXXXXXXXXXXXXXXXXXX.",
".XXXXXXXXXXXXXXXXXXXXX****************XXXXXXXXXXXX*****XXXXXXXXXXXXXXXXXXXXXXX.",
".XXXXXXXXXXXXXXXXXXXXXX****************XXXXXXXXXX*****XXXXXXXXXXXXXXXXXXXXXXXX.",
".XXXXXXXXXXXXXXXXXXXXXXX****************XXXXXXXXX*****XXXXXXXXXXXXXXXXXXXXXXXX.",
".XXXXXXXXXXXXXXXXXXXXXXXX****************XXXXXXX*****XXXXXXXXXXXXXXXXXXXXXXXXX.",
".XXXXXXXXXXXXXXXXXXXXXXXX****************XXXXXX*****XXXXXXXXXXXXXXXXXXXXXXXXXX.",
".XXXXXXXXXXXXXXXXXXXXXXXXX********@O@*****@O@X*****XXXXXXXXXXXXXXXXXXXXXXXXXXX.",
".XXXXXXXXXXXXXXXXXXXXXXXXXX*****O+ooo#@*@#ooo+O***XXXXXXXXXXXXXXXXXXXXXXXXXXXX.",
".XXXXXXXXXXXXXXXXXXXXXXXXXXX***@oooooo$*$oooooo@**XXXXXXXXXXXXXXXXXXXXXXXXXXXX.",
".XXXXXXXXXXXXXXXXXXXXXXXXXXX***#ooooooo+ooooooo#*XXXXXXXXXXXXXXXXXXXXXXXXXXXXX.",
".XXXXXXXXXXXXXXXXXXXXXXXXXXXX**oooooooooooooooooXXXXXXXXXXXXXXXXXXXXXXXXXXXXXX.",
".XXXXXXXXXXXXXXXXXXXXXXXXXXXXX*oooooooooooooooooXXXXXXXXXXXXXXXXXXXXXXXXXXXXXX.",
".XXXXXXXXXXXXXXXXXXXXXXXXXXXXXX+ooooooooooooooo+XXXXXXXXXXXXXXXXXXXXXXXXXXXXXX.",
".XXXXXXXXXXXXXXXXXXXXXXXXXXXXXXOoooooooooooooooOXXXXXXXXXXXXXXXXXXXXXXXXXXXXXX.",
".XXXXXXXXXXXXXXXXXXXXXXXXXXXXXXX%ooooooooooooo%*XXXXXXXXXXXXXXXXXXXXXXXXXXXXXX.",
".XXXXXXXXXXXXXXXXXXXXXXXXXXXXXXX*#ooooooooooo#***XXXXXXXXXXXXXXXXXXXXXXXXXXXXX.",
".XXXXXXXXXXXXXXXXXXXXXXXXXXXXXX***#ooooooooo#*****XXXXXXXXXXXXXXXXXXXXXXXXXXXX.",
".XXXXXXXXXXXXXXXXXXXXXXXXXXXXX*****+ooooooo+******XXXXXXXXXXXXXXXXXXXXXXXXXXXX.",
".XXXXXXXXXXXXXXXXXXXXXXXXXXXX*****X@$ooooo$@*******XXXXXXXXXXXXXXXXXXXXXXXXXXX.",
".XXXXXXXXXXXXXXXXXXXXXXXXXXXX*****XXOoooooO*********XXXXXXXXXXXXXXXXXXXXXXXXXX.",
".XXXXXXXXXXXXXXXXXXXXXXXXXXX*****XXXX&ooo&***********XXXXXXXXXXXXXXXXXXXXXXXXX.",
".XXXXXXXXXXXXXXXXXXXXXXXXXX*****XXXXX*$o$************XXXXXXXXXXXXXXXXXXXXXXXXX.",
".XXXXXXXXXXXXXXXXXXXXXXXXX*****XXXXXXX@o@*************XXXXXXXXXXXXXXXXXXXXXXXX.",
".XXXXXXXXXXXXXXXXXXXXXXXX*****XXXXXXXXX%***************XXXXXXXXXXXXXXXXXXXXXXX.",
".XXXXXXXXXXXXXXXXXXXXXXXX*****XXXXXXXXXX****************XXXXXXXXXXXXXXXXXXXXXX.",
".XXXXXXXXXXXXXXXXXXXXXXX*****XXXXXXXXXXX****************XXXXXXXXXXXXXXXXXXXXXX.",
".XXXXXXXXXXXXXXXXXXXXXX*****XXXXXXXXXXXXX****************XXXXXXXXXXXXXXXXXXXXX.",
".XXXXXXXXXXXXXXXXXXXXX*****XXXXXXXXXXXXXXX****************XXXXXXXXXXXXXXXXXXXX.",
".XXXXXXXXXXXXXXXXXXXX*****XXXXXXXXXXXXXXXXX****************XXXXXXXXXXXXXXXXXXX.",
".XXXXXXXXXXXXXXXXXXX*****XXXXXXXXXXXXXXXXXX****************XXXXXXXXXXXXXXXXXXX.",
".XXXXXXXXXXXXXXXXXXX*****XXXXXXXXXXXXXXXXXXX****************XXXXXXXXXXXXXXXXXX.",
".XXXXXXXXXXXXXXXXXX*****XXXXXXXXXXXXXXXXXXXXX****************XXXXXXXXXXXXXXXXX.",
".XXXXXXXXXXXXXXXXX*****XXXXXXXXXXXXXXXXXXXXXXX****************XXXXXXXXXXXXXXXX.",
".XXXXXXXXXXXXXXXX*****XXXXXXXXXXXXXXXXXXXXXXXX****************XXXXXXXXXXXXXXXX.",
".XXXXXXXXXXXXXXX*****XXXXXXXXXXXXXXXXXXXXXXXXXX****************XXXXXXXXXXXXXXX.",
".XXXXXXXXXXXXXXX*****XXXXXXXXXXXXXXXXXXXXXXXXXXX****************XXXXXXXXXXXXXX.",
".XXXXXXXXXXXXXX*****XXXXXXXXXXXXXXXXXXXXXXXXXXXXX****************XXXXXXXXXXXXX.",
".XXXXXXXXXXXXX*****XXXXXXXXXXXXXXXXXXXXXXXXXXXXXX****************XXXXXXXXXXXXX.",
".XXXXXXXXXXXX*****XXXXXXXXXXXXXXXXXXXXXXXXXXXXXXXX****************XXXXXXXXXXXX.",
".XXXXXXXXXXX*****XXXXXXXXXXXXXXXXXXXXXXXXXXXXXXXXXX****************XXXXXXXXXXX.",
".XXXXXXXXXXX*****XXXXXXXXXXXXXXXXXXXXXXXXXXXXXXXXXXX****************XXXXXXXXXX.",
".XXXXXXXXXX*****XXXXXXXXXXXXXXXXXXXXXXXXXXXXXXXXXXXX****************XXXXXXXXXX.",
".XXXXXXXXX*****XXXXXXXXXXXXXXXXXXXXXXXX%XXXXXXXXXXXXX****************XOXXXXXXX.",
".XXXXXXXX*****XXXXXXXXXXXXXXXXXXXXXXXX@o@XXXXXXXXXXXXX***************OoOXXXXXX.",
".XXXXXXX*****XXXXXXXXXXXXXXXXXXXXXXXXX$o$XXXXXXXXXXXXXX**************$o$XXXXXX.",
".XXXXXXXXXXXXXXXXXXXXXXXXXXXXXXXXXXXX&ooo&XXXXXXXXXXXXXXXXXXXXXXXXXX#ooo#XXXXX.",
".XXXXXXXXXXXXXXXXXXXXXXXXXXXXXXXXXXXOoooooOXXXXXXXXXXXXXXXXXXXXXXXX&ooooo&XXXX.",
".XXXXXXXXXXXXXXXXXXXXXXXXXXXXXXXXXX@$ooooo$@XXXXXXXXXXXXXXXXXXXXXX%ooooooo%XXX.",
".XXXXXXXXXXXXXXXXXXXXXXXXXXXXXXXXXX+ooooooo+XXXXXXXXXXXXXXXXXXXXXX+ooooooo+XXX.",
".XXXXXXXXXXXXXXXXXXXXXXXXXXXXXXXXX#ooooooooo#XXXXXXXXXXXXXXXXXXXXX&ooo$ooo&XXX.",
".XXXXXXXXXXXXXXXXXXXXXXXXXXXXXXXX#ooooooooooo#XXXXXXXXXXXXXXXXXXXXX#$&X&$#XXXX.",
".XXXXXXXXXXXXXXXXXXXXXXXXXXXXXXX%ooooooooooooo%XXXXXXXXXXXXXXXXXXXXXXXXXXXXXXX.",
".XXXXXXXXXXXXXXXXXXXXXXXXXXXXXXOoooooooooooooooOXXXXXXXXXXXXXXXXXXXXXXXXXXXXXX.",
".XXXXXXXXXXXXXXXXXXXXXXXXXXXXXX+ooooooooooooooo+XXXXXXXXXXXXXXXXXXXXXXXXXXXXXX.",
".XXXXXXXXXXXXXXXXXXXXXXXXXXXXXXoooooooooooooooooXXXXXXXXXXXXXXXXXXXXXXXXXXXXXX.",
".XXXXXXXXXXXXXXXXXXXXXXXXXXXXXXoooooooooooooooooXXXXXXXXXXXXXXXXXXXO+ooo+OXXXX.",
".XXXXXXXXXXXXXXXXXXXXXXXXXXXXXX#ooooooo+ooooooo#XXXXXXXXXXXXXXXXXXX+ooooooOXXX.",
".XXXXXXXXXXXXXXXXXXXXXXXXXXXXXX@oooooo$X$oooooo@XXXXXXXXXXXXXXXXXXoo+XXOoooXXX.",
".XXXXXXXXXXXXXXXXXXXXXXXXXXXXXXXO+ooo#@X@#ooo+OXXXXXXXXXXXXXXXXXXXooXXXXOoOXXX.",
".XXXXXXXXXXXXXXXXXXXXXXXXXXXXXXXXX@O@XXXXX@O@XXXXXXXXXXXXXXXXXXXXXooXXXXXXXXXX.",
".XXXXXXXXXXXXXXXXXXXXXXXXXXXXXXXXXXXXXXXXXXXXXXXXXXXXXXXXXXXXXXXXXooXXXXXXXXXX.",
".XXXXXXXXXXXXXXXXXXXXXXXXXXXXXXXXXXXXXXXXXXXXXXXXXXXXXXXXXXXXXXXXXoo+XX+OXXXXX.",
".XXXXXXXXXXXXXXXXXXXXXXXXXXXXXXXXXXXXXXXXXXXXXXXXXXXXXXXXXXXXXXXXXXooooooXXXXX.",
".XXXXXXXXXXXXXXXXXXXXXXXXXXXXXXXXXXXXXXXXXXXXXXXXXXXXXXXXXXXXXXXXXXXooooOXXXXX.",
".XXXXXXXXXXXXXXXXXXXXXXXXXXXXXXXXXXXXXXXXXXXXXXXXXXXXXXXXXXXXXXXXXXXoooOXXXXXX.",
".XXXXXXXXXXXXXXXXXXXXXXXXXXXXXXXXXXXXXXXXXXXXXXXXXXXXXXXXXXXXXXXXXX+ooOXXXXXXX.",
".XXXXXXXXXXXXXXXXXXXXXXXXXXXXXXXXXXXXXXXXXXXXXXXXXXXXXXXXXXXXXXXXX+ooOXXXooXXX.",
".XXXXXXXXXXXXXXXXXXXXXXXXXXXXXXXXXXXXXXXXXXXXXXXXXXXXXXXXXXXXXXXXXoooooooooXXX.",
" .XXXXXXXXXXXXXXXXXXXXXXXXXXXXXXXXXXXXXXXXXXXXXXXXXXXXXXXXXXXXXXXXoooooooooXX. ",
" .XXXXXXXXXXXXXXXXXXXXXXXXXXXXXXXXXXXXXXXXXXXXXXXXXXXXXXXXXXXXXXXXXXXXXXXXXXX. ",
"  .XXXXXXXXXXXXXXXXXXXXXXXXXXXXXXXXXXXXXXXXXXXXXXXXXXXXXXXXXXXXXXXXXXXXXXXXX.  ",
"  .XXXXXXXXXXXXXXXXXXXXXXXXXXXXXXXXXXXXXXXXXXXXXXXXXXXXXXXXXXXXXXXXXXXXXXXXX.  ",
"   ..XXXXXXXXXXXXXXXXXXXXXXXXXXXXXXXXXXXXXXXXXXXXXXXXXXXXXXXXXXXXXXXXXXXXX..   ",
"     ..XXXXXXXXXXXXXXXXXXXXXXXXXXXXXXXXXXXXXXXXXXXXXXXXXXXXXXXXXXXXXXXXX..     ",
"       .................................................................       "};
