/* XPM */
static char * Three_Clubs_xpm[] = {
"79 123 11 1",
" 	c None",
".	c #000000000000",
"X	c #FFFFFFFFFFFF",
"o	c #BEFBBEFBBEFB",
"O	c #38E33CF338E3",
"+	c #79E77DF779E7",
"@	c #18611C711861",
"#	c #DF7DDF7DDF7D",
"$	c #9E799E799E79",
"%	c #D75CD75CD75C",
"&	c #59655D755965",
"       .................................................................       ",
"     ..XXXXXXXXXXXXXXXXXXXXXXXXXXXXXXXXXXXXXXXXXXXXXXXXXXXXXXXXXXXXXXXXX..     ",
"   ..XXXXXXXXXXXXXXXXXXXXXXXXXXXXXXXXXXXXXXXXXXXXXXXXXXXXXXXXXXXXXXXXXXXXX..   ",
"  .XXXXXXXXXXXXXXXXXXXXXXXXXXXXXXXXXXXXXXXXXXXXXXXXXXXXXXXXXXXXXXXXXXXXXXXXX.  ",
"  .XXXXXXXXXXXXXXXXXXXXXXXXXXXXXXXXXXXXXXXXXXXXXXXXXXXXXXXXXXXXXXXXXXXXXXXXX.  ",
" .XXXXXXXXXXXXXXXXXXXXXXXXXXXXXXXXXXXXXXXXXXXXXXXXXXXXXXXXXXXXXXXXXXXXXXXXXXX. ",
" .XX.........XXXXXXXXXXXXXXXXXXXXXXXXXXXXXXXXXXXXXXXXXXXXXXXXXXXXXXXXXXXXXXXX. ",
".XXX.........XXXXXXXXXXXXXXXXXXXXXXXXXXXXXXXXXXXXXXXXXXXXXXXXXXXXXXXXXXXXXXXXX.",
".XXX..XXXo..OXXXXXXXXXXXXXXXXXXXXXXXXXXXXXXXXXXXXXXXXXXXXXXXXXXXXXXXXXXXXXXXXX.",
".XXXXXXXo..OXXXXXXXXXXXXXXXXXXXXXXXXXXXXXXXXXXXXXXXXXXXXXXXXXXXXXXXXXXXXXXXXXX.",
".XXXXXXo...XXXXXXXXXXXXXXXXXXXXXXXXXXXXXXXXXXXXXXXXXXXXXXXXXXXXXXXXXXXXXXXXXXX.",
".XXXXXo....XXXXXXXXXXXXXXXXXXXXXXXXXXXXXXXXXXXXXXXXXXXXXXXXXXXXXXXXXXXXXXXXXXX.",
".XXXXX......XXXXXXXXXXXXXXXXXXXXXXXXXXXXXXXXXXXXXXXXXXXXXXXXXXXXXXXXXXXXXXXXXX.",
".XXXXXoOXXO..XXXXXXXXXXXXXXXXXXXXXXXXXXXXXXXXXXXXXXXXXXXXXXXXXXXXXXXXXXXXXXXXX.",
".XXXXXXXXXX..XXXXXXXXXXXXXXXXXXXXXXXXXXXXXXXXXXXXXXXXXXXXXXXXXXXXXXXXXXXXXXXXX.",
".XXXXXXXXXX..XXXXXXXXXXXXXXXXXXXXXXXX+@.@+XXXXXXXXXXXXXXXXXXXXXXXXXXXXXXXXXXXX.",
".XXXo.oXXXX..XXXXXXXXXXXXXXXXXXXXXXX+.....+XXXXXXXXXXXXXXXXXXXXXXXXXXXXXXXXXXX.",
".XXX...oXXO..XXXXXXXXXXXXXXXXXXXXXX#.......#XXXXXXXXXXXXXXXXXXXXXXXXXXXXXXXXXX.",
".XXXo......OXXXXXXXXXXXXXXXXXXXXXXXo.......oXXXXXXXXXXXXXXXXXXXXXXXXXXXXXXXXXX.",
".XXXXoO...OoXXXXXXXXXXXXXXXXXXXXXXX#.......#XXXXXXXXXXXXXXXXXXXXXXXXXXXXXXXXXX.",
".XXXXXXXXXXXXXXXXXXXXXXXXXXXXXXX#o#XO.....OX#o#XXXXXXXXXXXXXXXXXXXXXXXXXXXXXXX.",
".XXXXXXXXXXXXXXXXXXXXXXXXXXXXXX+...O#@...@#O...+XXXXXXXXXXXXXXXXXXXXXXXXXXXXXX.",
".XXXXXXXXXXXXXXXXXXXXXXXXXXXXX+.....@#@.@#@.....+XXXXXXXXXXXXXXXXXXXXXXXXXXXXX.",
".XXXXXXXoXXXXXXXXXXXXXXXXXXXXX@......@#.#@......@XXXXXXXXXXXXXXXXXXXXXXXXXXXXX.",
".XXXXX#@.@#XXXXXXXXXXXXXXXXXXX...................XXXXXXXXXXXXXXXXXXXXXXXXXXXXX.",
".XXXXX$...$XXXXXXXXXXXXXXXXXXX@......@#.#@......@XXXXXXXXXXXXXXXXXXXXXXXXXXXXX.",
".XXX#$o...o$#XXXXXXXXXXXXXXXXX+.....@#X.X#@.....+XXXXXXXXXXXXXXXXXXXXXXXXXXXXX.",
".XXX@..+@+..@XXXXXXXXXXXXXXXXXX+...O#XX.XX#O...+XXXXXXXXXXXXXXXXXXXXXXXXXXXXXX.",
".XXo...@O@...oXXXXXXXXXXXXXXXXXX#o#XXX#.#XXX#o#XXXXXXXXXXXXXXXXXXXXXXXXXXXXXXX.",
".XXX@..o+o..@%%%%%%%%%%XXXXXXXXXXXXXXXo.oXXXXXXXXXXXXXXXXXXXXXXXXX%%%%%XXXXXXX.",
".XXX#$#X&%#$#%%%%%%%%%%%XXXXXXXXXXXXXX&.&XXXXXXXXXXXXXXXXXXXXXXXXX%%%%%XXXXXXX.",
".XXXXXXX.%%%%%%%%%%%%%%%%XXXXXXXXXXXXX@.@XXXXXXXXXXXXXXXXXXXXXXXX%%%%%XXXXXXXX.",
".XXXXXXo+o%%%%%%%%%%%%%%%%XXXXXXXXXXX$O+O$XXXXXXXXXXXXXXXXXXXXXX%%%%%XXXXXXXXX.",
".XXXXXXXXX%%%%%%%%%%%%%%%%XXXXXXXXXXXXXXXXXXXXXXXXXXXXXXXXXXXXX%%%%%XXXXXXXXXX.",
".XXXXXXXXXX%%%%%%%%%%%%%%%%XXXXXXXXXXXXXXXXXXXXXXXXXXXXXXXXXXX%%%%%XXXXXXXXXXX.",
".XXXXXXXXXXX%%%%%%%%%%%%%%%%XXXXXXXXXXXXXXXXXXXXXXXXXXXXXXXXXX%%%%%XXXXXXXXXXX.",
".XXXXXXXXXXXX%%%%%%%%%%%%%%%%XXXXXXXXXXXXXXXXXXXXXXXXXXXXXXXX%%%%%XXXXXXXXXXXX.",
".XXXXXXXXXXXX%%%%%%%%%%%%%%%%XXXXXXXXXXXXXXXXXXXXXXXXXXXXXXX%%%%%XXXXXXXXXXXXX.",
".XXXXXXXXXXXXX%%%%%%%%%%%%%%%%XXXXXXXXXXXXXXXXXXXXXXXXXXXXX%%%%%XXXXXXXXXXXXXX.",
".XXXXXXXXXXXXXX%%%%%%%%%%%%%%%%XXXXXXXXXXXXXXXXXXXXXXXXXXX%%%%%XXXXXXXXXXXXXXX.",
".XXXXXXXXXXXXXXX%%%%%%%%%%%%%%%%XXXXXXXXXXXXXXXXXXXXXXXXXX%%%%%XXXXXXXXXXXXXXX.",
".XXXXXXXXXXXXXXX%%%%%%%%%%%%%%%%XXXXXXXXXXXXXXXXXXXXXXXXX%%%%%XXXXXXXXXXXXXXXX.",
".XXXXXXXXXXXXXXXX%%%%%%%%%%%%%%%%XXXXXXXXXXXXXXXXXXXXXXX%%%%%XXXXXXXXXXXXXXXXX.",
".XXXXXXXXXXXXXXXXX%%%%%%%%%%%%%%%%XXXXXXXXXXXXXXXXXXXXX%%%%%XXXXXXXXXXXXXXXXXX.",
".XXXXXXXXXXXXXXXXXX%%%%%%%%%%%%%%%%XXXXXXXXXXXXXXXXXXX%%%%%XXXXXXXXXXXXXXXXXXX.",
".XXXXXXXXXXXXXXXXXX%%%%%%%%%%%%%%%%XXXXXXXXXXXXXXXXXX%%%%%XXXXXXXXXXXXXXXXXXXX.",
".XXXXXXXXXXXXXXXXXXX%%%%%%%%%%%%%%%%XXXXXXXXXXXXXXXXX%%%%%XXXXXXXXXXXXXXXXXXXX.",
".XXXXXXXXXXXXXXXXXXXX%%%%%%%%%%%%%%%%XXXXXXXXXXXXXXX%%%%%XXXXXXXXXXXXXXXXXXXXX.",
".XXXXXXXXXXXXXXXXXXXXX%%%%%%%%%%%%%%%%XXXXXXXXXXXXX%%%%%XXXXXXXXXXXXXXXXXXXXXX.",
".XXXXXXXXXXXXXXXXXXXXX%%%%%%%%%%%%%%%%XXXXXXXXXXXX%%%%%XXXXXXXXXXXXXXXXXXXXXXX.",
".XXXXXXXXXXXXXXXXXXXXXX%%%%%%%%%%%%%%%%XXXXXXXXXX%%%%%XXXXXXXXXXXXXXXXXXXXXXXX.",
".XXXXXXXXXXXXXXXXXXXXXXX%%%%%%%%%%%%%%%%XXXXXXXXX%%%%%XXXXXXXXXXXXXXXXXXXXXXXX.",
".XXXXXXXXXXXXXXXXXXXXXXXX%%%%%%%%%%%%%%%%XXXXXXX%%%%%XXXXXXXXXXXXXXXXXXXXXXXXX.",
".XXXXXXXXXXXXXXXXXXXXXXXX%%%%%%%%%%%%%%%%XXXXXX%%%%%XXXXXXXXXXXXXXXXXXXXXXXXXX.",
".XXXXXXXXXXXXXXXXXXXXXXXXX%%%%%%%%%%%+@.@+XXXX%%%%%XXXXXXXXXXXXXXXXXXXXXXXXXXX.",
".XXXXXXXXXXXXXXXXXXXXXXXXXX%%%%%%%%%+.....+XX%%%%%XXXXXXXXXXXXXXXXXXXXXXXXXXXX.",
".XXXXXXXXXXXXXXXXXXXXXXXXXXX%%%%%%%#.......#X%%%%%XXXXXXXXXXXXXXXXXXXXXXXXXXXX.",
".XXXXXXXXXXXXXXXXXXXXXXXXXXX%%%%%%%o.......o%%%%%XXXXXXXXXXXXXXXXXXXXXXXXXXXXX.",
".XXXXXXXXXXXXXXXXXXXXXXXXXXXX%%%%%%#.......#%%%%XXXXXXXXXXXXXXXXXXXXXXXXXXXXXX.",
".XXXXXXXXXXXXXXXXXXXXXXXXXXXXX%%#o#%O.....O%#o#XXXXXXXXXXXXXXXXXXXXXXXXXXXXXXX.",
".XXXXXXXXXXXXXXXXXXXXXXXXXXXXXX+...O#@...@#O...+XXXXXXXXXXXXXXXXXXXXXXXXXXXXXX.",
".XXXXXXXXXXXXXXXXXXXXXXXXXXXXX+.....@#@.@#@.....+XXXXXXXXXXXXXXXXXXXXXXXXXXXXX.",
".XXXXXXXXXXXXXXXXXXXXXXXXXXXXX@......@#.#@......@XXXXXXXXXXXXXXXXXXXXXXXXXXXXX.",
".XXXXXXXXXXXXXXXXXXXXXXXXXXXXX...................XXXXXXXXXXXXXXXXXXXXXXXXXXXXX.",
".XXXXXXXXXXXXXXXXXXXXXXXXXXXXX@......@#.#@......@%XXXXXXXXXXXXXXXXXXXXXXXXXXXX.",
".XXXXXXXXXXXXXXXXXXXXXXXXXXXXX+.....@#%.%#@.....+%XXXXXXXXXXXXXXXXXXXXXXXXXXXX.",
".XXXXXXXXXXXXXXXXXXXXXXXXXXXX%%+...O#%%.%%#O...+%%%XXXXXXXXXXXXXXXXXXXXXXXXXXX.",
".XXXXXXXXXXXXXXXXXXXXXXXXXXXX%%%#o#X%%#.#%%%#o#%%%%%XXXXXXXXXXXXXXXXXXXXXXXXXX.",
".XXXXXXXXXXXXXXXXXXXXXXXXXXX%%%%%XXXX%o.o%%%%%%%%%%%%XXXXXXXXXXXXXXXXXXXXXXXXX.",
".XXXXXXXXXXXXXXXXXXXXXXXXXX%%%%%XXXXX%&.&%%%%%%%%%%%%XXXXXXXXXXXXXXXXXXXXXXXXX.",
".XXXXXXXXXXXXXXXXXXXXXXXXX%%%%%XXXXXXX@.@%%%%%%%%%%%%%XXXXXXXXXXXXXXXXXXXXXXXX.",
".XXXXXXXXXXXXXXXXXXXXXXXX%%%%%XXXXXXX$O+O$%%%%%%%%%%%%%XXXXXXXXXXXXXXXXXXXXXXX.",
".XXXXXXXXXXXXXXXXXXXXXXXX%%%%%XXXXXXXXXX%%%%%%%%%%%%%%%%XXXXXXXXXXXXXXXXXXXXXX.",
".XXXXXXXXXXXXXXXXXXXXXXX%%%%%XXXXXXXXXXX%%%%%%%%%%%%%%%%XXXXXXXXXXXXXXXXXXXXXX.",
".XXXXXXXXXXXXXXXXXXXXXX%%%%%XXXXXXXXXXXXX%%%%%%%%%%%%%%%%XXXXXXXXXXXXXXXXXXXXX.",
".XXXXXXXXXXXXXXXXXXXXX%%%%%XXXXXXXXXXXXXXX%%%%%%%%%%%%%%%%XXXXXXXXXXXXXXXXXXXX.",
".XXXXXXXXXXXXXXXXXXXX%%%%%XXXXXXXXXXXXXXXXX%%%%%%%%%%%%%%%%XXXXXXXXXXXXXXXXXXX.",
".XXXXXXXXXXXXXXXXXXX%%%%%XXXXXXXXXXXXXXXXXX%%%%%%%%%%%%%%%%XXXXXXXXXXXXXXXXXXX.",
".XXXXXXXXXXXXXXXXXXX%%%%%XXXXXXXXXXXXXXXXXXX%%%%%%%%%%%%%%%%XXXXXXXXXXXXXXXXXX.",
".XXXXXXXXXXXXXXXXXX%%%%%XXXXXXXXXXXXXXXXXXXXX%%%%%%%%%%%%%%%%XXXXXXXXXXXXXXXXX.",
".XXXXXXXXXXXXXXXXX%%%%%XXXXXXXXXXXXXXXXXXXXXXX%%%%%%%%%%%%%%%%XXXXXXXXXXXXXXXX.",
".XXXXXXXXXXXXXXXX%%%%%XXXXXXXXXXXXXXXXXXXXXXXX%%%%%%%%%%%%%%%%XXXXXXXXXXXXXXXX.",
".XXXXXXXXXXXXXXX%%%%%XXXXXXXXXXXXXXXXXXXXXXXXXX%%%%%%%%%%%%%%%%XXXXXXXXXXXXXXX.",
".XXXXXXXXXXXXXXX%%%%%XXXXXXXXXXXXXXXXXXXXXXXXXXX%%%%%%%%%%%%%%%%XXXXXXXXXXXXXX.",
".XXXXXXXXXXXXXX%%%%%XXXXXXXXXXXXXXXXXXXXXXXXXXXXX%%%%%%%%%%%%%%%%XXXXXXXXXXXXX.",
".XXXXXXXXXXXXX%%%%%XXXXXXXXXXXXXXXXXXXXXXXXXXXXXX%%%%%%%%%%%%%%%%XXXXXXXXXXXXX.",
".XXXXXXXXXXXX%%%%%XXXXXXXXXXXXXXXXXXXXXXXXXXXXXXXX%%%%%%%%%%%%%%%%XXXXXXXXXXXX.",
".XXXXXXXXXXX%%%%%XXXXXXXXXXXXXXXXXXXXXXXXXXXXXXXXXX%%%%%%%%%%%%%%%%XXXXXXXXXXX.",
".XXXXXXXXXXX%%%%%XXXXXXXXXXXXXXXXXXXXXXXXXXXXXXXXXXX%%%%%%%%%%%%%%%%XXXXXXXXXX.",
".XXXXXXXXXX%%%%%XXXXXXXXXXXXXXXXXXXXXXXXXXXXXXXXXXXX%%%%%%%%%%%%%%%%XXXXXXXXXX.",
".XXXXXXXXX%%%%%XXXXXXXXXXXXXXXXXXXXXX$O+O$XXXXXXXXXXX%%%%%%%%%%%%%%%%o+oXXXXXX.",
".XXXXXXXX%%%%%XXXXXXXXXXXXXXXXXXXXXXXX@.@XXXXXXXXXXXXX%%%%%%%%%%%%%%%%.XXXXXXX.",
".XXXXXXX%%%%%XXXXXXXXXXXXXXXXXXXXXXXXX&.&XXXXXXXXXXXXXX%%%%%%%%%%%#$#%&X#$#XXX.",
".XXXXXXXXXXXXXXXXXXXXXXXXXXXXXXXXXXXXXo.oXXXXXXXXXXXXXXXXXXXXXXXXX@..o+o..@XXX.",
".XXXXXXXXXXXXXXXXXXXXXXXXXXXXXXX#o#XXX#.#XXX#o#XXXXXXXXXXXXXXXXXXo...@O@...oXX.",
".XXXXXXXXXXXXXXXXXXXXXXXXXXXXXX+...O#XX.XX#O...+XXXXXXXXXXXXXXXXXX@..+@+..@XXX.",
".XXXXXXXXXXXXXXXXXXXXXXXXXXXXX+.....@#X.X#@.....+XXXXXXXXXXXXXXXXX#$o...o$#XXX.",
".XXXXXXXXXXXXXXXXXXXXXXXXXXXXX@......@#.#@......@XXXXXXXXXXXXXXXXXXX$...$XXXXX.",
".XXXXXXXXXXXXXXXXXXXXXXXXXXXXX...................XXXXXXXXXXXXXXXXXXX#@.@#XXXXX.",
".XXXXXXXXXXXXXXXXXXXXXXXXXXXXX@......@#.#@......@XXXXXXXXXXXXXXXXXXXXXoXXXXXXX.",
".XXXXXXXXXXXXXXXXXXXXXXXXXXXXX+.....@#@.@#@.....+XXXXXXXXXXXXXXXXXXXXXXXXXXXXX.",
".XXXXXXXXXXXXXXXXXXXXXXXXXXXXXX+...O#@...@#O...+XXXXXXXXXXXXXXXXXXXXXXXXXXXXXX.",
".XXXXXXXXXXXXXXXXXXXXXXXXXXXXXXX#o#XO.....OX#o#XXXXXXXXXXXXXXXXXXXXXXXXXXXXXXX.",
".XXXXXXXXXXXXXXXXXXXXXXXXXXXXXXXXXX#.......#XXXXXXXXXXXXXXXXXXXXXXXoO...OoXXXX.",
".XXXXXXXXXXXXXXXXXXXXXXXXXXXXXXXXXXo.......oXXXXXXXXXXXXXXXXXXXXXXXO......oXXX.",
".XXXXXXXXXXXXXXXXXXXXXXXXXXXXXXXXXX#.......#XXXXXXXXXXXXXXXXXXXXXX..OXXo...XXX.",
".XXXXXXXXXXXXXXXXXXXXXXXXXXXXXXXXXXX+.....+XXXXXXXXXXXXXXXXXXXXXXX..XXXXo.oXXX.",
".XXXXXXXXXXXXXXXXXXXXXXXXXXXXXXXXXXXX+@.@+XXXXXXXXXXXXXXXXXXXXXXXX..XXXXXXXXXX.",
".XXXXXXXXXXXXXXXXXXXXXXXXXXXXXXXXXXXXXXXXXXXXXXXXXXXXXXXXXXXXXXXXX..XXXXXXXXXX.",
".XXXXXXXXXXXXXXXXXXXXXXXXXXXXXXXXXXXXXXXXXXXXXXXXXXXXXXXXXXXXXXXXX..OXXOoXXXXX.",
".XXXXXXXXXXXXXXXXXXXXXXXXXXXXXXXXXXXXXXXXXXXXXXXXXXXXXXXXXXXXXXXXXX......XXXXX.",
".XXXXXXXXXXXXXXXXXXXXXXXXXXXXXXXXXXXXXXXXXXXXXXXXXXXXXXXXXXXXXXXXXXX....oXXXXX.",
".XXXXXXXXXXXXXXXXXXXXXXXXXXXXXXXXXXXXXXXXXXXXXXXXXXXXXXXXXXXXXXXXXXX...oXXXXXX.",
".XXXXXXXXXXXXXXXXXXXXXXXXXXXXXXXXXXXXXXXXXXXXXXXXXXXXXXXXXXXXXXXXXXO..oXXXXXXX.",
".XXXXXXXXXXXXXXXXXXXXXXXXXXXXXXXXXXXXXXXXXXXXXXXXXXXXXXXXXXXXXXXXXO..oXXX..XXX.",
".XXXXXXXXXXXXXXXXXXXXXXXXXXXXXXXXXXXXXXXXXXXXXXXXXXXXXXXXXXXXXXXXX.........XXX.",
" .XXXXXXXXXXXXXXXXXXXXXXXXXXXXXXXXXXXXXXXXXXXXXXXXXXXXXXXXXXXXXXXX.........XX. ",
" .XXXXXXXXXXXXXXXXXXXXXXXXXXXXXXXXXXXXXXXXXXXXXXXXXXXXXXXXXXXXXXXXXXXXXXXXXXX. ",
"  .XXXXXXXXXXXXXXXXXXXXXXXXXXXXXXXXXXXXXXXXXXXXXXXXXXXXXXXXXXXXXXXXXXXXXXXXX.  ",
"  .XXXXXXXXXXXXXXXXXXXXXXXXXXXXXXXXXXXXXXXXXXXXXXXXXXXXXXXXXXXXXXXXXXXXXXXXX.  ",
"   ..XXXXXXXXXXXXXXXXXXXXXXXXXXXXXXXXXXXXXXXXXXXXXXXXXXXXXXXXXXXXXXXXXXXXX..   ",
"     ..XXXXXXXXXXXXXXXXXXXXXXXXXXXXXXXXXXXXXXXXXXXXXXXXXXXXXXXXXXXXXXXXX..     ",
"       .................................................................       "};
